<svg xmlns="http://www.w3.org/2000/svg" viewBox="0 0 39.93 32"><defs><style>.cls-1{isolation:isolate;font-size:10px;font-family:ArialMT, Arial;}</style></defs><g id="Capa_2" data-name="Capa 2"><g id="Capa_1-2" data-name="Capa 1"><circle cx="6" cy="4" r="4"/><path d="M9.09,10H8a1,1,0,0,0-.71.29L6,11.58,4.71,10.29A1.05,1.05,0,0,0,4,10H2.9a2,2,0,0,0-2,1.8L0,20.9a1,1,0,0,0,.26.77A1,1,0,0,0,1,22H2.09l.82,8.2a2,2,0,0,0,2,1.8H7.09a2,2,0,0,0,2-1.8L9.9,22H11a1,1,0,0,0,.74-.33A1,1,0,0,0,12,20.9l-.91-9.1A2,2,0,0,0,9.09,10Z"/><circle cx="18" cy="4" r="4"/><path d="M22.39,20H23a1,1,0,0,0,1-1.13l-.9-7.09a2,2,0,0,0-2-1.78H14.9a2,2,0,0,0-2,1.77l-.9,7.1A1,1,0,0,0,13,20h.61l-1.56,4.68a1,1,0,0,0,.14.9A1,1,0,0,0,13,26h1.15l.72,4.33a2,2,0,0,0,2,1.67h2.3a2,2,0,0,0,2-1.67L21.85,26H23a1,1,0,0,0,.81-.42,1,1,0,0,0,.14-.9Z"/><text class="cls-1" transform="translate(22.96 10.22)">25+</text></g></g></svg>