<svg xmlns="http://www.w3.org/2000/svg" xmlns:xlink="http://www.w3.org/1999/xlink" viewBox="0 0 64 64"><defs><style>.cls-1{fill:#fd0;}.cls-2{fill:#e6e7e8;}.cls-3{fill:url(#linear-gradient);}.cls-4{fill:#fff;opacity:0.5;}.cls-5{font-size:10px;font-family:ArialMT, Arial;}</style><linearGradient id="linear-gradient" x1="21.78" y1="42.22" x2="42.22" y2="21.78" gradientUnits="userSpaceOnUse"><stop offset="0" stop-color="#fff"/><stop offset="1" stop-color="#ccc"/></linearGradient></defs><g id="Layer_2" data-name="Layer 2"><g id="Layer_1-2" data-name="Layer 1"><path class="cls-1" d="M50.81,6.11A31.87,31.87,0,0,0,32,0V32Z"/><path class="cls-2" d="M13.19,6.11a32.08,32.08,0,0,0-11.63,16L32,32Z"/><path class="cls-1" d="M62.44,41.89a32.13,32.13,0,0,0,0-19.78L32,32Z"/><path class="cls-1" d="M62.44,22.11a32.08,32.08,0,0,0-11.63-16L32,32Z"/><path class="cls-2" d="M32,0A31.87,31.87,0,0,0,13.19,6.11L32,32Z"/><path class="cls-1" d="M32,64h0a31.87,31.87,0,0,0,18.81-6.11L32,32Z"/><path class="cls-1" d="M62.44,41.89,32,32,50.81,57.89A32.08,32.08,0,0,0,62.44,41.89Z"/><path class="cls-2" d="M1.56,41.89a32.08,32.08,0,0,0,11.63,16L32,32Z"/><path class="cls-2" d="M1.56,22.11a32.13,32.13,0,0,0,0,19.78L32,32Z"/><path class="cls-2" d="M13.19,57.89A31.87,31.87,0,0,0,32,64V32Z"/><path class="cls-3" d="M32,17.55A14.45,14.45,0,1,0,46.45,32,14.45,14.45,0,0,0,32,17.55Z"/><path class="cls-4" d="M32,17.55A14.43,14.43,0,0,0,21.61,22,14.46,14.46,0,0,1,42.05,42.39,14.46,14.46,0,0,0,32,17.55Z"/><text class="cls-5" transform="translate(21.35 36.2)">50%</text></g></g></svg>