<svg xmlns="http://www.w3.org/2000/svg" xmlns:xlink="http://www.w3.org/1999/xlink" viewBox="0 0 70.8 64"><defs><style>.cls-1{fill:none;}.cls-2{fill:#f76a31;}.cls-3{fill:#e6e7e8;}.cls-4{clip-path:url(#clip-path);}.cls-5{fill:url(#linear-gradient);}.cls-6{fill:#fff;opacity:0.5;}.cls-7{font-size:10px;font-family:ArialMT, Arial;}</style><clipPath id="clip-path" transform="translate(6.8)"><path class="cls-1" d="M1.56,22.11a32.13,32.13,0,0,0,0,19.78L32,32,15.67,22.05Z"/></clipPath><linearGradient id="linear-gradient" x1="21.78" y1="42.22" x2="42.22" y2="21.78" gradientUnits="userSpaceOnUse"><stop offset="0" stop-color="#fff"/><stop offset="1" stop-color="#ccc"/></linearGradient></defs><g id="Layer_2" data-name="Layer 2"><g id="Layer_1-2" data-name="Layer 1"><path class="cls-2" d="M50.83,6.11A31.9,31.9,0,0,0,32,0V32Z" transform="translate(6.8)"/><path class="cls-3" d="M13.2,6.11a32,32,0,0,0-11.64,16L32,32Z" transform="translate(6.8)"/><path class="cls-2" d="M62.44,41.91a32.07,32.07,0,0,0,0-19.76L32,32Z" transform="translate(6.8)"/><path class="cls-2" d="M62.44,22.15a32.07,32.07,0,0,0-11.62-16L32,32Z" transform="translate(6.8)"/><path class="cls-3" d="M32,0A31.87,31.87,0,0,0,13.2,6.11L32,32Z" transform="translate(6.8)"/><path class="cls-2" d="M32,64h0a31.87,31.87,0,0,0,18.8-6.11L32,32Z" transform="translate(6.8)"/><path class="cls-2" d="M62.46,41.89,32,32,50.83,57.89A32,32,0,0,0,62.46,41.89Z" transform="translate(6.8)"/><path class="cls-2" d="M1.56,41.89a32,32,0,0,0,11.64,16L32,32Z" transform="translate(6.8)"/><path class="cls-2" d="M1.56,22.11a32.13,32.13,0,0,0,0,19.78L32,32Z" transform="translate(6.8)"/><path class="cls-2" d="M13.22,57.89A31.84,31.84,0,0,0,32,64V32Z" transform="translate(6.8)"/><g class="cls-4"><polygon class="cls-3" points="2.5 32.03 41.92 32.03 25.31 16.63 0 14.57 2.5 32.03"/></g><path class="cls-5" d="M32,17.55A14.45,14.45,0,1,0,46.45,32,14.45,14.45,0,0,0,32,17.55Z" transform="translate(6.8)"/><path class="cls-6" d="M32,17.55A14.43,14.43,0,0,0,21.61,22,14.46,14.46,0,0,1,42.05,42.39,14.46,14.46,0,0,0,32,17.55Z" transform="translate(6.8)"/><text class="cls-7" transform="translate(29.2 35.57)">75%</text></g></g></svg>