<svg xmlns="http://www.w3.org/2000/svg" viewBox="0 0 39.78 32"><defs><style>.cls-1{fill:#f4f4f4;}.cls-2{isolation:isolate;font-size:10px;font-family:ArialMT, Arial;}</style></defs><g id="Capa_2" data-name="Capa 2"><g id="Capa_1-2" data-name="Capa 1"><path d="M18.62,6.16a3.08,3.08,0,1,0-3.08-3.08,3.08,3.08,0,0,0,3.08,3.08Z"/><path d="M25.82,16.34c0-1.53-1.59-4-3.36-4.38l-.1-.05h0v-.86A3.78,3.78,0,0,0,20.77,8a2,2,0,0,0-.32-.18L18.61,7h0a1.18,1.18,0,0,0-1.47.41L13,13.5a1.18,1.18,0,0,0,.26,1.64,1.14,1.14,0,0,0,.29.15l6.19,2.32a1.06,1.06,0,0,0,.43.08,1.19,1.19,0,0,0,1.11-.79,1.22,1.22,0,0,0-.73-1.54L15.8,13.59l1.67-2.47-.79,2.14,4.11,1.54a1.74,1.74,0,0,1-.6,3.38,1.9,1.9,0,0,1-.62-.12l-5-1.87L12.71,22.1a1.79,1.79,0,0,0,1.1,2.28,1.81,1.81,0,0,0,.61.1H17.1v5.93a1.55,1.55,0,1,0,3.09,0v-6h2.67a1.81,1.81,0,0,0,1.82-1.78,2,2,0,0,0-.1-.6L23.91,20A4.16,4.16,0,0,0,25.82,16.34Z"/><path d="M.32,16.67l-.24.69A1.41,1.41,0,0,0,.8,19.1a1.44,1.44,0,0,0,.57.13,1.39,1.39,0,0,0,1.31-.93l1.59-4.61v1l-2.06,7a1,1,0,0,0,.54,1,.84.84,0,0,0,.47.11h1.1v7.48A1.7,1.7,0,0,0,5.91,32a1.66,1.66,0,0,0,1.74-1.58v-7a.57.57,0,0,1,.57-.57h0a.57.57,0,0,1,.57.57v6.91A1.7,1.7,0,0,0,10.38,32a1.66,1.66,0,0,0,1.74-1.58v-7.6h1.07a.88.88,0,0,0,.47-.11,1,1,0,0,0,.55-1l-2.06-7v-1l1.59,4.61a1.38,1.38,0,0,0,1.35.93,1.39,1.39,0,0,0,1.28-1.88L13.07,8a1.42,1.42,0,0,0-1.41-.92H4.77A1.44,1.44,0,0,0,3.35,8L.72,15.56"/><circle cx="8.24" cy="3.03" r="3.01"/><path class="cls-1" d="M12.23,10.13A3.05,3.05,0,0,0,6.79,8.67l-2,2.66a3,3,0,0,0,2.81,4.88,3,3,0,0,0,2-1.12l2.05-2.67a3.08,3.08,0,0,0,.6-2.26Zm-1.5-1.59a2.51,2.51,0,0,1,.46,3.51l-.79,1L9.7,13a1.94,1.94,0,0,0,.16-.68,1.84,1.84,0,0,0,.72-.44h0a.28.28,0,0,0,.34-.45h0a1.94,1.94,0,0,0-3-2.34h0a.29.29,0,0,0-.39.08.28.28,0,0,0,0,.36h0a1.82,1.82,0,0,0-.24.79,2.23,2.23,0,0,0-.57.3l-.19-.75L7.23,9a2.5,2.5,0,0,1,3.5-.45ZM7.3,12.78l-.41-1.54a1.57,1.57,0,0,1,.45-.31A2,2,0,0,0,8,12a2,2,0,0,0,1.26.39,1.55,1.55,0,0,1-.19.52ZM9.81,9.29a1.11,1.11,0,0,0,.08,1.22l.06.05a.26.26,0,0,0,.33,0,.27.27,0,0,0,.06-.38h0a.55.55,0,0,1-.05-.59,1.39,1.39,0,1,1-2.16.08h0a1.39,1.39,0,0,1,1.7-.39h0ZM6.12,10.46l.59,2.24-1.94-.16a2.34,2.34,0,0,1,.42-.87Zm-.48,4.71a2.49,2.49,0,0,1-1-2.08h0l5.34.5-.88,1.12a2.48,2.48,0,0,1-3.48.47h0Z"/><text class="cls-2" transform="translate(22.82 9.13)">18+</text></g></g></svg>