<svg xmlns="http://www.w3.org/2000/svg" viewBox="0 0 48.74 40.31"><defs><style>.cls-1{fill:#f4f4f4;}.cls-2{isolation:isolate;font-size:10px;font-family:ArialMT, Arial;}</style></defs><g id="Layer_2" data-name="Layer 2"><g id="Layer_1-2" data-name="Layer 1"><g id="Layer_2-2" data-name="Layer 2"><g id="Layer_1-2-2" data-name="Layer 1-2"><path d="M23.5,7.8A3.9,3.9,0,1,0,23.4,0a3.84,3.84,0,0,0-3.9,3.9,4.06,4.06,0,0,0,4,3.9Z"/><path d="M32.5,20.6c0-1.9-2-5.1-4.2-5.5l-.1-.1h0V13.9a4.74,4.74,0,0,0-2-3.9.76.76,0,0,0-.4-.2l-2.3-1h0a1.57,1.57,0,0,0-1.9.5L16.4,17a1.55,1.55,0,0,0,.3,2.1c.1.1.2.1.4.2l7.8,2.9a.9.9,0,0,0,.5.1,1.5,1.5,0,0,0,1.4-1,1.45,1.45,0,0,0-.9-1.9l-6-2.2L22,14l-1,2.7,5.2,1.9a2.23,2.23,0,0,1,1.3,2.8,2,2,0,0,1-2.1,1.4,2.2,2.2,0,0,1-.8-.1l-6.3-2.4L16,27.8a2.27,2.27,0,0,0,1.4,2.9,2,2,0,0,0,.8.1h3.4v7.5a2,2,0,0,0,2,2,2,2,0,0,0,1.9-2V30.8h3.4a2.31,2.31,0,0,0,2.3-2.2,2.2,2.2,0,0,0-.1-.8l-.8-2.6A5.42,5.42,0,0,0,32.5,20.6Z"/><path d="M.4,21l-.3.9A1.79,1.79,0,0,0,1,24.1a1.85,1.85,0,0,0,.7.2,1.71,1.71,0,0,0,1.6-1.2l2-5.8v1.2L2.7,27.3a1.21,1.21,0,0,0,.7,1.3,1.27,1.27,0,0,0,.6.1H5.4v9.4a2.26,2.26,0,0,0,2,2.2,2.05,2.05,0,0,0,2.2-2V29.4a.68.68,0,0,1,.7-.7h0a.68.68,0,0,1,.7.7v8.7a2.26,2.26,0,0,0,2,2.2,2.05,2.05,0,0,0,2.2-2V28.7h1.4a1.27,1.27,0,0,0,.6-.1,1.21,1.21,0,0,0,.7-1.3l-2.6-8.8V17.3l2,5.8a1.76,1.76,0,1,0,3.3-1.2L16.4,10.2A2,2,0,0,0,14.6,9H6a1.83,1.83,0,0,0-1.8,1.2L.9,19.7"/><circle cx="10.4" cy="3.8" r="3.8"/><path class="cls-1" d="M15.4,12.8a3.83,3.83,0,0,0-4.3-3.3A3.67,3.67,0,0,0,8.6,11L6,14.3a3.83,3.83,0,0,0,.7,5.4,4,4,0,0,0,2.8.8A3.55,3.55,0,0,0,12,19.1l2.6-3.4a3.93,3.93,0,0,0,.8-2.9Zm-1.9-2a3.17,3.17,0,0,1,.6,4.4l-1,1.3-.9-.1a2.92,2.92,0,0,0,.2-.9,1.8,1.8,0,0,0,.9-.6h0c.2.1.4.1.5-.1s.1-.4-.1-.5h0a2.33,2.33,0,0,0-.9-3.3,2.44,2.44,0,0,0-2.9.4h0c-.2-.1-.4-.1-.5.1s-.1.3.1.5h0a1.69,1.69,0,0,0-.3,1,1.61,1.61,0,0,0-.7.4l-.2-.9.9-1.1a2.88,2.88,0,0,1,4.3-.6ZM9.2,16.1l-.5-1.9a1,1,0,0,1,.5-.4,2.16,2.16,0,0,0,.9,1.4,3,3,0,0,0,1.6.5,1.42,1.42,0,0,1-.2.6Zm3.1-4.4a1.36,1.36,0,0,0,.1,1.5l.1.1a.3.3,0,0,0,.4,0c.2-.1.2-.3.1-.5h0a.62.62,0,0,1-.1-.7,1.77,1.77,0,0,1-2.7,2.3,1.8,1.8,0,0,1-.1-2.2h0a1.75,1.75,0,0,1,2.2-.5ZM7.7,13.2,8.4,16,6,15.8a3.7,3.7,0,0,1,.5-1.1Zm-.6,5.9a3,3,0,0,1-1.2-2.6h0l6.7.6-1.1,1.4a3.08,3.08,0,0,1-4.4.6Z"/><text class="cls-2" transform="translate(31.78 12.53)">25+</text></g></g></g></g></svg>