<svg xmlns="http://www.w3.org/2000/svg" viewBox="0 0 32.49 32.01"><defs><style>.cls-1{fill:#1d71b8;}.cls-2{fill:none;stroke:#fff;stroke-miterlimit:10;stroke-width:0.25px;}</style></defs><g id="Capa_2" data-name="Capa 2"><g id="Capa_1-2" data-name="Capa 1"><path class="cls-1" d="M17.9,26.11c1.28.44,2.4.72,4,1.21C21.3,35.17,13.88,32.05,17.9,26.11Zm6.63-7.2c-.09-2.36-.5-5.45-3.81-5-1.55.41-2.69,2.11-3.23,5a13.93,13.93,0,0,0,.23,5.23c.31,1,.21.9.55,1.08,1.32.3,2.63.63,4,1C23.6,25.31,24.71,20.22,24.53,18.91Zm-10.2-.18a14,14,0,0,0,.22-5.24c-.54-2.94-1.68-4.64-3.23-5-3.3-.49-3.72,2.6-3.8,5-.19,1.32.93,6.4,2.28,7.36,1.34-.34,2.65-.67,4-1C14.12,19.62,14,19.68,14.33,18.73Zm-4.21,3.1c.63,7.84,8,4.73,4-1.22C12.87,21.05,11.74,21.33,10.12,21.83Z"/><line class="cls-2" x1="32.36" y1="10.35" x2="32.36" y2="19.93"/><line class="cls-2" x1="11.35" y1="0.13" x2="20.93" y2="0.13"/><line class="cls-2" x1="0.13" y1="10.35" x2="0.13" y2="19.93"/></g></g></svg>