<svg xmlns="http://www.w3.org/2000/svg" viewBox="0 0 40.12 32"><defs><style>.cls-1,.cls-3{stroke:#fff;stroke-miterlimit:10;}.cls-1{stroke-width:2px;}.cls-2{isolation:isolate;font-size:10px;fill:#f7f7f7;font-family:ArialMT, Arial;}.cls-3{fill:none;stroke-width:0.25px;}</style></defs><g id="Capa_2" data-name="Capa 2"><g id="Capa_1-2" data-name="Capa 1"><circle cx="6" cy="4" r="4"/><path d="M9.09,10H8a1,1,0,0,0-.71.29L6,11.58,4.71,10.29A1.05,1.05,0,0,0,4,10H2.9a2,2,0,0,0-2,1.8L0,20.9a1,1,0,0,0,.26.77A1,1,0,0,0,1,22H2.09l.82,8.2a2,2,0,0,0,2,1.8H7.09a2,2,0,0,0,2-1.8L9.9,22H11a1,1,0,0,0,.74-.33A1,1,0,0,0,12,20.9l-.91-9.1A2,2,0,0,0,9.09,10Z"/><circle cx="20" cy="4" r="4"/><path d="M24.38,20H25a1,1,0,0,0,1-1.13l-.9-7.09a2,2,0,0,0-2-1.78H16.9a2,2,0,0,0-2,1.77l-.9,7.1A1,1,0,0,0,15,20h.61l-1.56,4.68a1,1,0,0,0,.14.9A1,1,0,0,0,15,26h1.15l.72,4.33a2,2,0,0,0,2,1.67h2.3a2,2,0,0,0,2-1.67L23.85,26H25a1,1,0,0,0,.81-.42,1,1,0,0,0,.14-.9Z"/><path class="cls-1" d="M9.28,30.49l7.39,0a.66.66,0,0,0,0-1.31H14.81V25.85h1.85a.66.66,0,0,0,0-1.31h-.93l0-13.21h-.93l-.93-2.77h-.27l0-6.47a.66.66,0,0,0-1.31,0l0,6.46H12l-.91,2.77h-.93l0,13.2H9.26a.65.65,0,0,0,0,1.3h1.85v3.31H9.27a.64.64,0,0,0-.64.66A.65.65,0,0,0,9.28,30.49Zm3.88-16.35a.72.72,0,0,1,.2-.46.7.7,0,0,1,.46-.2h1.24v1.29H13.82a.66.66,0,0,1-.66-.65Zm0,2.68a.65.65,0,0,1,.65-.65h1.24v1.29H13.83a.64.64,0,0,1-.66-.64Zm0,2.68a.65.65,0,0,1,.65-.65h1.24v1.29H13.84a.66.66,0,0,1-.66-.65Zm0,2.68a.64.64,0,0,1,.62-.65h1.26v1.29H13.85A.65.65,0,0,1,13.2,22.18Z"/><path d="M9.28,30.49l7.39,0a.66.66,0,0,0,0-1.31H14.81V25.85h1.85a.66.66,0,0,0,0-1.31h-.93l0-13.21h-.93l-.93-2.77h-.27l0-6.47a.66.66,0,0,0-1.31,0l0,6.46H12l-.91,2.77h-.93l0,13.2H9.26a.65.65,0,0,0,0,1.3h1.85v3.31H9.27a.64.64,0,0,0-.64.66A.65.65,0,0,0,9.28,30.49Zm3.88-16.35a.72.72,0,0,1,.2-.46.7.7,0,0,1,.46-.2h1.24v1.29H13.82a.66.66,0,0,1-.66-.65Zm0,2.68a.65.65,0,0,1,.65-.65h1.24v1.29H13.83a.64.64,0,0,1-.66-.64Zm0,2.68a.65.65,0,0,1,.65-.65h1.24v1.29H13.84a.66.66,0,0,1-.66-.65Zm0,2.68a.64.64,0,0,1,.62-.65h1.26v1.29H13.85A.65.65,0,0,1,13.2,22.18Z"/><text class="cls-2" transform="translate(3 18.84)">1</text><text class="cls-2" transform="translate(17.71 19.5)">D</text><line class="cls-3" x1="40" y1="13.48" x2="40" y2="23.06"/></g></g></svg>