<svg xmlns="http://www.w3.org/2000/svg" viewBox="0 0 40.26 32.66"><defs><style>.cls-1{isolation:isolate;font-size:10px;font-family:ArialMT, Arial;}.cls-2{fill:#b74242;}.cls-3{fill:#005be7;}.cls-4,.cls-5{fill:none;stroke-miterlimit:10;}.cls-4{stroke:#ebfcfc;stroke-width:0.25px;}.cls-5{stroke:#000;stroke-width:0.5px;}</style></defs><g id="Layer_2" data-name="Layer 2"><g id="Layer_1-2" data-name="Layer 1"><g id="Layer_2-2" data-name="Layer 2"><g id="Layer_1-2-2" data-name="Layer 1-2"><g id="Layer_2-2-2" data-name="Layer 2-2"><g id="Layer_1-2-2-2" data-name="Layer 1-2-2"><text class="cls-1" transform="translate(21.81 13.08)">12+</text></g></g><path class="cls-2" d="M6.26,8.91a3.27,3.27,0,0,0,1.44.4,3.26,3.26,0,0,0,2.86-1.83A3.21,3.21,0,0,0,10,4.08a3.21,3.21,0,0,0-3.36-.8A3.13,3.13,0,0,0,4.57,6,3,3,0,0,0,6.26,8.91Z"/><path class="cls-3" d="M11.56,6.23a3,3,0,0,0,2.15.8,3.33,3.33,0,0,0,2.88-1.75,3.34,3.34,0,0,0-.31-3.43A3.27,3.27,0,0,0,13.09.65,3.2,3.2,0,0,0,10.64,3,3.36,3.36,0,0,0,11.56,6.23Z"/><path class="cls-3" d="M16.86,21.06c0-.24.08-1.91.08-2.15V13.57a8.74,8.74,0,0,1,.87,2.15,2.3,2.3,0,0,1,1.83-1.67A16,16,0,0,0,19,11.91a7.79,7.79,0,0,0-1.37-2.15,7.44,7.44,0,0,0-1.19-1.19c-.24-.16-.4-.32-.64-.48a1.33,1.33,0,0,0-.55-.32,3.45,3.45,0,0,0-3.83.64c-.47.39-.88.79-1.36,1.19A10.39,10.39,0,0,1,13,12.85a8.15,8.15,0,0,1,.87,2.63A17.34,17.34,0,0,1,14,17.39,1.61,1.61,0,0,1,12.39,19h0a.76.76,0,0,1-.39-.08s1.2,4.38,1.28,4.62c.08.4.16,1.2-.72,1.2H11.12L11,26.64l.16,4.78a1.13,1.13,0,0,0,1,1.22,1.12,1.12,0,0,0,1.22-1,.74.74,0,0,0,0-.21l.4-8,.31,8a1.14,1.14,0,0,0,1.12,1.12,1.12,1.12,0,0,0,1.12-1.12h0l.16-3.5Z"/><path class="cls-2" d="M12.31,24.41a.44.44,0,0,0,.4-.24.47.47,0,0,0,.08-.48L10.72,16v-1.2a5.47,5.47,0,0,1,.71,1.6c.08.4.16.87.24,1.27a.93.93,0,0,0,1.09.74.91.91,0,0,0,.75-.82v-.87a6,6,0,0,0-.16-1.2,9.28,9.28,0,0,0-.88-2.39,7.51,7.51,0,0,0-1.59-2,7.79,7.79,0,0,0-1-.8,3.77,3.77,0,0,0-.8-.48H9a3.21,3.21,0,0,0-2.71,0,2.58,2.58,0,0,0-.79.48L4.5,11a7.75,7.75,0,0,0-1.6,2,4.69,4.69,0,0,0-.63,1A6.43,6.43,0,0,0,2,15.24a5.34,5.34,0,0,0-.16,1.2v.95h0a.86.86,0,0,0,.85.88h0a1,1,0,0,0,1-.8A5.48,5.48,0,0,1,4,16.2a5.5,5.5,0,0,1,.72-1.6v1.14l-2.23,8a.89.89,0,0,0,.08.48.41.41,0,0,0,.4.23H4.68L5,31.63a1,1,0,1,0,2.06,0l.4-7.26h.08l.32,7.18a1,1,0,0,0,2.07,0h0l.4-7.25,2.07.15Z"/><path class="cls-3" d="M17,13.57a7.2,7.2,0,0,1,.71,1.91c.08.48.16,1,.24,1.52A1,1,0,0,0,20,16.91h0v-1a8.58,8.58,0,0,0-.16-1.44,10.33,10.33,0,0,0-1-2.87A12.4,12.4,0,0,0,17.2,9.21a9,9,0,0,0-1-1Z"/><line class="cls-4" x1="0.13" y1="15.81" x2="0.13" y2="28.07"/><circle class="cls-5" cx="30.23" cy="10.03" r="9.78"/></g></g></g></g></svg>