<svg xmlns="http://www.w3.org/2000/svg" viewBox="0 0 40.33 32"><defs><style>.cls-1{fill:none;stroke:#fff;stroke-miterlimit:10;stroke-width:0.25px;}</style></defs><g id="Capa_2" data-name="Capa 2"><g id="Capa_1-2" data-name="Capa 1"><path d="M19.37,11.81h0A2.5,2.5,0,0,0,17.8,15c.11.27.45.44.84.6l1.3-3.16Z"/><path d="M20.42,16.75h0Z"/><path d="M30.22,13.38a14.11,14.11,0,0,0-2.76,4.15,2.1,2.1,0,0,1-3.77.24l-.88-.05-1.12,1.47a3.21,3.21,0,0,0,1.38.23c.71-.08,1.8,1.17,1.24,1.72s-1.57.57-1.41,2c0,.41,1.29.36,1.29,1s-.65,1.35-.15,2.07a2.14,2.14,0,0,0,.33.38A13.4,13.4,0,0,1,3.43,10.48a7.81,7.81,0,0,0,1.88,5c2,2,4.82,1.35,5.19,3s-2,1.65-1.81,2.9,3.19,1.59,2.52,2.75c-.9,1.54.6,1.65.16,3.55-.23,1,1.27,1.24,1.82.45.43-.6.34-1.34,1.19-2.25,1-1.11,3.46-1.29,3.19-3.12-.46-3.05-3.42-3.53-4.71-4.24-1.46-.8-1.1-2.74-1.42-3.66-.45-1.3-1.95.37-2.76-.39-1.32-1.25.24-3,1.35-3,2.34.07,3.06,2.35,3.93,2.27s1.38-1.24,1.53-1.87c.31-1.36-.53-.75-.87-1.46-.45-.95,1.6-1.85,2.39-2.55a.85.85,0,0,0,.26-.3c.24-.47-.07-.82-.6-1.14-1.06-.64-3-1.15-3.08-2.15-.05-.62,1.12-.91,2.46-1l.66,0a8.45,8.45,0,0,1,.54-1.84,14,14,0,0,0-2-.13,15.32,15.32,0,1,0,14.93,12Z"/><path d="M30.16,2.31,24.19,0a.57.57,0,0,0-.72.34.57.57,0,0,0,.32.72l1.49.57-1,2.67-1.49-.57a.57.57,0,0,0-.72.34.56.56,0,0,0,.32.72l.75.28L19.05,15.77l.75.28-.11,2.53.22.08-2,5.22a.56.56,0,0,0,.33.73.55.55,0,0,0,.72-.33l2-5.22.22.08,1.6-1.95.75.28L27.59,6.81l.75.28a.56.56,0,0,0,.72-.33A.57.57,0,0,0,28.74,6l-1.49-.57,1-2.68,1.49.57a.56.56,0,0,0,.4-1ZM22,14.29a.61.61,0,0,1-.3.31.58.58,0,0,1-.43,0l-.93-.35-.07,0,.4-1,.07,0,.93.35a.57.57,0,0,1,.33.73Zm.82-2.16a.55.55,0,0,1-.72.32l-.94-.35-.07,0,.4-1.05.08,0,.92.36a.56.56,0,0,1,.34.72S22.78,12.13,22.77,12.13ZM23.6,10a.57.57,0,0,1-.73.33l-.93-.36a.09.09,0,0,1-.07,0l.4-1,.07,0,.93.35a.57.57,0,0,1,.33.73Zm.82-2.17a.56.56,0,0,1-.71.34h0l-.92-.35-.08,0,.4-1,.08,0,.92.35A.56.56,0,0,1,24.42,7.79Z"/><line class="cls-1" x1="40.21" y1="8.91" x2="40.21" y2="18.49"/></g></g></svg>