<svg xmlns="http://www.w3.org/2000/svg" xmlns:xlink="http://www.w3.org/1999/xlink" version="1.1" id="Layer_1" x="0px" y="0px" viewBox="0 0 32 32.2" style="enable-background:new 0 0 32 32.2;" xml:space="preserve"><style type="text/css">
	.st0{fill:#1D71B8;}
	.st1{fill:#0D4870;stroke:#FFFFFF;stroke-miterlimit:10;}
	.st2{fill:#0D4870;}
	.st3{font-family:'ArialMT';}
	.st4{font-size:10px;}
</style><g id="Capa_2"><g id="Capa_1-2"><path class="st0" d="M31.8,17.5c-0.1-0.2-0.3-0.4-0.6-0.4h-2.9c-0.2,0-0.5,0.2-0.6,0.4c-0.1,0.2-0.1,0.4-0.2,0.6l-2-5.4    c-0.3-0.9-1.2-1.5-2.1-1.5H8.5c-0.9,0-1.8,0.6-2.1,1.5l-2,5.4c0-0.2-0.1-0.4-0.2-0.6s-0.3-0.4-0.6-0.4H0.8c-0.2,0-0.5,0.2-0.6,0.4    c-0.3,0.7-0.3,1.5,0,2.2c0.1,0.2,0.3,0.4,0.6,0.4h2.9v0.1c-0.6,0.2-1,0.8-1,1.4v9.9c0,0.4,0.3,0.7,0.7,0.7H7    c0.4,0,0.7-0.3,0.7-0.7V28h16.6v3.5c0,0.4,0.3,0.7,0.7,0.7h3.6c0.4,0,0.7-0.3,0.7-0.7v-9.9c0-0.6-0.4-1.2-1-1.4v-0.1h2.9    c0.2,0,0.5-0.2,0.6-0.4C32.1,18.9,32.1,18.2,31.8,17.5z M8.8,13.8h14.4l2.3,6.3h-19L8.8,13.8z M9.2,24.6h-3C5.5,24.6,5,24,5,23.4    c0-0.7,0.5-1.2,1.2-1.2h3c0.7,0,1.2,0.5,1.2,1.2S9.8,24.6,9.2,24.6z M25.8,24.6h-3c-0.7,0-1.2-0.5-1.2-1.2s0.5-1.2,1.2-1.2h3    c0.7,0,1.2,0.5,1.2,1.2S26.5,24.6,25.8,24.6z"/></g></g><g id="Capa_2_2_"><g id="Capa_1-2_2_"><path class="st1" d="M15,17.9c1.3,0.4,2.4,0.7,4,1.2C18.4,27,11,23.8,15,17.9z M21.6,10.7c-0.1-2.4-0.5-5.4-3.8-5    c-1.5,0.4-2.7,2.1-3.2,5c-0.3,1.7-0.2,3.5,0.2,5.2c0.3,1,0.2,0.9,0.5,1.1c1.3,0.3,2.6,0.6,4,1C20.7,17.1,21.8,12,21.6,10.7z     M11.4,10.5c0.4-1.7,0.5-3.5,0.2-5.2c-0.5-2.9-1.5,2.3-3.1,1.9C5.2,6.7,4.7,2.9,4.6,5.3c-0.2,1.3,0.9,6.4,2.3,7.4    c1.3-0.3,2.6-0.7,4-1C11.2,11.4,11.1,11.5,11.4,10.5z M7.2,13.6c0.6,7.8,8,4.7,4-1.2C9.9,12.8,8.8,13.1,7.2,13.6z"/></g></g><g id="Capa_2_1_"><g id="Capa_1-2_1_"><path class="st2" d="M15,17.7c1.3,0.4,2.4,0.7,4,1.2C18.4,26.8,11,23.7,15,17.7z M21.6,10.5c-0.1-2.4-0.5-5.4-3.8-5    c-1.5,0.4-2.7,2.1-3.2,5c-0.3,1.7-0.2,3.5,0.2,5.2c0.3,1,0.2,0.9,0.5,1.1c1.3,0.3,2.6,0.6,4,1C20.7,16.9,21.8,11.8,21.6,10.5z     M11.4,10.3c0.4-1.7,0.5-3.5,0.2-5.2c-0.5-2.9-1.7-4.6-3.2-5c-3.3-0.5-3.7,2.6-3.8,5c-0.2,1.3,0.9,6.4,2.3,7.4    c1.3-0.3,2.6-0.7,4-1C11.2,11.2,11.1,11.3,11.4,10.3z M7.2,13.4c0.6,7.8,8,4.7,4-1.2C9.9,12.7,8.8,12.9,7.2,13.4z"/></g></g><text transform="matrix(1 0 0 1 24.2999 9.9594)" class="st2 st3 st4">+</text></svg>