<svg xmlns="http://www.w3.org/2000/svg" viewBox="0 0 32 32.23"><defs><style>.cls-1{fill:#1d71b8;}.cls-2{fill:none;stroke:#fff;stroke-miterlimit:10;stroke-width:0.25px;}.cls-3{fill:#1d1d1b;}</style></defs><g id="Capa_2" data-name="Capa 2"><g id="Capa_1-2" data-name="Capa 1"><path class="cls-1" d="M31.78,17.45a.66.66,0,0,0-.57-.39H28.28a.66.66,0,0,0-.57.39,4.42,4.42,0,0,0-.16.59l-2-5.4a2.26,2.26,0,0,0-2.12-1.49H8.53a2.26,2.26,0,0,0-2.12,1.49l-2,5.4a4.42,4.42,0,0,0-.16-.59.66.66,0,0,0-.57-.39H.79a.66.66,0,0,0-.57.39,2.94,2.94,0,0,0,0,2.22.66.66,0,0,0,.57.39H3.73l0,.12a1.51,1.51,0,0,0-1,1.42v9.91a.73.73,0,0,0,.73.72H7a.72.72,0,0,0,.72-.72V28H24.28v3.51a.72.72,0,0,0,.72.72h3.62a.73.73,0,0,0,.73-.72V21.6a1.5,1.5,0,0,0-1-1.42l0-.12h2.93a.66.66,0,0,0,.57-.39A2.94,2.94,0,0,0,31.78,17.45Zm-23-3.65H23.19l2.28,6.31H6.53Zm.4,10.75h-3a1.18,1.18,0,0,1,0-2.36h3a1.18,1.18,0,0,1,0,2.36Zm16.62,0h-3a1.18,1.18,0,0,1,0-2.36h3a1.18,1.18,0,0,1,0,2.36Z"/><line class="cls-2" x1="11.21" y1="0.13" x2="20.79" y2="0.13"/><path class="cls-3" d="M31.78,17.45a.66.66,0,0,0-.57-.39H28.28a.66.66,0,0,0-.57.39,4.42,4.42,0,0,0-.16.59l-2-5.4a2.26,2.26,0,0,0-2.12-1.49H8.53a2.26,2.26,0,0,0-2.12,1.49l-2,5.4a4.42,4.42,0,0,0-.16-.59.66.66,0,0,0-.57-.39H.79a.66.66,0,0,0-.57.39,2.94,2.94,0,0,0,0,2.22.66.66,0,0,0,.57.39H3.73l0,.12a1.51,1.51,0,0,0-1,1.42v9.91a.73.73,0,0,0,.73.72H7a.72.72,0,0,0,.72-.72V28H24.28v3.51a.72.72,0,0,0,.72.72h3.62a.73.73,0,0,0,.73-.72V21.6a1.5,1.5,0,0,0-1-1.42l0-.12h2.93a.66.66,0,0,0,.57-.39A2.94,2.94,0,0,0,31.78,17.45Zm-23-3.65H23.19l2.28,6.31H6.53Zm.4,10.75h-3a1.18,1.18,0,0,1,0-2.36h3a1.18,1.18,0,0,1,0,2.36Zm16.62,0h-3a1.18,1.18,0,0,1,0-2.36h3a1.18,1.18,0,0,1,0,2.36Z"/><line class="cls-3" x1="11.21" y1="0.13" x2="20.79" y2="0.13"/><path class="cls-1" d="M31.78,17.45a.66.66,0,0,0-.57-.39H28.28a.66.66,0,0,0-.57.39,4.42,4.42,0,0,0-.16.59l-2-5.4a2.26,2.26,0,0,0-2.12-1.49H8.53a2.26,2.26,0,0,0-2.12,1.49l-2,5.4a4.42,4.42,0,0,0-.16-.59.66.66,0,0,0-.57-.39H.79a.66.66,0,0,0-.57.39,2.94,2.94,0,0,0,0,2.22.66.66,0,0,0,.57.39H3.73l0,.12a1.51,1.51,0,0,0-1,1.42v9.91a.73.73,0,0,0,.73.72H7a.72.72,0,0,0,.72-.72V28H24.28v3.51a.72.72,0,0,0,.72.72h3.62a.73.73,0,0,0,.73-.72V21.6a1.5,1.5,0,0,0-1-1.42l0-.12h2.93a.66.66,0,0,0,.57-.39A2.94,2.94,0,0,0,31.78,17.45Zm-23-3.65H23.19l2.28,6.31H6.53Zm.4,10.75h-3a1.18,1.18,0,0,1,0-2.36h3a1.18,1.18,0,0,1,0,2.36Zm16.62,0h-3a1.18,1.18,0,0,1,0-2.36h3a1.18,1.18,0,0,1,0,2.36Z"/><line class="cls-1" x1="11.21" y1="0.13" x2="20.79" y2="0.13"/></g></g></svg>