<?xml version="1.0" encoding="UTF-8" standalone="no"?><!-- Generator: Gravit.io --><svg xmlns="http://www.w3.org/2000/svg" xmlns:xlink="http://www.w3.org/1999/xlink" style="isolation:isolate" viewBox="0 0 265 120" width="265pt" height="120pt"><defs><clipPath id="_clipPath_TEn64EtmUdhGAu2orDZs6vzDQAz2AJe1"><rect width="265" height="120"/></clipPath></defs><g clip-path="url(#_clipPath_TEn64EtmUdhGAu2orDZs6vzDQAz2AJe1)"><g><g><g><path d=" M 37.163 100.765 C 37.063 100.565 36.863 100.365 36.563 100.365 L 33.663 100.365 C 33.463 100.365 33.163 100.565 33.063 100.765 C 32.963 100.965 32.963 101.165 32.863 101.365 L 30.863 95.965 C 30.563 95.065 29.663 94.465 28.763 94.465 L 13.863 94.465 C 12.963 94.465 12.063 95.065 11.763 95.965 L 9.763 101.365 C 9.763 101.165 9.663 100.965 9.563 100.765 C 9.463 100.565 9.263 100.365 8.963 100.365 L 6.163 100.365 C 5.963 100.365 5.663 100.565 5.563 100.765 C 5.263 101.465 5.263 102.265 5.563 102.965 C 5.663 103.165 5.863 103.365 6.163 103.365 L 9.063 103.365 L 9.063 103.465 C 8.463 103.665 8.063 104.265 8.063 104.865 L 8.063 114.765 C 8.063 115.165 8.363 115.465 8.763 115.465 L 12.363 115.465 C 12.763 115.465 13.063 115.165 13.063 114.765 L 13.063 111.265 L 29.663 111.265 L 29.663 114.765 C 29.663 115.165 29.963 115.465 30.363 115.465 L 33.963 115.465 C 34.363 115.465 34.663 115.165 34.663 114.765 L 34.663 104.865 C 34.663 104.265 34.263 103.665 33.663 103.465 L 33.663 103.365 L 36.563 103.365 C 36.763 103.365 37.063 103.165 37.163 102.965 C 37.463 102.165 37.463 101.465 37.163 100.765 Z  M 14.163 97.065 L 28.563 97.065 L 30.863 103.365 L 11.863 103.365 L 14.163 97.065 Z  M 14.563 107.865 L 11.563 107.865 C 10.863 107.865 10.363 107.265 10.363 106.665 C 10.363 105.965 10.863 105.465 11.563 105.465 L 14.563 105.465 C 15.263 105.465 15.763 105.965 15.763 106.665 C 15.763 107.365 15.163 107.865 14.563 107.865 Z  M 31.163 107.865 L 28.163 107.865 C 27.463 107.865 26.963 107.365 26.963 106.665 C 26.963 105.965 27.463 105.465 28.163 105.465 L 31.163 105.465 C 31.863 105.465 32.363 105.965 32.363 106.665 C 32.363 107.365 31.863 107.865 31.163 107.865 Z " fill="rgb(29,113,184)"/></g></g><g><g><path d=" M 20.363 101.165 C 21.663 101.565 22.763 101.865 24.363 102.365 C 23.763 110.265 16.363 107.065 20.363 101.165 Z  M 26.963 93.965 C 26.863 91.565 26.463 88.565 23.163 88.965 C 21.663 89.365 20.463 91.065 19.963 93.965 C 19.663 95.665 19.763 97.465 20.163 99.165 C 20.463 100.165 20.363 100.065 20.663 100.265 C 21.963 100.565 23.263 100.865 24.663 101.265 C 26.063 100.365 27.163 95.265 26.963 93.965 Z  M 16.763 93.765 C 17.163 92.065 17.263 90.265 16.963 88.565 C 16.463 85.665 15.463 90.865 13.863 90.465 C 10.563 89.965 10.063 86.165 9.963 88.565 C 9.763 89.865 10.863 94.965 12.263 95.965 C 13.563 95.665 14.863 95.265 16.263 94.965 C 16.563 94.665 16.463 94.765 16.763 93.765 Z  M 12.563 96.865 C 13.163 104.665 20.563 101.565 16.563 95.665 C 15.263 96.065 14.163 96.365 12.563 96.865 Z " fill="rgb(13,72,112)" vector-effect="non-scaling-stroke" stroke-width="1" stroke="rgb(255,255,255)" stroke-linejoin="miter" stroke-linecap="butt" stroke-miterlimit="10"/></g></g><g><g><path d=" M 20.363 100.965 C 21.663 101.365 22.763 101.665 24.363 102.165 C 23.763 110.065 16.363 106.965 20.363 100.965 Z  M 26.963 93.765 C 26.863 91.365 26.463 88.365 23.163 88.765 C 21.663 89.165 20.463 90.865 19.963 93.765 C 19.663 95.465 19.763 97.265 20.163 98.965 C 20.463 99.965 20.363 99.865 20.663 100.065 C 21.963 100.365 23.263 100.665 24.663 101.065 C 26.063 100.165 27.163 95.065 26.963 93.765 Z  M 16.763 93.565 C 17.163 91.865 17.263 90.065 16.963 88.365 C 16.463 85.465 15.263 83.765 13.763 83.365 C 10.463 82.865 10.063 85.965 9.963 88.365 C 9.763 89.665 10.863 94.765 12.263 95.765 C 13.563 95.465 14.863 95.065 16.263 94.765 C 16.563 94.465 16.463 94.565 16.763 93.565 Z  M 12.563 96.665 C 13.163 104.465 20.563 101.365 16.563 95.465 C 15.263 95.965 14.163 96.165 12.563 96.665 Z " fill="rgb(13,72,112)"/></g></g><g clip-path="url(#_clipPath_buOvLGiRzErn2pWvJ5GAsB7V6Kz9tTeK)"><text transform="matrix(1,0,0,1,29.662,93.224)" style="font-family:'Open Sans';font-weight:400;font-size:10px;font-style:normal;font-variant-ligatures:none;fill:#0D4870;stroke:none;">+</text></g><defs><clipPath id="_clipPath_buOvLGiRzErn2pWvJ5GAsB7V6Kz9tTeK"><rect x="0" y="0" width="8" height="13.618" transform="matrix(1,0,0,1,29.662,82.535)"/></clipPath></defs></g><g><g><path d=" M 23.712 27.98 C 24.993 28.42 26.112 28.7 27.712 29.19 C 27.112 37.04 19.693 33.92 23.712 27.98 Z  M 30.343 20.78 C 30.253 18.42 29.843 15.33 26.532 15.78 C 24.983 16.19 23.843 17.89 23.302 20.78 C 23.048 22.522 23.126 24.297 23.532 26.01 C 23.843 27.01 23.743 26.91 24.083 27.09 C 25.403 27.39 26.712 27.72 28.083 28.09 C 29.413 27.18 30.522 22.09 30.343 20.78 Z  M 20.142 20.6 C 20.545 18.883 20.62 17.105 20.363 15.36 C 19.823 12.42 18.682 10.72 17.132 10.36 C 13.833 9.87 13.412 12.96 13.332 15.36 C 13.142 16.68 14.262 21.76 15.613 22.72 C 16.953 22.38 18.262 22.05 19.613 21.72 C 19.932 21.49 19.813 21.55 20.142 20.6 Z  M 15.932 23.7 C 16.563 31.54 23.933 28.43 19.932 22.48 C 18.682 22.92 17.552 23.2 15.932 23.7 Z " fill="rgb(29,113,184)"/><mask id="_mask_e8kdNfavYmGaJzKFkA0M4lsSzK3cDIaP" x="-200%" y="-200%" width="400%" height="400%"><rect x="-200%" y="-200%" width="400%" height="400%" style="fill:white;"/><line x1="38.173" y1="12.22" x2="38.173" y2="21.8" fill="black" stroke="none"/></mask><line x1="38.173" y1="12.22" x2="38.173" y2="21.8" mask="url(#_mask_e8kdNfavYmGaJzKFkA0M4lsSzK3cDIaP)" vector-effect="non-scaling-stroke" stroke-width="0.5" stroke="rgb(255,255,255)" stroke-linejoin="miter" stroke-linecap="butt" stroke-miterlimit="10"/><mask id="_mask_dK2LSGcTNKbcZUKP3sHtNu3c5gn9cpzY" x="-200%" y="-200%" width="400%" height="400%"><rect x="-200%" y="-200%" width="400%" height="400%" style="fill:white;"/><line x1="17.163" y1="2" x2="26.743" y2="2" fill="black" stroke="none"/></mask><line x1="17.163" y1="2" x2="26.743" y2="2" mask="url(#_mask_dK2LSGcTNKbcZUKP3sHtNu3c5gn9cpzY)" vector-effect="non-scaling-stroke" stroke-width="0.5" stroke="rgb(255,255,255)" stroke-linejoin="miter" stroke-linecap="butt" stroke-miterlimit="10"/><mask id="_mask_rvEydjsZaNKMB7nxBWOxltExWE0TOGiE" x="-200%" y="-200%" width="400%" height="400%"><rect x="-200%" y="-200%" width="400%" height="400%" style="fill:white;"/><line x1="5.942" y1="12.22" x2="5.942" y2="21.8" fill="black" stroke="none"/></mask><line x1="5.942" y1="12.22" x2="5.942" y2="21.8" mask="url(#_mask_rvEydjsZaNKMB7nxBWOxltExWE0TOGiE)" vector-effect="non-scaling-stroke" stroke-width="0.5" stroke="rgb(255,255,255)" stroke-linejoin="miter" stroke-linecap="butt" stroke-miterlimit="10"/></g></g><g clip-path="url(#_clipPath_tblqJjAPDM1nEtgBvG2YjT6zZpVjm4kp)"><text transform="matrix(1,0,0,1,97.187,22.569)" style="font-family:'Open Sans';font-weight:400;font-size:14px;font-style:normal;fill:#000000;stroke:none;">AstraZeneca &#x3E; 1ra. dosis</text></g><defs><clipPath id="_clipPath_tblqJjAPDM1nEtgBvG2YjT6zZpVjm4kp"><rect x="0" y="0" width="175.87" height="20.67" transform="matrix(1,0,0,1,97.187,7.605)"/></clipPath></defs><g><g><circle vector-effect="non-scaling-stroke" cx="53.19180863945414" cy="6.174153539035828" r="4" fill="rgb(0,0,0)"/><path d=" M 56.282 12.174 L 55.192 12.174 C 54.926 12.173 54.671 12.277 54.482 12.464 L 53.192 13.754 L 51.902 12.464 C 51.71 12.281 51.457 12.178 51.192 12.174 L 50.092 12.174 C 49.061 12.169 48.195 12.948 48.092 13.974 L 47.192 23.074 C 47.166 23.356 47.26 23.636 47.452 23.844 C 47.641 24.054 47.91 24.173 48.192 24.174 L 49.282 24.174 L 50.102 32.374 C 50.205 33.4 51.071 34.179 52.102 34.174 L 54.282 34.174 C 55.313 34.179 56.179 33.4 56.282 32.374 L 57.092 24.174 L 58.192 24.174 C 58.474 24.173 58.743 24.054 58.932 23.844 C 59.124 23.636 59.218 23.356 59.192 23.074 L 58.282 13.974 C 58.179 12.948 57.313 12.169 56.282 12.174 Z " fill="rgb(0,0,0)"/><circle vector-effect="non-scaling-stroke" cx="65.19180863945414" cy="6.174153539035828" r="4" fill="rgb(0,0,0)"/><path d=" M 69.582 22.174 L 70.192 22.174 C 70.481 22.177 70.757 22.054 70.949 21.837 C 71.141 21.62 71.229 21.331 71.192 21.044 L 70.292 13.954 C 70.179 12.936 69.316 12.168 68.292 12.174 L 62.092 12.174 C 61.071 12.167 60.209 12.93 60.092 13.944 L 59.192 21.044 C 59.154 21.331 59.243 21.62 59.434 21.837 C 59.626 22.054 59.902 22.177 60.192 22.174 L 60.802 22.174 L 59.242 26.854 C 59.141 27.159 59.193 27.494 59.382 27.754 C 59.568 28.016 59.87 28.173 60.192 28.174 L 61.342 28.174 L 62.062 32.504 C 62.225 33.478 63.074 34.188 64.062 34.174 L 66.362 34.174 C 67.349 34.188 68.199 33.478 68.362 32.504 L 69.042 28.174 L 70.192 28.174 C 70.514 28.173 70.815 28.016 71.002 27.754 C 71.19 27.494 71.242 27.159 71.142 26.854 L 69.582 22.174 Z " fill="rgb(0,0,0)"/><g clip-path="url(#_clipPath_Ufhq8tKwyRYnTU5gkVq61pU30YqaU7kf)"><text transform="matrix(1,0,0,1,70.152,12.394)" style="font-family:'Open Sans';font-weight:400;font-size:10px;font-style:normal;font-variant-ligatures:none;fill:[Object GRGBColor];stroke:none;">18+</text></g><defs><clipPath id="_clipPath_Ufhq8tKwyRYnTU5gkVq61pU30YqaU7kf"><rect x="0" y="0" width="20" height="13.618" transform="matrix(1,0,0,1,70.152,1.706)"/></clipPath></defs></g></g><g><g><path d=" M 23.712 68.98 C 24.993 69.42 26.112 69.7 27.712 70.19 C 27.112 78.04 19.693 74.92 23.712 68.98 Z  M 30.343 61.78 C 30.253 59.42 29.843 56.33 26.532 56.78 C 24.983 57.19 23.843 58.89 23.302 61.78 C 23.048 63.522 23.126 65.297 23.532 67.01 C 23.843 68.01 23.743 67.91 24.083 68.09 C 25.403 68.39 26.712 68.72 28.083 69.09 C 29.413 68.18 30.522 63.09 30.343 61.78 Z  M 20.142 61.6 C 20.545 59.883 20.62 58.105 20.363 56.36 C 19.823 53.42 18.682 51.72 17.132 51.36 C 13.833 50.87 13.412 53.96 13.332 56.36 C 13.142 57.68 14.262 62.76 15.613 63.72 C 16.953 63.38 18.262 63.05 19.613 62.72 C 19.932 62.49 19.813 62.55 20.142 61.6 Z  M 15.932 64.7 C 16.563 72.54 23.933 69.43 19.932 63.48 C 18.682 63.92 17.552 64.2 15.932 64.7 Z " fill="rgb(29,113,184)"/><mask id="_mask_cpdDSJAdBToot5rXhCUJK2FNLksuaTQs" x="-200%" y="-200%" width="400%" height="400%"><rect x="-200%" y="-200%" width="400%" height="400%" style="fill:white;"/><line x1="38.173" y1="53.22" x2="38.173" y2="62.8" fill="black" stroke="none"/></mask><line x1="38.173" y1="53.22" x2="38.173" y2="62.8" mask="url(#_mask_cpdDSJAdBToot5rXhCUJK2FNLksuaTQs)" vector-effect="non-scaling-stroke" stroke-width="0.5" stroke="rgb(255,255,255)" stroke-linejoin="miter" stroke-linecap="butt" stroke-miterlimit="10"/><mask id="_mask_TC3dH30cr9IU8LyBq36kB7MkjaUmYAGN" x="-200%" y="-200%" width="400%" height="400%"><rect x="-200%" y="-200%" width="400%" height="400%" style="fill:white;"/><line x1="17.163" y1="43" x2="26.743" y2="43" fill="black" stroke="none"/></mask><line x1="17.163" y1="43" x2="26.743" y2="43" mask="url(#_mask_TC3dH30cr9IU8LyBq36kB7MkjaUmYAGN)" vector-effect="non-scaling-stroke" stroke-width="0.5" stroke="rgb(255,255,255)" stroke-linejoin="miter" stroke-linecap="butt" stroke-miterlimit="10"/><mask id="_mask_y5k2P20donH0zXQPg5uPSuZGfhzDCsdb" x="-200%" y="-200%" width="400%" height="400%"><rect x="-200%" y="-200%" width="400%" height="400%" style="fill:white;"/><line x1="5.942" y1="53.22" x2="5.942" y2="62.8" fill="black" stroke="none"/></mask><line x1="5.942" y1="53.22" x2="5.942" y2="62.8" mask="url(#_mask_y5k2P20donH0zXQPg5uPSuZGfhzDCsdb)" vector-effect="non-scaling-stroke" stroke-width="0.5" stroke="rgb(255,255,255)" stroke-linejoin="miter" stroke-linecap="butt" stroke-miterlimit="10"/></g></g><g clip-path="url(#_clipPath_rGixn1Pj9cJorNsHPE3h0BuOvgP0vOn4)"><text transform="matrix(1,0,0,1,97.187,63.629)" style="font-family:'Open Sans';font-weight:400;font-size:14px;font-style:normal;fill:#000000;stroke:none;">AstraZeneca &#x3E; 2da. dosis</text></g><defs><clipPath id="_clipPath_rGixn1Pj9cJorNsHPE3h0BuOvgP0vOn4"><rect x="0" y="0" width="175.87" height="20.67" transform="matrix(1,0,0,1,97.187,48.665)"/></clipPath></defs><g><g><circle vector-effect="non-scaling-stroke" cx="52.907500002291286" cy="46.999809896683" r="4" fill="rgb(0,0,0)"/><path d=" M 55.998 53 L 54.908 53 C 54.642 52.998 54.386 53.103 54.197 53.29 L 52.908 54.58 L 51.618 53.29 C 51.426 53.107 51.172 53.003 50.908 53 L 49.808 53 C 48.777 52.995 47.911 53.774 47.807 54.8 L 46.908 63.9 C 46.881 64.182 46.976 64.462 47.167 64.67 C 47.357 64.879 47.625 64.999 47.908 65 L 48.997 65 L 49.818 73.2 C 49.921 74.226 50.787 75.005 51.817 75 L 53.998 75 C 55.028 75.005 55.894 74.226 55.998 73.2 L 56.807 65 L 57.908 65 C 58.19 64.999 58.458 64.879 58.647 64.67 C 58.839 64.462 58.934 64.182 58.908 63.9 L 57.998 54.8 C 57.894 53.774 57.028 52.995 55.998 53 Z " fill="rgb(0,0,0)"/><circle vector-effect="non-scaling-stroke" cx="66.90750000229129" cy="46.999809896683" r="4" fill="rgb(0,0,0)"/><path d=" M 71.287 63 L 71.908 63 C 72.197 63.002 72.473 62.879 72.665 62.663 C 72.857 62.446 72.945 62.157 72.908 61.87 L 72.008 54.78 C 71.895 53.762 71.032 52.994 70.008 53 L 63.807 53 C 62.787 52.993 61.925 53.756 61.807 54.77 L 60.908 61.87 C 60.87 62.157 60.958 62.446 61.15 62.663 C 61.342 62.879 61.618 63.002 61.908 63 L 62.517 63 L 60.958 67.68 C 60.857 67.985 60.909 68.32 61.097 68.58 C 61.284 68.842 61.586 68.998 61.908 69 L 63.057 69 L 63.778 73.33 C 63.94 74.304 64.79 75.013 65.778 75 L 68.078 75 C 69.065 75.013 69.915 74.304 70.078 73.33 L 70.758 69 L 71.908 69 C 72.229 68.998 72.531 68.842 72.717 68.58 C 72.906 68.32 72.958 67.985 72.858 67.68 L 71.287 63 Z " fill="rgb(0,0,0)"/><path d=" M 56.187 73.49 L 63.578 73.49 C 63.908 73.449 64.156 73.168 64.156 72.835 C 64.156 72.502 63.908 72.221 63.578 72.18 L 61.718 72.18 L 61.718 68.85 L 63.567 68.85 C 63.898 68.809 64.146 68.528 64.146 68.195 C 64.146 67.862 63.898 67.581 63.567 67.54 L 62.637 67.54 L 62.637 54.33 L 61.708 54.33 L 60.777 51.56 L 60.508 51.56 L 60.508 45.09 C 60.467 44.759 60.186 44.511 59.852 44.511 C 59.519 44.511 59.238 44.759 59.197 45.09 L 59.197 51.55 L 58.908 51.55 L 57.998 54.32 L 57.067 54.32 L 57.067 67.52 L 56.168 67.52 C 55.809 67.52 55.517 67.811 55.517 68.17 C 55.517 68.529 55.809 68.82 56.168 68.82 L 58.017 68.82 L 58.017 72.13 L 56.178 72.13 C 56.004 72.13 55.838 72.2 55.718 72.324 C 55.597 72.449 55.532 72.617 55.538 72.79 C 55.524 72.971 55.586 73.149 55.709 73.282 C 55.833 73.415 56.006 73.49 56.187 73.49 Z  M 60.067 57.14 C 60.077 56.967 60.148 56.804 60.267 56.68 C 60.391 56.559 60.555 56.487 60.727 56.48 L 61.968 56.48 L 61.968 57.77 L 60.727 57.77 C 60.367 57.77 60.073 57.48 60.067 57.12 L 60.067 57.14 Z  M 60.067 59.82 C 60.067 59.461 60.359 59.17 60.718 59.17 L 61.958 59.17 L 61.958 60.46 L 60.737 60.46 C 60.564 60.465 60.396 60.4 60.272 60.28 C 60.148 60.159 60.077 59.993 60.078 59.82 L 60.067 59.82 Z  M 60.067 62.5 C 60.067 62.141 60.359 61.85 60.718 61.85 L 61.958 61.85 L 61.958 63.14 L 60.748 63.14 C 60.387 63.14 60.093 62.85 60.088 62.49 L 60.067 62.5 Z  M 60.067 65.18 C 60.062 64.83 60.338 64.541 60.687 64.53 L 61.947 64.53 L 61.947 65.82 L 60.758 65.82 C 60.402 65.82 60.113 65.535 60.107 65.18 L 60.067 65.18 Z " fill="rgb(0,0,0)" vector-effect="non-scaling-stroke" stroke-width="2" stroke="rgb(255,255,255)" stroke-linejoin="miter" stroke-linecap="butt" stroke-miterlimit="10"/><path d=" M 56.187 73.49 L 63.578 73.49 C 63.908 73.449 64.156 73.168 64.156 72.835 C 64.156 72.502 63.908 72.221 63.578 72.18 L 61.718 72.18 L 61.718 68.85 L 63.567 68.85 C 63.898 68.809 64.146 68.528 64.146 68.195 C 64.146 67.862 63.898 67.581 63.567 67.54 L 62.637 67.54 L 62.637 54.33 L 61.708 54.33 L 60.777 51.56 L 60.508 51.56 L 60.508 45.09 C 60.467 44.759 60.186 44.511 59.852 44.511 C 59.519 44.511 59.238 44.759 59.197 45.09 L 59.197 51.55 L 58.908 51.55 L 57.998 54.32 L 57.067 54.32 L 57.067 67.52 L 56.168 67.52 C 55.809 67.52 55.517 67.811 55.517 68.17 C 55.517 68.529 55.809 68.82 56.168 68.82 L 58.017 68.82 L 58.017 72.13 L 56.178 72.13 C 56.004 72.13 55.838 72.2 55.718 72.324 C 55.597 72.449 55.532 72.617 55.538 72.79 C 55.524 72.971 55.586 73.149 55.709 73.282 C 55.833 73.415 56.006 73.49 56.187 73.49 Z  M 60.067 57.14 C 60.077 56.967 60.148 56.804 60.267 56.68 C 60.391 56.559 60.555 56.487 60.727 56.48 L 61.968 56.48 L 61.968 57.77 L 60.727 57.77 C 60.367 57.77 60.073 57.48 60.067 57.12 L 60.067 57.14 Z  M 60.067 59.82 C 60.067 59.461 60.359 59.17 60.718 59.17 L 61.958 59.17 L 61.958 60.46 L 60.737 60.46 C 60.564 60.465 60.396 60.4 60.272 60.28 C 60.148 60.159 60.077 59.993 60.078 59.82 L 60.067 59.82 Z  M 60.067 62.5 C 60.067 62.141 60.359 61.85 60.718 61.85 L 61.958 61.85 L 61.958 63.14 L 60.748 63.14 C 60.387 63.14 60.093 62.85 60.088 62.49 L 60.067 62.5 Z  M 60.067 65.18 C 60.062 64.83 60.338 64.541 60.687 64.53 L 61.947 64.53 L 61.947 65.82 L 60.758 65.82 C 60.402 65.82 60.113 65.535 60.107 65.18 L 60.067 65.18 Z " fill="rgb(0,0,0)"/><g clip-path="url(#_clipPath_NAz4WhaV8gqdhrlzS8c5mVV3R6T5a58O)"><text transform="matrix(1,0,0,1,49.908,61.84)" style="font-family:'Open Sans';font-weight:400;font-size:10px;font-style:normal;font-variant-ligatures:none;fill:[Object GRGBColor];stroke:none;">1</text></g><defs><clipPath id="_clipPath_NAz4WhaV8gqdhrlzS8c5mVV3R6T5a58O"><rect x="0" y="0" width="8" height="13.618" transform="matrix(1,0,0,1,49.908,51.151)"/></clipPath></defs><g clip-path="url(#_clipPath_gZIDjJCvHyscRFXGKBeS8MugCDwAXaqR)"><text transform="matrix(1,0,0,1,64.618,62.5)" style="font-family:'Open Sans';font-weight:400;font-size:10px;font-style:normal;font-variant-ligatures:none;fill:[Object GRGBColor];stroke:none;">D</text></g><defs><clipPath id="_clipPath_gZIDjJCvHyscRFXGKBeS8MugCDwAXaqR"><rect x="0" y="0" width="10" height="13.618" transform="matrix(1,0,0,1,64.618,51.811)"/></clipPath></defs><mask id="_mask_B9WSegutHLb9vyUOSs5Jdyn8uVSd7vNb" x="-200%" y="-200%" width="400%" height="400%"><rect x="-200%" y="-200%" width="400%" height="400%" style="fill:white;"/><line x1="86.908" y1="56.48" x2="86.908" y2="66.06" fill="black" stroke="none"/></mask><line x1="86.908" y1="56.48" x2="86.908" y2="66.06" mask="url(#_mask_B9WSegutHLb9vyUOSs5Jdyn8uVSd7vNb)" vector-effect="non-scaling-stroke" stroke-width="0.5" stroke="rgb(255,255,255)" stroke-linejoin="miter" stroke-linecap="butt" stroke-miterlimit="10"/></g></g><g clip-path="url(#_clipPath_bfF8Jdyh6PCKM0w4WXRN0kFh4y71wjtS)"><text transform="matrix(1,0,0,1,97.187,104.629)" style="font-family:'Open Sans';font-weight:400;font-size:14px;font-style:normal;fill:#000000;stroke:none;">Sputnik V &#x3E; 2da. dosis</text></g><defs><clipPath id="_clipPath_bfF8Jdyh6PCKM0w4WXRN0kFh4y71wjtS"><rect x="0" y="0" width="175.87" height="20.67" transform="matrix(1,0,0,1,97.187,89.665)"/></clipPath></defs><g><g><circle vector-effect="non-scaling-stroke" cx="52.907500002291286" cy="87.99980989668299" r="4" fill="rgb(0,0,0)"/><path d=" M 55.998 94 L 54.908 94 C 54.642 93.998 54.386 94.103 54.197 94.29 L 52.908 95.58 L 51.618 94.29 C 51.426 94.107 51.172 94.003 50.908 94 L 49.808 94 C 48.777 93.995 47.911 94.774 47.807 95.8 L 46.908 104.9 C 46.881 105.182 46.976 105.462 47.167 105.67 C 47.357 105.879 47.625 105.999 47.908 106 L 48.997 106 L 49.818 114.2 C 49.921 115.226 50.787 116.005 51.817 116 L 53.998 116 C 55.028 116.005 55.894 115.226 55.998 114.2 L 56.807 106 L 57.908 106 C 58.19 105.999 58.458 105.879 58.647 105.67 C 58.839 105.462 58.934 105.182 58.908 104.9 L 57.998 95.8 C 57.894 94.774 57.028 93.995 55.998 94 Z " fill="rgb(0,0,0)"/><circle vector-effect="non-scaling-stroke" cx="66.90750000229129" cy="87.99980989668299" r="4" fill="rgb(0,0,0)"/><path d=" M 71.287 104 L 71.908 104 C 72.197 104.002 72.473 103.879 72.665 103.663 C 72.857 103.446 72.945 103.157 72.908 102.87 L 72.008 95.78 C 71.895 94.762 71.032 93.994 70.008 94 L 63.807 94 C 62.787 93.993 61.925 94.756 61.807 95.77 L 60.908 102.87 C 60.87 103.157 60.958 103.446 61.15 103.663 C 61.342 103.879 61.618 104.002 61.908 104 L 62.517 104 L 60.958 108.68 C 60.857 108.985 60.909 109.32 61.097 109.58 C 61.284 109.842 61.586 109.998 61.908 110 L 63.057 110 L 63.778 114.33 C 63.94 115.304 64.79 116.013 65.778 116 L 68.078 116 C 69.065 116.013 69.915 115.304 70.078 114.33 L 70.758 110 L 71.908 110 C 72.229 109.998 72.531 109.842 72.717 109.58 C 72.906 109.32 72.958 108.985 72.858 108.68 L 71.287 104 Z " fill="rgb(0,0,0)"/><path d=" M 56.187 114.49 L 63.578 114.49 C 63.908 114.449 64.156 114.168 64.156 113.835 C 64.156 113.502 63.908 113.221 63.578 113.18 L 61.718 113.18 L 61.718 109.85 L 63.567 109.85 C 63.898 109.809 64.146 109.528 64.146 109.195 C 64.146 108.862 63.898 108.581 63.567 108.54 L 62.637 108.54 L 62.637 95.33 L 61.708 95.33 L 60.777 92.56 L 60.508 92.56 L 60.508 86.09 C 60.467 85.759 60.186 85.511 59.852 85.511 C 59.519 85.511 59.238 85.759 59.197 86.09 L 59.197 92.55 L 58.908 92.55 L 57.998 95.32 L 57.067 95.32 L 57.067 108.52 L 56.168 108.52 C 55.809 108.52 55.517 108.811 55.517 109.17 C 55.517 109.529 55.809 109.82 56.168 109.82 L 58.017 109.82 L 58.017 113.13 L 56.178 113.13 C 56.004 113.13 55.838 113.2 55.718 113.324 C 55.597 113.449 55.532 113.617 55.538 113.79 C 55.524 113.971 55.586 114.149 55.709 114.282 C 55.833 114.415 56.006 114.49 56.187 114.49 Z  M 60.067 98.14 C 60.077 97.967 60.148 97.804 60.267 97.68 C 60.391 97.559 60.555 97.487 60.727 97.48 L 61.968 97.48 L 61.968 98.77 L 60.727 98.77 C 60.367 98.77 60.073 98.48 60.067 98.12 L 60.067 98.14 Z  M 60.067 100.82 C 60.067 100.461 60.359 100.17 60.718 100.17 L 61.958 100.17 L 61.958 101.46 L 60.737 101.46 C 60.564 101.465 60.396 101.4 60.272 101.28 C 60.148 101.159 60.077 100.993 60.078 100.82 L 60.067 100.82 Z  M 60.067 103.5 C 60.067 103.141 60.359 102.85 60.718 102.85 L 61.958 102.85 L 61.958 104.14 L 60.748 104.14 C 60.387 104.14 60.093 103.85 60.088 103.49 L 60.067 103.5 Z  M 60.067 106.18 C 60.062 105.83 60.338 105.541 60.687 105.53 L 61.947 105.53 L 61.947 106.82 L 60.758 106.82 C 60.402 106.82 60.113 106.535 60.107 106.18 L 60.067 106.18 Z " fill="rgb(0,0,0)" vector-effect="non-scaling-stroke" stroke-width="2" stroke="rgb(255,255,255)" stroke-linejoin="miter" stroke-linecap="butt" stroke-miterlimit="10"/><path d=" M 56.187 114.49 L 63.578 114.49 C 63.908 114.449 64.156 114.168 64.156 113.835 C 64.156 113.502 63.908 113.221 63.578 113.18 L 61.718 113.18 L 61.718 109.85 L 63.567 109.85 C 63.898 109.809 64.146 109.528 64.146 109.195 C 64.146 108.862 63.898 108.581 63.567 108.54 L 62.637 108.54 L 62.637 95.33 L 61.708 95.33 L 60.777 92.56 L 60.508 92.56 L 60.508 86.09 C 60.467 85.759 60.186 85.511 59.852 85.511 C 59.519 85.511 59.238 85.759 59.197 86.09 L 59.197 92.55 L 58.908 92.55 L 57.998 95.32 L 57.067 95.32 L 57.067 108.52 L 56.168 108.52 C 55.809 108.52 55.517 108.811 55.517 109.17 C 55.517 109.529 55.809 109.82 56.168 109.82 L 58.017 109.82 L 58.017 113.13 L 56.178 113.13 C 56.004 113.13 55.838 113.2 55.718 113.324 C 55.597 113.449 55.532 113.617 55.538 113.79 C 55.524 113.971 55.586 114.149 55.709 114.282 C 55.833 114.415 56.006 114.49 56.187 114.49 Z  M 60.067 98.14 C 60.077 97.967 60.148 97.804 60.267 97.68 C 60.391 97.559 60.555 97.487 60.727 97.48 L 61.968 97.48 L 61.968 98.77 L 60.727 98.77 C 60.367 98.77 60.073 98.48 60.067 98.12 L 60.067 98.14 Z  M 60.067 100.82 C 60.067 100.461 60.359 100.17 60.718 100.17 L 61.958 100.17 L 61.958 101.46 L 60.737 101.46 C 60.564 101.465 60.396 101.4 60.272 101.28 C 60.148 101.159 60.077 100.993 60.078 100.82 L 60.067 100.82 Z  M 60.067 103.5 C 60.067 103.141 60.359 102.85 60.718 102.85 L 61.958 102.85 L 61.958 104.14 L 60.748 104.14 C 60.387 104.14 60.093 103.85 60.088 103.49 L 60.067 103.5 Z  M 60.067 106.18 C 60.062 105.83 60.338 105.541 60.687 105.53 L 61.947 105.53 L 61.947 106.82 L 60.758 106.82 C 60.402 106.82 60.113 106.535 60.107 106.18 L 60.067 106.18 Z " fill="rgb(0,0,0)"/><g clip-path="url(#_clipPath_8KlGB7VBCuoAom2kJuOlQw3XBVEK84ZT)"><text transform="matrix(1,0,0,1,49.908,102.84)" style="font-family:'Open Sans';font-weight:400;font-size:10px;font-style:normal;font-variant-ligatures:none;fill:[Object GRGBColor];stroke:none;">1</text></g><defs><clipPath id="_clipPath_8KlGB7VBCuoAom2kJuOlQw3XBVEK84ZT"><rect x="0" y="0" width="8" height="13.618" transform="matrix(1,0,0,1,49.908,92.151)"/></clipPath></defs><g clip-path="url(#_clipPath_e7WMX8ZCAVpi2icGyCoz4gSLDihbQUP4)"><text transform="matrix(1,0,0,1,64.618,103.5)" style="font-family:'Open Sans';font-weight:400;font-size:10px;font-style:normal;font-variant-ligatures:none;fill:[Object GRGBColor];stroke:none;">D</text></g><defs><clipPath id="_clipPath_e7WMX8ZCAVpi2icGyCoz4gSLDihbQUP4"><rect x="0" y="0" width="10" height="13.618" transform="matrix(1,0,0,1,64.618,92.811)"/></clipPath></defs><mask id="_mask_ualKFnK9YjnKIpsoquZiOokMWOcEkpY6" x="-200%" y="-200%" width="400%" height="400%"><rect x="-200%" y="-200%" width="400%" height="400%" style="fill:white;"/><line x1="86.908" y1="97.48" x2="86.908" y2="107.06" fill="black" stroke="none"/></mask><line x1="86.908" y1="97.48" x2="86.908" y2="107.06" mask="url(#_mask_ualKFnK9YjnKIpsoquZiOokMWOcEkpY6)" vector-effect="non-scaling-stroke" stroke-width="0.5" stroke="rgb(255,255,255)" stroke-linejoin="miter" stroke-linecap="butt" stroke-miterlimit="10"/></g></g></g></svg>