<?xml version="1.0" encoding="UTF-8" standalone="no"?><!-- Generator: Gravit.io --><svg xmlns="http://www.w3.org/2000/svg" xmlns:xlink="http://www.w3.org/1999/xlink" style="isolation:isolate" viewBox="0 0 265 240" width="265pt" height="240pt"><defs><clipPath id="_clipPath_aQ9GsY9m4eQqizKSQ1A9aJVGprFO98E5"><rect width="265" height="240"/></clipPath></defs><g clip-path="url(#_clipPath_aQ9GsY9m4eQqizKSQ1A9aJVGprFO98E5)"><g><g><g><g><g><g><g clip-path="url(#_clipPath_GrEEvSPVc4lu0J2bSA4tU2rncJjdmMsS)"><text transform="matrix(1,0,0,1,58.81,13.81)" style="font-family:'Open Sans';font-weight:400;font-size:10px;font-style:normal;font-variant-ligatures:none;fill:[Object GRGBColor];stroke:none;">12+</text></g><defs><clipPath id="_clipPath_GrEEvSPVc4lu0J2bSA4tU2rncJjdmMsS"><rect x="0" y="0" width="20" height="13.618" transform="matrix(1,0,0,1,58.81,3.122)"/></clipPath></defs></g></g><path d=" M 43.26 9.64 C 43.703 9.883 44.196 10.02 44.7 10.04 C 45.921 10.014 47.025 9.307 47.56 8.21 C 48.049 7.064 47.831 5.739 47 4.81 C 46.131 3.912 44.82 3.6 43.64 4.01 C 42.472 4.427 41.66 5.493 41.57 6.73 C 41.485 7.954 42.154 9.107 43.26 9.64 Z " fill="rgb(183,66,66)"/><path d=" M 48.56 6.96 C 49.142 7.501 49.916 7.789 50.71 7.76 C 51.916 7.741 53.018 7.072 53.59 6.01 C 54.13 4.897 54.01 3.578 53.28 2.58 C 52.526 1.614 51.294 1.15 50.09 1.38 C 48.891 1.63 47.94 2.542 47.64 3.73 C 47.348 4.894 47.699 6.125 48.56 6.96 Z " fill="rgb(0,91,231)"/><path d=" M 53.86 21.79 C 53.86 21.55 53.94 19.88 53.94 19.64 L 53.94 14.3 C 54.324 14.975 54.617 15.698 54.81 16.45 C 55.042 15.584 55.757 14.932 56.64 14.78 C 56.477 14.053 56.263 13.338 56 12.64 C 55.664 11.853 55.202 11.127 54.63 10.49 C 54.28 10.05 53.88 9.65 53.44 9.3 C 53.2 9.14 53.04 8.98 52.8 8.82 C 52.645 8.67 52.457 8.561 52.25 8.5 C 50.963 7.906 49.444 8.16 48.42 9.14 C 47.95 9.53 47.54 9.93 47.06 10.33 C 48.26 11.192 49.262 12.3 50 13.58 C 50.438 14.401 50.732 15.29 50.87 16.21 C 50.948 16.844 50.992 17.481 51 18.12 C 51 19.009 50.279 19.73 49.39 19.73 L 49.39 19.73 C 49.255 19.738 49.121 19.711 49 19.65 C 49 19.65 50.2 24.03 50.28 24.27 C 50.36 24.67 50.44 25.47 49.56 25.47 L 48.12 25.47 L 48 27.37 L 48.16 32.15 C 48.107 32.761 48.551 33.302 49.16 33.37 C 49.772 33.428 50.317 32.982 50.38 32.37 C 50.39 32.3 50.39 32.23 50.38 32.16 L 50.78 24.16 L 51.09 32.16 C 51.101 32.774 51.596 33.269 52.21 33.28 C 52.507 33.28 52.792 33.162 53.002 32.952 C 53.212 32.742 53.33 32.457 53.33 32.16 L 53.33 32.16 L 53.49 28.66 L 53.86 21.79 Z " fill="rgb(0,91,231)"/><path d=" M 49.31 25.14 C 49.478 25.143 49.634 25.05 49.71 24.9 C 49.824 24.767 49.855 24.582 49.79 24.42 L 47.72 16.73 L 47.72 15.53 C 48.041 16.022 48.281 16.562 48.43 17.13 C 48.51 17.53 48.59 18 48.67 18.4 C 48.716 18.643 48.857 18.857 49.061 18.996 C 49.266 19.135 49.517 19.187 49.76 19.14 C 50.167 19.069 50.475 18.732 50.51 18.32 L 50.51 17.45 C 50.497 17.046 50.444 16.644 50.35 16.25 C 50.168 15.417 49.872 14.612 49.47 13.86 C 49.058 13.107 48.52 12.431 47.88 11.86 C 47.569 11.566 47.235 11.299 46.88 11.06 C 46.634 10.867 46.366 10.706 46.08 10.58 L 46 10.58 C 45.141 10.18 44.149 10.18 43.29 10.58 C 43 10.691 42.732 10.854 42.5 11.06 L 41.5 11.73 C 40.859 12.303 40.319 12.979 39.9 13.73 C 39.649 14.035 39.437 14.371 39.27 14.73 C 39.139 15.133 39.049 15.549 39 15.97 C 38.901 16.363 38.848 16.765 38.84 17.17 L 38.84 18.12 L 38.84 18.12 C 38.835 18.35 38.922 18.572 39.081 18.738 C 39.241 18.903 39.46 18.997 39.69 19 L 39.69 19 C 40.173 19.01 40.594 18.673 40.69 18.2 C 40.742 17.766 40.846 17.339 41 16.93 C 41.153 16.362 41.396 15.821 41.72 15.33 L 41.72 16.47 L 39.49 24.47 C 39.472 24.634 39.499 24.801 39.57 24.95 C 39.643 25.102 39.802 25.193 39.97 25.18 L 41.68 25.18 L 42 32.36 C 42 32.929 42.461 33.39 43.03 33.39 C 43.599 33.39 44.06 32.929 44.06 32.36 L 44.46 25.1 L 44.54 25.1 L 44.86 32.28 C 44.86 32.852 45.323 33.315 45.895 33.315 C 46.467 33.315 46.93 32.852 46.93 32.28 L 46.93 32.28 L 47.33 25.03 L 49.4 25.18 L 49.31 25.14 Z " fill="rgb(183,66,66)"/><path d=" M 54 14.3 C 54.326 14.9 54.565 15.543 54.71 16.21 C 54.79 16.69 54.87 17.21 54.95 17.73 C 54.975 18.296 55.454 18.735 56.02 18.71 C 56.586 18.685 57.025 18.206 57 17.64 L 57 17.64 L 57 16.64 C 56.987 16.156 56.934 15.675 56.84 15.2 C 56.65 14.199 56.313 13.232 55.84 12.33 C 55.389 11.472 54.838 10.67 54.2 9.94 C 53.893 9.581 53.559 9.247 53.2 8.94 L 54 14.3 Z " fill="rgb(0,91,231)"/><mask id="_mask_DqvDuYPhNnIvQuwWeQkRrhbel8g4X6sM" x="-200%" y="-200%" width="400%" height="400%"><rect x="-200%" y="-200%" width="400%" height="400%" style="fill:white;"/><line x1="37.13" y1="16.54" x2="37.13" y2="28.8" fill="black" stroke="none"/></mask><line x1="37.13" y1="16.54" x2="37.13" y2="28.8" mask="url(#_mask_DqvDuYPhNnIvQuwWeQkRrhbel8g4X6sM)" vector-effect="non-scaling-stroke" stroke-width="0.5" stroke="rgb(235,252,252)" stroke-linejoin="miter" stroke-linecap="butt" stroke-miterlimit="10"/><circle vector-effect="non-scaling-stroke" cx="67.23" cy="10.759989311700393" r="9.780000000000001" fill="none" stroke-width="0.5" stroke="rgb(0,0,0)" stroke-linejoin="miter" stroke-linecap="butt" stroke-miterlimit="10"/></g></g></g><g><g><path d=" M 18.655 27.49 C 19.935 27.93 21.055 28.21 22.655 28.7 C 22.055 36.55 14.635 33.43 18.655 27.49 Z  M 25.285 20.29 C 25.195 17.93 24.785 14.84 21.475 15.29 C 19.925 15.7 18.785 17.4 18.245 20.29 C 17.99 22.032 18.068 23.807 18.475 25.52 C 18.785 26.52 18.685 26.42 19.025 26.6 C 20.345 26.9 21.655 27.23 23.025 27.6 C 24.355 26.69 25.465 21.6 25.285 20.29 Z  M 15.085 20.11 C 15.488 18.393 15.562 16.615 15.305 14.87 C 14.765 11.93 13.625 10.23 12.075 9.87 C 8.775 9.38 8.355 12.47 8.275 14.87 C 8.085 16.19 9.205 21.27 10.555 22.23 C 11.895 21.89 13.205 21.56 14.555 21.23 C 14.875 21 14.755 21.06 15.085 20.11 Z  M 10.875 23.21 C 11.505 31.05 18.875 27.94 14.875 21.99 C 13.625 22.43 12.495 22.71 10.875 23.21 Z " fill="rgb(29,113,184)"/><mask id="_mask_K46bHGJEHUphTpSuIMBcicACjDZASNE9" x="-200%" y="-200%" width="400%" height="400%"><rect x="-200%" y="-200%" width="400%" height="400%" style="fill:white;"/><line x1="33.115" y1="11.73" x2="33.115" y2="21.31" fill="black" stroke="none"/></mask><line x1="33.115" y1="11.73" x2="33.115" y2="21.31" mask="url(#_mask_K46bHGJEHUphTpSuIMBcicACjDZASNE9)" vector-effect="non-scaling-stroke" stroke-width="0.5" stroke="rgb(255,255,255)" stroke-linejoin="miter" stroke-linecap="butt" stroke-miterlimit="10"/><mask id="_mask_6RNQnfydSCztDEDixblDi6tWeNL38pYC" x="-200%" y="-200%" width="400%" height="400%"><rect x="-200%" y="-200%" width="400%" height="400%" style="fill:white;"/><line x1="12.105" y1="1.51" x2="21.685" y2="1.51" fill="black" stroke="none"/></mask><line x1="12.105" y1="1.51" x2="21.685" y2="1.51" mask="url(#_mask_6RNQnfydSCztDEDixblDi6tWeNL38pYC)" vector-effect="non-scaling-stroke" stroke-width="0.5" stroke="rgb(255,255,255)" stroke-linejoin="miter" stroke-linecap="butt" stroke-miterlimit="10"/><mask id="_mask_di4jM4HBzgUQxnIfKPGIDaH2NxsnAZ6o" x="-200%" y="-200%" width="400%" height="400%"><rect x="-200%" y="-200%" width="400%" height="400%" style="fill:white;"/><line x1="0.885" y1="11.73" x2="0.885" y2="21.31" fill="black" stroke="none"/></mask><line x1="0.885" y1="11.73" x2="0.885" y2="21.31" mask="url(#_mask_di4jM4HBzgUQxnIfKPGIDaH2NxsnAZ6o)" vector-effect="non-scaling-stroke" stroke-width="0.5" stroke="rgb(255,255,255)" stroke-linejoin="miter" stroke-linecap="butt" stroke-miterlimit="10"/></g></g><g clip-path="url(#_clipPath_SraQOCjdMczuFTNo26elUQHOk5Jx1PZI)"><text transform="matrix(1,0,0,1,86.13,20.959)" style="font-family:'Open Sans';font-weight:400;font-size:14px;font-style:normal;fill:#000000;stroke:none;">Moderna &#x3E; 1ra. dosis</text></g><defs><clipPath id="_clipPath_SraQOCjdMczuFTNo26elUQHOk5Jx1PZI"><rect x="0" y="0" width="175.87" height="20.67" transform="matrix(1,0,0,1,86.13,5.995)"/></clipPath></defs></g><g><g><g><path d=" M 18.655 107.37 C 19.935 107.81 21.055 108.09 22.655 108.58 C 22.055 116.43 14.635 113.31 18.655 107.37 Z  M 25.285 100.17 C 25.195 97.81 24.785 94.72 21.475 95.17 C 19.925 95.58 18.785 97.28 18.245 100.17 C 17.99 101.912 18.068 103.687 18.475 105.4 C 18.785 106.4 18.685 106.3 19.025 106.48 C 20.345 106.78 21.655 107.11 23.025 107.48 C 24.355 106.57 25.465 101.48 25.285 100.17 Z  M 15.085 99.99 C 15.488 98.273 15.562 96.495 15.305 94.75 C 14.765 91.81 13.625 90.11 12.075 89.75 C 8.775 89.26 8.355 92.35 8.275 94.75 C 8.085 96.07 9.205 101.15 10.555 102.11 C 11.895 101.77 13.205 101.44 14.555 101.11 C 14.875 100.88 14.755 100.94 15.085 99.99 Z  M 10.875 103.09 C 11.505 110.93 18.875 107.82 14.875 101.87 C 13.625 102.31 12.495 102.59 10.875 103.09 Z " fill="rgb(29,113,184)"/><mask id="_mask_xeOuDoSKtfDY7rmYK2lvpJbu5uwGaQuF" x="-200%" y="-200%" width="400%" height="400%"><rect x="-200%" y="-200%" width="400%" height="400%" style="fill:white;"/><line x1="33.115" y1="91.61" x2="33.115" y2="101.19" fill="black" stroke="none"/></mask><line x1="33.115" y1="91.61" x2="33.115" y2="101.19" mask="url(#_mask_xeOuDoSKtfDY7rmYK2lvpJbu5uwGaQuF)" vector-effect="non-scaling-stroke" stroke-width="0.5" stroke="rgb(255,255,255)" stroke-linejoin="miter" stroke-linecap="butt" stroke-miterlimit="10"/><mask id="_mask_CV6EuKF2A6OCb1ntGaf3EOHFNqX8Az2x" x="-200%" y="-200%" width="400%" height="400%"><rect x="-200%" y="-200%" width="400%" height="400%" style="fill:white;"/><line x1="12.105" y1="81.39" x2="21.685" y2="81.39" fill="black" stroke="none"/></mask><line x1="12.105" y1="81.39" x2="21.685" y2="81.39" mask="url(#_mask_CV6EuKF2A6OCb1ntGaf3EOHFNqX8Az2x)" vector-effect="non-scaling-stroke" stroke-width="0.5" stroke="rgb(255,255,255)" stroke-linejoin="miter" stroke-linecap="butt" stroke-miterlimit="10"/><mask id="_mask_6X1mhEPD3pnG2LNI94Zxh1NxWWbmMmgz" x="-200%" y="-200%" width="400%" height="400%"><rect x="-200%" y="-200%" width="400%" height="400%" style="fill:white;"/><line x1="0.885" y1="91.61" x2="0.885" y2="101.19" fill="black" stroke="none"/></mask><line x1="0.885" y1="91.61" x2="0.885" y2="101.19" mask="url(#_mask_6X1mhEPD3pnG2LNI94Zxh1NxWWbmMmgz)" vector-effect="non-scaling-stroke" stroke-width="0.5" stroke="rgb(255,255,255)" stroke-linejoin="miter" stroke-linecap="butt" stroke-miterlimit="10"/></g></g><g clip-path="url(#_clipPath_63fSLDdldBJwJlisa15TTAKSQsGLFnaF)"><text transform="matrix(1,0,0,1,86.13,101.959)" style="font-family:'Open Sans';font-weight:400;font-size:14px;font-style:normal;fill:#000000;stroke:none;">AstraZeneca &#x3E; 1ra. dosis</text></g><defs><clipPath id="_clipPath_63fSLDdldBJwJlisa15TTAKSQsGLFnaF"><rect x="0" y="0" width="175.87" height="20.67" transform="matrix(1,0,0,1,86.13,86.995)"/></clipPath></defs><g><g><circle vector-effect="non-scaling-stroke" cx="42.13430863706995" cy="85.56414273538533" r="4" fill="rgb(0,0,0)"/><path d=" M 45.224 91.564 L 44.134 91.564 C 43.869 91.563 43.613 91.667 43.424 91.854 L 42.134 93.144 L 40.844 91.854 C 40.653 91.671 40.399 91.568 40.134 91.564 L 39.034 91.564 C 38.003 91.559 37.137 92.338 37.034 93.364 L 36.134 102.464 C 36.108 102.746 36.203 103.026 36.394 103.234 C 36.583 103.444 36.852 103.563 37.134 103.564 L 38.224 103.564 L 39.044 111.764 C 39.147 112.79 40.013 113.569 41.044 113.564 L 43.224 113.564 C 44.255 113.569 45.121 112.79 45.224 111.764 L 46.034 103.564 L 47.134 103.564 C 47.416 103.563 47.685 103.444 47.874 103.234 C 48.066 103.026 48.161 102.746 48.134 102.464 L 47.224 93.364 C 47.121 92.338 46.255 91.559 45.224 91.564 Z " fill="rgb(0,0,0)"/><circle vector-effect="non-scaling-stroke" cx="54.13430863706995" cy="85.56414273538533" r="4" fill="rgb(0,0,0)"/><path d=" M 58.524 101.564 L 59.134 101.564 C 59.424 101.567 59.7 101.444 59.892 101.227 C 60.083 101.01 60.172 100.721 60.134 100.434 L 59.234 93.344 C 59.122 92.326 58.258 91.558 57.234 91.564 L 51.034 91.564 C 50.014 91.557 49.152 92.32 49.034 93.334 L 48.134 100.434 C 48.097 100.721 48.185 101.01 48.377 101.227 C 48.569 101.444 48.845 101.567 49.134 101.564 L 49.744 101.564 L 48.184 106.244 C 48.084 106.549 48.136 106.884 48.324 107.144 C 48.511 107.406 48.812 107.563 49.134 107.564 L 50.284 107.564 L 51.004 111.894 C 51.167 112.868 52.017 113.578 53.004 113.564 L 55.304 113.564 C 56.292 113.578 57.141 112.868 57.304 111.894 L 57.984 107.564 L 59.134 107.564 C 59.456 107.563 59.758 107.406 59.944 107.144 C 60.133 106.884 60.185 106.549 60.084 106.244 L 58.524 101.564 Z " fill="rgb(0,0,0)"/><g clip-path="url(#_clipPath_zbNVflCstkp0YZBGZ2Zjj02uU6yN0xdy)"><text transform="matrix(1,0,0,1,59.094,91.784)" style="font-family:'Open Sans';font-weight:400;font-size:10px;font-style:normal;font-variant-ligatures:none;fill:[Object GRGBColor];stroke:none;">18+</text></g><defs><clipPath id="_clipPath_zbNVflCstkp0YZBGZ2Zjj02uU6yN0xdy"><rect x="0" y="0" width="20" height="13.618" transform="matrix(1,0,0,1,59.094,81.096)"/></clipPath></defs></g></g></g><g><g><g><path d=" M 18.655 188.37 C 19.935 188.81 21.055 189.09 22.655 189.58 C 22.055 197.43 14.635 194.31 18.655 188.37 Z  M 25.285 181.17 C 25.195 178.81 24.785 175.72 21.475 176.17 C 19.925 176.58 18.785 178.28 18.245 181.17 C 17.99 182.912 18.068 184.687 18.475 186.4 C 18.785 187.4 18.685 187.3 19.025 187.48 C 20.345 187.78 21.655 188.11 23.025 188.48 C 24.355 187.57 25.465 182.48 25.285 181.17 Z  M 15.085 180.99 C 15.488 179.273 15.562 177.495 15.305 175.75 C 14.765 172.81 13.625 171.11 12.075 170.75 C 8.775 170.26 8.355 173.35 8.275 175.75 C 8.085 177.07 9.205 182.15 10.555 183.11 C 11.895 182.77 13.205 182.44 14.555 182.11 C 14.875 181.88 14.755 181.94 15.085 180.99 Z  M 10.875 184.09 C 11.505 191.93 18.875 188.82 14.875 182.87 C 13.625 183.31 12.495 183.59 10.875 184.09 Z " fill="rgb(29,113,184)"/><mask id="_mask_IoeEd6r0rL7vikMlbBmJ0815FLtqAMxl" x="-200%" y="-200%" width="400%" height="400%"><rect x="-200%" y="-200%" width="400%" height="400%" style="fill:white;"/><line x1="33.115" y1="172.61" x2="33.115" y2="182.19" fill="black" stroke="none"/></mask><line x1="33.115" y1="172.61" x2="33.115" y2="182.19" mask="url(#_mask_IoeEd6r0rL7vikMlbBmJ0815FLtqAMxl)" vector-effect="non-scaling-stroke" stroke-width="0.5" stroke="rgb(255,255,255)" stroke-linejoin="miter" stroke-linecap="butt" stroke-miterlimit="10"/><mask id="_mask_2fz2iEC9jXESwod5Zjte1aN8p0xJv6Xr" x="-200%" y="-200%" width="400%" height="400%"><rect x="-200%" y="-200%" width="400%" height="400%" style="fill:white;"/><line x1="12.105" y1="162.39" x2="21.685" y2="162.39" fill="black" stroke="none"/></mask><line x1="12.105" y1="162.39" x2="21.685" y2="162.39" mask="url(#_mask_2fz2iEC9jXESwod5Zjte1aN8p0xJv6Xr)" vector-effect="non-scaling-stroke" stroke-width="0.5" stroke="rgb(255,255,255)" stroke-linejoin="miter" stroke-linecap="butt" stroke-miterlimit="10"/><mask id="_mask_LjoUUibsSoMgjivNzxrvAPSNaN45i5oI" x="-200%" y="-200%" width="400%" height="400%"><rect x="-200%" y="-200%" width="400%" height="400%" style="fill:white;"/><line x1="0.885" y1="172.61" x2="0.885" y2="182.19" fill="black" stroke="none"/></mask><line x1="0.885" y1="172.61" x2="0.885" y2="182.19" mask="url(#_mask_LjoUUibsSoMgjivNzxrvAPSNaN45i5oI)" vector-effect="non-scaling-stroke" stroke-width="0.5" stroke="rgb(255,255,255)" stroke-linejoin="miter" stroke-linecap="butt" stroke-miterlimit="10"/></g></g><g clip-path="url(#_clipPath_VfHo8gqncCx3pI7bxLoZzi7diyX0KtTN)"><text transform="matrix(1,0,0,1,86.13,182.959)" style="font-family:'Open Sans';font-weight:400;font-size:14px;font-style:normal;fill:#000000;stroke:none;">Sputnik V &#x3E; 1ra. dosis</text></g><defs><clipPath id="_clipPath_VfHo8gqncCx3pI7bxLoZzi7diyX0KtTN"><rect x="0" y="0" width="175.87" height="20.67" transform="matrix(1,0,0,1,86.13,167.995)"/></clipPath></defs><g><g><circle vector-effect="non-scaling-stroke" cx="40.849999999999994" cy="166.99980989668302" r="4" fill="rgb(0,0,0)"/><path d=" M 43.94 173 L 42.85 173 C 42.584 172.998 42.329 173.103 42.14 173.29 L 40.85 174.58 L 39.56 173.29 C 39.368 173.107 39.115 173.003 38.85 173 L 37.75 173 C 36.719 172.995 35.853 173.774 35.75 174.8 L 34.85 183.9 C 34.824 184.182 34.918 184.462 35.11 184.67 C 35.299 184.879 35.568 184.999 35.85 185 L 36.94 185 L 37.76 193.2 C 37.863 194.226 38.729 195.005 39.76 195 L 41.94 195 C 42.971 195.005 43.837 194.226 43.94 193.2 L 44.75 185 L 45.85 185 C 46.132 184.999 46.401 184.879 46.59 184.67 C 46.782 184.462 46.876 184.182 46.85 183.9 L 45.94 174.8 C 45.837 173.774 44.971 172.995 43.94 173 Z " fill="rgb(0,0,0)"/><circle vector-effect="non-scaling-stroke" cx="52.849999999999994" cy="166.99980989668302" r="4" fill="rgb(0,0,0)"/><path d=" M 57.24 183 L 57.85 183 C 58.139 183.002 58.416 182.879 58.607 182.663 C 58.799 182.446 58.888 182.157 58.85 181.87 L 57.95 174.78 C 57.837 173.762 56.974 172.994 55.95 173 L 49.75 173 C 48.729 172.993 47.867 173.756 47.75 174.77 L 46.85 181.87 C 46.812 182.157 46.901 182.446 47.093 182.663 C 47.284 182.879 47.561 183.002 47.85 183 L 48.46 183 L 46.9 187.68 C 46.799 187.985 46.851 188.32 47.04 188.58 C 47.227 188.842 47.528 188.998 47.85 189 L 49 189 L 49.72 193.33 C 49.883 194.304 50.732 195.013 51.72 195 L 54.02 195 C 55.008 195.013 55.857 194.304 56.02 193.33 L 56.7 189 L 57.85 189 C 58.172 188.998 58.473 188.842 58.66 188.58 C 58.849 188.32 58.901 187.985 58.8 187.68 L 57.24 183 Z " fill="rgb(0,0,0)"/><g clip-path="url(#_clipPath_MBtDWrbYKwS42KkWMWz4I6pOe7cYgY4V)"><text transform="matrix(1,0,0,1,57.81,173.22)" style="font-family:'Open Sans';font-weight:400;font-size:10px;font-style:normal;font-variant-ligatures:none;fill:[Object GRGBColor];stroke:none;">18+</text></g><defs><clipPath id="_clipPath_MBtDWrbYKwS42KkWMWz4I6pOe7cYgY4V"><rect x="0" y="0" width="20" height="13.618" transform="matrix(1,0,0,1,57.81,162.531)"/></clipPath></defs></g></g></g><g><g><g><path d=" M 18.655 148.37 C 19.935 148.81 21.055 149.09 22.655 149.58 C 22.055 157.43 14.635 154.31 18.655 148.37 Z  M 25.285 141.17 C 25.195 138.81 24.785 135.72 21.475 136.17 C 19.925 136.58 18.785 138.28 18.245 141.17 C 17.99 142.912 18.068 144.687 18.475 146.4 C 18.785 147.4 18.685 147.3 19.025 147.48 C 20.345 147.78 21.655 148.11 23.025 148.48 C 24.355 147.57 25.465 142.48 25.285 141.17 Z  M 15.085 140.99 C 15.488 139.273 15.562 137.495 15.305 135.75 C 14.765 132.81 13.625 131.11 12.075 130.75 C 8.775 130.26 8.355 133.35 8.275 135.75 C 8.085 137.07 9.205 142.15 10.555 143.11 C 11.895 142.77 13.205 142.44 14.555 142.11 C 14.875 141.88 14.755 141.94 15.085 140.99 Z  M 10.875 144.09 C 11.505 151.93 18.875 148.82 14.875 142.87 C 13.625 143.31 12.495 143.59 10.875 144.09 Z " fill="rgb(29,113,184)"/><mask id="_mask_n70Ezl9RAhzy8VQth9kfkFNd3juKW0GZ" x="-200%" y="-200%" width="400%" height="400%"><rect x="-200%" y="-200%" width="400%" height="400%" style="fill:white;"/><line x1="33.115" y1="132.61" x2="33.115" y2="142.19" fill="black" stroke="none"/></mask><line x1="33.115" y1="132.61" x2="33.115" y2="142.19" mask="url(#_mask_n70Ezl9RAhzy8VQth9kfkFNd3juKW0GZ)" vector-effect="non-scaling-stroke" stroke-width="0.5" stroke="rgb(255,255,255)" stroke-linejoin="miter" stroke-linecap="butt" stroke-miterlimit="10"/><mask id="_mask_s0TvjjcjWzKkgWrxpvJkaHgkdE8WRL2V" x="-200%" y="-200%" width="400%" height="400%"><rect x="-200%" y="-200%" width="400%" height="400%" style="fill:white;"/><line x1="12.105" y1="122.39" x2="21.685" y2="122.39" fill="black" stroke="none"/></mask><line x1="12.105" y1="122.39" x2="21.685" y2="122.39" mask="url(#_mask_s0TvjjcjWzKkgWrxpvJkaHgkdE8WRL2V)" vector-effect="non-scaling-stroke" stroke-width="0.5" stroke="rgb(255,255,255)" stroke-linejoin="miter" stroke-linecap="butt" stroke-miterlimit="10"/><mask id="_mask_cah7mPKpm8Cq81yndiBwDclfchbxiYWT" x="-200%" y="-200%" width="400%" height="400%"><rect x="-200%" y="-200%" width="400%" height="400%" style="fill:white;"/><line x1="0.885" y1="132.61" x2="0.885" y2="142.19" fill="black" stroke="none"/></mask><line x1="0.885" y1="132.61" x2="0.885" y2="142.19" mask="url(#_mask_cah7mPKpm8Cq81yndiBwDclfchbxiYWT)" vector-effect="non-scaling-stroke" stroke-width="0.5" stroke="rgb(255,255,255)" stroke-linejoin="miter" stroke-linecap="butt" stroke-miterlimit="10"/></g></g><g clip-path="url(#_clipPath_CbgLZ0yluK1OagVmpdv8e8bWJYlt6pnW)"><text transform="matrix(1,0,0,1,86.13,143.019)" style="font-family:'Open Sans';font-weight:400;font-size:14px;font-style:normal;fill:#000000;stroke:none;">AstraZeneca &#x3E; 2da. dosis</text></g><defs><clipPath id="_clipPath_CbgLZ0yluK1OagVmpdv8e8bWJYlt6pnW"><rect x="0" y="0" width="175.87" height="20.67" transform="matrix(1,0,0,1,86.13,128.055)"/></clipPath></defs><g><g><circle vector-effect="non-scaling-stroke" cx="41.8499999999071" cy="126.38979909303251" r="4" fill="rgb(0,0,0)"/><path d=" M 44.94 132.39 L 43.85 132.39 C 43.584 132.388 43.329 132.493 43.14 132.68 L 41.85 133.97 L 40.56 132.68 C 40.368 132.497 40.115 132.393 39.85 132.39 L 38.75 132.39 C 37.719 132.385 36.853 133.164 36.75 134.19 L 35.85 143.29 C 35.824 143.572 35.918 143.852 36.11 144.06 C 36.299 144.269 36.568 144.389 36.85 144.39 L 37.94 144.39 L 38.76 152.59 C 38.863 153.616 39.729 154.395 40.76 154.39 L 42.94 154.39 C 43.971 154.395 44.837 153.616 44.94 152.59 L 45.75 144.39 L 46.85 144.39 C 47.132 144.389 47.401 144.269 47.59 144.06 C 47.782 143.852 47.876 143.572 47.85 143.29 L 46.94 134.19 C 46.837 133.164 45.971 132.385 44.94 132.39 Z " fill="rgb(0,0,0)"/><circle vector-effect="non-scaling-stroke" cx="55.8499999999071" cy="126.38979909303251" r="4" fill="rgb(0,0,0)"/><path d=" M 60.23 142.39 L 60.85 142.39 C 61.139 142.392 61.416 142.269 61.607 142.053 C 61.799 141.836 61.888 141.547 61.85 141.26 L 60.95 134.17 C 60.837 133.152 59.974 132.384 58.95 132.39 L 52.75 132.39 C 51.729 132.383 50.867 133.146 50.75 134.16 L 49.85 141.26 C 49.812 141.547 49.901 141.836 50.093 142.053 C 50.284 142.269 50.561 142.392 50.85 142.39 L 51.46 142.39 L 49.9 147.07 C 49.799 147.375 49.851 147.71 50.04 147.97 C 50.227 148.232 50.528 148.388 50.85 148.39 L 52 148.39 L 52.72 152.72 C 52.883 153.694 53.732 154.403 54.72 154.39 L 57.02 154.39 C 58.008 154.403 58.857 153.694 59.02 152.72 L 59.7 148.39 L 60.85 148.39 C 61.172 148.388 61.473 148.232 61.66 147.97 C 61.849 147.71 61.901 147.375 61.8 147.07 L 60.23 142.39 Z " fill="rgb(0,0,0)"/><path d=" M 45.13 152.88 L 52.52 152.88 C 52.851 152.839 53.099 152.558 53.099 152.225 C 53.099 151.892 52.851 151.611 52.52 151.57 L 50.66 151.57 L 50.66 148.24 L 52.51 148.24 C 52.841 148.199 53.089 147.918 53.089 147.585 C 53.089 147.252 52.841 146.971 52.51 146.93 L 51.58 146.93 L 51.58 133.72 L 50.65 133.72 L 49.72 130.95 L 49.45 130.95 L 49.45 124.48 C 49.409 124.149 49.128 123.901 48.795 123.901 C 48.462 123.901 48.181 124.149 48.14 124.48 L 48.14 130.94 L 47.85 130.94 L 46.94 133.71 L 46.01 133.71 L 46.01 146.91 L 45.11 146.91 C 44.751 146.91 44.46 147.201 44.46 147.56 C 44.46 147.919 44.751 148.21 45.11 148.21 L 46.96 148.21 L 46.96 151.52 L 45.12 151.52 C 44.947 151.52 44.781 151.59 44.66 151.714 C 44.54 151.839 44.475 152.007 44.48 152.18 C 44.466 152.361 44.528 152.539 44.652 152.672 C 44.775 152.805 44.949 152.88 45.13 152.88 Z  M 49.01 136.53 C 49.019 136.357 49.09 136.194 49.21 136.07 C 49.333 135.949 49.497 135.877 49.67 135.87 L 50.91 135.87 L 50.91 137.16 L 49.67 137.16 C 49.309 137.16 49.015 136.87 49.01 136.51 L 49.01 136.53 Z  M 49.01 139.21 C 49.01 138.851 49.301 138.56 49.66 138.56 L 50.9 138.56 L 50.9 139.85 L 49.68 139.85 C 49.507 139.855 49.339 139.79 49.214 139.67 C 49.09 139.549 49.02 139.383 49.02 139.21 L 49.01 139.21 Z  M 49.01 141.89 C 49.01 141.531 49.301 141.24 49.66 141.24 L 50.9 141.24 L 50.9 142.53 L 49.69 142.53 C 49.329 142.53 49.035 142.24 49.03 141.88 L 49.01 141.89 Z  M 49.01 144.57 C 49.004 144.22 49.28 143.931 49.63 143.92 L 50.89 143.92 L 50.89 145.21 L 49.7 145.21 C 49.345 145.21 49.055 144.925 49.05 144.57 L 49.01 144.57 Z " fill="rgb(0,0,0)" vector-effect="non-scaling-stroke" stroke-width="2" stroke="rgb(255,255,255)" stroke-linejoin="miter" stroke-linecap="butt" stroke-miterlimit="10"/><path d=" M 45.13 152.88 L 52.52 152.88 C 52.851 152.839 53.099 152.558 53.099 152.225 C 53.099 151.892 52.851 151.611 52.52 151.57 L 50.66 151.57 L 50.66 148.24 L 52.51 148.24 C 52.841 148.199 53.089 147.918 53.089 147.585 C 53.089 147.252 52.841 146.971 52.51 146.93 L 51.58 146.93 L 51.58 133.72 L 50.65 133.72 L 49.72 130.95 L 49.45 130.95 L 49.45 124.48 C 49.409 124.149 49.128 123.901 48.795 123.901 C 48.462 123.901 48.181 124.149 48.14 124.48 L 48.14 130.94 L 47.85 130.94 L 46.94 133.71 L 46.01 133.71 L 46.01 146.91 L 45.11 146.91 C 44.751 146.91 44.46 147.201 44.46 147.56 C 44.46 147.919 44.751 148.21 45.11 148.21 L 46.96 148.21 L 46.96 151.52 L 45.12 151.52 C 44.947 151.52 44.781 151.59 44.66 151.714 C 44.54 151.839 44.475 152.007 44.48 152.18 C 44.466 152.361 44.528 152.539 44.652 152.672 C 44.775 152.805 44.949 152.88 45.13 152.88 Z  M 49.01 136.53 C 49.019 136.357 49.09 136.194 49.21 136.07 C 49.333 135.949 49.497 135.877 49.67 135.87 L 50.91 135.87 L 50.91 137.16 L 49.67 137.16 C 49.309 137.16 49.015 136.87 49.01 136.51 L 49.01 136.53 Z  M 49.01 139.21 C 49.01 138.851 49.301 138.56 49.66 138.56 L 50.9 138.56 L 50.9 139.85 L 49.68 139.85 C 49.507 139.855 49.339 139.79 49.214 139.67 C 49.09 139.549 49.02 139.383 49.02 139.21 L 49.01 139.21 Z  M 49.01 141.89 C 49.01 141.531 49.301 141.24 49.66 141.24 L 50.9 141.24 L 50.9 142.53 L 49.69 142.53 C 49.329 142.53 49.035 142.24 49.03 141.88 L 49.01 141.89 Z  M 49.01 144.57 C 49.004 144.22 49.28 143.931 49.63 143.92 L 50.89 143.92 L 50.89 145.21 L 49.7 145.21 C 49.345 145.21 49.055 144.925 49.05 144.57 L 49.01 144.57 Z " fill="rgb(0,0,0)"/><g clip-path="url(#_clipPath_miV44Eb5SbRYCaDalmRsg6jjT3wkk2GZ)"><text transform="matrix(1,0,0,1,38.85,141.23)" style="font-family:'Open Sans';font-weight:400;font-size:10px;font-style:normal;font-variant-ligatures:none;fill:[Object GRGBColor];stroke:none;">1</text></g><defs><clipPath id="_clipPath_miV44Eb5SbRYCaDalmRsg6jjT3wkk2GZ"><rect x="0" y="0" width="8" height="13.618" transform="matrix(1,0,0,1,38.85,130.541)"/></clipPath></defs><g clip-path="url(#_clipPath_Ldr1rQtMTEf8XHOFzAYuUTFLASG5NxFn)"><text transform="matrix(1,0,0,1,53.56,141.89)" style="font-family:'Open Sans';font-weight:400;font-size:10px;font-style:normal;font-variant-ligatures:none;fill:[Object GRGBColor];stroke:none;">D</text></g><defs><clipPath id="_clipPath_Ldr1rQtMTEf8XHOFzAYuUTFLASG5NxFn"><rect x="0" y="0" width="10" height="13.618" transform="matrix(1,0,0,1,53.56,131.201)"/></clipPath></defs><mask id="_mask_gZF6rY8cPtQLILV1N0YIjQH1EPZayXeZ" x="-200%" y="-200%" width="400%" height="400%"><rect x="-200%" y="-200%" width="400%" height="400%" style="fill:white;"/><line x1="75.85" y1="135.87" x2="75.85" y2="145.45" fill="black" stroke="none"/></mask><line x1="75.85" y1="135.87" x2="75.85" y2="145.45" mask="url(#_mask_gZF6rY8cPtQLILV1N0YIjQH1EPZayXeZ)" vector-effect="non-scaling-stroke" stroke-width="0.5" stroke="rgb(255,255,255)" stroke-linejoin="miter" stroke-linecap="butt" stroke-miterlimit="10"/></g></g></g><g><g><g><path d=" M 18.655 67.37 C 19.935 67.81 21.055 68.09 22.655 68.58 C 22.055 76.43 14.635 73.31 18.655 67.37 Z  M 25.285 60.17 C 25.195 57.81 24.785 54.72 21.475 55.17 C 19.925 55.58 18.785 57.28 18.245 60.17 C 17.99 61.912 18.068 63.687 18.475 65.4 C 18.785 66.4 18.685 66.3 19.025 66.48 C 20.345 66.78 21.655 67.11 23.025 67.48 C 24.355 66.57 25.465 61.48 25.285 60.17 Z  M 15.085 59.99 C 15.488 58.273 15.562 56.495 15.305 54.75 C 14.765 51.81 13.625 50.11 12.075 49.75 C 8.775 49.26 8.355 52.35 8.275 54.75 C 8.085 56.07 9.205 61.15 10.555 62.11 C 11.895 61.77 13.205 61.44 14.555 61.11 C 14.875 60.88 14.755 60.94 15.085 59.99 Z  M 10.875 63.09 C 11.505 70.93 18.875 67.82 14.875 61.87 C 13.625 62.31 12.495 62.59 10.875 63.09 Z " fill="rgb(29,113,184)"/><mask id="_mask_VlDj6HbrfqxnWJEwAmnF0UnColNNXKsi" x="-200%" y="-200%" width="400%" height="400%"><rect x="-200%" y="-200%" width="400%" height="400%" style="fill:white;"/><line x1="33.115" y1="51.61" x2="33.115" y2="61.19" fill="black" stroke="none"/></mask><line x1="33.115" y1="51.61" x2="33.115" y2="61.19" mask="url(#_mask_VlDj6HbrfqxnWJEwAmnF0UnColNNXKsi)" vector-effect="non-scaling-stroke" stroke-width="0.5" stroke="rgb(255,255,255)" stroke-linejoin="miter" stroke-linecap="butt" stroke-miterlimit="10"/><mask id="_mask_JqL0aw5Ytsdb6PSyB4cc1jERMr8ALmyj" x="-200%" y="-200%" width="400%" height="400%"><rect x="-200%" y="-200%" width="400%" height="400%" style="fill:white;"/><line x1="12.105" y1="41.39" x2="21.685" y2="41.39" fill="black" stroke="none"/></mask><line x1="12.105" y1="41.39" x2="21.685" y2="41.39" mask="url(#_mask_JqL0aw5Ytsdb6PSyB4cc1jERMr8ALmyj)" vector-effect="non-scaling-stroke" stroke-width="0.5" stroke="rgb(255,255,255)" stroke-linejoin="miter" stroke-linecap="butt" stroke-miterlimit="10"/><mask id="_mask_WgEKcC0e4PjiqyD5aKoRlbG7iRNLuZAY" x="-200%" y="-200%" width="400%" height="400%"><rect x="-200%" y="-200%" width="400%" height="400%" style="fill:white;"/><line x1="0.885" y1="51.61" x2="0.885" y2="61.19" fill="black" stroke="none"/></mask><line x1="0.885" y1="51.61" x2="0.885" y2="61.19" mask="url(#_mask_WgEKcC0e4PjiqyD5aKoRlbG7iRNLuZAY)" vector-effect="non-scaling-stroke" stroke-width="0.5" stroke="rgb(255,255,255)" stroke-linejoin="miter" stroke-linecap="butt" stroke-miterlimit="10"/></g></g><g clip-path="url(#_clipPath_VSfZWg3p5ztyo1foYmf7AtyDnG5T5h5v)"><text transform="matrix(1,0,0,1,86.13,62.019)" style="font-family:'Open Sans';font-weight:400;font-size:14px;font-style:normal;fill:#000000;stroke:none;">Moderna &#x3E; 2da. dosis</text></g><defs><clipPath id="_clipPath_VSfZWg3p5ztyo1foYmf7AtyDnG5T5h5v"><rect x="0" y="0" width="175.87" height="20.67" transform="matrix(1,0,0,1,86.13,47.055)"/></clipPath></defs><g><g><circle vector-effect="non-scaling-stroke" cx="41.8499999999071" cy="45.38979909303251" r="4" fill="rgb(0,0,0)"/><path d=" M 44.94 51.39 L 43.85 51.39 C 43.584 51.388 43.329 51.493 43.14 51.68 L 41.85 52.97 L 40.56 51.68 C 40.368 51.497 40.115 51.393 39.85 51.39 L 38.75 51.39 C 37.719 51.385 36.853 52.164 36.75 53.19 L 35.85 62.29 C 35.824 62.572 35.918 62.852 36.11 63.06 C 36.299 63.269 36.568 63.389 36.85 63.39 L 37.94 63.39 L 38.76 71.59 C 38.863 72.616 39.729 73.395 40.76 73.39 L 42.94 73.39 C 43.971 73.395 44.837 72.616 44.94 71.59 L 45.75 63.39 L 46.85 63.39 C 47.132 63.389 47.401 63.269 47.59 63.06 C 47.782 62.852 47.876 62.572 47.85 62.29 L 46.94 53.19 C 46.837 52.164 45.971 51.385 44.94 51.39 Z " fill="rgb(0,0,0)"/><circle vector-effect="non-scaling-stroke" cx="55.8499999999071" cy="45.38979909303251" r="4" fill="rgb(0,0,0)"/><path d=" M 60.23 61.39 L 60.85 61.39 C 61.139 61.392 61.416 61.269 61.607 61.053 C 61.799 60.836 61.888 60.547 61.85 60.26 L 60.95 53.17 C 60.837 52.152 59.974 51.384 58.95 51.39 L 52.75 51.39 C 51.729 51.383 50.867 52.146 50.75 53.16 L 49.85 60.26 C 49.812 60.547 49.901 60.836 50.093 61.053 C 50.284 61.269 50.561 61.392 50.85 61.39 L 51.46 61.39 L 49.9 66.07 C 49.799 66.375 49.851 66.71 50.04 66.97 C 50.227 67.232 50.528 67.388 50.85 67.39 L 52 67.39 L 52.72 71.72 C 52.883 72.694 53.732 73.403 54.72 73.39 L 57.02 73.39 C 58.008 73.403 58.857 72.694 59.02 71.72 L 59.7 67.39 L 60.85 67.39 C 61.172 67.388 61.473 67.232 61.66 66.97 C 61.849 66.71 61.901 66.375 61.8 66.07 L 60.23 61.39 Z " fill="rgb(0,0,0)"/><path d=" M 45.13 71.88 L 52.52 71.88 C 52.851 71.839 53.099 71.558 53.099 71.225 C 53.099 70.892 52.851 70.611 52.52 70.57 L 50.66 70.57 L 50.66 67.24 L 52.51 67.24 C 52.841 67.199 53.089 66.918 53.089 66.585 C 53.089 66.252 52.841 65.971 52.51 65.93 L 51.58 65.93 L 51.58 52.72 L 50.65 52.72 L 49.72 49.95 L 49.45 49.95 L 49.45 43.48 C 49.409 43.149 49.128 42.901 48.795 42.901 C 48.462 42.901 48.181 43.149 48.14 43.48 L 48.14 49.94 L 47.85 49.94 L 46.94 52.71 L 46.01 52.71 L 46.01 65.91 L 45.11 65.91 C 44.751 65.91 44.46 66.201 44.46 66.56 C 44.46 66.919 44.751 67.21 45.11 67.21 L 46.96 67.21 L 46.96 70.52 L 45.12 70.52 C 44.947 70.52 44.781 70.59 44.66 70.714 C 44.54 70.839 44.475 71.007 44.48 71.18 C 44.466 71.361 44.528 71.539 44.652 71.672 C 44.775 71.805 44.949 71.88 45.13 71.88 Z  M 49.01 55.53 C 49.019 55.357 49.09 55.194 49.21 55.07 C 49.333 54.949 49.497 54.877 49.67 54.87 L 50.91 54.87 L 50.91 56.16 L 49.67 56.16 C 49.309 56.16 49.015 55.87 49.01 55.51 L 49.01 55.53 Z  M 49.01 58.21 C 49.01 57.851 49.301 57.56 49.66 57.56 L 50.9 57.56 L 50.9 58.85 L 49.68 58.85 C 49.507 58.855 49.339 58.79 49.214 58.67 C 49.09 58.549 49.02 58.383 49.02 58.21 L 49.01 58.21 Z  M 49.01 60.89 C 49.01 60.531 49.301 60.24 49.66 60.24 L 50.9 60.24 L 50.9 61.53 L 49.69 61.53 C 49.329 61.53 49.035 61.24 49.03 60.88 L 49.01 60.89 Z  M 49.01 63.57 C 49.004 63.22 49.28 62.931 49.63 62.92 L 50.89 62.92 L 50.89 64.21 L 49.7 64.21 C 49.345 64.21 49.055 63.925 49.05 63.57 L 49.01 63.57 Z " fill="rgb(0,0,0)" vector-effect="non-scaling-stroke" stroke-width="2" stroke="rgb(255,255,255)" stroke-linejoin="miter" stroke-linecap="butt" stroke-miterlimit="10"/><path d=" M 45.13 71.88 L 52.52 71.88 C 52.851 71.839 53.099 71.558 53.099 71.225 C 53.099 70.892 52.851 70.611 52.52 70.57 L 50.66 70.57 L 50.66 67.24 L 52.51 67.24 C 52.841 67.199 53.089 66.918 53.089 66.585 C 53.089 66.252 52.841 65.971 52.51 65.93 L 51.58 65.93 L 51.58 52.72 L 50.65 52.72 L 49.72 49.95 L 49.45 49.95 L 49.45 43.48 C 49.409 43.149 49.128 42.901 48.795 42.901 C 48.462 42.901 48.181 43.149 48.14 43.48 L 48.14 49.94 L 47.85 49.94 L 46.94 52.71 L 46.01 52.71 L 46.01 65.91 L 45.11 65.91 C 44.751 65.91 44.46 66.201 44.46 66.56 C 44.46 66.919 44.751 67.21 45.11 67.21 L 46.96 67.21 L 46.96 70.52 L 45.12 70.52 C 44.947 70.52 44.781 70.59 44.66 70.714 C 44.54 70.839 44.475 71.007 44.48 71.18 C 44.466 71.361 44.528 71.539 44.652 71.672 C 44.775 71.805 44.949 71.88 45.13 71.88 Z  M 49.01 55.53 C 49.019 55.357 49.09 55.194 49.21 55.07 C 49.333 54.949 49.497 54.877 49.67 54.87 L 50.91 54.87 L 50.91 56.16 L 49.67 56.16 C 49.309 56.16 49.015 55.87 49.01 55.51 L 49.01 55.53 Z  M 49.01 58.21 C 49.01 57.851 49.301 57.56 49.66 57.56 L 50.9 57.56 L 50.9 58.85 L 49.68 58.85 C 49.507 58.855 49.339 58.79 49.214 58.67 C 49.09 58.549 49.02 58.383 49.02 58.21 L 49.01 58.21 Z  M 49.01 60.89 C 49.01 60.531 49.301 60.24 49.66 60.24 L 50.9 60.24 L 50.9 61.53 L 49.69 61.53 C 49.329 61.53 49.035 61.24 49.03 60.88 L 49.01 60.89 Z  M 49.01 63.57 C 49.004 63.22 49.28 62.931 49.63 62.92 L 50.89 62.92 L 50.89 64.21 L 49.7 64.21 C 49.345 64.21 49.055 63.925 49.05 63.57 L 49.01 63.57 Z " fill="rgb(0,0,0)"/><g clip-path="url(#_clipPath_3ckCv7n1DRZZehZO3r70C1J1HwOvXI3c)"><text transform="matrix(1,0,0,1,38.85,60.23)" style="font-family:'Open Sans';font-weight:400;font-size:10px;font-style:normal;font-variant-ligatures:none;fill:[Object GRGBColor];stroke:none;">1</text></g><defs><clipPath id="_clipPath_3ckCv7n1DRZZehZO3r70C1J1HwOvXI3c"><rect x="0" y="0" width="8" height="13.618" transform="matrix(1,0,0,1,38.85,49.541)"/></clipPath></defs><g clip-path="url(#_clipPath_FiN1l2PhsPNQVERQJ7kdqxrZegYZNBjW)"><text transform="matrix(1,0,0,1,53.56,60.89)" style="font-family:'Open Sans';font-weight:400;font-size:10px;font-style:normal;font-variant-ligatures:none;fill:[Object GRGBColor];stroke:none;">D</text></g><defs><clipPath id="_clipPath_FiN1l2PhsPNQVERQJ7kdqxrZegYZNBjW"><rect x="0" y="0" width="10" height="13.618" transform="matrix(1,0,0,1,53.56,50.201)"/></clipPath></defs><mask id="_mask_cUm0tvlnrnao6bfVlXaBeX7MrdBl80ut" x="-200%" y="-200%" width="400%" height="400%"><rect x="-200%" y="-200%" width="400%" height="400%" style="fill:white;"/><line x1="75.85" y1="54.87" x2="75.85" y2="64.45" fill="black" stroke="none"/></mask><line x1="75.85" y1="54.87" x2="75.85" y2="64.45" mask="url(#_mask_cUm0tvlnrnao6bfVlXaBeX7MrdBl80ut)" vector-effect="non-scaling-stroke" stroke-width="0.5" stroke="rgb(255,255,255)" stroke-linejoin="miter" stroke-linecap="butt" stroke-miterlimit="10"/></g></g></g><g><g clip-path="url(#_clipPath_pAuca97bW2iOmyRAr0FlzjnZ6hc2Loag)"><text transform="matrix(1,0,0,1,86.13,225.019)" style="font-family:'Open Sans';font-weight:400;font-size:14px;font-style:normal;fill:#000000;stroke:none;">Sputnik V &#x3E; 2da. dosis</text></g><defs><clipPath id="_clipPath_pAuca97bW2iOmyRAr0FlzjnZ6hc2Loag"><rect x="0" y="0" width="175.87" height="20.67" transform="matrix(1,0,0,1,86.13,210.055)"/></clipPath></defs><g><g><path d=" M 18.655 230.37 C 19.935 230.81 21.055 231.09 22.655 231.58 C 22.055 239.43 14.635 236.31 18.655 230.37 Z  M 25.285 223.17 C 25.195 220.81 24.785 217.72 21.475 218.17 C 19.925 218.58 18.785 220.28 18.245 223.17 C 17.99 224.912 18.068 226.687 18.475 228.4 C 18.785 229.4 18.685 229.3 19.025 229.48 C 20.345 229.78 21.655 230.11 23.025 230.48 C 24.355 229.57 25.465 224.48 25.285 223.17 Z  M 15.085 222.99 C 15.488 221.273 15.562 219.495 15.305 217.75 C 14.765 214.81 13.625 213.11 12.075 212.75 C 8.775 212.26 8.355 215.35 8.275 217.75 C 8.085 219.07 9.205 224.15 10.555 225.11 C 11.895 224.77 13.205 224.44 14.555 224.11 C 14.875 223.88 14.755 223.94 15.085 222.99 Z  M 10.875 226.09 C 11.505 233.93 18.875 230.82 14.875 224.87 C 13.625 225.31 12.495 225.59 10.875 226.09 Z " fill="rgb(29,113,184)"/><mask id="_mask_HxanAjkmAE0oaUBL4Vf5dSuOiZaZSfBu" x="-200%" y="-200%" width="400%" height="400%"><rect x="-200%" y="-200%" width="400%" height="400%" style="fill:white;"/><line x1="33.115" y1="214.61" x2="33.115" y2="224.19" fill="black" stroke="none"/></mask><line x1="33.115" y1="214.61" x2="33.115" y2="224.19" mask="url(#_mask_HxanAjkmAE0oaUBL4Vf5dSuOiZaZSfBu)" vector-effect="non-scaling-stroke" stroke-width="0.5" stroke="rgb(255,255,255)" stroke-linejoin="miter" stroke-linecap="butt" stroke-miterlimit="10"/><mask id="_mask_1hoeLgpEMxpfevorKXsslPGGZUS9Sp9L" x="-200%" y="-200%" width="400%" height="400%"><rect x="-200%" y="-200%" width="400%" height="400%" style="fill:white;"/><line x1="12.105" y1="204.39" x2="21.685" y2="204.39" fill="black" stroke="none"/></mask><line x1="12.105" y1="204.39" x2="21.685" y2="204.39" mask="url(#_mask_1hoeLgpEMxpfevorKXsslPGGZUS9Sp9L)" vector-effect="non-scaling-stroke" stroke-width="0.5" stroke="rgb(255,255,255)" stroke-linejoin="miter" stroke-linecap="butt" stroke-miterlimit="10"/><mask id="_mask_wXdfOxaJAOECflKUJSaafG0Nox5AgjkB" x="-200%" y="-200%" width="400%" height="400%"><rect x="-200%" y="-200%" width="400%" height="400%" style="fill:white;"/><line x1="0.885" y1="214.61" x2="0.885" y2="224.19" fill="black" stroke="none"/></mask><line x1="0.885" y1="214.61" x2="0.885" y2="224.19" mask="url(#_mask_wXdfOxaJAOECflKUJSaafG0Nox5AgjkB)" vector-effect="non-scaling-stroke" stroke-width="0.5" stroke="rgb(255,255,255)" stroke-linejoin="miter" stroke-linecap="butt" stroke-miterlimit="10"/></g></g><g><g><circle vector-effect="non-scaling-stroke" cx="41.8499999999071" cy="208.3897990930325" r="4" fill="rgb(0,0,0)"/><path d=" M 44.94 214.39 L 43.85 214.39 C 43.584 214.388 43.329 214.493 43.14 214.68 L 41.85 215.97 L 40.56 214.68 C 40.368 214.497 40.115 214.393 39.85 214.39 L 38.75 214.39 C 37.719 214.385 36.853 215.164 36.75 216.19 L 35.85 225.29 C 35.824 225.572 35.918 225.852 36.11 226.06 C 36.299 226.269 36.568 226.389 36.85 226.39 L 37.94 226.39 L 38.76 234.59 C 38.863 235.616 39.729 236.395 40.76 236.39 L 42.94 236.39 C 43.971 236.395 44.837 235.616 44.94 234.59 L 45.75 226.39 L 46.85 226.39 C 47.132 226.389 47.401 226.269 47.59 226.06 C 47.782 225.852 47.876 225.572 47.85 225.29 L 46.94 216.19 C 46.837 215.164 45.971 214.385 44.94 214.39 Z " fill="rgb(0,0,0)"/><circle vector-effect="non-scaling-stroke" cx="55.8499999999071" cy="208.3897990930325" r="4" fill="rgb(0,0,0)"/><path d=" M 60.23 224.39 L 60.85 224.39 C 61.139 224.392 61.416 224.269 61.607 224.053 C 61.799 223.836 61.888 223.547 61.85 223.26 L 60.95 216.17 C 60.837 215.152 59.974 214.384 58.95 214.39 L 52.75 214.39 C 51.729 214.383 50.867 215.146 50.75 216.16 L 49.85 223.26 C 49.812 223.547 49.901 223.836 50.093 224.053 C 50.284 224.269 50.561 224.392 50.85 224.39 L 51.46 224.39 L 49.9 229.07 C 49.799 229.375 49.851 229.71 50.04 229.97 C 50.227 230.232 50.528 230.388 50.85 230.39 L 52 230.39 L 52.72 234.72 C 52.883 235.694 53.732 236.403 54.72 236.39 L 57.02 236.39 C 58.008 236.403 58.857 235.694 59.02 234.72 L 59.7 230.39 L 60.85 230.39 C 61.172 230.388 61.473 230.232 61.66 229.97 C 61.849 229.71 61.901 229.375 61.8 229.07 L 60.23 224.39 Z " fill="rgb(0,0,0)"/><path d=" M 45.13 234.88 L 52.52 234.88 C 52.851 234.839 53.099 234.558 53.099 234.225 C 53.099 233.892 52.851 233.611 52.52 233.57 L 50.66 233.57 L 50.66 230.24 L 52.51 230.24 C 52.841 230.199 53.089 229.918 53.089 229.585 C 53.089 229.252 52.841 228.971 52.51 228.93 L 51.58 228.93 L 51.58 215.72 L 50.65 215.72 L 49.72 212.95 L 49.45 212.95 L 49.45 206.48 C 49.409 206.149 49.128 205.901 48.795 205.901 C 48.462 205.901 48.181 206.149 48.14 206.48 L 48.14 212.94 L 47.85 212.94 L 46.94 215.71 L 46.01 215.71 L 46.01 228.91 L 45.11 228.91 C 44.751 228.91 44.46 229.201 44.46 229.56 C 44.46 229.919 44.751 230.21 45.11 230.21 L 46.96 230.21 L 46.96 233.52 L 45.12 233.52 C 44.947 233.52 44.781 233.59 44.66 233.714 C 44.54 233.839 44.475 234.007 44.48 234.18 C 44.466 234.361 44.528 234.539 44.652 234.672 C 44.775 234.805 44.949 234.88 45.13 234.88 Z  M 49.01 218.53 C 49.019 218.357 49.09 218.194 49.21 218.07 C 49.333 217.949 49.497 217.877 49.67 217.87 L 50.91 217.87 L 50.91 219.16 L 49.67 219.16 C 49.309 219.16 49.015 218.87 49.01 218.51 L 49.01 218.53 Z  M 49.01 221.21 C 49.01 220.851 49.301 220.56 49.66 220.56 L 50.9 220.56 L 50.9 221.85 L 49.68 221.85 C 49.507 221.855 49.339 221.79 49.214 221.67 C 49.09 221.549 49.02 221.383 49.02 221.21 L 49.01 221.21 Z  M 49.01 223.89 C 49.01 223.531 49.301 223.24 49.66 223.24 L 50.9 223.24 L 50.9 224.53 L 49.69 224.53 C 49.329 224.53 49.035 224.24 49.03 223.88 L 49.01 223.89 Z  M 49.01 226.57 C 49.004 226.22 49.28 225.931 49.63 225.92 L 50.89 225.92 L 50.89 227.21 L 49.7 227.21 C 49.345 227.21 49.055 226.925 49.05 226.57 L 49.01 226.57 Z " fill="rgb(0,0,0)" vector-effect="non-scaling-stroke" stroke-width="2" stroke="rgb(255,255,255)" stroke-linejoin="miter" stroke-linecap="butt" stroke-miterlimit="10"/><path d=" M 45.13 234.88 L 52.52 234.88 C 52.851 234.839 53.099 234.558 53.099 234.225 C 53.099 233.892 52.851 233.611 52.52 233.57 L 50.66 233.57 L 50.66 230.24 L 52.51 230.24 C 52.841 230.199 53.089 229.918 53.089 229.585 C 53.089 229.252 52.841 228.971 52.51 228.93 L 51.58 228.93 L 51.58 215.72 L 50.65 215.72 L 49.72 212.95 L 49.45 212.95 L 49.45 206.48 C 49.409 206.149 49.128 205.901 48.795 205.901 C 48.462 205.901 48.181 206.149 48.14 206.48 L 48.14 212.94 L 47.85 212.94 L 46.94 215.71 L 46.01 215.71 L 46.01 228.91 L 45.11 228.91 C 44.751 228.91 44.46 229.201 44.46 229.56 C 44.46 229.919 44.751 230.21 45.11 230.21 L 46.96 230.21 L 46.96 233.52 L 45.12 233.52 C 44.947 233.52 44.781 233.59 44.66 233.714 C 44.54 233.839 44.475 234.007 44.48 234.18 C 44.466 234.361 44.528 234.539 44.652 234.672 C 44.775 234.805 44.949 234.88 45.13 234.88 Z  M 49.01 218.53 C 49.019 218.357 49.09 218.194 49.21 218.07 C 49.333 217.949 49.497 217.877 49.67 217.87 L 50.91 217.87 L 50.91 219.16 L 49.67 219.16 C 49.309 219.16 49.015 218.87 49.01 218.51 L 49.01 218.53 Z  M 49.01 221.21 C 49.01 220.851 49.301 220.56 49.66 220.56 L 50.9 220.56 L 50.9 221.85 L 49.68 221.85 C 49.507 221.855 49.339 221.79 49.214 221.67 C 49.09 221.549 49.02 221.383 49.02 221.21 L 49.01 221.21 Z  M 49.01 223.89 C 49.01 223.531 49.301 223.24 49.66 223.24 L 50.9 223.24 L 50.9 224.53 L 49.69 224.53 C 49.329 224.53 49.035 224.24 49.03 223.88 L 49.01 223.89 Z  M 49.01 226.57 C 49.004 226.22 49.28 225.931 49.63 225.92 L 50.89 225.92 L 50.89 227.21 L 49.7 227.21 C 49.345 227.21 49.055 226.925 49.05 226.57 L 49.01 226.57 Z " fill="rgb(0,0,0)"/><g clip-path="url(#_clipPath_R4JwswZtSpg1r9gjRe18pa8QrEjk3eK0)"><text transform="matrix(1,0,0,1,38.85,223.23)" style="font-family:'Open Sans';font-weight:400;font-size:10px;font-style:normal;font-variant-ligatures:none;fill:[Object GRGBColor];stroke:none;">1</text></g><defs><clipPath id="_clipPath_R4JwswZtSpg1r9gjRe18pa8QrEjk3eK0"><rect x="0" y="0" width="8" height="13.618" transform="matrix(1,0,0,1,38.85,212.541)"/></clipPath></defs><g clip-path="url(#_clipPath_TvuUIhBids17kD88bgkXGEJDBbjegC1d)"><text transform="matrix(1,0,0,1,53.56,223.89)" style="font-family:'Open Sans';font-weight:400;font-size:10px;font-style:normal;font-variant-ligatures:none;fill:[Object GRGBColor];stroke:none;">D</text></g><defs><clipPath id="_clipPath_TvuUIhBids17kD88bgkXGEJDBbjegC1d"><rect x="0" y="0" width="10" height="13.618" transform="matrix(1,0,0,1,53.56,213.201)"/></clipPath></defs><mask id="_mask_HzmpEPC9gaadEtso6h0zxIHs97CsdhfV" x="-200%" y="-200%" width="400%" height="400%"><rect x="-200%" y="-200%" width="400%" height="400%" style="fill:white;"/><line x1="75.85" y1="217.87" x2="75.85" y2="227.45" fill="black" stroke="none"/></mask><line x1="75.85" y1="217.87" x2="75.85" y2="227.45" mask="url(#_mask_HzmpEPC9gaadEtso6h0zxIHs97CsdhfV)" vector-effect="non-scaling-stroke" stroke-width="0.5" stroke="rgb(255,255,255)" stroke-linejoin="miter" stroke-linecap="butt" stroke-miterlimit="10"/></g></g></g></g></svg>