<?xml version="1.0" encoding="UTF-8" standalone="no"?><!-- Generator: Gravit.io --><svg xmlns="http://www.w3.org/2000/svg" xmlns:xlink="http://www.w3.org/1999/xlink" style="isolation:isolate" viewBox="0 0 265 160" width="265pt" height="160pt"><defs><clipPath id="_clipPath_mGp7yPwkGaY6huCVRolbLAHjnzEkIV4E"><rect width="265" height="160"/></clipPath></defs><g clip-path="url(#_clipPath_mGp7yPwkGaY6huCVRolbLAHjnzEkIV4E)"><g><g><path d=" M 19.712 27.98 C 20.993 28.42 22.112 28.7 23.712 29.19 C 23.112 37.04 15.693 33.92 19.712 27.98 Z  M 26.343 20.78 C 26.253 18.42 25.843 15.33 22.532 15.78 C 20.983 16.19 19.843 17.89 19.302 20.78 C 19.048 22.522 19.126 24.297 19.532 26.01 C 19.843 27.01 19.743 26.91 20.083 27.09 C 21.403 27.39 22.712 27.72 24.083 28.09 C 25.413 27.18 26.522 22.09 26.343 20.78 Z  M 16.142 20.6 C 16.545 18.883 16.62 17.105 16.363 15.36 C 15.823 12.42 14.682 10.72 13.132 10.36 C 9.833 9.87 9.412 12.96 9.332 15.36 C 9.142 16.68 10.262 21.76 11.613 22.72 C 12.953 22.38 14.262 22.05 15.613 21.72 C 15.932 21.49 15.813 21.55 16.142 20.6 Z  M 11.932 23.7 C 12.563 31.54 19.933 28.43 15.932 22.48 C 14.682 22.92 13.552 23.2 11.932 23.7 Z " fill="rgb(29,113,184)"/><mask id="_mask_gPGVfYVLS1n0nVeCEa3ZQFcbLNafMZ1z" x="-200%" y="-200%" width="400%" height="400%"><rect x="-200%" y="-200%" width="400%" height="400%" style="fill:white;"/><line x1="34.173" y1="12.22" x2="34.173" y2="21.8" fill="black" stroke="none"/></mask><line x1="34.173" y1="12.22" x2="34.173" y2="21.8" mask="url(#_mask_gPGVfYVLS1n0nVeCEa3ZQFcbLNafMZ1z)" vector-effect="non-scaling-stroke" stroke-width="0.5" stroke="rgb(255,255,255)" stroke-linejoin="miter" stroke-linecap="butt" stroke-miterlimit="10"/><mask id="_mask_CizWnRsAF49fNUp1IGCeKuQzbUwyOf4w" x="-200%" y="-200%" width="400%" height="400%"><rect x="-200%" y="-200%" width="400%" height="400%" style="fill:white;"/><line x1="13.163" y1="2" x2="22.743" y2="2" fill="black" stroke="none"/></mask><line x1="13.163" y1="2" x2="22.743" y2="2" mask="url(#_mask_CizWnRsAF49fNUp1IGCeKuQzbUwyOf4w)" vector-effect="non-scaling-stroke" stroke-width="0.5" stroke="rgb(255,255,255)" stroke-linejoin="miter" stroke-linecap="butt" stroke-miterlimit="10"/><mask id="_mask_mWNZNQHx5KMNp8nmNoq9WwHrD5YfEOI0" x="-200%" y="-200%" width="400%" height="400%"><rect x="-200%" y="-200%" width="400%" height="400%" style="fill:white;"/><line x1="1.942" y1="12.22" x2="1.942" y2="21.8" fill="black" stroke="none"/></mask><line x1="1.942" y1="12.22" x2="1.942" y2="21.8" mask="url(#_mask_mWNZNQHx5KMNp8nmNoq9WwHrD5YfEOI0)" vector-effect="non-scaling-stroke" stroke-width="0.5" stroke="rgb(255,255,255)" stroke-linejoin="miter" stroke-linecap="butt" stroke-miterlimit="10"/></g></g><g clip-path="url(#_clipPath_vSlqoByEWY6d45OnxHwm0VR2b0qirlJU)"><text transform="matrix(1,0,0,1,87.187,22.569)" style="font-family:'Open Sans';font-weight:400;font-size:14px;font-style:normal;fill:#000000;stroke:none;">AstraZeneca &#x3E; 2da. dosis</text></g><defs><clipPath id="_clipPath_vSlqoByEWY6d45OnxHwm0VR2b0qirlJU"><rect x="0" y="0" width="175.87" height="20.67" transform="matrix(1,0,0,1,87.187,7.605)"/></clipPath></defs><g><g><g><path d=" M 19.712 108.98 C 20.993 109.42 22.112 109.7 23.712 110.19 C 23.112 118.04 15.693 114.92 19.712 108.98 Z  M 26.343 101.78 C 26.253 99.42 25.843 96.33 22.532 96.78 C 20.983 97.19 19.843 98.89 19.302 101.78 C 19.048 103.522 19.126 105.297 19.532 107.01 C 19.843 108.01 19.743 107.91 20.083 108.09 C 21.403 108.39 22.712 108.72 24.083 109.09 C 25.413 108.18 26.522 103.09 26.343 101.78 Z  M 16.142 101.6 C 16.545 99.883 16.62 98.105 16.363 96.36 C 15.823 93.42 14.682 91.72 13.132 91.36 C 9.833 90.87 9.412 93.96 9.332 96.36 C 9.142 97.68 10.262 102.76 11.613 103.72 C 12.953 103.38 14.262 103.05 15.613 102.72 C 15.932 102.49 15.813 102.55 16.142 101.6 Z  M 11.932 104.7 C 12.563 112.54 19.933 109.43 15.932 103.48 C 14.682 103.92 13.552 104.2 11.932 104.7 Z " fill="rgb(29,113,184)"/><mask id="_mask_tZI06oTWdkC96RoscQqZDioSWzU5AgxJ" x="-200%" y="-200%" width="400%" height="400%"><rect x="-200%" y="-200%" width="400%" height="400%" style="fill:white;"/><line x1="34.173" y1="93.22" x2="34.173" y2="102.8" fill="black" stroke="none"/></mask><line x1="34.173" y1="93.22" x2="34.173" y2="102.8" mask="url(#_mask_tZI06oTWdkC96RoscQqZDioSWzU5AgxJ)" vector-effect="non-scaling-stroke" stroke-width="0.5" stroke="rgb(255,255,255)" stroke-linejoin="miter" stroke-linecap="butt" stroke-miterlimit="10"/><mask id="_mask_sfW3ShOtVBHVnO91vFPzIfo8num3iI5K" x="-200%" y="-200%" width="400%" height="400%"><rect x="-200%" y="-200%" width="400%" height="400%" style="fill:white;"/><line x1="13.163" y1="83" x2="22.743" y2="83" fill="black" stroke="none"/></mask><line x1="13.163" y1="83" x2="22.743" y2="83" mask="url(#_mask_sfW3ShOtVBHVnO91vFPzIfo8num3iI5K)" vector-effect="non-scaling-stroke" stroke-width="0.5" stroke="rgb(255,255,255)" stroke-linejoin="miter" stroke-linecap="butt" stroke-miterlimit="10"/><mask id="_mask_UbnYqPLT7qVeOkRDYSTd51P1JpWHvkqM" x="-200%" y="-200%" width="400%" height="400%"><rect x="-200%" y="-200%" width="400%" height="400%" style="fill:white;"/><line x1="1.942" y1="93.22" x2="1.942" y2="102.8" fill="black" stroke="none"/></mask><line x1="1.942" y1="93.22" x2="1.942" y2="102.8" mask="url(#_mask_UbnYqPLT7qVeOkRDYSTd51P1JpWHvkqM)" vector-effect="non-scaling-stroke" stroke-width="0.5" stroke="rgb(255,255,255)" stroke-linejoin="miter" stroke-linecap="butt" stroke-miterlimit="10"/></g></g><g clip-path="url(#_clipPath_ZYtTiox4mi9y3CyXT7l9ZvPb5KnMKW6L)"><text transform="matrix(1,0,0,1,87.187,103.569)" style="font-family:'Open Sans';font-weight:400;font-size:14px;font-style:normal;fill:#000000;stroke:none;">Sputnik V &#x3E; 1ra. dosis</text></g><defs><clipPath id="_clipPath_ZYtTiox4mi9y3CyXT7l9ZvPb5KnMKW6L"><rect x="0" y="0" width="175.87" height="20.67" transform="matrix(1,0,0,1,87.187,88.605)"/></clipPath></defs><g><g><circle vector-effect="non-scaling-stroke" cx="41.90750000238418" cy="87.6098207003335" r="4" fill="rgb(0,0,0)"/><path d=" M 44.998 93.61 L 43.908 93.61 C 43.642 93.608 43.386 93.713 43.197 93.9 L 41.908 95.19 L 40.618 93.9 C 40.426 93.717 40.172 93.614 39.908 93.61 L 38.808 93.61 C 37.777 93.605 36.911 94.384 36.807 95.41 L 35.908 104.51 C 35.881 104.792 35.976 105.072 36.167 105.28 C 36.357 105.489 36.625 105.609 36.908 105.61 L 37.997 105.61 L 38.818 113.81 C 38.921 114.836 39.787 115.615 40.817 115.61 L 42.998 115.61 C 44.028 115.615 44.894 114.836 44.998 113.81 L 45.807 105.61 L 46.908 105.61 C 47.19 105.609 47.458 105.489 47.647 105.28 C 47.839 105.072 47.934 104.792 47.908 104.51 L 46.998 95.41 C 46.894 94.384 46.028 93.605 44.998 93.61 Z " fill="rgb(0,0,0)"/><circle vector-effect="non-scaling-stroke" cx="53.90750000238418" cy="87.6098207003335" r="4" fill="rgb(0,0,0)"/><path d=" M 58.297 103.61 L 58.908 103.61 C 59.197 103.612 59.473 103.489 59.665 103.273 C 59.857 103.056 59.945 102.767 59.908 102.48 L 59.008 95.39 C 58.895 94.372 58.032 93.604 57.008 93.61 L 50.807 93.61 C 49.787 93.603 48.925 94.366 48.807 95.38 L 47.908 102.48 C 47.87 102.767 47.958 103.056 48.15 103.273 C 48.342 103.489 48.618 103.612 48.908 103.61 L 49.517 103.61 L 47.958 108.29 C 47.857 108.595 47.909 108.93 48.097 109.19 C 48.284 109.452 48.586 109.608 48.908 109.61 L 50.057 109.61 L 50.777 113.94 C 50.94 114.914 51.79 115.623 52.778 115.61 L 55.078 115.61 C 56.065 115.623 56.915 114.914 57.078 113.94 L 57.758 109.61 L 58.908 109.61 C 59.229 109.608 59.531 109.452 59.717 109.19 C 59.906 108.93 59.958 108.595 59.858 108.29 L 58.297 103.61 Z " fill="rgb(0,0,0)"/><g clip-path="url(#_clipPath_op1xI49VCDZY3SkXqcVNl6AEdCeQJNO4)"><text transform="matrix(1,0,0,1,58.868,93.83)" style="font-family:'Open Sans';font-weight:400;font-size:10px;font-style:normal;font-variant-ligatures:none;fill:[Object GRGBColor];stroke:none;">18+</text></g><defs><clipPath id="_clipPath_op1xI49VCDZY3SkXqcVNl6AEdCeQJNO4"><rect x="0" y="0" width="20" height="13.618" transform="matrix(1,0,0,1,58.868,83.141)"/></clipPath></defs></g></g></g><g><g><g><path d=" M 19.712 68.98 C 20.993 69.42 22.112 69.7 23.712 70.19 C 23.112 78.04 15.693 74.92 19.712 68.98 Z  M 26.343 61.78 C 26.253 59.42 25.843 56.33 22.532 56.78 C 20.983 57.19 19.843 58.89 19.302 61.78 C 19.048 63.522 19.126 65.297 19.532 67.01 C 19.843 68.01 19.743 67.91 20.083 68.09 C 21.403 68.39 22.712 68.72 24.083 69.09 C 25.413 68.18 26.522 63.09 26.343 61.78 Z  M 16.142 61.6 C 16.545 59.883 16.62 58.105 16.363 56.36 C 15.823 53.42 14.682 51.72 13.132 51.36 C 9.833 50.87 9.412 53.96 9.332 56.36 C 9.142 57.68 10.262 62.76 11.613 63.72 C 12.953 63.38 14.262 63.05 15.613 62.72 C 15.932 62.49 15.813 62.55 16.142 61.6 Z  M 11.932 64.7 C 12.563 72.54 19.933 69.43 15.932 63.48 C 14.682 63.92 13.552 64.2 11.932 64.7 Z " fill="rgb(29,113,184)"/><mask id="_mask_e899n3mZIaDGd5qytjymgiN4s5RCdqPB" x="-200%" y="-200%" width="400%" height="400%"><rect x="-200%" y="-200%" width="400%" height="400%" style="fill:white;"/><line x1="34.173" y1="53.22" x2="34.173" y2="62.8" fill="black" stroke="none"/></mask><line x1="34.173" y1="53.22" x2="34.173" y2="62.8" mask="url(#_mask_e899n3mZIaDGd5qytjymgiN4s5RCdqPB)" vector-effect="non-scaling-stroke" stroke-width="0.5" stroke="rgb(255,255,255)" stroke-linejoin="miter" stroke-linecap="butt" stroke-miterlimit="10"/><mask id="_mask_Ohrp9riWJCXbWogqtpuNhn3vffaGwEko" x="-200%" y="-200%" width="400%" height="400%"><rect x="-200%" y="-200%" width="400%" height="400%" style="fill:white;"/><line x1="13.163" y1="43" x2="22.743" y2="43" fill="black" stroke="none"/></mask><line x1="13.163" y1="43" x2="22.743" y2="43" mask="url(#_mask_Ohrp9riWJCXbWogqtpuNhn3vffaGwEko)" vector-effect="non-scaling-stroke" stroke-width="0.5" stroke="rgb(255,255,255)" stroke-linejoin="miter" stroke-linecap="butt" stroke-miterlimit="10"/><mask id="_mask_eFP7G8tmJn5aivdSiI1sJ67malRkdTjS" x="-200%" y="-200%" width="400%" height="400%"><rect x="-200%" y="-200%" width="400%" height="400%" style="fill:white;"/><line x1="1.942" y1="53.22" x2="1.942" y2="62.8" fill="black" stroke="none"/></mask><line x1="1.942" y1="53.22" x2="1.942" y2="62.8" mask="url(#_mask_eFP7G8tmJn5aivdSiI1sJ67malRkdTjS)" vector-effect="non-scaling-stroke" stroke-width="0.5" stroke="rgb(255,255,255)" stroke-linejoin="miter" stroke-linecap="butt" stroke-miterlimit="10"/></g></g><g clip-path="url(#_clipPath_hLoWvWahiPb1yW8CPldmtZ1L2k8OUaXD)"><text transform="matrix(1,0,0,1,87.187,63.629)" style="font-family:'Open Sans';font-weight:400;font-size:14px;font-style:normal;fill:#000000;stroke:none;">AstraZeneca &#x3E; 2da. dosis</text></g><defs><clipPath id="_clipPath_hLoWvWahiPb1yW8CPldmtZ1L2k8OUaXD"><rect x="0" y="0" width="175.87" height="20.67" transform="matrix(1,0,0,1,87.187,48.665)"/></clipPath></defs><g><g><circle vector-effect="non-scaling-stroke" cx="42.907500002291286" cy="46.999809896683" r="4" fill="rgb(0,0,0)"/><path d=" M 45.998 53 L 44.908 53 C 44.642 52.998 44.386 53.103 44.197 53.29 L 42.908 54.58 L 41.618 53.29 C 41.426 53.107 41.172 53.003 40.908 53 L 39.808 53 C 38.777 52.995 37.911 53.774 37.807 54.8 L 36.908 63.9 C 36.881 64.182 36.976 64.462 37.167 64.67 C 37.357 64.879 37.625 64.999 37.908 65 L 38.997 65 L 39.818 73.2 C 39.921 74.226 40.787 75.005 41.817 75 L 43.998 75 C 45.028 75.005 45.894 74.226 45.998 73.2 L 46.807 65 L 47.908 65 C 48.19 64.999 48.458 64.879 48.647 64.67 C 48.839 64.462 48.934 64.182 48.908 63.9 L 47.998 54.8 C 47.894 53.774 47.028 52.995 45.998 53 Z " fill="rgb(0,0,0)"/><circle vector-effect="non-scaling-stroke" cx="56.907500002291286" cy="46.999809896683" r="4" fill="rgb(0,0,0)"/><path d=" M 61.287 63 L 61.908 63 C 62.197 63.002 62.473 62.879 62.665 62.663 C 62.857 62.446 62.945 62.157 62.908 61.87 L 62.008 54.78 C 61.895 53.762 61.032 52.994 60.008 53 L 53.807 53 C 52.787 52.993 51.925 53.756 51.807 54.77 L 50.908 61.87 C 50.87 62.157 50.958 62.446 51.15 62.663 C 51.342 62.879 51.618 63.002 51.908 63 L 52.517 63 L 50.958 67.68 C 50.857 67.985 50.909 68.32 51.097 68.58 C 51.284 68.842 51.586 68.998 51.908 69 L 53.057 69 L 53.778 73.33 C 53.94 74.304 54.79 75.013 55.778 75 L 58.078 75 C 59.065 75.013 59.915 74.304 60.078 73.33 L 60.758 69 L 61.908 69 C 62.229 68.998 62.531 68.842 62.717 68.58 C 62.906 68.32 62.958 67.985 62.858 67.68 L 61.287 63 Z " fill="rgb(0,0,0)"/><path d=" M 46.187 73.49 L 53.578 73.49 C 53.908 73.449 54.156 73.168 54.156 72.835 C 54.156 72.502 53.908 72.221 53.578 72.18 L 51.718 72.18 L 51.718 68.85 L 53.567 68.85 C 53.898 68.809 54.146 68.528 54.146 68.195 C 54.146 67.862 53.898 67.581 53.567 67.54 L 52.637 67.54 L 52.637 54.33 L 51.708 54.33 L 50.777 51.56 L 50.508 51.56 L 50.508 45.09 C 50.467 44.759 50.186 44.511 49.852 44.511 C 49.519 44.511 49.238 44.759 49.197 45.09 L 49.197 51.55 L 48.908 51.55 L 47.998 54.32 L 47.067 54.32 L 47.067 67.52 L 46.168 67.52 C 45.809 67.52 45.517 67.811 45.517 68.17 C 45.517 68.529 45.809 68.82 46.168 68.82 L 48.017 68.82 L 48.017 72.13 L 46.178 72.13 C 46.004 72.13 45.838 72.2 45.718 72.324 C 45.597 72.449 45.532 72.617 45.538 72.79 C 45.524 72.971 45.586 73.149 45.709 73.282 C 45.833 73.415 46.006 73.49 46.187 73.49 Z  M 50.067 57.14 C 50.077 56.967 50.148 56.804 50.267 56.68 C 50.391 56.559 50.555 56.487 50.727 56.48 L 51.968 56.48 L 51.968 57.77 L 50.727 57.77 C 50.367 57.77 50.073 57.48 50.067 57.12 L 50.067 57.14 Z  M 50.067 59.82 C 50.067 59.461 50.359 59.17 50.718 59.17 L 51.958 59.17 L 51.958 60.46 L 50.737 60.46 C 50.564 60.465 50.396 60.4 50.272 60.28 C 50.148 60.159 50.077 59.993 50.078 59.82 L 50.067 59.82 Z  M 50.067 62.5 C 50.067 62.141 50.359 61.85 50.718 61.85 L 51.958 61.85 L 51.958 63.14 L 50.748 63.14 C 50.387 63.14 50.093 62.85 50.088 62.49 L 50.067 62.5 Z  M 50.067 65.18 C 50.062 64.83 50.338 64.541 50.687 64.53 L 51.947 64.53 L 51.947 65.82 L 50.758 65.82 C 50.402 65.82 50.113 65.535 50.107 65.18 L 50.067 65.18 Z " fill="rgb(0,0,0)" vector-effect="non-scaling-stroke" stroke-width="2" stroke="rgb(255,255,255)" stroke-linejoin="miter" stroke-linecap="butt" stroke-miterlimit="10"/><path d=" M 46.187 73.49 L 53.578 73.49 C 53.908 73.449 54.156 73.168 54.156 72.835 C 54.156 72.502 53.908 72.221 53.578 72.18 L 51.718 72.18 L 51.718 68.85 L 53.567 68.85 C 53.898 68.809 54.146 68.528 54.146 68.195 C 54.146 67.862 53.898 67.581 53.567 67.54 L 52.637 67.54 L 52.637 54.33 L 51.708 54.33 L 50.777 51.56 L 50.508 51.56 L 50.508 45.09 C 50.467 44.759 50.186 44.511 49.852 44.511 C 49.519 44.511 49.238 44.759 49.197 45.09 L 49.197 51.55 L 48.908 51.55 L 47.998 54.32 L 47.067 54.32 L 47.067 67.52 L 46.168 67.52 C 45.809 67.52 45.517 67.811 45.517 68.17 C 45.517 68.529 45.809 68.82 46.168 68.82 L 48.017 68.82 L 48.017 72.13 L 46.178 72.13 C 46.004 72.13 45.838 72.2 45.718 72.324 C 45.597 72.449 45.532 72.617 45.538 72.79 C 45.524 72.971 45.586 73.149 45.709 73.282 C 45.833 73.415 46.006 73.49 46.187 73.49 Z  M 50.067 57.14 C 50.077 56.967 50.148 56.804 50.267 56.68 C 50.391 56.559 50.555 56.487 50.727 56.48 L 51.968 56.48 L 51.968 57.77 L 50.727 57.77 C 50.367 57.77 50.073 57.48 50.067 57.12 L 50.067 57.14 Z  M 50.067 59.82 C 50.067 59.461 50.359 59.17 50.718 59.17 L 51.958 59.17 L 51.958 60.46 L 50.737 60.46 C 50.564 60.465 50.396 60.4 50.272 60.28 C 50.148 60.159 50.077 59.993 50.078 59.82 L 50.067 59.82 Z  M 50.067 62.5 C 50.067 62.141 50.359 61.85 50.718 61.85 L 51.958 61.85 L 51.958 63.14 L 50.748 63.14 C 50.387 63.14 50.093 62.85 50.088 62.49 L 50.067 62.5 Z  M 50.067 65.18 C 50.062 64.83 50.338 64.541 50.687 64.53 L 51.947 64.53 L 51.947 65.82 L 50.758 65.82 C 50.402 65.82 50.113 65.535 50.107 65.18 L 50.067 65.18 Z " fill="rgb(0,0,0)"/><g clip-path="url(#_clipPath_s0WTm2DskrF8B1uqKUJFpZ53ksA1rQCo)"><text transform="matrix(1,0,0,1,39.908,61.84)" style="font-family:'Open Sans';font-weight:400;font-size:10px;font-style:normal;font-variant-ligatures:none;fill:[Object GRGBColor];stroke:none;">1</text></g><defs><clipPath id="_clipPath_s0WTm2DskrF8B1uqKUJFpZ53ksA1rQCo"><rect x="0" y="0" width="8" height="13.618" transform="matrix(1,0,0,1,39.908,51.151)"/></clipPath></defs><g clip-path="url(#_clipPath_WKTuWaP97As8NRTnc8NiakgVIbAkircU)"><text transform="matrix(1,0,0,1,54.618,62.5)" style="font-family:'Open Sans';font-weight:400;font-size:10px;font-style:normal;font-variant-ligatures:none;fill:[Object GRGBColor];stroke:none;">D</text></g><defs><clipPath id="_clipPath_WKTuWaP97As8NRTnc8NiakgVIbAkircU"><rect x="0" y="0" width="10" height="13.618" transform="matrix(1,0,0,1,54.618,51.811)"/></clipPath></defs><mask id="_mask_osHlVM49O3xZEP7mOW0XNMSlwI6Z0pgT" x="-200%" y="-200%" width="400%" height="400%"><rect x="-200%" y="-200%" width="400%" height="400%" style="fill:white;"/><line x1="76.908" y1="56.48" x2="76.908" y2="66.06" fill="black" stroke="none"/></mask><line x1="76.908" y1="56.48" x2="76.908" y2="66.06" mask="url(#_mask_osHlVM49O3xZEP7mOW0XNMSlwI6Z0pgT)" vector-effect="non-scaling-stroke" stroke-width="0.5" stroke="rgb(255,255,255)" stroke-linejoin="miter" stroke-linecap="butt" stroke-miterlimit="10"/></g></g></g><g><g clip-path="url(#_clipPath_Q7wMVJAxIkrx7MTbZY82yOwJOhWusvKx)"><text transform="matrix(1,0,0,1,87.187,145.629)" style="font-family:'Open Sans';font-weight:400;font-size:14px;font-style:normal;fill:#000000;stroke:none;">Sputnik V &#x3E; 2da. dosis</text></g><defs><clipPath id="_clipPath_Q7wMVJAxIkrx7MTbZY82yOwJOhWusvKx"><rect x="0" y="0" width="175.87" height="20.67" transform="matrix(1,0,0,1,87.187,130.665)"/></clipPath></defs><g><g><path d=" M 19.712 150.98 C 20.993 151.42 22.112 151.7 23.712 152.19 C 23.112 160.04 15.693 156.92 19.712 150.98 Z  M 26.343 143.78 C 26.253 141.42 25.843 138.33 22.532 138.78 C 20.983 139.19 19.843 140.89 19.302 143.78 C 19.048 145.522 19.126 147.297 19.532 149.01 C 19.843 150.01 19.743 149.91 20.083 150.09 C 21.403 150.39 22.712 150.72 24.083 151.09 C 25.413 150.18 26.522 145.09 26.343 143.78 Z  M 16.142 143.6 C 16.545 141.883 16.62 140.105 16.363 138.36 C 15.823 135.42 14.682 133.72 13.132 133.36 C 9.833 132.87 9.412 135.96 9.332 138.36 C 9.142 139.68 10.262 144.76 11.613 145.72 C 12.953 145.38 14.262 145.05 15.613 144.72 C 15.932 144.49 15.813 144.55 16.142 143.6 Z  M 11.932 146.7 C 12.563 154.54 19.933 151.43 15.932 145.48 C 14.682 145.92 13.552 146.2 11.932 146.7 Z " fill="rgb(29,113,184)"/><mask id="_mask_EKJ9LkfC3tqFz4S1Yyk8C47tuWSeHL4L" x="-200%" y="-200%" width="400%" height="400%"><rect x="-200%" y="-200%" width="400%" height="400%" style="fill:white;"/><line x1="34.173" y1="135.22" x2="34.173" y2="144.8" fill="black" stroke="none"/></mask><line x1="34.173" y1="135.22" x2="34.173" y2="144.8" mask="url(#_mask_EKJ9LkfC3tqFz4S1Yyk8C47tuWSeHL4L)" vector-effect="non-scaling-stroke" stroke-width="0.5" stroke="rgb(255,255,255)" stroke-linejoin="miter" stroke-linecap="butt" stroke-miterlimit="10"/><mask id="_mask_fzQ6zT2tHV8K7QrZ5d6A7nb0XUwaazzq" x="-200%" y="-200%" width="400%" height="400%"><rect x="-200%" y="-200%" width="400%" height="400%" style="fill:white;"/><line x1="13.163" y1="125" x2="22.743" y2="125" fill="black" stroke="none"/></mask><line x1="13.163" y1="125" x2="22.743" y2="125" mask="url(#_mask_fzQ6zT2tHV8K7QrZ5d6A7nb0XUwaazzq)" vector-effect="non-scaling-stroke" stroke-width="0.5" stroke="rgb(255,255,255)" stroke-linejoin="miter" stroke-linecap="butt" stroke-miterlimit="10"/><mask id="_mask_bOnumSPqLjIXnuzOsoeG7eXfKYYABSuL" x="-200%" y="-200%" width="400%" height="400%"><rect x="-200%" y="-200%" width="400%" height="400%" style="fill:white;"/><line x1="1.942" y1="135.22" x2="1.942" y2="144.8" fill="black" stroke="none"/></mask><line x1="1.942" y1="135.22" x2="1.942" y2="144.8" mask="url(#_mask_bOnumSPqLjIXnuzOsoeG7eXfKYYABSuL)" vector-effect="non-scaling-stroke" stroke-width="0.5" stroke="rgb(255,255,255)" stroke-linejoin="miter" stroke-linecap="butt" stroke-miterlimit="10"/></g></g><g><g><circle vector-effect="non-scaling-stroke" cx="42.907500002291286" cy="128.999809896683" r="4" fill="rgb(0,0,0)"/><path d=" M 45.998 135 L 44.908 135 C 44.642 134.998 44.386 135.103 44.197 135.29 L 42.908 136.58 L 41.618 135.29 C 41.426 135.107 41.172 135.003 40.908 135 L 39.808 135 C 38.777 134.995 37.911 135.774 37.807 136.8 L 36.908 145.9 C 36.881 146.182 36.976 146.462 37.167 146.67 C 37.357 146.879 37.625 146.999 37.908 147 L 38.997 147 L 39.818 155.2 C 39.921 156.226 40.787 157.005 41.817 157 L 43.998 157 C 45.028 157.005 45.894 156.226 45.998 155.2 L 46.807 147 L 47.908 147 C 48.19 146.999 48.458 146.879 48.647 146.67 C 48.839 146.462 48.934 146.182 48.908 145.9 L 47.998 136.8 C 47.894 135.774 47.028 134.995 45.998 135 Z " fill="rgb(0,0,0)"/><circle vector-effect="non-scaling-stroke" cx="56.907500002291286" cy="128.999809896683" r="4" fill="rgb(0,0,0)"/><path d=" M 61.287 145 L 61.908 145 C 62.197 145.002 62.473 144.879 62.665 144.663 C 62.857 144.446 62.945 144.157 62.908 143.87 L 62.008 136.78 C 61.895 135.762 61.032 134.994 60.008 135 L 53.807 135 C 52.787 134.993 51.925 135.756 51.807 136.77 L 50.908 143.87 C 50.87 144.157 50.958 144.446 51.15 144.663 C 51.342 144.879 51.618 145.002 51.908 145 L 52.517 145 L 50.958 149.68 C 50.857 149.985 50.909 150.32 51.097 150.58 C 51.284 150.842 51.586 150.998 51.908 151 L 53.057 151 L 53.778 155.33 C 53.94 156.304 54.79 157.013 55.778 157 L 58.078 157 C 59.065 157.013 59.915 156.304 60.078 155.33 L 60.758 151 L 61.908 151 C 62.229 150.998 62.531 150.842 62.717 150.58 C 62.906 150.32 62.958 149.985 62.858 149.68 L 61.287 145 Z " fill="rgb(0,0,0)"/><path d=" M 46.187 155.49 L 53.578 155.49 C 53.908 155.449 54.156 155.168 54.156 154.835 C 54.156 154.502 53.908 154.221 53.578 154.18 L 51.718 154.18 L 51.718 150.85 L 53.567 150.85 C 53.898 150.809 54.146 150.528 54.146 150.195 C 54.146 149.862 53.898 149.581 53.567 149.54 L 52.637 149.54 L 52.637 136.33 L 51.708 136.33 L 50.777 133.56 L 50.508 133.56 L 50.508 127.09 C 50.467 126.759 50.186 126.511 49.852 126.511 C 49.519 126.511 49.238 126.759 49.197 127.09 L 49.197 133.55 L 48.908 133.55 L 47.998 136.32 L 47.067 136.32 L 47.067 149.52 L 46.168 149.52 C 45.809 149.52 45.517 149.811 45.517 150.17 C 45.517 150.529 45.809 150.82 46.168 150.82 L 48.017 150.82 L 48.017 154.13 L 46.178 154.13 C 46.004 154.13 45.838 154.2 45.718 154.324 C 45.597 154.449 45.532 154.617 45.538 154.79 C 45.524 154.971 45.586 155.149 45.709 155.282 C 45.833 155.415 46.006 155.49 46.187 155.49 Z  M 50.067 139.14 C 50.077 138.967 50.148 138.804 50.267 138.68 C 50.391 138.559 50.555 138.487 50.727 138.48 L 51.968 138.48 L 51.968 139.77 L 50.727 139.77 C 50.367 139.77 50.073 139.48 50.067 139.12 L 50.067 139.14 Z  M 50.067 141.82 C 50.067 141.461 50.359 141.17 50.718 141.17 L 51.958 141.17 L 51.958 142.46 L 50.737 142.46 C 50.564 142.465 50.396 142.4 50.272 142.28 C 50.148 142.159 50.077 141.993 50.078 141.82 L 50.067 141.82 Z  M 50.067 144.5 C 50.067 144.141 50.359 143.85 50.718 143.85 L 51.958 143.85 L 51.958 145.14 L 50.748 145.14 C 50.387 145.14 50.093 144.85 50.088 144.49 L 50.067 144.5 Z  M 50.067 147.18 C 50.062 146.83 50.338 146.541 50.687 146.53 L 51.947 146.53 L 51.947 147.82 L 50.758 147.82 C 50.402 147.82 50.113 147.535 50.107 147.18 L 50.067 147.18 Z " fill="rgb(0,0,0)" vector-effect="non-scaling-stroke" stroke-width="2" stroke="rgb(255,255,255)" stroke-linejoin="miter" stroke-linecap="butt" stroke-miterlimit="10"/><path d=" M 46.187 155.49 L 53.578 155.49 C 53.908 155.449 54.156 155.168 54.156 154.835 C 54.156 154.502 53.908 154.221 53.578 154.18 L 51.718 154.18 L 51.718 150.85 L 53.567 150.85 C 53.898 150.809 54.146 150.528 54.146 150.195 C 54.146 149.862 53.898 149.581 53.567 149.54 L 52.637 149.54 L 52.637 136.33 L 51.708 136.33 L 50.777 133.56 L 50.508 133.56 L 50.508 127.09 C 50.467 126.759 50.186 126.511 49.852 126.511 C 49.519 126.511 49.238 126.759 49.197 127.09 L 49.197 133.55 L 48.908 133.55 L 47.998 136.32 L 47.067 136.32 L 47.067 149.52 L 46.168 149.52 C 45.809 149.52 45.517 149.811 45.517 150.17 C 45.517 150.529 45.809 150.82 46.168 150.82 L 48.017 150.82 L 48.017 154.13 L 46.178 154.13 C 46.004 154.13 45.838 154.2 45.718 154.324 C 45.597 154.449 45.532 154.617 45.538 154.79 C 45.524 154.971 45.586 155.149 45.709 155.282 C 45.833 155.415 46.006 155.49 46.187 155.49 Z  M 50.067 139.14 C 50.077 138.967 50.148 138.804 50.267 138.68 C 50.391 138.559 50.555 138.487 50.727 138.48 L 51.968 138.48 L 51.968 139.77 L 50.727 139.77 C 50.367 139.77 50.073 139.48 50.067 139.12 L 50.067 139.14 Z  M 50.067 141.82 C 50.067 141.461 50.359 141.17 50.718 141.17 L 51.958 141.17 L 51.958 142.46 L 50.737 142.46 C 50.564 142.465 50.396 142.4 50.272 142.28 C 50.148 142.159 50.077 141.993 50.078 141.82 L 50.067 141.82 Z  M 50.067 144.5 C 50.067 144.141 50.359 143.85 50.718 143.85 L 51.958 143.85 L 51.958 145.14 L 50.748 145.14 C 50.387 145.14 50.093 144.85 50.088 144.49 L 50.067 144.5 Z  M 50.067 147.18 C 50.062 146.83 50.338 146.541 50.687 146.53 L 51.947 146.53 L 51.947 147.82 L 50.758 147.82 C 50.402 147.82 50.113 147.535 50.107 147.18 L 50.067 147.18 Z " fill="rgb(0,0,0)"/><g clip-path="url(#_clipPath_DTgaVu6b4YRppUERtqUgUQpTY6NHHYnU)"><text transform="matrix(1,0,0,1,39.908,143.84)" style="font-family:'Open Sans';font-weight:400;font-size:10px;font-style:normal;font-variant-ligatures:none;fill:[Object GRGBColor];stroke:none;">1</text></g><defs><clipPath id="_clipPath_DTgaVu6b4YRppUERtqUgUQpTY6NHHYnU"><rect x="0" y="0" width="8" height="13.618" transform="matrix(1,0,0,1,39.908,133.151)"/></clipPath></defs><g clip-path="url(#_clipPath_r1RFXXAr4p2UpaMCozibLdh12lUPo1yV)"><text transform="matrix(1,0,0,1,54.618,144.5)" style="font-family:'Open Sans';font-weight:400;font-size:10px;font-style:normal;font-variant-ligatures:none;fill:[Object GRGBColor];stroke:none;">D</text></g><defs><clipPath id="_clipPath_r1RFXXAr4p2UpaMCozibLdh12lUPo1yV"><rect x="0" y="0" width="10" height="13.618" transform="matrix(1,0,0,1,54.618,133.811)"/></clipPath></defs><mask id="_mask_bTN7cJl7U4vnbO92PKlgYWZ32Mqwv4D9" x="-200%" y="-200%" width="400%" height="400%"><rect x="-200%" y="-200%" width="400%" height="400%" style="fill:white;"/><line x1="76.908" y1="138.48" x2="76.908" y2="148.06" fill="black" stroke="none"/></mask><line x1="76.908" y1="138.48" x2="76.908" y2="148.06" mask="url(#_mask_bTN7cJl7U4vnbO92PKlgYWZ32Mqwv4D9)" vector-effect="non-scaling-stroke" stroke-width="0.5" stroke="rgb(255,255,255)" stroke-linejoin="miter" stroke-linecap="butt" stroke-miterlimit="10"/></g></g></g><g><g><path d=" M 55.71 9.897 C 57.411 9.897 58.79 8.518 58.79 6.817 C 58.79 5.116 57.411 3.737 55.71 3.737 C 54.009 3.737 52.63 5.116 52.63 6.817 C 52.63 7.634 52.955 8.417 53.532 8.995 C 54.11 9.573 54.893 9.897 55.71 9.897 Z " fill="rgb(0,0,0)"/><path d=" M 62.91 20.077 C 62.91 18.547 61.32 16.077 59.55 15.697 L 59.45 15.647 L 59.45 15.647 L 59.45 14.787 C 59.44 13.574 58.849 12.44 57.86 11.737 C 57.759 11.667 57.652 11.607 57.54 11.557 L 55.7 10.737 L 55.7 10.737 C 55.176 10.496 54.554 10.669 54.23 11.147 L 50.09 17.237 C 49.713 17.763 49.829 18.494 50.35 18.877 C 50.439 18.941 50.537 18.991 50.64 19.027 L 56.83 21.347 C 56.966 21.403 57.113 21.431 57.26 21.427 C 57.759 21.423 58.202 21.107 58.37 20.637 C 58.585 20.011 58.261 19.327 57.64 19.097 L 52.89 17.327 L 54.56 14.857 L 53.77 16.997 L 57.88 18.537 C 58.682 18.821 59.161 19.644 59.012 20.481 C 58.864 21.319 58.131 21.926 57.28 21.917 C 57.068 21.912 56.859 21.871 56.66 21.797 L 51.66 19.927 L 49.8 25.837 C 49.644 26.285 49.672 26.777 49.878 27.205 C 50.084 27.632 50.452 27.961 50.9 28.117 C 51.096 28.185 51.303 28.219 51.51 28.217 L 54.19 28.217 L 54.19 34.147 C 54.143 34.729 54.427 35.287 54.925 35.593 C 55.422 35.898 56.049 35.898 56.546 35.593 C 57.043 35.287 57.327 34.729 57.28 34.147 L 57.28 28.147 L 59.95 28.147 C 60.942 28.153 61.754 27.359 61.77 26.367 C 61.768 26.163 61.734 25.961 61.67 25.767 L 61 23.737 C 62.24 22.941 62.967 21.549 62.91 20.077 Z " fill="rgb(0,0,0)"/><path d=" M 37.41 20.407 L 37.17 21.097 C 36.931 21.776 37.241 22.526 37.89 22.837 C 38.069 22.919 38.263 22.963 38.46 22.967 C 39.05 22.966 39.575 22.594 39.77 22.037 L 41.36 17.427 L 41.36 18.427 L 39.3 25.427 C 39.255 25.84 39.47 26.238 39.84 26.427 C 39.983 26.509 40.146 26.547 40.31 26.537 L 41.41 26.537 L 41.41 34.017 C 41.398 34.922 42.097 35.679 43 35.737 C 43.441 35.759 43.872 35.604 44.198 35.308 C 44.524 35.012 44.719 34.597 44.74 34.157 L 44.74 27.157 C 44.74 27.006 44.8 26.861 44.907 26.754 C 45.014 26.647 45.159 26.587 45.31 26.587 L 45.31 26.587 C 45.461 26.587 45.606 26.647 45.713 26.754 C 45.82 26.861 45.88 27.006 45.88 27.157 L 45.88 34.067 C 45.894 34.953 46.586 35.68 47.47 35.737 C 47.911 35.759 48.342 35.604 48.668 35.308 C 48.994 35.012 49.189 34.597 49.21 34.157 L 49.21 26.557 L 50.28 26.557 C 50.444 26.565 50.607 26.527 50.75 26.447 C 51.124 26.261 51.344 25.863 51.3 25.447 L 49.24 18.447 L 49.24 17.447 L 50.83 22.057 C 51.027 22.63 51.575 23.007 52.18 22.987 C 52.633 22.98 53.054 22.754 53.308 22.379 C 53.563 22.005 53.62 21.531 53.46 21.107 L 50.16 11.737 C 49.942 11.155 49.371 10.782 48.75 10.817 L 41.86 10.817 C 41.238 10.784 40.664 11.155 40.44 11.737 L 37.81 19.297" fill="rgb(0,0,0)"/><circle vector-effect="non-scaling-stroke" cx="45.3302130363464" cy="6.767039004726918" r="3.009999999999998" fill="rgb(0,0,0)"/><path d=" M 49.32 13.867 C 49.158 12.646 48.277 11.642 47.087 11.322 C 45.897 11.003 44.632 11.431 43.88 12.407 L 41.88 15.067 C 41.074 16.032 40.955 17.398 41.583 18.487 C 42.21 19.577 43.451 20.16 44.69 19.947 C 45.479 19.853 46.198 19.45 46.69 18.827 L 48.74 16.157 C 49.23 15.512 49.445 14.7 49.34 13.897 L 49.32 13.867 Z  M 47.82 12.277 C 48.913 13.121 49.119 14.69 48.28 15.787 L 47.49 16.787 L 46.79 16.737 C 46.884 16.522 46.938 16.292 46.95 16.057 C 47.221 15.968 47.468 15.817 47.67 15.617 L 47.67 15.617 C 47.794 15.711 47.971 15.686 48.065 15.562 C 48.159 15.438 48.134 15.261 48.01 15.167 L 48.01 15.167 C 48.425 14.34 48.199 13.336 47.469 12.767 C 46.74 12.199 45.711 12.224 45.01 12.827 L 45.01 12.827 C 44.88 12.746 44.708 12.781 44.62 12.907 C 44.533 13.011 44.533 13.163 44.62 13.267 L 44.62 13.267 C 44.481 13.509 44.399 13.779 44.38 14.057 C 44.177 14.129 43.985 14.23 43.81 14.357 L 43.62 13.607 L 44.32 12.737 C 45.164 11.649 46.729 11.448 47.82 12.287 L 47.82 12.277 Z  M 44.39 16.517 L 43.98 14.977 C 44.111 14.848 44.263 14.743 44.43 14.667 C 44.529 15.085 44.761 15.461 45.09 15.737 C 45.454 16.006 45.898 16.143 46.35 16.127 C 46.319 16.31 46.254 16.487 46.16 16.647 L 44.39 16.517 Z  M 46.9 13.027 C 46.68 13.413 46.712 13.893 46.98 14.247 L 47.04 14.297 C 47.136 14.376 47.274 14.376 47.37 14.297 C 47.429 14.255 47.468 14.191 47.48 14.12 C 47.491 14.048 47.473 13.975 47.43 13.917 L 47.43 13.917 C 47.3 13.747 47.281 13.517 47.38 13.327 C 47.86 13.877 47.832 14.704 47.317 15.222 C 46.802 15.739 45.975 15.769 45.423 15.292 C 44.871 14.814 44.783 13.991 45.22 13.407 L 45.22 13.407 C 45.625 12.893 46.332 12.731 46.92 13.017 L 46.92 13.017 L 46.9 13.027 Z  M 43.21 14.197 L 43.8 16.437 L 41.86 16.277 C 41.938 15.961 42.081 15.665 42.28 15.407 L 43.21 14.197 Z  M 42.73 18.907 C 42.076 18.419 41.703 17.642 41.73 16.827 L 41.73 16.827 L 47.07 17.327 L 46.19 18.447 C 45.792 18.972 45.201 19.316 44.548 19.404 C 43.895 19.492 43.234 19.317 42.71 18.917 L 42.71 18.917 L 42.73 18.907 Z " fill="rgb(244,244,244)"/><g clip-path="url(#_clipPath_xX5IH18ijpa8H12ONY3BDBNdpnF1Rp7j)"><text transform="matrix(1,0,0,1,59.91,12.867)" style="font-family:'Open Sans';font-weight:400;font-size:10px;font-style:normal;font-variant-ligatures:none;fill:#000000;stroke:none;">18+</text></g><defs><clipPath id="_clipPath_xX5IH18ijpa8H12ONY3BDBNdpnF1Rp7j"><rect x="0" y="0" width="20" height="13.618" transform="matrix(1,0,0,1,59.91,2.179)"/></clipPath></defs></g></g></g></svg>