<?xml version="1.0" encoding="UTF-8" standalone="no"?><!-- Generator: Gravit.io --><svg xmlns="http://www.w3.org/2000/svg" xmlns:xlink="http://www.w3.org/1999/xlink" style="isolation:isolate" viewBox="0 0 265 200" width="265pt" height="200pt"><defs><clipPath id="_clipPath_rNo7EgN88uTbpkRfDhGzWSJAcARwXRJ7"><rect width="265" height="200"/></clipPath></defs><g clip-path="url(#_clipPath_rNo7EgN88uTbpkRfDhGzWSJAcARwXRJ7)"><g><g><g><path d=" M 22.712 27.98 C 23.993 28.42 25.112 28.7 26.712 29.19 C 26.112 37.04 18.693 33.92 22.712 27.98 Z  M 29.343 20.78 C 29.253 18.42 28.843 15.33 25.532 15.78 C 23.983 16.19 22.843 17.89 22.302 20.78 C 22.048 22.522 22.126 24.297 22.532 26.01 C 22.843 27.01 22.743 26.91 23.083 27.09 C 24.403 27.39 25.712 27.72 27.083 28.09 C 28.413 27.18 29.522 22.09 29.343 20.78 Z  M 19.142 20.6 C 19.545 18.883 19.62 17.105 19.363 15.36 C 18.823 12.42 17.682 10.72 16.132 10.36 C 12.833 9.87 12.412 12.96 12.332 15.36 C 12.142 16.68 13.262 21.76 14.613 22.72 C 15.953 22.38 17.262 22.05 18.613 21.72 C 18.932 21.49 18.813 21.55 19.142 20.6 Z  M 14.932 23.7 C 15.563 31.54 22.933 28.43 18.932 22.48 C 17.682 22.92 16.552 23.2 14.932 23.7 Z " fill="rgb(29,113,184)"/><mask id="_mask_0peCwHX8hAJW1jznYGd8F2S5DPcO9Xxc" x="-200%" y="-200%" width="400%" height="400%"><rect x="-200%" y="-200%" width="400%" height="400%" style="fill:white;"/><line x1="37.173" y1="12.22" x2="37.173" y2="21.8" fill="black" stroke="none"/></mask><line x1="37.173" y1="12.22" x2="37.173" y2="21.8" mask="url(#_mask_0peCwHX8hAJW1jznYGd8F2S5DPcO9Xxc)" vector-effect="non-scaling-stroke" stroke-width="0.5" stroke="rgb(255,255,255)" stroke-linejoin="miter" stroke-linecap="butt" stroke-miterlimit="10"/><mask id="_mask_TB1QFJe0VZ93fsf0Kwvzjv7wFr8Yyxuc" x="-200%" y="-200%" width="400%" height="400%"><rect x="-200%" y="-200%" width="400%" height="400%" style="fill:white;"/><line x1="16.163" y1="2" x2="25.743" y2="2" fill="black" stroke="none"/></mask><line x1="16.163" y1="2" x2="25.743" y2="2" mask="url(#_mask_TB1QFJe0VZ93fsf0Kwvzjv7wFr8Yyxuc)" vector-effect="non-scaling-stroke" stroke-width="0.5" stroke="rgb(255,255,255)" stroke-linejoin="miter" stroke-linecap="butt" stroke-miterlimit="10"/><mask id="_mask_bLE5Vs8ykfoTW5egXuxFcHXqQWRWp2PT" x="-200%" y="-200%" width="400%" height="400%"><rect x="-200%" y="-200%" width="400%" height="400%" style="fill:white;"/><line x1="4.942" y1="12.22" x2="4.942" y2="21.8" fill="black" stroke="none"/></mask><line x1="4.942" y1="12.22" x2="4.942" y2="21.8" mask="url(#_mask_bLE5Vs8ykfoTW5egXuxFcHXqQWRWp2PT)" vector-effect="non-scaling-stroke" stroke-width="0.5" stroke="rgb(255,255,255)" stroke-linejoin="miter" stroke-linecap="butt" stroke-miterlimit="10"/></g></g><g clip-path="url(#_clipPath_beNkDVlQuXQhUuNT9rk4rJb123J4MkAq)"><text transform="matrix(1,0,0,1,96.187,22.569)" style="font-family:'Open Sans';font-weight:400;font-size:14px;font-style:normal;fill:#000000;stroke:none;">AstraZeneca &#x3E; 1ra. dosis</text></g><defs><clipPath id="_clipPath_beNkDVlQuXQhUuNT9rk4rJb123J4MkAq"><rect x="0" y="0" width="175.87" height="20.67" transform="matrix(1,0,0,1,96.187,7.605)"/></clipPath></defs><g><g><circle vector-effect="non-scaling-stroke" cx="52.19180863945414" cy="6.174153539035828" r="4" fill="rgb(0,0,0)"/><path d=" M 55.282 12.174 L 54.192 12.174 C 53.926 12.173 53.671 12.277 53.482 12.464 L 52.192 13.754 L 50.902 12.464 C 50.71 12.281 50.457 12.178 50.192 12.174 L 49.092 12.174 C 48.061 12.169 47.195 12.948 47.092 13.974 L 46.192 23.074 C 46.166 23.356 46.26 23.636 46.452 23.844 C 46.641 24.054 46.91 24.173 47.192 24.174 L 48.282 24.174 L 49.102 32.374 C 49.205 33.4 50.071 34.179 51.102 34.174 L 53.282 34.174 C 54.313 34.179 55.179 33.4 55.282 32.374 L 56.092 24.174 L 57.192 24.174 C 57.474 24.173 57.743 24.054 57.932 23.844 C 58.124 23.636 58.218 23.356 58.192 23.074 L 57.282 13.974 C 57.179 12.948 56.313 12.169 55.282 12.174 Z " fill="rgb(0,0,0)"/><circle vector-effect="non-scaling-stroke" cx="64.19180863945414" cy="6.174153539035828" r="4" fill="rgb(0,0,0)"/><path d=" M 68.582 22.174 L 69.192 22.174 C 69.481 22.177 69.757 22.054 69.949 21.837 C 70.141 21.62 70.229 21.331 70.192 21.044 L 69.292 13.954 C 69.179 12.936 68.316 12.168 67.292 12.174 L 61.092 12.174 C 60.071 12.167 59.209 12.93 59.092 13.944 L 58.192 21.044 C 58.154 21.331 58.243 21.62 58.434 21.837 C 58.626 22.054 58.902 22.177 59.192 22.174 L 59.802 22.174 L 58.242 26.854 C 58.141 27.159 58.193 27.494 58.382 27.754 C 58.568 28.016 58.87 28.173 59.192 28.174 L 60.342 28.174 L 61.062 32.504 C 61.225 33.478 62.074 34.188 63.062 34.174 L 65.362 34.174 C 66.349 34.188 67.199 33.478 67.362 32.504 L 68.042 28.174 L 69.192 28.174 C 69.514 28.173 69.815 28.016 70.002 27.754 C 70.19 27.494 70.242 27.159 70.142 26.854 L 68.582 22.174 Z " fill="rgb(0,0,0)"/><g clip-path="url(#_clipPath_C1XiV5uk0u2Cv4VPvm57ognSCkHDFSaA)"><text transform="matrix(1,0,0,1,69.152,12.394)" style="font-family:'Open Sans';font-weight:400;font-size:10px;font-style:normal;font-variant-ligatures:none;fill:[Object GRGBColor];stroke:none;">18+</text></g><defs><clipPath id="_clipPath_C1XiV5uk0u2Cv4VPvm57ognSCkHDFSaA"><rect x="0" y="0" width="20" height="13.618" transform="matrix(1,0,0,1,69.152,1.706)"/></clipPath></defs></g></g></g><g><g><g><path d=" M 22.712 68.98 C 23.993 69.42 25.112 69.7 26.712 70.19 C 26.112 78.04 18.693 74.92 22.712 68.98 Z  M 29.343 61.78 C 29.253 59.42 28.843 56.33 25.532 56.78 C 23.983 57.19 22.843 58.89 22.302 61.78 C 22.048 63.522 22.126 65.297 22.532 67.01 C 22.843 68.01 22.743 67.91 23.083 68.09 C 24.403 68.39 25.712 68.72 27.083 69.09 C 28.413 68.18 29.522 63.09 29.343 61.78 Z  M 19.142 61.6 C 19.545 59.883 19.62 58.105 19.363 56.36 C 18.823 53.42 17.682 51.72 16.132 51.36 C 12.833 50.87 12.412 53.96 12.332 56.36 C 12.142 57.68 13.262 62.76 14.613 63.72 C 15.953 63.38 17.262 63.05 18.613 62.72 C 18.932 62.49 18.813 62.55 19.142 61.6 Z  M 14.932 64.7 C 15.563 72.54 22.933 69.43 18.932 63.48 C 17.682 63.92 16.552 64.2 14.932 64.7 Z " fill="rgb(29,113,184)"/><mask id="_mask_Le9MgiTH7oxbvI8BJRYDBqxNto4vyuoQ" x="-200%" y="-200%" width="400%" height="400%"><rect x="-200%" y="-200%" width="400%" height="400%" style="fill:white;"/><line x1="37.173" y1="53.22" x2="37.173" y2="62.8" fill="black" stroke="none"/></mask><line x1="37.173" y1="53.22" x2="37.173" y2="62.8" mask="url(#_mask_Le9MgiTH7oxbvI8BJRYDBqxNto4vyuoQ)" vector-effect="non-scaling-stroke" stroke-width="0.5" stroke="rgb(255,255,255)" stroke-linejoin="miter" stroke-linecap="butt" stroke-miterlimit="10"/><mask id="_mask_XFtJqBgIfWYMFYqzodsYJPDXg6OoLd4W" x="-200%" y="-200%" width="400%" height="400%"><rect x="-200%" y="-200%" width="400%" height="400%" style="fill:white;"/><line x1="16.163" y1="43" x2="25.743" y2="43" fill="black" stroke="none"/></mask><line x1="16.163" y1="43" x2="25.743" y2="43" mask="url(#_mask_XFtJqBgIfWYMFYqzodsYJPDXg6OoLd4W)" vector-effect="non-scaling-stroke" stroke-width="0.5" stroke="rgb(255,255,255)" stroke-linejoin="miter" stroke-linecap="butt" stroke-miterlimit="10"/><mask id="_mask_B45D0j4GFKU3EAnmLjhn9Px31IZoztML" x="-200%" y="-200%" width="400%" height="400%"><rect x="-200%" y="-200%" width="400%" height="400%" style="fill:white;"/><line x1="4.942" y1="53.22" x2="4.942" y2="62.8" fill="black" stroke="none"/></mask><line x1="4.942" y1="53.22" x2="4.942" y2="62.8" mask="url(#_mask_B45D0j4GFKU3EAnmLjhn9Px31IZoztML)" vector-effect="non-scaling-stroke" stroke-width="0.5" stroke="rgb(255,255,255)" stroke-linejoin="miter" stroke-linecap="butt" stroke-miterlimit="10"/></g></g><g clip-path="url(#_clipPath_SBFhR6puTLcxMOpirpw8OxUbBCCE6xBJ)"><text transform="matrix(1,0,0,1,96.187,63.629)" style="font-family:'Open Sans';font-weight:400;font-size:14px;font-style:normal;fill:#000000;stroke:none;">AstraZeneca &#x3E; 2da. dosis</text></g><defs><clipPath id="_clipPath_SBFhR6puTLcxMOpirpw8OxUbBCCE6xBJ"><rect x="0" y="0" width="175.87" height="20.67" transform="matrix(1,0,0,1,96.187,48.665)"/></clipPath></defs><g><g><circle vector-effect="non-scaling-stroke" cx="51.907500002291286" cy="46.999809896683" r="4" fill="rgb(0,0,0)"/><path d=" M 54.998 53 L 53.908 53 C 53.642 52.998 53.386 53.103 53.197 53.29 L 51.908 54.58 L 50.618 53.29 C 50.426 53.107 50.172 53.003 49.908 53 L 48.808 53 C 47.777 52.995 46.911 53.774 46.807 54.8 L 45.908 63.9 C 45.881 64.182 45.976 64.462 46.167 64.67 C 46.357 64.879 46.625 64.999 46.908 65 L 47.997 65 L 48.818 73.2 C 48.921 74.226 49.787 75.005 50.817 75 L 52.998 75 C 54.028 75.005 54.894 74.226 54.998 73.2 L 55.807 65 L 56.908 65 C 57.19 64.999 57.458 64.879 57.647 64.67 C 57.839 64.462 57.934 64.182 57.908 63.9 L 56.998 54.8 C 56.894 53.774 56.028 52.995 54.998 53 Z " fill="rgb(0,0,0)"/><circle vector-effect="non-scaling-stroke" cx="65.90750000229129" cy="46.999809896683" r="4" fill="rgb(0,0,0)"/><path d=" M 70.287 63 L 70.908 63 C 71.197 63.002 71.473 62.879 71.665 62.663 C 71.857 62.446 71.945 62.157 71.908 61.87 L 71.008 54.78 C 70.895 53.762 70.032 52.994 69.008 53 L 62.807 53 C 61.787 52.993 60.925 53.756 60.807 54.77 L 59.908 61.87 C 59.87 62.157 59.958 62.446 60.15 62.663 C 60.342 62.879 60.618 63.002 60.908 63 L 61.517 63 L 59.958 67.68 C 59.857 67.985 59.909 68.32 60.097 68.58 C 60.284 68.842 60.586 68.998 60.908 69 L 62.057 69 L 62.778 73.33 C 62.94 74.304 63.79 75.013 64.778 75 L 67.078 75 C 68.065 75.013 68.915 74.304 69.078 73.33 L 69.758 69 L 70.908 69 C 71.229 68.998 71.531 68.842 71.717 68.58 C 71.906 68.32 71.958 67.985 71.858 67.68 L 70.287 63 Z " fill="rgb(0,0,0)"/><path d=" M 55.187 73.49 L 62.578 73.49 C 62.908 73.449 63.156 73.168 63.156 72.835 C 63.156 72.502 62.908 72.221 62.578 72.18 L 60.718 72.18 L 60.718 68.85 L 62.567 68.85 C 62.898 68.809 63.146 68.528 63.146 68.195 C 63.146 67.862 62.898 67.581 62.567 67.54 L 61.637 67.54 L 61.637 54.33 L 60.708 54.33 L 59.777 51.56 L 59.508 51.56 L 59.508 45.09 C 59.467 44.759 59.186 44.511 58.852 44.511 C 58.519 44.511 58.238 44.759 58.197 45.09 L 58.197 51.55 L 57.908 51.55 L 56.998 54.32 L 56.067 54.32 L 56.067 67.52 L 55.168 67.52 C 54.809 67.52 54.517 67.811 54.517 68.17 C 54.517 68.529 54.809 68.82 55.168 68.82 L 57.017 68.82 L 57.017 72.13 L 55.178 72.13 C 55.004 72.13 54.838 72.2 54.718 72.324 C 54.597 72.449 54.532 72.617 54.538 72.79 C 54.524 72.971 54.586 73.149 54.709 73.282 C 54.833 73.415 55.006 73.49 55.187 73.49 Z  M 59.067 57.14 C 59.077 56.967 59.148 56.804 59.267 56.68 C 59.391 56.559 59.555 56.487 59.727 56.48 L 60.968 56.48 L 60.968 57.77 L 59.727 57.77 C 59.367 57.77 59.073 57.48 59.067 57.12 L 59.067 57.14 Z  M 59.067 59.82 C 59.067 59.461 59.359 59.17 59.718 59.17 L 60.958 59.17 L 60.958 60.46 L 59.737 60.46 C 59.564 60.465 59.396 60.4 59.272 60.28 C 59.148 60.159 59.077 59.993 59.078 59.82 L 59.067 59.82 Z  M 59.067 62.5 C 59.067 62.141 59.359 61.85 59.718 61.85 L 60.958 61.85 L 60.958 63.14 L 59.748 63.14 C 59.387 63.14 59.093 62.85 59.088 62.49 L 59.067 62.5 Z  M 59.067 65.18 C 59.062 64.83 59.338 64.541 59.687 64.53 L 60.947 64.53 L 60.947 65.82 L 59.758 65.82 C 59.402 65.82 59.113 65.535 59.107 65.18 L 59.067 65.18 Z " fill="rgb(0,0,0)" vector-effect="non-scaling-stroke" stroke-width="2" stroke="rgb(255,255,255)" stroke-linejoin="miter" stroke-linecap="butt" stroke-miterlimit="10"/><path d=" M 55.187 73.49 L 62.578 73.49 C 62.908 73.449 63.156 73.168 63.156 72.835 C 63.156 72.502 62.908 72.221 62.578 72.18 L 60.718 72.18 L 60.718 68.85 L 62.567 68.85 C 62.898 68.809 63.146 68.528 63.146 68.195 C 63.146 67.862 62.898 67.581 62.567 67.54 L 61.637 67.54 L 61.637 54.33 L 60.708 54.33 L 59.777 51.56 L 59.508 51.56 L 59.508 45.09 C 59.467 44.759 59.186 44.511 58.852 44.511 C 58.519 44.511 58.238 44.759 58.197 45.09 L 58.197 51.55 L 57.908 51.55 L 56.998 54.32 L 56.067 54.32 L 56.067 67.52 L 55.168 67.52 C 54.809 67.52 54.517 67.811 54.517 68.17 C 54.517 68.529 54.809 68.82 55.168 68.82 L 57.017 68.82 L 57.017 72.13 L 55.178 72.13 C 55.004 72.13 54.838 72.2 54.718 72.324 C 54.597 72.449 54.532 72.617 54.538 72.79 C 54.524 72.971 54.586 73.149 54.709 73.282 C 54.833 73.415 55.006 73.49 55.187 73.49 Z  M 59.067 57.14 C 59.077 56.967 59.148 56.804 59.267 56.68 C 59.391 56.559 59.555 56.487 59.727 56.48 L 60.968 56.48 L 60.968 57.77 L 59.727 57.77 C 59.367 57.77 59.073 57.48 59.067 57.12 L 59.067 57.14 Z  M 59.067 59.82 C 59.067 59.461 59.359 59.17 59.718 59.17 L 60.958 59.17 L 60.958 60.46 L 59.737 60.46 C 59.564 60.465 59.396 60.4 59.272 60.28 C 59.148 60.159 59.077 59.993 59.078 59.82 L 59.067 59.82 Z  M 59.067 62.5 C 59.067 62.141 59.359 61.85 59.718 61.85 L 60.958 61.85 L 60.958 63.14 L 59.748 63.14 C 59.387 63.14 59.093 62.85 59.088 62.49 L 59.067 62.5 Z  M 59.067 65.18 C 59.062 64.83 59.338 64.541 59.687 64.53 L 60.947 64.53 L 60.947 65.82 L 59.758 65.82 C 59.402 65.82 59.113 65.535 59.107 65.18 L 59.067 65.18 Z " fill="rgb(0,0,0)"/><g clip-path="url(#_clipPath_Hk9cWJ8vqhG9NmWNviMFcAuIIgIvERCR)"><text transform="matrix(1,0,0,1,48.908,61.84)" style="font-family:'Open Sans';font-weight:400;font-size:10px;font-style:normal;font-variant-ligatures:none;fill:[Object GRGBColor];stroke:none;">1</text></g><defs><clipPath id="_clipPath_Hk9cWJ8vqhG9NmWNviMFcAuIIgIvERCR"><rect x="0" y="0" width="8" height="13.618" transform="matrix(1,0,0,1,48.908,51.151)"/></clipPath></defs><g clip-path="url(#_clipPath_g6BQlrOVbp2cxhcubdEqVueTg79K7fzf)"><text transform="matrix(1,0,0,1,63.618,62.5)" style="font-family:'Open Sans';font-weight:400;font-size:10px;font-style:normal;font-variant-ligatures:none;fill:[Object GRGBColor];stroke:none;">D</text></g><defs><clipPath id="_clipPath_g6BQlrOVbp2cxhcubdEqVueTg79K7fzf"><rect x="0" y="0" width="10" height="13.618" transform="matrix(1,0,0,1,63.618,51.811)"/></clipPath></defs><mask id="_mask_85SVA4rCeke92fLSeXZe94OdRSEEvGO3" x="-200%" y="-200%" width="400%" height="400%"><rect x="-200%" y="-200%" width="400%" height="400%" style="fill:white;"/><line x1="85.908" y1="56.48" x2="85.908" y2="66.06" fill="black" stroke="none"/></mask><line x1="85.908" y1="56.48" x2="85.908" y2="66.06" mask="url(#_mask_85SVA4rCeke92fLSeXZe94OdRSEEvGO3)" vector-effect="non-scaling-stroke" stroke-width="0.5" stroke="rgb(255,255,255)" stroke-linejoin="miter" stroke-linecap="butt" stroke-miterlimit="10"/></g></g></g><g><g><g><path d=" M 22.712 191.98 C 23.993 192.42 25.112 192.7 26.712 193.19 C 26.112 201.04 18.693 197.92 22.712 191.98 Z  M 29.343 184.78 C 29.253 182.42 28.843 179.33 25.532 179.78 C 23.983 180.19 22.843 181.89 22.302 184.78 C 22.048 186.522 22.126 188.297 22.532 190.01 C 22.843 191.01 22.743 190.91 23.083 191.09 C 24.403 191.39 25.712 191.72 27.083 192.09 C 28.413 191.18 29.522 186.09 29.343 184.78 Z  M 19.142 184.6 C 19.545 182.883 19.62 181.105 19.363 179.36 C 18.823 176.42 17.682 174.72 16.132 174.36 C 12.833 173.87 12.412 176.96 12.332 179.36 C 12.142 180.68 13.262 185.76 14.613 186.72 C 15.953 186.38 17.262 186.05 18.613 185.72 C 18.932 185.49 18.813 185.55 19.142 184.6 Z  M 14.932 187.7 C 15.563 195.54 22.933 192.43 18.932 186.48 C 17.682 186.92 16.552 187.2 14.932 187.7 Z " fill="rgb(29,113,184)"/><mask id="_mask_RuFots1deaOCmEpqDdcMs6u2W6BmEND0" x="-200%" y="-200%" width="400%" height="400%"><rect x="-200%" y="-200%" width="400%" height="400%" style="fill:white;"/><line x1="37.173" y1="176.22" x2="37.173" y2="185.8" fill="black" stroke="none"/></mask><line x1="37.173" y1="176.22" x2="37.173" y2="185.8" mask="url(#_mask_RuFots1deaOCmEpqDdcMs6u2W6BmEND0)" vector-effect="non-scaling-stroke" stroke-width="0.5" stroke="rgb(255,255,255)" stroke-linejoin="miter" stroke-linecap="butt" stroke-miterlimit="10"/><mask id="_mask_eCepbhGLLKvmeRRR15gWspG2MCKSwHHF" x="-200%" y="-200%" width="400%" height="400%"><rect x="-200%" y="-200%" width="400%" height="400%" style="fill:white;"/><line x1="16.163" y1="166" x2="25.743" y2="166" fill="black" stroke="none"/></mask><line x1="16.163" y1="166" x2="25.743" y2="166" mask="url(#_mask_eCepbhGLLKvmeRRR15gWspG2MCKSwHHF)" vector-effect="non-scaling-stroke" stroke-width="0.5" stroke="rgb(255,255,255)" stroke-linejoin="miter" stroke-linecap="butt" stroke-miterlimit="10"/><mask id="_mask_QJ4FCUeK0cZDed5l6jHOZ9YzEIV4R7IE" x="-200%" y="-200%" width="400%" height="400%"><rect x="-200%" y="-200%" width="400%" height="400%" style="fill:white;"/><line x1="4.942" y1="176.22" x2="4.942" y2="185.8" fill="black" stroke="none"/></mask><line x1="4.942" y1="176.22" x2="4.942" y2="185.8" mask="url(#_mask_QJ4FCUeK0cZDed5l6jHOZ9YzEIV4R7IE)" vector-effect="non-scaling-stroke" stroke-width="0.5" stroke="rgb(255,255,255)" stroke-linejoin="miter" stroke-linecap="butt" stroke-miterlimit="10"/></g></g><g clip-path="url(#_clipPath_o9474Or1P2mEAP2ZxoIgWtgOKQ4dJfHE)"><text transform="matrix(1,0,0,1,96.187,186.629)" style="font-family:'Open Sans';font-weight:400;font-size:14px;font-style:normal;fill:#000000;stroke:none;">Moderna &#x3E; 2da. dosis</text></g><defs><clipPath id="_clipPath_o9474Or1P2mEAP2ZxoIgWtgOKQ4dJfHE"><rect x="0" y="0" width="175.87" height="20.67" transform="matrix(1,0,0,1,96.187,171.665)"/></clipPath></defs><g><g><circle vector-effect="non-scaling-stroke" cx="51.907500002291286" cy="169.999809896683" r="4" fill="rgb(0,0,0)"/><path d=" M 54.998 176 L 53.908 176 C 53.642 175.998 53.386 176.103 53.197 176.29 L 51.908 177.58 L 50.618 176.29 C 50.426 176.107 50.172 176.003 49.908 176 L 48.808 176 C 47.777 175.995 46.911 176.774 46.807 177.8 L 45.908 186.9 C 45.881 187.182 45.976 187.462 46.167 187.67 C 46.357 187.879 46.625 187.999 46.908 188 L 47.997 188 L 48.818 196.2 C 48.921 197.226 49.787 198.005 50.817 198 L 52.998 198 C 54.028 198.005 54.894 197.226 54.998 196.2 L 55.807 188 L 56.908 188 C 57.19 187.999 57.458 187.879 57.647 187.67 C 57.839 187.462 57.934 187.182 57.908 186.9 L 56.998 177.8 C 56.894 176.774 56.028 175.995 54.998 176 Z " fill="rgb(0,0,0)"/><circle vector-effect="non-scaling-stroke" cx="65.90750000229129" cy="169.999809896683" r="4" fill="rgb(0,0,0)"/><path d=" M 70.287 186 L 70.908 186 C 71.197 186.002 71.473 185.879 71.665 185.663 C 71.857 185.446 71.945 185.157 71.908 184.87 L 71.008 177.78 C 70.895 176.762 70.032 175.994 69.008 176 L 62.807 176 C 61.787 175.993 60.925 176.756 60.807 177.77 L 59.908 184.87 C 59.87 185.157 59.958 185.446 60.15 185.663 C 60.342 185.879 60.618 186.002 60.908 186 L 61.517 186 L 59.958 190.68 C 59.857 190.985 59.909 191.32 60.097 191.58 C 60.284 191.842 60.586 191.998 60.908 192 L 62.057 192 L 62.778 196.33 C 62.94 197.304 63.79 198.013 64.778 198 L 67.078 198 C 68.065 198.013 68.915 197.304 69.078 196.33 L 69.758 192 L 70.908 192 C 71.229 191.998 71.531 191.842 71.717 191.58 C 71.906 191.32 71.958 190.985 71.858 190.68 L 70.287 186 Z " fill="rgb(0,0,0)"/><path d=" M 55.187 196.49 L 62.578 196.49 C 62.908 196.449 63.156 196.168 63.156 195.835 C 63.156 195.502 62.908 195.221 62.578 195.18 L 60.718 195.18 L 60.718 191.85 L 62.567 191.85 C 62.898 191.809 63.146 191.528 63.146 191.195 C 63.146 190.862 62.898 190.581 62.567 190.54 L 61.637 190.54 L 61.637 177.33 L 60.708 177.33 L 59.777 174.56 L 59.508 174.56 L 59.508 168.09 C 59.467 167.759 59.186 167.511 58.852 167.511 C 58.519 167.511 58.238 167.759 58.197 168.09 L 58.197 174.55 L 57.908 174.55 L 56.998 177.32 L 56.067 177.32 L 56.067 190.52 L 55.168 190.52 C 54.809 190.52 54.517 190.811 54.517 191.17 C 54.517 191.529 54.809 191.82 55.168 191.82 L 57.017 191.82 L 57.017 195.13 L 55.178 195.13 C 55.004 195.13 54.838 195.2 54.718 195.324 C 54.597 195.449 54.532 195.617 54.538 195.79 C 54.524 195.971 54.586 196.149 54.709 196.282 C 54.833 196.415 55.006 196.49 55.187 196.49 Z  M 59.067 180.14 C 59.077 179.967 59.148 179.804 59.267 179.68 C 59.391 179.559 59.555 179.487 59.727 179.48 L 60.968 179.48 L 60.968 180.77 L 59.727 180.77 C 59.367 180.77 59.073 180.48 59.067 180.12 L 59.067 180.14 Z  M 59.067 182.82 C 59.067 182.461 59.359 182.17 59.718 182.17 L 60.958 182.17 L 60.958 183.46 L 59.737 183.46 C 59.564 183.465 59.396 183.4 59.272 183.28 C 59.148 183.159 59.077 182.993 59.078 182.82 L 59.067 182.82 Z  M 59.067 185.5 C 59.067 185.141 59.359 184.85 59.718 184.85 L 60.958 184.85 L 60.958 186.14 L 59.748 186.14 C 59.387 186.14 59.093 185.85 59.088 185.49 L 59.067 185.5 Z  M 59.067 188.18 C 59.062 187.83 59.338 187.541 59.687 187.53 L 60.947 187.53 L 60.947 188.82 L 59.758 188.82 C 59.402 188.82 59.113 188.535 59.107 188.18 L 59.067 188.18 Z " fill="rgb(0,0,0)" vector-effect="non-scaling-stroke" stroke-width="2" stroke="rgb(255,255,255)" stroke-linejoin="miter" stroke-linecap="butt" stroke-miterlimit="10"/><path d=" M 55.187 196.49 L 62.578 196.49 C 62.908 196.449 63.156 196.168 63.156 195.835 C 63.156 195.502 62.908 195.221 62.578 195.18 L 60.718 195.18 L 60.718 191.85 L 62.567 191.85 C 62.898 191.809 63.146 191.528 63.146 191.195 C 63.146 190.862 62.898 190.581 62.567 190.54 L 61.637 190.54 L 61.637 177.33 L 60.708 177.33 L 59.777 174.56 L 59.508 174.56 L 59.508 168.09 C 59.467 167.759 59.186 167.511 58.852 167.511 C 58.519 167.511 58.238 167.759 58.197 168.09 L 58.197 174.55 L 57.908 174.55 L 56.998 177.32 L 56.067 177.32 L 56.067 190.52 L 55.168 190.52 C 54.809 190.52 54.517 190.811 54.517 191.17 C 54.517 191.529 54.809 191.82 55.168 191.82 L 57.017 191.82 L 57.017 195.13 L 55.178 195.13 C 55.004 195.13 54.838 195.2 54.718 195.324 C 54.597 195.449 54.532 195.617 54.538 195.79 C 54.524 195.971 54.586 196.149 54.709 196.282 C 54.833 196.415 55.006 196.49 55.187 196.49 Z  M 59.067 180.14 C 59.077 179.967 59.148 179.804 59.267 179.68 C 59.391 179.559 59.555 179.487 59.727 179.48 L 60.968 179.48 L 60.968 180.77 L 59.727 180.77 C 59.367 180.77 59.073 180.48 59.067 180.12 L 59.067 180.14 Z  M 59.067 182.82 C 59.067 182.461 59.359 182.17 59.718 182.17 L 60.958 182.17 L 60.958 183.46 L 59.737 183.46 C 59.564 183.465 59.396 183.4 59.272 183.28 C 59.148 183.159 59.077 182.993 59.078 182.82 L 59.067 182.82 Z  M 59.067 185.5 C 59.067 185.141 59.359 184.85 59.718 184.85 L 60.958 184.85 L 60.958 186.14 L 59.748 186.14 C 59.387 186.14 59.093 185.85 59.088 185.49 L 59.067 185.5 Z  M 59.067 188.18 C 59.062 187.83 59.338 187.541 59.687 187.53 L 60.947 187.53 L 60.947 188.82 L 59.758 188.82 C 59.402 188.82 59.113 188.535 59.107 188.18 L 59.067 188.18 Z " fill="rgb(0,0,0)"/><g clip-path="url(#_clipPath_RvWqc3zJijBlqcPCxG43ttoXOmGDlMpM)"><text transform="matrix(1,0,0,1,48.908,184.84)" style="font-family:'Open Sans';font-weight:400;font-size:10px;font-style:normal;font-variant-ligatures:none;fill:[Object GRGBColor];stroke:none;">1</text></g><defs><clipPath id="_clipPath_RvWqc3zJijBlqcPCxG43ttoXOmGDlMpM"><rect x="0" y="0" width="8" height="13.618" transform="matrix(1,0,0,1,48.908,174.151)"/></clipPath></defs><g clip-path="url(#_clipPath_ON3aJKsZuKsw8j0u7RaQdA8Dy4f2FAZd)"><text transform="matrix(1,0,0,1,63.618,185.5)" style="font-family:'Open Sans';font-weight:400;font-size:10px;font-style:normal;font-variant-ligatures:none;fill:[Object GRGBColor];stroke:none;">D</text></g><defs><clipPath id="_clipPath_ON3aJKsZuKsw8j0u7RaQdA8Dy4f2FAZd"><rect x="0" y="0" width="10" height="13.618" transform="matrix(1,0,0,1,63.618,174.811)"/></clipPath></defs><mask id="_mask_J3W1J8znGHmMfqWpsQF8OtwByjSQ4Fq4" x="-200%" y="-200%" width="400%" height="400%"><rect x="-200%" y="-200%" width="400%" height="400%" style="fill:white;"/><line x1="85.908" y1="179.48" x2="85.908" y2="189.06" fill="black" stroke="none"/></mask><line x1="85.908" y1="179.48" x2="85.908" y2="189.06" mask="url(#_mask_J3W1J8znGHmMfqWpsQF8OtwByjSQ4Fq4)" vector-effect="non-scaling-stroke" stroke-width="0.5" stroke="rgb(255,255,255)" stroke-linejoin="miter" stroke-linecap="butt" stroke-miterlimit="10"/></g></g></g><g><g clip-path="url(#_clipPath_kIDvNoJwwArg9KcLaV5lB8caN1xoQkTq)"><text transform="matrix(1,0,0,1,96.187,103.569)" style="font-family:'Open Sans';font-weight:400;font-size:14px;font-style:normal;fill:#000000;stroke:none;">Sputnik V &#x3E; 1ra. dosis</text></g><defs><clipPath id="_clipPath_kIDvNoJwwArg9KcLaV5lB8caN1xoQkTq"><rect x="0" y="0" width="175.87" height="20.67" transform="matrix(1,0,0,1,96.187,88.605)"/></clipPath></defs><g><g><circle vector-effect="non-scaling-stroke" cx="50.90750000238418" cy="87.6098207003335" r="4" fill="rgb(0,0,0)"/><path d=" M 53.998 93.61 L 52.908 93.61 C 52.642 93.608 52.386 93.713 52.197 93.9 L 50.908 95.19 L 49.618 93.9 C 49.426 93.717 49.172 93.614 48.908 93.61 L 47.808 93.61 C 46.777 93.605 45.911 94.384 45.807 95.41 L 44.908 104.51 C 44.881 104.792 44.976 105.072 45.167 105.28 C 45.357 105.489 45.625 105.609 45.908 105.61 L 46.997 105.61 L 47.818 113.81 C 47.921 114.836 48.787 115.615 49.817 115.61 L 51.998 115.61 C 53.028 115.615 53.894 114.836 53.998 113.81 L 54.807 105.61 L 55.908 105.61 C 56.19 105.609 56.458 105.489 56.647 105.28 C 56.839 105.072 56.934 104.792 56.908 104.51 L 55.998 95.41 C 55.894 94.384 55.028 93.605 53.998 93.61 Z " fill="rgb(0,0,0)"/><circle vector-effect="non-scaling-stroke" cx="62.90750000238418" cy="87.6098207003335" r="4" fill="rgb(0,0,0)"/><path d=" M 67.297 103.61 L 67.908 103.61 C 68.197 103.612 68.473 103.489 68.665 103.273 C 68.857 103.056 68.945 102.767 68.908 102.48 L 68.008 95.39 C 67.895 94.372 67.032 93.604 66.008 93.61 L 59.807 93.61 C 58.787 93.603 57.925 94.366 57.807 95.38 L 56.908 102.48 C 56.87 102.767 56.958 103.056 57.15 103.273 C 57.342 103.489 57.618 103.612 57.908 103.61 L 58.517 103.61 L 56.958 108.29 C 56.857 108.595 56.909 108.93 57.097 109.19 C 57.284 109.452 57.586 109.608 57.908 109.61 L 59.057 109.61 L 59.777 113.94 C 59.94 114.914 60.79 115.623 61.778 115.61 L 64.078 115.61 C 65.065 115.623 65.915 114.914 66.078 113.94 L 66.758 109.61 L 67.908 109.61 C 68.229 109.608 68.531 109.452 68.717 109.19 C 68.906 108.93 68.958 108.595 68.858 108.29 L 67.297 103.61 Z " fill="rgb(0,0,0)"/><g clip-path="url(#_clipPath_X4s4KE4mm13NC0HhZOrki33OHlBltDWm)"><text transform="matrix(1,0,0,1,67.868,93.83)" style="font-family:'Open Sans';font-weight:400;font-size:10px;font-style:normal;font-variant-ligatures:none;fill:[Object GRGBColor];stroke:none;">18+</text></g><defs><clipPath id="_clipPath_X4s4KE4mm13NC0HhZOrki33OHlBltDWm"><rect x="0" y="0" width="20" height="13.618" transform="matrix(1,0,0,1,67.868,83.141)"/></clipPath></defs></g></g><g><g><path d=" M 36.262 100.27 C 36.16 100.043 35.94 99.892 35.692 99.88 L 32.762 99.88 C 32.513 99.892 32.293 100.043 32.192 100.27 C 32.125 100.463 32.071 100.66 32.032 100.86 L 30.032 95.46 C 29.708 94.567 28.861 93.972 27.912 93.97 L 13.012 93.97 C 12.062 93.972 11.215 94.567 10.892 95.46 L 8.892 100.86 C 8.852 100.66 8.799 100.463 8.732 100.27 C 8.63 100.043 8.41 99.892 8.162 99.88 L 5.272 99.88 C 5.023 99.892 4.803 100.043 4.702 100.27 C 4.412 100.982 4.412 101.778 4.702 102.49 C 4.803 102.717 5.023 102.868 5.272 102.88 L 8.212 102.88 L 8.212 103 C 7.612 103.215 7.212 103.783 7.212 104.42 L 7.212 114.33 C 7.217 114.729 7.542 115.05 7.942 115.05 L 11.482 115.05 C 11.879 115.05 12.202 114.728 12.202 114.33 L 12.202 110.82 L 28.762 110.82 L 28.762 114.33 C 28.762 114.728 29.084 115.05 29.482 115.05 L 33.102 115.05 C 33.501 115.05 33.826 114.729 33.832 114.33 L 33.832 104.42 C 33.834 103.782 33.433 103.213 32.832 103 L 32.832 102.88 L 35.762 102.88 C 36.01 102.868 36.23 102.717 36.332 102.49 C 36.6 101.769 36.574 100.972 36.262 100.27 Z  M 13.262 96.62 L 27.672 96.62 L 29.952 102.93 L 11.012 102.93 L 13.262 96.62 Z  M 13.662 107.37 L 10.662 107.37 C 10.01 107.37 9.482 106.842 9.482 106.19 C 9.482 105.538 10.01 105.01 10.662 105.01 L 13.662 105.01 C 14.313 105.01 14.842 105.538 14.842 106.19 C 14.842 106.842 14.313 107.37 13.662 107.37 L 13.662 107.37 Z  M 30.282 107.37 L 27.282 107.37 C 26.63 107.37 26.102 106.842 26.102 106.19 C 26.102 105.538 26.63 105.01 27.282 105.01 L 30.282 105.01 C 30.933 105.01 31.462 105.538 31.462 106.19 C 31.462 106.842 30.933 107.37 30.282 107.37 L 30.282 107.37 Z " fill="rgb(29,113,184)"/><mask id="_mask_Z92Av1791zzKWJNmQBF4CqSkCicFAAYX" x="-200%" y="-200%" width="400%" height="400%"><rect x="-200%" y="-200%" width="400%" height="400%" style="fill:white;"/><line x1="15.692" y1="82.95" x2="25.272" y2="82.95" fill="black" stroke="none"/></mask><line x1="15.692" y1="82.95" x2="25.272" y2="82.95" mask="url(#_mask_Z92Av1791zzKWJNmQBF4CqSkCicFAAYX)" vector-effect="non-scaling-stroke" stroke-width="0.5" stroke="rgb(255,255,255)" stroke-linejoin="miter" stroke-linecap="butt" stroke-miterlimit="10"/><path d=" M 36.262 100.27 C 36.16 100.043 35.94 99.892 35.692 99.88 L 32.762 99.88 C 32.513 99.892 32.293 100.043 32.192 100.27 C 32.125 100.463 32.071 100.66 32.032 100.86 L 30.032 95.46 C 29.708 94.567 28.861 93.972 27.912 93.97 L 13.012 93.97 C 12.062 93.972 11.215 94.567 10.892 95.46 L 8.892 100.86 C 8.852 100.66 8.799 100.463 8.732 100.27 C 8.63 100.043 8.41 99.892 8.162 99.88 L 5.272 99.88 C 5.023 99.892 4.803 100.043 4.702 100.27 C 4.412 100.982 4.412 101.778 4.702 102.49 C 4.803 102.717 5.023 102.868 5.272 102.88 L 8.212 102.88 L 8.212 103 C 7.612 103.215 7.212 103.783 7.212 104.42 L 7.212 114.33 C 7.217 114.729 7.542 115.05 7.942 115.05 L 11.482 115.05 C 11.879 115.05 12.202 114.728 12.202 114.33 L 12.202 110.82 L 28.762 110.82 L 28.762 114.33 C 28.762 114.728 29.084 115.05 29.482 115.05 L 33.102 115.05 C 33.501 115.05 33.826 114.729 33.832 114.33 L 33.832 104.42 C 33.834 103.782 33.433 103.213 32.832 103 L 32.832 102.88 L 35.762 102.88 C 36.01 102.868 36.23 102.717 36.332 102.49 C 36.6 101.769 36.574 100.972 36.262 100.27 Z  M 13.262 96.62 L 27.672 96.62 L 29.952 102.93 L 11.012 102.93 L 13.262 96.62 Z  M 13.662 107.37 L 10.662 107.37 C 10.01 107.37 9.482 106.842 9.482 106.19 C 9.482 105.538 10.01 105.01 10.662 105.01 L 13.662 105.01 C 14.313 105.01 14.842 105.538 14.842 106.19 C 14.842 106.842 14.313 107.37 13.662 107.37 L 13.662 107.37 Z  M 30.282 107.37 L 27.282 107.37 C 26.63 107.37 26.102 106.842 26.102 106.19 C 26.102 105.538 26.63 105.01 27.282 105.01 L 30.282 105.01 C 30.933 105.01 31.462 105.538 31.462 106.19 C 31.462 106.842 30.933 107.37 30.282 107.37 L 30.282 107.37 Z " fill="rgb(29,29,27)"/><line x1="15.692" y1="82.95" x2="25.272" y2="82.95"/><path d=" M 36.262 100.27 C 36.16 100.043 35.94 99.892 35.692 99.88 L 32.762 99.88 C 32.513 99.892 32.293 100.043 32.192 100.27 C 32.125 100.463 32.071 100.66 32.032 100.86 L 30.032 95.46 C 29.708 94.567 28.861 93.972 27.912 93.97 L 13.012 93.97 C 12.062 93.972 11.215 94.567 10.892 95.46 L 8.892 100.86 C 8.852 100.66 8.799 100.463 8.732 100.27 C 8.63 100.043 8.41 99.892 8.162 99.88 L 5.272 99.88 C 5.023 99.892 4.803 100.043 4.702 100.27 C 4.412 100.982 4.412 101.778 4.702 102.49 C 4.803 102.717 5.023 102.868 5.272 102.88 L 8.212 102.88 L 8.212 103 C 7.612 103.215 7.212 103.783 7.212 104.42 L 7.212 114.33 C 7.217 114.729 7.542 115.05 7.942 115.05 L 11.482 115.05 C 11.879 115.05 12.202 114.728 12.202 114.33 L 12.202 110.82 L 28.762 110.82 L 28.762 114.33 C 28.762 114.728 29.084 115.05 29.482 115.05 L 33.102 115.05 C 33.501 115.05 33.826 114.729 33.832 114.33 L 33.832 104.42 C 33.834 103.782 33.433 103.213 32.832 103 L 32.832 102.88 L 35.762 102.88 C 36.01 102.868 36.23 102.717 36.332 102.49 C 36.6 101.769 36.574 100.972 36.262 100.27 Z  M 13.262 96.62 L 27.672 96.62 L 29.952 102.93 L 11.012 102.93 L 13.262 96.62 Z  M 13.662 107.37 L 10.662 107.37 C 10.01 107.37 9.482 106.842 9.482 106.19 C 9.482 105.538 10.01 105.01 10.662 105.01 L 13.662 105.01 C 14.313 105.01 14.842 105.538 14.842 106.19 C 14.842 106.842 14.313 107.37 13.662 107.37 L 13.662 107.37 Z  M 30.282 107.37 L 27.282 107.37 C 26.63 107.37 26.102 106.842 26.102 106.19 C 26.102 105.538 26.63 105.01 27.282 105.01 L 30.282 105.01 C 30.933 105.01 31.462 105.538 31.462 106.19 C 31.462 106.842 30.933 107.37 30.282 107.37 L 30.282 107.37 Z " fill="rgb(29,113,184)"/><line x1="15.692" y1="82.95" x2="25.272" y2="82.95"/></g></g></g><g><g clip-path="url(#_clipPath_Po45pgVzC6GRX6g0WQDs6gcN6BcuhdNG)"><text transform="matrix(1,0,0,1,96.187,145.629)" style="font-family:'Open Sans';font-weight:400;font-size:14px;font-style:normal;fill:#000000;stroke:none;">Sputnik V &#x3E; 2da. dosis</text></g><defs><clipPath id="_clipPath_Po45pgVzC6GRX6g0WQDs6gcN6BcuhdNG"><rect x="0" y="0" width="175.87" height="20.67" transform="matrix(1,0,0,1,96.187,130.665)"/></clipPath></defs><g><g><circle vector-effect="non-scaling-stroke" cx="51.907500002291286" cy="128.999809896683" r="4" fill="rgb(0,0,0)"/><path d=" M 54.998 135 L 53.908 135 C 53.642 134.998 53.386 135.103 53.197 135.29 L 51.908 136.58 L 50.618 135.29 C 50.426 135.107 50.172 135.003 49.908 135 L 48.808 135 C 47.777 134.995 46.911 135.774 46.807 136.8 L 45.908 145.9 C 45.881 146.182 45.976 146.462 46.167 146.67 C 46.357 146.879 46.625 146.999 46.908 147 L 47.997 147 L 48.818 155.2 C 48.921 156.226 49.787 157.005 50.817 157 L 52.998 157 C 54.028 157.005 54.894 156.226 54.998 155.2 L 55.807 147 L 56.908 147 C 57.19 146.999 57.458 146.879 57.647 146.67 C 57.839 146.462 57.934 146.182 57.908 145.9 L 56.998 136.8 C 56.894 135.774 56.028 134.995 54.998 135 Z " fill="rgb(0,0,0)"/><circle vector-effect="non-scaling-stroke" cx="65.90750000229129" cy="128.999809896683" r="4" fill="rgb(0,0,0)"/><path d=" M 70.287 145 L 70.908 145 C 71.197 145.002 71.473 144.879 71.665 144.663 C 71.857 144.446 71.945 144.157 71.908 143.87 L 71.008 136.78 C 70.895 135.762 70.032 134.994 69.008 135 L 62.807 135 C 61.787 134.993 60.925 135.756 60.807 136.77 L 59.908 143.87 C 59.87 144.157 59.958 144.446 60.15 144.663 C 60.342 144.879 60.618 145.002 60.908 145 L 61.517 145 L 59.958 149.68 C 59.857 149.985 59.909 150.32 60.097 150.58 C 60.284 150.842 60.586 150.998 60.908 151 L 62.057 151 L 62.778 155.33 C 62.94 156.304 63.79 157.013 64.778 157 L 67.078 157 C 68.065 157.013 68.915 156.304 69.078 155.33 L 69.758 151 L 70.908 151 C 71.229 150.998 71.531 150.842 71.717 150.58 C 71.906 150.32 71.958 149.985 71.858 149.68 L 70.287 145 Z " fill="rgb(0,0,0)"/><path d=" M 55.187 155.49 L 62.578 155.49 C 62.908 155.449 63.156 155.168 63.156 154.835 C 63.156 154.502 62.908 154.221 62.578 154.18 L 60.718 154.18 L 60.718 150.85 L 62.567 150.85 C 62.898 150.809 63.146 150.528 63.146 150.195 C 63.146 149.862 62.898 149.581 62.567 149.54 L 61.637 149.54 L 61.637 136.33 L 60.708 136.33 L 59.777 133.56 L 59.508 133.56 L 59.508 127.09 C 59.467 126.759 59.186 126.511 58.852 126.511 C 58.519 126.511 58.238 126.759 58.197 127.09 L 58.197 133.55 L 57.908 133.55 L 56.998 136.32 L 56.067 136.32 L 56.067 149.52 L 55.168 149.52 C 54.809 149.52 54.517 149.811 54.517 150.17 C 54.517 150.529 54.809 150.82 55.168 150.82 L 57.017 150.82 L 57.017 154.13 L 55.178 154.13 C 55.004 154.13 54.838 154.2 54.718 154.324 C 54.597 154.449 54.532 154.617 54.538 154.79 C 54.524 154.971 54.586 155.149 54.709 155.282 C 54.833 155.415 55.006 155.49 55.187 155.49 Z  M 59.067 139.14 C 59.077 138.967 59.148 138.804 59.267 138.68 C 59.391 138.559 59.555 138.487 59.727 138.48 L 60.968 138.48 L 60.968 139.77 L 59.727 139.77 C 59.367 139.77 59.073 139.48 59.067 139.12 L 59.067 139.14 Z  M 59.067 141.82 C 59.067 141.461 59.359 141.17 59.718 141.17 L 60.958 141.17 L 60.958 142.46 L 59.737 142.46 C 59.564 142.465 59.396 142.4 59.272 142.28 C 59.148 142.159 59.077 141.993 59.078 141.82 L 59.067 141.82 Z  M 59.067 144.5 C 59.067 144.141 59.359 143.85 59.718 143.85 L 60.958 143.85 L 60.958 145.14 L 59.748 145.14 C 59.387 145.14 59.093 144.85 59.088 144.49 L 59.067 144.5 Z  M 59.067 147.18 C 59.062 146.83 59.338 146.541 59.687 146.53 L 60.947 146.53 L 60.947 147.82 L 59.758 147.82 C 59.402 147.82 59.113 147.535 59.107 147.18 L 59.067 147.18 Z " fill="rgb(0,0,0)" vector-effect="non-scaling-stroke" stroke-width="2" stroke="rgb(255,255,255)" stroke-linejoin="miter" stroke-linecap="butt" stroke-miterlimit="10"/><path d=" M 55.187 155.49 L 62.578 155.49 C 62.908 155.449 63.156 155.168 63.156 154.835 C 63.156 154.502 62.908 154.221 62.578 154.18 L 60.718 154.18 L 60.718 150.85 L 62.567 150.85 C 62.898 150.809 63.146 150.528 63.146 150.195 C 63.146 149.862 62.898 149.581 62.567 149.54 L 61.637 149.54 L 61.637 136.33 L 60.708 136.33 L 59.777 133.56 L 59.508 133.56 L 59.508 127.09 C 59.467 126.759 59.186 126.511 58.852 126.511 C 58.519 126.511 58.238 126.759 58.197 127.09 L 58.197 133.55 L 57.908 133.55 L 56.998 136.32 L 56.067 136.32 L 56.067 149.52 L 55.168 149.52 C 54.809 149.52 54.517 149.811 54.517 150.17 C 54.517 150.529 54.809 150.82 55.168 150.82 L 57.017 150.82 L 57.017 154.13 L 55.178 154.13 C 55.004 154.13 54.838 154.2 54.718 154.324 C 54.597 154.449 54.532 154.617 54.538 154.79 C 54.524 154.971 54.586 155.149 54.709 155.282 C 54.833 155.415 55.006 155.49 55.187 155.49 Z  M 59.067 139.14 C 59.077 138.967 59.148 138.804 59.267 138.68 C 59.391 138.559 59.555 138.487 59.727 138.48 L 60.968 138.48 L 60.968 139.77 L 59.727 139.77 C 59.367 139.77 59.073 139.48 59.067 139.12 L 59.067 139.14 Z  M 59.067 141.82 C 59.067 141.461 59.359 141.17 59.718 141.17 L 60.958 141.17 L 60.958 142.46 L 59.737 142.46 C 59.564 142.465 59.396 142.4 59.272 142.28 C 59.148 142.159 59.077 141.993 59.078 141.82 L 59.067 141.82 Z  M 59.067 144.5 C 59.067 144.141 59.359 143.85 59.718 143.85 L 60.958 143.85 L 60.958 145.14 L 59.748 145.14 C 59.387 145.14 59.093 144.85 59.088 144.49 L 59.067 144.5 Z  M 59.067 147.18 C 59.062 146.83 59.338 146.541 59.687 146.53 L 60.947 146.53 L 60.947 147.82 L 59.758 147.82 C 59.402 147.82 59.113 147.535 59.107 147.18 L 59.067 147.18 Z " fill="rgb(0,0,0)"/><g clip-path="url(#_clipPath_xyVV9Tz3DskHpUiH0y63h0YGYpEmmIoy)"><text transform="matrix(1,0,0,1,48.908,143.84)" style="font-family:'Open Sans';font-weight:400;font-size:10px;font-style:normal;font-variant-ligatures:none;fill:[Object GRGBColor];stroke:none;">1</text></g><defs><clipPath id="_clipPath_xyVV9Tz3DskHpUiH0y63h0YGYpEmmIoy"><rect x="0" y="0" width="8" height="13.618" transform="matrix(1,0,0,1,48.908,133.151)"/></clipPath></defs><g clip-path="url(#_clipPath_1UwVbbV2wCBp8HeQg4kY0tKn9RWu54EP)"><text transform="matrix(1,0,0,1,63.618,144.5)" style="font-family:'Open Sans';font-weight:400;font-size:10px;font-style:normal;font-variant-ligatures:none;fill:[Object GRGBColor];stroke:none;">D</text></g><defs><clipPath id="_clipPath_1UwVbbV2wCBp8HeQg4kY0tKn9RWu54EP"><rect x="0" y="0" width="10" height="13.618" transform="matrix(1,0,0,1,63.618,133.811)"/></clipPath></defs><mask id="_mask_GHBoGraAhp5Ph4Q3GKcCM839F6JTayBo" x="-200%" y="-200%" width="400%" height="400%"><rect x="-200%" y="-200%" width="400%" height="400%" style="fill:white;"/><line x1="85.908" y1="138.48" x2="85.908" y2="148.06" fill="black" stroke="none"/></mask><line x1="85.908" y1="138.48" x2="85.908" y2="148.06" mask="url(#_mask_GHBoGraAhp5Ph4Q3GKcCM839F6JTayBo)" vector-effect="non-scaling-stroke" stroke-width="0.5" stroke="rgb(255,255,255)" stroke-linejoin="miter" stroke-linecap="butt" stroke-miterlimit="10"/></g></g><g><g><path d=" M 36.262 142.27 C 36.16 142.043 35.94 141.892 35.692 141.88 L 32.762 141.88 C 32.513 141.892 32.293 142.043 32.192 142.27 C 32.125 142.463 32.071 142.66 32.032 142.86 L 30.032 137.46 C 29.708 136.567 28.861 135.972 27.912 135.97 L 13.012 135.97 C 12.062 135.972 11.215 136.567 10.892 137.46 L 8.892 142.86 C 8.852 142.66 8.799 142.463 8.732 142.27 C 8.63 142.043 8.41 141.892 8.162 141.88 L 5.272 141.88 C 5.023 141.892 4.803 142.043 4.702 142.27 C 4.412 142.982 4.412 143.778 4.702 144.49 C 4.803 144.717 5.023 144.868 5.272 144.88 L 8.212 144.88 L 8.212 145 C 7.612 145.215 7.212 145.783 7.212 146.42 L 7.212 156.33 C 7.217 156.729 7.542 157.05 7.942 157.05 L 11.482 157.05 C 11.879 157.05 12.202 156.728 12.202 156.33 L 12.202 152.82 L 28.762 152.82 L 28.762 156.33 C 28.762 156.728 29.084 157.05 29.482 157.05 L 33.102 157.05 C 33.501 157.05 33.826 156.729 33.832 156.33 L 33.832 146.42 C 33.834 145.782 33.433 145.213 32.832 145 L 32.832 144.88 L 35.762 144.88 C 36.01 144.868 36.23 144.717 36.332 144.49 C 36.6 143.769 36.574 142.972 36.262 142.27 Z  M 13.262 138.62 L 27.672 138.62 L 29.952 144.93 L 11.012 144.93 L 13.262 138.62 Z  M 13.662 149.37 L 10.662 149.37 C 10.01 149.37 9.482 148.842 9.482 148.19 C 9.482 147.538 10.01 147.01 10.662 147.01 L 13.662 147.01 C 14.313 147.01 14.842 147.538 14.842 148.19 C 14.842 148.842 14.313 149.37 13.662 149.37 L 13.662 149.37 Z  M 30.282 149.37 L 27.282 149.37 C 26.63 149.37 26.102 148.842 26.102 148.19 C 26.102 147.538 26.63 147.01 27.282 147.01 L 30.282 147.01 C 30.933 147.01 31.462 147.538 31.462 148.19 C 31.462 148.842 30.933 149.37 30.282 149.37 L 30.282 149.37 Z " fill="rgb(29,113,184)"/><mask id="_mask_NV0I6oD21JTv29JtGqlP6Uu6alQDPOMW" x="-200%" y="-200%" width="400%" height="400%"><rect x="-200%" y="-200%" width="400%" height="400%" style="fill:white;"/><line x1="15.692" y1="124.95" x2="25.272" y2="124.95" fill="black" stroke="none"/></mask><line x1="15.692" y1="124.95" x2="25.272" y2="124.95" mask="url(#_mask_NV0I6oD21JTv29JtGqlP6Uu6alQDPOMW)" vector-effect="non-scaling-stroke" stroke-width="0.5" stroke="rgb(255,255,255)" stroke-linejoin="miter" stroke-linecap="butt" stroke-miterlimit="10"/><path d=" M 36.262 142.27 C 36.16 142.043 35.94 141.892 35.692 141.88 L 32.762 141.88 C 32.513 141.892 32.293 142.043 32.192 142.27 C 32.125 142.463 32.071 142.66 32.032 142.86 L 30.032 137.46 C 29.708 136.567 28.861 135.972 27.912 135.97 L 13.012 135.97 C 12.062 135.972 11.215 136.567 10.892 137.46 L 8.892 142.86 C 8.852 142.66 8.799 142.463 8.732 142.27 C 8.63 142.043 8.41 141.892 8.162 141.88 L 5.272 141.88 C 5.023 141.892 4.803 142.043 4.702 142.27 C 4.412 142.982 4.412 143.778 4.702 144.49 C 4.803 144.717 5.023 144.868 5.272 144.88 L 8.212 144.88 L 8.212 145 C 7.612 145.215 7.212 145.783 7.212 146.42 L 7.212 156.33 C 7.217 156.729 7.542 157.05 7.942 157.05 L 11.482 157.05 C 11.879 157.05 12.202 156.728 12.202 156.33 L 12.202 152.82 L 28.762 152.82 L 28.762 156.33 C 28.762 156.728 29.084 157.05 29.482 157.05 L 33.102 157.05 C 33.501 157.05 33.826 156.729 33.832 156.33 L 33.832 146.42 C 33.834 145.782 33.433 145.213 32.832 145 L 32.832 144.88 L 35.762 144.88 C 36.01 144.868 36.23 144.717 36.332 144.49 C 36.6 143.769 36.574 142.972 36.262 142.27 Z  M 13.262 138.62 L 27.672 138.62 L 29.952 144.93 L 11.012 144.93 L 13.262 138.62 Z  M 13.662 149.37 L 10.662 149.37 C 10.01 149.37 9.482 148.842 9.482 148.19 C 9.482 147.538 10.01 147.01 10.662 147.01 L 13.662 147.01 C 14.313 147.01 14.842 147.538 14.842 148.19 C 14.842 148.842 14.313 149.37 13.662 149.37 L 13.662 149.37 Z  M 30.282 149.37 L 27.282 149.37 C 26.63 149.37 26.102 148.842 26.102 148.19 C 26.102 147.538 26.63 147.01 27.282 147.01 L 30.282 147.01 C 30.933 147.01 31.462 147.538 31.462 148.19 C 31.462 148.842 30.933 149.37 30.282 149.37 L 30.282 149.37 Z " fill="rgb(29,29,27)"/><line x1="15.692" y1="124.95" x2="25.272" y2="124.95"/><path d=" M 36.262 142.27 C 36.16 142.043 35.94 141.892 35.692 141.88 L 32.762 141.88 C 32.513 141.892 32.293 142.043 32.192 142.27 C 32.125 142.463 32.071 142.66 32.032 142.86 L 30.032 137.46 C 29.708 136.567 28.861 135.972 27.912 135.97 L 13.012 135.97 C 12.062 135.972 11.215 136.567 10.892 137.46 L 8.892 142.86 C 8.852 142.66 8.799 142.463 8.732 142.27 C 8.63 142.043 8.41 141.892 8.162 141.88 L 5.272 141.88 C 5.023 141.892 4.803 142.043 4.702 142.27 C 4.412 142.982 4.412 143.778 4.702 144.49 C 4.803 144.717 5.023 144.868 5.272 144.88 L 8.212 144.88 L 8.212 145 C 7.612 145.215 7.212 145.783 7.212 146.42 L 7.212 156.33 C 7.217 156.729 7.542 157.05 7.942 157.05 L 11.482 157.05 C 11.879 157.05 12.202 156.728 12.202 156.33 L 12.202 152.82 L 28.762 152.82 L 28.762 156.33 C 28.762 156.728 29.084 157.05 29.482 157.05 L 33.102 157.05 C 33.501 157.05 33.826 156.729 33.832 156.33 L 33.832 146.42 C 33.834 145.782 33.433 145.213 32.832 145 L 32.832 144.88 L 35.762 144.88 C 36.01 144.868 36.23 144.717 36.332 144.49 C 36.6 143.769 36.574 142.972 36.262 142.27 Z  M 13.262 138.62 L 27.672 138.62 L 29.952 144.93 L 11.012 144.93 L 13.262 138.62 Z  M 13.662 149.37 L 10.662 149.37 C 10.01 149.37 9.482 148.842 9.482 148.19 C 9.482 147.538 10.01 147.01 10.662 147.01 L 13.662 147.01 C 14.313 147.01 14.842 147.538 14.842 148.19 C 14.842 148.842 14.313 149.37 13.662 149.37 L 13.662 149.37 Z  M 30.282 149.37 L 27.282 149.37 C 26.63 149.37 26.102 148.842 26.102 148.19 C 26.102 147.538 26.63 147.01 27.282 147.01 L 30.282 147.01 C 30.933 147.01 31.462 147.538 31.462 148.19 C 31.462 148.842 30.933 149.37 30.282 149.37 L 30.282 149.37 Z " fill="rgb(29,113,184)"/><line x1="15.692" y1="124.95" x2="25.272" y2="124.95"/></g></g></g></g></svg>