<?xml version="1.0" encoding="UTF-8" standalone="no"?><!-- Generator: Gravit.io --><svg xmlns="http://www.w3.org/2000/svg" xmlns:xlink="http://www.w3.org/1999/xlink" style="isolation:isolate" viewBox="0 0 265 160" width="265pt" height="160pt"><defs><clipPath id="_clipPath_sUgN0350zirE2Ki63sxBmxc2gHzs8uqZ"><rect width="265" height="160"/></clipPath></defs><g clip-path="url(#_clipPath_sUgN0350zirE2Ki63sxBmxc2gHzs8uqZ)"><g><g><g><path d=" M 22.712 28.98 C 23.993 29.42 25.112 29.7 26.712 30.19 C 26.112 38.04 18.693 34.92 22.712 28.98 Z  M 29.343 21.78 C 29.253 19.42 28.843 16.33 25.532 16.78 C 23.983 17.19 22.843 18.89 22.302 21.78 C 22.048 23.522 22.126 25.297 22.532 27.01 C 22.843 28.01 22.743 27.91 23.083 28.09 C 24.403 28.39 25.712 28.72 27.083 29.09 C 28.413 28.18 29.522 23.09 29.343 21.78 Z  M 19.142 21.6 C 19.545 19.883 19.62 18.105 19.363 16.36 C 18.823 13.42 17.682 11.72 16.132 11.36 C 12.833 10.87 12.412 13.96 12.332 16.36 C 12.142 17.68 13.262 22.76 14.613 23.72 C 15.953 23.38 17.262 23.05 18.613 22.72 C 18.932 22.49 18.813 22.55 19.142 21.6 Z  M 14.932 24.7 C 15.563 32.54 22.933 29.43 18.932 23.48 C 17.682 23.92 16.552 24.2 14.932 24.7 Z " fill="rgb(29,113,184)"/><mask id="_mask_mZthQ8Hm4rfrCZxdyAz5J2s2hU6ExImS" x="-200%" y="-200%" width="400%" height="400%"><rect x="-200%" y="-200%" width="400%" height="400%" style="fill:white;"/><line x1="37.173" y1="13.22" x2="37.173" y2="22.8" fill="black" stroke="none"/></mask><line x1="37.173" y1="13.22" x2="37.173" y2="22.8" mask="url(#_mask_mZthQ8Hm4rfrCZxdyAz5J2s2hU6ExImS)" vector-effect="non-scaling-stroke" stroke-width="0.5" stroke="rgb(255,255,255)" stroke-linejoin="miter" stroke-linecap="butt" stroke-miterlimit="10"/><mask id="_mask_1aGPpvITJcM5f4xJwPj8gSy5PjEjXnoy" x="-200%" y="-200%" width="400%" height="400%"><rect x="-200%" y="-200%" width="400%" height="400%" style="fill:white;"/><line x1="16.163" y1="3" x2="25.743" y2="3" fill="black" stroke="none"/></mask><line x1="16.163" y1="3" x2="25.743" y2="3" mask="url(#_mask_1aGPpvITJcM5f4xJwPj8gSy5PjEjXnoy)" vector-effect="non-scaling-stroke" stroke-width="0.5" stroke="rgb(255,255,255)" stroke-linejoin="miter" stroke-linecap="butt" stroke-miterlimit="10"/><mask id="_mask_LU6Ab8yvxkyWqtkRNj2rFF0RNEW1EHKM" x="-200%" y="-200%" width="400%" height="400%"><rect x="-200%" y="-200%" width="400%" height="400%" style="fill:white;"/><line x1="4.942" y1="13.22" x2="4.942" y2="22.8" fill="black" stroke="none"/></mask><line x1="4.942" y1="13.22" x2="4.942" y2="22.8" mask="url(#_mask_LU6Ab8yvxkyWqtkRNj2rFF0RNEW1EHKM)" vector-effect="non-scaling-stroke" stroke-width="0.5" stroke="rgb(255,255,255)" stroke-linejoin="miter" stroke-linecap="butt" stroke-miterlimit="10"/></g></g><g clip-path="url(#_clipPath_qVV3wlEGbrJ6Jm7AsczJlHkZj0GWX9D9)"><text transform="matrix(1,0,0,1,96.187,23.569)" style="font-family:'Open Sans';font-weight:400;font-size:14px;font-style:normal;fill:#000000;stroke:none;">Sputnik V &#x3E; 1ra. dosis</text></g><defs><clipPath id="_clipPath_qVV3wlEGbrJ6Jm7AsczJlHkZj0GWX9D9"><rect x="0" y="0" width="175.87" height="20.67" transform="matrix(1,0,0,1,96.187,8.605)"/></clipPath></defs><g><g><circle vector-effect="non-scaling-stroke" cx="52.19180863945414" cy="7.174153539035828" r="4" fill="rgb(0,0,0)"/><path d=" M 55.282 13.174 L 54.192 13.174 C 53.926 13.173 53.671 13.277 53.482 13.464 L 52.192 14.754 L 50.902 13.464 C 50.71 13.281 50.457 13.178 50.192 13.174 L 49.092 13.174 C 48.061 13.169 47.195 13.948 47.092 14.974 L 46.192 24.074 C 46.166 24.356 46.26 24.636 46.452 24.844 C 46.641 25.054 46.91 25.173 47.192 25.174 L 48.282 25.174 L 49.102 33.374 C 49.205 34.4 50.071 35.179 51.102 35.174 L 53.282 35.174 C 54.313 35.179 55.179 34.4 55.282 33.374 L 56.092 25.174 L 57.192 25.174 C 57.474 25.173 57.743 25.054 57.932 24.844 C 58.124 24.636 58.218 24.356 58.192 24.074 L 57.282 14.974 C 57.179 13.948 56.313 13.169 55.282 13.174 Z " fill="rgb(0,0,0)"/><circle vector-effect="non-scaling-stroke" cx="64.19180863945414" cy="7.174153539035828" r="4" fill="rgb(0,0,0)"/><path d=" M 68.582 23.174 L 69.192 23.174 C 69.481 23.177 69.757 23.054 69.949 22.837 C 70.141 22.62 70.229 22.331 70.192 22.044 L 69.292 14.954 C 69.179 13.936 68.316 13.168 67.292 13.174 L 61.092 13.174 C 60.071 13.167 59.209 13.93 59.092 14.944 L 58.192 22.044 C 58.154 22.331 58.243 22.62 58.434 22.837 C 58.626 23.054 58.902 23.177 59.192 23.174 L 59.802 23.174 L 58.242 27.854 C 58.141 28.159 58.193 28.494 58.382 28.754 C 58.568 29.016 58.87 29.173 59.192 29.174 L 60.342 29.174 L 61.062 33.504 C 61.225 34.478 62.074 35.188 63.062 35.174 L 65.362 35.174 C 66.349 35.188 67.199 34.478 67.362 33.504 L 68.042 29.174 L 69.192 29.174 C 69.514 29.173 69.815 29.016 70.002 28.754 C 70.19 28.494 70.242 28.159 70.142 27.854 L 68.582 23.174 Z " fill="rgb(0,0,0)"/><g clip-path="url(#_clipPath_VLj9smHogHn7bsy5yUaYe0objKaczE5d)"><text transform="matrix(1,0,0,1,69.152,13.394)" style="font-family:'Open Sans';font-weight:400;font-size:10px;font-style:normal;font-variant-ligatures:none;fill:[Object GRGBColor];stroke:none;">18+</text></g><defs><clipPath id="_clipPath_VLj9smHogHn7bsy5yUaYe0objKaczE5d"><rect x="0" y="0" width="20" height="13.618" transform="matrix(1,0,0,1,69.152,2.706)"/></clipPath></defs></g></g></g><g><g><g><path d=" M 22.712 69.98 C 23.993 70.42 25.112 70.7 26.712 71.19 C 26.112 79.04 18.693 75.92 22.712 69.98 Z  M 29.343 62.78 C 29.253 60.42 28.843 57.33 25.532 57.78 C 23.983 58.19 22.843 59.89 22.302 62.78 C 22.048 64.522 22.126 66.297 22.532 68.01 C 22.843 69.01 22.743 68.91 23.083 69.09 C 24.403 69.39 25.712 69.72 27.083 70.09 C 28.413 69.18 29.522 64.09 29.343 62.78 Z  M 19.142 62.6 C 19.545 60.883 19.62 59.105 19.363 57.36 C 18.823 54.42 17.682 52.72 16.132 52.36 C 12.833 51.87 12.412 54.96 12.332 57.36 C 12.142 58.68 13.262 63.76 14.613 64.72 C 15.953 64.38 17.262 64.05 18.613 63.72 C 18.932 63.49 18.813 63.55 19.142 62.6 Z  M 14.932 65.7 C 15.563 73.54 22.933 70.43 18.932 64.48 C 17.682 64.92 16.552 65.2 14.932 65.7 Z " fill="rgb(29,113,184)"/><mask id="_mask_jy4vmSAsJjQN8JXaxi2bZaLpZwKgPAsb" x="-200%" y="-200%" width="400%" height="400%"><rect x="-200%" y="-200%" width="400%" height="400%" style="fill:white;"/><line x1="37.173" y1="54.22" x2="37.173" y2="63.8" fill="black" stroke="none"/></mask><line x1="37.173" y1="54.22" x2="37.173" y2="63.8" mask="url(#_mask_jy4vmSAsJjQN8JXaxi2bZaLpZwKgPAsb)" vector-effect="non-scaling-stroke" stroke-width="0.5" stroke="rgb(255,255,255)" stroke-linejoin="miter" stroke-linecap="butt" stroke-miterlimit="10"/><mask id="_mask_hmJcF7vRmL7zWcMiedhAliL6R0hYmd8Y" x="-200%" y="-200%" width="400%" height="400%"><rect x="-200%" y="-200%" width="400%" height="400%" style="fill:white;"/><line x1="16.163" y1="44" x2="25.743" y2="44" fill="black" stroke="none"/></mask><line x1="16.163" y1="44" x2="25.743" y2="44" mask="url(#_mask_hmJcF7vRmL7zWcMiedhAliL6R0hYmd8Y)" vector-effect="non-scaling-stroke" stroke-width="0.5" stroke="rgb(255,255,255)" stroke-linejoin="miter" stroke-linecap="butt" stroke-miterlimit="10"/><mask id="_mask_carTnz5Jz5ljMWIhLer9DvrOIb4W8jsq" x="-200%" y="-200%" width="400%" height="400%"><rect x="-200%" y="-200%" width="400%" height="400%" style="fill:white;"/><line x1="4.942" y1="54.22" x2="4.942" y2="63.8" fill="black" stroke="none"/></mask><line x1="4.942" y1="54.22" x2="4.942" y2="63.8" mask="url(#_mask_carTnz5Jz5ljMWIhLer9DvrOIb4W8jsq)" vector-effect="non-scaling-stroke" stroke-width="0.5" stroke="rgb(255,255,255)" stroke-linejoin="miter" stroke-linecap="butt" stroke-miterlimit="10"/></g></g><g clip-path="url(#_clipPath_ucFkxlj7SAFnBwXB9eXeezYmcGBRW2Gc)"><text transform="matrix(1,0,0,1,96.187,64.629)" style="font-family:'Open Sans';font-weight:400;font-size:14px;font-style:normal;fill:#000000;stroke:none;">Sputnik V &#x3E; 2da. dosis</text></g><defs><clipPath id="_clipPath_ucFkxlj7SAFnBwXB9eXeezYmcGBRW2Gc"><rect x="0" y="0" width="175.87" height="20.67" transform="matrix(1,0,0,1,96.187,49.665)"/></clipPath></defs><g><g><circle vector-effect="non-scaling-stroke" cx="51.907500002291286" cy="47.999809896683" r="4" fill="rgb(0,0,0)"/><path d=" M 54.998 54 L 53.908 54 C 53.642 53.998 53.386 54.103 53.197 54.29 L 51.908 55.58 L 50.618 54.29 C 50.426 54.107 50.172 54.003 49.908 54 L 48.808 54 C 47.777 53.995 46.911 54.774 46.807 55.8 L 45.908 64.9 C 45.881 65.182 45.976 65.462 46.167 65.67 C 46.357 65.879 46.625 65.999 46.908 66 L 47.997 66 L 48.818 74.2 C 48.921 75.226 49.787 76.005 50.817 76 L 52.998 76 C 54.028 76.005 54.894 75.226 54.998 74.2 L 55.807 66 L 56.908 66 C 57.19 65.999 57.458 65.879 57.647 65.67 C 57.839 65.462 57.934 65.182 57.908 64.9 L 56.998 55.8 C 56.894 54.774 56.028 53.995 54.998 54 Z " fill="rgb(0,0,0)"/><circle vector-effect="non-scaling-stroke" cx="65.90750000229129" cy="47.999809896683" r="4" fill="rgb(0,0,0)"/><path d=" M 70.287 64 L 70.908 64 C 71.197 64.002 71.473 63.879 71.665 63.663 C 71.857 63.446 71.945 63.157 71.908 62.87 L 71.008 55.78 C 70.895 54.762 70.032 53.994 69.008 54 L 62.807 54 C 61.787 53.993 60.925 54.756 60.807 55.77 L 59.908 62.87 C 59.87 63.157 59.958 63.446 60.15 63.663 C 60.342 63.879 60.618 64.002 60.908 64 L 61.517 64 L 59.958 68.68 C 59.857 68.985 59.909 69.32 60.097 69.58 C 60.284 69.842 60.586 69.998 60.908 70 L 62.057 70 L 62.778 74.33 C 62.94 75.304 63.79 76.013 64.778 76 L 67.078 76 C 68.065 76.013 68.915 75.304 69.078 74.33 L 69.758 70 L 70.908 70 C 71.229 69.998 71.531 69.842 71.717 69.58 C 71.906 69.32 71.958 68.985 71.858 68.68 L 70.287 64 Z " fill="rgb(0,0,0)"/><path d=" M 55.187 74.49 L 62.578 74.49 C 62.908 74.449 63.156 74.168 63.156 73.835 C 63.156 73.502 62.908 73.221 62.578 73.18 L 60.718 73.18 L 60.718 69.85 L 62.567 69.85 C 62.898 69.809 63.146 69.528 63.146 69.195 C 63.146 68.862 62.898 68.581 62.567 68.54 L 61.637 68.54 L 61.637 55.33 L 60.708 55.33 L 59.777 52.56 L 59.508 52.56 L 59.508 46.09 C 59.467 45.759 59.186 45.511 58.852 45.511 C 58.519 45.511 58.238 45.759 58.197 46.09 L 58.197 52.55 L 57.908 52.55 L 56.998 55.32 L 56.067 55.32 L 56.067 68.52 L 55.168 68.52 C 54.809 68.52 54.517 68.811 54.517 69.17 C 54.517 69.529 54.809 69.82 55.168 69.82 L 57.017 69.82 L 57.017 73.13 L 55.178 73.13 C 55.004 73.13 54.838 73.2 54.718 73.324 C 54.597 73.449 54.532 73.617 54.538 73.79 C 54.524 73.971 54.586 74.149 54.709 74.282 C 54.833 74.415 55.006 74.49 55.187 74.49 Z  M 59.067 58.14 C 59.077 57.967 59.148 57.804 59.267 57.68 C 59.391 57.559 59.555 57.487 59.727 57.48 L 60.968 57.48 L 60.968 58.77 L 59.727 58.77 C 59.367 58.77 59.073 58.48 59.067 58.12 L 59.067 58.14 Z  M 59.067 60.82 C 59.067 60.461 59.359 60.17 59.718 60.17 L 60.958 60.17 L 60.958 61.46 L 59.737 61.46 C 59.564 61.465 59.396 61.4 59.272 61.28 C 59.148 61.159 59.077 60.993 59.078 60.82 L 59.067 60.82 Z  M 59.067 63.5 C 59.067 63.141 59.359 62.85 59.718 62.85 L 60.958 62.85 L 60.958 64.14 L 59.748 64.14 C 59.387 64.14 59.093 63.85 59.088 63.49 L 59.067 63.5 Z  M 59.067 66.18 C 59.062 65.83 59.338 65.541 59.687 65.53 L 60.947 65.53 L 60.947 66.82 L 59.758 66.82 C 59.402 66.82 59.113 66.535 59.107 66.18 L 59.067 66.18 Z " fill="rgb(0,0,0)" vector-effect="non-scaling-stroke" stroke-width="2" stroke="rgb(255,255,255)" stroke-linejoin="miter" stroke-linecap="butt" stroke-miterlimit="10"/><path d=" M 55.187 74.49 L 62.578 74.49 C 62.908 74.449 63.156 74.168 63.156 73.835 C 63.156 73.502 62.908 73.221 62.578 73.18 L 60.718 73.18 L 60.718 69.85 L 62.567 69.85 C 62.898 69.809 63.146 69.528 63.146 69.195 C 63.146 68.862 62.898 68.581 62.567 68.54 L 61.637 68.54 L 61.637 55.33 L 60.708 55.33 L 59.777 52.56 L 59.508 52.56 L 59.508 46.09 C 59.467 45.759 59.186 45.511 58.852 45.511 C 58.519 45.511 58.238 45.759 58.197 46.09 L 58.197 52.55 L 57.908 52.55 L 56.998 55.32 L 56.067 55.32 L 56.067 68.52 L 55.168 68.52 C 54.809 68.52 54.517 68.811 54.517 69.17 C 54.517 69.529 54.809 69.82 55.168 69.82 L 57.017 69.82 L 57.017 73.13 L 55.178 73.13 C 55.004 73.13 54.838 73.2 54.718 73.324 C 54.597 73.449 54.532 73.617 54.538 73.79 C 54.524 73.971 54.586 74.149 54.709 74.282 C 54.833 74.415 55.006 74.49 55.187 74.49 Z  M 59.067 58.14 C 59.077 57.967 59.148 57.804 59.267 57.68 C 59.391 57.559 59.555 57.487 59.727 57.48 L 60.968 57.48 L 60.968 58.77 L 59.727 58.77 C 59.367 58.77 59.073 58.48 59.067 58.12 L 59.067 58.14 Z  M 59.067 60.82 C 59.067 60.461 59.359 60.17 59.718 60.17 L 60.958 60.17 L 60.958 61.46 L 59.737 61.46 C 59.564 61.465 59.396 61.4 59.272 61.28 C 59.148 61.159 59.077 60.993 59.078 60.82 L 59.067 60.82 Z  M 59.067 63.5 C 59.067 63.141 59.359 62.85 59.718 62.85 L 60.958 62.85 L 60.958 64.14 L 59.748 64.14 C 59.387 64.14 59.093 63.85 59.088 63.49 L 59.067 63.5 Z  M 59.067 66.18 C 59.062 65.83 59.338 65.541 59.687 65.53 L 60.947 65.53 L 60.947 66.82 L 59.758 66.82 C 59.402 66.82 59.113 66.535 59.107 66.18 L 59.067 66.18 Z " fill="rgb(0,0,0)"/><g clip-path="url(#_clipPath_t6OIIOoYgU3oBLQwOVII7REP40sgtoYB)"><text transform="matrix(1,0,0,1,48.908,62.84)" style="font-family:'Open Sans';font-weight:400;font-size:10px;font-style:normal;font-variant-ligatures:none;fill:[Object GRGBColor];stroke:none;">1</text></g><defs><clipPath id="_clipPath_t6OIIOoYgU3oBLQwOVII7REP40sgtoYB"><rect x="0" y="0" width="8" height="13.618" transform="matrix(1,0,0,1,48.908,52.151)"/></clipPath></defs><g clip-path="url(#_clipPath_4dbuYpVpARTs97lU1EFItiUWAyJIv0nC)"><text transform="matrix(1,0,0,1,63.618,63.5)" style="font-family:'Open Sans';font-weight:400;font-size:10px;font-style:normal;font-variant-ligatures:none;fill:[Object GRGBColor];stroke:none;">D</text></g><defs><clipPath id="_clipPath_4dbuYpVpARTs97lU1EFItiUWAyJIv0nC"><rect x="0" y="0" width="10" height="13.618" transform="matrix(1,0,0,1,63.618,52.811)"/></clipPath></defs><mask id="_mask_iF62hSuwaozeQNhe9vv8y68sQxUQLlfk" x="-200%" y="-200%" width="400%" height="400%"><rect x="-200%" y="-200%" width="400%" height="400%" style="fill:white;"/><line x1="85.908" y1="57.48" x2="85.908" y2="67.06" fill="black" stroke="none"/></mask><line x1="85.908" y1="57.48" x2="85.908" y2="67.06" mask="url(#_mask_iF62hSuwaozeQNhe9vv8y68sQxUQLlfk)" vector-effect="non-scaling-stroke" stroke-width="0.5" stroke="rgb(255,255,255)" stroke-linejoin="miter" stroke-linecap="butt" stroke-miterlimit="10"/></g></g></g><g><g><g><path d=" M 22.712 148.98 C 23.993 149.42 25.112 149.7 26.712 150.19 C 26.112 158.04 18.693 154.92 22.712 148.98 Z  M 29.343 141.78 C 29.253 139.42 28.843 136.33 25.532 136.78 C 23.983 137.19 22.843 138.89 22.302 141.78 C 22.048 143.522 22.126 145.297 22.532 147.01 C 22.843 148.01 22.743 147.91 23.083 148.09 C 24.403 148.39 25.712 148.72 27.083 149.09 C 28.413 148.18 29.522 143.09 29.343 141.78 Z  M 19.142 141.6 C 19.545 139.883 19.62 138.105 19.363 136.36 C 18.823 133.42 17.682 131.72 16.132 131.36 C 12.833 130.87 12.412 133.96 12.332 136.36 C 12.142 137.68 13.262 142.76 14.613 143.72 C 15.953 143.38 17.262 143.05 18.613 142.72 C 18.932 142.49 18.813 142.55 19.142 141.6 Z  M 14.932 144.7 C 15.563 152.54 22.933 149.43 18.932 143.48 C 17.682 143.92 16.552 144.2 14.932 144.7 Z " fill="rgb(29,113,184)"/><mask id="_mask_9QIFq93d8yYYCcMFbLOXxnScyS1BCEod" x="-200%" y="-200%" width="400%" height="400%"><rect x="-200%" y="-200%" width="400%" height="400%" style="fill:white;"/><line x1="37.173" y1="133.22" x2="37.173" y2="142.8" fill="black" stroke="none"/></mask><line x1="37.173" y1="133.22" x2="37.173" y2="142.8" mask="url(#_mask_9QIFq93d8yYYCcMFbLOXxnScyS1BCEod)" vector-effect="non-scaling-stroke" stroke-width="0.5" stroke="rgb(255,255,255)" stroke-linejoin="miter" stroke-linecap="butt" stroke-miterlimit="10"/><mask id="_mask_cjlaCpGWimDAXJ2TmobFCab7Ztbaxkum" x="-200%" y="-200%" width="400%" height="400%"><rect x="-200%" y="-200%" width="400%" height="400%" style="fill:white;"/><line x1="16.163" y1="123" x2="25.743" y2="123" fill="black" stroke="none"/></mask><line x1="16.163" y1="123" x2="25.743" y2="123" mask="url(#_mask_cjlaCpGWimDAXJ2TmobFCab7Ztbaxkum)" vector-effect="non-scaling-stroke" stroke-width="0.5" stroke="rgb(255,255,255)" stroke-linejoin="miter" stroke-linecap="butt" stroke-miterlimit="10"/><mask id="_mask_nL6w380xHWDNUT24DKyoq0YBEskb2s3l" x="-200%" y="-200%" width="400%" height="400%"><rect x="-200%" y="-200%" width="400%" height="400%" style="fill:white;"/><line x1="4.942" y1="133.22" x2="4.942" y2="142.8" fill="black" stroke="none"/></mask><line x1="4.942" y1="133.22" x2="4.942" y2="142.8" mask="url(#_mask_nL6w380xHWDNUT24DKyoq0YBEskb2s3l)" vector-effect="non-scaling-stroke" stroke-width="0.5" stroke="rgb(255,255,255)" stroke-linejoin="miter" stroke-linecap="butt" stroke-miterlimit="10"/></g></g><g><g><path d=" M 22.712 107.98 C 23.993 108.42 25.112 108.7 26.712 109.19 C 26.112 117.04 18.693 113.92 22.712 107.98 Z  M 29.343 100.78 C 29.253 98.42 28.843 95.33 25.532 95.78 C 23.983 96.19 22.843 97.89 22.302 100.78 C 22.048 102.522 22.126 104.297 22.532 106.01 C 22.843 107.01 22.743 106.91 23.083 107.09 C 24.403 107.39 25.712 107.72 27.083 108.09 C 28.413 107.18 29.522 102.09 29.343 100.78 Z  M 19.142 100.6 C 19.545 98.883 19.62 97.105 19.363 95.36 C 18.823 92.42 17.682 90.72 16.132 90.36 C 12.833 89.87 12.412 92.96 12.332 95.36 C 12.142 96.68 13.262 101.76 14.613 102.72 C 15.953 102.38 17.262 102.05 18.613 101.72 C 18.932 101.49 18.813 101.55 19.142 100.6 Z  M 14.932 103.7 C 15.563 111.54 22.933 108.43 18.932 102.48 C 17.682 102.92 16.552 103.2 14.932 103.7 Z " fill="rgb(29,113,184)"/><mask id="_mask_XQGEgFngRHBkNge37RGYstdtWOBrZYg1" x="-200%" y="-200%" width="400%" height="400%"><rect x="-200%" y="-200%" width="400%" height="400%" style="fill:white;"/><line x1="37.173" y1="92.22" x2="37.173" y2="101.8" fill="black" stroke="none"/></mask><line x1="37.173" y1="92.22" x2="37.173" y2="101.8" mask="url(#_mask_XQGEgFngRHBkNge37RGYstdtWOBrZYg1)" vector-effect="non-scaling-stroke" stroke-width="0.5" stroke="rgb(255,255,255)" stroke-linejoin="miter" stroke-linecap="butt" stroke-miterlimit="10"/><mask id="_mask_VsitvxUetqas2UONMyj5hWxVbKTKD23Z" x="-200%" y="-200%" width="400%" height="400%"><rect x="-200%" y="-200%" width="400%" height="400%" style="fill:white;"/><line x1="16.163" y1="82" x2="25.743" y2="82" fill="black" stroke="none"/></mask><line x1="16.163" y1="82" x2="25.743" y2="82" mask="url(#_mask_VsitvxUetqas2UONMyj5hWxVbKTKD23Z)" vector-effect="non-scaling-stroke" stroke-width="0.5" stroke="rgb(255,255,255)" stroke-linejoin="miter" stroke-linecap="butt" stroke-miterlimit="10"/><mask id="_mask_yeZImsIXBZ4gvsZ6kFMfcAZfY74wxe8w" x="-200%" y="-200%" width="400%" height="400%"><rect x="-200%" y="-200%" width="400%" height="400%" style="fill:white;"/><line x1="4.942" y1="92.22" x2="4.942" y2="101.8" fill="black" stroke="none"/></mask><line x1="4.942" y1="92.22" x2="4.942" y2="101.8" mask="url(#_mask_yeZImsIXBZ4gvsZ6kFMfcAZfY74wxe8w)" vector-effect="non-scaling-stroke" stroke-width="0.5" stroke="rgb(255,255,255)" stroke-linejoin="miter" stroke-linecap="butt" stroke-miterlimit="10"/></g></g><g clip-path="url(#_clipPath_qzGGZLD3ytMvSan3oTAvDgxfZ5Lk41x5)"><text transform="matrix(1,0,0,1,96.187,143.629)" style="font-family:'Open Sans';font-weight:400;font-size:14px;font-style:normal;fill:#000000;stroke:none;">Moderna &#x3E; 2da. dosis</text></g><defs><clipPath id="_clipPath_qzGGZLD3ytMvSan3oTAvDgxfZ5Lk41x5"><rect x="0" y="0" width="175.87" height="20.67" transform="matrix(1,0,0,1,96.187,128.665)"/></clipPath></defs><g><g><circle vector-effect="non-scaling-stroke" cx="51.907500002291286" cy="126.99980989668299" r="4" fill="rgb(0,0,0)"/><path d=" M 54.998 133 L 53.908 133 C 53.642 132.998 53.386 133.103 53.197 133.29 L 51.908 134.58 L 50.618 133.29 C 50.426 133.107 50.172 133.003 49.908 133 L 48.808 133 C 47.777 132.995 46.911 133.774 46.807 134.8 L 45.908 143.9 C 45.881 144.182 45.976 144.462 46.167 144.67 C 46.357 144.879 46.625 144.999 46.908 145 L 47.997 145 L 48.818 153.2 C 48.921 154.226 49.787 155.005 50.817 155 L 52.998 155 C 54.028 155.005 54.894 154.226 54.998 153.2 L 55.807 145 L 56.908 145 C 57.19 144.999 57.458 144.879 57.647 144.67 C 57.839 144.462 57.934 144.182 57.908 143.9 L 56.998 134.8 C 56.894 133.774 56.028 132.995 54.998 133 Z " fill="rgb(0,0,0)"/><circle vector-effect="non-scaling-stroke" cx="65.90750000229129" cy="126.99980989668299" r="4" fill="rgb(0,0,0)"/><path d=" M 70.287 143 L 70.908 143 C 71.197 143.002 71.473 142.879 71.665 142.663 C 71.857 142.446 71.945 142.157 71.908 141.87 L 71.008 134.78 C 70.895 133.762 70.032 132.994 69.008 133 L 62.807 133 C 61.787 132.993 60.925 133.756 60.807 134.77 L 59.908 141.87 C 59.87 142.157 59.958 142.446 60.15 142.663 C 60.342 142.879 60.618 143.002 60.908 143 L 61.517 143 L 59.958 147.68 C 59.857 147.985 59.909 148.32 60.097 148.58 C 60.284 148.842 60.586 148.998 60.908 149 L 62.057 149 L 62.778 153.33 C 62.94 154.304 63.79 155.013 64.778 155 L 67.078 155 C 68.065 155.013 68.915 154.304 69.078 153.33 L 69.758 149 L 70.908 149 C 71.229 148.998 71.531 148.842 71.717 148.58 C 71.906 148.32 71.958 147.985 71.858 147.68 L 70.287 143 Z " fill="rgb(0,0,0)"/><path d=" M 55.187 153.49 L 62.578 153.49 C 62.908 153.449 63.156 153.168 63.156 152.835 C 63.156 152.502 62.908 152.221 62.578 152.18 L 60.718 152.18 L 60.718 148.85 L 62.567 148.85 C 62.898 148.809 63.146 148.528 63.146 148.195 C 63.146 147.862 62.898 147.581 62.567 147.54 L 61.637 147.54 L 61.637 134.33 L 60.708 134.33 L 59.777 131.56 L 59.508 131.56 L 59.508 125.09 C 59.467 124.759 59.186 124.511 58.852 124.511 C 58.519 124.511 58.238 124.759 58.197 125.09 L 58.197 131.55 L 57.908 131.55 L 56.998 134.32 L 56.067 134.32 L 56.067 147.52 L 55.168 147.52 C 54.809 147.52 54.517 147.811 54.517 148.17 C 54.517 148.529 54.809 148.82 55.168 148.82 L 57.017 148.82 L 57.017 152.13 L 55.178 152.13 C 55.004 152.13 54.838 152.2 54.718 152.324 C 54.597 152.449 54.532 152.617 54.538 152.79 C 54.524 152.971 54.586 153.149 54.709 153.282 C 54.833 153.415 55.006 153.49 55.187 153.49 Z  M 59.067 137.14 C 59.077 136.967 59.148 136.804 59.267 136.68 C 59.391 136.559 59.555 136.487 59.727 136.48 L 60.968 136.48 L 60.968 137.77 L 59.727 137.77 C 59.367 137.77 59.073 137.48 59.067 137.12 L 59.067 137.14 Z  M 59.067 139.82 C 59.067 139.461 59.359 139.17 59.718 139.17 L 60.958 139.17 L 60.958 140.46 L 59.737 140.46 C 59.564 140.465 59.396 140.4 59.272 140.28 C 59.148 140.159 59.077 139.993 59.078 139.82 L 59.067 139.82 Z  M 59.067 142.5 C 59.067 142.141 59.359 141.85 59.718 141.85 L 60.958 141.85 L 60.958 143.14 L 59.748 143.14 C 59.387 143.14 59.093 142.85 59.088 142.49 L 59.067 142.5 Z  M 59.067 145.18 C 59.062 144.83 59.338 144.541 59.687 144.53 L 60.947 144.53 L 60.947 145.82 L 59.758 145.82 C 59.402 145.82 59.113 145.535 59.107 145.18 L 59.067 145.18 Z " fill="rgb(0,0,0)" vector-effect="non-scaling-stroke" stroke-width="2" stroke="rgb(255,255,255)" stroke-linejoin="miter" stroke-linecap="butt" stroke-miterlimit="10"/><path d=" M 55.187 153.49 L 62.578 153.49 C 62.908 153.449 63.156 153.168 63.156 152.835 C 63.156 152.502 62.908 152.221 62.578 152.18 L 60.718 152.18 L 60.718 148.85 L 62.567 148.85 C 62.898 148.809 63.146 148.528 63.146 148.195 C 63.146 147.862 62.898 147.581 62.567 147.54 L 61.637 147.54 L 61.637 134.33 L 60.708 134.33 L 59.777 131.56 L 59.508 131.56 L 59.508 125.09 C 59.467 124.759 59.186 124.511 58.852 124.511 C 58.519 124.511 58.238 124.759 58.197 125.09 L 58.197 131.55 L 57.908 131.55 L 56.998 134.32 L 56.067 134.32 L 56.067 147.52 L 55.168 147.52 C 54.809 147.52 54.517 147.811 54.517 148.17 C 54.517 148.529 54.809 148.82 55.168 148.82 L 57.017 148.82 L 57.017 152.13 L 55.178 152.13 C 55.004 152.13 54.838 152.2 54.718 152.324 C 54.597 152.449 54.532 152.617 54.538 152.79 C 54.524 152.971 54.586 153.149 54.709 153.282 C 54.833 153.415 55.006 153.49 55.187 153.49 Z  M 59.067 137.14 C 59.077 136.967 59.148 136.804 59.267 136.68 C 59.391 136.559 59.555 136.487 59.727 136.48 L 60.968 136.48 L 60.968 137.77 L 59.727 137.77 C 59.367 137.77 59.073 137.48 59.067 137.12 L 59.067 137.14 Z  M 59.067 139.82 C 59.067 139.461 59.359 139.17 59.718 139.17 L 60.958 139.17 L 60.958 140.46 L 59.737 140.46 C 59.564 140.465 59.396 140.4 59.272 140.28 C 59.148 140.159 59.077 139.993 59.078 139.82 L 59.067 139.82 Z  M 59.067 142.5 C 59.067 142.141 59.359 141.85 59.718 141.85 L 60.958 141.85 L 60.958 143.14 L 59.748 143.14 C 59.387 143.14 59.093 142.85 59.088 142.49 L 59.067 142.5 Z  M 59.067 145.18 C 59.062 144.83 59.338 144.541 59.687 144.53 L 60.947 144.53 L 60.947 145.82 L 59.758 145.82 C 59.402 145.82 59.113 145.535 59.107 145.18 L 59.067 145.18 Z " fill="rgb(0,0,0)"/><g clip-path="url(#_clipPath_E2UcZl8EeUXVJCR8rZ1VvYIUTQssQIxb)"><text transform="matrix(1,0,0,1,48.908,141.84)" style="font-family:'Open Sans';font-weight:400;font-size:10px;font-style:normal;font-variant-ligatures:none;fill:[Object GRGBColor];stroke:none;">1</text></g><defs><clipPath id="_clipPath_E2UcZl8EeUXVJCR8rZ1VvYIUTQssQIxb"><rect x="0" y="0" width="8" height="13.618" transform="matrix(1,0,0,1,48.908,131.151)"/></clipPath></defs><g clip-path="url(#_clipPath_r1PwSt19BbAb9Lz5l2MJ0QIbMIHlVo1o)"><text transform="matrix(1,0,0,1,63.618,142.5)" style="font-family:'Open Sans';font-weight:400;font-size:10px;font-style:normal;font-variant-ligatures:none;fill:[Object GRGBColor];stroke:none;">D</text></g><defs><clipPath id="_clipPath_r1PwSt19BbAb9Lz5l2MJ0QIbMIHlVo1o"><rect x="0" y="0" width="10" height="13.618" transform="matrix(1,0,0,1,63.618,131.811)"/></clipPath></defs><mask id="_mask_WRCmLoCRd2iMdbW8egxrMQbOAXVkErBt" x="-200%" y="-200%" width="400%" height="400%"><rect x="-200%" y="-200%" width="400%" height="400%" style="fill:white;"/><line x1="85.908" y1="136.48" x2="85.908" y2="146.06" fill="black" stroke="none"/></mask><line x1="85.908" y1="136.48" x2="85.908" y2="146.06" mask="url(#_mask_WRCmLoCRd2iMdbW8egxrMQbOAXVkErBt)" vector-effect="non-scaling-stroke" stroke-width="0.5" stroke="rgb(255,255,255)" stroke-linejoin="miter" stroke-linecap="butt" stroke-miterlimit="10"/></g></g></g><g><g clip-path="url(#_clipPath_mUlCi3Xr0L8qOihAkdYW4MrPcUpntllO)"><text transform="matrix(1,0,0,1,96.187,102.629)" style="font-family:'Open Sans';font-weight:400;font-size:14px;font-style:normal;fill:#000000;stroke:none;">AstraZeneca &#x3E; 2da. dosis</text></g><defs><clipPath id="_clipPath_mUlCi3Xr0L8qOihAkdYW4MrPcUpntllO"><rect x="0" y="0" width="175.87" height="20.67" transform="matrix(1,0,0,1,96.187,87.665)"/></clipPath></defs><g><g><circle vector-effect="non-scaling-stroke" cx="51.907500002291286" cy="85.99980989668299" r="4" fill="rgb(0,0,0)"/><path d=" M 54.998 92 L 53.908 92 C 53.642 91.998 53.386 92.103 53.197 92.29 L 51.908 93.58 L 50.618 92.29 C 50.426 92.107 50.172 92.003 49.908 92 L 48.808 92 C 47.777 91.995 46.911 92.774 46.807 93.8 L 45.908 102.9 C 45.881 103.182 45.976 103.462 46.167 103.67 C 46.357 103.879 46.625 103.999 46.908 104 L 47.997 104 L 48.818 112.2 C 48.921 113.226 49.787 114.005 50.817 114 L 52.998 114 C 54.028 114.005 54.894 113.226 54.998 112.2 L 55.807 104 L 56.908 104 C 57.19 103.999 57.458 103.879 57.647 103.67 C 57.839 103.462 57.934 103.182 57.908 102.9 L 56.998 93.8 C 56.894 92.774 56.028 91.995 54.998 92 Z " fill="rgb(0,0,0)"/><circle vector-effect="non-scaling-stroke" cx="65.90750000229129" cy="85.99980989668299" r="4" fill="rgb(0,0,0)"/><path d=" M 70.287 102 L 70.908 102 C 71.197 102.002 71.473 101.879 71.665 101.663 C 71.857 101.446 71.945 101.157 71.908 100.87 L 71.008 93.78 C 70.895 92.762 70.032 91.994 69.008 92 L 62.807 92 C 61.787 91.993 60.925 92.756 60.807 93.77 L 59.908 100.87 C 59.87 101.157 59.958 101.446 60.15 101.663 C 60.342 101.879 60.618 102.002 60.908 102 L 61.517 102 L 59.958 106.68 C 59.857 106.985 59.909 107.32 60.097 107.58 C 60.284 107.842 60.586 107.998 60.908 108 L 62.057 108 L 62.778 112.33 C 62.94 113.304 63.79 114.013 64.778 114 L 67.078 114 C 68.065 114.013 68.915 113.304 69.078 112.33 L 69.758 108 L 70.908 108 C 71.229 107.998 71.531 107.842 71.717 107.58 C 71.906 107.32 71.958 106.985 71.858 106.68 L 70.287 102 Z " fill="rgb(0,0,0)"/><path d=" M 55.187 112.49 L 62.578 112.49 C 62.908 112.449 63.156 112.168 63.156 111.835 C 63.156 111.502 62.908 111.221 62.578 111.18 L 60.718 111.18 L 60.718 107.85 L 62.567 107.85 C 62.898 107.809 63.146 107.528 63.146 107.195 C 63.146 106.862 62.898 106.581 62.567 106.54 L 61.637 106.54 L 61.637 93.33 L 60.708 93.33 L 59.777 90.56 L 59.508 90.56 L 59.508 84.09 C 59.467 83.759 59.186 83.511 58.852 83.511 C 58.519 83.511 58.238 83.759 58.197 84.09 L 58.197 90.55 L 57.908 90.55 L 56.998 93.32 L 56.067 93.32 L 56.067 106.52 L 55.168 106.52 C 54.809 106.52 54.517 106.811 54.517 107.17 C 54.517 107.529 54.809 107.82 55.168 107.82 L 57.017 107.82 L 57.017 111.13 L 55.178 111.13 C 55.004 111.13 54.838 111.2 54.718 111.324 C 54.597 111.449 54.532 111.617 54.538 111.79 C 54.524 111.971 54.586 112.149 54.709 112.282 C 54.833 112.415 55.006 112.49 55.187 112.49 Z  M 59.067 96.14 C 59.077 95.967 59.148 95.804 59.267 95.68 C 59.391 95.559 59.555 95.487 59.727 95.48 L 60.968 95.48 L 60.968 96.77 L 59.727 96.77 C 59.367 96.77 59.073 96.48 59.067 96.12 L 59.067 96.14 Z  M 59.067 98.82 C 59.067 98.461 59.359 98.17 59.718 98.17 L 60.958 98.17 L 60.958 99.46 L 59.737 99.46 C 59.564 99.465 59.396 99.4 59.272 99.28 C 59.148 99.159 59.077 98.993 59.078 98.82 L 59.067 98.82 Z  M 59.067 101.5 C 59.067 101.141 59.359 100.85 59.718 100.85 L 60.958 100.85 L 60.958 102.14 L 59.748 102.14 C 59.387 102.14 59.093 101.85 59.088 101.49 L 59.067 101.5 Z  M 59.067 104.18 C 59.062 103.83 59.338 103.541 59.687 103.53 L 60.947 103.53 L 60.947 104.82 L 59.758 104.82 C 59.402 104.82 59.113 104.535 59.107 104.18 L 59.067 104.18 Z " fill="rgb(0,0,0)" vector-effect="non-scaling-stroke" stroke-width="2" stroke="rgb(255,255,255)" stroke-linejoin="miter" stroke-linecap="butt" stroke-miterlimit="10"/><path d=" M 55.187 112.49 L 62.578 112.49 C 62.908 112.449 63.156 112.168 63.156 111.835 C 63.156 111.502 62.908 111.221 62.578 111.18 L 60.718 111.18 L 60.718 107.85 L 62.567 107.85 C 62.898 107.809 63.146 107.528 63.146 107.195 C 63.146 106.862 62.898 106.581 62.567 106.54 L 61.637 106.54 L 61.637 93.33 L 60.708 93.33 L 59.777 90.56 L 59.508 90.56 L 59.508 84.09 C 59.467 83.759 59.186 83.511 58.852 83.511 C 58.519 83.511 58.238 83.759 58.197 84.09 L 58.197 90.55 L 57.908 90.55 L 56.998 93.32 L 56.067 93.32 L 56.067 106.52 L 55.168 106.52 C 54.809 106.52 54.517 106.811 54.517 107.17 C 54.517 107.529 54.809 107.82 55.168 107.82 L 57.017 107.82 L 57.017 111.13 L 55.178 111.13 C 55.004 111.13 54.838 111.2 54.718 111.324 C 54.597 111.449 54.532 111.617 54.538 111.79 C 54.524 111.971 54.586 112.149 54.709 112.282 C 54.833 112.415 55.006 112.49 55.187 112.49 Z  M 59.067 96.14 C 59.077 95.967 59.148 95.804 59.267 95.68 C 59.391 95.559 59.555 95.487 59.727 95.48 L 60.968 95.48 L 60.968 96.77 L 59.727 96.77 C 59.367 96.77 59.073 96.48 59.067 96.12 L 59.067 96.14 Z  M 59.067 98.82 C 59.067 98.461 59.359 98.17 59.718 98.17 L 60.958 98.17 L 60.958 99.46 L 59.737 99.46 C 59.564 99.465 59.396 99.4 59.272 99.28 C 59.148 99.159 59.077 98.993 59.078 98.82 L 59.067 98.82 Z  M 59.067 101.5 C 59.067 101.141 59.359 100.85 59.718 100.85 L 60.958 100.85 L 60.958 102.14 L 59.748 102.14 C 59.387 102.14 59.093 101.85 59.088 101.49 L 59.067 101.5 Z  M 59.067 104.18 C 59.062 103.83 59.338 103.541 59.687 103.53 L 60.947 103.53 L 60.947 104.82 L 59.758 104.82 C 59.402 104.82 59.113 104.535 59.107 104.18 L 59.067 104.18 Z " fill="rgb(0,0,0)"/><g clip-path="url(#_clipPath_O90kHAmaHSRubu2Kfj4OvfukfG1gvRXO)"><text transform="matrix(1,0,0,1,48.908,100.84)" style="font-family:'Open Sans';font-weight:400;font-size:10px;font-style:normal;font-variant-ligatures:none;fill:[Object GRGBColor];stroke:none;">1</text></g><defs><clipPath id="_clipPath_O90kHAmaHSRubu2Kfj4OvfukfG1gvRXO"><rect x="0" y="0" width="8" height="13.618" transform="matrix(1,0,0,1,48.908,90.151)"/></clipPath></defs><g clip-path="url(#_clipPath_sBTYQVq9OPnP8GaWePKVaaVteaQWjrW6)"><text transform="matrix(1,0,0,1,63.618,101.5)" style="font-family:'Open Sans';font-weight:400;font-size:10px;font-style:normal;font-variant-ligatures:none;fill:[Object GRGBColor];stroke:none;">D</text></g><defs><clipPath id="_clipPath_sBTYQVq9OPnP8GaWePKVaaVteaQWjrW6"><rect x="0" y="0" width="10" height="13.618" transform="matrix(1,0,0,1,63.618,90.811)"/></clipPath></defs><mask id="_mask_87DH3XtmiMkcmAARLP9TV2ivYkbbQq8l" x="-200%" y="-200%" width="400%" height="400%"><rect x="-200%" y="-200%" width="400%" height="400%" style="fill:white;"/><line x1="85.908" y1="95.48" x2="85.908" y2="105.06" fill="black" stroke="none"/></mask><line x1="85.908" y1="95.48" x2="85.908" y2="105.06" mask="url(#_mask_87DH3XtmiMkcmAARLP9TV2ivYkbbQq8l)" vector-effect="non-scaling-stroke" stroke-width="0.5" stroke="rgb(255,255,255)" stroke-linejoin="miter" stroke-linecap="butt" stroke-miterlimit="10"/></g></g></g></g></svg>