<?xml version="1.0" encoding="UTF-8" standalone="no"?><!-- Generator: Gravit.io --><svg xmlns="http://www.w3.org/2000/svg" xmlns:xlink="http://www.w3.org/1999/xlink" style="isolation:isolate" viewBox="0 0 265 238" width="265pt" height="238pt"><defs><clipPath id="_clipPath_ZaDJRkM4UC7CouS2YjCwZagtcKKSKeFN"><rect width="265" height="238"/></clipPath></defs><g clip-path="url(#_clipPath_ZaDJRkM4UC7CouS2YjCwZagtcKKSKeFN)"><g><g><g><g><path d=" M 19.712 24.98 C 20.993 25.42 22.112 25.7 23.712 26.19 C 23.112 34.04 15.693 30.92 19.712 24.98 Z  M 26.343 17.78 C 26.253 15.42 25.843 12.33 22.532 12.78 C 20.983 13.19 19.843 14.89 19.302 17.78 C 19.048 19.522 19.126 21.297 19.532 23.01 C 19.843 24.01 19.743 23.91 20.083 24.09 C 21.403 24.39 22.712 24.72 24.083 25.09 C 25.413 24.18 26.522 19.09 26.343 17.78 Z  M 16.142 17.6 C 16.545 15.883 16.62 14.105 16.363 12.36 C 15.823 9.42 14.682 7.72 13.132 7.36 C 9.833 6.87 9.412 9.96 9.332 12.36 C 9.142 13.68 10.262 18.76 11.613 19.72 C 12.953 19.38 14.262 19.05 15.613 18.72 C 15.932 18.49 15.813 18.55 16.142 17.6 Z  M 11.932 20.7 C 12.563 28.54 19.933 25.43 15.932 19.48 C 14.682 19.92 13.552 20.2 11.932 20.7 Z " fill="rgb(29,113,184)"/><mask id="_mask_eIZ35Yip899AcqUSHzEedFvvee1RT8VH" x="-200%" y="-200%" width="400%" height="400%"><rect x="-200%" y="-200%" width="400%" height="400%" style="fill:white;"/><line x1="34.173" y1="9.22" x2="34.173" y2="18.8" fill="black" stroke="none"/></mask><line x1="34.173" y1="9.22" x2="34.173" y2="18.8" mask="url(#_mask_eIZ35Yip899AcqUSHzEedFvvee1RT8VH)" vector-effect="non-scaling-stroke" stroke-width="0.5" stroke="rgb(255,255,255)" stroke-linejoin="miter" stroke-linecap="butt" stroke-miterlimit="10"/><mask id="_mask_uiUYAPXhMASFZZ8reA4pOMdLE51ydYDT" x="-200%" y="-200%" width="400%" height="400%"><rect x="-200%" y="-200%" width="400%" height="400%" style="fill:white;"/><line x1="13.163" y1="-1" x2="22.743" y2="-1" fill="black" stroke="none"/></mask><line x1="13.163" y1="-1" x2="22.743" y2="-1" mask="url(#_mask_uiUYAPXhMASFZZ8reA4pOMdLE51ydYDT)" vector-effect="non-scaling-stroke" stroke-width="0.5" stroke="rgb(255,255,255)" stroke-linejoin="miter" stroke-linecap="butt" stroke-miterlimit="10"/><mask id="_mask_uXo2uYTYRNKP4CRZneV4izk9RNZ0YvG8" x="-200%" y="-200%" width="400%" height="400%"><rect x="-200%" y="-200%" width="400%" height="400%" style="fill:white;"/><line x1="1.942" y1="9.22" x2="1.942" y2="18.8" fill="black" stroke="none"/></mask><line x1="1.942" y1="9.22" x2="1.942" y2="18.8" mask="url(#_mask_uXo2uYTYRNKP4CRZneV4izk9RNZ0YvG8)" vector-effect="non-scaling-stroke" stroke-width="0.5" stroke="rgb(255,255,255)" stroke-linejoin="miter" stroke-linecap="butt" stroke-miterlimit="10"/></g></g><g clip-path="url(#_clipPath_0ELF58Y024pQkzH6YMWQE0E54U1BcWHJ)"><text transform="matrix(1,0,0,1,93.187,19.629)" style="font-family:'Open Sans';font-weight:400;font-size:14px;font-style:normal;fill:#000000;stroke:none;">AstraZeneca &#x3E; 1ra. dosis</text></g><defs><clipPath id="_clipPath_0ELF58Y024pQkzH6YMWQE0E54U1BcWHJ"><rect x="0" y="0" width="175.87" height="20.67" transform="matrix(1,0,0,1,93.187,4.665)"/></clipPath></defs></g></g><g><g><g><g><path d=" M 19.712 143.98 C 20.993 144.42 22.112 144.7 23.712 145.19 C 23.112 153.04 15.693 149.92 19.712 143.98 Z  M 26.343 136.78 C 26.253 134.42 25.843 131.33 22.532 131.78 C 20.983 132.19 19.843 133.89 19.302 136.78 C 19.048 138.522 19.126 140.297 19.532 142.01 C 19.843 143.01 19.743 142.91 20.083 143.09 C 21.403 143.39 22.712 143.72 24.083 144.09 C 25.413 143.18 26.522 138.09 26.343 136.78 Z  M 16.142 136.6 C 16.545 134.883 16.62 133.105 16.363 131.36 C 15.823 128.42 14.682 126.72 13.132 126.36 C 9.833 125.87 9.412 128.96 9.332 131.36 C 9.142 132.68 10.262 137.76 11.613 138.72 C 12.953 138.38 14.262 138.05 15.613 137.72 C 15.932 137.49 15.813 137.55 16.142 136.6 Z  M 11.932 139.7 C 12.563 147.54 19.933 144.43 15.932 138.48 C 14.682 138.92 13.552 139.2 11.932 139.7 Z " fill="rgb(29,113,184)"/><mask id="_mask_NWRXVXZz37jGHnZ40ZLLheoBqcFEUsN5" x="-200%" y="-200%" width="400%" height="400%"><rect x="-200%" y="-200%" width="400%" height="400%" style="fill:white;"/><line x1="34.173" y1="128.22" x2="34.173" y2="137.8" fill="black" stroke="none"/></mask><line x1="34.173" y1="128.22" x2="34.173" y2="137.8" mask="url(#_mask_NWRXVXZz37jGHnZ40ZLLheoBqcFEUsN5)" vector-effect="non-scaling-stroke" stroke-width="0.5" stroke="rgb(255,255,255)" stroke-linejoin="miter" stroke-linecap="butt" stroke-miterlimit="10"/><mask id="_mask_dWP4h4XRZyjxavUtnDnovLKv3BvY9NYI" x="-200%" y="-200%" width="400%" height="400%"><rect x="-200%" y="-200%" width="400%" height="400%" style="fill:white;"/><line x1="13.163" y1="118" x2="22.743" y2="118" fill="black" stroke="none"/></mask><line x1="13.163" y1="118" x2="22.743" y2="118" mask="url(#_mask_dWP4h4XRZyjxavUtnDnovLKv3BvY9NYI)" vector-effect="non-scaling-stroke" stroke-width="0.5" stroke="rgb(255,255,255)" stroke-linejoin="miter" stroke-linecap="butt" stroke-miterlimit="10"/><mask id="_mask_CWO1B3M60Dc3zTgCIFquayTU2t7E6AI6" x="-200%" y="-200%" width="400%" height="400%"><rect x="-200%" y="-200%" width="400%" height="400%" style="fill:white;"/><line x1="1.942" y1="128.22" x2="1.942" y2="137.8" fill="black" stroke="none"/></mask><line x1="1.942" y1="128.22" x2="1.942" y2="137.8" mask="url(#_mask_CWO1B3M60Dc3zTgCIFquayTU2t7E6AI6)" vector-effect="non-scaling-stroke" stroke-width="0.5" stroke="rgb(255,255,255)" stroke-linejoin="miter" stroke-linecap="butt" stroke-miterlimit="10"/></g></g><g clip-path="url(#_clipPath_dINeoTXbyearDqYXdGO40VbUCLADlKBT)"><text transform="matrix(1,0,0,1,93.187,138.629)" style="font-family:'Open Sans';font-weight:400;font-size:14px;font-style:normal;fill:#000000;stroke:none;">AstraZeneca &#x3E; 2da. dosis</text></g><defs><clipPath id="_clipPath_dINeoTXbyearDqYXdGO40VbUCLADlKBT"><rect x="0" y="0" width="175.87" height="20.67" transform="matrix(1,0,0,1,93.187,123.665)"/></clipPath></defs><g><g><circle vector-effect="non-scaling-stroke" cx="48.907500002291286" cy="121.99980989668299" r="4" fill="rgb(0,0,0)"/><path d=" M 51.998 128 L 50.908 128 C 50.642 127.998 50.386 128.103 50.197 128.29 L 48.908 129.58 L 47.618 128.29 C 47.426 128.107 47.172 128.003 46.908 128 L 45.808 128 C 44.777 127.995 43.911 128.774 43.807 129.8 L 42.908 138.9 C 42.881 139.182 42.976 139.462 43.167 139.67 C 43.357 139.879 43.625 139.999 43.908 140 L 44.997 140 L 45.818 148.2 C 45.921 149.226 46.787 150.005 47.817 150 L 49.998 150 C 51.028 150.005 51.894 149.226 51.998 148.2 L 52.807 140 L 53.908 140 C 54.19 139.999 54.458 139.879 54.647 139.67 C 54.839 139.462 54.934 139.182 54.908 138.9 L 53.998 129.8 C 53.894 128.774 53.028 127.995 51.998 128 Z " fill="rgb(0,0,0)"/><circle vector-effect="non-scaling-stroke" cx="62.907500002291286" cy="121.99980989668299" r="4" fill="rgb(0,0,0)"/><path d=" M 67.287 138 L 67.908 138 C 68.197 138.002 68.473 137.879 68.665 137.663 C 68.857 137.446 68.945 137.157 68.908 136.87 L 68.008 129.78 C 67.895 128.762 67.032 127.994 66.008 128 L 59.807 128 C 58.787 127.993 57.925 128.756 57.807 129.77 L 56.908 136.87 C 56.87 137.157 56.958 137.446 57.15 137.663 C 57.342 137.879 57.618 138.002 57.908 138 L 58.517 138 L 56.958 142.68 C 56.857 142.985 56.909 143.32 57.097 143.58 C 57.284 143.842 57.586 143.998 57.908 144 L 59.057 144 L 59.778 148.33 C 59.94 149.304 60.79 150.013 61.778 150 L 64.078 150 C 65.065 150.013 65.915 149.304 66.078 148.33 L 66.758 144 L 67.908 144 C 68.229 143.998 68.531 143.842 68.717 143.58 C 68.906 143.32 68.958 142.985 68.858 142.68 L 67.287 138 Z " fill="rgb(0,0,0)"/><path d=" M 52.187 148.49 L 59.578 148.49 C 59.908 148.449 60.156 148.168 60.156 147.835 C 60.156 147.502 59.908 147.221 59.578 147.18 L 57.718 147.18 L 57.718 143.85 L 59.567 143.85 C 59.898 143.809 60.146 143.528 60.146 143.195 C 60.146 142.862 59.898 142.581 59.567 142.54 L 58.637 142.54 L 58.637 129.33 L 57.708 129.33 L 56.777 126.56 L 56.508 126.56 L 56.508 120.09 C 56.467 119.759 56.186 119.511 55.852 119.511 C 55.519 119.511 55.238 119.759 55.197 120.09 L 55.197 126.55 L 54.908 126.55 L 53.998 129.32 L 53.067 129.32 L 53.067 142.52 L 52.168 142.52 C 51.809 142.52 51.517 142.811 51.517 143.17 C 51.517 143.529 51.809 143.82 52.168 143.82 L 54.017 143.82 L 54.017 147.13 L 52.178 147.13 C 52.004 147.13 51.838 147.2 51.718 147.324 C 51.597 147.449 51.532 147.617 51.538 147.79 C 51.524 147.971 51.586 148.149 51.709 148.282 C 51.833 148.415 52.006 148.49 52.187 148.49 Z  M 56.067 132.14 C 56.077 131.967 56.148 131.804 56.267 131.68 C 56.391 131.559 56.555 131.487 56.727 131.48 L 57.968 131.48 L 57.968 132.77 L 56.727 132.77 C 56.367 132.77 56.073 132.48 56.067 132.12 L 56.067 132.14 Z  M 56.067 134.82 C 56.067 134.461 56.359 134.17 56.718 134.17 L 57.958 134.17 L 57.958 135.46 L 56.737 135.46 C 56.564 135.465 56.396 135.4 56.272 135.28 C 56.148 135.159 56.077 134.993 56.078 134.82 L 56.067 134.82 Z  M 56.067 137.5 C 56.067 137.141 56.359 136.85 56.718 136.85 L 57.958 136.85 L 57.958 138.14 L 56.748 138.14 C 56.387 138.14 56.093 137.85 56.088 137.49 L 56.067 137.5 Z  M 56.067 140.18 C 56.062 139.83 56.338 139.541 56.687 139.53 L 57.947 139.53 L 57.947 140.82 L 56.758 140.82 C 56.402 140.82 56.113 140.535 56.107 140.18 L 56.067 140.18 Z " fill="rgb(0,0,0)" vector-effect="non-scaling-stroke" stroke-width="2" stroke="rgb(255,255,255)" stroke-linejoin="miter" stroke-linecap="butt" stroke-miterlimit="10"/><path d=" M 52.187 148.49 L 59.578 148.49 C 59.908 148.449 60.156 148.168 60.156 147.835 C 60.156 147.502 59.908 147.221 59.578 147.18 L 57.718 147.18 L 57.718 143.85 L 59.567 143.85 C 59.898 143.809 60.146 143.528 60.146 143.195 C 60.146 142.862 59.898 142.581 59.567 142.54 L 58.637 142.54 L 58.637 129.33 L 57.708 129.33 L 56.777 126.56 L 56.508 126.56 L 56.508 120.09 C 56.467 119.759 56.186 119.511 55.852 119.511 C 55.519 119.511 55.238 119.759 55.197 120.09 L 55.197 126.55 L 54.908 126.55 L 53.998 129.32 L 53.067 129.32 L 53.067 142.52 L 52.168 142.52 C 51.809 142.52 51.517 142.811 51.517 143.17 C 51.517 143.529 51.809 143.82 52.168 143.82 L 54.017 143.82 L 54.017 147.13 L 52.178 147.13 C 52.004 147.13 51.838 147.2 51.718 147.324 C 51.597 147.449 51.532 147.617 51.538 147.79 C 51.524 147.971 51.586 148.149 51.709 148.282 C 51.833 148.415 52.006 148.49 52.187 148.49 Z  M 56.067 132.14 C 56.077 131.967 56.148 131.804 56.267 131.68 C 56.391 131.559 56.555 131.487 56.727 131.48 L 57.968 131.48 L 57.968 132.77 L 56.727 132.77 C 56.367 132.77 56.073 132.48 56.067 132.12 L 56.067 132.14 Z  M 56.067 134.82 C 56.067 134.461 56.359 134.17 56.718 134.17 L 57.958 134.17 L 57.958 135.46 L 56.737 135.46 C 56.564 135.465 56.396 135.4 56.272 135.28 C 56.148 135.159 56.077 134.993 56.078 134.82 L 56.067 134.82 Z  M 56.067 137.5 C 56.067 137.141 56.359 136.85 56.718 136.85 L 57.958 136.85 L 57.958 138.14 L 56.748 138.14 C 56.387 138.14 56.093 137.85 56.088 137.49 L 56.067 137.5 Z  M 56.067 140.18 C 56.062 139.83 56.338 139.541 56.687 139.53 L 57.947 139.53 L 57.947 140.82 L 56.758 140.82 C 56.402 140.82 56.113 140.535 56.107 140.18 L 56.067 140.18 Z " fill="rgb(0,0,0)"/><g clip-path="url(#_clipPath_8p7nlg8J1nHPMX9DEBvCPkib2lk8SQ7U)"><text transform="matrix(1,0,0,1,45.908,136.84)" style="font-family:'Open Sans';font-weight:400;font-size:10px;font-style:normal;font-variant-ligatures:none;fill:[Object GRGBColor];stroke:none;">1</text></g><defs><clipPath id="_clipPath_8p7nlg8J1nHPMX9DEBvCPkib2lk8SQ7U"><rect x="0" y="0" width="8" height="13.618" transform="matrix(1,0,0,1,45.908,126.151)"/></clipPath></defs><g clip-path="url(#_clipPath_7LMhEbcnvn0UFvcHpQTeIbFzNnu8Iu8r)"><text transform="matrix(1,0,0,1,60.618,137.5)" style="font-family:'Open Sans';font-weight:400;font-size:10px;font-style:normal;font-variant-ligatures:none;fill:[Object GRGBColor];stroke:none;">D</text></g><defs><clipPath id="_clipPath_7LMhEbcnvn0UFvcHpQTeIbFzNnu8Iu8r"><rect x="0" y="0" width="10" height="13.618" transform="matrix(1,0,0,1,60.618,126.811)"/></clipPath></defs><mask id="_mask_ZGDp0VsYMLuaKJgESHSaI6KUETh9Qn6l" x="-200%" y="-200%" width="400%" height="400%"><rect x="-200%" y="-200%" width="400%" height="400%" style="fill:white;"/><line x1="82.908" y1="131.48" x2="82.908" y2="141.06" fill="black" stroke="none"/></mask><line x1="82.908" y1="131.48" x2="82.908" y2="141.06" mask="url(#_mask_ZGDp0VsYMLuaKJgESHSaI6KUETh9Qn6l)" vector-effect="non-scaling-stroke" stroke-width="0.5" stroke="rgb(255,255,255)" stroke-linejoin="miter" stroke-linecap="butt" stroke-miterlimit="10"/></g></g></g></g><g><g><g><g><path d=" M 19.712 225.98 C 20.993 226.42 22.112 226.7 23.712 227.19 C 23.112 235.04 15.693 231.92 19.712 225.98 Z  M 26.343 218.78 C 26.253 216.42 25.843 213.33 22.532 213.78 C 20.983 214.19 19.843 215.89 19.302 218.78 C 19.048 220.522 19.126 222.297 19.532 224.01 C 19.843 225.01 19.743 224.91 20.083 225.09 C 21.403 225.39 22.712 225.72 24.083 226.09 C 25.413 225.18 26.522 220.09 26.343 218.78 Z  M 16.142 218.6 C 16.545 216.883 16.62 215.105 16.363 213.36 C 15.823 210.42 14.682 208.72 13.132 208.36 C 9.833 207.87 9.412 210.96 9.332 213.36 C 9.142 214.68 10.262 219.76 11.613 220.72 C 12.953 220.38 14.262 220.05 15.613 219.72 C 15.932 219.49 15.813 219.55 16.142 218.6 Z  M 11.932 221.7 C 12.563 229.54 19.933 226.43 15.932 220.48 C 14.682 220.92 13.552 221.2 11.932 221.7 Z " fill="rgb(29,113,184)"/><mask id="_mask_so4K8W6IGHwYAUKoGuVsrhW39IZjmsHT" x="-200%" y="-200%" width="400%" height="400%"><rect x="-200%" y="-200%" width="400%" height="400%" style="fill:white;"/><line x1="34.173" y1="210.22" x2="34.173" y2="219.8" fill="black" stroke="none"/></mask><line x1="34.173" y1="210.22" x2="34.173" y2="219.8" mask="url(#_mask_so4K8W6IGHwYAUKoGuVsrhW39IZjmsHT)" vector-effect="non-scaling-stroke" stroke-width="0.5" stroke="rgb(255,255,255)" stroke-linejoin="miter" stroke-linecap="butt" stroke-miterlimit="10"/><mask id="_mask_Es9q58PXTBM0VbjGg7Vt2U1efl179hbA" x="-200%" y="-200%" width="400%" height="400%"><rect x="-200%" y="-200%" width="400%" height="400%" style="fill:white;"/><line x1="13.163" y1="200" x2="22.743" y2="200" fill="black" stroke="none"/></mask><line x1="13.163" y1="200" x2="22.743" y2="200" mask="url(#_mask_Es9q58PXTBM0VbjGg7Vt2U1efl179hbA)" vector-effect="non-scaling-stroke" stroke-width="0.5" stroke="rgb(255,255,255)" stroke-linejoin="miter" stroke-linecap="butt" stroke-miterlimit="10"/><mask id="_mask_3Wv6Crr8QXNatyo89irhNxghgk3smQUr" x="-200%" y="-200%" width="400%" height="400%"><rect x="-200%" y="-200%" width="400%" height="400%" style="fill:white;"/><line x1="1.942" y1="210.22" x2="1.942" y2="219.8" fill="black" stroke="none"/></mask><line x1="1.942" y1="210.22" x2="1.942" y2="219.8" mask="url(#_mask_3Wv6Crr8QXNatyo89irhNxghgk3smQUr)" vector-effect="non-scaling-stroke" stroke-width="0.5" stroke="rgb(255,255,255)" stroke-linejoin="miter" stroke-linecap="butt" stroke-miterlimit="10"/></g></g><g clip-path="url(#_clipPath_12SIS59J6Z5VDlEZVcstoP7qAYGPMcg8)"><text transform="matrix(1,0,0,1,93.187,220.629)" style="font-family:'Open Sans';font-weight:400;font-size:14px;font-style:normal;fill:#000000;stroke:none;">Sputnik V &#x3E; 2da. dosis</text></g><defs><clipPath id="_clipPath_12SIS59J6Z5VDlEZVcstoP7qAYGPMcg8"><rect x="0" y="0" width="175.87" height="20.67" transform="matrix(1,0,0,1,93.187,205.665)"/></clipPath></defs><g><g><circle vector-effect="non-scaling-stroke" cx="48.907500002291286" cy="203.999809896683" r="4" fill="rgb(0,0,0)"/><path d=" M 51.998 210 L 50.908 210 C 50.642 209.998 50.386 210.103 50.197 210.29 L 48.908 211.58 L 47.618 210.29 C 47.426 210.107 47.172 210.003 46.908 210 L 45.808 210 C 44.777 209.995 43.911 210.774 43.807 211.8 L 42.908 220.9 C 42.881 221.182 42.976 221.462 43.167 221.67 C 43.357 221.879 43.625 221.999 43.908 222 L 44.997 222 L 45.818 230.2 C 45.921 231.226 46.787 232.005 47.817 232 L 49.998 232 C 51.028 232.005 51.894 231.226 51.998 230.2 L 52.807 222 L 53.908 222 C 54.19 221.999 54.458 221.879 54.647 221.67 C 54.839 221.462 54.934 221.182 54.908 220.9 L 53.998 211.8 C 53.894 210.774 53.028 209.995 51.998 210 Z " fill="rgb(0,0,0)"/><circle vector-effect="non-scaling-stroke" cx="62.907500002291286" cy="203.999809896683" r="4" fill="rgb(0,0,0)"/><path d=" M 67.287 220 L 67.908 220 C 68.197 220.002 68.473 219.879 68.665 219.663 C 68.857 219.446 68.945 219.157 68.908 218.87 L 68.008 211.78 C 67.895 210.762 67.032 209.994 66.008 210 L 59.807 210 C 58.787 209.993 57.925 210.756 57.807 211.77 L 56.908 218.87 C 56.87 219.157 56.958 219.446 57.15 219.663 C 57.342 219.879 57.618 220.002 57.908 220 L 58.517 220 L 56.958 224.68 C 56.857 224.985 56.909 225.32 57.097 225.58 C 57.284 225.842 57.586 225.998 57.908 226 L 59.057 226 L 59.778 230.33 C 59.94 231.304 60.79 232.013 61.778 232 L 64.078 232 C 65.065 232.013 65.915 231.304 66.078 230.33 L 66.758 226 L 67.908 226 C 68.229 225.998 68.531 225.842 68.717 225.58 C 68.906 225.32 68.958 224.985 68.858 224.68 L 67.287 220 Z " fill="rgb(0,0,0)"/><path d=" M 52.187 230.49 L 59.578 230.49 C 59.908 230.449 60.156 230.168 60.156 229.835 C 60.156 229.502 59.908 229.221 59.578 229.18 L 57.718 229.18 L 57.718 225.85 L 59.567 225.85 C 59.898 225.809 60.146 225.528 60.146 225.195 C 60.146 224.862 59.898 224.581 59.567 224.54 L 58.637 224.54 L 58.637 211.33 L 57.708 211.33 L 56.777 208.56 L 56.508 208.56 L 56.508 202.09 C 56.467 201.759 56.186 201.511 55.852 201.511 C 55.519 201.511 55.238 201.759 55.197 202.09 L 55.197 208.55 L 54.908 208.55 L 53.998 211.32 L 53.067 211.32 L 53.067 224.52 L 52.168 224.52 C 51.809 224.52 51.517 224.811 51.517 225.17 C 51.517 225.529 51.809 225.82 52.168 225.82 L 54.017 225.82 L 54.017 229.13 L 52.178 229.13 C 52.004 229.13 51.838 229.2 51.718 229.324 C 51.597 229.449 51.532 229.617 51.538 229.79 C 51.524 229.971 51.586 230.149 51.709 230.282 C 51.833 230.415 52.006 230.49 52.187 230.49 Z  M 56.067 214.14 C 56.077 213.967 56.148 213.804 56.267 213.68 C 56.391 213.559 56.555 213.487 56.727 213.48 L 57.968 213.48 L 57.968 214.77 L 56.727 214.77 C 56.367 214.77 56.073 214.48 56.067 214.12 L 56.067 214.14 Z  M 56.067 216.82 C 56.067 216.461 56.359 216.17 56.718 216.17 L 57.958 216.17 L 57.958 217.46 L 56.737 217.46 C 56.564 217.465 56.396 217.4 56.272 217.28 C 56.148 217.159 56.077 216.993 56.078 216.82 L 56.067 216.82 Z  M 56.067 219.5 C 56.067 219.141 56.359 218.85 56.718 218.85 L 57.958 218.85 L 57.958 220.14 L 56.748 220.14 C 56.387 220.14 56.093 219.85 56.088 219.49 L 56.067 219.5 Z  M 56.067 222.18 C 56.062 221.83 56.338 221.541 56.687 221.53 L 57.947 221.53 L 57.947 222.82 L 56.758 222.82 C 56.402 222.82 56.113 222.535 56.107 222.18 L 56.067 222.18 Z " fill="rgb(0,0,0)" vector-effect="non-scaling-stroke" stroke-width="2" stroke="rgb(255,255,255)" stroke-linejoin="miter" stroke-linecap="butt" stroke-miterlimit="10"/><path d=" M 52.187 230.49 L 59.578 230.49 C 59.908 230.449 60.156 230.168 60.156 229.835 C 60.156 229.502 59.908 229.221 59.578 229.18 L 57.718 229.18 L 57.718 225.85 L 59.567 225.85 C 59.898 225.809 60.146 225.528 60.146 225.195 C 60.146 224.862 59.898 224.581 59.567 224.54 L 58.637 224.54 L 58.637 211.33 L 57.708 211.33 L 56.777 208.56 L 56.508 208.56 L 56.508 202.09 C 56.467 201.759 56.186 201.511 55.852 201.511 C 55.519 201.511 55.238 201.759 55.197 202.09 L 55.197 208.55 L 54.908 208.55 L 53.998 211.32 L 53.067 211.32 L 53.067 224.52 L 52.168 224.52 C 51.809 224.52 51.517 224.811 51.517 225.17 C 51.517 225.529 51.809 225.82 52.168 225.82 L 54.017 225.82 L 54.017 229.13 L 52.178 229.13 C 52.004 229.13 51.838 229.2 51.718 229.324 C 51.597 229.449 51.532 229.617 51.538 229.79 C 51.524 229.971 51.586 230.149 51.709 230.282 C 51.833 230.415 52.006 230.49 52.187 230.49 Z  M 56.067 214.14 C 56.077 213.967 56.148 213.804 56.267 213.68 C 56.391 213.559 56.555 213.487 56.727 213.48 L 57.968 213.48 L 57.968 214.77 L 56.727 214.77 C 56.367 214.77 56.073 214.48 56.067 214.12 L 56.067 214.14 Z  M 56.067 216.82 C 56.067 216.461 56.359 216.17 56.718 216.17 L 57.958 216.17 L 57.958 217.46 L 56.737 217.46 C 56.564 217.465 56.396 217.4 56.272 217.28 C 56.148 217.159 56.077 216.993 56.078 216.82 L 56.067 216.82 Z  M 56.067 219.5 C 56.067 219.141 56.359 218.85 56.718 218.85 L 57.958 218.85 L 57.958 220.14 L 56.748 220.14 C 56.387 220.14 56.093 219.85 56.088 219.49 L 56.067 219.5 Z  M 56.067 222.18 C 56.062 221.83 56.338 221.541 56.687 221.53 L 57.947 221.53 L 57.947 222.82 L 56.758 222.82 C 56.402 222.82 56.113 222.535 56.107 222.18 L 56.067 222.18 Z " fill="rgb(0,0,0)"/><g clip-path="url(#_clipPath_ZyJ2cv4saCjLjOZQfSMJwEzkf2ioUNq1)"><text transform="matrix(1,0,0,1,45.908,218.84)" style="font-family:'Open Sans';font-weight:400;font-size:10px;font-style:normal;font-variant-ligatures:none;fill:[Object GRGBColor];stroke:none;">1</text></g><defs><clipPath id="_clipPath_ZyJ2cv4saCjLjOZQfSMJwEzkf2ioUNq1"><rect x="0" y="0" width="8" height="13.618" transform="matrix(1,0,0,1,45.908,208.151)"/></clipPath></defs><g clip-path="url(#_clipPath_si699VvfStdI5ersQg4sRpazMsYhoyZa)"><text transform="matrix(1,0,0,1,60.618,219.5)" style="font-family:'Open Sans';font-weight:400;font-size:10px;font-style:normal;font-variant-ligatures:none;fill:[Object GRGBColor];stroke:none;">D</text></g><defs><clipPath id="_clipPath_si699VvfStdI5ersQg4sRpazMsYhoyZa"><rect x="0" y="0" width="10" height="13.618" transform="matrix(1,0,0,1,60.618,208.811)"/></clipPath></defs><mask id="_mask_2Moacf5f2PSQMNRYE4qhTCDrmtJenR7V" x="-200%" y="-200%" width="400%" height="400%"><rect x="-200%" y="-200%" width="400%" height="400%" style="fill:white;"/><line x1="82.908" y1="213.48" x2="82.908" y2="223.06" fill="black" stroke="none"/></mask><line x1="82.908" y1="213.48" x2="82.908" y2="223.06" mask="url(#_mask_2Moacf5f2PSQMNRYE4qhTCDrmtJenR7V)" vector-effect="non-scaling-stroke" stroke-width="0.5" stroke="rgb(255,255,255)" stroke-linejoin="miter" stroke-linecap="butt" stroke-miterlimit="10"/></g></g></g></g><g><g><g><circle vector-effect="non-scaling-stroke" cx="49.19180863945414" cy="83.17415353903584" r="4" fill="rgb(0,0,0)"/><path d=" M 52.282 89.174 L 51.192 89.174 C 50.926 89.173 50.671 89.277 50.482 89.464 L 49.192 90.754 L 47.902 89.464 C 47.71 89.281 47.457 89.178 47.192 89.174 L 46.092 89.174 C 45.061 89.169 44.195 89.948 44.092 90.974 L 43.192 100.074 C 43.166 100.356 43.26 100.636 43.452 100.844 C 43.641 101.054 43.91 101.173 44.192 101.174 L 45.282 101.174 L 46.102 109.374 C 46.205 110.4 47.071 111.179 48.102 111.174 L 50.282 111.174 C 51.313 111.179 52.179 110.4 52.282 109.374 L 53.092 101.174 L 54.192 101.174 C 54.474 101.173 54.743 101.054 54.932 100.844 C 55.124 100.636 55.218 100.356 55.192 100.074 L 54.282 90.974 C 54.179 89.948 53.313 89.169 52.282 89.174 Z " fill="rgb(0,0,0)"/><circle vector-effect="non-scaling-stroke" cx="61.19180863945414" cy="83.17415353903584" r="4" fill="rgb(0,0,0)"/><path d=" M 65.582 99.174 L 66.192 99.174 C 66.481 99.177 66.757 99.054 66.949 98.837 C 67.141 98.62 67.229 98.331 67.192 98.044 L 66.292 90.954 C 66.179 89.936 65.316 89.168 64.292 89.174 L 58.092 89.174 C 57.071 89.167 56.209 89.93 56.092 90.944 L 55.192 98.044 C 55.154 98.331 55.243 98.62 55.434 98.837 C 55.626 99.054 55.902 99.177 56.192 99.174 L 56.802 99.174 L 55.242 103.854 C 55.141 104.159 55.193 104.494 55.382 104.754 C 55.568 105.016 55.87 105.173 56.192 105.174 L 57.342 105.174 L 58.062 109.504 C 58.225 110.478 59.074 111.188 60.062 111.174 L 62.362 111.174 C 63.349 111.188 64.199 110.478 64.362 109.504 L 65.042 105.174 L 66.192 105.174 C 66.514 105.173 66.815 105.016 67.002 104.754 C 67.19 104.494 67.242 104.159 67.142 103.854 L 65.582 99.174 Z " fill="rgb(0,0,0)"/><g clip-path="url(#_clipPath_kYCPHzYmwGDSJeABpQ9iP3nns6iALX1y)"><text transform="matrix(1,0,0,1,66.152,89.394)" style="font-family:'Open Sans';font-weight:400;font-size:10px;font-style:normal;font-variant-ligatures:none;fill:[Object GRGBColor];stroke:none;">18+</text></g><defs><clipPath id="_clipPath_kYCPHzYmwGDSJeABpQ9iP3nns6iALX1y"><rect x="0" y="0" width="20" height="13.618" transform="matrix(1,0,0,1,66.152,78.706)"/></clipPath></defs></g></g><g><g><path d=" M 19.712 102.98 C 20.993 103.42 22.112 103.7 23.712 104.19 C 23.112 112.04 15.693 108.92 19.712 102.98 Z  M 26.343 95.78 C 26.253 93.42 25.843 90.33 22.532 90.78 C 20.983 91.19 19.843 92.89 19.302 95.78 C 19.048 97.522 19.126 99.297 19.532 101.01 C 19.843 102.01 19.743 101.91 20.083 102.09 C 21.403 102.39 22.712 102.72 24.083 103.09 C 25.413 102.18 26.522 97.09 26.343 95.78 Z  M 16.142 95.6 C 16.545 93.883 16.62 92.105 16.363 90.36 C 15.823 87.42 14.682 85.72 13.132 85.36 C 9.833 84.87 9.412 87.96 9.332 90.36 C 9.142 91.68 10.262 96.76 11.613 97.72 C 12.953 97.38 14.262 97.05 15.613 96.72 C 15.932 96.49 15.813 96.55 16.142 95.6 Z  M 11.932 98.7 C 12.563 106.54 19.933 103.43 15.932 97.48 C 14.682 97.92 13.552 98.2 11.932 98.7 Z " fill="rgb(29,113,184)"/><mask id="_mask_KNVltGw5PCjix1zCWAgxtqXIQYFgkKcd" x="-200%" y="-200%" width="400%" height="400%"><rect x="-200%" y="-200%" width="400%" height="400%" style="fill:white;"/><line x1="34.173" y1="87.22" x2="34.173" y2="96.8" fill="black" stroke="none"/></mask><line x1="34.173" y1="87.22" x2="34.173" y2="96.8" mask="url(#_mask_KNVltGw5PCjix1zCWAgxtqXIQYFgkKcd)" vector-effect="non-scaling-stroke" stroke-width="0.5" stroke="rgb(255,255,255)" stroke-linejoin="miter" stroke-linecap="butt" stroke-miterlimit="10"/><mask id="_mask_6sugxFEEvuXRi1UfUV3jvTkX3IZHypFl" x="-200%" y="-200%" width="400%" height="400%"><rect x="-200%" y="-200%" width="400%" height="400%" style="fill:white;"/><line x1="13.163" y1="77" x2="22.743" y2="77" fill="black" stroke="none"/></mask><line x1="13.163" y1="77" x2="22.743" y2="77" mask="url(#_mask_6sugxFEEvuXRi1UfUV3jvTkX3IZHypFl)" vector-effect="non-scaling-stroke" stroke-width="0.5" stroke="rgb(255,255,255)" stroke-linejoin="miter" stroke-linecap="butt" stroke-miterlimit="10"/><mask id="_mask_SIo0Cf6MT2afDN6FhXRKJ7dQ8AVAe8i9" x="-200%" y="-200%" width="400%" height="400%"><rect x="-200%" y="-200%" width="400%" height="400%" style="fill:white;"/><line x1="1.942" y1="87.22" x2="1.942" y2="96.8" fill="black" stroke="none"/></mask><line x1="1.942" y1="87.22" x2="1.942" y2="96.8" mask="url(#_mask_SIo0Cf6MT2afDN6FhXRKJ7dQ8AVAe8i9)" vector-effect="non-scaling-stroke" stroke-width="0.5" stroke="rgb(255,255,255)" stroke-linejoin="miter" stroke-linecap="butt" stroke-miterlimit="10"/></g></g><g><g clip-path="url(#_clipPath_43UBaP6rHokLZr4cEzhnvVhM972TKU3C)"><text transform="matrix(1,0,0,1,93.187,97.629)" style="font-family:'Open Sans';font-weight:400;font-size:14px;font-style:normal;fill:#000000;stroke:none;">AstraZeneca &#x3E; 1ra. dosis</text></g><defs><clipPath id="_clipPath_43UBaP6rHokLZr4cEzhnvVhM972TKU3C"><rect x="0" y="0" width="175.87" height="20.67" transform="matrix(1,0,0,1,93.187,82.665)"/></clipPath></defs></g></g><g><g><g><g><g><path d=" M 19.712 63.98 C 20.993 64.42 22.112 64.7 23.712 65.19 C 23.112 73.04 15.693 69.92 19.712 63.98 Z  M 26.343 56.78 C 26.253 54.42 25.843 51.33 22.532 51.78 C 20.983 52.19 19.843 53.89 19.302 56.78 C 19.048 58.522 19.126 60.297 19.532 62.01 C 19.843 63.01 19.743 62.91 20.083 63.09 C 21.403 63.39 22.712 63.72 24.083 64.09 C 25.413 63.18 26.522 58.09 26.343 56.78 Z  M 16.142 56.6 C 16.545 54.883 16.62 53.105 16.363 51.36 C 15.823 48.42 14.682 46.72 13.132 46.36 C 9.833 45.87 9.412 48.96 9.332 51.36 C 9.142 52.68 10.262 57.76 11.613 58.72 C 12.953 58.38 14.262 58.05 15.613 57.72 C 15.932 57.49 15.813 57.55 16.142 56.6 Z  M 11.932 59.7 C 12.563 67.54 19.933 64.43 15.932 58.48 C 14.682 58.92 13.552 59.2 11.932 59.7 Z " fill="rgb(29,113,184)"/><mask id="_mask_pkmBBABRwnyYvAnO6jUdjXt5CO8YMjBk" x="-200%" y="-200%" width="400%" height="400%"><rect x="-200%" y="-200%" width="400%" height="400%" style="fill:white;"/><line x1="34.173" y1="48.22" x2="34.173" y2="57.8" fill="black" stroke="none"/></mask><line x1="34.173" y1="48.22" x2="34.173" y2="57.8" mask="url(#_mask_pkmBBABRwnyYvAnO6jUdjXt5CO8YMjBk)" vector-effect="non-scaling-stroke" stroke-width="0.5" stroke="rgb(255,255,255)" stroke-linejoin="miter" stroke-linecap="butt" stroke-miterlimit="10"/><mask id="_mask_ZlNgQsvgfSR57zyuGR2P5btSTSwB0nFD" x="-200%" y="-200%" width="400%" height="400%"><rect x="-200%" y="-200%" width="400%" height="400%" style="fill:white;"/><line x1="13.163" y1="38" x2="22.743" y2="38" fill="black" stroke="none"/></mask><line x1="13.163" y1="38" x2="22.743" y2="38" mask="url(#_mask_ZlNgQsvgfSR57zyuGR2P5btSTSwB0nFD)" vector-effect="non-scaling-stroke" stroke-width="0.5" stroke="rgb(255,255,255)" stroke-linejoin="miter" stroke-linecap="butt" stroke-miterlimit="10"/><mask id="_mask_xQOXdRyW4WvOsDrzUjJnsC9jNL84FyMm" x="-200%" y="-200%" width="400%" height="400%"><rect x="-200%" y="-200%" width="400%" height="400%" style="fill:white;"/><line x1="1.942" y1="48.22" x2="1.942" y2="57.8" fill="black" stroke="none"/></mask><line x1="1.942" y1="48.22" x2="1.942" y2="57.8" mask="url(#_mask_xQOXdRyW4WvOsDrzUjJnsC9jNL84FyMm)" vector-effect="non-scaling-stroke" stroke-width="0.5" stroke="rgb(255,255,255)" stroke-linejoin="miter" stroke-linecap="butt" stroke-miterlimit="10"/></g></g><g clip-path="url(#_clipPath_7eSFgmLTci19dT2aQQalL98wiQmd3GpC)"><text transform="matrix(1,0,0,1,93.187,58.629)" style="font-family:'Open Sans';font-weight:400;font-size:14px;font-style:normal;fill:#000000;stroke:none;">AstraZeneca &#x3E; 2da. dosis</text></g><defs><clipPath id="_clipPath_7eSFgmLTci19dT2aQQalL98wiQmd3GpC"><rect x="0" y="0" width="175.87" height="20.67" transform="matrix(1,0,0,1,93.187,43.665)"/></clipPath></defs></g></g><g><g><path d=" M 61.71 46.897 C 63.411 46.897 64.79 45.518 64.79 43.817 C 64.79 42.116 63.411 40.737 61.71 40.737 C 60.009 40.737 58.63 42.116 58.63 43.817 C 58.63 44.634 58.955 45.417 59.532 45.995 C 60.11 46.573 60.893 46.897 61.71 46.897 Z " fill="rgb(0,0,0)"/><path d=" M 68.91 57.077 C 68.91 55.547 67.32 53.077 65.55 52.697 L 65.45 52.647 L 65.45 52.647 L 65.45 51.787 C 65.44 50.574 64.849 49.44 63.86 48.737 C 63.759 48.667 63.652 48.607 63.54 48.557 L 61.7 47.737 L 61.7 47.737 C 61.176 47.496 60.554 47.669 60.23 48.147 L 56.09 54.237 C 55.713 54.763 55.829 55.494 56.35 55.877 C 56.439 55.941 56.537 55.991 56.64 56.027 L 62.83 58.347 C 62.966 58.403 63.113 58.431 63.26 58.427 C 63.759 58.423 64.202 58.107 64.37 57.637 C 64.585 57.011 64.261 56.327 63.64 56.097 L 58.89 54.327 L 60.56 51.857 L 59.77 53.997 L 63.88 55.537 C 64.682 55.821 65.161 56.644 65.012 57.481 C 64.864 58.319 64.131 58.926 63.28 58.917 C 63.068 58.912 62.859 58.871 62.66 58.797 L 57.66 56.927 L 55.8 62.837 C 55.644 63.285 55.672 63.777 55.878 64.205 C 56.084 64.632 56.452 64.961 56.9 65.117 C 57.096 65.185 57.303 65.219 57.51 65.217 L 60.19 65.217 L 60.19 71.147 C 60.143 71.729 60.427 72.287 60.925 72.593 C 61.422 72.898 62.049 72.898 62.546 72.593 C 63.043 72.287 63.327 71.729 63.28 71.147 L 63.28 65.147 L 65.95 65.147 C 66.942 65.153 67.754 64.359 67.77 63.367 C 67.768 63.163 67.734 62.961 67.67 62.767 L 67 60.737 C 68.24 59.941 68.967 58.549 68.91 57.077 Z " fill="rgb(0,0,0)"/><path d=" M 43.41 57.407 L 43.17 58.097 C 42.931 58.776 43.241 59.526 43.89 59.837 C 44.069 59.919 44.263 59.963 44.46 59.967 C 45.05 59.966 45.575 59.594 45.77 59.037 L 47.36 54.427 L 47.36 55.427 L 45.3 62.427 C 45.255 62.84 45.47 63.238 45.84 63.427 C 45.983 63.509 46.146 63.547 46.31 63.537 L 47.41 63.537 L 47.41 71.017 C 47.398 71.922 48.097 72.679 49 72.737 C 49.441 72.759 49.872 72.604 50.198 72.308 C 50.524 72.012 50.719 71.597 50.74 71.157 L 50.74 64.157 C 50.74 64.006 50.8 63.861 50.907 63.754 C 51.014 63.647 51.159 63.587 51.31 63.587 L 51.31 63.587 C 51.461 63.587 51.606 63.647 51.713 63.754 C 51.82 63.861 51.88 64.006 51.88 64.157 L 51.88 71.067 C 51.894 71.953 52.586 72.68 53.47 72.737 C 53.911 72.759 54.342 72.604 54.668 72.308 C 54.994 72.012 55.19 71.597 55.21 71.157 L 55.21 63.557 L 56.28 63.557 C 56.444 63.565 56.607 63.527 56.75 63.447 C 57.124 63.261 57.344 62.863 57.3 62.447 L 55.24 55.447 L 55.24 54.447 L 56.83 59.057 C 57.027 59.63 57.575 60.007 58.18 59.987 C 58.633 59.98 59.054 59.754 59.308 59.379 C 59.563 59.005 59.62 58.531 59.46 58.107 L 56.16 48.737 C 55.942 48.155 55.371 47.782 54.75 47.817 L 47.86 47.817 C 47.238 47.784 46.664 48.155 46.44 48.737 L 43.81 56.297" fill="rgb(0,0,0)"/><circle vector-effect="non-scaling-stroke" cx="51.330213036346414" cy="43.76703900472689" r="3.009999999999998" fill="rgb(0,0,0)"/><path d=" M 55.32 50.867 C 55.158 49.646 54.277 48.642 53.087 48.322 C 51.897 48.003 50.632 48.431 49.88 49.407 L 47.88 52.067 C 47.074 53.032 46.955 54.398 47.583 55.487 C 48.21 56.577 49.451 57.16 50.69 56.947 C 51.479 56.853 52.198 56.45 52.69 55.827 L 54.74 53.157 C 55.23 52.512 55.445 51.7 55.34 50.897 L 55.32 50.867 Z  M 53.82 49.277 C 54.913 50.121 55.119 51.69 54.28 52.787 L 53.49 53.787 L 52.79 53.737 C 52.884 53.522 52.938 53.292 52.95 53.057 C 53.221 52.968 53.468 52.817 53.67 52.617 L 53.67 52.617 C 53.794 52.711 53.971 52.686 54.065 52.562 C 54.159 52.438 54.134 52.261 54.01 52.167 L 54.01 52.167 C 54.425 51.34 54.199 50.336 53.469 49.767 C 52.74 49.199 51.711 49.224 51.01 49.827 L 51.01 49.827 C 50.88 49.746 50.708 49.781 50.62 49.907 C 50.533 50.011 50.533 50.163 50.62 50.267 L 50.62 50.267 C 50.481 50.509 50.399 50.779 50.38 51.057 C 50.177 51.129 49.985 51.23 49.81 51.357 L 49.62 50.607 L 50.32 49.737 C 51.164 48.649 52.729 48.448 53.82 49.287 L 53.82 49.277 Z  M 50.39 53.517 L 49.98 51.977 C 50.111 51.848 50.263 51.743 50.43 51.667 C 50.529 52.085 50.761 52.461 51.09 52.737 C 51.454 53.006 51.898 53.143 52.35 53.127 C 52.319 53.31 52.254 53.487 52.16 53.647 L 50.39 53.517 Z  M 52.9 50.027 C 52.68 50.413 52.712 50.893 52.98 51.247 L 53.04 51.297 C 53.136 51.376 53.274 51.376 53.37 51.297 C 53.429 51.255 53.468 51.191 53.48 51.12 C 53.491 51.048 53.473 50.975 53.43 50.917 L 53.43 50.917 C 53.3 50.747 53.281 50.517 53.38 50.327 C 53.86 50.877 53.832 51.704 53.317 52.222 C 52.802 52.739 51.975 52.769 51.423 52.292 C 50.871 51.814 50.783 50.991 51.22 50.407 L 51.22 50.407 C 51.625 49.893 52.332 49.731 52.92 50.017 L 52.92 50.017 L 52.9 50.027 Z  M 49.21 51.197 L 49.8 53.437 L 47.86 53.277 C 47.938 52.961 48.081 52.665 48.28 52.407 L 49.21 51.197 Z  M 48.73 55.907 C 48.076 55.419 47.703 54.642 47.73 53.827 L 47.73 53.827 L 53.07 54.327 L 52.19 55.447 C 51.792 55.972 51.201 56.316 50.548 56.404 C 49.895 56.492 49.234 56.317 48.71 55.917 L 48.71 55.917 L 48.73 55.907 Z " fill="rgb(244,244,244)"/><g clip-path="url(#_clipPath_fH2eUxDtef9qYMqkVFqSzYA5vSaF1Rew)"><text transform="matrix(1,0,0,1,65.91,49.867)" style="font-family:'Open Sans';font-weight:400;font-size:10px;font-style:normal;font-variant-ligatures:none;fill:[Object GRGBColor];stroke:none;">18+</text></g><defs><clipPath id="_clipPath_fH2eUxDtef9qYMqkVFqSzYA5vSaF1Rew"><rect x="0" y="0" width="20" height="13.618" transform="matrix(1,0,0,1,65.91,39.179)"/></clipPath></defs></g></g><g><g><path d=" M 61.71 7.897 C 63.411 7.897 64.79 6.518 64.79 4.817 C 64.79 3.116 63.411 1.737 61.71 1.737 C 60.009 1.737 58.63 3.116 58.63 4.817 C 58.63 5.634 58.955 6.417 59.532 6.995 C 60.11 7.573 60.893 7.897 61.71 7.897 Z " fill="rgb(0,0,0)"/><path d=" M 68.91 18.077 C 68.91 16.547 67.32 14.077 65.55 13.697 L 65.45 13.647 L 65.45 13.647 L 65.45 12.787 C 65.44 11.574 64.849 10.44 63.86 9.737 C 63.759 9.667 63.652 9.607 63.54 9.557 L 61.7 8.737 L 61.7 8.737 C 61.176 8.496 60.554 8.669 60.23 9.147 L 56.09 15.237 C 55.713 15.763 55.829 16.494 56.35 16.877 C 56.439 16.941 56.537 16.991 56.64 17.027 L 62.83 19.347 C 62.966 19.403 63.113 19.431 63.26 19.427 C 63.759 19.423 64.202 19.107 64.37 18.637 C 64.585 18.011 64.261 17.327 63.64 17.097 L 58.89 15.327 L 60.56 12.857 L 59.77 14.997 L 63.88 16.537 C 64.682 16.821 65.161 17.644 65.012 18.481 C 64.864 19.319 64.131 19.926 63.28 19.917 C 63.068 19.912 62.859 19.871 62.66 19.797 L 57.66 17.927 L 55.8 23.837 C 55.644 24.285 55.672 24.777 55.878 25.205 C 56.084 25.632 56.452 25.961 56.9 26.117 C 57.096 26.185 57.303 26.219 57.51 26.217 L 60.19 26.217 L 60.19 32.147 C 60.143 32.729 60.427 33.287 60.925 33.593 C 61.422 33.898 62.049 33.898 62.546 33.593 C 63.043 33.287 63.327 32.729 63.28 32.147 L 63.28 26.147 L 65.95 26.147 C 66.942 26.153 67.754 25.359 67.77 24.367 C 67.768 24.163 67.734 23.961 67.67 23.767 L 67 21.737 C 68.24 20.941 68.967 19.549 68.91 18.077 Z " fill="rgb(0,0,0)"/><path d=" M 43.41 18.407 L 43.17 19.097 C 42.931 19.776 43.241 20.526 43.89 20.837 C 44.069 20.919 44.263 20.963 44.46 20.967 C 45.05 20.966 45.575 20.594 45.77 20.037 L 47.36 15.427 L 47.36 16.427 L 45.3 23.427 C 45.255 23.84 45.47 24.238 45.84 24.427 C 45.983 24.509 46.146 24.547 46.31 24.537 L 47.41 24.537 L 47.41 32.017 C 47.398 32.922 48.097 33.679 49 33.737 C 49.441 33.759 49.872 33.604 50.198 33.308 C 50.524 33.012 50.719 32.597 50.74 32.157 L 50.74 25.157 C 50.74 25.006 50.8 24.861 50.907 24.754 C 51.014 24.647 51.159 24.587 51.31 24.587 L 51.31 24.587 C 51.461 24.587 51.606 24.647 51.713 24.754 C 51.82 24.861 51.88 25.006 51.88 25.157 L 51.88 32.067 C 51.894 32.953 52.586 33.68 53.47 33.737 C 53.911 33.759 54.342 33.604 54.668 33.308 C 54.994 33.012 55.19 32.597 55.21 32.157 L 55.21 24.557 L 56.28 24.557 C 56.444 24.565 56.607 24.527 56.75 24.447 C 57.124 24.261 57.344 23.863 57.3 23.447 L 55.24 16.447 L 55.24 15.447 L 56.83 20.057 C 57.027 20.63 57.575 21.007 58.18 20.987 C 58.633 20.98 59.054 20.754 59.308 20.379 C 59.563 20.005 59.62 19.531 59.46 19.107 L 56.16 9.737 C 55.942 9.155 55.371 8.782 54.75 8.817 L 47.86 8.817 C 47.238 8.784 46.664 9.155 46.44 9.737 L 43.81 17.297" fill="rgb(0,0,0)"/><circle vector-effect="non-scaling-stroke" cx="51.330213036346414" cy="4.767039004726902" r="3.009999999999998" fill="rgb(0,0,0)"/><path d=" M 55.32 11.867 C 55.158 10.646 54.277 9.642 53.087 9.322 C 51.897 9.003 50.632 9.431 49.88 10.407 L 47.88 13.067 C 47.074 14.032 46.955 15.398 47.583 16.487 C 48.21 17.577 49.451 18.16 50.69 17.947 C 51.479 17.853 52.198 17.45 52.69 16.827 L 54.74 14.157 C 55.23 13.512 55.445 12.7 55.34 11.897 L 55.32 11.867 Z  M 53.82 10.277 C 54.913 11.121 55.119 12.69 54.28 13.787 L 53.49 14.787 L 52.79 14.737 C 52.884 14.522 52.938 14.292 52.95 14.057 C 53.221 13.968 53.468 13.817 53.67 13.617 L 53.67 13.617 C 53.794 13.711 53.971 13.686 54.065 13.562 C 54.159 13.438 54.134 13.261 54.01 13.167 L 54.01 13.167 C 54.425 12.34 54.199 11.336 53.469 10.767 C 52.74 10.199 51.711 10.224 51.01 10.827 L 51.01 10.827 C 50.88 10.746 50.708 10.781 50.62 10.907 C 50.533 11.011 50.533 11.163 50.62 11.267 L 50.62 11.267 C 50.481 11.509 50.399 11.779 50.38 12.057 C 50.177 12.129 49.985 12.23 49.81 12.357 L 49.62 11.607 L 50.32 10.737 C 51.164 9.649 52.729 9.448 53.82 10.287 L 53.82 10.277 Z  M 50.39 14.517 L 49.98 12.977 C 50.111 12.848 50.263 12.743 50.43 12.667 C 50.529 13.085 50.761 13.461 51.09 13.737 C 51.454 14.006 51.898 14.143 52.35 14.127 C 52.319 14.31 52.254 14.487 52.16 14.647 L 50.39 14.517 Z  M 52.9 11.027 C 52.68 11.413 52.712 11.893 52.98 12.247 L 53.04 12.297 C 53.136 12.376 53.274 12.376 53.37 12.297 C 53.429 12.255 53.468 12.191 53.48 12.12 C 53.491 12.048 53.473 11.975 53.43 11.917 L 53.43 11.917 C 53.3 11.747 53.281 11.517 53.38 11.327 C 53.86 11.877 53.832 12.704 53.317 13.222 C 52.802 13.739 51.975 13.769 51.423 13.292 C 50.871 12.814 50.783 11.991 51.22 11.407 L 51.22 11.407 C 51.625 10.893 52.332 10.731 52.92 11.017 L 52.92 11.017 L 52.9 11.027 Z  M 49.21 12.197 L 49.8 14.437 L 47.86 14.277 C 47.938 13.961 48.081 13.665 48.28 13.407 L 49.21 12.197 Z  M 48.73 16.907 C 48.076 16.419 47.703 15.642 47.73 14.827 L 47.73 14.827 L 53.07 15.327 L 52.19 16.447 C 51.792 16.972 51.201 17.316 50.548 17.404 C 49.895 17.492 49.234 17.317 48.71 16.917 L 48.71 16.917 L 48.73 16.907 Z " fill="rgb(244,244,244)"/><g clip-path="url(#_clipPath_0KkyKhIkVoKJogCN2ZQtTp4zgwQS8TE4)"><text transform="matrix(1,0,0,1,65.91,10.867)" style="font-family:'Open Sans';font-weight:400;font-size:10px;font-style:normal;font-variant-ligatures:none;fill:[Object GRGBColor];stroke:none;">18+</text></g><defs><clipPath id="_clipPath_0KkyKhIkVoKJogCN2ZQtTp4zgwQS8TE4"><rect x="0" y="0" width="20" height="13.618" transform="matrix(1,0,0,1,65.91,0.179)"/></clipPath></defs></g></g></g><g><g><g><g><path d=" M 19.712 184.98 C 20.993 185.42 22.112 185.7 23.712 186.19 C 23.112 194.04 15.693 190.92 19.712 184.98 Z  M 26.343 177.78 C 26.253 175.42 25.843 172.33 22.532 172.78 C 20.983 173.19 19.843 174.89 19.302 177.78 C 19.048 179.522 19.126 181.297 19.532 183.01 C 19.843 184.01 19.743 183.91 20.083 184.09 C 21.403 184.39 22.712 184.72 24.083 185.09 C 25.413 184.18 26.522 179.09 26.343 177.78 Z  M 16.142 177.6 C 16.545 175.883 16.62 174.105 16.363 172.36 C 15.823 169.42 14.682 167.72 13.132 167.36 C 9.833 166.87 9.412 169.96 9.332 172.36 C 9.142 173.68 10.262 178.76 11.613 179.72 C 12.953 179.38 14.262 179.05 15.613 178.72 C 15.932 178.49 15.813 178.55 16.142 177.6 Z  M 11.932 180.7 C 12.563 188.54 19.933 185.43 15.932 179.48 C 14.682 179.92 13.552 180.2 11.932 180.7 Z " fill="rgb(29,113,184)"/><mask id="_mask_WCAfNqaH4ObuEtMi19jPt1fyvZiFJhZo" x="-200%" y="-200%" width="400%" height="400%"><rect x="-200%" y="-200%" width="400%" height="400%" style="fill:white;"/><line x1="34.173" y1="169.22" x2="34.173" y2="178.8" fill="black" stroke="none"/></mask><line x1="34.173" y1="169.22" x2="34.173" y2="178.8" mask="url(#_mask_WCAfNqaH4ObuEtMi19jPt1fyvZiFJhZo)" vector-effect="non-scaling-stroke" stroke-width="0.5" stroke="rgb(255,255,255)" stroke-linejoin="miter" stroke-linecap="butt" stroke-miterlimit="10"/><mask id="_mask_Jur3w9Xn02DjoM14s6HdBa7wVUV5Ztzu" x="-200%" y="-200%" width="400%" height="400%"><rect x="-200%" y="-200%" width="400%" height="400%" style="fill:white;"/><line x1="13.163" y1="159" x2="22.743" y2="159" fill="black" stroke="none"/></mask><line x1="13.163" y1="159" x2="22.743" y2="159" mask="url(#_mask_Jur3w9Xn02DjoM14s6HdBa7wVUV5Ztzu)" vector-effect="non-scaling-stroke" stroke-width="0.5" stroke="rgb(255,255,255)" stroke-linejoin="miter" stroke-linecap="butt" stroke-miterlimit="10"/><mask id="_mask_y43eozuXbw109taUgY91pfDOzphVa7By" x="-200%" y="-200%" width="400%" height="400%"><rect x="-200%" y="-200%" width="400%" height="400%" style="fill:white;"/><line x1="1.942" y1="169.22" x2="1.942" y2="178.8" fill="black" stroke="none"/></mask><line x1="1.942" y1="169.22" x2="1.942" y2="178.8" mask="url(#_mask_y43eozuXbw109taUgY91pfDOzphVa7By)" vector-effect="non-scaling-stroke" stroke-width="0.5" stroke="rgb(255,255,255)" stroke-linejoin="miter" stroke-linecap="butt" stroke-miterlimit="10"/></g></g><g clip-path="url(#_clipPath_py3QOUhGSI17PSoeBzzRJJz50myU6SlG)"><text transform="matrix(1,0,0,1,93.187,179.569)" style="font-family:'Open Sans';font-weight:400;font-size:14px;font-style:normal;fill:#000000;stroke:none;">Sputnik V &#x3E; 1ra. dosis</text></g><defs><clipPath id="_clipPath_py3QOUhGSI17PSoeBzzRJJz50myU6SlG"><rect x="0" y="0" width="175.87" height="20.67" transform="matrix(1,0,0,1,93.187,164.605)"/></clipPath></defs><g><g><circle vector-effect="non-scaling-stroke" cx="49.19180863945414" cy="163.17415353903584" r="4" fill="rgb(0,0,0)"/><path d=" M 52.282 169.174 L 51.192 169.174 C 50.926 169.173 50.671 169.277 50.482 169.464 L 49.192 170.754 L 47.902 169.464 C 47.71 169.281 47.457 169.178 47.192 169.174 L 46.092 169.174 C 45.061 169.169 44.195 169.948 44.092 170.974 L 43.192 180.074 C 43.166 180.356 43.26 180.636 43.452 180.844 C 43.641 181.054 43.91 181.173 44.192 181.174 L 45.282 181.174 L 46.102 189.374 C 46.205 190.4 47.071 191.179 48.102 191.174 L 50.282 191.174 C 51.313 191.179 52.179 190.4 52.282 189.374 L 53.092 181.174 L 54.192 181.174 C 54.474 181.173 54.743 181.054 54.932 180.844 C 55.124 180.636 55.218 180.356 55.192 180.074 L 54.282 170.974 C 54.179 169.948 53.313 169.169 52.282 169.174 Z " fill="rgb(0,0,0)"/><circle vector-effect="non-scaling-stroke" cx="61.19180863945414" cy="163.17415353903584" r="4" fill="rgb(0,0,0)"/><path d=" M 65.582 179.174 L 66.192 179.174 C 66.481 179.177 66.757 179.054 66.949 178.837 C 67.141 178.62 67.229 178.331 67.192 178.044 L 66.292 170.954 C 66.179 169.936 65.316 169.168 64.292 169.174 L 58.092 169.174 C 57.071 169.167 56.209 169.93 56.092 170.944 L 55.192 178.044 C 55.154 178.331 55.243 178.62 55.434 178.837 C 55.626 179.054 55.902 179.177 56.192 179.174 L 56.802 179.174 L 55.242 183.854 C 55.141 184.159 55.193 184.494 55.382 184.754 C 55.568 185.016 55.87 185.173 56.192 185.174 L 57.342 185.174 L 58.062 189.504 C 58.225 190.478 59.074 191.188 60.062 191.174 L 62.362 191.174 C 63.349 191.188 64.199 190.478 64.362 189.504 L 65.042 185.174 L 66.192 185.174 C 66.514 185.173 66.815 185.016 67.002 184.754 C 67.19 184.494 67.242 184.159 67.142 183.854 L 65.582 179.174 Z " fill="rgb(0,0,0)"/><g clip-path="url(#_clipPath_TnbMSuPDqyzG8BidUmhGFfi91iXrtiHp)"><text transform="matrix(1,0,0,1,66.152,169.394)" style="font-family:'Open Sans';font-weight:400;font-size:10px;font-style:normal;font-variant-ligatures:none;fill:[Object GRGBColor];stroke:none;">18+</text></g><defs><clipPath id="_clipPath_TnbMSuPDqyzG8BidUmhGFfi91iXrtiHp"><rect x="0" y="0" width="20" height="13.618" transform="matrix(1,0,0,1,66.152,158.706)"/></clipPath></defs></g></g></g></g></g></svg>