<?xml version="1.0" encoding="UTF-8" standalone="no"?><!-- Generator: Gravit.io --><svg xmlns="http://www.w3.org/2000/svg" xmlns:xlink="http://www.w3.org/1999/xlink" style="isolation:isolate" viewBox="0 0 265 115" width="265pt" height="115pt"><defs><clipPath id="_clipPath_xrxIpTcPy878mlxlv1cF5xaWctCoReEh"><rect width="265" height="115"/></clipPath></defs><g clip-path="url(#_clipPath_xrxIpTcPy878mlxlv1cF5xaWctCoReEh)"><g><g><g><g><path d=" M 19.712 25.98 C 20.993 26.42 22.112 26.7 23.712 27.19 C 23.112 35.04 15.693 31.92 19.712 25.98 Z  M 26.343 18.78 C 26.253 16.42 25.843 13.33 22.532 13.78 C 20.983 14.19 19.843 15.89 19.302 18.78 C 19.048 20.522 19.126 22.297 19.532 24.01 C 19.843 25.01 19.743 24.91 20.083 25.09 C 21.403 25.39 22.712 25.72 24.083 26.09 C 25.413 25.18 26.522 20.09 26.343 18.78 Z  M 16.142 18.6 C 16.545 16.883 16.62 15.105 16.363 13.36 C 15.823 10.42 14.682 8.72 13.132 8.36 C 9.833 7.87 9.412 10.96 9.332 13.36 C 9.142 14.68 10.262 19.76 11.613 20.72 C 12.953 20.38 14.262 20.05 15.613 19.72 C 15.932 19.49 15.813 19.55 16.142 18.6 Z  M 11.932 21.7 C 12.563 29.54 19.933 26.43 15.932 20.48 C 14.682 20.92 13.552 21.2 11.932 21.7 Z " fill="rgb(29,113,184)"/><mask id="_mask_S1b3J3NWZ4r4bEWGAIR5ku1Pvu70uiRS" x="-200%" y="-200%" width="400%" height="400%"><rect x="-200%" y="-200%" width="400%" height="400%" style="fill:white;"/><line x1="34.173" y1="10.22" x2="34.173" y2="19.8" fill="black" stroke="none"/></mask><line x1="34.173" y1="10.22" x2="34.173" y2="19.8" mask="url(#_mask_S1b3J3NWZ4r4bEWGAIR5ku1Pvu70uiRS)" vector-effect="non-scaling-stroke" stroke-width="0.5" stroke="rgb(255,255,255)" stroke-linejoin="miter" stroke-linecap="butt" stroke-miterlimit="10"/><mask id="_mask_y6DADmenQIE5qOxdsGb2SntNXstk35ba" x="-200%" y="-200%" width="400%" height="400%"><rect x="-200%" y="-200%" width="400%" height="400%" style="fill:white;"/><line x1="13.163" y1="0" x2="22.743" y2="0" fill="black" stroke="none"/></mask><line x1="13.163" y1="0" x2="22.743" y2="0" mask="url(#_mask_y6DADmenQIE5qOxdsGb2SntNXstk35ba)" vector-effect="non-scaling-stroke" stroke-width="0.5" stroke="rgb(255,255,255)" stroke-linejoin="miter" stroke-linecap="butt" stroke-miterlimit="10"/><mask id="_mask_EDxEW1C6w4OK2peojJ8BfBuROdTF6G3F" x="-200%" y="-200%" width="400%" height="400%"><rect x="-200%" y="-200%" width="400%" height="400%" style="fill:white;"/><line x1="1.942" y1="10.22" x2="1.942" y2="19.8" fill="black" stroke="none"/></mask><line x1="1.942" y1="10.22" x2="1.942" y2="19.8" mask="url(#_mask_EDxEW1C6w4OK2peojJ8BfBuROdTF6G3F)" vector-effect="non-scaling-stroke" stroke-width="0.5" stroke="rgb(255,255,255)" stroke-linejoin="miter" stroke-linecap="butt" stroke-miterlimit="10"/></g></g><g clip-path="url(#_clipPath_QWiUxH2lGzheFBsJ2WC0lDTOhwXqbM5J)"><text transform="matrix(1,0,0,1,93.187,20.629)" style="font-family:'Open Sans';font-weight:400;font-size:14px;font-style:normal;fill:#000000;stroke:none;">AstraZeneca &#x3E; 1ra. dosis</text></g><defs><clipPath id="_clipPath_QWiUxH2lGzheFBsJ2WC0lDTOhwXqbM5J"><rect x="0" y="0" width="175.87" height="20.67" transform="matrix(1,0,0,1,93.187,5.665)"/></clipPath></defs></g></g><g><g><g><g><path d=" M 19.712 104.98 C 20.993 105.42 22.112 105.7 23.712 106.19 C 23.112 114.04 15.693 110.92 19.712 104.98 Z  M 26.343 97.78 C 26.253 95.42 25.843 92.33 22.532 92.78 C 20.983 93.19 19.843 94.89 19.302 97.78 C 19.048 99.522 19.126 101.297 19.532 103.01 C 19.843 104.01 19.743 103.91 20.083 104.09 C 21.403 104.39 22.712 104.72 24.083 105.09 C 25.413 104.18 26.522 99.09 26.343 97.78 Z  M 16.142 97.6 C 16.545 95.883 16.62 94.105 16.363 92.36 C 15.823 89.42 14.682 87.72 13.132 87.36 C 9.833 86.87 9.412 89.96 9.332 92.36 C 9.142 93.68 10.262 98.76 11.613 99.72 C 12.953 99.38 14.262 99.05 15.613 98.72 C 15.932 98.49 15.813 98.55 16.142 97.6 Z  M 11.932 100.7 C 12.563 108.54 19.933 105.43 15.932 99.48 C 14.682 99.92 13.552 100.2 11.932 100.7 Z " fill="rgb(29,113,184)"/><mask id="_mask_AHEKXWPplzddMwbXXaPZIJto1xz8b2j6" x="-200%" y="-200%" width="400%" height="400%"><rect x="-200%" y="-200%" width="400%" height="400%" style="fill:white;"/><line x1="34.173" y1="89.22" x2="34.173" y2="98.8" fill="black" stroke="none"/></mask><line x1="34.173" y1="89.22" x2="34.173" y2="98.8" mask="url(#_mask_AHEKXWPplzddMwbXXaPZIJto1xz8b2j6)" vector-effect="non-scaling-stroke" stroke-width="0.5" stroke="rgb(255,255,255)" stroke-linejoin="miter" stroke-linecap="butt" stroke-miterlimit="10"/><mask id="_mask_CD9vEUtKnTUpINUAdHdZnzpy0fdDeQmP" x="-200%" y="-200%" width="400%" height="400%"><rect x="-200%" y="-200%" width="400%" height="400%" style="fill:white;"/><line x1="13.163" y1="79" x2="22.743" y2="79" fill="black" stroke="none"/></mask><line x1="13.163" y1="79" x2="22.743" y2="79" mask="url(#_mask_CD9vEUtKnTUpINUAdHdZnzpy0fdDeQmP)" vector-effect="non-scaling-stroke" stroke-width="0.5" stroke="rgb(255,255,255)" stroke-linejoin="miter" stroke-linecap="butt" stroke-miterlimit="10"/><mask id="_mask_pbY8I6NKmZz1fQX6kF60rqjZEhuW9hS3" x="-200%" y="-200%" width="400%" height="400%"><rect x="-200%" y="-200%" width="400%" height="400%" style="fill:white;"/><line x1="1.942" y1="89.22" x2="1.942" y2="98.8" fill="black" stroke="none"/></mask><line x1="1.942" y1="89.22" x2="1.942" y2="98.8" mask="url(#_mask_pbY8I6NKmZz1fQX6kF60rqjZEhuW9hS3)" vector-effect="non-scaling-stroke" stroke-width="0.5" stroke="rgb(255,255,255)" stroke-linejoin="miter" stroke-linecap="butt" stroke-miterlimit="10"/></g></g><g clip-path="url(#_clipPath_B6Z3xHMDrhciSkHpc2RJrx7fo4Nb5wfh)"><text transform="matrix(1,0,0,1,93.187,99.629)" style="font-family:'Open Sans';font-weight:400;font-size:14px;font-style:normal;fill:#000000;stroke:none;">AstraZeneca &#x3E; 2da. dosis</text></g><defs><clipPath id="_clipPath_B6Z3xHMDrhciSkHpc2RJrx7fo4Nb5wfh"><rect x="0" y="0" width="175.87" height="20.67" transform="matrix(1,0,0,1,93.187,84.665)"/></clipPath></defs><g><g><circle vector-effect="non-scaling-stroke" cx="48.907500002291286" cy="82.99980989668299" r="4" fill="rgb(0,0,0)"/><path d=" M 51.998 89 L 50.908 89 C 50.642 88.998 50.386 89.103 50.197 89.29 L 48.908 90.58 L 47.618 89.29 C 47.426 89.107 47.172 89.003 46.908 89 L 45.808 89 C 44.777 88.995 43.911 89.774 43.807 90.8 L 42.908 99.9 C 42.881 100.182 42.976 100.462 43.167 100.67 C 43.357 100.879 43.625 100.999 43.908 101 L 44.997 101 L 45.818 109.2 C 45.921 110.226 46.787 111.005 47.817 111 L 49.998 111 C 51.028 111.005 51.894 110.226 51.998 109.2 L 52.807 101 L 53.908 101 C 54.19 100.999 54.458 100.879 54.647 100.67 C 54.839 100.462 54.934 100.182 54.908 99.9 L 53.998 90.8 C 53.894 89.774 53.028 88.995 51.998 89 Z " fill="rgb(0,0,0)"/><circle vector-effect="non-scaling-stroke" cx="62.907500002291286" cy="82.99980989668299" r="4" fill="rgb(0,0,0)"/><path d=" M 67.287 99 L 67.908 99 C 68.197 99.002 68.473 98.879 68.665 98.663 C 68.857 98.446 68.945 98.157 68.908 97.87 L 68.008 90.78 C 67.895 89.762 67.032 88.994 66.008 89 L 59.807 89 C 58.787 88.993 57.925 89.756 57.807 90.77 L 56.908 97.87 C 56.87 98.157 56.958 98.446 57.15 98.663 C 57.342 98.879 57.618 99.002 57.908 99 L 58.517 99 L 56.958 103.68 C 56.857 103.985 56.909 104.32 57.097 104.58 C 57.284 104.842 57.586 104.998 57.908 105 L 59.057 105 L 59.778 109.33 C 59.94 110.304 60.79 111.013 61.778 111 L 64.078 111 C 65.065 111.013 65.915 110.304 66.078 109.33 L 66.758 105 L 67.908 105 C 68.229 104.998 68.531 104.842 68.717 104.58 C 68.906 104.32 68.958 103.985 68.858 103.68 L 67.287 99 Z " fill="rgb(0,0,0)"/><path d=" M 52.187 109.49 L 59.578 109.49 C 59.908 109.449 60.156 109.168 60.156 108.835 C 60.156 108.502 59.908 108.221 59.578 108.18 L 57.718 108.18 L 57.718 104.85 L 59.567 104.85 C 59.898 104.809 60.146 104.528 60.146 104.195 C 60.146 103.862 59.898 103.581 59.567 103.54 L 58.637 103.54 L 58.637 90.33 L 57.708 90.33 L 56.777 87.56 L 56.508 87.56 L 56.508 81.09 C 56.467 80.759 56.186 80.511 55.852 80.511 C 55.519 80.511 55.238 80.759 55.197 81.09 L 55.197 87.55 L 54.908 87.55 L 53.998 90.32 L 53.067 90.32 L 53.067 103.52 L 52.168 103.52 C 51.809 103.52 51.517 103.811 51.517 104.17 C 51.517 104.529 51.809 104.82 52.168 104.82 L 54.017 104.82 L 54.017 108.13 L 52.178 108.13 C 52.004 108.13 51.838 108.2 51.718 108.324 C 51.597 108.449 51.532 108.617 51.538 108.79 C 51.524 108.971 51.586 109.149 51.709 109.282 C 51.833 109.415 52.006 109.49 52.187 109.49 Z  M 56.067 93.14 C 56.077 92.967 56.148 92.804 56.267 92.68 C 56.391 92.559 56.555 92.487 56.727 92.48 L 57.968 92.48 L 57.968 93.77 L 56.727 93.77 C 56.367 93.77 56.073 93.48 56.067 93.12 L 56.067 93.14 Z  M 56.067 95.82 C 56.067 95.461 56.359 95.17 56.718 95.17 L 57.958 95.17 L 57.958 96.46 L 56.737 96.46 C 56.564 96.465 56.396 96.4 56.272 96.28 C 56.148 96.159 56.077 95.993 56.078 95.82 L 56.067 95.82 Z  M 56.067 98.5 C 56.067 98.141 56.359 97.85 56.718 97.85 L 57.958 97.85 L 57.958 99.14 L 56.748 99.14 C 56.387 99.14 56.093 98.85 56.088 98.49 L 56.067 98.5 Z  M 56.067 101.18 C 56.062 100.83 56.338 100.541 56.687 100.53 L 57.947 100.53 L 57.947 101.82 L 56.758 101.82 C 56.402 101.82 56.113 101.535 56.107 101.18 L 56.067 101.18 Z " fill="rgb(0,0,0)" vector-effect="non-scaling-stroke" stroke-width="2" stroke="rgb(255,255,255)" stroke-linejoin="miter" stroke-linecap="butt" stroke-miterlimit="10"/><path d=" M 52.187 109.49 L 59.578 109.49 C 59.908 109.449 60.156 109.168 60.156 108.835 C 60.156 108.502 59.908 108.221 59.578 108.18 L 57.718 108.18 L 57.718 104.85 L 59.567 104.85 C 59.898 104.809 60.146 104.528 60.146 104.195 C 60.146 103.862 59.898 103.581 59.567 103.54 L 58.637 103.54 L 58.637 90.33 L 57.708 90.33 L 56.777 87.56 L 56.508 87.56 L 56.508 81.09 C 56.467 80.759 56.186 80.511 55.852 80.511 C 55.519 80.511 55.238 80.759 55.197 81.09 L 55.197 87.55 L 54.908 87.55 L 53.998 90.32 L 53.067 90.32 L 53.067 103.52 L 52.168 103.52 C 51.809 103.52 51.517 103.811 51.517 104.17 C 51.517 104.529 51.809 104.82 52.168 104.82 L 54.017 104.82 L 54.017 108.13 L 52.178 108.13 C 52.004 108.13 51.838 108.2 51.718 108.324 C 51.597 108.449 51.532 108.617 51.538 108.79 C 51.524 108.971 51.586 109.149 51.709 109.282 C 51.833 109.415 52.006 109.49 52.187 109.49 Z  M 56.067 93.14 C 56.077 92.967 56.148 92.804 56.267 92.68 C 56.391 92.559 56.555 92.487 56.727 92.48 L 57.968 92.48 L 57.968 93.77 L 56.727 93.77 C 56.367 93.77 56.073 93.48 56.067 93.12 L 56.067 93.14 Z  M 56.067 95.82 C 56.067 95.461 56.359 95.17 56.718 95.17 L 57.958 95.17 L 57.958 96.46 L 56.737 96.46 C 56.564 96.465 56.396 96.4 56.272 96.28 C 56.148 96.159 56.077 95.993 56.078 95.82 L 56.067 95.82 Z  M 56.067 98.5 C 56.067 98.141 56.359 97.85 56.718 97.85 L 57.958 97.85 L 57.958 99.14 L 56.748 99.14 C 56.387 99.14 56.093 98.85 56.088 98.49 L 56.067 98.5 Z  M 56.067 101.18 C 56.062 100.83 56.338 100.541 56.687 100.53 L 57.947 100.53 L 57.947 101.82 L 56.758 101.82 C 56.402 101.82 56.113 101.535 56.107 101.18 L 56.067 101.18 Z " fill="rgb(0,0,0)"/><g clip-path="url(#_clipPath_B4v6mj2wmZqFfWCsToKibIA5H03oXs68)"><text transform="matrix(1,0,0,1,45.908,97.84)" style="font-family:'Open Sans';font-weight:400;font-size:10px;font-style:normal;font-variant-ligatures:none;fill:[Object GRGBColor];stroke:none;">1</text></g><defs><clipPath id="_clipPath_B4v6mj2wmZqFfWCsToKibIA5H03oXs68"><rect x="0" y="0" width="8" height="13.618" transform="matrix(1,0,0,1,45.908,87.151)"/></clipPath></defs><g clip-path="url(#_clipPath_WDbM137POyriULoaqgIFP7lH1fFWSjii)"><text transform="matrix(1,0,0,1,60.618,98.5)" style="font-family:'Open Sans';font-weight:400;font-size:10px;font-style:normal;font-variant-ligatures:none;fill:[Object GRGBColor];stroke:none;">D</text></g><defs><clipPath id="_clipPath_WDbM137POyriULoaqgIFP7lH1fFWSjii"><rect x="0" y="0" width="10" height="13.618" transform="matrix(1,0,0,1,60.618,87.811)"/></clipPath></defs><mask id="_mask_UPnEu8HUZCv6YCu55IEwKCrQmYvquKiZ" x="-200%" y="-200%" width="400%" height="400%"><rect x="-200%" y="-200%" width="400%" height="400%" style="fill:white;"/><line x1="82.908" y1="92.48" x2="82.908" y2="102.06" fill="black" stroke="none"/></mask><line x1="82.908" y1="92.48" x2="82.908" y2="102.06" mask="url(#_mask_UPnEu8HUZCv6YCu55IEwKCrQmYvquKiZ)" vector-effect="non-scaling-stroke" stroke-width="0.5" stroke="rgb(255,255,255)" stroke-linejoin="miter" stroke-linecap="butt" stroke-miterlimit="10"/></g></g></g></g><g><g><g><circle vector-effect="non-scaling-stroke" cx="49.19180863945414" cy="44.17415353903584" r="4" fill="rgb(0,0,0)"/><path d=" M 52.282 50.174 L 51.192 50.174 C 50.926 50.173 50.671 50.277 50.482 50.464 L 49.192 51.754 L 47.902 50.464 C 47.71 50.281 47.457 50.178 47.192 50.174 L 46.092 50.174 C 45.061 50.169 44.195 50.948 44.092 51.974 L 43.192 61.074 C 43.166 61.356 43.26 61.636 43.452 61.844 C 43.641 62.054 43.91 62.173 44.192 62.174 L 45.282 62.174 L 46.102 70.374 C 46.205 71.4 47.071 72.179 48.102 72.174 L 50.282 72.174 C 51.313 72.179 52.179 71.4 52.282 70.374 L 53.092 62.174 L 54.192 62.174 C 54.474 62.173 54.743 62.054 54.932 61.844 C 55.124 61.636 55.218 61.356 55.192 61.074 L 54.282 51.974 C 54.179 50.948 53.313 50.169 52.282 50.174 Z " fill="rgb(0,0,0)"/><circle vector-effect="non-scaling-stroke" cx="61.19180863945414" cy="44.17415353903584" r="4" fill="rgb(0,0,0)"/><path d=" M 65.582 60.174 L 66.192 60.174 C 66.481 60.177 66.757 60.054 66.949 59.837 C 67.141 59.62 67.229 59.331 67.192 59.044 L 66.292 51.954 C 66.179 50.936 65.316 50.168 64.292 50.174 L 58.092 50.174 C 57.071 50.167 56.209 50.93 56.092 51.944 L 55.192 59.044 C 55.154 59.331 55.243 59.62 55.434 59.837 C 55.626 60.054 55.902 60.177 56.192 60.174 L 56.802 60.174 L 55.242 64.854 C 55.141 65.159 55.193 65.494 55.382 65.754 C 55.568 66.016 55.87 66.173 56.192 66.174 L 57.342 66.174 L 58.062 70.504 C 58.225 71.478 59.074 72.188 60.062 72.174 L 62.362 72.174 C 63.349 72.188 64.199 71.478 64.362 70.504 L 65.042 66.174 L 66.192 66.174 C 66.514 66.173 66.815 66.016 67.002 65.754 C 67.19 65.494 67.242 65.159 67.142 64.854 L 65.582 60.174 Z " fill="rgb(0,0,0)"/><g clip-path="url(#_clipPath_GbrdLEZcPWJ0NOifRas2ByAiUPm3QoWh)"><text transform="matrix(1,0,0,1,66.152,50.394)" style="font-family:'Open Sans';font-weight:400;font-size:10px;font-style:normal;font-variant-ligatures:none;fill:[Object GRGBColor];stroke:none;">18+</text></g><defs><clipPath id="_clipPath_GbrdLEZcPWJ0NOifRas2ByAiUPm3QoWh"><rect x="0" y="0" width="20" height="13.618" transform="matrix(1,0,0,1,66.152,39.706)"/></clipPath></defs></g></g><g><g><path d=" M 19.712 63.98 C 20.993 64.42 22.112 64.7 23.712 65.19 C 23.112 73.04 15.693 69.92 19.712 63.98 Z  M 26.343 56.78 C 26.253 54.42 25.843 51.33 22.532 51.78 C 20.983 52.19 19.843 53.89 19.302 56.78 C 19.048 58.522 19.126 60.297 19.532 62.01 C 19.843 63.01 19.743 62.91 20.083 63.09 C 21.403 63.39 22.712 63.72 24.083 64.09 C 25.413 63.18 26.522 58.09 26.343 56.78 Z  M 16.142 56.6 C 16.545 54.883 16.62 53.105 16.363 51.36 C 15.823 48.42 14.682 46.72 13.132 46.36 C 9.833 45.87 9.412 48.96 9.332 51.36 C 9.142 52.68 10.262 57.76 11.613 58.72 C 12.953 58.38 14.262 58.05 15.613 57.72 C 15.932 57.49 15.813 57.55 16.142 56.6 Z  M 11.932 59.7 C 12.563 67.54 19.933 64.43 15.932 58.48 C 14.682 58.92 13.552 59.2 11.932 59.7 Z " fill="rgb(29,113,184)"/><mask id="_mask_siwRdLtkw7ndPxScm1NNkZ5h6qjsvrly" x="-200%" y="-200%" width="400%" height="400%"><rect x="-200%" y="-200%" width="400%" height="400%" style="fill:white;"/><line x1="34.173" y1="48.22" x2="34.173" y2="57.8" fill="black" stroke="none"/></mask><line x1="34.173" y1="48.22" x2="34.173" y2="57.8" mask="url(#_mask_siwRdLtkw7ndPxScm1NNkZ5h6qjsvrly)" vector-effect="non-scaling-stroke" stroke-width="0.5" stroke="rgb(255,255,255)" stroke-linejoin="miter" stroke-linecap="butt" stroke-miterlimit="10"/><mask id="_mask_8ji5GqcdJBXhoHakVQEBzCiTwCuQnN1F" x="-200%" y="-200%" width="400%" height="400%"><rect x="-200%" y="-200%" width="400%" height="400%" style="fill:white;"/><line x1="13.163" y1="38" x2="22.743" y2="38" fill="black" stroke="none"/></mask><line x1="13.163" y1="38" x2="22.743" y2="38" mask="url(#_mask_8ji5GqcdJBXhoHakVQEBzCiTwCuQnN1F)" vector-effect="non-scaling-stroke" stroke-width="0.5" stroke="rgb(255,255,255)" stroke-linejoin="miter" stroke-linecap="butt" stroke-miterlimit="10"/><mask id="_mask_LrZbJeWJ8WzDny8CZPbF3JK0fTUtZIjy" x="-200%" y="-200%" width="400%" height="400%"><rect x="-200%" y="-200%" width="400%" height="400%" style="fill:white;"/><line x1="1.942" y1="48.22" x2="1.942" y2="57.8" fill="black" stroke="none"/></mask><line x1="1.942" y1="48.22" x2="1.942" y2="57.8" mask="url(#_mask_LrZbJeWJ8WzDny8CZPbF3JK0fTUtZIjy)" vector-effect="non-scaling-stroke" stroke-width="0.5" stroke="rgb(255,255,255)" stroke-linejoin="miter" stroke-linecap="butt" stroke-miterlimit="10"/></g></g><g><g clip-path="url(#_clipPath_5fTlzH1BnaxSQIc9rYJlQj8lj1KS4qHl)"><text transform="matrix(1,0,0,1,93.187,58.629)" style="font-family:'Open Sans';font-weight:400;font-size:14px;font-style:normal;fill:#000000;stroke:none;">AstraZeneca &#x3E; 1ra. dosis</text></g><defs><clipPath id="_clipPath_5fTlzH1BnaxSQIc9rYJlQj8lj1KS4qHl"><rect x="0" y="0" width="175.87" height="20.67" transform="matrix(1,0,0,1,93.187,43.665)"/></clipPath></defs></g></g><g><g><path d=" M 61.71 8.897 C 63.411 8.897 64.79 7.518 64.79 5.817 C 64.79 4.116 63.411 2.737 61.71 2.737 C 60.009 2.737 58.63 4.116 58.63 5.817 C 58.63 6.634 58.955 7.417 59.532 7.995 C 60.11 8.573 60.893 8.897 61.71 8.897 Z " fill="rgb(0,0,0)"/><path d=" M 68.91 19.077 C 68.91 17.547 67.32 15.077 65.55 14.697 L 65.45 14.647 L 65.45 14.647 L 65.45 13.787 C 65.44 12.574 64.849 11.44 63.86 10.737 C 63.759 10.667 63.652 10.607 63.54 10.557 L 61.7 9.737 L 61.7 9.737 C 61.176 9.496 60.554 9.669 60.23 10.147 L 56.09 16.237 C 55.713 16.763 55.829 17.494 56.35 17.877 C 56.439 17.941 56.537 17.991 56.64 18.027 L 62.83 20.347 C 62.966 20.403 63.113 20.431 63.26 20.427 C 63.759 20.423 64.202 20.107 64.37 19.637 C 64.585 19.011 64.261 18.327 63.64 18.097 L 58.89 16.327 L 60.56 13.857 L 59.77 15.997 L 63.88 17.537 C 64.682 17.821 65.161 18.644 65.012 19.481 C 64.864 20.319 64.131 20.926 63.28 20.917 C 63.068 20.912 62.859 20.871 62.66 20.797 L 57.66 18.927 L 55.8 24.837 C 55.644 25.285 55.672 25.777 55.878 26.205 C 56.084 26.632 56.452 26.961 56.9 27.117 C 57.096 27.185 57.303 27.219 57.51 27.217 L 60.19 27.217 L 60.19 33.147 C 60.143 33.729 60.427 34.287 60.925 34.593 C 61.422 34.898 62.049 34.898 62.546 34.593 C 63.043 34.287 63.327 33.729 63.28 33.147 L 63.28 27.147 L 65.95 27.147 C 66.942 27.153 67.754 26.359 67.77 25.367 C 67.768 25.163 67.734 24.961 67.67 24.767 L 67 22.737 C 68.24 21.941 68.967 20.549 68.91 19.077 Z " fill="rgb(0,0,0)"/><path d=" M 43.41 19.407 L 43.17 20.097 C 42.931 20.776 43.241 21.526 43.89 21.837 C 44.069 21.919 44.263 21.963 44.46 21.967 C 45.05 21.966 45.575 21.594 45.77 21.037 L 47.36 16.427 L 47.36 17.427 L 45.3 24.427 C 45.255 24.84 45.47 25.238 45.84 25.427 C 45.983 25.509 46.146 25.547 46.31 25.537 L 47.41 25.537 L 47.41 33.017 C 47.398 33.922 48.097 34.679 49 34.737 C 49.441 34.759 49.872 34.604 50.198 34.308 C 50.524 34.012 50.719 33.597 50.74 33.157 L 50.74 26.157 C 50.74 26.006 50.8 25.861 50.907 25.754 C 51.014 25.647 51.159 25.587 51.31 25.587 L 51.31 25.587 C 51.461 25.587 51.606 25.647 51.713 25.754 C 51.82 25.861 51.88 26.006 51.88 26.157 L 51.88 33.067 C 51.894 33.953 52.586 34.68 53.47 34.737 C 53.911 34.759 54.342 34.604 54.668 34.308 C 54.994 34.012 55.19 33.597 55.21 33.157 L 55.21 25.557 L 56.28 25.557 C 56.444 25.565 56.607 25.527 56.75 25.447 C 57.124 25.261 57.344 24.863 57.3 24.447 L 55.24 17.447 L 55.24 16.447 L 56.83 21.057 C 57.027 21.63 57.575 22.007 58.18 21.987 C 58.633 21.98 59.054 21.754 59.308 21.379 C 59.563 21.005 59.62 20.531 59.46 20.107 L 56.16 10.737 C 55.942 10.155 55.371 9.782 54.75 9.817 L 47.86 9.817 C 47.238 9.784 46.664 10.155 46.44 10.737 L 43.81 18.297" fill="rgb(0,0,0)"/><circle vector-effect="non-scaling-stroke" cx="51.330213036346414" cy="5.767039004726902" r="3.009999999999998" fill="rgb(0,0,0)"/><path d=" M 55.32 12.867 C 55.158 11.646 54.277 10.642 53.087 10.322 C 51.897 10.003 50.632 10.431 49.88 11.407 L 47.88 14.067 C 47.074 15.032 46.955 16.398 47.583 17.487 C 48.21 18.577 49.451 19.16 50.69 18.947 C 51.479 18.853 52.198 18.45 52.69 17.827 L 54.74 15.157 C 55.23 14.512 55.445 13.7 55.34 12.897 L 55.32 12.867 Z  M 53.82 11.277 C 54.913 12.121 55.119 13.69 54.28 14.787 L 53.49 15.787 L 52.79 15.737 C 52.884 15.522 52.938 15.292 52.95 15.057 C 53.221 14.968 53.468 14.817 53.67 14.617 L 53.67 14.617 C 53.794 14.711 53.971 14.686 54.065 14.562 C 54.159 14.438 54.134 14.261 54.01 14.167 L 54.01 14.167 C 54.425 13.34 54.199 12.336 53.469 11.767 C 52.74 11.199 51.711 11.224 51.01 11.827 L 51.01 11.827 C 50.88 11.746 50.708 11.781 50.62 11.907 C 50.533 12.011 50.533 12.163 50.62 12.267 L 50.62 12.267 C 50.481 12.509 50.399 12.779 50.38 13.057 C 50.177 13.129 49.985 13.23 49.81 13.357 L 49.62 12.607 L 50.32 11.737 C 51.164 10.649 52.729 10.448 53.82 11.287 L 53.82 11.277 Z  M 50.39 15.517 L 49.98 13.977 C 50.111 13.848 50.263 13.743 50.43 13.667 C 50.529 14.085 50.761 14.461 51.09 14.737 C 51.454 15.006 51.898 15.143 52.35 15.127 C 52.319 15.31 52.254 15.487 52.16 15.647 L 50.39 15.517 Z  M 52.9 12.027 C 52.68 12.413 52.712 12.893 52.98 13.247 L 53.04 13.297 C 53.136 13.376 53.274 13.376 53.37 13.297 C 53.429 13.255 53.468 13.191 53.48 13.12 C 53.491 13.048 53.473 12.975 53.43 12.917 L 53.43 12.917 C 53.3 12.747 53.281 12.517 53.38 12.327 C 53.86 12.877 53.832 13.704 53.317 14.222 C 52.802 14.739 51.975 14.769 51.423 14.292 C 50.871 13.814 50.783 12.991 51.22 12.407 L 51.22 12.407 C 51.625 11.893 52.332 11.731 52.92 12.017 L 52.92 12.017 L 52.9 12.027 Z  M 49.21 13.197 L 49.8 15.437 L 47.86 15.277 C 47.938 14.961 48.081 14.665 48.28 14.407 L 49.21 13.197 Z  M 48.73 17.907 C 48.076 17.419 47.703 16.642 47.73 15.827 L 47.73 15.827 L 53.07 16.327 L 52.19 17.447 C 51.792 17.972 51.201 18.316 50.548 18.404 C 49.895 18.492 49.234 18.317 48.71 17.917 L 48.71 17.917 L 48.73 17.907 Z " fill="rgb(244,244,244)"/><g clip-path="url(#_clipPath_UYesNyAx4Re5U15Gqp56ab5HTQ26mZXv)"><text transform="matrix(1,0,0,1,65.91,11.867)" style="font-family:'Open Sans';font-weight:400;font-size:10px;font-style:normal;font-variant-ligatures:none;fill:[Object GRGBColor];stroke:none;">18+</text></g><defs><clipPath id="_clipPath_UYesNyAx4Re5U15Gqp56ab5HTQ26mZXv"><rect x="0" y="0" width="20" height="13.618" transform="matrix(1,0,0,1,65.91,1.179)"/></clipPath></defs></g></g></g></svg>