<?xml version="1.0" encoding="UTF-8" standalone="no"?><!-- Generator: Gravit.io --><svg xmlns="http://www.w3.org/2000/svg" xmlns:xlink="http://www.w3.org/1999/xlink" style="isolation:isolate" viewBox="0 0 265 80" width="265pt" height="80pt"><defs><clipPath id="_clipPath_X1uKZKUzGNAdaGcbFT7QGtZDELK3qIza"><rect width="265" height="80"/></clipPath></defs><g clip-path="url(#_clipPath_X1uKZKUzGNAdaGcbFT7QGtZDELK3qIza)"><g><g><g/></g></g><g><g><g/></g></g><g><g><g/></g><g><g><g><g><g><mask id="_mask_e46SwkNp11kc1jgAzHzl2kZsBGTnlqzN" x="-200%" y="-200%" width="400%" height="400%"><rect x="-200%" y="-200%" width="400%" height="400%" style="fill:white;"/><line x1="13.163" y1="83" x2="22.743" y2="83" fill="black" stroke="none"/></mask><line x1="13.163" y1="83" x2="22.743" y2="83" mask="url(#_mask_e46SwkNp11kc1jgAzHzl2kZsBGTnlqzN)" vector-effect="non-scaling-stroke" stroke-width="0.5" stroke="rgb(255,255,255)" stroke-linejoin="miter" stroke-linecap="butt" stroke-miterlimit="10"/><path d=" M 19.712 68.98 C 20.993 69.42 22.112 69.7 23.712 70.19 C 23.112 78.04 15.693 74.92 19.712 68.98 Z  M 26.343 61.78 C 26.253 59.42 25.843 56.33 22.532 56.78 C 20.983 57.19 19.843 58.89 19.302 61.78 C 19.048 63.522 19.126 65.297 19.532 67.01 C 19.843 68.01 19.743 67.91 20.083 68.09 C 21.403 68.39 22.712 68.72 24.083 69.09 C 25.413 68.18 26.522 63.09 26.343 61.78 Z  M 16.142 61.6 C 16.545 59.883 16.62 58.105 16.363 56.36 C 15.823 53.42 14.682 51.72 13.132 51.36 C 9.833 50.87 9.412 53.96 9.332 56.36 C 9.142 57.68 10.262 62.76 11.613 63.72 C 12.953 63.38 14.262 63.05 15.613 62.72 C 15.932 62.49 15.813 62.55 16.142 61.6 Z  M 11.932 64.7 C 12.563 72.54 19.933 69.43 15.932 63.48 C 14.682 63.92 13.552 64.2 11.932 64.7 Z " fill="rgb(29,113,184)"/><mask id="_mask_yWhguXyzViMi7RR3eU1awJYJuvp7nI8b" x="-200%" y="-200%" width="400%" height="400%"><rect x="-200%" y="-200%" width="400%" height="400%" style="fill:white;"/><line x1="34.173" y1="53.22" x2="34.173" y2="62.8" fill="black" stroke="none"/></mask><line x1="34.173" y1="53.22" x2="34.173" y2="62.8" mask="url(#_mask_yWhguXyzViMi7RR3eU1awJYJuvp7nI8b)" vector-effect="non-scaling-stroke" stroke-width="0.5" stroke="rgb(255,255,255)" stroke-linejoin="miter" stroke-linecap="butt" stroke-miterlimit="10"/><mask id="_mask_hUksNQq3xAwKUF9L8lXry6a4HCZHQPU1" x="-200%" y="-200%" width="400%" height="400%"><rect x="-200%" y="-200%" width="400%" height="400%" style="fill:white;"/><line x1="13.163" y1="43" x2="22.743" y2="43" fill="black" stroke="none"/></mask><line x1="13.163" y1="43" x2="22.743" y2="43" mask="url(#_mask_hUksNQq3xAwKUF9L8lXry6a4HCZHQPU1)" vector-effect="non-scaling-stroke" stroke-width="0.5" stroke="rgb(255,255,255)" stroke-linejoin="miter" stroke-linecap="butt" stroke-miterlimit="10"/><mask id="_mask_OFk4bHkbUUiNBL4hCATUNAl1IdhbCkxf" x="-200%" y="-200%" width="400%" height="400%"><rect x="-200%" y="-200%" width="400%" height="400%" style="fill:white;"/><line x1="1.942" y1="53.22" x2="1.942" y2="62.8" fill="black" stroke="none"/></mask><line x1="1.942" y1="53.22" x2="1.942" y2="62.8" mask="url(#_mask_OFk4bHkbUUiNBL4hCATUNAl1IdhbCkxf)" vector-effect="non-scaling-stroke" stroke-width="0.5" stroke="rgb(255,255,255)" stroke-linejoin="miter" stroke-linecap="butt" stroke-miterlimit="10"/><g clip-path="url(#_clipPath_4KzP3qx6SPTqbHNL6yu7XzTABIfqdCHk)"><text transform="matrix(1,0,0,1,87.187,63.629)" style="font-family:'Open Sans';font-weight:400;font-size:14px;font-style:normal;fill:#000000;stroke:none;">Moderna &#x3E; 2da. dosis</text></g><defs><clipPath id="_clipPath_4KzP3qx6SPTqbHNL6yu7XzTABIfqdCHk"><rect x="0" y="0" width="175.87" height="20.67" transform="matrix(1,0,0,1,87.187,48.665)"/></clipPath></defs><circle vector-effect="non-scaling-stroke" cx="42.907500002291286" cy="46.999809896683" r="4" fill="rgb(0,0,0)"/><path d=" M 45.998 53 L 44.908 53 C 44.642 52.998 44.386 53.103 44.197 53.29 L 42.908 54.58 L 41.618 53.29 C 41.426 53.107 41.172 53.003 40.908 53 L 39.808 53 C 38.777 52.995 37.911 53.774 37.807 54.8 L 36.908 63.9 C 36.881 64.182 36.976 64.462 37.167 64.67 C 37.357 64.879 37.625 64.999 37.908 65 L 38.997 65 L 39.818 73.2 C 39.921 74.226 40.787 75.005 41.817 75 L 43.998 75 C 45.028 75.005 45.894 74.226 45.998 73.2 L 46.807 65 L 47.908 65 C 48.19 64.999 48.458 64.879 48.647 64.67 C 48.839 64.462 48.934 64.182 48.908 63.9 L 47.998 54.8 C 47.894 53.774 47.028 52.995 45.998 53 Z " fill="rgb(0,0,0)"/><circle vector-effect="non-scaling-stroke" cx="56.907500002291286" cy="46.999809896683" r="4" fill="rgb(0,0,0)"/><path d=" M 61.287 63 L 61.908 63 C 62.197 63.002 62.473 62.879 62.665 62.663 C 62.857 62.446 62.945 62.157 62.908 61.87 L 62.008 54.78 C 61.895 53.762 61.032 52.994 60.008 53 L 53.807 53 C 52.787 52.993 51.925 53.756 51.807 54.77 L 50.908 61.87 C 50.87 62.157 50.958 62.446 51.15 62.663 C 51.342 62.879 51.618 63.002 51.908 63 L 52.517 63 L 50.958 67.68 C 50.857 67.985 50.909 68.32 51.097 68.58 C 51.284 68.842 51.586 68.998 51.908 69 L 53.057 69 L 53.778 73.33 C 53.94 74.304 54.79 75.013 55.778 75 L 58.078 75 C 59.065 75.013 59.915 74.304 60.078 73.33 L 60.758 69 L 61.908 69 C 62.229 68.998 62.531 68.842 62.717 68.58 C 62.906 68.32 62.958 67.985 62.858 67.68 L 61.287 63 Z " fill="rgb(0,0,0)"/><path d=" M 46.187 73.49 L 53.578 73.49 C 53.908 73.449 54.156 73.168 54.156 72.835 C 54.156 72.502 53.908 72.221 53.578 72.18 L 51.718 72.18 L 51.718 68.85 L 53.567 68.85 C 53.898 68.809 54.146 68.528 54.146 68.195 C 54.146 67.862 53.898 67.581 53.567 67.54 L 52.637 67.54 L 52.637 54.33 L 51.708 54.33 L 50.777 51.56 L 50.508 51.56 L 50.508 45.09 C 50.467 44.759 50.186 44.511 49.852 44.511 C 49.519 44.511 49.238 44.759 49.197 45.09 L 49.197 51.55 L 48.908 51.55 L 47.998 54.32 L 47.067 54.32 L 47.067 67.52 L 46.168 67.52 C 45.809 67.52 45.517 67.811 45.517 68.17 C 45.517 68.529 45.809 68.82 46.168 68.82 L 48.017 68.82 L 48.017 72.13 L 46.178 72.13 C 46.004 72.13 45.838 72.2 45.718 72.324 C 45.597 72.449 45.532 72.617 45.538 72.79 C 45.524 72.971 45.586 73.149 45.709 73.282 C 45.833 73.415 46.006 73.49 46.187 73.49 Z  M 50.067 57.14 C 50.077 56.967 50.148 56.804 50.267 56.68 C 50.391 56.559 50.555 56.487 50.727 56.48 L 51.968 56.48 L 51.968 57.77 L 50.727 57.77 C 50.367 57.77 50.073 57.48 50.067 57.12 L 50.067 57.14 Z  M 50.067 59.82 C 50.067 59.461 50.359 59.17 50.718 59.17 L 51.958 59.17 L 51.958 60.46 L 50.737 60.46 C 50.564 60.465 50.396 60.4 50.272 60.28 C 50.148 60.159 50.077 59.993 50.078 59.82 L 50.067 59.82 Z  M 50.067 62.5 C 50.067 62.141 50.359 61.85 50.718 61.85 L 51.958 61.85 L 51.958 63.14 L 50.748 63.14 C 50.387 63.14 50.093 62.85 50.088 62.49 L 50.067 62.5 Z  M 50.067 65.18 C 50.062 64.83 50.338 64.541 50.687 64.53 L 51.947 64.53 L 51.947 65.82 L 50.758 65.82 C 50.402 65.82 50.113 65.535 50.107 65.18 L 50.067 65.18 Z " fill="rgb(0,0,0)" vector-effect="non-scaling-stroke" stroke-width="2" stroke="rgb(255,255,255)" stroke-linejoin="miter" stroke-linecap="butt" stroke-miterlimit="10"/><path d=" M 46.187 73.49 L 53.578 73.49 C 53.908 73.449 54.156 73.168 54.156 72.835 C 54.156 72.502 53.908 72.221 53.578 72.18 L 51.718 72.18 L 51.718 68.85 L 53.567 68.85 C 53.898 68.809 54.146 68.528 54.146 68.195 C 54.146 67.862 53.898 67.581 53.567 67.54 L 52.637 67.54 L 52.637 54.33 L 51.708 54.33 L 50.777 51.56 L 50.508 51.56 L 50.508 45.09 C 50.467 44.759 50.186 44.511 49.852 44.511 C 49.519 44.511 49.238 44.759 49.197 45.09 L 49.197 51.55 L 48.908 51.55 L 47.998 54.32 L 47.067 54.32 L 47.067 67.52 L 46.168 67.52 C 45.809 67.52 45.517 67.811 45.517 68.17 C 45.517 68.529 45.809 68.82 46.168 68.82 L 48.017 68.82 L 48.017 72.13 L 46.178 72.13 C 46.004 72.13 45.838 72.2 45.718 72.324 C 45.597 72.449 45.532 72.617 45.538 72.79 C 45.524 72.971 45.586 73.149 45.709 73.282 C 45.833 73.415 46.006 73.49 46.187 73.49 Z  M 50.067 57.14 C 50.077 56.967 50.148 56.804 50.267 56.68 C 50.391 56.559 50.555 56.487 50.727 56.48 L 51.968 56.48 L 51.968 57.77 L 50.727 57.77 C 50.367 57.77 50.073 57.48 50.067 57.12 L 50.067 57.14 Z  M 50.067 59.82 C 50.067 59.461 50.359 59.17 50.718 59.17 L 51.958 59.17 L 51.958 60.46 L 50.737 60.46 C 50.564 60.465 50.396 60.4 50.272 60.28 C 50.148 60.159 50.077 59.993 50.078 59.82 L 50.067 59.82 Z  M 50.067 62.5 C 50.067 62.141 50.359 61.85 50.718 61.85 L 51.958 61.85 L 51.958 63.14 L 50.748 63.14 C 50.387 63.14 50.093 62.85 50.088 62.49 L 50.067 62.5 Z  M 50.067 65.18 C 50.062 64.83 50.338 64.541 50.687 64.53 L 51.947 64.53 L 51.947 65.82 L 50.758 65.82 C 50.402 65.82 50.113 65.535 50.107 65.18 L 50.067 65.18 Z " fill="rgb(0,0,0)"/><g clip-path="url(#_clipPath_Y8BuUcIHn6zhJH1725iy2n4YDVU8Mw8E)"><text transform="matrix(1,0,0,1,39.908,61.84)" style="font-family:'Open Sans';font-weight:400;font-size:10px;font-style:normal;font-variant-ligatures:none;fill:[Object GRGBColor];stroke:none;">1</text></g><defs><clipPath id="_clipPath_Y8BuUcIHn6zhJH1725iy2n4YDVU8Mw8E"><rect x="0" y="0" width="8" height="13.618" transform="matrix(1,0,0,1,39.908,51.151)"/></clipPath></defs><g clip-path="url(#_clipPath_bpPppKRyz3crBqneJ9HQmEjUkYIVBzcE)"><text transform="matrix(1,0,0,1,54.618,62.5)" style="font-family:'Open Sans';font-weight:400;font-size:10px;font-style:normal;font-variant-ligatures:none;fill:[Object GRGBColor];stroke:none;">D</text></g><defs><clipPath id="_clipPath_bpPppKRyz3crBqneJ9HQmEjUkYIVBzcE"><rect x="0" y="0" width="10" height="13.618" transform="matrix(1,0,0,1,54.618,51.811)"/></clipPath></defs><mask id="_mask_9xHBfANlUV4IszJMscLyNUAdY70BWVVa" x="-200%" y="-200%" width="400%" height="400%"><rect x="-200%" y="-200%" width="400%" height="400%" style="fill:white;"/><line x1="76.908" y1="56.48" x2="76.908" y2="66.06" fill="black" stroke="none"/></mask><line x1="76.908" y1="56.48" x2="76.908" y2="66.06" mask="url(#_mask_9xHBfANlUV4IszJMscLyNUAdY70BWVVa)" vector-effect="non-scaling-stroke" stroke-width="0.5" stroke="rgb(255,255,255)" stroke-linejoin="miter" stroke-linecap="butt" stroke-miterlimit="10"/><mask id="_mask_JJUKBmQichw4NkcKlbVoacKTSXEpIpOA" x="-200%" y="-200%" width="400%" height="400%"><rect x="-200%" y="-200%" width="400%" height="400%" style="fill:white;"/><line x1="13.163" y1="44" x2="22.743" y2="44" fill="black" stroke="none"/></mask><line x1="13.163" y1="44" x2="22.743" y2="44" mask="url(#_mask_JJUKBmQichw4NkcKlbVoacKTSXEpIpOA)" vector-effect="non-scaling-stroke" stroke-width="0.5" stroke="rgb(255,255,255)" stroke-linejoin="miter" stroke-linecap="butt" stroke-miterlimit="10"/></g><path d=" M 19.712 29.98 C 20.993 30.42 22.112 30.7 23.712 31.19 C 23.112 39.04 15.693 35.92 19.712 29.98 Z  M 26.343 22.78 C 26.253 20.42 25.843 17.33 22.532 17.78 C 20.983 18.19 19.843 19.89 19.302 22.78 C 19.048 24.522 19.126 26.297 19.532 28.01 C 19.843 29.01 19.743 28.91 20.083 29.09 C 21.403 29.39 22.712 29.72 24.083 30.09 C 25.413 29.18 26.522 24.09 26.343 22.78 Z  M 16.142 22.6 C 16.545 20.883 16.62 19.105 16.363 17.36 C 15.823 14.42 14.682 12.72 13.132 12.36 C 9.833 11.87 9.412 14.96 9.332 17.36 C 9.142 18.68 10.262 23.76 11.613 24.72 C 12.953 24.38 14.262 24.05 15.613 23.72 C 15.932 23.49 15.813 23.55 16.142 22.6 Z  M 11.932 25.7 C 12.563 33.54 19.933 30.43 15.932 24.48 C 14.682 24.92 13.552 25.2 11.932 25.7 Z " fill="rgb(29,113,184)"/><mask id="_mask_MZKCRe9PcmSMABG5VBCdwpbeWknMotek" x="-200%" y="-200%" width="400%" height="400%"><rect x="-200%" y="-200%" width="400%" height="400%" style="fill:white;"/><line x1="34.173" y1="14.22" x2="34.173" y2="23.8" fill="black" stroke="none"/></mask><line x1="34.173" y1="14.22" x2="34.173" y2="23.8" mask="url(#_mask_MZKCRe9PcmSMABG5VBCdwpbeWknMotek)" vector-effect="non-scaling-stroke" stroke-width="0.5" stroke="rgb(255,255,255)" stroke-linejoin="miter" stroke-linecap="butt" stroke-miterlimit="10"/><mask id="_mask_IpcBjTTZTkOZfpLYuD2v0PoKTL6Es4Z6" x="-200%" y="-200%" width="400%" height="400%"><rect x="-200%" y="-200%" width="400%" height="400%" style="fill:white;"/><line x1="13.163" y1="4" x2="22.743" y2="4" fill="black" stroke="none"/></mask><line x1="13.163" y1="4" x2="22.743" y2="4" mask="url(#_mask_IpcBjTTZTkOZfpLYuD2v0PoKTL6Es4Z6)" vector-effect="non-scaling-stroke" stroke-width="0.5" stroke="rgb(255,255,255)" stroke-linejoin="miter" stroke-linecap="butt" stroke-miterlimit="10"/><mask id="_mask_JywaOXQSxvOaPgiMYWQKPEvTyEoIjTHM" x="-200%" y="-200%" width="400%" height="400%"><rect x="-200%" y="-200%" width="400%" height="400%" style="fill:white;"/><line x1="1.942" y1="14.22" x2="1.942" y2="23.8" fill="black" stroke="none"/></mask><line x1="1.942" y1="14.22" x2="1.942" y2="23.8" mask="url(#_mask_JywaOXQSxvOaPgiMYWQKPEvTyEoIjTHM)" vector-effect="non-scaling-stroke" stroke-width="0.5" stroke="rgb(255,255,255)" stroke-linejoin="miter" stroke-linecap="butt" stroke-miterlimit="10"/><g clip-path="url(#_clipPath_WHQynAYzpS5O7V6ms02AkCpxwCNW0TPH)"><text transform="matrix(1,0,0,1,87.187,24.629)" style="font-family:'Open Sans';font-weight:400;font-size:14px;font-style:normal;fill:#000000;stroke:none;">Sputnik V &#x3E; 2da. dosis</text></g><defs><clipPath id="_clipPath_WHQynAYzpS5O7V6ms02AkCpxwCNW0TPH"><rect x="0" y="0" width="175.87" height="20.67" transform="matrix(1,0,0,1,87.187,9.665)"/></clipPath></defs><circle vector-effect="non-scaling-stroke" cx="42.907500002291286" cy="7.999809896682997" r="4" fill="rgb(0,0,0)"/><path d=" M 45.998 14 L 44.908 14 C 44.642 13.998 44.386 14.103 44.197 14.29 L 42.908 15.58 L 41.618 14.29 C 41.426 14.107 41.172 14.003 40.908 14 L 39.808 14 C 38.777 13.995 37.911 14.774 37.807 15.8 L 36.908 24.9 C 36.881 25.182 36.976 25.462 37.167 25.67 C 37.357 25.879 37.625 25.999 37.908 26 L 38.997 26 L 39.818 34.2 C 39.921 35.226 40.787 36.005 41.817 36 L 43.998 36 C 45.028 36.005 45.894 35.226 45.998 34.2 L 46.807 26 L 47.908 26 C 48.19 25.999 48.458 25.879 48.647 25.67 C 48.839 25.462 48.934 25.182 48.908 24.9 L 47.998 15.8 C 47.894 14.774 47.028 13.995 45.998 14 Z " fill="rgb(0,0,0)"/><circle vector-effect="non-scaling-stroke" cx="56.907500002291286" cy="7.999809896682997" r="4" fill="rgb(0,0,0)"/><path d=" M 61.287 24 L 61.908 24 C 62.197 24.002 62.473 23.879 62.665 23.663 C 62.857 23.446 62.945 23.157 62.908 22.87 L 62.008 15.78 C 61.895 14.762 61.032 13.994 60.008 14 L 53.807 14 C 52.787 13.993 51.925 14.756 51.807 15.77 L 50.908 22.87 C 50.87 23.157 50.958 23.446 51.15 23.663 C 51.342 23.879 51.618 24.002 51.908 24 L 52.517 24 L 50.958 28.68 C 50.857 28.985 50.909 29.32 51.097 29.58 C 51.284 29.842 51.586 29.998 51.908 30 L 53.057 30 L 53.778 34.33 C 53.94 35.304 54.79 36.013 55.778 36 L 58.078 36 C 59.065 36.013 59.915 35.304 60.078 34.33 L 60.758 30 L 61.908 30 C 62.229 29.998 62.531 29.842 62.717 29.58 C 62.906 29.32 62.958 28.985 62.858 28.68 L 61.287 24 Z " fill="rgb(0,0,0)"/><path d=" M 46.187 34.49 L 53.578 34.49 C 53.908 34.449 54.156 34.168 54.156 33.835 C 54.156 33.502 53.908 33.221 53.578 33.18 L 51.718 33.18 L 51.718 29.85 L 53.567 29.85 C 53.898 29.809 54.146 29.528 54.146 29.195 C 54.146 28.862 53.898 28.581 53.567 28.54 L 52.637 28.54 L 52.637 15.33 L 51.708 15.33 L 50.777 12.56 L 50.508 12.56 L 50.508 6.09 C 50.467 5.759 50.186 5.511 49.852 5.511 C 49.519 5.511 49.238 5.759 49.197 6.09 L 49.197 12.55 L 48.908 12.55 L 47.998 15.32 L 47.067 15.32 L 47.067 28.52 L 46.168 28.52 C 45.809 28.52 45.517 28.811 45.517 29.17 C 45.517 29.529 45.809 29.82 46.168 29.82 L 48.017 29.82 L 48.017 33.13 L 46.178 33.13 C 46.004 33.13 45.838 33.2 45.718 33.324 C 45.597 33.449 45.532 33.617 45.538 33.79 C 45.524 33.971 45.586 34.149 45.709 34.282 C 45.833 34.415 46.006 34.49 46.187 34.49 Z  M 50.067 18.14 C 50.077 17.967 50.148 17.804 50.267 17.68 C 50.391 17.559 50.555 17.487 50.727 17.48 L 51.968 17.48 L 51.968 18.77 L 50.727 18.77 C 50.367 18.77 50.073 18.48 50.067 18.12 L 50.067 18.14 Z  M 50.067 20.82 C 50.067 20.461 50.359 20.17 50.718 20.17 L 51.958 20.17 L 51.958 21.46 L 50.737 21.46 C 50.564 21.465 50.396 21.4 50.272 21.28 C 50.148 21.159 50.077 20.993 50.078 20.82 L 50.067 20.82 Z  M 50.067 23.5 C 50.067 23.141 50.359 22.85 50.718 22.85 L 51.958 22.85 L 51.958 24.14 L 50.748 24.14 C 50.387 24.14 50.093 23.85 50.088 23.49 L 50.067 23.5 Z  M 50.067 26.18 C 50.062 25.83 50.338 25.541 50.687 25.53 L 51.947 25.53 L 51.947 26.82 L 50.758 26.82 C 50.402 26.82 50.113 26.535 50.107 26.18 L 50.067 26.18 Z " fill="rgb(0,0,0)" vector-effect="non-scaling-stroke" stroke-width="2" stroke="rgb(255,255,255)" stroke-linejoin="miter" stroke-linecap="butt" stroke-miterlimit="10"/><path d=" M 46.187 34.49 L 53.578 34.49 C 53.908 34.449 54.156 34.168 54.156 33.835 C 54.156 33.502 53.908 33.221 53.578 33.18 L 51.718 33.18 L 51.718 29.85 L 53.567 29.85 C 53.898 29.809 54.146 29.528 54.146 29.195 C 54.146 28.862 53.898 28.581 53.567 28.54 L 52.637 28.54 L 52.637 15.33 L 51.708 15.33 L 50.777 12.56 L 50.508 12.56 L 50.508 6.09 C 50.467 5.759 50.186 5.511 49.852 5.511 C 49.519 5.511 49.238 5.759 49.197 6.09 L 49.197 12.55 L 48.908 12.55 L 47.998 15.32 L 47.067 15.32 L 47.067 28.52 L 46.168 28.52 C 45.809 28.52 45.517 28.811 45.517 29.17 C 45.517 29.529 45.809 29.82 46.168 29.82 L 48.017 29.82 L 48.017 33.13 L 46.178 33.13 C 46.004 33.13 45.838 33.2 45.718 33.324 C 45.597 33.449 45.532 33.617 45.538 33.79 C 45.524 33.971 45.586 34.149 45.709 34.282 C 45.833 34.415 46.006 34.49 46.187 34.49 Z  M 50.067 18.14 C 50.077 17.967 50.148 17.804 50.267 17.68 C 50.391 17.559 50.555 17.487 50.727 17.48 L 51.968 17.48 L 51.968 18.77 L 50.727 18.77 C 50.367 18.77 50.073 18.48 50.067 18.12 L 50.067 18.14 Z  M 50.067 20.82 C 50.067 20.461 50.359 20.17 50.718 20.17 L 51.958 20.17 L 51.958 21.46 L 50.737 21.46 C 50.564 21.465 50.396 21.4 50.272 21.28 C 50.148 21.159 50.077 20.993 50.078 20.82 L 50.067 20.82 Z  M 50.067 23.5 C 50.067 23.141 50.359 22.85 50.718 22.85 L 51.958 22.85 L 51.958 24.14 L 50.748 24.14 C 50.387 24.14 50.093 23.85 50.088 23.49 L 50.067 23.5 Z  M 50.067 26.18 C 50.062 25.83 50.338 25.541 50.687 25.53 L 51.947 25.53 L 51.947 26.82 L 50.758 26.82 C 50.402 26.82 50.113 26.535 50.107 26.18 L 50.067 26.18 Z " fill="rgb(0,0,0)"/><g clip-path="url(#_clipPath_iaLr5fCnrfyr1GJNibOa39VTu0xmoNhp)"><text transform="matrix(1,0,0,1,39.908,22.84)" style="font-family:'Open Sans';font-weight:400;font-size:10px;font-style:normal;font-variant-ligatures:none;fill:[Object GRGBColor];stroke:none;">1</text></g><defs><clipPath id="_clipPath_iaLr5fCnrfyr1GJNibOa39VTu0xmoNhp"><rect x="0" y="0" width="8" height="13.618" transform="matrix(1,0,0,1,39.908,12.151)"/></clipPath></defs><g clip-path="url(#_clipPath_dM0R34Qjw9VaveA1MZcDgAnvWOk5hJvf)"><text transform="matrix(1,0,0,1,54.618,23.5)" style="font-family:'Open Sans';font-weight:400;font-size:10px;font-style:normal;font-variant-ligatures:none;fill:[Object GRGBColor];stroke:none;">D</text></g><defs><clipPath id="_clipPath_dM0R34Qjw9VaveA1MZcDgAnvWOk5hJvf"><rect x="0" y="0" width="10" height="13.618" transform="matrix(1,0,0,1,54.618,12.811)"/></clipPath></defs><mask id="_mask_qg3Ry72xswsvHxvCjoRdXVpaL2jKE0Q3" x="-200%" y="-200%" width="400%" height="400%"><rect x="-200%" y="-200%" width="400%" height="400%" style="fill:white;"/><line x1="76.908" y1="17.48" x2="76.908" y2="27.06" fill="black" stroke="none"/></mask><line x1="76.908" y1="17.48" x2="76.908" y2="27.06" mask="url(#_mask_qg3Ry72xswsvHxvCjoRdXVpaL2jKE0Q3)" vector-effect="non-scaling-stroke" stroke-width="0.5" stroke="rgb(255,255,255)" stroke-linejoin="miter" stroke-linecap="butt" stroke-miterlimit="10"/></g></g></g></g></g></g></svg>