<?xml version="1.0" encoding="UTF-8" standalone="no"?><!-- Generator: Gravit.io --><svg xmlns="http://www.w3.org/2000/svg" xmlns:xlink="http://www.w3.org/1999/xlink" style="isolation:isolate" viewBox="0 0 265 80" width="265pt" height="80pt"><defs><clipPath id="_clipPath_n5AlWkqMoLfWNNwcWckUtlYKF9xkmQgL"><rect width="265" height="80"/></clipPath></defs><g clip-path="url(#_clipPath_n5AlWkqMoLfWNNwcWckUtlYKF9xkmQgL)"><g><g><g/></g></g><g><g><g/></g></g><g><g/></g><g><g><g><g><g/><path d=" M 19.712 29.98 C 20.993 30.42 22.112 30.7 23.712 31.19 C 23.112 39.04 15.693 35.92 19.712 29.98 Z  M 26.343 22.78 C 26.253 20.42 25.843 17.33 22.532 17.78 C 20.983 18.19 19.843 19.89 19.302 22.78 C 19.048 24.522 19.126 26.297 19.532 28.01 C 19.843 29.01 19.743 28.91 20.083 29.09 C 21.403 29.39 22.712 29.72 24.083 30.09 C 25.413 29.18 26.522 24.09 26.343 22.78 Z  M 16.142 22.6 C 16.545 20.883 16.62 19.105 16.363 17.36 C 15.823 14.42 14.682 12.72 13.132 12.36 C 9.833 11.87 9.412 14.96 9.332 17.36 C 9.142 18.68 10.262 23.76 11.613 24.72 C 12.953 24.38 14.262 24.05 15.613 23.72 C 15.932 23.49 15.813 23.55 16.142 22.6 Z  M 11.932 25.7 C 12.563 33.54 19.933 30.43 15.932 24.48 C 14.682 24.92 13.552 25.2 11.932 25.7 Z " fill="rgb(29,113,184)"/><mask id="_mask_d1MMr0zdzLMf5mKFL4pcsiERjzTgS7u6" x="-200%" y="-200%" width="400%" height="400%"><rect x="-200%" y="-200%" width="400%" height="400%" style="fill:white;"/><line x1="34.173" y1="14.22" x2="34.173" y2="23.8" fill="black" stroke="none"/></mask><line x1="34.173" y1="14.22" x2="34.173" y2="23.8" mask="url(#_mask_d1MMr0zdzLMf5mKFL4pcsiERjzTgS7u6)" vector-effect="non-scaling-stroke" stroke-width="0.5" stroke="rgb(255,255,255)" stroke-linejoin="miter" stroke-linecap="butt" stroke-miterlimit="10"/><mask id="_mask_Q9o0HQD7oRERj3RMXeFQYFd1Q3sz2hXX" x="-200%" y="-200%" width="400%" height="400%"><rect x="-200%" y="-200%" width="400%" height="400%" style="fill:white;"/><line x1="13.163" y1="4" x2="22.743" y2="4" fill="black" stroke="none"/></mask><line x1="13.163" y1="4" x2="22.743" y2="4" mask="url(#_mask_Q9o0HQD7oRERj3RMXeFQYFd1Q3sz2hXX)" vector-effect="non-scaling-stroke" stroke-width="0.5" stroke="rgb(255,255,255)" stroke-linejoin="miter" stroke-linecap="butt" stroke-miterlimit="10"/><mask id="_mask_j0cwN6zzgcBOCyHuCMVgtMFTViBwRPcn" x="-200%" y="-200%" width="400%" height="400%"><rect x="-200%" y="-200%" width="400%" height="400%" style="fill:white;"/><line x1="1.942" y1="14.22" x2="1.942" y2="23.8" fill="black" stroke="none"/></mask><line x1="1.942" y1="14.22" x2="1.942" y2="23.8" mask="url(#_mask_j0cwN6zzgcBOCyHuCMVgtMFTViBwRPcn)" vector-effect="non-scaling-stroke" stroke-width="0.5" stroke="rgb(255,255,255)" stroke-linejoin="miter" stroke-linecap="butt" stroke-miterlimit="10"/><g clip-path="url(#_clipPath_AuDkXMKBquJOio3skNF2BpQEDEJBi5mM)"><text transform="matrix(1,0,0,1,87.187,24.629)" style="font-family:'Open Sans';font-weight:400;font-size:14px;font-style:normal;fill:#000000;stroke:none;">Sputnik V &#x3E; 2da. dosis</text></g><defs><clipPath id="_clipPath_AuDkXMKBquJOio3skNF2BpQEDEJBi5mM"><rect x="0" y="0" width="175.87" height="20.67" transform="matrix(1,0,0,1,87.187,9.665)"/></clipPath></defs><circle vector-effect="non-scaling-stroke" cx="42.907500002291286" cy="7.999809896682997" r="4" fill="rgb(0,0,0)"/><path d=" M 45.998 14 L 44.908 14 C 44.642 13.998 44.386 14.103 44.197 14.29 L 42.908 15.58 L 41.618 14.29 C 41.426 14.107 41.172 14.003 40.908 14 L 39.808 14 C 38.777 13.995 37.911 14.774 37.807 15.8 L 36.908 24.9 C 36.881 25.182 36.976 25.462 37.167 25.67 C 37.357 25.879 37.625 25.999 37.908 26 L 38.997 26 L 39.818 34.2 C 39.921 35.226 40.787 36.005 41.817 36 L 43.998 36 C 45.028 36.005 45.894 35.226 45.998 34.2 L 46.807 26 L 47.908 26 C 48.19 25.999 48.458 25.879 48.647 25.67 C 48.839 25.462 48.934 25.182 48.908 24.9 L 47.998 15.8 C 47.894 14.774 47.028 13.995 45.998 14 Z " fill="rgb(0,0,0)"/><circle vector-effect="non-scaling-stroke" cx="56.907500002291286" cy="7.999809896682997" r="4" fill="rgb(0,0,0)"/><path d=" M 61.287 24 L 61.908 24 C 62.197 24.002 62.473 23.879 62.665 23.663 C 62.857 23.446 62.945 23.157 62.908 22.87 L 62.008 15.78 C 61.895 14.762 61.032 13.994 60.008 14 L 53.807 14 C 52.787 13.993 51.925 14.756 51.807 15.77 L 50.908 22.87 C 50.87 23.157 50.958 23.446 51.15 23.663 C 51.342 23.879 51.618 24.002 51.908 24 L 52.517 24 L 50.958 28.68 C 50.857 28.985 50.909 29.32 51.097 29.58 C 51.284 29.842 51.586 29.998 51.908 30 L 53.057 30 L 53.778 34.33 C 53.94 35.304 54.79 36.013 55.778 36 L 58.078 36 C 59.065 36.013 59.915 35.304 60.078 34.33 L 60.758 30 L 61.908 30 C 62.229 29.998 62.531 29.842 62.717 29.58 C 62.906 29.32 62.958 28.985 62.858 28.68 L 61.287 24 Z " fill="rgb(0,0,0)"/><path d=" M 46.187 34.49 L 53.578 34.49 C 53.908 34.449 54.156 34.168 54.156 33.835 C 54.156 33.502 53.908 33.221 53.578 33.18 L 51.718 33.18 L 51.718 29.85 L 53.567 29.85 C 53.898 29.809 54.146 29.528 54.146 29.195 C 54.146 28.862 53.898 28.581 53.567 28.54 L 52.637 28.54 L 52.637 15.33 L 51.708 15.33 L 50.777 12.56 L 50.508 12.56 L 50.508 6.09 C 50.467 5.759 50.186 5.511 49.852 5.511 C 49.519 5.511 49.238 5.759 49.197 6.09 L 49.197 12.55 L 48.908 12.55 L 47.998 15.32 L 47.067 15.32 L 47.067 28.52 L 46.168 28.52 C 45.809 28.52 45.517 28.811 45.517 29.17 C 45.517 29.529 45.809 29.82 46.168 29.82 L 48.017 29.82 L 48.017 33.13 L 46.178 33.13 C 46.004 33.13 45.838 33.2 45.718 33.324 C 45.597 33.449 45.532 33.617 45.538 33.79 C 45.524 33.971 45.586 34.149 45.709 34.282 C 45.833 34.415 46.006 34.49 46.187 34.49 Z  M 50.067 18.14 C 50.077 17.967 50.148 17.804 50.267 17.68 C 50.391 17.559 50.555 17.487 50.727 17.48 L 51.968 17.48 L 51.968 18.77 L 50.727 18.77 C 50.367 18.77 50.073 18.48 50.067 18.12 L 50.067 18.14 Z  M 50.067 20.82 C 50.067 20.461 50.359 20.17 50.718 20.17 L 51.958 20.17 L 51.958 21.46 L 50.737 21.46 C 50.564 21.465 50.396 21.4 50.272 21.28 C 50.148 21.159 50.077 20.993 50.078 20.82 L 50.067 20.82 Z  M 50.067 23.5 C 50.067 23.141 50.359 22.85 50.718 22.85 L 51.958 22.85 L 51.958 24.14 L 50.748 24.14 C 50.387 24.14 50.093 23.85 50.088 23.49 L 50.067 23.5 Z  M 50.067 26.18 C 50.062 25.83 50.338 25.541 50.687 25.53 L 51.947 25.53 L 51.947 26.82 L 50.758 26.82 C 50.402 26.82 50.113 26.535 50.107 26.18 L 50.067 26.18 Z " fill="rgb(0,0,0)" vector-effect="non-scaling-stroke" stroke-width="2" stroke="rgb(255,255,255)" stroke-linejoin="miter" stroke-linecap="butt" stroke-miterlimit="10"/><path d=" M 46.187 34.49 L 53.578 34.49 C 53.908 34.449 54.156 34.168 54.156 33.835 C 54.156 33.502 53.908 33.221 53.578 33.18 L 51.718 33.18 L 51.718 29.85 L 53.567 29.85 C 53.898 29.809 54.146 29.528 54.146 29.195 C 54.146 28.862 53.898 28.581 53.567 28.54 L 52.637 28.54 L 52.637 15.33 L 51.708 15.33 L 50.777 12.56 L 50.508 12.56 L 50.508 6.09 C 50.467 5.759 50.186 5.511 49.852 5.511 C 49.519 5.511 49.238 5.759 49.197 6.09 L 49.197 12.55 L 48.908 12.55 L 47.998 15.32 L 47.067 15.32 L 47.067 28.52 L 46.168 28.52 C 45.809 28.52 45.517 28.811 45.517 29.17 C 45.517 29.529 45.809 29.82 46.168 29.82 L 48.017 29.82 L 48.017 33.13 L 46.178 33.13 C 46.004 33.13 45.838 33.2 45.718 33.324 C 45.597 33.449 45.532 33.617 45.538 33.79 C 45.524 33.971 45.586 34.149 45.709 34.282 C 45.833 34.415 46.006 34.49 46.187 34.49 Z  M 50.067 18.14 C 50.077 17.967 50.148 17.804 50.267 17.68 C 50.391 17.559 50.555 17.487 50.727 17.48 L 51.968 17.48 L 51.968 18.77 L 50.727 18.77 C 50.367 18.77 50.073 18.48 50.067 18.12 L 50.067 18.14 Z  M 50.067 20.82 C 50.067 20.461 50.359 20.17 50.718 20.17 L 51.958 20.17 L 51.958 21.46 L 50.737 21.46 C 50.564 21.465 50.396 21.4 50.272 21.28 C 50.148 21.159 50.077 20.993 50.078 20.82 L 50.067 20.82 Z  M 50.067 23.5 C 50.067 23.141 50.359 22.85 50.718 22.85 L 51.958 22.85 L 51.958 24.14 L 50.748 24.14 C 50.387 24.14 50.093 23.85 50.088 23.49 L 50.067 23.5 Z  M 50.067 26.18 C 50.062 25.83 50.338 25.541 50.687 25.53 L 51.947 25.53 L 51.947 26.82 L 50.758 26.82 C 50.402 26.82 50.113 26.535 50.107 26.18 L 50.067 26.18 Z " fill="rgb(0,0,0)"/><g clip-path="url(#_clipPath_Hi0zUCE1cgwGYzmuhySOaLuAKCyQnZwc)"><text transform="matrix(1,0,0,1,39.908,22.84)" style="font-family:'Open Sans';font-weight:400;font-size:10px;font-style:normal;font-variant-ligatures:none;fill:[Object GRGBColor];stroke:none;">1</text></g><defs><clipPath id="_clipPath_Hi0zUCE1cgwGYzmuhySOaLuAKCyQnZwc"><rect x="0" y="0" width="8" height="13.618" transform="matrix(1,0,0,1,39.908,12.151)"/></clipPath></defs><g clip-path="url(#_clipPath_XKnx2KehjQcsnf60rp4TAkpNbmg0I4wX)"><text transform="matrix(1,0,0,1,54.618,23.5)" style="font-family:'Open Sans';font-weight:400;font-size:10px;font-style:normal;font-variant-ligatures:none;fill:[Object GRGBColor];stroke:none;">D</text></g><defs><clipPath id="_clipPath_XKnx2KehjQcsnf60rp4TAkpNbmg0I4wX"><rect x="0" y="0" width="10" height="13.618" transform="matrix(1,0,0,1,54.618,12.811)"/></clipPath></defs><mask id="_mask_aG7oMKHNtKiW6SIAsRFfCgEJUL0AXcZk" x="-200%" y="-200%" width="400%" height="400%"><rect x="-200%" y="-200%" width="400%" height="400%" style="fill:white;"/><line x1="76.908" y1="17.48" x2="76.908" y2="27.06" fill="black" stroke="none"/></mask><line x1="76.908" y1="17.48" x2="76.908" y2="27.06" mask="url(#_mask_aG7oMKHNtKiW6SIAsRFfCgEJUL0AXcZk)" vector-effect="non-scaling-stroke" stroke-width="0.5" stroke="rgb(255,255,255)" stroke-linejoin="miter" stroke-linecap="butt" stroke-miterlimit="10"/></g></g></g></g><g><g><g><g><g><g/></g><g><g/><g><g><g><g clip-path="url(#_clipPath_Byw0T0v5QQ5NSenfWd036A11fdh3XJs6)"><text transform="matrix(1,0,0,1,87.187,64.629)" style="font-family:'Open Sans';font-weight:400;font-size:14px;font-style:normal;fill:#000000;stroke:none;">Pfizer &#x3E; 2da. dosis</text></g><defs><clipPath id="_clipPath_Byw0T0v5QQ5NSenfWd036A11fdh3XJs6"><rect x="0" y="0" width="175.87" height="20.67" transform="matrix(1,0,0,1,87.187,49.665)"/></clipPath></defs><mask id="_mask_EbSGRPlvLFgFOmURBeZ5AGnM2QSmiCoF" x="-200%" y="-200%" width="400%" height="400%"><rect x="-200%" y="-200%" width="400%" height="400%" style="fill:white;"/><line x1="13.163" y1="84" x2="22.743" y2="84" fill="black" stroke="none"/></mask><line x1="13.163" y1="84" x2="22.743" y2="84" mask="url(#_mask_EbSGRPlvLFgFOmURBeZ5AGnM2QSmiCoF)" vector-effect="non-scaling-stroke" stroke-width="0.5" stroke="rgb(255,255,255)" stroke-linejoin="miter" stroke-linecap="butt" stroke-miterlimit="10"/><path d=" M 19.712 69.98 C 20.993 70.42 22.112 70.7 23.712 71.19 C 23.112 79.04 15.693 75.92 19.712 69.98 Z  M 26.343 62.78 C 26.253 60.42 25.843 57.33 22.532 57.78 C 20.983 58.19 19.843 59.89 19.302 62.78 C 19.048 64.522 19.126 66.297 19.532 68.01 C 19.843 69.01 19.743 68.91 20.083 69.09 C 21.403 69.39 22.712 69.72 24.083 70.09 C 25.413 69.18 26.522 64.09 26.343 62.78 Z  M 16.142 62.6 C 16.545 60.883 16.62 59.105 16.363 57.36 C 15.823 54.42 14.682 52.72 13.132 52.36 C 9.833 51.87 9.412 54.96 9.332 57.36 C 9.142 58.68 10.262 63.76 11.613 64.72 C 12.953 64.38 14.262 64.05 15.613 63.72 C 15.932 63.49 15.813 63.55 16.142 62.6 Z  M 11.932 65.7 C 12.563 73.54 19.933 70.43 15.932 64.48 C 14.682 64.92 13.552 65.2 11.932 65.7 Z " fill="rgb(29,113,184)"/><mask id="_mask_d8Clqa0oZRhGPaZCZStG19DZaD9JCklV" x="-200%" y="-200%" width="400%" height="400%"><rect x="-200%" y="-200%" width="400%" height="400%" style="fill:white;"/><line x1="34.173" y1="54.22" x2="34.173" y2="63.8" fill="black" stroke="none"/></mask><line x1="34.173" y1="54.22" x2="34.173" y2="63.8" mask="url(#_mask_d8Clqa0oZRhGPaZCZStG19DZaD9JCklV)" vector-effect="non-scaling-stroke" stroke-width="0.5" stroke="rgb(255,255,255)" stroke-linejoin="miter" stroke-linecap="butt" stroke-miterlimit="10"/><mask id="_mask_0HNg73xRXNWv20RbkRoXoLpgoL3wpfVi" x="-200%" y="-200%" width="400%" height="400%"><rect x="-200%" y="-200%" width="400%" height="400%" style="fill:white;"/><line x1="13.163" y1="44" x2="22.743" y2="44" fill="black" stroke="none"/></mask><line x1="13.163" y1="44" x2="22.743" y2="44" mask="url(#_mask_0HNg73xRXNWv20RbkRoXoLpgoL3wpfVi)" vector-effect="non-scaling-stroke" stroke-width="0.5" stroke="rgb(255,255,255)" stroke-linejoin="miter" stroke-linecap="butt" stroke-miterlimit="10"/><mask id="_mask_uf1osMSRP08iUlgVj7JzK5rQBxY4Z1S0" x="-200%" y="-200%" width="400%" height="400%"><rect x="-200%" y="-200%" width="400%" height="400%" style="fill:white;"/><line x1="1.942" y1="54.22" x2="1.942" y2="63.8" fill="black" stroke="none"/></mask><line x1="1.942" y1="54.22" x2="1.942" y2="63.8" mask="url(#_mask_uf1osMSRP08iUlgVj7JzK5rQBxY4Z1S0)" vector-effect="non-scaling-stroke" stroke-width="0.5" stroke="rgb(255,255,255)" stroke-linejoin="miter" stroke-linecap="butt" stroke-miterlimit="10"/><mask id="_mask_BbmKdJcLvSGRYFnD5lgKdzmr56eOsXXi" x="-200%" y="-200%" width="400%" height="400%"><rect x="-200%" y="-200%" width="400%" height="400%" style="fill:white;"/><line x1="13.163" y1="45" x2="22.743" y2="45" fill="black" stroke="none"/></mask><line x1="13.163" y1="45" x2="22.743" y2="45" mask="url(#_mask_BbmKdJcLvSGRYFnD5lgKdzmr56eOsXXi)" vector-effect="non-scaling-stroke" stroke-width="0.5" stroke="rgb(255,255,255)" stroke-linejoin="miter" stroke-linecap="butt" stroke-miterlimit="10"/><mask id="_mask_CKbJjgrRfIJnqM76QlSRqiHbFAojwbSo" x="-200%" y="-200%" width="400%" height="400%"><rect x="-200%" y="-200%" width="400%" height="400%" style="fill:white;"/><line x1="34" y1="59.355" x2="34" y2="71.615" fill="black" stroke="none"/></mask><line x1="34" y1="59.355" x2="34" y2="71.615" mask="url(#_mask_CKbJjgrRfIJnqM76QlSRqiHbFAojwbSo)" vector-effect="non-scaling-stroke" stroke-width="0.5" stroke="rgb(235,252,252)" stroke-linejoin="miter" stroke-linecap="butt" stroke-miterlimit="10"/><mask id="_mask_027Sll0CLUBOu7TgmFwUFHz5H32pDDd8" x="-200%" y="-200%" width="400%" height="400%"><rect x="-200%" y="-200%" width="400%" height="400%" style="fill:white;"/><line x1="78.908" y1="57.48" x2="78.908" y2="67.06" fill="black" stroke="none"/></mask><line x1="78.908" y1="57.48" x2="78.908" y2="67.06" mask="url(#_mask_027Sll0CLUBOu7TgmFwUFHz5H32pDDd8)" vector-effect="non-scaling-stroke" stroke-width="0.5" stroke="rgb(255,255,255)" stroke-linejoin="miter" stroke-linecap="butt" stroke-miterlimit="10"/><g clip-path="url(#_clipPath_DMbrONUz8yBoFErcESNepWciR47aN7ev)"><text transform="matrix(1,0,0,1,57.68,56.625)" style="font-family:'Open Sans';font-weight:400;font-size:10px;font-style:normal;font-variant-ligatures:none;fill:[Object GRGBColor];stroke:none;">12+</text></g><defs><clipPath id="_clipPath_DMbrONUz8yBoFErcESNepWciR47aN7ev"><rect x="0" y="0" width="20" height="13.618" transform="matrix(1,0,0,1,57.68,45.936)"/></clipPath></defs><path d=" M 42.13 52.455 C 42.573 52.698 43.066 52.835 43.57 52.855 C 44.791 52.829 45.895 52.122 46.43 51.025 C 46.919 49.879 46.701 48.554 45.87 47.625 C 45.001 46.727 43.69 46.415 42.51 46.825 C 41.342 47.242 40.53 48.308 40.44 49.545 C 40.355 50.769 41.024 51.922 42.13 52.455 Z " fill="rgb(183,66,66)"/><path d=" M 47.43 49.775 C 48.012 50.316 48.786 50.604 49.58 50.575 C 50.786 50.556 51.888 49.887 52.46 48.825 C 53 47.712 52.88 46.393 52.15 45.395 C 51.396 44.429 50.164 43.965 48.96 44.195 C 47.761 44.445 46.81 45.357 46.51 46.545 C 46.218 47.709 46.569 48.94 47.43 49.775 Z " fill="rgb(0,91,231)"/><path d=" M 52.73 64.605 C 52.73 64.365 52.81 62.695 52.81 62.455 L 52.81 57.115 C 53.194 57.79 53.487 58.513 53.68 59.265 C 53.912 58.399 54.627 57.747 55.51 57.595 C 55.347 56.868 55.133 56.152 54.87 55.455 C 54.534 54.668 54.072 53.941 53.5 53.305 C 53.15 52.865 52.75 52.465 52.31 52.115 C 52.07 51.955 51.91 51.795 51.67 51.635 C 51.515 51.485 51.327 51.375 51.12 51.315 C 49.833 50.721 48.314 50.975 47.29 51.955 C 46.82 52.345 46.41 52.745 45.93 53.145 C 47.13 54.007 48.132 55.115 48.87 56.395 C 49.308 57.216 49.602 58.105 49.74 59.025 C 49.818 59.659 49.862 60.296 49.87 60.935 C 49.87 61.824 49.149 62.545 48.26 62.545 L 48.26 62.545 C 48.125 62.553 47.991 62.526 47.87 62.465 C 47.87 62.465 49.07 66.845 49.15 67.085 C 49.23 67.485 49.31 68.285 48.43 68.285 L 46.99 68.285 L 46.87 70.185 L 47.03 74.965 C 46.977 75.575 47.421 76.117 48.03 76.185 C 48.642 76.243 49.187 75.797 49.25 75.185 C 49.26 75.115 49.26 75.045 49.25 74.975 L 49.65 66.975 L 49.96 74.975 C 49.971 75.589 50.466 76.084 51.08 76.095 C 51.377 76.095 51.662 75.977 51.872 75.767 C 52.082 75.557 52.2 75.272 52.2 74.975 L 52.2 74.975 L 52.36 71.475 L 52.73 64.605 Z " fill="rgb(0,91,231)"/><path d=" M 48.18 67.955 C 48.348 67.958 48.504 67.865 48.58 67.715 C 48.694 67.582 48.725 67.397 48.66 67.235 L 46.59 59.545 L 46.59 58.345 C 46.911 58.837 47.151 59.377 47.3 59.945 C 47.38 60.345 47.46 60.815 47.54 61.215 C 47.586 61.458 47.727 61.672 47.931 61.811 C 48.136 61.95 48.387 62.002 48.63 61.955 C 49.037 61.884 49.345 61.547 49.38 61.135 L 49.38 60.265 C 49.367 59.861 49.314 59.458 49.22 59.065 C 49.038 58.232 48.742 57.427 48.34 56.675 C 47.928 55.922 47.39 55.246 46.75 54.675 C 46.439 54.381 46.105 54.114 45.75 53.875 C 45.504 53.682 45.236 53.521 44.95 53.395 L 44.87 53.395 C 44.011 52.995 43.019 52.995 42.16 53.395 C 41.87 53.506 41.602 53.669 41.37 53.875 L 40.37 54.545 C 39.729 55.118 39.189 55.794 38.77 56.545 C 38.519 56.85 38.307 57.186 38.14 57.545 C 38.009 57.948 37.919 58.364 37.87 58.785 C 37.771 59.178 37.718 59.58 37.71 59.985 L 37.71 60.935 L 37.71 60.935 C 37.705 61.165 37.792 61.387 37.951 61.552 C 38.111 61.718 38.33 61.812 38.56 61.815 L 38.56 61.815 C 39.043 61.825 39.464 61.488 39.56 61.015 C 39.612 60.581 39.716 60.154 39.87 59.745 C 40.023 59.176 40.266 58.636 40.59 58.145 L 40.59 59.285 L 38.36 67.285 C 38.342 67.449 38.369 67.615 38.44 67.765 C 38.513 67.916 38.672 68.008 38.84 67.995 L 40.55 67.995 L 40.87 75.175 C 40.87 75.744 41.331 76.205 41.9 76.205 C 42.469 76.205 42.93 75.744 42.93 75.175 L 43.33 67.915 L 43.41 67.915 L 43.73 75.095 C 43.73 75.667 44.193 76.13 44.765 76.13 C 45.337 76.13 45.8 75.667 45.8 75.095 L 45.8 75.095 L 46.2 67.845 L 48.27 67.995 L 48.18 67.955 Z " fill="rgb(183,66,66)"/><path d=" M 52.87 57.115 C 53.196 57.715 53.435 58.358 53.58 59.025 C 53.66 59.505 53.74 60.025 53.82 60.545 C 53.845 61.111 54.324 61.55 54.89 61.525 C 55.456 61.5 55.895 61.021 55.87 60.455 L 55.87 60.455 L 55.87 59.455 C 55.857 58.971 55.804 58.49 55.71 58.015 C 55.52 57.014 55.183 56.047 54.71 55.145 C 54.259 54.287 53.708 53.485 53.07 52.755 C 52.763 52.396 52.429 52.061 52.07 51.755 L 52.87 57.115 Z " fill="rgb(0,91,231)"/><circle vector-effect="non-scaling-stroke" cx="66.1" cy="53.57490494834145" r="9.780000000000001" fill="none" stroke-width="0.5" stroke="rgb(0,0,0)" stroke-linejoin="miter" stroke-linecap="butt" stroke-miterlimit="10"/></g></g></g></g></g></g></g></g></g></svg>