<?xml version="1.0" encoding="UTF-8" standalone="no"?><!-- Generator: Gravit.io --><svg xmlns="http://www.w3.org/2000/svg" xmlns:xlink="http://www.w3.org/1999/xlink" style="isolation:isolate" viewBox="0 0 265 120" width="265pt" height="120pt"><defs><clipPath id="_clipPath_WsDk1TfJdbsNWTkEHPT92qyL5rYw1emq"><rect width="265" height="120"/></clipPath></defs><g clip-path="url(#_clipPath_WsDk1TfJdbsNWTkEHPT92qyL5rYw1emq)"><g><g><g><path d=" M 19.712 27.98 C 20.993 28.42 22.112 28.7 23.712 29.19 C 23.112 37.04 15.693 33.92 19.712 27.98 Z  M 26.343 20.78 C 26.253 18.42 25.843 15.33 22.532 15.78 C 20.983 16.19 19.843 17.89 19.302 20.78 C 19.048 22.522 19.126 24.297 19.532 26.01 C 19.843 27.01 19.743 26.91 20.083 27.09 C 21.403 27.39 22.712 27.72 24.083 28.09 C 25.413 27.18 26.522 22.09 26.343 20.78 Z  M 16.142 20.6 C 16.545 18.883 16.62 17.105 16.363 15.36 C 15.823 12.42 14.682 10.72 13.132 10.36 C 9.833 9.87 9.412 12.96 9.332 15.36 C 9.142 16.68 10.262 21.76 11.613 22.72 C 12.953 22.38 14.262 22.05 15.613 21.72 C 15.932 21.49 15.813 21.55 16.142 20.6 Z  M 11.932 23.7 C 12.563 31.54 19.933 28.43 15.932 22.48 C 14.682 22.92 13.552 23.2 11.932 23.7 Z " fill="rgb(29,113,184)"/><mask id="_mask_6ihQC8xELrMet06UDjBem15LDCwI9n6w" x="-200%" y="-200%" width="400%" height="400%"><rect x="-200%" y="-200%" width="400%" height="400%" style="fill:white;"/><line x1="34.173" y1="12.22" x2="34.173" y2="21.8" fill="black" stroke="none"/></mask><line x1="34.173" y1="12.22" x2="34.173" y2="21.8" mask="url(#_mask_6ihQC8xELrMet06UDjBem15LDCwI9n6w)" vector-effect="non-scaling-stroke" stroke-width="0.5" stroke="rgb(255,255,255)" stroke-linejoin="miter" stroke-linecap="butt" stroke-miterlimit="10"/><mask id="_mask_MMsFCwqglt2NGLeD2o9PRjil7vlBYgDN" x="-200%" y="-200%" width="400%" height="400%"><rect x="-200%" y="-200%" width="400%" height="400%" style="fill:white;"/><line x1="13.163" y1="2" x2="22.743" y2="2" fill="black" stroke="none"/></mask><line x1="13.163" y1="2" x2="22.743" y2="2" mask="url(#_mask_MMsFCwqglt2NGLeD2o9PRjil7vlBYgDN)" vector-effect="non-scaling-stroke" stroke-width="0.5" stroke="rgb(255,255,255)" stroke-linejoin="miter" stroke-linecap="butt" stroke-miterlimit="10"/><mask id="_mask_HOxfcVP6ObaHkhLN8mOgfm5YjSnrydpp" x="-200%" y="-200%" width="400%" height="400%"><rect x="-200%" y="-200%" width="400%" height="400%" style="fill:white;"/><line x1="1.942" y1="12.22" x2="1.942" y2="21.8" fill="black" stroke="none"/></mask><line x1="1.942" y1="12.22" x2="1.942" y2="21.8" mask="url(#_mask_HOxfcVP6ObaHkhLN8mOgfm5YjSnrydpp)" vector-effect="non-scaling-stroke" stroke-width="0.5" stroke="rgb(255,255,255)" stroke-linejoin="miter" stroke-linecap="butt" stroke-miterlimit="10"/></g></g><g clip-path="url(#_clipPath_Vsr7x9E2Lp5Rbr1DiM78RdqdiwNHwiba)"><text transform="matrix(1,0,0,1,87.187,22.569)" style="font-family:'Open Sans';font-weight:400;font-size:14px;font-style:normal;fill:#000000;stroke:none;">Sputnik V &#x3E; 1ra. dosis</text></g><defs><clipPath id="_clipPath_Vsr7x9E2Lp5Rbr1DiM78RdqdiwNHwiba"><rect x="0" y="0" width="175.87" height="20.67" transform="matrix(1,0,0,1,87.187,7.605)"/></clipPath></defs><g><g><circle vector-effect="non-scaling-stroke" cx="41.90750000238418" cy="6.6098207003335006" r="4" fill="rgb(0,0,0)"/><path d=" M 44.998 12.61 L 43.908 12.61 C 43.642 12.608 43.386 12.713 43.197 12.9 L 41.908 14.19 L 40.618 12.9 C 40.426 12.717 40.172 12.614 39.908 12.61 L 38.808 12.61 C 37.777 12.605 36.911 13.384 36.807 14.41 L 35.908 23.51 C 35.881 23.792 35.976 24.072 36.167 24.28 C 36.357 24.489 36.625 24.609 36.908 24.61 L 37.997 24.61 L 38.818 32.81 C 38.921 33.836 39.787 34.615 40.817 34.61 L 42.998 34.61 C 44.028 34.615 44.894 33.836 44.998 32.81 L 45.807 24.61 L 46.908 24.61 C 47.19 24.609 47.458 24.489 47.647 24.28 C 47.839 24.072 47.934 23.792 47.908 23.51 L 46.998 14.41 C 46.894 13.384 46.028 12.605 44.998 12.61 Z " fill="rgb(0,0,0)"/><circle vector-effect="non-scaling-stroke" cx="53.90750000238418" cy="6.6098207003335006" r="4" fill="rgb(0,0,0)"/><path d=" M 58.297 22.61 L 58.908 22.61 C 59.197 22.612 59.473 22.489 59.665 22.273 C 59.857 22.056 59.945 21.767 59.908 21.48 L 59.008 14.39 C 58.895 13.372 58.032 12.604 57.008 12.61 L 50.807 12.61 C 49.787 12.603 48.925 13.366 48.807 14.38 L 47.908 21.48 C 47.87 21.767 47.958 22.056 48.15 22.273 C 48.342 22.489 48.618 22.612 48.908 22.61 L 49.517 22.61 L 47.958 27.29 C 47.857 27.595 47.909 27.93 48.097 28.19 C 48.284 28.452 48.586 28.608 48.908 28.61 L 50.057 28.61 L 50.777 32.94 C 50.94 33.914 51.79 34.623 52.778 34.61 L 55.078 34.61 C 56.065 34.623 56.915 33.914 57.078 32.94 L 57.758 28.61 L 58.908 28.61 C 59.229 28.608 59.531 28.452 59.717 28.19 C 59.906 27.93 59.958 27.595 59.858 27.29 L 58.297 22.61 Z " fill="rgb(0,0,0)"/><g clip-path="url(#_clipPath_g7ToQN4M7rPET3NRC5LizjNflC6YeCDG)"><text transform="matrix(1,0,0,1,58.868,12.83)" style="font-family:'Open Sans';font-weight:400;font-size:10px;font-style:normal;font-variant-ligatures:none;fill:[Object GRGBColor];stroke:none;">18+</text></g><defs><clipPath id="_clipPath_g7ToQN4M7rPET3NRC5LizjNflC6YeCDG"><rect x="0" y="0" width="20" height="13.618" transform="matrix(1,0,0,1,58.868,2.141)"/></clipPath></defs></g></g></g><g><g clip-path="url(#_clipPath_32vc6l3eUVsy8NAmeTnsXpYnfOQpgFsz)"><text transform="matrix(1,0,0,1,87.187,64.629)" style="font-family:'Open Sans';font-weight:400;font-size:14px;font-style:normal;fill:#000000;stroke:none;">Sputnik V &#x3E; 2da. dosis</text></g><defs><clipPath id="_clipPath_32vc6l3eUVsy8NAmeTnsXpYnfOQpgFsz"><rect x="0" y="0" width="175.87" height="20.67" transform="matrix(1,0,0,1,87.187,49.665)"/></clipPath></defs><g><g><path d=" M 19.712 69.98 C 20.993 70.42 22.112 70.7 23.712 71.19 C 23.112 79.04 15.693 75.92 19.712 69.98 Z  M 26.343 62.78 C 26.253 60.42 25.843 57.33 22.532 57.78 C 20.983 58.19 19.843 59.89 19.302 62.78 C 19.048 64.522 19.126 66.297 19.532 68.01 C 19.843 69.01 19.743 68.91 20.083 69.09 C 21.403 69.39 22.712 69.72 24.083 70.09 C 25.413 69.18 26.522 64.09 26.343 62.78 Z  M 16.142 62.6 C 16.545 60.883 16.62 59.105 16.363 57.36 C 15.823 54.42 14.682 52.72 13.132 52.36 C 9.833 51.87 9.412 54.96 9.332 57.36 C 9.142 58.68 10.262 63.76 11.613 64.72 C 12.953 64.38 14.262 64.05 15.613 63.72 C 15.932 63.49 15.813 63.55 16.142 62.6 Z  M 11.932 65.7 C 12.563 73.54 19.933 70.43 15.932 64.48 C 14.682 64.92 13.552 65.2 11.932 65.7 Z " fill="rgb(29,113,184)"/><mask id="_mask_HTbcWmjLy1Tl9hKOQ1Zc2zc0jPOSDLhQ" x="-200%" y="-200%" width="400%" height="400%"><rect x="-200%" y="-200%" width="400%" height="400%" style="fill:white;"/><line x1="34.173" y1="54.22" x2="34.173" y2="63.8" fill="black" stroke="none"/></mask><line x1="34.173" y1="54.22" x2="34.173" y2="63.8" mask="url(#_mask_HTbcWmjLy1Tl9hKOQ1Zc2zc0jPOSDLhQ)" vector-effect="non-scaling-stroke" stroke-width="0.5" stroke="rgb(255,255,255)" stroke-linejoin="miter" stroke-linecap="butt" stroke-miterlimit="10"/><mask id="_mask_t6CtfTfJYDNgSo9R7OHg5idwJrFNoebt" x="-200%" y="-200%" width="400%" height="400%"><rect x="-200%" y="-200%" width="400%" height="400%" style="fill:white;"/><line x1="13.163" y1="44" x2="22.743" y2="44" fill="black" stroke="none"/></mask><line x1="13.163" y1="44" x2="22.743" y2="44" mask="url(#_mask_t6CtfTfJYDNgSo9R7OHg5idwJrFNoebt)" vector-effect="non-scaling-stroke" stroke-width="0.5" stroke="rgb(255,255,255)" stroke-linejoin="miter" stroke-linecap="butt" stroke-miterlimit="10"/><mask id="_mask_hKdlD8dV48iwsReCq5JKlHnFRwxsJZfp" x="-200%" y="-200%" width="400%" height="400%"><rect x="-200%" y="-200%" width="400%" height="400%" style="fill:white;"/><line x1="1.942" y1="54.22" x2="1.942" y2="63.8" fill="black" stroke="none"/></mask><line x1="1.942" y1="54.22" x2="1.942" y2="63.8" mask="url(#_mask_hKdlD8dV48iwsReCq5JKlHnFRwxsJZfp)" vector-effect="non-scaling-stroke" stroke-width="0.5" stroke="rgb(255,255,255)" stroke-linejoin="miter" stroke-linecap="butt" stroke-miterlimit="10"/></g></g><g><g><circle vector-effect="non-scaling-stroke" cx="42.907500002291286" cy="47.99980989668299" r="4" fill="rgb(0,0,0)"/><path d=" M 45.998 54 L 44.908 54 C 44.642 53.998 44.386 54.103 44.197 54.29 L 42.908 55.58 L 41.618 54.29 C 41.426 54.107 41.172 54.003 40.908 54 L 39.808 54 C 38.777 53.995 37.911 54.774 37.807 55.8 L 36.908 64.9 C 36.881 65.182 36.976 65.462 37.167 65.67 C 37.357 65.879 37.625 65.999 37.908 66 L 38.997 66 L 39.818 74.2 C 39.921 75.226 40.787 76.005 41.817 76 L 43.998 76 C 45.028 76.005 45.894 75.226 45.998 74.2 L 46.807 66 L 47.908 66 C 48.19 65.999 48.458 65.879 48.647 65.67 C 48.839 65.462 48.934 65.182 48.908 64.9 L 47.998 55.8 C 47.894 54.774 47.028 53.995 45.998 54 Z " fill="rgb(0,0,0)"/><circle vector-effect="non-scaling-stroke" cx="56.907500002291286" cy="47.99980989668299" r="4" fill="rgb(0,0,0)"/><path d=" M 61.287 64 L 61.908 64 C 62.197 64.002 62.473 63.879 62.665 63.663 C 62.857 63.446 62.945 63.157 62.908 62.87 L 62.008 55.78 C 61.895 54.762 61.032 53.994 60.008 54 L 53.807 54 C 52.787 53.993 51.925 54.756 51.807 55.77 L 50.908 62.87 C 50.87 63.157 50.958 63.446 51.15 63.663 C 51.342 63.879 51.618 64.002 51.908 64 L 52.517 64 L 50.958 68.68 C 50.857 68.985 50.909 69.32 51.097 69.58 C 51.284 69.842 51.586 69.998 51.908 70 L 53.057 70 L 53.778 74.33 C 53.94 75.304 54.79 76.013 55.778 76 L 58.078 76 C 59.065 76.013 59.915 75.304 60.078 74.33 L 60.758 70 L 61.908 70 C 62.229 69.998 62.531 69.842 62.717 69.58 C 62.906 69.32 62.958 68.985 62.858 68.68 L 61.287 64 Z " fill="rgb(0,0,0)"/><path d=" M 46.187 74.49 L 53.578 74.49 C 53.908 74.449 54.156 74.168 54.156 73.835 C 54.156 73.502 53.908 73.221 53.578 73.18 L 51.718 73.18 L 51.718 69.85 L 53.567 69.85 C 53.898 69.809 54.146 69.528 54.146 69.195 C 54.146 68.862 53.898 68.581 53.567 68.54 L 52.637 68.54 L 52.637 55.33 L 51.708 55.33 L 50.777 52.56 L 50.508 52.56 L 50.508 46.09 C 50.467 45.759 50.186 45.511 49.852 45.511 C 49.519 45.511 49.238 45.759 49.197 46.09 L 49.197 52.55 L 48.908 52.55 L 47.998 55.32 L 47.067 55.32 L 47.067 68.52 L 46.168 68.52 C 45.809 68.52 45.517 68.811 45.517 69.17 C 45.517 69.529 45.809 69.82 46.168 69.82 L 48.017 69.82 L 48.017 73.13 L 46.178 73.13 C 46.004 73.13 45.838 73.2 45.718 73.324 C 45.597 73.449 45.532 73.617 45.538 73.79 C 45.524 73.971 45.586 74.149 45.709 74.282 C 45.833 74.415 46.006 74.49 46.187 74.49 Z  M 50.067 58.14 C 50.077 57.967 50.148 57.804 50.267 57.68 C 50.391 57.559 50.555 57.487 50.727 57.48 L 51.968 57.48 L 51.968 58.77 L 50.727 58.77 C 50.367 58.77 50.073 58.48 50.067 58.12 L 50.067 58.14 Z  M 50.067 60.82 C 50.067 60.461 50.359 60.17 50.718 60.17 L 51.958 60.17 L 51.958 61.46 L 50.737 61.46 C 50.564 61.465 50.396 61.4 50.272 61.28 C 50.148 61.159 50.077 60.993 50.078 60.82 L 50.067 60.82 Z  M 50.067 63.5 C 50.067 63.141 50.359 62.85 50.718 62.85 L 51.958 62.85 L 51.958 64.14 L 50.748 64.14 C 50.387 64.14 50.093 63.85 50.088 63.49 L 50.067 63.5 Z  M 50.067 66.18 C 50.062 65.83 50.338 65.541 50.687 65.53 L 51.947 65.53 L 51.947 66.82 L 50.758 66.82 C 50.402 66.82 50.113 66.535 50.107 66.18 L 50.067 66.18 Z " fill="rgb(0,0,0)" vector-effect="non-scaling-stroke" stroke-width="2" stroke="rgb(255,255,255)" stroke-linejoin="miter" stroke-linecap="butt" stroke-miterlimit="10"/><path d=" M 46.187 74.49 L 53.578 74.49 C 53.908 74.449 54.156 74.168 54.156 73.835 C 54.156 73.502 53.908 73.221 53.578 73.18 L 51.718 73.18 L 51.718 69.85 L 53.567 69.85 C 53.898 69.809 54.146 69.528 54.146 69.195 C 54.146 68.862 53.898 68.581 53.567 68.54 L 52.637 68.54 L 52.637 55.33 L 51.708 55.33 L 50.777 52.56 L 50.508 52.56 L 50.508 46.09 C 50.467 45.759 50.186 45.511 49.852 45.511 C 49.519 45.511 49.238 45.759 49.197 46.09 L 49.197 52.55 L 48.908 52.55 L 47.998 55.32 L 47.067 55.32 L 47.067 68.52 L 46.168 68.52 C 45.809 68.52 45.517 68.811 45.517 69.17 C 45.517 69.529 45.809 69.82 46.168 69.82 L 48.017 69.82 L 48.017 73.13 L 46.178 73.13 C 46.004 73.13 45.838 73.2 45.718 73.324 C 45.597 73.449 45.532 73.617 45.538 73.79 C 45.524 73.971 45.586 74.149 45.709 74.282 C 45.833 74.415 46.006 74.49 46.187 74.49 Z  M 50.067 58.14 C 50.077 57.967 50.148 57.804 50.267 57.68 C 50.391 57.559 50.555 57.487 50.727 57.48 L 51.968 57.48 L 51.968 58.77 L 50.727 58.77 C 50.367 58.77 50.073 58.48 50.067 58.12 L 50.067 58.14 Z  M 50.067 60.82 C 50.067 60.461 50.359 60.17 50.718 60.17 L 51.958 60.17 L 51.958 61.46 L 50.737 61.46 C 50.564 61.465 50.396 61.4 50.272 61.28 C 50.148 61.159 50.077 60.993 50.078 60.82 L 50.067 60.82 Z  M 50.067 63.5 C 50.067 63.141 50.359 62.85 50.718 62.85 L 51.958 62.85 L 51.958 64.14 L 50.748 64.14 C 50.387 64.14 50.093 63.85 50.088 63.49 L 50.067 63.5 Z  M 50.067 66.18 C 50.062 65.83 50.338 65.541 50.687 65.53 L 51.947 65.53 L 51.947 66.82 L 50.758 66.82 C 50.402 66.82 50.113 66.535 50.107 66.18 L 50.067 66.18 Z " fill="rgb(0,0,0)"/><g clip-path="url(#_clipPath_XpDRYxPP4KpLD4k8NbfZp7b97ARNQ4rL)"><text transform="matrix(1,0,0,1,39.908,62.84)" style="font-family:'Open Sans';font-weight:400;font-size:10px;font-style:normal;font-variant-ligatures:none;fill:[Object GRGBColor];stroke:none;">1</text></g><defs><clipPath id="_clipPath_XpDRYxPP4KpLD4k8NbfZp7b97ARNQ4rL"><rect x="0" y="0" width="8" height="13.618" transform="matrix(1,0,0,1,39.908,52.151)"/></clipPath></defs><g clip-path="url(#_clipPath_vUiHozFu82EBr1rhL1CzmWNCgaxKFnim)"><text transform="matrix(1,0,0,1,54.618,63.5)" style="font-family:'Open Sans';font-weight:400;font-size:10px;font-style:normal;font-variant-ligatures:none;fill:[Object GRGBColor];stroke:none;">D</text></g><defs><clipPath id="_clipPath_vUiHozFu82EBr1rhL1CzmWNCgaxKFnim"><rect x="0" y="0" width="10" height="13.618" transform="matrix(1,0,0,1,54.618,52.811)"/></clipPath></defs><mask id="_mask_2FtrQmNN5IinBhrwA0TcCG6pdnwPz3Mr" x="-200%" y="-200%" width="400%" height="400%"><rect x="-200%" y="-200%" width="400%" height="400%" style="fill:white;"/><line x1="76.908" y1="57.48" x2="76.908" y2="67.06" fill="black" stroke="none"/></mask><line x1="76.908" y1="57.48" x2="76.908" y2="67.06" mask="url(#_mask_2FtrQmNN5IinBhrwA0TcCG6pdnwPz3Mr)" vector-effect="non-scaling-stroke" stroke-width="0.5" stroke="rgb(255,255,255)" stroke-linejoin="miter" stroke-linecap="butt" stroke-miterlimit="10"/></g></g></g><g><g clip-path="url(#_clipPath_ffnqp0atqkgTMv7HsKsesSId519YbNsV)"><text transform="matrix(1,0,0,1,87.187,105.629)" style="font-family:'Open Sans';font-weight:400;font-size:14px;font-style:normal;fill:#000000;stroke:none;">Moderna &#x3E; 2da. dosis</text></g><defs><clipPath id="_clipPath_ffnqp0atqkgTMv7HsKsesSId519YbNsV"><rect x="0" y="0" width="175.87" height="20.67" transform="matrix(1,0,0,1,87.187,90.665)"/></clipPath></defs><g><g><path d=" M 19.712 110.98 C 20.993 111.42 22.112 111.7 23.712 112.19 C 23.112 120.04 15.693 116.92 19.712 110.98 Z  M 26.343 103.78 C 26.253 101.42 25.843 98.33 22.532 98.78 C 20.983 99.19 19.843 100.89 19.302 103.78 C 19.048 105.522 19.126 107.297 19.532 109.01 C 19.843 110.01 19.743 109.91 20.083 110.09 C 21.403 110.39 22.712 110.72 24.083 111.09 C 25.413 110.18 26.522 105.09 26.343 103.78 Z  M 16.142 103.6 C 16.545 101.883 16.62 100.105 16.363 98.36 C 15.823 95.42 14.682 93.72 13.132 93.36 C 9.833 92.87 9.412 95.96 9.332 98.36 C 9.142 99.68 10.262 104.76 11.613 105.72 C 12.953 105.38 14.262 105.05 15.613 104.72 C 15.932 104.49 15.813 104.55 16.142 103.6 Z  M 11.932 106.7 C 12.563 114.54 19.933 111.43 15.932 105.48 C 14.682 105.92 13.552 106.2 11.932 106.7 Z " fill="rgb(29,113,184)"/><mask id="_mask_R6xAH7JGnsoJeSsxWnWMLRdCOuWkIDvu" x="-200%" y="-200%" width="400%" height="400%"><rect x="-200%" y="-200%" width="400%" height="400%" style="fill:white;"/><line x1="34.173" y1="95.22" x2="34.173" y2="104.8" fill="black" stroke="none"/></mask><line x1="34.173" y1="95.22" x2="34.173" y2="104.8" mask="url(#_mask_R6xAH7JGnsoJeSsxWnWMLRdCOuWkIDvu)" vector-effect="non-scaling-stroke" stroke-width="0.5" stroke="rgb(255,255,255)" stroke-linejoin="miter" stroke-linecap="butt" stroke-miterlimit="10"/><mask id="_mask_WfSsvIH0wL1qUm7vJbGzL3Mu9j7XV8vf" x="-200%" y="-200%" width="400%" height="400%"><rect x="-200%" y="-200%" width="400%" height="400%" style="fill:white;"/><line x1="13.163" y1="85" x2="22.743" y2="85" fill="black" stroke="none"/></mask><line x1="13.163" y1="85" x2="22.743" y2="85" mask="url(#_mask_WfSsvIH0wL1qUm7vJbGzL3Mu9j7XV8vf)" vector-effect="non-scaling-stroke" stroke-width="0.5" stroke="rgb(255,255,255)" stroke-linejoin="miter" stroke-linecap="butt" stroke-miterlimit="10"/><mask id="_mask_TepMlPWnDiIeRDclTs1qXhZjIeMOOlsf" x="-200%" y="-200%" width="400%" height="400%"><rect x="-200%" y="-200%" width="400%" height="400%" style="fill:white;"/><line x1="1.942" y1="95.22" x2="1.942" y2="104.8" fill="black" stroke="none"/></mask><line x1="1.942" y1="95.22" x2="1.942" y2="104.8" mask="url(#_mask_TepMlPWnDiIeRDclTs1qXhZjIeMOOlsf)" vector-effect="non-scaling-stroke" stroke-width="0.5" stroke="rgb(255,255,255)" stroke-linejoin="miter" stroke-linecap="butt" stroke-miterlimit="10"/></g></g><g><g><circle vector-effect="non-scaling-stroke" cx="42.907500002291286" cy="88.99980989668299" r="4" fill="rgb(0,0,0)"/><path d=" M 45.998 95 L 44.908 95 C 44.642 94.998 44.386 95.103 44.197 95.29 L 42.908 96.58 L 41.618 95.29 C 41.426 95.107 41.172 95.003 40.908 95 L 39.808 95 C 38.777 94.995 37.911 95.774 37.807 96.8 L 36.908 105.9 C 36.881 106.182 36.976 106.462 37.167 106.67 C 37.357 106.879 37.625 106.999 37.908 107 L 38.997 107 L 39.818 115.2 C 39.921 116.226 40.787 117.005 41.817 117 L 43.998 117 C 45.028 117.005 45.894 116.226 45.998 115.2 L 46.807 107 L 47.908 107 C 48.19 106.999 48.458 106.879 48.647 106.67 C 48.839 106.462 48.934 106.182 48.908 105.9 L 47.998 96.8 C 47.894 95.774 47.028 94.995 45.998 95 Z " fill="rgb(0,0,0)"/><circle vector-effect="non-scaling-stroke" cx="56.907500002291286" cy="88.99980989668299" r="4" fill="rgb(0,0,0)"/><path d=" M 61.287 105 L 61.908 105 C 62.197 105.002 62.473 104.879 62.665 104.663 C 62.857 104.446 62.945 104.157 62.908 103.87 L 62.008 96.78 C 61.895 95.762 61.032 94.994 60.008 95 L 53.807 95 C 52.787 94.993 51.925 95.756 51.807 96.77 L 50.908 103.87 C 50.87 104.157 50.958 104.446 51.15 104.663 C 51.342 104.879 51.618 105.002 51.908 105 L 52.517 105 L 50.958 109.68 C 50.857 109.985 50.909 110.32 51.097 110.58 C 51.284 110.842 51.586 110.998 51.908 111 L 53.057 111 L 53.778 115.33 C 53.94 116.304 54.79 117.013 55.778 117 L 58.078 117 C 59.065 117.013 59.915 116.304 60.078 115.33 L 60.758 111 L 61.908 111 C 62.229 110.998 62.531 110.842 62.717 110.58 C 62.906 110.32 62.958 109.985 62.858 109.68 L 61.287 105 Z " fill="rgb(0,0,0)"/><path d=" M 46.187 115.49 L 53.578 115.49 C 53.908 115.449 54.156 115.168 54.156 114.835 C 54.156 114.502 53.908 114.221 53.578 114.18 L 51.718 114.18 L 51.718 110.85 L 53.567 110.85 C 53.898 110.809 54.146 110.528 54.146 110.195 C 54.146 109.862 53.898 109.581 53.567 109.54 L 52.637 109.54 L 52.637 96.33 L 51.708 96.33 L 50.777 93.56 L 50.508 93.56 L 50.508 87.09 C 50.467 86.759 50.186 86.511 49.852 86.511 C 49.519 86.511 49.238 86.759 49.197 87.09 L 49.197 93.55 L 48.908 93.55 L 47.998 96.32 L 47.067 96.32 L 47.067 109.52 L 46.168 109.52 C 45.809 109.52 45.517 109.811 45.517 110.17 C 45.517 110.529 45.809 110.82 46.168 110.82 L 48.017 110.82 L 48.017 114.13 L 46.178 114.13 C 46.004 114.13 45.838 114.2 45.718 114.324 C 45.597 114.449 45.532 114.617 45.538 114.79 C 45.524 114.971 45.586 115.149 45.709 115.282 C 45.833 115.415 46.006 115.49 46.187 115.49 Z  M 50.067 99.14 C 50.077 98.967 50.148 98.804 50.267 98.68 C 50.391 98.559 50.555 98.487 50.727 98.48 L 51.968 98.48 L 51.968 99.77 L 50.727 99.77 C 50.367 99.77 50.073 99.48 50.067 99.12 L 50.067 99.14 Z  M 50.067 101.82 C 50.067 101.461 50.359 101.17 50.718 101.17 L 51.958 101.17 L 51.958 102.46 L 50.737 102.46 C 50.564 102.465 50.396 102.4 50.272 102.28 C 50.148 102.159 50.077 101.993 50.078 101.82 L 50.067 101.82 Z  M 50.067 104.5 C 50.067 104.141 50.359 103.85 50.718 103.85 L 51.958 103.85 L 51.958 105.14 L 50.748 105.14 C 50.387 105.14 50.093 104.85 50.088 104.49 L 50.067 104.5 Z  M 50.067 107.18 C 50.062 106.83 50.338 106.541 50.687 106.53 L 51.947 106.53 L 51.947 107.82 L 50.758 107.82 C 50.402 107.82 50.113 107.535 50.107 107.18 L 50.067 107.18 Z " fill="rgb(0,0,0)" vector-effect="non-scaling-stroke" stroke-width="2" stroke="rgb(255,255,255)" stroke-linejoin="miter" stroke-linecap="butt" stroke-miterlimit="10"/><path d=" M 46.187 115.49 L 53.578 115.49 C 53.908 115.449 54.156 115.168 54.156 114.835 C 54.156 114.502 53.908 114.221 53.578 114.18 L 51.718 114.18 L 51.718 110.85 L 53.567 110.85 C 53.898 110.809 54.146 110.528 54.146 110.195 C 54.146 109.862 53.898 109.581 53.567 109.54 L 52.637 109.54 L 52.637 96.33 L 51.708 96.33 L 50.777 93.56 L 50.508 93.56 L 50.508 87.09 C 50.467 86.759 50.186 86.511 49.852 86.511 C 49.519 86.511 49.238 86.759 49.197 87.09 L 49.197 93.55 L 48.908 93.55 L 47.998 96.32 L 47.067 96.32 L 47.067 109.52 L 46.168 109.52 C 45.809 109.52 45.517 109.811 45.517 110.17 C 45.517 110.529 45.809 110.82 46.168 110.82 L 48.017 110.82 L 48.017 114.13 L 46.178 114.13 C 46.004 114.13 45.838 114.2 45.718 114.324 C 45.597 114.449 45.532 114.617 45.538 114.79 C 45.524 114.971 45.586 115.149 45.709 115.282 C 45.833 115.415 46.006 115.49 46.187 115.49 Z  M 50.067 99.14 C 50.077 98.967 50.148 98.804 50.267 98.68 C 50.391 98.559 50.555 98.487 50.727 98.48 L 51.968 98.48 L 51.968 99.77 L 50.727 99.77 C 50.367 99.77 50.073 99.48 50.067 99.12 L 50.067 99.14 Z  M 50.067 101.82 C 50.067 101.461 50.359 101.17 50.718 101.17 L 51.958 101.17 L 51.958 102.46 L 50.737 102.46 C 50.564 102.465 50.396 102.4 50.272 102.28 C 50.148 102.159 50.077 101.993 50.078 101.82 L 50.067 101.82 Z  M 50.067 104.5 C 50.067 104.141 50.359 103.85 50.718 103.85 L 51.958 103.85 L 51.958 105.14 L 50.748 105.14 C 50.387 105.14 50.093 104.85 50.088 104.49 L 50.067 104.5 Z  M 50.067 107.18 C 50.062 106.83 50.338 106.541 50.687 106.53 L 51.947 106.53 L 51.947 107.82 L 50.758 107.82 C 50.402 107.82 50.113 107.535 50.107 107.18 L 50.067 107.18 Z " fill="rgb(0,0,0)"/><g clip-path="url(#_clipPath_PniHEW9Mq8nLhQy7StPmFJHxY2Iucmcj)"><text transform="matrix(1,0,0,1,39.908,103.84)" style="font-family:'Open Sans';font-weight:400;font-size:10px;font-style:normal;font-variant-ligatures:none;fill:[Object GRGBColor];stroke:none;">1</text></g><defs><clipPath id="_clipPath_PniHEW9Mq8nLhQy7StPmFJHxY2Iucmcj"><rect x="0" y="0" width="8" height="13.618" transform="matrix(1,0,0,1,39.908,93.151)"/></clipPath></defs><g clip-path="url(#_clipPath_v5hxxAgX5O2OXgbcIFI6eUcWA5Hwd0RO)"><text transform="matrix(1,0,0,1,54.618,104.5)" style="font-family:'Open Sans';font-weight:400;font-size:10px;font-style:normal;font-variant-ligatures:none;fill:[Object GRGBColor];stroke:none;">D</text></g><defs><clipPath id="_clipPath_v5hxxAgX5O2OXgbcIFI6eUcWA5Hwd0RO"><rect x="0" y="0" width="10" height="13.618" transform="matrix(1,0,0,1,54.618,93.811)"/></clipPath></defs><mask id="_mask_S44d8Pp7deVycVFc97lHTL2SYjn2rxro" x="-200%" y="-200%" width="400%" height="400%"><rect x="-200%" y="-200%" width="400%" height="400%" style="fill:white;"/><line x1="76.908" y1="98.48" x2="76.908" y2="108.06" fill="black" stroke="none"/></mask><line x1="76.908" y1="98.48" x2="76.908" y2="108.06" mask="url(#_mask_S44d8Pp7deVycVFc97lHTL2SYjn2rxro)" vector-effect="non-scaling-stroke" stroke-width="0.5" stroke="rgb(255,255,255)" stroke-linejoin="miter" stroke-linecap="butt" stroke-miterlimit="10"/></g></g></g></g></svg>