<?xml version="1.0" encoding="UTF-8" standalone="no"?><!-- Generator: Gravit.io --><svg xmlns="http://www.w3.org/2000/svg" xmlns:xlink="http://www.w3.org/1999/xlink" style="isolation:isolate" viewBox="0 0 265 80" width="265pt" height="80pt"><defs><clipPath id="_clipPath_pWT6pDKVDjwUtxV5Y8MIxnR5ZLmYAjYS"><rect width="265" height="80"/></clipPath></defs><g clip-path="url(#_clipPath_pWT6pDKVDjwUtxV5Y8MIxnR5ZLmYAjYS)"><g><g><g/></g></g><g><g><g/></g></g><g><g><g/></g><g><g><g><g><g><mask id="_mask_Kz6zUsyhoPMXcDc35pTvp3ZKpexYkWLn" x="-200%" y="-200%" width="400%" height="400%"><rect x="-200%" y="-200%" width="400%" height="400%" style="fill:white;"/><line x1="13.163" y1="83" x2="22.743" y2="83" fill="black" stroke="none"/></mask><line x1="13.163" y1="83" x2="22.743" y2="83" mask="url(#_mask_Kz6zUsyhoPMXcDc35pTvp3ZKpexYkWLn)" vector-effect="non-scaling-stroke" stroke-width="0.5" stroke="rgb(255,255,255)" stroke-linejoin="miter" stroke-linecap="butt" stroke-miterlimit="10"/><path d=" M 19.712 68.98 C 20.993 69.42 22.112 69.7 23.712 70.19 C 23.112 78.04 15.693 74.92 19.712 68.98 Z  M 26.343 61.78 C 26.253 59.42 25.843 56.33 22.532 56.78 C 20.983 57.19 19.843 58.89 19.302 61.78 C 19.048 63.522 19.126 65.297 19.532 67.01 C 19.843 68.01 19.743 67.91 20.083 68.09 C 21.403 68.39 22.712 68.72 24.083 69.09 C 25.413 68.18 26.522 63.09 26.343 61.78 Z  M 16.142 61.6 C 16.545 59.883 16.62 58.105 16.363 56.36 C 15.823 53.42 14.682 51.72 13.132 51.36 C 9.833 50.87 9.412 53.96 9.332 56.36 C 9.142 57.68 10.262 62.76 11.613 63.72 C 12.953 63.38 14.262 63.05 15.613 62.72 C 15.932 62.49 15.813 62.55 16.142 61.6 Z  M 11.932 64.7 C 12.563 72.54 19.933 69.43 15.932 63.48 C 14.682 63.92 13.552 64.2 11.932 64.7 Z " fill="rgb(29,113,184)"/><mask id="_mask_yfqnP7xhW8PBsr5XdYQUL5G7RK2aogC2" x="-200%" y="-200%" width="400%" height="400%"><rect x="-200%" y="-200%" width="400%" height="400%" style="fill:white;"/><line x1="34.173" y1="53.22" x2="34.173" y2="62.8" fill="black" stroke="none"/></mask><line x1="34.173" y1="53.22" x2="34.173" y2="62.8" mask="url(#_mask_yfqnP7xhW8PBsr5XdYQUL5G7RK2aogC2)" vector-effect="non-scaling-stroke" stroke-width="0.5" stroke="rgb(255,255,255)" stroke-linejoin="miter" stroke-linecap="butt" stroke-miterlimit="10"/><mask id="_mask_CBgwB9zdy1ItCObhW9NKB2kwEZ4IJHYF" x="-200%" y="-200%" width="400%" height="400%"><rect x="-200%" y="-200%" width="400%" height="400%" style="fill:white;"/><line x1="13.163" y1="43" x2="22.743" y2="43" fill="black" stroke="none"/></mask><line x1="13.163" y1="43" x2="22.743" y2="43" mask="url(#_mask_CBgwB9zdy1ItCObhW9NKB2kwEZ4IJHYF)" vector-effect="non-scaling-stroke" stroke-width="0.5" stroke="rgb(255,255,255)" stroke-linejoin="miter" stroke-linecap="butt" stroke-miterlimit="10"/><mask id="_mask_0vj3QwXfD83bNkHMAuNcAqJLJ27hHK4j" x="-200%" y="-200%" width="400%" height="400%"><rect x="-200%" y="-200%" width="400%" height="400%" style="fill:white;"/><line x1="1.942" y1="53.22" x2="1.942" y2="62.8" fill="black" stroke="none"/></mask><line x1="1.942" y1="53.22" x2="1.942" y2="62.8" mask="url(#_mask_0vj3QwXfD83bNkHMAuNcAqJLJ27hHK4j)" vector-effect="non-scaling-stroke" stroke-width="0.5" stroke="rgb(255,255,255)" stroke-linejoin="miter" stroke-linecap="butt" stroke-miterlimit="10"/><g clip-path="url(#_clipPath_EGQPs2c2hRC6xqTsxhXYT5emIVV6vWLs)"><text transform="matrix(1,0,0,1,87.187,63.629)" style="font-family:'Open Sans';font-weight:400;font-size:14px;font-style:normal;fill:#000000;stroke:none;">Moderna &#x3E; 2da. dosis</text></g><defs><clipPath id="_clipPath_EGQPs2c2hRC6xqTsxhXYT5emIVV6vWLs"><rect x="0" y="0" width="175.87" height="20.67" transform="matrix(1,0,0,1,87.187,48.665)"/></clipPath></defs><circle vector-effect="non-scaling-stroke" cx="42.907500002291286" cy="46.999809896683" r="4" fill="rgb(0,0,0)"/><path d=" M 45.998 53 L 44.908 53 C 44.642 52.998 44.386 53.103 44.197 53.29 L 42.908 54.58 L 41.618 53.29 C 41.426 53.107 41.172 53.003 40.908 53 L 39.808 53 C 38.777 52.995 37.911 53.774 37.807 54.8 L 36.908 63.9 C 36.881 64.182 36.976 64.462 37.167 64.67 C 37.357 64.879 37.625 64.999 37.908 65 L 38.997 65 L 39.818 73.2 C 39.921 74.226 40.787 75.005 41.817 75 L 43.998 75 C 45.028 75.005 45.894 74.226 45.998 73.2 L 46.807 65 L 47.908 65 C 48.19 64.999 48.458 64.879 48.647 64.67 C 48.839 64.462 48.934 64.182 48.908 63.9 L 47.998 54.8 C 47.894 53.774 47.028 52.995 45.998 53 Z " fill="rgb(0,0,0)"/><circle vector-effect="non-scaling-stroke" cx="56.907500002291286" cy="46.999809896683" r="4" fill="rgb(0,0,0)"/><path d=" M 61.287 63 L 61.908 63 C 62.197 63.002 62.473 62.879 62.665 62.663 C 62.857 62.446 62.945 62.157 62.908 61.87 L 62.008 54.78 C 61.895 53.762 61.032 52.994 60.008 53 L 53.807 53 C 52.787 52.993 51.925 53.756 51.807 54.77 L 50.908 61.87 C 50.87 62.157 50.958 62.446 51.15 62.663 C 51.342 62.879 51.618 63.002 51.908 63 L 52.517 63 L 50.958 67.68 C 50.857 67.985 50.909 68.32 51.097 68.58 C 51.284 68.842 51.586 68.998 51.908 69 L 53.057 69 L 53.778 73.33 C 53.94 74.304 54.79 75.013 55.778 75 L 58.078 75 C 59.065 75.013 59.915 74.304 60.078 73.33 L 60.758 69 L 61.908 69 C 62.229 68.998 62.531 68.842 62.717 68.58 C 62.906 68.32 62.958 67.985 62.858 67.68 L 61.287 63 Z " fill="rgb(0,0,0)"/><path d=" M 46.187 73.49 L 53.578 73.49 C 53.908 73.449 54.156 73.168 54.156 72.835 C 54.156 72.502 53.908 72.221 53.578 72.18 L 51.718 72.18 L 51.718 68.85 L 53.567 68.85 C 53.898 68.809 54.146 68.528 54.146 68.195 C 54.146 67.862 53.898 67.581 53.567 67.54 L 52.637 67.54 L 52.637 54.33 L 51.708 54.33 L 50.777 51.56 L 50.508 51.56 L 50.508 45.09 C 50.467 44.759 50.186 44.511 49.852 44.511 C 49.519 44.511 49.238 44.759 49.197 45.09 L 49.197 51.55 L 48.908 51.55 L 47.998 54.32 L 47.067 54.32 L 47.067 67.52 L 46.168 67.52 C 45.809 67.52 45.517 67.811 45.517 68.17 C 45.517 68.529 45.809 68.82 46.168 68.82 L 48.017 68.82 L 48.017 72.13 L 46.178 72.13 C 46.004 72.13 45.838 72.2 45.718 72.324 C 45.597 72.449 45.532 72.617 45.538 72.79 C 45.524 72.971 45.586 73.149 45.709 73.282 C 45.833 73.415 46.006 73.49 46.187 73.49 Z  M 50.067 57.14 C 50.077 56.967 50.148 56.804 50.267 56.68 C 50.391 56.559 50.555 56.487 50.727 56.48 L 51.968 56.48 L 51.968 57.77 L 50.727 57.77 C 50.367 57.77 50.073 57.48 50.067 57.12 L 50.067 57.14 Z  M 50.067 59.82 C 50.067 59.461 50.359 59.17 50.718 59.17 L 51.958 59.17 L 51.958 60.46 L 50.737 60.46 C 50.564 60.465 50.396 60.4 50.272 60.28 C 50.148 60.159 50.077 59.993 50.078 59.82 L 50.067 59.82 Z  M 50.067 62.5 C 50.067 62.141 50.359 61.85 50.718 61.85 L 51.958 61.85 L 51.958 63.14 L 50.748 63.14 C 50.387 63.14 50.093 62.85 50.088 62.49 L 50.067 62.5 Z  M 50.067 65.18 C 50.062 64.83 50.338 64.541 50.687 64.53 L 51.947 64.53 L 51.947 65.82 L 50.758 65.82 C 50.402 65.82 50.113 65.535 50.107 65.18 L 50.067 65.18 Z " fill="rgb(0,0,0)" vector-effect="non-scaling-stroke" stroke-width="2" stroke="rgb(255,255,255)" stroke-linejoin="miter" stroke-linecap="butt" stroke-miterlimit="10"/><path d=" M 46.187 73.49 L 53.578 73.49 C 53.908 73.449 54.156 73.168 54.156 72.835 C 54.156 72.502 53.908 72.221 53.578 72.18 L 51.718 72.18 L 51.718 68.85 L 53.567 68.85 C 53.898 68.809 54.146 68.528 54.146 68.195 C 54.146 67.862 53.898 67.581 53.567 67.54 L 52.637 67.54 L 52.637 54.33 L 51.708 54.33 L 50.777 51.56 L 50.508 51.56 L 50.508 45.09 C 50.467 44.759 50.186 44.511 49.852 44.511 C 49.519 44.511 49.238 44.759 49.197 45.09 L 49.197 51.55 L 48.908 51.55 L 47.998 54.32 L 47.067 54.32 L 47.067 67.52 L 46.168 67.52 C 45.809 67.52 45.517 67.811 45.517 68.17 C 45.517 68.529 45.809 68.82 46.168 68.82 L 48.017 68.82 L 48.017 72.13 L 46.178 72.13 C 46.004 72.13 45.838 72.2 45.718 72.324 C 45.597 72.449 45.532 72.617 45.538 72.79 C 45.524 72.971 45.586 73.149 45.709 73.282 C 45.833 73.415 46.006 73.49 46.187 73.49 Z  M 50.067 57.14 C 50.077 56.967 50.148 56.804 50.267 56.68 C 50.391 56.559 50.555 56.487 50.727 56.48 L 51.968 56.48 L 51.968 57.77 L 50.727 57.77 C 50.367 57.77 50.073 57.48 50.067 57.12 L 50.067 57.14 Z  M 50.067 59.82 C 50.067 59.461 50.359 59.17 50.718 59.17 L 51.958 59.17 L 51.958 60.46 L 50.737 60.46 C 50.564 60.465 50.396 60.4 50.272 60.28 C 50.148 60.159 50.077 59.993 50.078 59.82 L 50.067 59.82 Z  M 50.067 62.5 C 50.067 62.141 50.359 61.85 50.718 61.85 L 51.958 61.85 L 51.958 63.14 L 50.748 63.14 C 50.387 63.14 50.093 62.85 50.088 62.49 L 50.067 62.5 Z  M 50.067 65.18 C 50.062 64.83 50.338 64.541 50.687 64.53 L 51.947 64.53 L 51.947 65.82 L 50.758 65.82 C 50.402 65.82 50.113 65.535 50.107 65.18 L 50.067 65.18 Z " fill="rgb(0,0,0)"/><g clip-path="url(#_clipPath_uVIaFAYVrrXV95Eqxmv8nSbMtrUqgyE8)"><text transform="matrix(1,0,0,1,39.908,61.84)" style="font-family:'Open Sans';font-weight:400;font-size:10px;font-style:normal;font-variant-ligatures:none;fill:[Object GRGBColor];stroke:none;">1</text></g><defs><clipPath id="_clipPath_uVIaFAYVrrXV95Eqxmv8nSbMtrUqgyE8"><rect x="0" y="0" width="8" height="13.618" transform="matrix(1,0,0,1,39.908,51.151)"/></clipPath></defs><g clip-path="url(#_clipPath_Bqc9H0MQikUuL6a48lJsQUmiN8VfYC42)"><text transform="matrix(1,0,0,1,54.618,62.5)" style="font-family:'Open Sans';font-weight:400;font-size:10px;font-style:normal;font-variant-ligatures:none;fill:[Object GRGBColor];stroke:none;">D</text></g><defs><clipPath id="_clipPath_Bqc9H0MQikUuL6a48lJsQUmiN8VfYC42"><rect x="0" y="0" width="10" height="13.618" transform="matrix(1,0,0,1,54.618,51.811)"/></clipPath></defs><mask id="_mask_Q6giUUImCEZqAZ9UoX39Fpa3U8QexmjU" x="-200%" y="-200%" width="400%" height="400%"><rect x="-200%" y="-200%" width="400%" height="400%" style="fill:white;"/><line x1="76.908" y1="56.48" x2="76.908" y2="66.06" fill="black" stroke="none"/></mask><line x1="76.908" y1="56.48" x2="76.908" y2="66.06" mask="url(#_mask_Q6giUUImCEZqAZ9UoX39Fpa3U8QexmjU)" vector-effect="non-scaling-stroke" stroke-width="0.5" stroke="rgb(255,255,255)" stroke-linejoin="miter" stroke-linecap="butt" stroke-miterlimit="10"/><mask id="_mask_73pz1z3hiCkQPYqi3hSDNikQAF0p8bDF" x="-200%" y="-200%" width="400%" height="400%"><rect x="-200%" y="-200%" width="400%" height="400%" style="fill:white;"/><line x1="13.163" y1="44" x2="22.743" y2="44" fill="black" stroke="none"/></mask><line x1="13.163" y1="44" x2="22.743" y2="44" mask="url(#_mask_73pz1z3hiCkQPYqi3hSDNikQAF0p8bDF)" vector-effect="non-scaling-stroke" stroke-width="0.5" stroke="rgb(255,255,255)" stroke-linejoin="miter" stroke-linecap="butt" stroke-miterlimit="10"/></g><path d=" M 19.712 29.98 C 20.993 30.42 22.112 30.7 23.712 31.19 C 23.112 39.04 15.693 35.92 19.712 29.98 Z  M 26.343 22.78 C 26.253 20.42 25.843 17.33 22.532 17.78 C 20.983 18.19 19.843 19.89 19.302 22.78 C 19.048 24.522 19.126 26.297 19.532 28.01 C 19.843 29.01 19.743 28.91 20.083 29.09 C 21.403 29.39 22.712 29.72 24.083 30.09 C 25.413 29.18 26.522 24.09 26.343 22.78 Z  M 16.142 22.6 C 16.545 20.883 16.62 19.105 16.363 17.36 C 15.823 14.42 14.682 12.72 13.132 12.36 C 9.833 11.87 9.412 14.96 9.332 17.36 C 9.142 18.68 10.262 23.76 11.613 24.72 C 12.953 24.38 14.262 24.05 15.613 23.72 C 15.932 23.49 15.813 23.55 16.142 22.6 Z  M 11.932 25.7 C 12.563 33.54 19.933 30.43 15.932 24.48 C 14.682 24.92 13.552 25.2 11.932 25.7 Z " fill="rgb(29,113,184)"/><mask id="_mask_DwJr1arKi2bKxNgp6qW1BmikyCjSVLST" x="-200%" y="-200%" width="400%" height="400%"><rect x="-200%" y="-200%" width="400%" height="400%" style="fill:white;"/><line x1="34.173" y1="14.22" x2="34.173" y2="23.8" fill="black" stroke="none"/></mask><line x1="34.173" y1="14.22" x2="34.173" y2="23.8" mask="url(#_mask_DwJr1arKi2bKxNgp6qW1BmikyCjSVLST)" vector-effect="non-scaling-stroke" stroke-width="0.5" stroke="rgb(255,255,255)" stroke-linejoin="miter" stroke-linecap="butt" stroke-miterlimit="10"/><mask id="_mask_lrfvLjPiNkRDVE15mzKjoYAq85hsJI8J" x="-200%" y="-200%" width="400%" height="400%"><rect x="-200%" y="-200%" width="400%" height="400%" style="fill:white;"/><line x1="13.163" y1="4" x2="22.743" y2="4" fill="black" stroke="none"/></mask><line x1="13.163" y1="4" x2="22.743" y2="4" mask="url(#_mask_lrfvLjPiNkRDVE15mzKjoYAq85hsJI8J)" vector-effect="non-scaling-stroke" stroke-width="0.5" stroke="rgb(255,255,255)" stroke-linejoin="miter" stroke-linecap="butt" stroke-miterlimit="10"/><mask id="_mask_1laWhn8hXkwizDCcy8W8XQfZgrVFfLRz" x="-200%" y="-200%" width="400%" height="400%"><rect x="-200%" y="-200%" width="400%" height="400%" style="fill:white;"/><line x1="1.942" y1="14.22" x2="1.942" y2="23.8" fill="black" stroke="none"/></mask><line x1="1.942" y1="14.22" x2="1.942" y2="23.8" mask="url(#_mask_1laWhn8hXkwizDCcy8W8XQfZgrVFfLRz)" vector-effect="non-scaling-stroke" stroke-width="0.5" stroke="rgb(255,255,255)" stroke-linejoin="miter" stroke-linecap="butt" stroke-miterlimit="10"/><g clip-path="url(#_clipPath_tEOyCLR8D61a9SJJBNtYSnCIeZtfI5yL)"><text transform="matrix(1,0,0,1,87.187,24.629)" style="font-family:'Open Sans';font-weight:400;font-size:14px;font-style:normal;fill:#000000;stroke:none;">AstraZeneca &#x3E; 1ra. dosis</text></g><defs><clipPath id="_clipPath_tEOyCLR8D61a9SJJBNtYSnCIeZtfI5yL"><rect x="0" y="0" width="175.87" height="20.67" transform="matrix(1,0,0,1,87.187,9.665)"/></clipPath></defs><mask id="_mask_RdLfXoCIx0NjljY3CRve5Hy3n7F67gzI" x="-200%" y="-200%" width="400%" height="400%"><rect x="-200%" y="-200%" width="400%" height="400%" style="fill:white;"/><line x1="76.908" y1="17.48" x2="76.908" y2="27.06" fill="black" stroke="none"/></mask><line x1="76.908" y1="17.48" x2="76.908" y2="27.06" mask="url(#_mask_RdLfXoCIx0NjljY3CRve5Hy3n7F67gzI)" vector-effect="non-scaling-stroke" stroke-width="0.5" stroke="rgb(255,255,255)" stroke-linejoin="miter" stroke-linecap="butt" stroke-miterlimit="10"/></g></g></g></g></g><g><g><circle vector-effect="non-scaling-stroke" cx="41.90750000238418" cy="7.6098207003335006" r="4" fill="rgb(0,0,0)"/><path d=" M 44.998 13.61 L 43.908 13.61 C 43.642 13.608 43.386 13.713 43.197 13.9 L 41.908 15.19 L 40.618 13.9 C 40.426 13.717 40.172 13.614 39.908 13.61 L 38.808 13.61 C 37.777 13.605 36.911 14.384 36.807 15.41 L 35.908 24.51 C 35.881 24.792 35.976 25.072 36.167 25.28 C 36.357 25.489 36.625 25.609 36.908 25.61 L 37.997 25.61 L 38.818 33.81 C 38.921 34.836 39.787 35.615 40.817 35.61 L 42.998 35.61 C 44.028 35.615 44.894 34.836 44.998 33.81 L 45.807 25.61 L 46.908 25.61 C 47.19 25.609 47.458 25.489 47.647 25.28 C 47.839 25.072 47.934 24.792 47.908 24.51 L 46.998 15.41 C 46.894 14.384 46.028 13.605 44.998 13.61 Z " fill="rgb(0,0,0)"/><circle vector-effect="non-scaling-stroke" cx="53.90750000238418" cy="7.6098207003335006" r="4" fill="rgb(0,0,0)"/><path d=" M 58.297 23.61 L 58.908 23.61 C 59.197 23.612 59.473 23.489 59.665 23.273 C 59.857 23.056 59.945 22.767 59.908 22.48 L 59.008 15.39 C 58.895 14.372 58.032 13.604 57.008 13.61 L 50.807 13.61 C 49.787 13.603 48.925 14.366 48.807 15.38 L 47.908 22.48 C 47.87 22.767 47.958 23.056 48.15 23.273 C 48.342 23.489 48.618 23.612 48.908 23.61 L 49.517 23.61 L 47.958 28.29 C 47.857 28.595 47.909 28.93 48.097 29.19 C 48.284 29.452 48.586 29.608 48.908 29.61 L 50.057 29.61 L 50.777 33.94 C 50.94 34.914 51.79 35.623 52.778 35.61 L 55.078 35.61 C 56.065 35.623 56.915 34.914 57.078 33.94 L 57.758 29.61 L 58.908 29.61 C 59.229 29.608 59.531 29.452 59.717 29.19 C 59.906 28.93 59.958 28.595 59.858 28.29 L 58.297 23.61 Z " fill="rgb(0,0,0)"/><g clip-path="url(#_clipPath_3Lh2TYUMhETnOBTwA0IUiA5083lFXeYM)"><text transform="matrix(1,0,0,1,58.868,13.83)" style="font-family:'Open Sans';font-weight:400;font-size:10px;font-style:normal;font-variant-ligatures:none;fill:[Object GRGBColor];stroke:none;">18+</text></g><defs><clipPath id="_clipPath_3Lh2TYUMhETnOBTwA0IUiA5083lFXeYM"><rect x="0" y="0" width="20" height="13.618" transform="matrix(1,0,0,1,58.868,3.141)"/></clipPath></defs></g></g></g></svg>