<?xml version="1.0" encoding="UTF-8" standalone="no"?><!-- Generator: Gravit.io --><svg xmlns="http://www.w3.org/2000/svg" xmlns:xlink="http://www.w3.org/1999/xlink" style="isolation:isolate" viewBox="0 0 265 238" width="265pt" height="238pt"><defs><clipPath id="_clipPath_WINkxEofk37awnzBwgB0cUDLFyHiEg52"><rect width="265" height="238"/></clipPath></defs><g clip-path="url(#_clipPath_WINkxEofk37awnzBwgB0cUDLFyHiEg52)"><g><g><g><g><path d=" M 22.712 28.98 C 23.993 29.42 25.112 29.7 26.712 30.19 C 26.112 38.04 18.693 34.92 22.712 28.98 Z  M 29.343 21.78 C 29.253 19.42 28.843 16.33 25.532 16.78 C 23.983 17.19 22.843 18.89 22.302 21.78 C 22.048 23.522 22.126 25.297 22.532 27.01 C 22.843 28.01 22.743 27.91 23.083 28.09 C 24.403 28.39 25.712 28.72 27.083 29.09 C 28.413 28.18 29.522 23.09 29.343 21.78 Z  M 19.142 21.6 C 19.545 19.883 19.62 18.105 19.363 16.36 C 18.823 13.42 17.682 11.72 16.132 11.36 C 12.833 10.87 12.412 13.96 12.332 16.36 C 12.142 17.68 13.262 22.76 14.613 23.72 C 15.953 23.38 17.262 23.05 18.613 22.72 C 18.932 22.49 18.813 22.55 19.142 21.6 Z  M 14.932 24.7 C 15.563 32.54 22.933 29.43 18.932 23.48 C 17.682 23.92 16.552 24.2 14.932 24.7 Z " fill="rgb(29,113,184)"/><mask id="_mask_WtHUVGOm7VJmTax0d0j8g5zC8vhDuJFz" x="-200%" y="-200%" width="400%" height="400%"><rect x="-200%" y="-200%" width="400%" height="400%" style="fill:white;"/><line x1="37.173" y1="13.22" x2="37.173" y2="22.8" fill="black" stroke="none"/></mask><line x1="37.173" y1="13.22" x2="37.173" y2="22.8" mask="url(#_mask_WtHUVGOm7VJmTax0d0j8g5zC8vhDuJFz)" vector-effect="non-scaling-stroke" stroke-width="0.5" stroke="rgb(255,255,255)" stroke-linejoin="miter" stroke-linecap="butt" stroke-miterlimit="10"/><mask id="_mask_vTnSq8xux17vH1zAA9LhptSxO1apJpYV" x="-200%" y="-200%" width="400%" height="400%"><rect x="-200%" y="-200%" width="400%" height="400%" style="fill:white;"/><line x1="16.163" y1="3" x2="25.743" y2="3" fill="black" stroke="none"/></mask><line x1="16.163" y1="3" x2="25.743" y2="3" mask="url(#_mask_vTnSq8xux17vH1zAA9LhptSxO1apJpYV)" vector-effect="non-scaling-stroke" stroke-width="0.5" stroke="rgb(255,255,255)" stroke-linejoin="miter" stroke-linecap="butt" stroke-miterlimit="10"/><mask id="_mask_cpehUw9hUlrypg9Q9nq5iOt7gheD0xN8" x="-200%" y="-200%" width="400%" height="400%"><rect x="-200%" y="-200%" width="400%" height="400%" style="fill:white;"/><line x1="4.942" y1="13.22" x2="4.942" y2="22.8" fill="black" stroke="none"/></mask><line x1="4.942" y1="13.22" x2="4.942" y2="22.8" mask="url(#_mask_cpehUw9hUlrypg9Q9nq5iOt7gheD0xN8)" vector-effect="non-scaling-stroke" stroke-width="0.5" stroke="rgb(255,255,255)" stroke-linejoin="miter" stroke-linecap="butt" stroke-miterlimit="10"/></g></g><g clip-path="url(#_clipPath_M1PRFrUtDPSJg4ekBETANAvsnzQvsa6G)"><text transform="matrix(1,0,0,1,96.187,23.569)" style="font-family:'Open Sans';font-weight:400;font-size:14px;font-style:normal;fill:#000000;stroke:none;">Moderna &#x3E; 1ra. dosis</text></g><defs><clipPath id="_clipPath_M1PRFrUtDPSJg4ekBETANAvsnzQvsa6G"><rect x="0" y="0" width="175.87" height="20.67" transform="matrix(1,0,0,1,96.187,8.605)"/></clipPath></defs><g><g><circle vector-effect="non-scaling-stroke" cx="52.19180863945414" cy="7.174153539035828" r="4" fill="rgb(0,0,0)"/><path d=" M 55.282 13.174 L 54.192 13.174 C 53.926 13.173 53.671 13.277 53.482 13.464 L 52.192 14.754 L 50.902 13.464 C 50.71 13.281 50.457 13.178 50.192 13.174 L 49.092 13.174 C 48.061 13.169 47.195 13.948 47.092 14.974 L 46.192 24.074 C 46.166 24.356 46.26 24.636 46.452 24.844 C 46.641 25.054 46.91 25.173 47.192 25.174 L 48.282 25.174 L 49.102 33.374 C 49.205 34.4 50.071 35.179 51.102 35.174 L 53.282 35.174 C 54.313 35.179 55.179 34.4 55.282 33.374 L 56.092 25.174 L 57.192 25.174 C 57.474 25.173 57.743 25.054 57.932 24.844 C 58.124 24.636 58.218 24.356 58.192 24.074 L 57.282 14.974 C 57.179 13.948 56.313 13.169 55.282 13.174 Z " fill="rgb(0,0,0)"/><circle vector-effect="non-scaling-stroke" cx="64.19180863945414" cy="7.174153539035828" r="4" fill="rgb(0,0,0)"/><path d=" M 68.582 23.174 L 69.192 23.174 C 69.481 23.177 69.757 23.054 69.949 22.837 C 70.141 22.62 70.229 22.331 70.192 22.044 L 69.292 14.954 C 69.179 13.936 68.316 13.168 67.292 13.174 L 61.092 13.174 C 60.071 13.167 59.209 13.93 59.092 14.944 L 58.192 22.044 C 58.154 22.331 58.243 22.62 58.434 22.837 C 58.626 23.054 58.902 23.177 59.192 23.174 L 59.802 23.174 L 58.242 27.854 C 58.141 28.159 58.193 28.494 58.382 28.754 C 58.568 29.016 58.87 29.173 59.192 29.174 L 60.342 29.174 L 61.062 33.504 C 61.225 34.478 62.074 35.188 63.062 35.174 L 65.362 35.174 C 66.349 35.188 67.199 34.478 67.362 33.504 L 68.042 29.174 L 69.192 29.174 C 69.514 29.173 69.815 29.016 70.002 28.754 C 70.19 28.494 70.242 28.159 70.142 27.854 L 68.582 23.174 Z " fill="rgb(0,0,0)"/><g clip-path="url(#_clipPath_2NalIQfs99d4mQfS1XDBgWOr8zJqtCvH)"><text transform="matrix(1,0,0,1,69.152,13.394)" style="font-family:'Open Sans';font-weight:400;font-size:10px;font-style:normal;font-variant-ligatures:none;fill:[Object GRGBColor];stroke:none;">18+</text></g><defs><clipPath id="_clipPath_2NalIQfs99d4mQfS1XDBgWOr8zJqtCvH"><rect x="0" y="0" width="20" height="13.618" transform="matrix(1,0,0,1,69.152,2.706)"/></clipPath></defs></g></g></g></g><g><g><g><g><path d=" M 22.712 69.98 C 23.993 70.42 25.112 70.7 26.712 71.19 C 26.112 79.04 18.693 75.92 22.712 69.98 Z  M 29.343 62.78 C 29.253 60.42 28.843 57.33 25.532 57.78 C 23.983 58.19 22.843 59.89 22.302 62.78 C 22.048 64.522 22.126 66.297 22.532 68.01 C 22.843 69.01 22.743 68.91 23.083 69.09 C 24.403 69.39 25.712 69.72 27.083 70.09 C 28.413 69.18 29.522 64.09 29.343 62.78 Z  M 19.142 62.6 C 19.545 60.883 19.62 59.105 19.363 57.36 C 18.823 54.42 17.682 52.72 16.132 52.36 C 12.833 51.87 12.412 54.96 12.332 57.36 C 12.142 58.68 13.262 63.76 14.613 64.72 C 15.953 64.38 17.262 64.05 18.613 63.72 C 18.932 63.49 18.813 63.55 19.142 62.6 Z  M 14.932 65.7 C 15.563 73.54 22.933 70.43 18.932 64.48 C 17.682 64.92 16.552 65.2 14.932 65.7 Z " fill="rgb(29,113,184)"/><mask id="_mask_pDRIQyknwbmGjjnPJe4YS5cvAhNrx8q0" x="-200%" y="-200%" width="400%" height="400%"><rect x="-200%" y="-200%" width="400%" height="400%" style="fill:white;"/><line x1="37.173" y1="54.22" x2="37.173" y2="63.8" fill="black" stroke="none"/></mask><line x1="37.173" y1="54.22" x2="37.173" y2="63.8" mask="url(#_mask_pDRIQyknwbmGjjnPJe4YS5cvAhNrx8q0)" vector-effect="non-scaling-stroke" stroke-width="0.5" stroke="rgb(255,255,255)" stroke-linejoin="miter" stroke-linecap="butt" stroke-miterlimit="10"/><mask id="_mask_blOOD46DWRFALGFHjMHlNmSveUiinCef" x="-200%" y="-200%" width="400%" height="400%"><rect x="-200%" y="-200%" width="400%" height="400%" style="fill:white;"/><line x1="16.163" y1="44" x2="25.743" y2="44" fill="black" stroke="none"/></mask><line x1="16.163" y1="44" x2="25.743" y2="44" mask="url(#_mask_blOOD46DWRFALGFHjMHlNmSveUiinCef)" vector-effect="non-scaling-stroke" stroke-width="0.5" stroke="rgb(255,255,255)" stroke-linejoin="miter" stroke-linecap="butt" stroke-miterlimit="10"/><mask id="_mask_4BJdU5zVEvOEtkiLwxj96YQAF4VtsmIZ" x="-200%" y="-200%" width="400%" height="400%"><rect x="-200%" y="-200%" width="400%" height="400%" style="fill:white;"/><line x1="4.942" y1="54.22" x2="4.942" y2="63.8" fill="black" stroke="none"/></mask><line x1="4.942" y1="54.22" x2="4.942" y2="63.8" mask="url(#_mask_4BJdU5zVEvOEtkiLwxj96YQAF4VtsmIZ)" vector-effect="non-scaling-stroke" stroke-width="0.5" stroke="rgb(255,255,255)" stroke-linejoin="miter" stroke-linecap="butt" stroke-miterlimit="10"/></g></g><g clip-path="url(#_clipPath_8X3vv8XcuCZ0uRlVLYLXJtwCVhyJ1yzx)"><text transform="matrix(1,0,0,1,96.187,64.629)" style="font-family:'Open Sans';font-weight:400;font-size:14px;font-style:normal;fill:#000000;stroke:none;">Moderna &#x3E; 2da. dosis</text></g><defs><clipPath id="_clipPath_8X3vv8XcuCZ0uRlVLYLXJtwCVhyJ1yzx"><rect x="0" y="0" width="175.87" height="20.67" transform="matrix(1,0,0,1,96.187,49.665)"/></clipPath></defs><g><g><circle vector-effect="non-scaling-stroke" cx="51.907500002291286" cy="47.999809896683" r="4" fill="rgb(0,0,0)"/><path d=" M 54.998 54 L 53.908 54 C 53.642 53.998 53.386 54.103 53.197 54.29 L 51.908 55.58 L 50.618 54.29 C 50.426 54.107 50.172 54.003 49.908 54 L 48.808 54 C 47.777 53.995 46.911 54.774 46.807 55.8 L 45.908 64.9 C 45.881 65.182 45.976 65.462 46.167 65.67 C 46.357 65.879 46.625 65.999 46.908 66 L 47.997 66 L 48.818 74.2 C 48.921 75.226 49.787 76.005 50.817 76 L 52.998 76 C 54.028 76.005 54.894 75.226 54.998 74.2 L 55.807 66 L 56.908 66 C 57.19 65.999 57.458 65.879 57.647 65.67 C 57.839 65.462 57.934 65.182 57.908 64.9 L 56.998 55.8 C 56.894 54.774 56.028 53.995 54.998 54 Z " fill="rgb(0,0,0)"/><circle vector-effect="non-scaling-stroke" cx="65.90750000229129" cy="47.999809896683" r="4" fill="rgb(0,0,0)"/><path d=" M 70.287 64 L 70.908 64 C 71.197 64.002 71.473 63.879 71.665 63.663 C 71.857 63.446 71.945 63.157 71.908 62.87 L 71.008 55.78 C 70.895 54.762 70.032 53.994 69.008 54 L 62.807 54 C 61.787 53.993 60.925 54.756 60.807 55.77 L 59.908 62.87 C 59.87 63.157 59.958 63.446 60.15 63.663 C 60.342 63.879 60.618 64.002 60.908 64 L 61.517 64 L 59.958 68.68 C 59.857 68.985 59.909 69.32 60.097 69.58 C 60.284 69.842 60.586 69.998 60.908 70 L 62.057 70 L 62.778 74.33 C 62.94 75.304 63.79 76.013 64.778 76 L 67.078 76 C 68.065 76.013 68.915 75.304 69.078 74.33 L 69.758 70 L 70.908 70 C 71.229 69.998 71.531 69.842 71.717 69.58 C 71.906 69.32 71.958 68.985 71.858 68.68 L 70.287 64 Z " fill="rgb(0,0,0)"/><path d=" M 55.187 74.49 L 62.578 74.49 C 62.908 74.449 63.156 74.168 63.156 73.835 C 63.156 73.502 62.908 73.221 62.578 73.18 L 60.718 73.18 L 60.718 69.85 L 62.567 69.85 C 62.898 69.809 63.146 69.528 63.146 69.195 C 63.146 68.862 62.898 68.581 62.567 68.54 L 61.637 68.54 L 61.637 55.33 L 60.708 55.33 L 59.777 52.56 L 59.508 52.56 L 59.508 46.09 C 59.467 45.759 59.186 45.511 58.852 45.511 C 58.519 45.511 58.238 45.759 58.197 46.09 L 58.197 52.55 L 57.908 52.55 L 56.998 55.32 L 56.067 55.32 L 56.067 68.52 L 55.168 68.52 C 54.809 68.52 54.517 68.811 54.517 69.17 C 54.517 69.529 54.809 69.82 55.168 69.82 L 57.017 69.82 L 57.017 73.13 L 55.178 73.13 C 55.004 73.13 54.838 73.2 54.718 73.324 C 54.597 73.449 54.532 73.617 54.538 73.79 C 54.524 73.971 54.586 74.149 54.709 74.282 C 54.833 74.415 55.006 74.49 55.187 74.49 Z  M 59.067 58.14 C 59.077 57.967 59.148 57.804 59.267 57.68 C 59.391 57.559 59.555 57.487 59.727 57.48 L 60.968 57.48 L 60.968 58.77 L 59.727 58.77 C 59.367 58.77 59.073 58.48 59.067 58.12 L 59.067 58.14 Z  M 59.067 60.82 C 59.067 60.461 59.359 60.17 59.718 60.17 L 60.958 60.17 L 60.958 61.46 L 59.737 61.46 C 59.564 61.465 59.396 61.4 59.272 61.28 C 59.148 61.159 59.077 60.993 59.078 60.82 L 59.067 60.82 Z  M 59.067 63.5 C 59.067 63.141 59.359 62.85 59.718 62.85 L 60.958 62.85 L 60.958 64.14 L 59.748 64.14 C 59.387 64.14 59.093 63.85 59.088 63.49 L 59.067 63.5 Z  M 59.067 66.18 C 59.062 65.83 59.338 65.541 59.687 65.53 L 60.947 65.53 L 60.947 66.82 L 59.758 66.82 C 59.402 66.82 59.113 66.535 59.107 66.18 L 59.067 66.18 Z " fill="rgb(0,0,0)" vector-effect="non-scaling-stroke" stroke-width="2" stroke="rgb(255,255,255)" stroke-linejoin="miter" stroke-linecap="butt" stroke-miterlimit="10"/><path d=" M 55.187 74.49 L 62.578 74.49 C 62.908 74.449 63.156 74.168 63.156 73.835 C 63.156 73.502 62.908 73.221 62.578 73.18 L 60.718 73.18 L 60.718 69.85 L 62.567 69.85 C 62.898 69.809 63.146 69.528 63.146 69.195 C 63.146 68.862 62.898 68.581 62.567 68.54 L 61.637 68.54 L 61.637 55.33 L 60.708 55.33 L 59.777 52.56 L 59.508 52.56 L 59.508 46.09 C 59.467 45.759 59.186 45.511 58.852 45.511 C 58.519 45.511 58.238 45.759 58.197 46.09 L 58.197 52.55 L 57.908 52.55 L 56.998 55.32 L 56.067 55.32 L 56.067 68.52 L 55.168 68.52 C 54.809 68.52 54.517 68.811 54.517 69.17 C 54.517 69.529 54.809 69.82 55.168 69.82 L 57.017 69.82 L 57.017 73.13 L 55.178 73.13 C 55.004 73.13 54.838 73.2 54.718 73.324 C 54.597 73.449 54.532 73.617 54.538 73.79 C 54.524 73.971 54.586 74.149 54.709 74.282 C 54.833 74.415 55.006 74.49 55.187 74.49 Z  M 59.067 58.14 C 59.077 57.967 59.148 57.804 59.267 57.68 C 59.391 57.559 59.555 57.487 59.727 57.48 L 60.968 57.48 L 60.968 58.77 L 59.727 58.77 C 59.367 58.77 59.073 58.48 59.067 58.12 L 59.067 58.14 Z  M 59.067 60.82 C 59.067 60.461 59.359 60.17 59.718 60.17 L 60.958 60.17 L 60.958 61.46 L 59.737 61.46 C 59.564 61.465 59.396 61.4 59.272 61.28 C 59.148 61.159 59.077 60.993 59.078 60.82 L 59.067 60.82 Z  M 59.067 63.5 C 59.067 63.141 59.359 62.85 59.718 62.85 L 60.958 62.85 L 60.958 64.14 L 59.748 64.14 C 59.387 64.14 59.093 63.85 59.088 63.49 L 59.067 63.5 Z  M 59.067 66.18 C 59.062 65.83 59.338 65.541 59.687 65.53 L 60.947 65.53 L 60.947 66.82 L 59.758 66.82 C 59.402 66.82 59.113 66.535 59.107 66.18 L 59.067 66.18 Z " fill="rgb(0,0,0)"/><g clip-path="url(#_clipPath_Aq2zwuh0FdwaqjvuwJW3I0ZG0dQZfdzX)"><text transform="matrix(1,0,0,1,48.908,62.84)" style="font-family:'Open Sans';font-weight:400;font-size:10px;font-style:normal;font-variant-ligatures:none;fill:[Object GRGBColor];stroke:none;">1</text></g><defs><clipPath id="_clipPath_Aq2zwuh0FdwaqjvuwJW3I0ZG0dQZfdzX"><rect x="0" y="0" width="8" height="13.618" transform="matrix(1,0,0,1,48.908,52.151)"/></clipPath></defs><g clip-path="url(#_clipPath_rWo0B511Bu9kG0L3qHWh0KrQrlORP3VM)"><text transform="matrix(1,0,0,1,63.618,63.5)" style="font-family:'Open Sans';font-weight:400;font-size:10px;font-style:normal;font-variant-ligatures:none;fill:[Object GRGBColor];stroke:none;">D</text></g><defs><clipPath id="_clipPath_rWo0B511Bu9kG0L3qHWh0KrQrlORP3VM"><rect x="0" y="0" width="10" height="13.618" transform="matrix(1,0,0,1,63.618,52.811)"/></clipPath></defs><mask id="_mask_0vOcd7qXhCzgv6XTlMOHGJ23w8CG9hiR" x="-200%" y="-200%" width="400%" height="400%"><rect x="-200%" y="-200%" width="400%" height="400%" style="fill:white;"/><line x1="85.908" y1="57.48" x2="85.908" y2="67.06" fill="black" stroke="none"/></mask><line x1="85.908" y1="57.48" x2="85.908" y2="67.06" mask="url(#_mask_0vOcd7qXhCzgv6XTlMOHGJ23w8CG9hiR)" vector-effect="non-scaling-stroke" stroke-width="0.5" stroke="rgb(255,255,255)" stroke-linejoin="miter" stroke-linecap="butt" stroke-miterlimit="10"/></g></g></g></g><g><g><g><g><path d=" M 22.712 187.98 C 23.993 188.42 25.112 188.7 26.712 189.19 C 26.112 197.04 18.693 193.92 22.712 187.98 Z  M 29.343 180.78 C 29.253 178.42 28.843 175.33 25.532 175.78 C 23.983 176.19 22.843 177.89 22.302 180.78 C 22.048 182.522 22.126 184.297 22.532 186.01 C 22.843 187.01 22.743 186.91 23.083 187.09 C 24.403 187.39 25.712 187.72 27.083 188.09 C 28.413 187.18 29.522 182.09 29.343 180.78 Z  M 19.142 180.6 C 19.545 178.883 19.62 177.105 19.363 175.36 C 18.823 172.42 17.682 170.72 16.132 170.36 C 12.833 169.87 12.412 172.96 12.332 175.36 C 12.142 176.68 13.262 181.76 14.613 182.72 C 15.953 182.38 17.262 182.05 18.613 181.72 C 18.932 181.49 18.813 181.55 19.142 180.6 Z  M 14.932 183.7 C 15.563 191.54 22.933 188.43 18.932 182.48 C 17.682 182.92 16.552 183.2 14.932 183.7 Z " fill="rgb(29,113,184)"/><mask id="_mask_o5LjLFfJrkSJe4wQjX15OoA2BpbCWB8H" x="-200%" y="-200%" width="400%" height="400%"><rect x="-200%" y="-200%" width="400%" height="400%" style="fill:white;"/><line x1="37.173" y1="172.22" x2="37.173" y2="181.8" fill="black" stroke="none"/></mask><line x1="37.173" y1="172.22" x2="37.173" y2="181.8" mask="url(#_mask_o5LjLFfJrkSJe4wQjX15OoA2BpbCWB8H)" vector-effect="non-scaling-stroke" stroke-width="0.5" stroke="rgb(255,255,255)" stroke-linejoin="miter" stroke-linecap="butt" stroke-miterlimit="10"/><mask id="_mask_UuyyAo4NkVoRsi3194aAPZ3MMu4UT0Ys" x="-200%" y="-200%" width="400%" height="400%"><rect x="-200%" y="-200%" width="400%" height="400%" style="fill:white;"/><line x1="16.163" y1="162" x2="25.743" y2="162" fill="black" stroke="none"/></mask><line x1="16.163" y1="162" x2="25.743" y2="162" mask="url(#_mask_UuyyAo4NkVoRsi3194aAPZ3MMu4UT0Ys)" vector-effect="non-scaling-stroke" stroke-width="0.5" stroke="rgb(255,255,255)" stroke-linejoin="miter" stroke-linecap="butt" stroke-miterlimit="10"/><mask id="_mask_x292ysf2ilFjPAtwgnumbXdOnOdTLBZO" x="-200%" y="-200%" width="400%" height="400%"><rect x="-200%" y="-200%" width="400%" height="400%" style="fill:white;"/><line x1="4.942" y1="172.22" x2="4.942" y2="181.8" fill="black" stroke="none"/></mask><line x1="4.942" y1="172.22" x2="4.942" y2="181.8" mask="url(#_mask_x292ysf2ilFjPAtwgnumbXdOnOdTLBZO)" vector-effect="non-scaling-stroke" stroke-width="0.5" stroke="rgb(255,255,255)" stroke-linejoin="miter" stroke-linecap="butt" stroke-miterlimit="10"/></g></g><g clip-path="url(#_clipPath_ioKL1lqtnG1o8K8atmIatJnOZzYEToFR)"><text transform="matrix(1,0,0,1,96.187,182.629)" style="font-family:'Open Sans';font-weight:400;font-size:14px;font-style:normal;fill:#000000;stroke:none;">AstraZeneca &#x3E; 2da. dosis</text></g><defs><clipPath id="_clipPath_ioKL1lqtnG1o8K8atmIatJnOZzYEToFR"><rect x="0" y="0" width="175.87" height="20.67" transform="matrix(1,0,0,1,96.187,167.665)"/></clipPath></defs><g><g><circle vector-effect="non-scaling-stroke" cx="51.907500002291286" cy="165.999809896683" r="4" fill="rgb(0,0,0)"/><path d=" M 54.998 172 L 53.908 172 C 53.642 171.998 53.386 172.103 53.197 172.29 L 51.908 173.58 L 50.618 172.29 C 50.426 172.107 50.172 172.003 49.908 172 L 48.808 172 C 47.777 171.995 46.911 172.774 46.807 173.8 L 45.908 182.9 C 45.881 183.182 45.976 183.462 46.167 183.67 C 46.357 183.879 46.625 183.999 46.908 184 L 47.997 184 L 48.818 192.2 C 48.921 193.226 49.787 194.005 50.817 194 L 52.998 194 C 54.028 194.005 54.894 193.226 54.998 192.2 L 55.807 184 L 56.908 184 C 57.19 183.999 57.458 183.879 57.647 183.67 C 57.839 183.462 57.934 183.182 57.908 182.9 L 56.998 173.8 C 56.894 172.774 56.028 171.995 54.998 172 Z " fill="rgb(0,0,0)"/><circle vector-effect="non-scaling-stroke" cx="65.90750000229129" cy="165.999809896683" r="4" fill="rgb(0,0,0)"/><path d=" M 70.287 182 L 70.908 182 C 71.197 182.002 71.473 181.879 71.665 181.663 C 71.857 181.446 71.945 181.157 71.908 180.87 L 71.008 173.78 C 70.895 172.762 70.032 171.994 69.008 172 L 62.807 172 C 61.787 171.993 60.925 172.756 60.807 173.77 L 59.908 180.87 C 59.87 181.157 59.958 181.446 60.15 181.663 C 60.342 181.879 60.618 182.002 60.908 182 L 61.517 182 L 59.958 186.68 C 59.857 186.985 59.909 187.32 60.097 187.58 C 60.284 187.842 60.586 187.998 60.908 188 L 62.057 188 L 62.778 192.33 C 62.94 193.304 63.79 194.013 64.778 194 L 67.078 194 C 68.065 194.013 68.915 193.304 69.078 192.33 L 69.758 188 L 70.908 188 C 71.229 187.998 71.531 187.842 71.717 187.58 C 71.906 187.32 71.958 186.985 71.858 186.68 L 70.287 182 Z " fill="rgb(0,0,0)"/><path d=" M 55.187 192.49 L 62.578 192.49 C 62.908 192.449 63.156 192.168 63.156 191.835 C 63.156 191.502 62.908 191.221 62.578 191.18 L 60.718 191.18 L 60.718 187.85 L 62.567 187.85 C 62.898 187.809 63.146 187.528 63.146 187.195 C 63.146 186.862 62.898 186.581 62.567 186.54 L 61.637 186.54 L 61.637 173.33 L 60.708 173.33 L 59.777 170.56 L 59.508 170.56 L 59.508 164.09 C 59.467 163.759 59.186 163.511 58.852 163.511 C 58.519 163.511 58.238 163.759 58.197 164.09 L 58.197 170.55 L 57.908 170.55 L 56.998 173.32 L 56.067 173.32 L 56.067 186.52 L 55.168 186.52 C 54.809 186.52 54.517 186.811 54.517 187.17 C 54.517 187.529 54.809 187.82 55.168 187.82 L 57.017 187.82 L 57.017 191.13 L 55.178 191.13 C 55.004 191.13 54.838 191.2 54.718 191.324 C 54.597 191.449 54.532 191.617 54.538 191.79 C 54.524 191.971 54.586 192.149 54.709 192.282 C 54.833 192.415 55.006 192.49 55.187 192.49 Z  M 59.067 176.14 C 59.077 175.967 59.148 175.804 59.267 175.68 C 59.391 175.559 59.555 175.487 59.727 175.48 L 60.968 175.48 L 60.968 176.77 L 59.727 176.77 C 59.367 176.77 59.073 176.48 59.067 176.12 L 59.067 176.14 Z  M 59.067 178.82 C 59.067 178.461 59.359 178.17 59.718 178.17 L 60.958 178.17 L 60.958 179.46 L 59.737 179.46 C 59.564 179.465 59.396 179.4 59.272 179.28 C 59.148 179.159 59.077 178.993 59.078 178.82 L 59.067 178.82 Z  M 59.067 181.5 C 59.067 181.141 59.359 180.85 59.718 180.85 L 60.958 180.85 L 60.958 182.14 L 59.748 182.14 C 59.387 182.14 59.093 181.85 59.088 181.49 L 59.067 181.5 Z  M 59.067 184.18 C 59.062 183.83 59.338 183.541 59.687 183.53 L 60.947 183.53 L 60.947 184.82 L 59.758 184.82 C 59.402 184.82 59.113 184.535 59.107 184.18 L 59.067 184.18 Z " fill="rgb(0,0,0)" vector-effect="non-scaling-stroke" stroke-width="2" stroke="rgb(255,255,255)" stroke-linejoin="miter" stroke-linecap="butt" stroke-miterlimit="10"/><path d=" M 55.187 192.49 L 62.578 192.49 C 62.908 192.449 63.156 192.168 63.156 191.835 C 63.156 191.502 62.908 191.221 62.578 191.18 L 60.718 191.18 L 60.718 187.85 L 62.567 187.85 C 62.898 187.809 63.146 187.528 63.146 187.195 C 63.146 186.862 62.898 186.581 62.567 186.54 L 61.637 186.54 L 61.637 173.33 L 60.708 173.33 L 59.777 170.56 L 59.508 170.56 L 59.508 164.09 C 59.467 163.759 59.186 163.511 58.852 163.511 C 58.519 163.511 58.238 163.759 58.197 164.09 L 58.197 170.55 L 57.908 170.55 L 56.998 173.32 L 56.067 173.32 L 56.067 186.52 L 55.168 186.52 C 54.809 186.52 54.517 186.811 54.517 187.17 C 54.517 187.529 54.809 187.82 55.168 187.82 L 57.017 187.82 L 57.017 191.13 L 55.178 191.13 C 55.004 191.13 54.838 191.2 54.718 191.324 C 54.597 191.449 54.532 191.617 54.538 191.79 C 54.524 191.971 54.586 192.149 54.709 192.282 C 54.833 192.415 55.006 192.49 55.187 192.49 Z  M 59.067 176.14 C 59.077 175.967 59.148 175.804 59.267 175.68 C 59.391 175.559 59.555 175.487 59.727 175.48 L 60.968 175.48 L 60.968 176.77 L 59.727 176.77 C 59.367 176.77 59.073 176.48 59.067 176.12 L 59.067 176.14 Z  M 59.067 178.82 C 59.067 178.461 59.359 178.17 59.718 178.17 L 60.958 178.17 L 60.958 179.46 L 59.737 179.46 C 59.564 179.465 59.396 179.4 59.272 179.28 C 59.148 179.159 59.077 178.993 59.078 178.82 L 59.067 178.82 Z  M 59.067 181.5 C 59.067 181.141 59.359 180.85 59.718 180.85 L 60.958 180.85 L 60.958 182.14 L 59.748 182.14 C 59.387 182.14 59.093 181.85 59.088 181.49 L 59.067 181.5 Z  M 59.067 184.18 C 59.062 183.83 59.338 183.541 59.687 183.53 L 60.947 183.53 L 60.947 184.82 L 59.758 184.82 C 59.402 184.82 59.113 184.535 59.107 184.18 L 59.067 184.18 Z " fill="rgb(0,0,0)"/><g clip-path="url(#_clipPath_NYdkNuUBpMQOnsLZaPkFZX6itcSYZeAb)"><text transform="matrix(1,0,0,1,48.908,180.84)" style="font-family:'Open Sans';font-weight:400;font-size:10px;font-style:normal;font-variant-ligatures:none;fill:[Object GRGBColor];stroke:none;">1</text></g><defs><clipPath id="_clipPath_NYdkNuUBpMQOnsLZaPkFZX6itcSYZeAb"><rect x="0" y="0" width="8" height="13.618" transform="matrix(1,0,0,1,48.908,170.151)"/></clipPath></defs><g clip-path="url(#_clipPath_45TpsHhpR2jNUTiwoXYMQMI8y29nVAFP)"><text transform="matrix(1,0,0,1,63.618,181.5)" style="font-family:'Open Sans';font-weight:400;font-size:10px;font-style:normal;font-variant-ligatures:none;fill:[Object GRGBColor];stroke:none;">D</text></g><defs><clipPath id="_clipPath_45TpsHhpR2jNUTiwoXYMQMI8y29nVAFP"><rect x="0" y="0" width="10" height="13.618" transform="matrix(1,0,0,1,63.618,170.811)"/></clipPath></defs><mask id="_mask_0C6ornjvlLCJS6ptHEA5Kvxuir9UqQFz" x="-200%" y="-200%" width="400%" height="400%"><rect x="-200%" y="-200%" width="400%" height="400%" style="fill:white;"/><line x1="85.908" y1="175.48" x2="85.908" y2="185.06" fill="black" stroke="none"/></mask><line x1="85.908" y1="175.48" x2="85.908" y2="185.06" mask="url(#_mask_0C6ornjvlLCJS6ptHEA5Kvxuir9UqQFz)" vector-effect="non-scaling-stroke" stroke-width="0.5" stroke="rgb(255,255,255)" stroke-linejoin="miter" stroke-linecap="butt" stroke-miterlimit="10"/></g></g></g></g><g><g><g><g><path d=" M 22.712 227.98 C 23.993 228.42 25.112 228.7 26.712 229.19 C 26.112 237.04 18.693 233.92 22.712 227.98 Z  M 29.343 220.78 C 29.253 218.42 28.843 215.33 25.532 215.78 C 23.983 216.19 22.843 217.89 22.302 220.78 C 22.048 222.522 22.126 224.297 22.532 226.01 C 22.843 227.01 22.743 226.91 23.083 227.09 C 24.403 227.39 25.712 227.72 27.083 228.09 C 28.413 227.18 29.522 222.09 29.343 220.78 Z  M 19.142 220.6 C 19.545 218.883 19.62 217.105 19.363 215.36 C 18.823 212.42 17.682 210.72 16.132 210.36 C 12.833 209.87 12.412 212.96 12.332 215.36 C 12.142 216.68 13.262 221.76 14.613 222.72 C 15.953 222.38 17.262 222.05 18.613 221.72 C 18.932 221.49 18.813 221.55 19.142 220.6 Z  M 14.932 223.7 C 15.563 231.54 22.933 228.43 18.932 222.48 C 17.682 222.92 16.552 223.2 14.932 223.7 Z " fill="rgb(29,113,184)"/><mask id="_mask_7IbcUromt3S4ajaHI2WUkAlrLBiKafnx" x="-200%" y="-200%" width="400%" height="400%"><rect x="-200%" y="-200%" width="400%" height="400%" style="fill:white;"/><line x1="37.173" y1="212.22" x2="37.173" y2="221.8" fill="black" stroke="none"/></mask><line x1="37.173" y1="212.22" x2="37.173" y2="221.8" mask="url(#_mask_7IbcUromt3S4ajaHI2WUkAlrLBiKafnx)" vector-effect="non-scaling-stroke" stroke-width="0.5" stroke="rgb(255,255,255)" stroke-linejoin="miter" stroke-linecap="butt" stroke-miterlimit="10"/><mask id="_mask_ZG7uQvCKtV0X8DGEzAXpfoN7tvGyBtQL" x="-200%" y="-200%" width="400%" height="400%"><rect x="-200%" y="-200%" width="400%" height="400%" style="fill:white;"/><line x1="16.163" y1="202" x2="25.743" y2="202" fill="black" stroke="none"/></mask><line x1="16.163" y1="202" x2="25.743" y2="202" mask="url(#_mask_ZG7uQvCKtV0X8DGEzAXpfoN7tvGyBtQL)" vector-effect="non-scaling-stroke" stroke-width="0.5" stroke="rgb(255,255,255)" stroke-linejoin="miter" stroke-linecap="butt" stroke-miterlimit="10"/><mask id="_mask_pffijZnEzKaoj2KR0FXTfoFf0kurLdKI" x="-200%" y="-200%" width="400%" height="400%"><rect x="-200%" y="-200%" width="400%" height="400%" style="fill:white;"/><line x1="4.942" y1="212.22" x2="4.942" y2="221.8" fill="black" stroke="none"/></mask><line x1="4.942" y1="212.22" x2="4.942" y2="221.8" mask="url(#_mask_pffijZnEzKaoj2KR0FXTfoFf0kurLdKI)" vector-effect="non-scaling-stroke" stroke-width="0.5" stroke="rgb(255,255,255)" stroke-linejoin="miter" stroke-linecap="butt" stroke-miterlimit="10"/></g></g><g clip-path="url(#_clipPath_Sx4o7uMVDYrm6rREilxSmhii1fjuIkdW)"><text transform="matrix(1,0,0,1,96.187,222.629)" style="font-family:'Open Sans';font-weight:400;font-size:14px;font-style:normal;fill:#000000;stroke:none;">Sputnik V &#x3E; 2da. dosis</text></g><defs><clipPath id="_clipPath_Sx4o7uMVDYrm6rREilxSmhii1fjuIkdW"><rect x="0" y="0" width="175.87" height="20.67" transform="matrix(1,0,0,1,96.187,207.665)"/></clipPath></defs><g><g><circle vector-effect="non-scaling-stroke" cx="51.907500002291286" cy="205.999809896683" r="4" fill="rgb(0,0,0)"/><path d=" M 54.998 212 L 53.908 212 C 53.642 211.998 53.386 212.103 53.197 212.29 L 51.908 213.58 L 50.618 212.29 C 50.426 212.107 50.172 212.003 49.908 212 L 48.808 212 C 47.777 211.995 46.911 212.774 46.807 213.8 L 45.908 222.9 C 45.881 223.182 45.976 223.462 46.167 223.67 C 46.357 223.879 46.625 223.999 46.908 224 L 47.997 224 L 48.818 232.2 C 48.921 233.226 49.787 234.005 50.817 234 L 52.998 234 C 54.028 234.005 54.894 233.226 54.998 232.2 L 55.807 224 L 56.908 224 C 57.19 223.999 57.458 223.879 57.647 223.67 C 57.839 223.462 57.934 223.182 57.908 222.9 L 56.998 213.8 C 56.894 212.774 56.028 211.995 54.998 212 Z " fill="rgb(0,0,0)"/><circle vector-effect="non-scaling-stroke" cx="65.90750000229129" cy="205.999809896683" r="4" fill="rgb(0,0,0)"/><path d=" M 70.287 222 L 70.908 222 C 71.197 222.002 71.473 221.879 71.665 221.663 C 71.857 221.446 71.945 221.157 71.908 220.87 L 71.008 213.78 C 70.895 212.762 70.032 211.994 69.008 212 L 62.807 212 C 61.787 211.993 60.925 212.756 60.807 213.77 L 59.908 220.87 C 59.87 221.157 59.958 221.446 60.15 221.663 C 60.342 221.879 60.618 222.002 60.908 222 L 61.517 222 L 59.958 226.68 C 59.857 226.985 59.909 227.32 60.097 227.58 C 60.284 227.842 60.586 227.998 60.908 228 L 62.057 228 L 62.778 232.33 C 62.94 233.304 63.79 234.013 64.778 234 L 67.078 234 C 68.065 234.013 68.915 233.304 69.078 232.33 L 69.758 228 L 70.908 228 C 71.229 227.998 71.531 227.842 71.717 227.58 C 71.906 227.32 71.958 226.985 71.858 226.68 L 70.287 222 Z " fill="rgb(0,0,0)"/><path d=" M 55.187 232.49 L 62.578 232.49 C 62.908 232.449 63.156 232.168 63.156 231.835 C 63.156 231.502 62.908 231.221 62.578 231.18 L 60.718 231.18 L 60.718 227.85 L 62.567 227.85 C 62.898 227.809 63.146 227.528 63.146 227.195 C 63.146 226.862 62.898 226.581 62.567 226.54 L 61.637 226.54 L 61.637 213.33 L 60.708 213.33 L 59.777 210.56 L 59.508 210.56 L 59.508 204.09 C 59.467 203.759 59.186 203.511 58.852 203.511 C 58.519 203.511 58.238 203.759 58.197 204.09 L 58.197 210.55 L 57.908 210.55 L 56.998 213.32 L 56.067 213.32 L 56.067 226.52 L 55.168 226.52 C 54.809 226.52 54.517 226.811 54.517 227.17 C 54.517 227.529 54.809 227.82 55.168 227.82 L 57.017 227.82 L 57.017 231.13 L 55.178 231.13 C 55.004 231.13 54.838 231.2 54.718 231.324 C 54.597 231.449 54.532 231.617 54.538 231.79 C 54.524 231.971 54.586 232.149 54.709 232.282 C 54.833 232.415 55.006 232.49 55.187 232.49 Z  M 59.067 216.14 C 59.077 215.967 59.148 215.804 59.267 215.68 C 59.391 215.559 59.555 215.487 59.727 215.48 L 60.968 215.48 L 60.968 216.77 L 59.727 216.77 C 59.367 216.77 59.073 216.48 59.067 216.12 L 59.067 216.14 Z  M 59.067 218.82 C 59.067 218.461 59.359 218.17 59.718 218.17 L 60.958 218.17 L 60.958 219.46 L 59.737 219.46 C 59.564 219.465 59.396 219.4 59.272 219.28 C 59.148 219.159 59.077 218.993 59.078 218.82 L 59.067 218.82 Z  M 59.067 221.5 C 59.067 221.141 59.359 220.85 59.718 220.85 L 60.958 220.85 L 60.958 222.14 L 59.748 222.14 C 59.387 222.14 59.093 221.85 59.088 221.49 L 59.067 221.5 Z  M 59.067 224.18 C 59.062 223.83 59.338 223.541 59.687 223.53 L 60.947 223.53 L 60.947 224.82 L 59.758 224.82 C 59.402 224.82 59.113 224.535 59.107 224.18 L 59.067 224.18 Z " fill="rgb(0,0,0)" vector-effect="non-scaling-stroke" stroke-width="2" stroke="rgb(255,255,255)" stroke-linejoin="miter" stroke-linecap="butt" stroke-miterlimit="10"/><path d=" M 55.187 232.49 L 62.578 232.49 C 62.908 232.449 63.156 232.168 63.156 231.835 C 63.156 231.502 62.908 231.221 62.578 231.18 L 60.718 231.18 L 60.718 227.85 L 62.567 227.85 C 62.898 227.809 63.146 227.528 63.146 227.195 C 63.146 226.862 62.898 226.581 62.567 226.54 L 61.637 226.54 L 61.637 213.33 L 60.708 213.33 L 59.777 210.56 L 59.508 210.56 L 59.508 204.09 C 59.467 203.759 59.186 203.511 58.852 203.511 C 58.519 203.511 58.238 203.759 58.197 204.09 L 58.197 210.55 L 57.908 210.55 L 56.998 213.32 L 56.067 213.32 L 56.067 226.52 L 55.168 226.52 C 54.809 226.52 54.517 226.811 54.517 227.17 C 54.517 227.529 54.809 227.82 55.168 227.82 L 57.017 227.82 L 57.017 231.13 L 55.178 231.13 C 55.004 231.13 54.838 231.2 54.718 231.324 C 54.597 231.449 54.532 231.617 54.538 231.79 C 54.524 231.971 54.586 232.149 54.709 232.282 C 54.833 232.415 55.006 232.49 55.187 232.49 Z  M 59.067 216.14 C 59.077 215.967 59.148 215.804 59.267 215.68 C 59.391 215.559 59.555 215.487 59.727 215.48 L 60.968 215.48 L 60.968 216.77 L 59.727 216.77 C 59.367 216.77 59.073 216.48 59.067 216.12 L 59.067 216.14 Z  M 59.067 218.82 C 59.067 218.461 59.359 218.17 59.718 218.17 L 60.958 218.17 L 60.958 219.46 L 59.737 219.46 C 59.564 219.465 59.396 219.4 59.272 219.28 C 59.148 219.159 59.077 218.993 59.078 218.82 L 59.067 218.82 Z  M 59.067 221.5 C 59.067 221.141 59.359 220.85 59.718 220.85 L 60.958 220.85 L 60.958 222.14 L 59.748 222.14 C 59.387 222.14 59.093 221.85 59.088 221.49 L 59.067 221.5 Z  M 59.067 224.18 C 59.062 223.83 59.338 223.541 59.687 223.53 L 60.947 223.53 L 60.947 224.82 L 59.758 224.82 C 59.402 224.82 59.113 224.535 59.107 224.18 L 59.067 224.18 Z " fill="rgb(0,0,0)"/><g clip-path="url(#_clipPath_xMXMd5iWoRgq6NuPHSpdnTyu6MJLVMBP)"><text transform="matrix(1,0,0,1,48.908,220.84)" style="font-family:'Open Sans';font-weight:400;font-size:10px;font-style:normal;font-variant-ligatures:none;fill:[Object GRGBColor];stroke:none;">1</text></g><defs><clipPath id="_clipPath_xMXMd5iWoRgq6NuPHSpdnTyu6MJLVMBP"><rect x="0" y="0" width="8" height="13.618" transform="matrix(1,0,0,1,48.908,210.151)"/></clipPath></defs><g clip-path="url(#_clipPath_F1iLAcyJ4HkcnVU7tZ5eoEu2dztG6TjM)"><text transform="matrix(1,0,0,1,63.618,221.5)" style="font-family:'Open Sans';font-weight:400;font-size:10px;font-style:normal;font-variant-ligatures:none;fill:[Object GRGBColor];stroke:none;">D</text></g><defs><clipPath id="_clipPath_F1iLAcyJ4HkcnVU7tZ5eoEu2dztG6TjM"><rect x="0" y="0" width="10" height="13.618" transform="matrix(1,0,0,1,63.618,210.811)"/></clipPath></defs><mask id="_mask_AKlwDiBKgy2936NYX1vA0L8PhygwuA73" x="-200%" y="-200%" width="400%" height="400%"><rect x="-200%" y="-200%" width="400%" height="400%" style="fill:white;"/><line x1="85.908" y1="215.48" x2="85.908" y2="225.06" fill="black" stroke="none"/></mask><line x1="85.908" y1="215.48" x2="85.908" y2="225.06" mask="url(#_mask_AKlwDiBKgy2936NYX1vA0L8PhygwuA73)" vector-effect="non-scaling-stroke" stroke-width="0.5" stroke="rgb(255,255,255)" stroke-linejoin="miter" stroke-linecap="butt" stroke-miterlimit="10"/></g></g></g></g><g><g><g><circle vector-effect="non-scaling-stroke" cx="52.19180863945414" cy="127.17415353903584" r="4" fill="rgb(0,0,0)"/><path d=" M 55.282 133.174 L 54.192 133.174 C 53.926 133.173 53.671 133.277 53.482 133.464 L 52.192 134.754 L 50.902 133.464 C 50.71 133.281 50.457 133.178 50.192 133.174 L 49.092 133.174 C 48.061 133.169 47.195 133.948 47.092 134.974 L 46.192 144.074 C 46.166 144.356 46.26 144.636 46.452 144.844 C 46.641 145.054 46.91 145.173 47.192 145.174 L 48.282 145.174 L 49.102 153.374 C 49.205 154.4 50.071 155.179 51.102 155.174 L 53.282 155.174 C 54.313 155.179 55.179 154.4 55.282 153.374 L 56.092 145.174 L 57.192 145.174 C 57.474 145.173 57.743 145.054 57.932 144.844 C 58.124 144.636 58.218 144.356 58.192 144.074 L 57.282 134.974 C 57.179 133.948 56.313 133.169 55.282 133.174 Z " fill="rgb(0,0,0)"/><circle vector-effect="non-scaling-stroke" cx="64.19180863945414" cy="127.17415353903584" r="4" fill="rgb(0,0,0)"/><path d=" M 68.582 143.174 L 69.192 143.174 C 69.481 143.177 69.757 143.054 69.949 142.837 C 70.141 142.62 70.229 142.331 70.192 142.044 L 69.292 134.954 C 69.179 133.936 68.316 133.168 67.292 133.174 L 61.092 133.174 C 60.071 133.167 59.209 133.93 59.092 134.944 L 58.192 142.044 C 58.154 142.331 58.243 142.62 58.434 142.837 C 58.626 143.054 58.902 143.177 59.192 143.174 L 59.802 143.174 L 58.242 147.854 C 58.141 148.159 58.193 148.494 58.382 148.754 C 58.568 149.016 58.87 149.173 59.192 149.174 L 60.342 149.174 L 61.062 153.504 C 61.225 154.478 62.074 155.188 63.062 155.174 L 65.362 155.174 C 66.349 155.188 67.199 154.478 67.362 153.504 L 68.042 149.174 L 69.192 149.174 C 69.514 149.173 69.815 149.016 70.002 148.754 C 70.19 148.494 70.242 148.159 70.142 147.854 L 68.582 143.174 Z " fill="rgb(0,0,0)"/><g clip-path="url(#_clipPath_BUxqpomx4ZOMg7MraiyIEMkEXJUgLLdf)"><text transform="matrix(1,0,0,1,69.152,133.394)" style="font-family:'Open Sans';font-weight:400;font-size:10px;font-style:normal;font-variant-ligatures:none;fill:[Object GRGBColor];stroke:none;">18+</text></g><defs><clipPath id="_clipPath_BUxqpomx4ZOMg7MraiyIEMkEXJUgLLdf"><rect x="0" y="0" width="20" height="13.618" transform="matrix(1,0,0,1,69.152,122.706)"/></clipPath></defs></g></g><g><g><path d=" M 22.712 146.98 C 23.993 147.42 25.112 147.7 26.712 148.19 C 26.112 156.04 18.693 152.92 22.712 146.98 Z  M 29.343 139.78 C 29.253 137.42 28.843 134.33 25.532 134.78 C 23.983 135.19 22.843 136.89 22.302 139.78 C 22.048 141.522 22.126 143.297 22.532 145.01 C 22.843 146.01 22.743 145.91 23.083 146.09 C 24.403 146.39 25.712 146.72 27.083 147.09 C 28.413 146.18 29.522 141.09 29.343 139.78 Z  M 19.142 139.6 C 19.545 137.883 19.62 136.105 19.363 134.36 C 18.823 131.42 17.682 129.72 16.132 129.36 C 12.833 128.87 12.412 131.96 12.332 134.36 C 12.142 135.68 13.262 140.76 14.613 141.72 C 15.953 141.38 17.262 141.05 18.613 140.72 C 18.932 140.49 18.813 140.55 19.142 139.6 Z  M 14.932 142.7 C 15.563 150.54 22.933 147.43 18.932 141.48 C 17.682 141.92 16.552 142.2 14.932 142.7 Z " fill="rgb(29,113,184)"/><mask id="_mask_7vsIzBiBpwS1kR0zdJsXyCIaMgZv1q9t" x="-200%" y="-200%" width="400%" height="400%"><rect x="-200%" y="-200%" width="400%" height="400%" style="fill:white;"/><line x1="37.173" y1="131.22" x2="37.173" y2="140.8" fill="black" stroke="none"/></mask><line x1="37.173" y1="131.22" x2="37.173" y2="140.8" mask="url(#_mask_7vsIzBiBpwS1kR0zdJsXyCIaMgZv1q9t)" vector-effect="non-scaling-stroke" stroke-width="0.5" stroke="rgb(255,255,255)" stroke-linejoin="miter" stroke-linecap="butt" stroke-miterlimit="10"/><mask id="_mask_81DwlemkxAo85JosRblniGnEDouYHzzg" x="-200%" y="-200%" width="400%" height="400%"><rect x="-200%" y="-200%" width="400%" height="400%" style="fill:white;"/><line x1="16.163" y1="121" x2="25.743" y2="121" fill="black" stroke="none"/></mask><line x1="16.163" y1="121" x2="25.743" y2="121" mask="url(#_mask_81DwlemkxAo85JosRblniGnEDouYHzzg)" vector-effect="non-scaling-stroke" stroke-width="0.5" stroke="rgb(255,255,255)" stroke-linejoin="miter" stroke-linecap="butt" stroke-miterlimit="10"/><mask id="_mask_thBSEtwsTpEz8ziUGNMk3pvs6CHaaxkD" x="-200%" y="-200%" width="400%" height="400%"><rect x="-200%" y="-200%" width="400%" height="400%" style="fill:white;"/><line x1="4.942" y1="131.22" x2="4.942" y2="140.8" fill="black" stroke="none"/></mask><line x1="4.942" y1="131.22" x2="4.942" y2="140.8" mask="url(#_mask_thBSEtwsTpEz8ziUGNMk3pvs6CHaaxkD)" vector-effect="non-scaling-stroke" stroke-width="0.5" stroke="rgb(255,255,255)" stroke-linejoin="miter" stroke-linecap="butt" stroke-miterlimit="10"/></g></g><g><g clip-path="url(#_clipPath_JQRhv0cYhL1FhV8zwFDZI33JWfrMprWu)"><text transform="matrix(1,0,0,1,96.187,141.629)" style="font-family:'Open Sans';font-weight:400;font-size:14px;font-style:normal;fill:#000000;stroke:none;">AstraZeneca &#x3E; 1ra. dosis</text></g><defs><clipPath id="_clipPath_JQRhv0cYhL1FhV8zwFDZI33JWfrMprWu"><rect x="0" y="0" width="175.87" height="20.67" transform="matrix(1,0,0,1,96.187,126.665)"/></clipPath></defs></g></g><g><g><g><g><g><path d=" M 22.712 108.98 C 23.993 109.42 25.112 109.7 26.712 110.19 C 26.112 118.04 18.693 114.92 22.712 108.98 Z  M 29.343 101.78 C 29.253 99.42 28.843 96.33 25.532 96.78 C 23.983 97.19 22.843 98.89 22.302 101.78 C 22.048 103.522 22.126 105.297 22.532 107.01 C 22.843 108.01 22.743 107.91 23.083 108.09 C 24.403 108.39 25.712 108.72 27.083 109.09 C 28.413 108.18 29.522 103.09 29.343 101.78 Z  M 19.142 101.6 C 19.545 99.883 19.62 98.105 19.363 96.36 C 18.823 93.42 17.682 91.72 16.132 91.36 C 12.833 90.87 12.412 93.96 12.332 96.36 C 12.142 97.68 13.262 102.76 14.613 103.72 C 15.953 103.38 17.262 103.05 18.613 102.72 C 18.932 102.49 18.813 102.55 19.142 101.6 Z  M 14.932 104.7 C 15.563 112.54 22.933 109.43 18.932 103.48 C 17.682 103.92 16.552 104.2 14.932 104.7 Z " fill="rgb(29,113,184)"/><mask id="_mask_JQpzS9Y84ZDYlgXC6nEP4ysazON98APa" x="-200%" y="-200%" width="400%" height="400%"><rect x="-200%" y="-200%" width="400%" height="400%" style="fill:white;"/><line x1="37.173" y1="93.22" x2="37.173" y2="102.8" fill="black" stroke="none"/></mask><line x1="37.173" y1="93.22" x2="37.173" y2="102.8" mask="url(#_mask_JQpzS9Y84ZDYlgXC6nEP4ysazON98APa)" vector-effect="non-scaling-stroke" stroke-width="0.5" stroke="rgb(255,255,255)" stroke-linejoin="miter" stroke-linecap="butt" stroke-miterlimit="10"/><mask id="_mask_OKlVGijFqpF8d0Y5yiJiKSHsXpr0W3oP" x="-200%" y="-200%" width="400%" height="400%"><rect x="-200%" y="-200%" width="400%" height="400%" style="fill:white;"/><line x1="16.163" y1="83" x2="25.743" y2="83" fill="black" stroke="none"/></mask><line x1="16.163" y1="83" x2="25.743" y2="83" mask="url(#_mask_OKlVGijFqpF8d0Y5yiJiKSHsXpr0W3oP)" vector-effect="non-scaling-stroke" stroke-width="0.5" stroke="rgb(255,255,255)" stroke-linejoin="miter" stroke-linecap="butt" stroke-miterlimit="10"/><mask id="_mask_MVkUwaNEmpPYtlbEjDa2EjWUTLCLkl6B" x="-200%" y="-200%" width="400%" height="400%"><rect x="-200%" y="-200%" width="400%" height="400%" style="fill:white;"/><line x1="4.942" y1="93.22" x2="4.942" y2="102.8" fill="black" stroke="none"/></mask><line x1="4.942" y1="93.22" x2="4.942" y2="102.8" mask="url(#_mask_MVkUwaNEmpPYtlbEjDa2EjWUTLCLkl6B)" vector-effect="non-scaling-stroke" stroke-width="0.5" stroke="rgb(255,255,255)" stroke-linejoin="miter" stroke-linecap="butt" stroke-miterlimit="10"/></g></g><g clip-path="url(#_clipPath_RqJBSvaAfea42r35RMVUsXonsGvMALoD)"><text transform="matrix(1,0,0,1,96.187,103.629)" style="font-family:'Open Sans';font-weight:400;font-size:14px;font-style:normal;fill:#000000;stroke:none;">Moderna &#x3E; 1ra. dosis</text></g><defs><clipPath id="_clipPath_RqJBSvaAfea42r35RMVUsXonsGvMALoD"><rect x="0" y="0" width="175.87" height="20.67" transform="matrix(1,0,0,1,96.187,88.665)"/></clipPath></defs></g></g><g><g><path d=" M 64.71 91.897 C 66.411 91.897 67.79 90.518 67.79 88.817 C 67.79 87.116 66.411 85.737 64.71 85.737 C 63.009 85.737 61.63 87.116 61.63 88.817 C 61.63 89.634 61.955 90.417 62.532 90.995 C 63.11 91.573 63.893 91.897 64.71 91.897 Z " fill="rgb(0,0,0)"/><path d=" M 71.91 102.077 C 71.91 100.547 70.32 98.077 68.55 97.697 L 68.45 97.647 L 68.45 97.647 L 68.45 96.787 C 68.44 95.574 67.849 94.44 66.86 93.737 C 66.759 93.667 66.652 93.607 66.54 93.557 L 64.7 92.737 L 64.7 92.737 C 64.176 92.496 63.554 92.669 63.23 93.147 L 59.09 99.237 C 58.713 99.763 58.829 100.494 59.35 100.877 C 59.439 100.941 59.537 100.991 59.64 101.027 L 65.83 103.347 C 65.966 103.403 66.113 103.431 66.26 103.427 C 66.759 103.423 67.202 103.107 67.37 102.637 C 67.585 102.011 67.261 101.327 66.64 101.097 L 61.89 99.327 L 63.56 96.857 L 62.77 98.997 L 66.88 100.537 C 67.682 100.821 68.161 101.644 68.012 102.481 C 67.864 103.319 67.131 103.926 66.28 103.917 C 66.068 103.912 65.859 103.871 65.66 103.797 L 60.66 101.927 L 58.8 107.837 C 58.644 108.285 58.672 108.777 58.878 109.205 C 59.084 109.632 59.452 109.961 59.9 110.117 C 60.096 110.185 60.303 110.219 60.51 110.217 L 63.19 110.217 L 63.19 116.147 C 63.143 116.729 63.427 117.287 63.925 117.593 C 64.422 117.898 65.049 117.898 65.546 117.593 C 66.043 117.287 66.327 116.729 66.28 116.147 L 66.28 110.147 L 68.95 110.147 C 69.942 110.153 70.754 109.359 70.77 108.367 C 70.768 108.163 70.734 107.961 70.67 107.767 L 70 105.737 C 71.24 104.941 71.967 103.549 71.91 102.077 Z " fill="rgb(0,0,0)"/><path d=" M 46.41 102.407 L 46.17 103.097 C 45.931 103.776 46.241 104.526 46.89 104.837 C 47.069 104.919 47.263 104.963 47.46 104.967 C 48.05 104.966 48.575 104.594 48.77 104.037 L 50.36 99.427 L 50.36 100.427 L 48.3 107.427 C 48.255 107.84 48.47 108.238 48.84 108.427 C 48.983 108.509 49.146 108.547 49.31 108.537 L 50.41 108.537 L 50.41 116.017 C 50.398 116.922 51.097 117.679 52 117.737 C 52.441 117.759 52.872 117.604 53.198 117.308 C 53.524 117.012 53.719 116.597 53.74 116.157 L 53.74 109.157 C 53.74 109.006 53.8 108.861 53.907 108.754 C 54.014 108.647 54.159 108.587 54.31 108.587 L 54.31 108.587 C 54.461 108.587 54.606 108.647 54.713 108.754 C 54.82 108.861 54.88 109.006 54.88 109.157 L 54.88 116.067 C 54.894 116.953 55.586 117.68 56.47 117.737 C 56.911 117.759 57.342 117.604 57.668 117.308 C 57.994 117.012 58.19 116.597 58.21 116.157 L 58.21 108.557 L 59.28 108.557 C 59.444 108.565 59.607 108.527 59.75 108.447 C 60.124 108.261 60.344 107.863 60.3 107.447 L 58.24 100.447 L 58.24 99.447 L 59.83 104.057 C 60.027 104.63 60.575 105.007 61.18 104.987 C 61.633 104.98 62.054 104.754 62.308 104.379 C 62.563 104.005 62.62 103.531 62.46 103.107 L 59.16 93.737 C 58.942 93.155 58.371 92.782 57.75 92.817 L 50.86 92.817 C 50.238 92.784 49.664 93.155 49.44 93.737 L 46.81 101.297" fill="rgb(0,0,0)"/><circle vector-effect="non-scaling-stroke" cx="54.33021303634641" cy="88.76703900472688" r="3.009999999999998" fill="rgb(0,0,0)"/><path d=" M 58.32 95.867 C 58.158 94.646 57.277 93.642 56.087 93.322 C 54.897 93.003 53.632 93.431 52.88 94.407 L 50.88 97.067 C 50.074 98.032 49.955 99.398 50.583 100.487 C 51.21 101.577 52.451 102.16 53.69 101.947 C 54.479 101.853 55.198 101.45 55.69 100.827 L 57.74 98.157 C 58.23 97.512 58.445 96.7 58.34 95.897 L 58.32 95.867 Z  M 56.82 94.277 C 57.913 95.121 58.119 96.69 57.28 97.787 L 56.49 98.787 L 55.79 98.737 C 55.884 98.522 55.938 98.292 55.95 98.057 C 56.221 97.968 56.468 97.817 56.67 97.617 L 56.67 97.617 C 56.794 97.711 56.971 97.686 57.065 97.562 C 57.159 97.438 57.134 97.261 57.01 97.167 L 57.01 97.167 C 57.425 96.34 57.199 95.336 56.469 94.767 C 55.74 94.199 54.711 94.224 54.01 94.827 L 54.01 94.827 C 53.88 94.746 53.708 94.781 53.62 94.907 C 53.533 95.011 53.533 95.163 53.62 95.267 L 53.62 95.267 C 53.481 95.509 53.399 95.779 53.38 96.057 C 53.177 96.129 52.985 96.23 52.81 96.357 L 52.62 95.607 L 53.32 94.737 C 54.164 93.649 55.729 93.448 56.82 94.287 L 56.82 94.277 Z  M 53.39 98.517 L 52.98 96.977 C 53.111 96.848 53.263 96.743 53.43 96.667 C 53.529 97.085 53.761 97.461 54.09 97.737 C 54.454 98.006 54.898 98.143 55.35 98.127 C 55.319 98.31 55.254 98.487 55.16 98.647 L 53.39 98.517 Z  M 55.9 95.027 C 55.68 95.413 55.712 95.893 55.98 96.247 L 56.04 96.297 C 56.136 96.376 56.274 96.376 56.37 96.297 C 56.429 96.255 56.468 96.191 56.48 96.12 C 56.491 96.048 56.473 95.975 56.43 95.917 L 56.43 95.917 C 56.3 95.747 56.281 95.517 56.38 95.327 C 56.86 95.877 56.832 96.704 56.317 97.222 C 55.802 97.739 54.975 97.769 54.423 97.292 C 53.871 96.814 53.783 95.991 54.22 95.407 L 54.22 95.407 C 54.625 94.893 55.332 94.731 55.92 95.017 L 55.92 95.017 L 55.9 95.027 Z  M 52.21 96.197 L 52.8 98.437 L 50.86 98.277 C 50.938 97.961 51.081 97.665 51.28 97.407 L 52.21 96.197 Z  M 51.73 100.907 C 51.076 100.419 50.703 99.642 50.73 98.827 L 50.73 98.827 L 56.07 99.327 L 55.19 100.447 C 54.792 100.972 54.201 101.316 53.548 101.404 C 52.895 101.492 52.234 101.317 51.71 100.917 L 51.71 100.917 L 51.73 100.907 Z " fill="rgb(244,244,244)"/><g clip-path="url(#_clipPath_BRGaF2RI63hCUI9HQwRamTd7c2E57cgo)"><text transform="matrix(1,0,0,1,68.91,94.867)" style="font-family:'Open Sans';font-weight:400;font-size:10px;font-style:normal;font-variant-ligatures:none;fill:[Object GRGBColor];stroke:none;">18+</text></g><defs><clipPath id="_clipPath_BRGaF2RI63hCUI9HQwRamTd7c2E57cgo"><rect x="0" y="0" width="20" height="13.618" transform="matrix(1,0,0,1,68.91,84.179)"/></clipPath></defs></g></g></g></g></svg>