<?xml version="1.0" encoding="UTF-8" standalone="no"?><!-- Generator: Gravit.io --><svg xmlns="http://www.w3.org/2000/svg" xmlns:xlink="http://www.w3.org/1999/xlink" style="isolation:isolate" viewBox="0 0 265 120" width="265pt" height="120pt"><defs><clipPath id="_clipPath_I3Xq6jz8n52EKvgXq8piAqYpVZsMq7HU"><rect width="265" height="120"/></clipPath></defs><g clip-path="url(#_clipPath_I3Xq6jz8n52EKvgXq8piAqYpVZsMq7HU)"><g><g clip-path="url(#_clipPath_uR7cvwVTvAKIuVK7mk3F040VhiPhfIv4)"><text transform="matrix(1,0,0,1,100.187,64.629)" style="font-family:'Open Sans';font-weight:400;font-size:14px;font-style:normal;fill:#000000;stroke:none;">Sputnik V &#x3E; 2da. dosis</text></g><defs><clipPath id="_clipPath_uR7cvwVTvAKIuVK7mk3F040VhiPhfIv4"><rect x="0" y="0" width="175.87" height="20.67" transform="matrix(1,0,0,1,100.187,49.665)"/></clipPath></defs><g><g><circle vector-effect="non-scaling-stroke" cx="55.907500002291286" cy="47.99980989668299" r="4" fill="rgb(0,0,0)"/><path d=" M 58.998 54 L 57.908 54 C 57.642 53.998 57.386 54.103 57.197 54.29 L 55.908 55.58 L 54.618 54.29 C 54.426 54.107 54.172 54.003 53.908 54 L 52.808 54 C 51.777 53.995 50.911 54.774 50.807 55.8 L 49.908 64.9 C 49.881 65.182 49.976 65.462 50.167 65.67 C 50.357 65.879 50.625 65.999 50.908 66 L 51.997 66 L 52.818 74.2 C 52.921 75.226 53.787 76.005 54.817 76 L 56.998 76 C 58.028 76.005 58.894 75.226 58.998 74.2 L 59.807 66 L 60.908 66 C 61.19 65.999 61.458 65.879 61.647 65.67 C 61.839 65.462 61.934 65.182 61.908 64.9 L 60.998 55.8 C 60.894 54.774 60.028 53.995 58.998 54 Z " fill="rgb(0,0,0)"/><circle vector-effect="non-scaling-stroke" cx="69.90750000229129" cy="47.99980989668299" r="4" fill="rgb(0,0,0)"/><path d=" M 74.287 64 L 74.908 64 C 75.197 64.002 75.473 63.879 75.665 63.663 C 75.857 63.446 75.945 63.157 75.908 62.87 L 75.008 55.78 C 74.895 54.762 74.032 53.994 73.008 54 L 66.807 54 C 65.787 53.993 64.925 54.756 64.807 55.77 L 63.908 62.87 C 63.87 63.157 63.958 63.446 64.15 63.663 C 64.342 63.879 64.618 64.002 64.908 64 L 65.517 64 L 63.958 68.68 C 63.857 68.985 63.909 69.32 64.097 69.58 C 64.284 69.842 64.586 69.998 64.908 70 L 66.057 70 L 66.778 74.33 C 66.94 75.304 67.79 76.013 68.778 76 L 71.078 76 C 72.065 76.013 72.915 75.304 73.078 74.33 L 73.758 70 L 74.908 70 C 75.229 69.998 75.531 69.842 75.717 69.58 C 75.906 69.32 75.958 68.985 75.858 68.68 L 74.287 64 Z " fill="rgb(0,0,0)"/><path d=" M 59.187 74.49 L 66.578 74.49 C 66.908 74.449 67.156 74.168 67.156 73.835 C 67.156 73.502 66.908 73.221 66.578 73.18 L 64.718 73.18 L 64.718 69.85 L 66.567 69.85 C 66.898 69.809 67.146 69.528 67.146 69.195 C 67.146 68.862 66.898 68.581 66.567 68.54 L 65.637 68.54 L 65.637 55.33 L 64.708 55.33 L 63.777 52.56 L 63.508 52.56 L 63.508 46.09 C 63.467 45.759 63.186 45.511 62.852 45.511 C 62.519 45.511 62.238 45.759 62.197 46.09 L 62.197 52.55 L 61.908 52.55 L 60.998 55.32 L 60.067 55.32 L 60.067 68.52 L 59.168 68.52 C 58.809 68.52 58.517 68.811 58.517 69.17 C 58.517 69.529 58.809 69.82 59.168 69.82 L 61.017 69.82 L 61.017 73.13 L 59.178 73.13 C 59.004 73.13 58.838 73.2 58.718 73.324 C 58.597 73.449 58.532 73.617 58.538 73.79 C 58.524 73.971 58.586 74.149 58.709 74.282 C 58.833 74.415 59.006 74.49 59.187 74.49 Z  M 63.067 58.14 C 63.077 57.967 63.148 57.804 63.267 57.68 C 63.391 57.559 63.555 57.487 63.727 57.48 L 64.968 57.48 L 64.968 58.77 L 63.727 58.77 C 63.367 58.77 63.073 58.48 63.067 58.12 L 63.067 58.14 Z  M 63.067 60.82 C 63.067 60.461 63.359 60.17 63.718 60.17 L 64.958 60.17 L 64.958 61.46 L 63.737 61.46 C 63.564 61.465 63.396 61.4 63.272 61.28 C 63.148 61.159 63.077 60.993 63.078 60.82 L 63.067 60.82 Z  M 63.067 63.5 C 63.067 63.141 63.359 62.85 63.718 62.85 L 64.958 62.85 L 64.958 64.14 L 63.748 64.14 C 63.387 64.14 63.093 63.85 63.088 63.49 L 63.067 63.5 Z  M 63.067 66.18 C 63.062 65.83 63.338 65.541 63.687 65.53 L 64.947 65.53 L 64.947 66.82 L 63.758 66.82 C 63.402 66.82 63.113 66.535 63.107 66.18 L 63.067 66.18 Z " fill="rgb(0,0,0)" vector-effect="non-scaling-stroke" stroke-width="2" stroke="rgb(255,255,255)" stroke-linejoin="miter" stroke-linecap="butt" stroke-miterlimit="10"/><path d=" M 59.187 74.49 L 66.578 74.49 C 66.908 74.449 67.156 74.168 67.156 73.835 C 67.156 73.502 66.908 73.221 66.578 73.18 L 64.718 73.18 L 64.718 69.85 L 66.567 69.85 C 66.898 69.809 67.146 69.528 67.146 69.195 C 67.146 68.862 66.898 68.581 66.567 68.54 L 65.637 68.54 L 65.637 55.33 L 64.708 55.33 L 63.777 52.56 L 63.508 52.56 L 63.508 46.09 C 63.467 45.759 63.186 45.511 62.852 45.511 C 62.519 45.511 62.238 45.759 62.197 46.09 L 62.197 52.55 L 61.908 52.55 L 60.998 55.32 L 60.067 55.32 L 60.067 68.52 L 59.168 68.52 C 58.809 68.52 58.517 68.811 58.517 69.17 C 58.517 69.529 58.809 69.82 59.168 69.82 L 61.017 69.82 L 61.017 73.13 L 59.178 73.13 C 59.004 73.13 58.838 73.2 58.718 73.324 C 58.597 73.449 58.532 73.617 58.538 73.79 C 58.524 73.971 58.586 74.149 58.709 74.282 C 58.833 74.415 59.006 74.49 59.187 74.49 Z  M 63.067 58.14 C 63.077 57.967 63.148 57.804 63.267 57.68 C 63.391 57.559 63.555 57.487 63.727 57.48 L 64.968 57.48 L 64.968 58.77 L 63.727 58.77 C 63.367 58.77 63.073 58.48 63.067 58.12 L 63.067 58.14 Z  M 63.067 60.82 C 63.067 60.461 63.359 60.17 63.718 60.17 L 64.958 60.17 L 64.958 61.46 L 63.737 61.46 C 63.564 61.465 63.396 61.4 63.272 61.28 C 63.148 61.159 63.077 60.993 63.078 60.82 L 63.067 60.82 Z  M 63.067 63.5 C 63.067 63.141 63.359 62.85 63.718 62.85 L 64.958 62.85 L 64.958 64.14 L 63.748 64.14 C 63.387 64.14 63.093 63.85 63.088 63.49 L 63.067 63.5 Z  M 63.067 66.18 C 63.062 65.83 63.338 65.541 63.687 65.53 L 64.947 65.53 L 64.947 66.82 L 63.758 66.82 C 63.402 66.82 63.113 66.535 63.107 66.18 L 63.067 66.18 Z " fill="rgb(0,0,0)"/><g clip-path="url(#_clipPath_AEVPgIBDvRzWobMXP47rNDiI7WaNUhkR)"><text transform="matrix(1,0,0,1,52.908,62.84)" style="font-family:'Open Sans';font-weight:400;font-size:10px;font-style:normal;font-variant-ligatures:none;fill:[Object GRGBColor];stroke:none;">1</text></g><defs><clipPath id="_clipPath_AEVPgIBDvRzWobMXP47rNDiI7WaNUhkR"><rect x="0" y="0" width="8" height="13.618" transform="matrix(1,0,0,1,52.908,52.151)"/></clipPath></defs><g clip-path="url(#_clipPath_IuF0j9NsvxfvrfOWptqCox5VgZUuqkI2)"><text transform="matrix(1,0,0,1,67.618,63.5)" style="font-family:'Open Sans';font-weight:400;font-size:10px;font-style:normal;font-variant-ligatures:none;fill:[Object GRGBColor];stroke:none;">D</text></g><defs><clipPath id="_clipPath_IuF0j9NsvxfvrfOWptqCox5VgZUuqkI2"><rect x="0" y="0" width="10" height="13.618" transform="matrix(1,0,0,1,67.618,52.811)"/></clipPath></defs><mask id="_mask_Hts57dTFlPYFsDKtstYmAzQEshyN33HS" x="-200%" y="-200%" width="400%" height="400%"><rect x="-200%" y="-200%" width="400%" height="400%" style="fill:white;"/><line x1="89.908" y1="57.48" x2="89.908" y2="67.06" fill="black" stroke="none"/></mask><line x1="89.908" y1="57.48" x2="89.908" y2="67.06" mask="url(#_mask_Hts57dTFlPYFsDKtstYmAzQEshyN33HS)" vector-effect="non-scaling-stroke" stroke-width="0.5" stroke="rgb(255,255,255)" stroke-linejoin="miter" stroke-linecap="butt" stroke-miterlimit="10"/></g></g><g><g><g><path d=" M 37.163 61.765 C 37.063 61.565 36.863 61.365 36.563 61.365 L 33.663 61.365 C 33.463 61.365 33.163 61.565 33.063 61.765 C 32.963 61.965 32.963 62.165 32.863 62.365 L 30.863 56.965 C 30.563 56.065 29.663 55.465 28.763 55.465 L 13.863 55.465 C 12.963 55.465 12.063 56.065 11.763 56.965 L 9.763 62.365 C 9.763 62.165 9.663 61.965 9.563 61.765 C 9.463 61.565 9.263 61.365 8.963 61.365 L 6.163 61.365 C 5.963 61.365 5.663 61.565 5.563 61.765 C 5.263 62.465 5.263 63.265 5.563 63.965 C 5.663 64.165 5.863 64.365 6.163 64.365 L 9.063 64.365 L 9.063 64.465 C 8.463 64.665 8.063 65.265 8.063 65.865 L 8.063 75.765 C 8.063 76.165 8.363 76.465 8.763 76.465 L 12.363 76.465 C 12.763 76.465 13.063 76.165 13.063 75.765 L 13.063 72.265 L 29.663 72.265 L 29.663 75.765 C 29.663 76.165 29.963 76.465 30.363 76.465 L 33.963 76.465 C 34.363 76.465 34.663 76.165 34.663 75.765 L 34.663 65.865 C 34.663 65.265 34.263 64.665 33.663 64.465 L 33.663 64.365 L 36.563 64.365 C 36.763 64.365 37.063 64.165 37.163 63.965 C 37.463 63.165 37.463 62.465 37.163 61.765 Z  M 14.163 58.065 L 28.563 58.065 L 30.863 64.365 L 11.863 64.365 L 14.163 58.065 Z  M 14.563 68.865 L 11.563 68.865 C 10.863 68.865 10.363 68.265 10.363 67.665 C 10.363 66.965 10.863 66.465 11.563 66.465 L 14.563 66.465 C 15.263 66.465 15.763 66.965 15.763 67.665 C 15.763 68.365 15.163 68.865 14.563 68.865 Z  M 31.163 68.865 L 28.163 68.865 C 27.463 68.865 26.963 68.365 26.963 67.665 C 26.963 66.965 27.463 66.465 28.163 66.465 L 31.163 66.465 C 31.863 66.465 32.363 66.965 32.363 67.665 C 32.363 68.365 31.863 68.865 31.163 68.865 Z " fill="rgb(29,113,184)"/></g></g><g><g><path d=" M 20.363 62.165 C 21.663 62.565 22.763 62.865 24.363 63.365 C 23.763 71.265 16.363 68.065 20.363 62.165 Z  M 26.963 54.965 C 26.863 52.565 26.463 49.565 23.163 49.965 C 21.663 50.365 20.463 52.065 19.963 54.965 C 19.663 56.665 19.763 58.465 20.163 60.165 C 20.463 61.165 20.363 61.065 20.663 61.265 C 21.963 61.565 23.263 61.865 24.663 62.265 C 26.063 61.365 27.163 56.265 26.963 54.965 Z  M 16.763 54.765 C 17.163 53.065 17.263 51.265 16.963 49.565 C 16.463 46.665 15.463 51.865 13.863 51.465 C 10.563 50.965 10.063 47.165 9.963 49.565 C 9.763 50.865 10.863 55.965 12.263 56.965 C 13.563 56.665 14.863 56.265 16.263 55.965 C 16.563 55.665 16.463 55.765 16.763 54.765 Z  M 12.563 57.865 C 13.163 65.665 20.563 62.565 16.563 56.665 C 15.263 57.065 14.163 57.365 12.563 57.865 Z " fill="rgb(13,72,112)" vector-effect="non-scaling-stroke" stroke-width="1" stroke="rgb(255,255,255)" stroke-linejoin="miter" stroke-linecap="butt" stroke-miterlimit="10"/></g></g><g><g><path d=" M 20.363 61.965 C 21.663 62.365 22.763 62.665 24.363 63.165 C 23.763 71.065 16.363 67.965 20.363 61.965 Z  M 26.963 54.765 C 26.863 52.365 26.463 49.365 23.163 49.765 C 21.663 50.165 20.463 51.865 19.963 54.765 C 19.663 56.465 19.763 58.265 20.163 59.965 C 20.463 60.965 20.363 60.865 20.663 61.065 C 21.963 61.365 23.263 61.665 24.663 62.065 C 26.063 61.165 27.163 56.065 26.963 54.765 Z  M 16.763 54.565 C 17.163 52.865 17.263 51.065 16.963 49.365 C 16.463 46.465 15.263 44.765 13.763 44.365 C 10.463 43.865 10.063 46.965 9.963 49.365 C 9.763 50.665 10.863 55.765 12.263 56.765 C 13.563 56.465 14.863 56.065 16.263 55.765 C 16.563 55.465 16.463 55.565 16.763 54.565 Z  M 12.563 57.665 C 13.163 65.465 20.563 62.365 16.563 56.465 C 15.263 56.965 14.163 57.165 12.563 57.665 Z " fill="rgb(13,72,112)"/></g></g><g clip-path="url(#_clipPath_OejHwfA0GrBWzmJp1XuEZ6urnfAu9jT0)"><text transform="matrix(1,0,0,1,29.662,54.224)" style="font-family:'Open Sans';font-weight:400;font-size:10px;font-style:normal;font-variant-ligatures:none;fill:#0D4870;stroke:none;">+</text></g><defs><clipPath id="_clipPath_OejHwfA0GrBWzmJp1XuEZ6urnfAu9jT0"><rect x="0" y="0" width="8" height="13.618" transform="matrix(1,0,0,1,29.662,43.535)"/></clipPath></defs></g></g><g><g clip-path="url(#_clipPath_Aiw20jr8P9l6p7289bbPCuQSfCCOkd8k)"><text transform="matrix(1,0,0,1,100.187,22.569)" style="font-family:'Open Sans';font-weight:400;font-size:14px;font-style:normal;fill:#000000;stroke:none;">Sputnik V &#x3E; 1ra. dosis</text></g><defs><clipPath id="_clipPath_Aiw20jr8P9l6p7289bbPCuQSfCCOkd8k"><rect x="0" y="0" width="175.87" height="20.67" transform="matrix(1,0,0,1,100.187,7.605)"/></clipPath></defs><g><g><circle vector-effect="non-scaling-stroke" cx="54.90750000238418" cy="6.6098207003335006" r="4" fill="rgb(0,0,0)"/><path d=" M 57.998 12.61 L 56.908 12.61 C 56.642 12.608 56.386 12.713 56.197 12.9 L 54.908 14.19 L 53.618 12.9 C 53.426 12.717 53.172 12.614 52.908 12.61 L 51.808 12.61 C 50.777 12.605 49.911 13.384 49.807 14.41 L 48.908 23.51 C 48.881 23.792 48.976 24.072 49.167 24.28 C 49.357 24.489 49.625 24.609 49.908 24.61 L 50.997 24.61 L 51.818 32.81 C 51.921 33.836 52.787 34.615 53.817 34.61 L 55.998 34.61 C 57.028 34.615 57.894 33.836 57.998 32.81 L 58.807 24.61 L 59.908 24.61 C 60.19 24.609 60.458 24.489 60.647 24.28 C 60.839 24.072 60.934 23.792 60.908 23.51 L 59.998 14.41 C 59.894 13.384 59.028 12.605 57.998 12.61 Z " fill="rgb(0,0,0)"/><circle vector-effect="non-scaling-stroke" cx="66.90750000238418" cy="6.6098207003335006" r="4" fill="rgb(0,0,0)"/><path d=" M 71.297 22.61 L 71.908 22.61 C 72.197 22.612 72.473 22.489 72.665 22.273 C 72.857 22.056 72.945 21.767 72.908 21.48 L 72.008 14.39 C 71.895 13.372 71.032 12.604 70.008 12.61 L 63.807 12.61 C 62.787 12.603 61.925 13.366 61.807 14.38 L 60.908 21.48 C 60.87 21.767 60.958 22.056 61.15 22.273 C 61.342 22.489 61.618 22.612 61.908 22.61 L 62.517 22.61 L 60.958 27.29 C 60.857 27.595 60.909 27.93 61.097 28.19 C 61.284 28.452 61.586 28.608 61.908 28.61 L 63.057 28.61 L 63.777 32.94 C 63.94 33.914 64.79 34.623 65.778 34.61 L 68.078 34.61 C 69.065 34.623 69.915 33.914 70.078 32.94 L 70.758 28.61 L 71.908 28.61 C 72.229 28.608 72.531 28.452 72.717 28.19 C 72.906 27.93 72.958 27.595 72.858 27.29 L 71.297 22.61 Z " fill="rgb(0,0,0)"/><g clip-path="url(#_clipPath_r4gTE8GAehS7g86ihgryZD4GGnMby8TV)"><text transform="matrix(1,0,0,1,71.868,12.83)" style="font-family:'Open Sans';font-weight:400;font-size:10px;font-style:normal;font-variant-ligatures:none;fill:[Object GRGBColor];stroke:none;">18+</text></g><defs><clipPath id="_clipPath_r4gTE8GAehS7g86ihgryZD4GGnMby8TV"><rect x="0" y="0" width="20" height="13.618" transform="matrix(1,0,0,1,71.868,2.141)"/></clipPath></defs></g></g><g><g><g><path d=" M 37.163 20.765 C 37.063 20.565 36.863 20.365 36.563 20.365 L 33.663 20.365 C 33.463 20.365 33.163 20.565 33.063 20.765 C 32.963 20.965 32.963 21.165 32.863 21.365 L 30.863 15.965 C 30.563 15.065 29.663 14.465 28.763 14.465 L 13.863 14.465 C 12.963 14.465 12.063 15.065 11.763 15.965 L 9.763 21.365 C 9.763 21.165 9.663 20.965 9.563 20.765 C 9.463 20.565 9.263 20.365 8.963 20.365 L 6.163 20.365 C 5.963 20.365 5.663 20.565 5.563 20.765 C 5.263 21.465 5.263 22.265 5.563 22.965 C 5.663 23.165 5.863 23.365 6.163 23.365 L 9.063 23.365 L 9.063 23.465 C 8.463 23.665 8.063 24.265 8.063 24.865 L 8.063 34.765 C 8.063 35.165 8.363 35.465 8.763 35.465 L 12.363 35.465 C 12.763 35.465 13.063 35.165 13.063 34.765 L 13.063 31.265 L 29.663 31.265 L 29.663 34.765 C 29.663 35.165 29.963 35.465 30.363 35.465 L 33.963 35.465 C 34.363 35.465 34.663 35.165 34.663 34.765 L 34.663 24.865 C 34.663 24.265 34.263 23.665 33.663 23.465 L 33.663 23.365 L 36.563 23.365 C 36.763 23.365 37.063 23.165 37.163 22.965 C 37.463 22.165 37.463 21.465 37.163 20.765 Z  M 14.163 17.065 L 28.563 17.065 L 30.863 23.365 L 11.863 23.365 L 14.163 17.065 Z  M 14.563 27.865 L 11.563 27.865 C 10.863 27.865 10.363 27.265 10.363 26.665 C 10.363 25.965 10.863 25.465 11.563 25.465 L 14.563 25.465 C 15.263 25.465 15.763 25.965 15.763 26.665 C 15.763 27.365 15.163 27.865 14.563 27.865 Z  M 31.163 27.865 L 28.163 27.865 C 27.463 27.865 26.963 27.365 26.963 26.665 C 26.963 25.965 27.463 25.465 28.163 25.465 L 31.163 25.465 C 31.863 25.465 32.363 25.965 32.363 26.665 C 32.363 27.365 31.863 27.865 31.163 27.865 Z " fill="rgb(29,113,184)"/></g></g><g><g><path d=" M 20.363 21.165 C 21.663 21.565 22.763 21.865 24.363 22.365 C 23.763 30.265 16.363 27.065 20.363 21.165 Z  M 26.963 13.965 C 26.863 11.565 26.463 8.565 23.163 8.965 C 21.663 9.365 20.463 11.065 19.963 13.965 C 19.663 15.665 19.763 17.465 20.163 19.165 C 20.463 20.165 20.363 20.065 20.663 20.265 C 21.963 20.565 23.263 20.865 24.663 21.265 C 26.063 20.365 27.163 15.265 26.963 13.965 Z  M 16.763 13.765 C 17.163 12.065 17.263 10.265 16.963 8.565 C 16.463 5.665 15.463 10.865 13.863 10.465 C 10.563 9.965 10.063 6.165 9.963 8.565 C 9.763 9.865 10.863 14.965 12.263 15.965 C 13.563 15.665 14.863 15.265 16.263 14.965 C 16.563 14.665 16.463 14.765 16.763 13.765 Z  M 12.563 16.865 C 13.163 24.665 20.563 21.565 16.563 15.665 C 15.263 16.065 14.163 16.365 12.563 16.865 Z " fill="rgb(13,72,112)" vector-effect="non-scaling-stroke" stroke-width="1" stroke="rgb(255,255,255)" stroke-linejoin="miter" stroke-linecap="butt" stroke-miterlimit="10"/></g></g><g><g><path d=" M 20.363 20.965 C 21.663 21.365 22.763 21.665 24.363 22.165 C 23.763 30.065 16.363 26.965 20.363 20.965 Z  M 26.963 13.765 C 26.863 11.365 26.463 8.365 23.163 8.765 C 21.663 9.165 20.463 10.865 19.963 13.765 C 19.663 15.465 19.763 17.265 20.163 18.965 C 20.463 19.965 20.363 19.865 20.663 20.065 C 21.963 20.365 23.263 20.665 24.663 21.065 C 26.063 20.165 27.163 15.065 26.963 13.765 Z  M 16.763 13.565 C 17.163 11.865 17.263 10.065 16.963 8.365 C 16.463 5.465 15.263 3.765 13.763 3.365 C 10.463 2.865 10.063 5.965 9.963 8.365 C 9.763 9.665 10.863 14.765 12.263 15.765 C 13.563 15.465 14.863 15.065 16.263 14.765 C 16.563 14.465 16.463 14.565 16.763 13.565 Z  M 12.563 16.665 C 13.163 24.465 20.563 21.365 16.563 15.465 C 15.263 15.965 14.163 16.165 12.563 16.665 Z " fill="rgb(13,72,112)"/></g></g><g clip-path="url(#_clipPath_sWWIOSBUKUgtc5ZILkyvh5HJqcXjp1JC)"><text transform="matrix(1,0,0,1,29.662,13.224)" style="font-family:'Open Sans';font-weight:400;font-size:10px;font-style:normal;font-variant-ligatures:none;fill:[Object GRGBColor];stroke:none;">+</text></g><defs><clipPath id="_clipPath_sWWIOSBUKUgtc5ZILkyvh5HJqcXjp1JC"><rect x="0" y="0" width="8" height="13.618" transform="matrix(1,0,0,1,29.662,2.535)"/></clipPath></defs></g></g><g><g clip-path="url(#_clipPath_M5UsMkHChk4ehMrB2pHO6Jqu785T3SIf)"><text transform="matrix(1,0,0,1,100.187,105.629)" style="font-family:'Open Sans';font-weight:400;font-size:14px;font-style:normal;fill:#000000;stroke:none;">Pfizer &#x3E; 1ra. dosis</text></g><defs><clipPath id="_clipPath_M5UsMkHChk4ehMrB2pHO6Jqu785T3SIf"><rect x="0" y="0" width="175.87" height="20.67" transform="matrix(1,0,0,1,100.187,90.665)"/></clipPath></defs><g><g><g><path d=" M 37.163 101.765 C 37.063 101.565 36.863 101.365 36.563 101.365 L 33.663 101.365 C 33.463 101.365 33.163 101.565 33.063 101.765 C 32.963 101.965 32.963 102.165 32.863 102.365 L 30.863 96.965 C 30.563 96.065 29.663 95.465 28.763 95.465 L 13.863 95.465 C 12.963 95.465 12.063 96.065 11.763 96.965 L 9.763 102.365 C 9.763 102.165 9.663 101.965 9.563 101.765 C 9.463 101.565 9.263 101.365 8.963 101.365 L 6.163 101.365 C 5.963 101.365 5.663 101.565 5.563 101.765 C 5.263 102.465 5.263 103.265 5.563 103.965 C 5.663 104.165 5.863 104.365 6.163 104.365 L 9.063 104.365 L 9.063 104.465 C 8.463 104.665 8.063 105.265 8.063 105.865 L 8.063 115.765 C 8.063 116.165 8.363 116.465 8.763 116.465 L 12.363 116.465 C 12.763 116.465 13.063 116.165 13.063 115.765 L 13.063 112.265 L 29.663 112.265 L 29.663 115.765 C 29.663 116.165 29.963 116.465 30.363 116.465 L 33.963 116.465 C 34.363 116.465 34.663 116.165 34.663 115.765 L 34.663 105.865 C 34.663 105.265 34.263 104.665 33.663 104.465 L 33.663 104.365 L 36.563 104.365 C 36.763 104.365 37.063 104.165 37.163 103.965 C 37.463 103.165 37.463 102.465 37.163 101.765 Z  M 14.163 98.065 L 28.563 98.065 L 30.863 104.365 L 11.863 104.365 L 14.163 98.065 Z  M 14.563 108.865 L 11.563 108.865 C 10.863 108.865 10.363 108.265 10.363 107.665 C 10.363 106.965 10.863 106.465 11.563 106.465 L 14.563 106.465 C 15.263 106.465 15.763 106.965 15.763 107.665 C 15.763 108.365 15.163 108.865 14.563 108.865 Z  M 31.163 108.865 L 28.163 108.865 C 27.463 108.865 26.963 108.365 26.963 107.665 C 26.963 106.965 27.463 106.465 28.163 106.465 L 31.163 106.465 C 31.863 106.465 32.363 106.965 32.363 107.665 C 32.363 108.365 31.863 108.865 31.163 108.865 Z " fill="rgb(29,113,184)"/></g></g><g><g><path d=" M 20.363 102.165 C 21.663 102.565 22.763 102.865 24.363 103.365 C 23.763 111.265 16.363 108.065 20.363 102.165 Z  M 26.963 94.965 C 26.863 92.565 26.463 89.565 23.163 89.965 C 21.663 90.365 20.463 92.065 19.963 94.965 C 19.663 96.665 19.763 98.465 20.163 100.165 C 20.463 101.165 20.363 101.065 20.663 101.265 C 21.963 101.565 23.263 101.865 24.663 102.265 C 26.063 101.365 27.163 96.265 26.963 94.965 Z  M 16.763 94.765 C 17.163 93.065 17.263 91.265 16.963 89.565 C 16.463 86.665 15.463 91.865 13.863 91.465 C 10.563 90.965 10.063 87.165 9.963 89.565 C 9.763 90.865 10.863 95.965 12.263 96.965 C 13.563 96.665 14.863 96.265 16.263 95.965 C 16.563 95.665 16.463 95.765 16.763 94.765 Z  M 12.563 97.865 C 13.163 105.665 20.563 102.565 16.563 96.665 C 15.263 97.065 14.163 97.365 12.563 97.865 Z " fill="rgb(13,72,112)" vector-effect="non-scaling-stroke" stroke-width="1" stroke="rgb(255,255,255)" stroke-linejoin="miter" stroke-linecap="butt" stroke-miterlimit="10"/></g></g><g><g><path d=" M 20.363 101.965 C 21.663 102.365 22.763 102.665 24.363 103.165 C 23.763 111.065 16.363 107.965 20.363 101.965 Z  M 26.963 94.765 C 26.863 92.365 26.463 89.365 23.163 89.765 C 21.663 90.165 20.463 91.865 19.963 94.765 C 19.663 96.465 19.763 98.265 20.163 99.965 C 20.463 100.965 20.363 100.865 20.663 101.065 C 21.963 101.365 23.263 101.665 24.663 102.065 C 26.063 101.165 27.163 96.065 26.963 94.765 Z  M 16.763 94.565 C 17.163 92.865 17.263 91.065 16.963 89.365 C 16.463 86.465 15.263 84.765 13.763 84.365 C 10.463 83.865 10.063 86.965 9.963 89.365 C 9.763 90.665 10.863 95.765 12.263 96.765 C 13.563 96.465 14.863 96.065 16.263 95.765 C 16.563 95.465 16.463 95.565 16.763 94.565 Z  M 12.563 97.665 C 13.163 105.465 20.563 102.365 16.563 96.465 C 15.263 96.965 14.163 97.165 12.563 97.665 Z " fill="rgb(13,72,112)"/></g></g><g clip-path="url(#_clipPath_00htrMJv7bSuNaKD73G1hR1tNHibKsYK)"><text transform="matrix(1,0,0,1,29.662,94.224)" style="font-family:'Open Sans';font-weight:400;font-size:10px;font-style:normal;font-variant-ligatures:none;fill:[Object GRGBColor];stroke:none;">+</text></g><defs><clipPath id="_clipPath_00htrMJv7bSuNaKD73G1hR1tNHibKsYK"><rect x="0" y="0" width="8" height="13.618" transform="matrix(1,0,0,1,29.662,83.535)"/></clipPath></defs></g><g><g><g><g><g><g><g clip-path="url(#_clipPath_f0ldcl1ebxH2qwJDV9b7i6g6Kv05RENl)"><text transform="matrix(1,0,0,1,71.34,96.625)" style="font-family:'Open Sans';font-weight:400;font-size:10px;font-style:normal;font-variant-ligatures:none;fill:#000000;stroke:none;">12+</text></g><defs><clipPath id="_clipPath_f0ldcl1ebxH2qwJDV9b7i6g6Kv05RENl"><rect x="0" y="0" width="20" height="13.618" transform="matrix(1,0,0,1,71.34,85.937)"/></clipPath></defs></g></g><path d=" M 55.79 92.455 C 56.233 92.698 56.726 92.835 57.23 92.855 C 58.451 92.829 59.555 92.122 60.09 91.025 C 60.579 89.879 60.361 88.554 59.53 87.625 C 58.661 86.727 57.35 86.415 56.17 86.825 C 55.002 87.242 54.19 88.308 54.1 89.545 C 54.015 90.769 54.684 91.922 55.79 92.455 Z " fill="rgb(183,66,66)"/><path d=" M 61.09 89.775 C 61.672 90.316 62.446 90.604 63.24 90.575 C 64.446 90.556 65.548 89.887 66.12 88.825 C 66.66 87.712 66.54 86.393 65.81 85.395 C 65.056 84.429 63.824 83.965 62.62 84.195 C 61.421 84.445 60.47 85.357 60.17 86.545 C 59.878 87.709 60.229 88.94 61.09 89.775 Z " fill="rgb(0,91,231)"/><path d=" M 66.39 104.605 C 66.39 104.365 66.47 102.695 66.47 102.455 L 66.47 97.115 C 66.854 97.79 67.147 98.513 67.34 99.265 C 67.572 98.399 68.287 97.748 69.17 97.595 C 69.007 96.868 68.793 96.153 68.53 95.455 C 68.194 94.668 67.732 93.942 67.16 93.305 C 66.81 92.865 66.41 92.465 65.97 92.115 C 65.73 91.955 65.57 91.795 65.33 91.635 C 65.175 91.485 64.987 91.376 64.78 91.315 C 63.493 90.721 61.974 90.975 60.95 91.955 C 60.48 92.345 60.07 92.745 59.59 93.145 C 60.79 94.007 61.792 95.115 62.53 96.395 C 62.968 97.216 63.262 98.105 63.4 99.025 C 63.478 99.659 63.522 100.296 63.53 100.935 C 63.53 101.824 62.809 102.545 61.92 102.545 L 61.92 102.545 C 61.785 102.553 61.651 102.526 61.53 102.465 C 61.53 102.465 62.73 106.845 62.81 107.085 C 62.89 107.485 62.97 108.285 62.09 108.285 L 60.65 108.285 L 60.53 110.185 L 60.69 114.965 C 60.637 115.576 61.081 116.117 61.69 116.185 C 62.302 116.243 62.847 115.797 62.91 115.185 C 62.92 115.115 62.92 115.045 62.91 114.975 L 63.31 106.975 L 63.62 114.975 C 63.631 115.589 64.126 116.084 64.74 116.095 C 65.037 116.095 65.322 115.977 65.532 115.767 C 65.742 115.557 65.86 115.272 65.86 114.975 L 65.86 114.975 L 66.02 111.475 L 66.39 104.605 Z " fill="rgb(0,91,231)"/><path d=" M 61.84 107.955 C 62.008 107.958 62.164 107.865 62.24 107.715 C 62.354 107.582 62.385 107.397 62.32 107.235 L 60.25 99.545 L 60.25 98.345 C 60.571 98.837 60.811 99.377 60.96 99.945 C 61.04 100.345 61.12 100.815 61.2 101.215 C 61.246 101.458 61.387 101.672 61.591 101.811 C 61.796 101.95 62.047 102.002 62.29 101.955 C 62.697 101.884 63.005 101.547 63.04 101.135 L 63.04 100.265 C 63.027 99.861 62.974 99.459 62.88 99.065 C 62.698 98.232 62.402 97.427 62 96.675 C 61.588 95.922 61.05 95.246 60.41 94.675 C 60.099 94.381 59.765 94.114 59.41 93.875 C 59.164 93.682 58.896 93.521 58.61 93.395 L 58.53 93.395 C 57.671 92.995 56.679 92.995 55.82 93.395 C 55.53 93.506 55.262 93.669 55.03 93.875 L 54.03 94.545 C 53.389 95.118 52.849 95.794 52.43 96.545 C 52.179 96.85 51.967 97.186 51.8 97.545 C 51.669 97.948 51.579 98.364 51.53 98.785 C 51.431 99.178 51.378 99.58 51.37 99.985 L 51.37 100.935 L 51.37 100.935 C 51.365 101.165 51.452 101.387 51.611 101.553 C 51.771 101.718 51.99 101.812 52.22 101.815 L 52.22 101.815 C 52.703 101.825 53.124 101.488 53.22 101.015 C 53.272 100.581 53.376 100.154 53.53 99.745 C 53.683 99.177 53.926 98.636 54.25 98.145 L 54.25 99.285 L 52.02 107.285 C 52.002 107.449 52.029 107.616 52.1 107.765 C 52.173 107.917 52.332 108.008 52.5 107.995 L 54.21 107.995 L 54.53 115.175 C 54.53 115.744 54.991 116.205 55.56 116.205 C 56.129 116.205 56.59 115.744 56.59 115.175 L 56.99 107.915 L 57.07 107.915 L 57.39 115.095 C 57.39 115.667 57.853 116.13 58.425 116.13 C 58.997 116.13 59.46 115.667 59.46 115.095 L 59.46 115.095 L 59.86 107.845 L 61.93 107.995 L 61.84 107.955 Z " fill="rgb(183,66,66)"/><path d=" M 66.53 97.115 C 66.856 97.715 67.095 98.358 67.24 99.025 C 67.32 99.505 67.4 100.025 67.48 100.545 C 67.505 101.111 67.984 101.55 68.55 101.525 C 69.116 101.5 69.555 101.021 69.53 100.455 L 69.53 100.455 L 69.53 99.455 C 69.517 98.971 69.464 98.49 69.37 98.015 C 69.18 97.014 68.843 96.047 68.37 95.145 C 67.919 94.287 67.368 93.485 66.73 92.755 C 66.423 92.396 66.089 92.062 65.73 91.755 L 66.53 97.115 Z " fill="rgb(0,91,231)"/><mask id="_mask_qFMP9I1iY2t4lgORCwKxGEBMFkGqpaKv" x="-200%" y="-200%" width="400%" height="400%"><rect x="-200%" y="-200%" width="400%" height="400%" style="fill:white;"/><line x1="49.66" y1="99.355" x2="49.66" y2="111.615" fill="black" stroke="none"/></mask><line x1="49.66" y1="99.355" x2="49.66" y2="111.615" mask="url(#_mask_qFMP9I1iY2t4lgORCwKxGEBMFkGqpaKv)" vector-effect="non-scaling-stroke" stroke-width="0.5" stroke="rgb(235,252,252)" stroke-linejoin="miter" stroke-linecap="butt" stroke-miterlimit="10"/><circle vector-effect="non-scaling-stroke" cx="79.76000000000002" cy="93.57500000000002" r="9.780000000000001" fill="none" stroke-width="0.5" stroke="rgb(0,0,0)" stroke-linejoin="miter" stroke-linecap="butt" stroke-miterlimit="10"/></g></g></g></g></g></g></svg>