<?xml version="1.0" encoding="UTF-8" standalone="no"?><!-- Generator: Gravit.io --><svg xmlns="http://www.w3.org/2000/svg" xmlns:xlink="http://www.w3.org/1999/xlink" style="isolation:isolate" viewBox="0 0 265 40" width="265pt" height="40pt"><defs><clipPath id="_clipPath_l1DPwg6fDDKsnI1glmj4XCp1KZlEVjEz"><rect width="265" height="40"/></clipPath></defs><g clip-path="url(#_clipPath_l1DPwg6fDDKsnI1glmj4XCp1KZlEVjEz)"><g><g><g/></g></g><g><g><g/></g></g><g><g><g/></g><g><g><g><g><path d=" M 19.712 29.98 C 20.993 30.42 22.112 30.7 23.712 31.19 C 23.112 39.04 15.693 35.92 19.712 29.98 Z  M 26.343 22.78 C 26.253 20.42 25.843 17.33 22.532 17.78 C 20.983 18.19 19.843 19.89 19.302 22.78 C 19.048 24.522 19.126 26.297 19.532 28.01 C 19.843 29.01 19.743 28.91 20.083 29.09 C 21.403 29.39 22.712 29.72 24.083 30.09 C 25.413 29.18 26.522 24.09 26.343 22.78 Z  M 16.142 22.6 C 16.545 20.883 16.62 19.105 16.363 17.36 C 15.823 14.42 14.682 12.72 13.132 12.36 C 9.833 11.87 9.412 14.96 9.332 17.36 C 9.142 18.68 10.262 23.76 11.613 24.72 C 12.953 24.38 14.262 24.05 15.613 23.72 C 15.932 23.49 15.813 23.55 16.142 22.6 Z  M 11.932 25.7 C 12.563 33.54 19.933 30.43 15.932 24.48 C 14.682 24.92 13.552 25.2 11.932 25.7 Z " fill="rgb(29,113,184)"/><mask id="_mask_DvaG2W2ieprIbBjkufMQ3jVG4w1BOrWH" x="-200%" y="-200%" width="400%" height="400%"><rect x="-200%" y="-200%" width="400%" height="400%" style="fill:white;"/><line x1="34.173" y1="14.22" x2="34.173" y2="23.8" fill="black" stroke="none"/></mask><line x1="34.173" y1="14.22" x2="34.173" y2="23.8" mask="url(#_mask_DvaG2W2ieprIbBjkufMQ3jVG4w1BOrWH)" vector-effect="non-scaling-stroke" stroke-width="0.5" stroke="rgb(255,255,255)" stroke-linejoin="miter" stroke-linecap="butt" stroke-miterlimit="10"/><mask id="_mask_Cg3GOIbS1uhyhVj6Bt1fuvsRE3W3LYwC" x="-200%" y="-200%" width="400%" height="400%"><rect x="-200%" y="-200%" width="400%" height="400%" style="fill:white;"/><line x1="13.163" y1="4" x2="22.743" y2="4" fill="black" stroke="none"/></mask><line x1="13.163" y1="4" x2="22.743" y2="4" mask="url(#_mask_Cg3GOIbS1uhyhVj6Bt1fuvsRE3W3LYwC)" vector-effect="non-scaling-stroke" stroke-width="0.5" stroke="rgb(255,255,255)" stroke-linejoin="miter" stroke-linecap="butt" stroke-miterlimit="10"/><mask id="_mask_q2LgRTLsFCrYRIbcYksu8Xe8ljVGkjRK" x="-200%" y="-200%" width="400%" height="400%"><rect x="-200%" y="-200%" width="400%" height="400%" style="fill:white;"/><line x1="1.942" y1="14.22" x2="1.942" y2="23.8" fill="black" stroke="none"/></mask><line x1="1.942" y1="14.22" x2="1.942" y2="23.8" mask="url(#_mask_q2LgRTLsFCrYRIbcYksu8Xe8ljVGkjRK)" vector-effect="non-scaling-stroke" stroke-width="0.5" stroke="rgb(255,255,255)" stroke-linejoin="miter" stroke-linecap="butt" stroke-miterlimit="10"/><g clip-path="url(#_clipPath_QSfytKDSAWSz9H1GlFWr9xY61Xe3Xqkv)"><text transform="matrix(1,0,0,1,87.187,24.629)" style="font-family:'Open Sans';font-weight:400;font-size:14px;font-style:normal;fill:#000000;stroke:none;">Sputnik V &#x3E; 1ra. dosis</text></g><defs><clipPath id="_clipPath_QSfytKDSAWSz9H1GlFWr9xY61Xe3Xqkv"><rect x="0" y="0" width="175.87" height="20.67" transform="matrix(1,0,0,1,87.187,9.665)"/></clipPath></defs><mask id="_mask_zsNaBDzEqKZ6hHm6RAIZXZwHFCFbJvac" x="-200%" y="-200%" width="400%" height="400%"><rect x="-200%" y="-200%" width="400%" height="400%" style="fill:white;"/><line x1="76.908" y1="17.48" x2="76.908" y2="27.06" fill="black" stroke="none"/></mask><line x1="76.908" y1="17.48" x2="76.908" y2="27.06" mask="url(#_mask_zsNaBDzEqKZ6hHm6RAIZXZwHFCFbJvac)" vector-effect="non-scaling-stroke" stroke-width="0.5" stroke="rgb(255,255,255)" stroke-linejoin="miter" stroke-linecap="butt" stroke-miterlimit="10"/></g></g></g></g></g><g><g><circle vector-effect="non-scaling-stroke" cx="41.90750000238418" cy="7.6098207003335006" r="4" fill="rgb(0,0,0)"/><path d=" M 44.998 13.61 L 43.908 13.61 C 43.642 13.608 43.386 13.713 43.197 13.9 L 41.908 15.19 L 40.618 13.9 C 40.426 13.717 40.172 13.614 39.908 13.61 L 38.808 13.61 C 37.777 13.605 36.911 14.384 36.807 15.41 L 35.908 24.51 C 35.881 24.792 35.976 25.072 36.167 25.28 C 36.357 25.489 36.625 25.609 36.908 25.61 L 37.997 25.61 L 38.818 33.81 C 38.921 34.836 39.787 35.615 40.817 35.61 L 42.998 35.61 C 44.028 35.615 44.894 34.836 44.998 33.81 L 45.807 25.61 L 46.908 25.61 C 47.19 25.609 47.458 25.489 47.647 25.28 C 47.839 25.072 47.934 24.792 47.908 24.51 L 46.998 15.41 C 46.894 14.384 46.028 13.605 44.998 13.61 Z " fill="rgb(0,0,0)"/><circle vector-effect="non-scaling-stroke" cx="53.90750000238418" cy="7.6098207003335006" r="4" fill="rgb(0,0,0)"/><path d=" M 58.297 23.61 L 58.908 23.61 C 59.197 23.612 59.473 23.489 59.665 23.273 C 59.857 23.056 59.945 22.767 59.908 22.48 L 59.008 15.39 C 58.895 14.372 58.032 13.604 57.008 13.61 L 50.807 13.61 C 49.787 13.603 48.925 14.366 48.807 15.38 L 47.908 22.48 C 47.87 22.767 47.958 23.056 48.15 23.273 C 48.342 23.489 48.618 23.612 48.908 23.61 L 49.517 23.61 L 47.958 28.29 C 47.857 28.595 47.909 28.93 48.097 29.19 C 48.284 29.452 48.586 29.608 48.908 29.61 L 50.057 29.61 L 50.777 33.94 C 50.94 34.914 51.79 35.623 52.778 35.61 L 55.078 35.61 C 56.065 35.623 56.915 34.914 57.078 33.94 L 57.758 29.61 L 58.908 29.61 C 59.229 29.608 59.531 29.452 59.717 29.19 C 59.906 28.93 59.958 28.595 59.858 28.29 L 58.297 23.61 Z " fill="rgb(0,0,0)"/><g clip-path="url(#_clipPath_HKvCIfR2lFgWIZUoKUegQClUym8oYHWV)"><text transform="matrix(1,0,0,1,58.868,13.83)" style="font-family:'Open Sans';font-weight:400;font-size:10px;font-style:normal;font-variant-ligatures:none;fill:[Object GRGBColor];stroke:none;">18+</text></g><defs><clipPath id="_clipPath_HKvCIfR2lFgWIZUoKUegQClUym8oYHWV"><rect x="0" y="0" width="20" height="13.618" transform="matrix(1,0,0,1,58.868,3.141)"/></clipPath></defs></g></g></g></svg>