<?xml version="1.0" encoding="UTF-8" standalone="no"?><!-- Generator: Gravit.io --><svg xmlns="http://www.w3.org/2000/svg" xmlns:xlink="http://www.w3.org/1999/xlink" style="isolation:isolate" viewBox="0 0 265 80" width="265pt" height="80pt"><defs><clipPath id="_clipPath_5DPxw9OrIWu74k9NTW5m5JgBtWdn3kP4"><rect width="265" height="80"/></clipPath></defs><g clip-path="url(#_clipPath_5DPxw9OrIWu74k9NTW5m5JgBtWdn3kP4)"><g><g clip-path="url(#_clipPath_xoOXm0KQqPFnKmE5J6o5XITnGqZpylt6)"><text transform="matrix(1,0,0,1,97.13,23.679)" style="font-family:'Open Sans';font-weight:400;font-size:14px;font-style:normal;fill:#000000;stroke:none;">Sputnik V &#x3E; 1ra. dosis</text></g><defs><clipPath id="_clipPath_xoOXm0KQqPFnKmE5J6o5XITnGqZpylt6"><rect x="0" y="0" width="175.87" height="20.67" transform="matrix(1,0,0,1,97.13,8.715)"/></clipPath></defs><g><g><circle vector-effect="non-scaling-stroke" cx="51.84999999999998" cy="7.719810411148515" r="4" fill="rgb(0,0,0)"/><path d=" M 54.94 13.72 L 53.85 13.72 C 53.584 13.718 53.329 13.823 53.14 14.01 L 51.85 15.3 L 50.56 14.01 C 50.368 13.827 50.115 13.723 49.85 13.72 L 48.75 13.72 C 47.719 13.715 46.853 14.494 46.75 15.52 L 45.85 24.62 C 45.824 24.902 45.918 25.182 46.11 25.39 C 46.299 25.599 46.568 25.719 46.85 25.72 L 47.94 25.72 L 48.76 33.92 C 48.863 34.946 49.729 35.725 50.76 35.72 L 52.94 35.72 C 53.971 35.725 54.837 34.946 54.94 33.92 L 55.75 25.72 L 56.85 25.72 C 57.132 25.719 57.401 25.599 57.59 25.39 C 57.782 25.182 57.876 24.902 57.85 24.62 L 56.94 15.52 C 56.837 14.494 55.971 13.715 54.94 13.72 Z " fill="rgb(0,0,0)"/><circle vector-effect="non-scaling-stroke" cx="63.84999999999998" cy="7.719810411148515" r="4" fill="rgb(0,0,0)"/><path d=" M 68.24 23.72 L 68.85 23.72 C 69.139 23.722 69.416 23.599 69.607 23.383 C 69.799 23.166 69.888 22.877 69.85 22.59 L 68.95 15.5 C 68.837 14.482 67.974 13.714 66.95 13.72 L 60.75 13.72 C 59.729 13.713 58.867 14.476 58.75 15.49 L 57.85 22.59 C 57.812 22.877 57.901 23.166 58.093 23.383 C 58.284 23.599 58.561 23.722 58.85 23.72 L 59.46 23.72 L 57.9 28.4 C 57.799 28.705 57.851 29.04 58.04 29.3 C 58.227 29.562 58.528 29.718 58.85 29.72 L 60 29.72 L 60.72 34.05 C 60.883 35.024 61.732 35.733 62.72 35.72 L 65.02 35.72 C 66.008 35.733 66.857 35.024 67.02 34.05 L 67.7 29.72 L 68.85 29.72 C 69.172 29.718 69.473 29.562 69.66 29.3 C 69.849 29.04 69.901 28.705 69.8 28.4 L 68.24 23.72 Z " fill="rgb(0,0,0)"/><g clip-path="url(#_clipPath_2PraqROn4neiBLDRV4s9UR8MwxvCMbAx)"><text transform="matrix(1,0,0,1,68.81,13.94)" style="font-family:'Open Sans';font-weight:400;font-size:10px;font-style:normal;font-variant-ligatures:none;fill:[Object GRGBColor];stroke:none;">18+</text></g><defs><clipPath id="_clipPath_2PraqROn4neiBLDRV4s9UR8MwxvCMbAx"><rect x="0" y="0" width="20" height="13.618" transform="matrix(1,0,0,1,68.81,3.251)"/></clipPath></defs></g></g><g><g><path d=" M 33.663 20.32 C 33.561 20.093 33.341 19.942 33.093 19.93 L 30.163 19.93 C 29.914 19.942 29.694 20.093 29.593 20.32 C 29.526 20.513 29.472 20.71 29.433 20.91 L 27.433 15.51 C 27.109 14.617 26.262 14.022 25.313 14.02 L 10.413 14.02 C 9.463 14.022 8.616 14.617 8.293 15.51 L 6.293 20.91 C 6.253 20.71 6.199 20.513 6.133 20.32 C 6.031 20.093 5.811 19.942 5.563 19.93 L 2.673 19.93 C 2.424 19.942 2.204 20.093 2.103 20.32 C 1.812 21.032 1.812 21.828 2.103 22.54 C 2.204 22.767 2.424 22.918 2.673 22.93 L 5.613 22.93 L 5.613 23.05 C 5.013 23.265 4.613 23.833 4.613 24.47 L 4.613 34.38 C 4.618 34.779 4.943 35.1 5.343 35.1 L 8.883 35.1 C 9.28 35.1 9.603 34.778 9.603 34.38 L 9.603 30.87 L 26.163 30.87 L 26.163 34.38 C 26.163 34.778 26.485 35.1 26.883 35.1 L 30.503 35.1 C 30.902 35.1 31.227 34.779 31.233 34.38 L 31.233 24.47 C 31.235 23.832 30.834 23.263 30.233 23.05 L 30.233 22.93 L 33.163 22.93 C 33.411 22.918 33.631 22.767 33.733 22.54 C 34 21.819 33.975 21.022 33.663 20.32 Z  M 10.663 16.67 L 25.073 16.67 L 27.353 22.98 L 8.413 22.98 L 10.663 16.67 Z  M 11.063 27.42 L 8.063 27.42 C 7.411 27.42 6.883 26.892 6.883 26.24 C 6.883 25.588 7.411 25.06 8.063 25.06 L 11.063 25.06 C 11.714 25.06 12.243 25.588 12.243 26.24 C 12.243 26.892 11.714 27.42 11.063 27.42 L 11.063 27.42 Z  M 27.683 27.42 L 24.683 27.42 C 24.031 27.42 23.503 26.892 23.503 26.24 C 23.503 25.588 24.031 25.06 24.683 25.06 L 27.683 25.06 C 28.334 25.06 28.863 25.588 28.863 26.24 C 28.863 26.892 28.334 27.42 27.683 27.42 L 27.683 27.42 Z " fill="rgb(29,113,184)"/><mask id="_mask_liC045nk9CTp6gTFfibGsCG2dvKkhSWX" x="-200%" y="-200%" width="400%" height="400%"><rect x="-200%" y="-200%" width="400%" height="400%" style="fill:white;"/><line x1="13.093" y1="3" x2="22.673" y2="3" fill="black" stroke="none"/></mask><line x1="13.093" y1="3" x2="22.673" y2="3" mask="url(#_mask_liC045nk9CTp6gTFfibGsCG2dvKkhSWX)" vector-effect="non-scaling-stroke" stroke-width="0.5" stroke="rgb(255,255,255)" stroke-linejoin="miter" stroke-linecap="butt" stroke-miterlimit="10"/><path d=" M 33.663 20.32 C 33.561 20.093 33.341 19.942 33.093 19.93 L 30.163 19.93 C 29.914 19.942 29.694 20.093 29.593 20.32 C 29.526 20.513 29.472 20.71 29.433 20.91 L 27.433 15.51 C 27.109 14.617 26.262 14.022 25.313 14.02 L 10.413 14.02 C 9.463 14.022 8.616 14.617 8.293 15.51 L 6.293 20.91 C 6.253 20.71 6.199 20.513 6.133 20.32 C 6.031 20.093 5.811 19.942 5.563 19.93 L 2.673 19.93 C 2.424 19.942 2.204 20.093 2.103 20.32 C 1.812 21.032 1.812 21.828 2.103 22.54 C 2.204 22.767 2.424 22.918 2.673 22.93 L 5.613 22.93 L 5.613 23.05 C 5.013 23.265 4.613 23.833 4.613 24.47 L 4.613 34.38 C 4.618 34.779 4.943 35.1 5.343 35.1 L 8.883 35.1 C 9.28 35.1 9.603 34.778 9.603 34.38 L 9.603 30.87 L 26.163 30.87 L 26.163 34.38 C 26.163 34.778 26.485 35.1 26.883 35.1 L 30.503 35.1 C 30.902 35.1 31.227 34.779 31.233 34.38 L 31.233 24.47 C 31.235 23.832 30.834 23.263 30.233 23.05 L 30.233 22.93 L 33.163 22.93 C 33.411 22.918 33.631 22.767 33.733 22.54 C 34 21.819 33.975 21.022 33.663 20.32 Z  M 10.663 16.67 L 25.073 16.67 L 27.353 22.98 L 8.413 22.98 L 10.663 16.67 Z  M 11.063 27.42 L 8.063 27.42 C 7.411 27.42 6.883 26.892 6.883 26.24 C 6.883 25.588 7.411 25.06 8.063 25.06 L 11.063 25.06 C 11.714 25.06 12.243 25.588 12.243 26.24 C 12.243 26.892 11.714 27.42 11.063 27.42 L 11.063 27.42 Z  M 27.683 27.42 L 24.683 27.42 C 24.031 27.42 23.503 26.892 23.503 26.24 C 23.503 25.588 24.031 25.06 24.683 25.06 L 27.683 25.06 C 28.334 25.06 28.863 25.588 28.863 26.24 C 28.863 26.892 28.334 27.42 27.683 27.42 L 27.683 27.42 Z " fill="rgb(29,29,27)"/><line x1="13.093" y1="3" x2="22.673" y2="3"/><path d=" M 33.663 20.32 C 33.561 20.093 33.341 19.942 33.093 19.93 L 30.163 19.93 C 29.914 19.942 29.694 20.093 29.593 20.32 C 29.526 20.513 29.472 20.71 29.433 20.91 L 27.433 15.51 C 27.109 14.617 26.262 14.022 25.313 14.02 L 10.413 14.02 C 9.463 14.022 8.616 14.617 8.293 15.51 L 6.293 20.91 C 6.253 20.71 6.199 20.513 6.133 20.32 C 6.031 20.093 5.811 19.942 5.563 19.93 L 2.673 19.93 C 2.424 19.942 2.204 20.093 2.103 20.32 C 1.812 21.032 1.812 21.828 2.103 22.54 C 2.204 22.767 2.424 22.918 2.673 22.93 L 5.613 22.93 L 5.613 23.05 C 5.013 23.265 4.613 23.833 4.613 24.47 L 4.613 34.38 C 4.618 34.779 4.943 35.1 5.343 35.1 L 8.883 35.1 C 9.28 35.1 9.603 34.778 9.603 34.38 L 9.603 30.87 L 26.163 30.87 L 26.163 34.38 C 26.163 34.778 26.485 35.1 26.883 35.1 L 30.503 35.1 C 30.902 35.1 31.227 34.779 31.233 34.38 L 31.233 24.47 C 31.235 23.832 30.834 23.263 30.233 23.05 L 30.233 22.93 L 33.163 22.93 C 33.411 22.918 33.631 22.767 33.733 22.54 C 34 21.819 33.975 21.022 33.663 20.32 Z  M 10.663 16.67 L 25.073 16.67 L 27.353 22.98 L 8.413 22.98 L 10.663 16.67 Z  M 11.063 27.42 L 8.063 27.42 C 7.411 27.42 6.883 26.892 6.883 26.24 C 6.883 25.588 7.411 25.06 8.063 25.06 L 11.063 25.06 C 11.714 25.06 12.243 25.588 12.243 26.24 C 12.243 26.892 11.714 27.42 11.063 27.42 L 11.063 27.42 Z  M 27.683 27.42 L 24.683 27.42 C 24.031 27.42 23.503 26.892 23.503 26.24 C 23.503 25.588 24.031 25.06 24.683 25.06 L 27.683 25.06 C 28.334 25.06 28.863 25.588 28.863 26.24 C 28.863 26.892 28.334 27.42 27.683 27.42 L 27.683 27.42 Z " fill="rgb(29,113,184)"/><line x1="13.093" y1="3" x2="22.673" y2="3"/></g></g></g><g><g clip-path="url(#_clipPath_UW0QBjUHHcGrVorfdePSuh09v76vgXvo)"><text transform="matrix(1,0,0,1,97.13,65.739)" style="font-family:'Open Sans';font-weight:400;font-size:14px;font-style:normal;fill:#000000;stroke:none;">Sputnik V &#x3E; 2da. dosis</text></g><defs><clipPath id="_clipPath_UW0QBjUHHcGrVorfdePSuh09v76vgXvo"><rect x="0" y="0" width="175.87" height="20.67" transform="matrix(1,0,0,1,97.13,50.775)"/></clipPath></defs><g><g><circle vector-effect="non-scaling-stroke" cx="52.849999999907084" cy="49.109799607498005" r="4" fill="rgb(0,0,0)"/><path d=" M 55.94 55.11 L 54.85 55.11 C 54.584 55.108 54.329 55.213 54.14 55.4 L 52.85 56.69 L 51.56 55.4 C 51.368 55.217 51.115 55.113 50.85 55.11 L 49.75 55.11 C 48.719 55.105 47.853 55.884 47.75 56.91 L 46.85 66.01 C 46.824 66.292 46.918 66.572 47.11 66.78 C 47.299 66.989 47.568 67.109 47.85 67.11 L 48.94 67.11 L 49.76 75.31 C 49.863 76.336 50.729 77.115 51.76 77.11 L 53.94 77.11 C 54.971 77.115 55.837 76.336 55.94 75.31 L 56.75 67.11 L 57.85 67.11 C 58.132 67.109 58.401 66.989 58.59 66.78 C 58.782 66.572 58.876 66.292 58.85 66.01 L 57.94 56.91 C 57.837 55.884 56.971 55.105 55.94 55.11 Z " fill="rgb(0,0,0)"/><circle vector-effect="non-scaling-stroke" cx="66.84999999990708" cy="49.109799607498005" r="4" fill="rgb(0,0,0)"/><path d=" M 71.23 65.11 L 71.85 65.11 C 72.139 65.112 72.416 64.989 72.607 64.773 C 72.799 64.556 72.888 64.267 72.85 63.98 L 71.95 56.89 C 71.837 55.872 70.974 55.104 69.95 55.11 L 63.75 55.11 C 62.729 55.103 61.867 55.866 61.75 56.88 L 60.85 63.98 C 60.812 64.267 60.901 64.556 61.093 64.773 C 61.284 64.989 61.561 65.112 61.85 65.11 L 62.46 65.11 L 60.9 69.79 C 60.799 70.095 60.851 70.43 61.04 70.69 C 61.227 70.952 61.528 71.108 61.85 71.11 L 63 71.11 L 63.72 75.44 C 63.883 76.414 64.732 77.123 65.72 77.11 L 68.02 77.11 C 69.008 77.123 69.857 76.414 70.02 75.44 L 70.7 71.11 L 71.85 71.11 C 72.172 71.108 72.473 70.952 72.66 70.69 C 72.849 70.43 72.901 70.095 72.8 69.79 L 71.23 65.11 Z " fill="rgb(0,0,0)"/><path d=" M 56.13 75.6 L 63.52 75.6 C 63.851 75.559 64.099 75.278 64.099 74.945 C 64.099 74.612 63.851 74.331 63.52 74.29 L 61.66 74.29 L 61.66 70.96 L 63.51 70.96 C 63.841 70.919 64.089 70.638 64.089 70.305 C 64.089 69.972 63.841 69.691 63.51 69.65 L 62.58 69.65 L 62.58 56.44 L 61.65 56.44 L 60.72 53.67 L 60.45 53.67 L 60.45 47.2 C 60.409 46.869 60.128 46.621 59.795 46.621 C 59.462 46.621 59.181 46.869 59.14 47.2 L 59.14 53.66 L 58.85 53.66 L 57.94 56.43 L 57.01 56.43 L 57.01 69.63 L 56.11 69.63 C 55.751 69.63 55.46 69.921 55.46 70.28 C 55.46 70.639 55.751 70.93 56.11 70.93 L 57.96 70.93 L 57.96 74.24 L 56.12 74.24 C 55.947 74.24 55.781 74.31 55.66 74.434 C 55.54 74.559 55.475 74.727 55.48 74.9 C 55.466 75.081 55.528 75.259 55.652 75.392 C 55.775 75.525 55.949 75.6 56.13 75.6 Z  M 60.01 59.25 C 60.019 59.077 60.09 58.914 60.21 58.79 C 60.333 58.669 60.497 58.597 60.67 58.59 L 61.91 58.59 L 61.91 59.88 L 60.67 59.88 C 60.309 59.88 60.015 59.59 60.01 59.23 L 60.01 59.25 Z  M 60.01 61.93 C 60.01 61.571 60.301 61.28 60.66 61.28 L 61.9 61.28 L 61.9 62.57 L 60.68 62.57 C 60.507 62.575 60.339 62.51 60.214 62.39 C 60.09 62.269 60.02 62.103 60.02 61.93 L 60.01 61.93 Z  M 60.01 64.61 C 60.01 64.251 60.301 63.96 60.66 63.96 L 61.9 63.96 L 61.9 65.25 L 60.69 65.25 C 60.329 65.25 60.035 64.96 60.03 64.6 L 60.01 64.61 Z  M 60.01 67.29 C 60.004 66.94 60.28 66.651 60.63 66.64 L 61.89 66.64 L 61.89 67.93 L 60.7 67.93 C 60.345 67.93 60.055 67.645 60.05 67.29 L 60.01 67.29 Z " fill="rgb(0,0,0)" vector-effect="non-scaling-stroke" stroke-width="2" stroke="rgb(255,255,255)" stroke-linejoin="miter" stroke-linecap="butt" stroke-miterlimit="10"/><path d=" M 56.13 75.6 L 63.52 75.6 C 63.851 75.559 64.099 75.278 64.099 74.945 C 64.099 74.612 63.851 74.331 63.52 74.29 L 61.66 74.29 L 61.66 70.96 L 63.51 70.96 C 63.841 70.919 64.089 70.638 64.089 70.305 C 64.089 69.972 63.841 69.691 63.51 69.65 L 62.58 69.65 L 62.58 56.44 L 61.65 56.44 L 60.72 53.67 L 60.45 53.67 L 60.45 47.2 C 60.409 46.869 60.128 46.621 59.795 46.621 C 59.462 46.621 59.181 46.869 59.14 47.2 L 59.14 53.66 L 58.85 53.66 L 57.94 56.43 L 57.01 56.43 L 57.01 69.63 L 56.11 69.63 C 55.751 69.63 55.46 69.921 55.46 70.28 C 55.46 70.639 55.751 70.93 56.11 70.93 L 57.96 70.93 L 57.96 74.24 L 56.12 74.24 C 55.947 74.24 55.781 74.31 55.66 74.434 C 55.54 74.559 55.475 74.727 55.48 74.9 C 55.466 75.081 55.528 75.259 55.652 75.392 C 55.775 75.525 55.949 75.6 56.13 75.6 Z  M 60.01 59.25 C 60.019 59.077 60.09 58.914 60.21 58.79 C 60.333 58.669 60.497 58.597 60.67 58.59 L 61.91 58.59 L 61.91 59.88 L 60.67 59.88 C 60.309 59.88 60.015 59.59 60.01 59.23 L 60.01 59.25 Z  M 60.01 61.93 C 60.01 61.571 60.301 61.28 60.66 61.28 L 61.9 61.28 L 61.9 62.57 L 60.68 62.57 C 60.507 62.575 60.339 62.51 60.214 62.39 C 60.09 62.269 60.02 62.103 60.02 61.93 L 60.01 61.93 Z  M 60.01 64.61 C 60.01 64.251 60.301 63.96 60.66 63.96 L 61.9 63.96 L 61.9 65.25 L 60.69 65.25 C 60.329 65.25 60.035 64.96 60.03 64.6 L 60.01 64.61 Z  M 60.01 67.29 C 60.004 66.94 60.28 66.651 60.63 66.64 L 61.89 66.64 L 61.89 67.93 L 60.7 67.93 C 60.345 67.93 60.055 67.645 60.05 67.29 L 60.01 67.29 Z " fill="rgb(0,0,0)"/><g clip-path="url(#_clipPath_BGlhtjQUiPVEvEW7qHZy9MhD7I5Giobq)"><text transform="matrix(1,0,0,1,49.85,63.95)" style="font-family:'Open Sans';font-weight:400;font-size:10px;font-style:normal;font-variant-ligatures:none;fill:[Object GRGBColor];stroke:none;">1</text></g><defs><clipPath id="_clipPath_BGlhtjQUiPVEvEW7qHZy9MhD7I5Giobq"><rect x="0" y="0" width="8" height="13.618" transform="matrix(1,0,0,1,49.85,53.261)"/></clipPath></defs><g clip-path="url(#_clipPath_GClpQASTvFoZtoJXiXzWsZi3WCxxDtZr)"><text transform="matrix(1,0,0,1,64.56,64.61)" style="font-family:'Open Sans';font-weight:400;font-size:10px;font-style:normal;font-variant-ligatures:none;fill:[Object GRGBColor];stroke:none;">D</text></g><defs><clipPath id="_clipPath_GClpQASTvFoZtoJXiXzWsZi3WCxxDtZr"><rect x="0" y="0" width="10" height="13.618" transform="matrix(1,0,0,1,64.56,53.921)"/></clipPath></defs><mask id="_mask_r0BTIXeSqLYpAzmelb5sfjhnO7oXf2BG" x="-200%" y="-200%" width="400%" height="400%"><rect x="-200%" y="-200%" width="400%" height="400%" style="fill:white;"/><line x1="86.85" y1="58.59" x2="86.85" y2="68.17" fill="black" stroke="none"/></mask><line x1="86.85" y1="58.59" x2="86.85" y2="68.17" mask="url(#_mask_r0BTIXeSqLYpAzmelb5sfjhnO7oXf2BG)" vector-effect="non-scaling-stroke" stroke-width="0.5" stroke="rgb(255,255,255)" stroke-linejoin="miter" stroke-linecap="butt" stroke-miterlimit="10"/></g></g><g><g><path d=" M 33.663 62.04 C 33.561 61.813 33.341 61.662 33.093 61.65 L 30.163 61.65 C 29.914 61.662 29.694 61.813 29.593 62.04 C 29.526 62.233 29.472 62.43 29.433 62.63 L 27.433 57.23 C 27.109 56.337 26.262 55.742 25.313 55.74 L 10.413 55.74 C 9.463 55.742 8.616 56.337 8.293 57.23 L 6.293 62.63 C 6.253 62.43 6.199 62.233 6.133 62.04 C 6.031 61.813 5.811 61.662 5.563 61.65 L 2.673 61.65 C 2.424 61.662 2.204 61.813 2.103 62.04 C 1.812 62.752 1.812 63.548 2.103 64.26 C 2.204 64.487 2.424 64.638 2.673 64.65 L 5.613 64.65 L 5.613 64.77 C 5.013 64.985 4.613 65.553 4.613 66.19 L 4.613 76.1 C 4.618 76.499 4.943 76.82 5.343 76.82 L 8.883 76.82 C 9.28 76.82 9.603 76.498 9.603 76.1 L 9.603 72.59 L 26.163 72.59 L 26.163 76.1 C 26.163 76.498 26.485 76.82 26.883 76.82 L 30.503 76.82 C 30.902 76.82 31.227 76.499 31.233 76.1 L 31.233 66.19 C 31.235 65.552 30.834 64.983 30.233 64.77 L 30.233 64.65 L 33.163 64.65 C 33.411 64.638 33.631 64.487 33.733 64.26 C 34 63.539 33.975 62.742 33.663 62.04 Z  M 10.663 58.39 L 25.073 58.39 L 27.353 64.7 L 8.413 64.7 L 10.663 58.39 Z  M 11.063 69.14 L 8.063 69.14 C 7.411 69.14 6.883 68.612 6.883 67.96 C 6.883 67.308 7.411 66.78 8.063 66.78 L 11.063 66.78 C 11.714 66.78 12.243 67.308 12.243 67.96 C 12.243 68.612 11.714 69.14 11.063 69.14 L 11.063 69.14 Z  M 27.683 69.14 L 24.683 69.14 C 24.031 69.14 23.503 68.612 23.503 67.96 C 23.503 67.308 24.031 66.78 24.683 66.78 L 27.683 66.78 C 28.334 66.78 28.863 67.308 28.863 67.96 C 28.863 68.612 28.334 69.14 27.683 69.14 L 27.683 69.14 Z " fill="rgb(29,113,184)"/><mask id="_mask_YCTjtRFP9ugNuC2ab2aJ9tg3gam2eOMD" x="-200%" y="-200%" width="400%" height="400%"><rect x="-200%" y="-200%" width="400%" height="400%" style="fill:white;"/><line x1="13.093" y1="44.72" x2="22.673" y2="44.72" fill="black" stroke="none"/></mask><line x1="13.093" y1="44.72" x2="22.673" y2="44.72" mask="url(#_mask_YCTjtRFP9ugNuC2ab2aJ9tg3gam2eOMD)" vector-effect="non-scaling-stroke" stroke-width="0.5" stroke="rgb(255,255,255)" stroke-linejoin="miter" stroke-linecap="butt" stroke-miterlimit="10"/><path d=" M 33.663 62.04 C 33.561 61.813 33.341 61.662 33.093 61.65 L 30.163 61.65 C 29.914 61.662 29.694 61.813 29.593 62.04 C 29.526 62.233 29.472 62.43 29.433 62.63 L 27.433 57.23 C 27.109 56.337 26.262 55.742 25.313 55.74 L 10.413 55.74 C 9.463 55.742 8.616 56.337 8.293 57.23 L 6.293 62.63 C 6.253 62.43 6.199 62.233 6.133 62.04 C 6.031 61.813 5.811 61.662 5.563 61.65 L 2.673 61.65 C 2.424 61.662 2.204 61.813 2.103 62.04 C 1.812 62.752 1.812 63.548 2.103 64.26 C 2.204 64.487 2.424 64.638 2.673 64.65 L 5.613 64.65 L 5.613 64.77 C 5.013 64.985 4.613 65.553 4.613 66.19 L 4.613 76.1 C 4.618 76.499 4.943 76.82 5.343 76.82 L 8.883 76.82 C 9.28 76.82 9.603 76.498 9.603 76.1 L 9.603 72.59 L 26.163 72.59 L 26.163 76.1 C 26.163 76.498 26.485 76.82 26.883 76.82 L 30.503 76.82 C 30.902 76.82 31.227 76.499 31.233 76.1 L 31.233 66.19 C 31.235 65.552 30.834 64.983 30.233 64.77 L 30.233 64.65 L 33.163 64.65 C 33.411 64.638 33.631 64.487 33.733 64.26 C 34 63.539 33.975 62.742 33.663 62.04 Z  M 10.663 58.39 L 25.073 58.39 L 27.353 64.7 L 8.413 64.7 L 10.663 58.39 Z  M 11.063 69.14 L 8.063 69.14 C 7.411 69.14 6.883 68.612 6.883 67.96 C 6.883 67.308 7.411 66.78 8.063 66.78 L 11.063 66.78 C 11.714 66.78 12.243 67.308 12.243 67.96 C 12.243 68.612 11.714 69.14 11.063 69.14 L 11.063 69.14 Z  M 27.683 69.14 L 24.683 69.14 C 24.031 69.14 23.503 68.612 23.503 67.96 C 23.503 67.308 24.031 66.78 24.683 66.78 L 27.683 66.78 C 28.334 66.78 28.863 67.308 28.863 67.96 C 28.863 68.612 28.334 69.14 27.683 69.14 L 27.683 69.14 Z " fill="rgb(29,29,27)"/><line x1="13.093" y1="44.72" x2="22.673" y2="44.72"/><path d=" M 33.663 62.04 C 33.561 61.813 33.341 61.662 33.093 61.65 L 30.163 61.65 C 29.914 61.662 29.694 61.813 29.593 62.04 C 29.526 62.233 29.472 62.43 29.433 62.63 L 27.433 57.23 C 27.109 56.337 26.262 55.742 25.313 55.74 L 10.413 55.74 C 9.463 55.742 8.616 56.337 8.293 57.23 L 6.293 62.63 C 6.253 62.43 6.199 62.233 6.133 62.04 C 6.031 61.813 5.811 61.662 5.563 61.65 L 2.673 61.65 C 2.424 61.662 2.204 61.813 2.103 62.04 C 1.812 62.752 1.812 63.548 2.103 64.26 C 2.204 64.487 2.424 64.638 2.673 64.65 L 5.613 64.65 L 5.613 64.77 C 5.013 64.985 4.613 65.553 4.613 66.19 L 4.613 76.1 C 4.618 76.499 4.943 76.82 5.343 76.82 L 8.883 76.82 C 9.28 76.82 9.603 76.498 9.603 76.1 L 9.603 72.59 L 26.163 72.59 L 26.163 76.1 C 26.163 76.498 26.485 76.82 26.883 76.82 L 30.503 76.82 C 30.902 76.82 31.227 76.499 31.233 76.1 L 31.233 66.19 C 31.235 65.552 30.834 64.983 30.233 64.77 L 30.233 64.65 L 33.163 64.65 C 33.411 64.638 33.631 64.487 33.733 64.26 C 34 63.539 33.975 62.742 33.663 62.04 Z  M 10.663 58.39 L 25.073 58.39 L 27.353 64.7 L 8.413 64.7 L 10.663 58.39 Z  M 11.063 69.14 L 8.063 69.14 C 7.411 69.14 6.883 68.612 6.883 67.96 C 6.883 67.308 7.411 66.78 8.063 66.78 L 11.063 66.78 C 11.714 66.78 12.243 67.308 12.243 67.96 C 12.243 68.612 11.714 69.14 11.063 69.14 L 11.063 69.14 Z  M 27.683 69.14 L 24.683 69.14 C 24.031 69.14 23.503 68.612 23.503 67.96 C 23.503 67.308 24.031 66.78 24.683 66.78 L 27.683 66.78 C 28.334 66.78 28.863 67.308 28.863 67.96 C 28.863 68.612 28.334 69.14 27.683 69.14 L 27.683 69.14 Z " fill="rgb(29,113,184)"/><line x1="13.093" y1="44.72" x2="22.673" y2="44.72"/></g></g></g></g></svg>