<?xml version="1.0" encoding="UTF-8" standalone="no"?><!-- Generator: Gravit.io --><svg xmlns="http://www.w3.org/2000/svg" xmlns:xlink="http://www.w3.org/1999/xlink" style="isolation:isolate" viewBox="0 0 265 120" width="265pt" height="120pt"><defs><clipPath id="_clipPath_UleaYXOcZ938LK3lzBuB87uPBeg2V3cX"><rect width="265" height="120"/></clipPath></defs><g clip-path="url(#_clipPath_UleaYXOcZ938LK3lzBuB87uPBeg2V3cX)"><g><g><g><path d=" M 19.712 27.98 C 20.993 28.42 22.112 28.7 23.712 29.19 C 23.112 37.04 15.693 33.92 19.712 27.98 Z  M 26.343 20.78 C 26.253 18.42 25.843 15.33 22.532 15.78 C 20.983 16.19 19.843 17.89 19.302 20.78 C 19.048 22.522 19.126 24.297 19.532 26.01 C 19.843 27.01 19.743 26.91 20.083 27.09 C 21.403 27.39 22.712 27.72 24.083 28.09 C 25.413 27.18 26.522 22.09 26.343 20.78 Z  M 16.142 20.6 C 16.545 18.883 16.62 17.105 16.363 15.36 C 15.823 12.42 14.682 10.72 13.132 10.36 C 9.833 9.87 9.412 12.96 9.332 15.36 C 9.142 16.68 10.262 21.76 11.613 22.72 C 12.953 22.38 14.262 22.05 15.613 21.72 C 15.932 21.49 15.813 21.55 16.142 20.6 Z  M 11.932 23.7 C 12.563 31.54 19.933 28.43 15.932 22.48 C 14.682 22.92 13.552 23.2 11.932 23.7 Z " fill="rgb(29,113,184)"/><mask id="_mask_Uudw5gBhhfeNeP9wt242ZQ9yTCWeBhZ8" x="-200%" y="-200%" width="400%" height="400%"><rect x="-200%" y="-200%" width="400%" height="400%" style="fill:white;"/><line x1="34.173" y1="12.22" x2="34.173" y2="21.8" fill="black" stroke="none"/></mask><line x1="34.173" y1="12.22" x2="34.173" y2="21.8" mask="url(#_mask_Uudw5gBhhfeNeP9wt242ZQ9yTCWeBhZ8)" vector-effect="non-scaling-stroke" stroke-width="0.5" stroke="rgb(255,255,255)" stroke-linejoin="miter" stroke-linecap="butt" stroke-miterlimit="10"/><mask id="_mask_zJqRiSjVfu3hbLnmUhxF8gmin0vxKKmf" x="-200%" y="-200%" width="400%" height="400%"><rect x="-200%" y="-200%" width="400%" height="400%" style="fill:white;"/><line x1="13.163" y1="2" x2="22.743" y2="2" fill="black" stroke="none"/></mask><line x1="13.163" y1="2" x2="22.743" y2="2" mask="url(#_mask_zJqRiSjVfu3hbLnmUhxF8gmin0vxKKmf)" vector-effect="non-scaling-stroke" stroke-width="0.5" stroke="rgb(255,255,255)" stroke-linejoin="miter" stroke-linecap="butt" stroke-miterlimit="10"/><mask id="_mask_ffNgbOFPkLp5wzI7mPcwcTK9fO04MPb1" x="-200%" y="-200%" width="400%" height="400%"><rect x="-200%" y="-200%" width="400%" height="400%" style="fill:white;"/><line x1="1.942" y1="12.22" x2="1.942" y2="21.8" fill="black" stroke="none"/></mask><line x1="1.942" y1="12.22" x2="1.942" y2="21.8" mask="url(#_mask_ffNgbOFPkLp5wzI7mPcwcTK9fO04MPb1)" vector-effect="non-scaling-stroke" stroke-width="0.5" stroke="rgb(255,255,255)" stroke-linejoin="miter" stroke-linecap="butt" stroke-miterlimit="10"/></g></g><g clip-path="url(#_clipPath_BPdqLw3qJTOnJYCq8gHo3OuQiuiaIayn)"><text transform="matrix(1,0,0,1,87.187,22.569)" style="font-family:'Open Sans';font-weight:400;font-size:14px;font-style:normal;fill:#000000;stroke:none;">Sputnik V &#x3E; 1ra. dosis</text></g><defs><clipPath id="_clipPath_BPdqLw3qJTOnJYCq8gHo3OuQiuiaIayn"><rect x="0" y="0" width="175.87" height="20.67" transform="matrix(1,0,0,1,87.187,7.605)"/></clipPath></defs><g><g><circle vector-effect="non-scaling-stroke" cx="43.19180863945414" cy="6.174153539035828" r="4" fill="rgb(0,0,0)"/><path d=" M 46.282 12.174 L 45.192 12.174 C 44.926 12.173 44.671 12.277 44.482 12.464 L 43.192 13.754 L 41.902 12.464 C 41.71 12.281 41.457 12.178 41.192 12.174 L 40.092 12.174 C 39.061 12.169 38.195 12.948 38.092 13.974 L 37.192 23.074 C 37.166 23.356 37.26 23.636 37.452 23.844 C 37.641 24.054 37.91 24.173 38.192 24.174 L 39.282 24.174 L 40.102 32.374 C 40.205 33.4 41.071 34.179 42.102 34.174 L 44.282 34.174 C 45.313 34.179 46.179 33.4 46.282 32.374 L 47.092 24.174 L 48.192 24.174 C 48.474 24.173 48.743 24.054 48.932 23.844 C 49.124 23.636 49.218 23.356 49.192 23.074 L 48.282 13.974 C 48.179 12.948 47.313 12.169 46.282 12.174 Z " fill="rgb(0,0,0)"/><circle vector-effect="non-scaling-stroke" cx="55.19180863945414" cy="6.174153539035828" r="4" fill="rgb(0,0,0)"/><path d=" M 59.582 22.174 L 60.192 22.174 C 60.481 22.177 60.757 22.054 60.949 21.837 C 61.141 21.62 61.229 21.331 61.192 21.044 L 60.292 13.954 C 60.179 12.936 59.316 12.168 58.292 12.174 L 52.092 12.174 C 51.071 12.167 50.209 12.93 50.092 13.944 L 49.192 21.044 C 49.154 21.331 49.243 21.62 49.434 21.837 C 49.626 22.054 49.902 22.177 50.192 22.174 L 50.802 22.174 L 49.242 26.854 C 49.141 27.159 49.193 27.494 49.382 27.754 C 49.568 28.016 49.87 28.173 50.192 28.174 L 51.342 28.174 L 52.062 32.504 C 52.225 33.478 53.074 34.188 54.062 34.174 L 56.362 34.174 C 57.349 34.188 58.199 33.478 58.362 32.504 L 59.042 28.174 L 60.192 28.174 C 60.514 28.173 60.815 28.016 61.002 27.754 C 61.19 27.494 61.242 27.159 61.142 26.854 L 59.582 22.174 Z " fill="rgb(0,0,0)"/><g clip-path="url(#_clipPath_nivRRvwsE9yzyRYFlexNqsbI62TNLs36)"><text transform="matrix(1,0,0,1,60.152,12.394)" style="font-family:'Open Sans';font-weight:400;font-size:10px;font-style:normal;font-variant-ligatures:none;fill:[Object GRGBColor];stroke:none;">18+</text></g><defs><clipPath id="_clipPath_nivRRvwsE9yzyRYFlexNqsbI62TNLs36"><rect x="0" y="0" width="20" height="13.618" transform="matrix(1,0,0,1,60.152,1.706)"/></clipPath></defs></g></g></g><g><g><g><path d=" M 19.712 68.98 C 20.993 69.42 22.112 69.7 23.712 70.19 C 23.112 78.04 15.693 74.92 19.712 68.98 Z  M 26.343 61.78 C 26.253 59.42 25.843 56.33 22.532 56.78 C 20.983 57.19 19.843 58.89 19.302 61.78 C 19.048 63.522 19.126 65.297 19.532 67.01 C 19.843 68.01 19.743 67.91 20.083 68.09 C 21.403 68.39 22.712 68.72 24.083 69.09 C 25.413 68.18 26.522 63.09 26.343 61.78 Z  M 16.142 61.6 C 16.545 59.883 16.62 58.105 16.363 56.36 C 15.823 53.42 14.682 51.72 13.132 51.36 C 9.833 50.87 9.412 53.96 9.332 56.36 C 9.142 57.68 10.262 62.76 11.613 63.72 C 12.953 63.38 14.262 63.05 15.613 62.72 C 15.932 62.49 15.813 62.55 16.142 61.6 Z  M 11.932 64.7 C 12.563 72.54 19.933 69.43 15.932 63.48 C 14.682 63.92 13.552 64.2 11.932 64.7 Z " fill="rgb(29,113,184)"/><mask id="_mask_54jBXaK6nMbca4bZ5BJju3Zjt4yIhdeX" x="-200%" y="-200%" width="400%" height="400%"><rect x="-200%" y="-200%" width="400%" height="400%" style="fill:white;"/><line x1="34.173" y1="53.22" x2="34.173" y2="62.8" fill="black" stroke="none"/></mask><line x1="34.173" y1="53.22" x2="34.173" y2="62.8" mask="url(#_mask_54jBXaK6nMbca4bZ5BJju3Zjt4yIhdeX)" vector-effect="non-scaling-stroke" stroke-width="0.5" stroke="rgb(255,255,255)" stroke-linejoin="miter" stroke-linecap="butt" stroke-miterlimit="10"/><mask id="_mask_cST3TpQrOSd9BoViHSWNiOu5gnsM7stV" x="-200%" y="-200%" width="400%" height="400%"><rect x="-200%" y="-200%" width="400%" height="400%" style="fill:white;"/><line x1="13.163" y1="43" x2="22.743" y2="43" fill="black" stroke="none"/></mask><line x1="13.163" y1="43" x2="22.743" y2="43" mask="url(#_mask_cST3TpQrOSd9BoViHSWNiOu5gnsM7stV)" vector-effect="non-scaling-stroke" stroke-width="0.5" stroke="rgb(255,255,255)" stroke-linejoin="miter" stroke-linecap="butt" stroke-miterlimit="10"/><mask id="_mask_KOE8oWtLau33skCCL1kumn9ybapTLGZa" x="-200%" y="-200%" width="400%" height="400%"><rect x="-200%" y="-200%" width="400%" height="400%" style="fill:white;"/><line x1="1.942" y1="53.22" x2="1.942" y2="62.8" fill="black" stroke="none"/></mask><line x1="1.942" y1="53.22" x2="1.942" y2="62.8" mask="url(#_mask_KOE8oWtLau33skCCL1kumn9ybapTLGZa)" vector-effect="non-scaling-stroke" stroke-width="0.5" stroke="rgb(255,255,255)" stroke-linejoin="miter" stroke-linecap="butt" stroke-miterlimit="10"/></g></g><g clip-path="url(#_clipPath_yuuSY5iGv1ZrMFhRHrXYJCVuxo7lDkOH)"><text transform="matrix(1,0,0,1,87.187,63.629)" style="font-family:'Open Sans';font-weight:400;font-size:14px;font-style:normal;fill:#000000;stroke:none;">Sputnik V &#x3E; 2da. dosis</text></g><defs><clipPath id="_clipPath_yuuSY5iGv1ZrMFhRHrXYJCVuxo7lDkOH"><rect x="0" y="0" width="175.87" height="20.67" transform="matrix(1,0,0,1,87.187,48.665)"/></clipPath></defs><g><g><circle vector-effect="non-scaling-stroke" cx="42.907500002291286" cy="46.999809896683" r="4" fill="rgb(0,0,0)"/><path d=" M 45.998 53 L 44.908 53 C 44.642 52.998 44.386 53.103 44.197 53.29 L 42.908 54.58 L 41.618 53.29 C 41.426 53.107 41.172 53.003 40.908 53 L 39.808 53 C 38.777 52.995 37.911 53.774 37.807 54.8 L 36.908 63.9 C 36.881 64.182 36.976 64.462 37.167 64.67 C 37.357 64.879 37.625 64.999 37.908 65 L 38.997 65 L 39.818 73.2 C 39.921 74.226 40.787 75.005 41.817 75 L 43.998 75 C 45.028 75.005 45.894 74.226 45.998 73.2 L 46.807 65 L 47.908 65 C 48.19 64.999 48.458 64.879 48.647 64.67 C 48.839 64.462 48.934 64.182 48.908 63.9 L 47.998 54.8 C 47.894 53.774 47.028 52.995 45.998 53 Z " fill="rgb(0,0,0)"/><circle vector-effect="non-scaling-stroke" cx="56.907500002291286" cy="46.999809896683" r="4" fill="rgb(0,0,0)"/><path d=" M 61.287 63 L 61.908 63 C 62.197 63.002 62.473 62.879 62.665 62.663 C 62.857 62.446 62.945 62.157 62.908 61.87 L 62.008 54.78 C 61.895 53.762 61.032 52.994 60.008 53 L 53.807 53 C 52.787 52.993 51.925 53.756 51.807 54.77 L 50.908 61.87 C 50.87 62.157 50.958 62.446 51.15 62.663 C 51.342 62.879 51.618 63.002 51.908 63 L 52.517 63 L 50.958 67.68 C 50.857 67.985 50.909 68.32 51.097 68.58 C 51.284 68.842 51.586 68.998 51.908 69 L 53.057 69 L 53.778 73.33 C 53.94 74.304 54.79 75.013 55.778 75 L 58.078 75 C 59.065 75.013 59.915 74.304 60.078 73.33 L 60.758 69 L 61.908 69 C 62.229 68.998 62.531 68.842 62.717 68.58 C 62.906 68.32 62.958 67.985 62.858 67.68 L 61.287 63 Z " fill="rgb(0,0,0)"/><path d=" M 46.187 73.49 L 53.578 73.49 C 53.908 73.449 54.156 73.168 54.156 72.835 C 54.156 72.502 53.908 72.221 53.578 72.18 L 51.718 72.18 L 51.718 68.85 L 53.567 68.85 C 53.898 68.809 54.146 68.528 54.146 68.195 C 54.146 67.862 53.898 67.581 53.567 67.54 L 52.637 67.54 L 52.637 54.33 L 51.708 54.33 L 50.777 51.56 L 50.508 51.56 L 50.508 45.09 C 50.467 44.759 50.186 44.511 49.852 44.511 C 49.519 44.511 49.238 44.759 49.197 45.09 L 49.197 51.55 L 48.908 51.55 L 47.998 54.32 L 47.067 54.32 L 47.067 67.52 L 46.168 67.52 C 45.809 67.52 45.517 67.811 45.517 68.17 C 45.517 68.529 45.809 68.82 46.168 68.82 L 48.017 68.82 L 48.017 72.13 L 46.178 72.13 C 46.004 72.13 45.838 72.2 45.718 72.324 C 45.597 72.449 45.532 72.617 45.538 72.79 C 45.524 72.971 45.586 73.149 45.709 73.282 C 45.833 73.415 46.006 73.49 46.187 73.49 Z  M 50.067 57.14 C 50.077 56.967 50.148 56.804 50.267 56.68 C 50.391 56.559 50.555 56.487 50.727 56.48 L 51.968 56.48 L 51.968 57.77 L 50.727 57.77 C 50.367 57.77 50.073 57.48 50.067 57.12 L 50.067 57.14 Z  M 50.067 59.82 C 50.067 59.461 50.359 59.17 50.718 59.17 L 51.958 59.17 L 51.958 60.46 L 50.737 60.46 C 50.564 60.465 50.396 60.4 50.272 60.28 C 50.148 60.159 50.077 59.993 50.078 59.82 L 50.067 59.82 Z  M 50.067 62.5 C 50.067 62.141 50.359 61.85 50.718 61.85 L 51.958 61.85 L 51.958 63.14 L 50.748 63.14 C 50.387 63.14 50.093 62.85 50.088 62.49 L 50.067 62.5 Z  M 50.067 65.18 C 50.062 64.83 50.338 64.541 50.687 64.53 L 51.947 64.53 L 51.947 65.82 L 50.758 65.82 C 50.402 65.82 50.113 65.535 50.107 65.18 L 50.067 65.18 Z " fill="rgb(0,0,0)" vector-effect="non-scaling-stroke" stroke-width="2" stroke="rgb(255,255,255)" stroke-linejoin="miter" stroke-linecap="butt" stroke-miterlimit="10"/><path d=" M 46.187 73.49 L 53.578 73.49 C 53.908 73.449 54.156 73.168 54.156 72.835 C 54.156 72.502 53.908 72.221 53.578 72.18 L 51.718 72.18 L 51.718 68.85 L 53.567 68.85 C 53.898 68.809 54.146 68.528 54.146 68.195 C 54.146 67.862 53.898 67.581 53.567 67.54 L 52.637 67.54 L 52.637 54.33 L 51.708 54.33 L 50.777 51.56 L 50.508 51.56 L 50.508 45.09 C 50.467 44.759 50.186 44.511 49.852 44.511 C 49.519 44.511 49.238 44.759 49.197 45.09 L 49.197 51.55 L 48.908 51.55 L 47.998 54.32 L 47.067 54.32 L 47.067 67.52 L 46.168 67.52 C 45.809 67.52 45.517 67.811 45.517 68.17 C 45.517 68.529 45.809 68.82 46.168 68.82 L 48.017 68.82 L 48.017 72.13 L 46.178 72.13 C 46.004 72.13 45.838 72.2 45.718 72.324 C 45.597 72.449 45.532 72.617 45.538 72.79 C 45.524 72.971 45.586 73.149 45.709 73.282 C 45.833 73.415 46.006 73.49 46.187 73.49 Z  M 50.067 57.14 C 50.077 56.967 50.148 56.804 50.267 56.68 C 50.391 56.559 50.555 56.487 50.727 56.48 L 51.968 56.48 L 51.968 57.77 L 50.727 57.77 C 50.367 57.77 50.073 57.48 50.067 57.12 L 50.067 57.14 Z  M 50.067 59.82 C 50.067 59.461 50.359 59.17 50.718 59.17 L 51.958 59.17 L 51.958 60.46 L 50.737 60.46 C 50.564 60.465 50.396 60.4 50.272 60.28 C 50.148 60.159 50.077 59.993 50.078 59.82 L 50.067 59.82 Z  M 50.067 62.5 C 50.067 62.141 50.359 61.85 50.718 61.85 L 51.958 61.85 L 51.958 63.14 L 50.748 63.14 C 50.387 63.14 50.093 62.85 50.088 62.49 L 50.067 62.5 Z  M 50.067 65.18 C 50.062 64.83 50.338 64.541 50.687 64.53 L 51.947 64.53 L 51.947 65.82 L 50.758 65.82 C 50.402 65.82 50.113 65.535 50.107 65.18 L 50.067 65.18 Z " fill="rgb(0,0,0)"/><g clip-path="url(#_clipPath_ZNb85JmHcEMUczpxusbYndyQRPz15N2E)"><text transform="matrix(1,0,0,1,39.908,61.84)" style="font-family:'Open Sans';font-weight:400;font-size:10px;font-style:normal;font-variant-ligatures:none;fill:[Object GRGBColor];stroke:none;">1</text></g><defs><clipPath id="_clipPath_ZNb85JmHcEMUczpxusbYndyQRPz15N2E"><rect x="0" y="0" width="8" height="13.618" transform="matrix(1,0,0,1,39.908,51.151)"/></clipPath></defs><g clip-path="url(#_clipPath_1cpAGPJLEGWxanJlfWigujrKleP6eVB2)"><text transform="matrix(1,0,0,1,54.618,62.5)" style="font-family:'Open Sans';font-weight:400;font-size:10px;font-style:normal;font-variant-ligatures:none;fill:[Object GRGBColor];stroke:none;">D</text></g><defs><clipPath id="_clipPath_1cpAGPJLEGWxanJlfWigujrKleP6eVB2"><rect x="0" y="0" width="10" height="13.618" transform="matrix(1,0,0,1,54.618,51.811)"/></clipPath></defs><mask id="_mask_dtSlwQegond4d4mfSYA3QtsTh74EXRXX" x="-200%" y="-200%" width="400%" height="400%"><rect x="-200%" y="-200%" width="400%" height="400%" style="fill:white;"/><line x1="76.908" y1="56.48" x2="76.908" y2="66.06" fill="black" stroke="none"/></mask><line x1="76.908" y1="56.48" x2="76.908" y2="66.06" mask="url(#_mask_dtSlwQegond4d4mfSYA3QtsTh74EXRXX)" vector-effect="non-scaling-stroke" stroke-width="0.5" stroke="rgb(255,255,255)" stroke-linejoin="miter" stroke-linecap="butt" stroke-miterlimit="10"/></g></g></g><g><g clip-path="url(#_clipPath_Q0zY2Ga6Xu5B5P9pvuHZ1Zn3jzI43PI3)"><text transform="matrix(1,0,0,1,87.187,104.629)" style="font-family:'Open Sans';font-weight:400;font-size:14px;font-style:normal;fill:#000000;stroke:none;">AstraZeneca &#x3E; 2da. dosis</text></g><defs><clipPath id="_clipPath_Q0zY2Ga6Xu5B5P9pvuHZ1Zn3jzI43PI3"><rect x="0" y="0" width="175.87" height="20.67" transform="matrix(1,0,0,1,87.187,89.665)"/></clipPath></defs><g><g><path d=" M 19.712 109.98 C 20.993 110.42 22.112 110.7 23.712 111.19 C 23.112 119.04 15.693 115.92 19.712 109.98 Z  M 26.343 102.78 C 26.253 100.42 25.843 97.33 22.532 97.78 C 20.983 98.19 19.843 99.89 19.302 102.78 C 19.048 104.522 19.126 106.297 19.532 108.01 C 19.843 109.01 19.743 108.91 20.083 109.09 C 21.403 109.39 22.712 109.72 24.083 110.09 C 25.413 109.18 26.522 104.09 26.343 102.78 Z  M 16.142 102.6 C 16.545 100.883 16.62 99.105 16.363 97.36 C 15.823 94.42 14.682 92.72 13.132 92.36 C 9.833 91.87 9.412 94.96 9.332 97.36 C 9.142 98.68 10.262 103.76 11.613 104.72 C 12.953 104.38 14.262 104.05 15.613 103.72 C 15.932 103.49 15.813 103.55 16.142 102.6 Z  M 11.932 105.7 C 12.563 113.54 19.933 110.43 15.932 104.48 C 14.682 104.92 13.552 105.2 11.932 105.7 Z " fill="rgb(29,113,184)"/><mask id="_mask_xQ5uAbm1dmaS6YcgQqw5V2ZrnoH41gW3" x="-200%" y="-200%" width="400%" height="400%"><rect x="-200%" y="-200%" width="400%" height="400%" style="fill:white;"/><line x1="34.173" y1="94.22" x2="34.173" y2="103.8" fill="black" stroke="none"/></mask><line x1="34.173" y1="94.22" x2="34.173" y2="103.8" mask="url(#_mask_xQ5uAbm1dmaS6YcgQqw5V2ZrnoH41gW3)" vector-effect="non-scaling-stroke" stroke-width="0.5" stroke="rgb(255,255,255)" stroke-linejoin="miter" stroke-linecap="butt" stroke-miterlimit="10"/><mask id="_mask_f551JoaFJU6YNOwKWbAWfAp9Atq47VoV" x="-200%" y="-200%" width="400%" height="400%"><rect x="-200%" y="-200%" width="400%" height="400%" style="fill:white;"/><line x1="13.163" y1="84" x2="22.743" y2="84" fill="black" stroke="none"/></mask><line x1="13.163" y1="84" x2="22.743" y2="84" mask="url(#_mask_f551JoaFJU6YNOwKWbAWfAp9Atq47VoV)" vector-effect="non-scaling-stroke" stroke-width="0.5" stroke="rgb(255,255,255)" stroke-linejoin="miter" stroke-linecap="butt" stroke-miterlimit="10"/><mask id="_mask_LLr17W5IyvQyRbuPbU7y7Q2tkrHMKYKk" x="-200%" y="-200%" width="400%" height="400%"><rect x="-200%" y="-200%" width="400%" height="400%" style="fill:white;"/><line x1="1.942" y1="94.22" x2="1.942" y2="103.8" fill="black" stroke="none"/></mask><line x1="1.942" y1="94.22" x2="1.942" y2="103.8" mask="url(#_mask_LLr17W5IyvQyRbuPbU7y7Q2tkrHMKYKk)" vector-effect="non-scaling-stroke" stroke-width="0.5" stroke="rgb(255,255,255)" stroke-linejoin="miter" stroke-linecap="butt" stroke-miterlimit="10"/></g></g><g><g><circle vector-effect="non-scaling-stroke" cx="42.907500002291286" cy="87.99980989668299" r="4" fill="rgb(0,0,0)"/><path d=" M 45.998 94 L 44.908 94 C 44.642 93.998 44.386 94.103 44.197 94.29 L 42.908 95.58 L 41.618 94.29 C 41.426 94.107 41.172 94.003 40.908 94 L 39.808 94 C 38.777 93.995 37.911 94.774 37.807 95.8 L 36.908 104.9 C 36.881 105.182 36.976 105.462 37.167 105.67 C 37.357 105.879 37.625 105.999 37.908 106 L 38.997 106 L 39.818 114.2 C 39.921 115.226 40.787 116.005 41.817 116 L 43.998 116 C 45.028 116.005 45.894 115.226 45.998 114.2 L 46.807 106 L 47.908 106 C 48.19 105.999 48.458 105.879 48.647 105.67 C 48.839 105.462 48.934 105.182 48.908 104.9 L 47.998 95.8 C 47.894 94.774 47.028 93.995 45.998 94 Z " fill="rgb(0,0,0)"/><circle vector-effect="non-scaling-stroke" cx="56.907500002291286" cy="87.99980989668299" r="4" fill="rgb(0,0,0)"/><path d=" M 61.287 104 L 61.908 104 C 62.197 104.002 62.473 103.879 62.665 103.663 C 62.857 103.446 62.945 103.157 62.908 102.87 L 62.008 95.78 C 61.895 94.762 61.032 93.994 60.008 94 L 53.807 94 C 52.787 93.993 51.925 94.756 51.807 95.77 L 50.908 102.87 C 50.87 103.157 50.958 103.446 51.15 103.663 C 51.342 103.879 51.618 104.002 51.908 104 L 52.517 104 L 50.958 108.68 C 50.857 108.985 50.909 109.32 51.097 109.58 C 51.284 109.842 51.586 109.998 51.908 110 L 53.057 110 L 53.778 114.33 C 53.94 115.304 54.79 116.013 55.778 116 L 58.078 116 C 59.065 116.013 59.915 115.304 60.078 114.33 L 60.758 110 L 61.908 110 C 62.229 109.998 62.531 109.842 62.717 109.58 C 62.906 109.32 62.958 108.985 62.858 108.68 L 61.287 104 Z " fill="rgb(0,0,0)"/><path d=" M 46.187 114.49 L 53.578 114.49 C 53.908 114.449 54.156 114.168 54.156 113.835 C 54.156 113.502 53.908 113.221 53.578 113.18 L 51.718 113.18 L 51.718 109.85 L 53.567 109.85 C 53.898 109.809 54.146 109.528 54.146 109.195 C 54.146 108.862 53.898 108.581 53.567 108.54 L 52.637 108.54 L 52.637 95.33 L 51.708 95.33 L 50.777 92.56 L 50.508 92.56 L 50.508 86.09 C 50.467 85.759 50.186 85.511 49.852 85.511 C 49.519 85.511 49.238 85.759 49.197 86.09 L 49.197 92.55 L 48.908 92.55 L 47.998 95.32 L 47.067 95.32 L 47.067 108.52 L 46.168 108.52 C 45.809 108.52 45.517 108.811 45.517 109.17 C 45.517 109.529 45.809 109.82 46.168 109.82 L 48.017 109.82 L 48.017 113.13 L 46.178 113.13 C 46.004 113.13 45.838 113.2 45.718 113.324 C 45.597 113.449 45.532 113.617 45.538 113.79 C 45.524 113.971 45.586 114.149 45.709 114.282 C 45.833 114.415 46.006 114.49 46.187 114.49 Z  M 50.067 98.14 C 50.077 97.967 50.148 97.804 50.267 97.68 C 50.391 97.559 50.555 97.487 50.727 97.48 L 51.968 97.48 L 51.968 98.77 L 50.727 98.77 C 50.367 98.77 50.073 98.48 50.067 98.12 L 50.067 98.14 Z  M 50.067 100.82 C 50.067 100.461 50.359 100.17 50.718 100.17 L 51.958 100.17 L 51.958 101.46 L 50.737 101.46 C 50.564 101.465 50.396 101.4 50.272 101.28 C 50.148 101.159 50.077 100.993 50.078 100.82 L 50.067 100.82 Z  M 50.067 103.5 C 50.067 103.141 50.359 102.85 50.718 102.85 L 51.958 102.85 L 51.958 104.14 L 50.748 104.14 C 50.387 104.14 50.093 103.85 50.088 103.49 L 50.067 103.5 Z  M 50.067 106.18 C 50.062 105.83 50.338 105.541 50.687 105.53 L 51.947 105.53 L 51.947 106.82 L 50.758 106.82 C 50.402 106.82 50.113 106.535 50.107 106.18 L 50.067 106.18 Z " fill="rgb(0,0,0)" vector-effect="non-scaling-stroke" stroke-width="2" stroke="rgb(255,255,255)" stroke-linejoin="miter" stroke-linecap="butt" stroke-miterlimit="10"/><path d=" M 46.187 114.49 L 53.578 114.49 C 53.908 114.449 54.156 114.168 54.156 113.835 C 54.156 113.502 53.908 113.221 53.578 113.18 L 51.718 113.18 L 51.718 109.85 L 53.567 109.85 C 53.898 109.809 54.146 109.528 54.146 109.195 C 54.146 108.862 53.898 108.581 53.567 108.54 L 52.637 108.54 L 52.637 95.33 L 51.708 95.33 L 50.777 92.56 L 50.508 92.56 L 50.508 86.09 C 50.467 85.759 50.186 85.511 49.852 85.511 C 49.519 85.511 49.238 85.759 49.197 86.09 L 49.197 92.55 L 48.908 92.55 L 47.998 95.32 L 47.067 95.32 L 47.067 108.52 L 46.168 108.52 C 45.809 108.52 45.517 108.811 45.517 109.17 C 45.517 109.529 45.809 109.82 46.168 109.82 L 48.017 109.82 L 48.017 113.13 L 46.178 113.13 C 46.004 113.13 45.838 113.2 45.718 113.324 C 45.597 113.449 45.532 113.617 45.538 113.79 C 45.524 113.971 45.586 114.149 45.709 114.282 C 45.833 114.415 46.006 114.49 46.187 114.49 Z  M 50.067 98.14 C 50.077 97.967 50.148 97.804 50.267 97.68 C 50.391 97.559 50.555 97.487 50.727 97.48 L 51.968 97.48 L 51.968 98.77 L 50.727 98.77 C 50.367 98.77 50.073 98.48 50.067 98.12 L 50.067 98.14 Z  M 50.067 100.82 C 50.067 100.461 50.359 100.17 50.718 100.17 L 51.958 100.17 L 51.958 101.46 L 50.737 101.46 C 50.564 101.465 50.396 101.4 50.272 101.28 C 50.148 101.159 50.077 100.993 50.078 100.82 L 50.067 100.82 Z  M 50.067 103.5 C 50.067 103.141 50.359 102.85 50.718 102.85 L 51.958 102.85 L 51.958 104.14 L 50.748 104.14 C 50.387 104.14 50.093 103.85 50.088 103.49 L 50.067 103.5 Z  M 50.067 106.18 C 50.062 105.83 50.338 105.541 50.687 105.53 L 51.947 105.53 L 51.947 106.82 L 50.758 106.82 C 50.402 106.82 50.113 106.535 50.107 106.18 L 50.067 106.18 Z " fill="rgb(0,0,0)"/><g clip-path="url(#_clipPath_OutPT2jgeStpacKD6ngI6DJmMqw7QHko)"><text transform="matrix(1,0,0,1,39.908,102.84)" style="font-family:'Open Sans';font-weight:400;font-size:10px;font-style:normal;font-variant-ligatures:none;fill:[Object GRGBColor];stroke:none;">1</text></g><defs><clipPath id="_clipPath_OutPT2jgeStpacKD6ngI6DJmMqw7QHko"><rect x="0" y="0" width="8" height="13.618" transform="matrix(1,0,0,1,39.908,92.151)"/></clipPath></defs><g clip-path="url(#_clipPath_4Vo5XKcSunQ9jLNZ2vPWNGC4JXR2cTV5)"><text transform="matrix(1,0,0,1,54.618,103.5)" style="font-family:'Open Sans';font-weight:400;font-size:10px;font-style:normal;font-variant-ligatures:none;fill:[Object GRGBColor];stroke:none;">D</text></g><defs><clipPath id="_clipPath_4Vo5XKcSunQ9jLNZ2vPWNGC4JXR2cTV5"><rect x="0" y="0" width="10" height="13.618" transform="matrix(1,0,0,1,54.618,92.811)"/></clipPath></defs><mask id="_mask_Ykci79TfqJdKSnwiiymgEZWWb0DOuNde" x="-200%" y="-200%" width="400%" height="400%"><rect x="-200%" y="-200%" width="400%" height="400%" style="fill:white;"/><line x1="76.908" y1="97.48" x2="76.908" y2="107.06" fill="black" stroke="none"/></mask><line x1="76.908" y1="97.48" x2="76.908" y2="107.06" mask="url(#_mask_Ykci79TfqJdKSnwiiymgEZWWb0DOuNde)" vector-effect="non-scaling-stroke" stroke-width="0.5" stroke="rgb(255,255,255)" stroke-linejoin="miter" stroke-linecap="butt" stroke-miterlimit="10"/></g></g></g></g></svg>