<?xml version="1.0" encoding="UTF-8" standalone="no"?><!-- Generator: Gravit.io --><svg xmlns="http://www.w3.org/2000/svg" xmlns:xlink="http://www.w3.org/1999/xlink" style="isolation:isolate" viewBox="0 0 265 80" width="265pt" height="80pt"><defs><clipPath id="_clipPath_gfL4tJda7gn6ZRqWQFd6nptdkNW8TjuC"><rect width="265" height="80"/></clipPath></defs><g clip-path="url(#_clipPath_gfL4tJda7gn6ZRqWQFd6nptdkNW8TjuC)"><g clip-path="url(#_clipPath_yqDEQsQFMrlZD95GM8kbyYm6mcqJJr1A)"><text transform="matrix(1,0,0,1,91.13,23.679)" style="font-family:'Open Sans';font-weight:400;font-size:14px;font-style:normal;fill:#000000;stroke:none;">Sputnik V &#x3E; 1ra. dosis</text></g><defs><clipPath id="_clipPath_yqDEQsQFMrlZD95GM8kbyYm6mcqJJr1A"><rect x="0" y="0" width="175.87" height="20.67" transform="matrix(1,0,0,1,91.13,8.715)"/></clipPath></defs><g><g><circle vector-effect="non-scaling-stroke" cx="45.84999999999998" cy="7.719810411148515" r="4" fill="rgb(0,0,0)"/><path d=" M 48.94 13.72 L 47.85 13.72 C 47.584 13.718 47.329 13.823 47.14 14.01 L 45.85 15.3 L 44.56 14.01 C 44.368 13.827 44.115 13.723 43.85 13.72 L 42.75 13.72 C 41.719 13.715 40.853 14.494 40.75 15.52 L 39.85 24.62 C 39.824 24.902 39.918 25.182 40.11 25.39 C 40.299 25.599 40.568 25.719 40.85 25.72 L 41.94 25.72 L 42.76 33.92 C 42.863 34.946 43.729 35.725 44.76 35.72 L 46.94 35.72 C 47.971 35.725 48.837 34.946 48.94 33.92 L 49.75 25.72 L 50.85 25.72 C 51.132 25.719 51.401 25.599 51.59 25.39 C 51.782 25.182 51.876 24.902 51.85 24.62 L 50.94 15.52 C 50.837 14.494 49.971 13.715 48.94 13.72 Z " fill="rgb(0,0,0)"/><circle vector-effect="non-scaling-stroke" cx="57.84999999999998" cy="7.719810411148515" r="4" fill="rgb(0,0,0)"/><path d=" M 62.24 23.72 L 62.85 23.72 C 63.139 23.722 63.416 23.599 63.607 23.383 C 63.799 23.166 63.888 22.877 63.85 22.59 L 62.95 15.5 C 62.837 14.482 61.974 13.714 60.95 13.72 L 54.75 13.72 C 53.729 13.713 52.867 14.476 52.75 15.49 L 51.85 22.59 C 51.812 22.877 51.901 23.166 52.093 23.383 C 52.284 23.599 52.561 23.722 52.85 23.72 L 53.46 23.72 L 51.9 28.4 C 51.799 28.705 51.851 29.04 52.04 29.3 C 52.227 29.562 52.528 29.718 52.85 29.72 L 54 29.72 L 54.72 34.05 C 54.883 35.024 55.732 35.733 56.72 35.72 L 59.02 35.72 C 60.008 35.733 60.857 35.024 61.02 34.05 L 61.7 29.72 L 62.85 29.72 C 63.172 29.718 63.473 29.562 63.66 29.3 C 63.849 29.04 63.901 28.705 63.8 28.4 L 62.24 23.72 Z " fill="rgb(0,0,0)"/><g clip-path="url(#_clipPath_YhcaYQWWOwCBKfDzhIwEdZ2AWF7kdD5z)"><text transform="matrix(1,0,0,1,62.81,13.94)" style="font-family:'Open Sans';font-weight:400;font-size:10px;font-style:normal;font-variant-ligatures:none;fill:[Object GRGBColor];stroke:none;">18+</text></g><defs><clipPath id="_clipPath_YhcaYQWWOwCBKfDzhIwEdZ2AWF7kdD5z"><rect x="0" y="0" width="20" height="13.618" transform="matrix(1,0,0,1,62.81,3.251)"/></clipPath></defs></g></g><g clip-path="url(#_clipPath_OzS8xZj9LdP5CuYhE7Ne52YGGSnRFuxp)"><text transform="matrix(1,0,0,1,91.13,65.739)" style="font-family:'Open Sans';font-weight:400;font-size:14px;font-style:normal;fill:#000000;stroke:none;">Sputnik V &#x3E; 2da. dosis</text></g><defs><clipPath id="_clipPath_OzS8xZj9LdP5CuYhE7Ne52YGGSnRFuxp"><rect x="0" y="0" width="175.87" height="20.67" transform="matrix(1,0,0,1,91.13,50.775)"/></clipPath></defs><g><g><circle vector-effect="non-scaling-stroke" cx="46.849999999907084" cy="49.109799607498005" r="4" fill="rgb(0,0,0)"/><path d=" M 49.94 55.11 L 48.85 55.11 C 48.584 55.108 48.329 55.213 48.14 55.4 L 46.85 56.69 L 45.56 55.4 C 45.368 55.217 45.115 55.113 44.85 55.11 L 43.75 55.11 C 42.719 55.105 41.853 55.884 41.75 56.91 L 40.85 66.01 C 40.824 66.292 40.918 66.572 41.11 66.78 C 41.299 66.989 41.568 67.109 41.85 67.11 L 42.94 67.11 L 43.76 75.31 C 43.863 76.336 44.729 77.115 45.76 77.11 L 47.94 77.11 C 48.971 77.115 49.837 76.336 49.94 75.31 L 50.75 67.11 L 51.85 67.11 C 52.132 67.109 52.401 66.989 52.59 66.78 C 52.782 66.572 52.876 66.292 52.85 66.01 L 51.94 56.91 C 51.837 55.884 50.971 55.105 49.94 55.11 Z " fill="rgb(0,0,0)"/><circle vector-effect="non-scaling-stroke" cx="60.849999999907084" cy="49.109799607498005" r="4" fill="rgb(0,0,0)"/><path d=" M 65.23 65.11 L 65.85 65.11 C 66.139 65.112 66.416 64.989 66.607 64.773 C 66.799 64.556 66.888 64.267 66.85 63.98 L 65.95 56.89 C 65.837 55.872 64.974 55.104 63.95 55.11 L 57.75 55.11 C 56.729 55.103 55.867 55.866 55.75 56.88 L 54.85 63.98 C 54.812 64.267 54.901 64.556 55.093 64.773 C 55.284 64.989 55.561 65.112 55.85 65.11 L 56.46 65.11 L 54.9 69.79 C 54.799 70.095 54.851 70.43 55.04 70.69 C 55.227 70.952 55.528 71.108 55.85 71.11 L 57 71.11 L 57.72 75.44 C 57.883 76.414 58.732 77.123 59.72 77.11 L 62.02 77.11 C 63.008 77.123 63.857 76.414 64.02 75.44 L 64.7 71.11 L 65.85 71.11 C 66.172 71.108 66.473 70.952 66.66 70.69 C 66.849 70.43 66.901 70.095 66.8 69.79 L 65.23 65.11 Z " fill="rgb(0,0,0)"/><path d=" M 50.13 75.6 L 57.52 75.6 C 57.851 75.559 58.099 75.278 58.099 74.945 C 58.099 74.612 57.851 74.331 57.52 74.29 L 55.66 74.29 L 55.66 70.96 L 57.51 70.96 C 57.841 70.919 58.089 70.638 58.089 70.305 C 58.089 69.972 57.841 69.691 57.51 69.65 L 56.58 69.65 L 56.58 56.44 L 55.65 56.44 L 54.72 53.67 L 54.45 53.67 L 54.45 47.2 C 54.409 46.869 54.128 46.621 53.795 46.621 C 53.462 46.621 53.181 46.869 53.14 47.2 L 53.14 53.66 L 52.85 53.66 L 51.94 56.43 L 51.01 56.43 L 51.01 69.63 L 50.11 69.63 C 49.751 69.63 49.46 69.921 49.46 70.28 C 49.46 70.639 49.751 70.93 50.11 70.93 L 51.96 70.93 L 51.96 74.24 L 50.12 74.24 C 49.947 74.24 49.781 74.31 49.66 74.434 C 49.54 74.559 49.475 74.727 49.48 74.9 C 49.466 75.081 49.528 75.259 49.652 75.392 C 49.775 75.525 49.949 75.6 50.13 75.6 Z  M 54.01 59.25 C 54.019 59.077 54.09 58.914 54.21 58.79 C 54.333 58.669 54.497 58.597 54.67 58.59 L 55.91 58.59 L 55.91 59.88 L 54.67 59.88 C 54.309 59.88 54.015 59.59 54.01 59.23 L 54.01 59.25 Z  M 54.01 61.93 C 54.01 61.571 54.301 61.28 54.66 61.28 L 55.9 61.28 L 55.9 62.57 L 54.68 62.57 C 54.507 62.575 54.339 62.51 54.214 62.39 C 54.09 62.269 54.02 62.103 54.02 61.93 L 54.01 61.93 Z  M 54.01 64.61 C 54.01 64.251 54.301 63.96 54.66 63.96 L 55.9 63.96 L 55.9 65.25 L 54.69 65.25 C 54.329 65.25 54.035 64.96 54.03 64.6 L 54.01 64.61 Z  M 54.01 67.29 C 54.004 66.94 54.28 66.651 54.63 66.64 L 55.89 66.64 L 55.89 67.93 L 54.7 67.93 C 54.345 67.93 54.055 67.645 54.05 67.29 L 54.01 67.29 Z " fill="rgb(0,0,0)" vector-effect="non-scaling-stroke" stroke-width="2" stroke="rgb(255,255,255)" stroke-linejoin="miter" stroke-linecap="butt" stroke-miterlimit="10"/><path d=" M 50.13 75.6 L 57.52 75.6 C 57.851 75.559 58.099 75.278 58.099 74.945 C 58.099 74.612 57.851 74.331 57.52 74.29 L 55.66 74.29 L 55.66 70.96 L 57.51 70.96 C 57.841 70.919 58.089 70.638 58.089 70.305 C 58.089 69.972 57.841 69.691 57.51 69.65 L 56.58 69.65 L 56.58 56.44 L 55.65 56.44 L 54.72 53.67 L 54.45 53.67 L 54.45 47.2 C 54.409 46.869 54.128 46.621 53.795 46.621 C 53.462 46.621 53.181 46.869 53.14 47.2 L 53.14 53.66 L 52.85 53.66 L 51.94 56.43 L 51.01 56.43 L 51.01 69.63 L 50.11 69.63 C 49.751 69.63 49.46 69.921 49.46 70.28 C 49.46 70.639 49.751 70.93 50.11 70.93 L 51.96 70.93 L 51.96 74.24 L 50.12 74.24 C 49.947 74.24 49.781 74.31 49.66 74.434 C 49.54 74.559 49.475 74.727 49.48 74.9 C 49.466 75.081 49.528 75.259 49.652 75.392 C 49.775 75.525 49.949 75.6 50.13 75.6 Z  M 54.01 59.25 C 54.019 59.077 54.09 58.914 54.21 58.79 C 54.333 58.669 54.497 58.597 54.67 58.59 L 55.91 58.59 L 55.91 59.88 L 54.67 59.88 C 54.309 59.88 54.015 59.59 54.01 59.23 L 54.01 59.25 Z  M 54.01 61.93 C 54.01 61.571 54.301 61.28 54.66 61.28 L 55.9 61.28 L 55.9 62.57 L 54.68 62.57 C 54.507 62.575 54.339 62.51 54.214 62.39 C 54.09 62.269 54.02 62.103 54.02 61.93 L 54.01 61.93 Z  M 54.01 64.61 C 54.01 64.251 54.301 63.96 54.66 63.96 L 55.9 63.96 L 55.9 65.25 L 54.69 65.25 C 54.329 65.25 54.035 64.96 54.03 64.6 L 54.01 64.61 Z  M 54.01 67.29 C 54.004 66.94 54.28 66.651 54.63 66.64 L 55.89 66.64 L 55.89 67.93 L 54.7 67.93 C 54.345 67.93 54.055 67.645 54.05 67.29 L 54.01 67.29 Z " fill="rgb(0,0,0)"/><g clip-path="url(#_clipPath_nbveYgRDNcat1aNt1tw9NEhMP9mkWBi3)"><text transform="matrix(1,0,0,1,43.85,63.95)" style="font-family:'Open Sans';font-weight:400;font-size:10px;font-style:normal;font-variant-ligatures:none;fill:[Object GRGBColor];stroke:none;">1</text></g><defs><clipPath id="_clipPath_nbveYgRDNcat1aNt1tw9NEhMP9mkWBi3"><rect x="0" y="0" width="8" height="13.618" transform="matrix(1,0,0,1,43.85,53.261)"/></clipPath></defs><g clip-path="url(#_clipPath_4mFt1CXar9yEorv45zFHC8zBJkjxzUwG)"><text transform="matrix(1,0,0,1,58.56,64.61)" style="font-family:'Open Sans';font-weight:400;font-size:10px;font-style:normal;font-variant-ligatures:none;fill:[Object GRGBColor];stroke:none;">D</text></g><defs><clipPath id="_clipPath_4mFt1CXar9yEorv45zFHC8zBJkjxzUwG"><rect x="0" y="0" width="10" height="13.618" transform="matrix(1,0,0,1,58.56,53.921)"/></clipPath></defs><mask id="_mask_0TI8vZk6f8fWS8EKM4WyRHmPZ9jP2HOp" x="-200%" y="-200%" width="400%" height="400%"><rect x="-200%" y="-200%" width="400%" height="400%" style="fill:white;"/><line x1="80.85" y1="58.59" x2="80.85" y2="68.17" fill="black" stroke="none"/></mask><line x1="80.85" y1="58.59" x2="80.85" y2="68.17" mask="url(#_mask_0TI8vZk6f8fWS8EKM4WyRHmPZ9jP2HOp)" vector-effect="non-scaling-stroke" stroke-width="0.5" stroke="rgb(255,255,255)" stroke-linejoin="miter" stroke-linecap="butt" stroke-miterlimit="10"/></g></g><g><g><path d=" M 20.155 30.04 C 21.435 30.48 22.555 30.76 24.155 31.25 C 23.555 39.1 16.135 35.98 20.155 30.04 Z  M 26.785 22.84 C 26.695 20.48 26.285 17.39 22.975 17.84 C 21.425 18.25 20.285 19.95 19.745 22.84 C 19.49 24.582 19.568 26.357 19.975 28.07 C 20.285 29.07 20.185 28.97 20.525 29.15 C 21.845 29.45 23.155 29.78 24.525 30.15 C 25.855 29.24 26.965 24.15 26.785 22.84 Z  M 16.585 22.66 C 16.988 20.943 17.062 19.165 16.805 17.42 C 16.265 14.48 15.125 12.78 13.575 12.42 C 10.275 11.93 9.855 15.02 9.775 17.42 C 9.585 18.74 10.705 23.82 12.055 24.78 C 13.395 24.44 14.705 24.11 16.055 23.78 C 16.375 23.55 16.255 23.61 16.585 22.66 Z  M 12.375 25.76 C 13.005 33.6 20.375 30.49 16.375 24.54 C 15.125 24.98 13.995 25.26 12.375 25.76 Z " fill="rgb(29,113,184)"/><mask id="_mask_1Hrtw2rcYKp2FYtlwjs2MIjTNiHJPQLs" x="-200%" y="-200%" width="400%" height="400%"><rect x="-200%" y="-200%" width="400%" height="400%" style="fill:white;"/><line x1="34.615" y1="14.28" x2="34.615" y2="23.86" fill="black" stroke="none"/></mask><line x1="34.615" y1="14.28" x2="34.615" y2="23.86" mask="url(#_mask_1Hrtw2rcYKp2FYtlwjs2MIjTNiHJPQLs)" vector-effect="non-scaling-stroke" stroke-width="0.5" stroke="rgb(255,255,255)" stroke-linejoin="miter" stroke-linecap="butt" stroke-miterlimit="10"/><mask id="_mask_hTwHt0tqwuC50wKkwZgSkfqNYMNNTShi" x="-200%" y="-200%" width="400%" height="400%"><rect x="-200%" y="-200%" width="400%" height="400%" style="fill:white;"/><line x1="13.605" y1="4.06" x2="23.185" y2="4.06" fill="black" stroke="none"/></mask><line x1="13.605" y1="4.06" x2="23.185" y2="4.06" mask="url(#_mask_hTwHt0tqwuC50wKkwZgSkfqNYMNNTShi)" vector-effect="non-scaling-stroke" stroke-width="0.5" stroke="rgb(255,255,255)" stroke-linejoin="miter" stroke-linecap="butt" stroke-miterlimit="10"/><mask id="_mask_NU6SxqcsnZJ89ZFZHOrncyHwh0UErSgC" x="-200%" y="-200%" width="400%" height="400%"><rect x="-200%" y="-200%" width="400%" height="400%" style="fill:white;"/><line x1="2.385" y1="14.28" x2="2.385" y2="23.86" fill="black" stroke="none"/></mask><line x1="2.385" y1="14.28" x2="2.385" y2="23.86" mask="url(#_mask_NU6SxqcsnZJ89ZFZHOrncyHwh0UErSgC)" vector-effect="non-scaling-stroke" stroke-width="0.5" stroke="rgb(255,255,255)" stroke-linejoin="miter" stroke-linecap="butt" stroke-miterlimit="10"/></g></g><g><g><path d=" M 20.155 70.04 C 21.435 70.48 22.555 70.76 24.155 71.25 C 23.555 79.1 16.135 75.98 20.155 70.04 Z  M 26.785 62.84 C 26.695 60.48 26.285 57.39 22.975 57.84 C 21.425 58.25 20.285 59.95 19.745 62.84 C 19.49 64.582 19.568 66.357 19.975 68.07 C 20.285 69.07 20.185 68.97 20.525 69.15 C 21.845 69.45 23.155 69.78 24.525 70.15 C 25.855 69.24 26.965 64.15 26.785 62.84 Z  M 16.585 62.66 C 16.988 60.943 17.062 59.165 16.805 57.42 C 16.265 54.48 15.125 52.78 13.575 52.42 C 10.275 51.93 9.855 55.02 9.775 57.42 C 9.585 58.74 10.705 63.82 12.055 64.78 C 13.395 64.44 14.705 64.11 16.055 63.78 C 16.375 63.55 16.255 63.61 16.585 62.66 Z  M 12.375 65.76 C 13.005 73.6 20.375 70.49 16.375 64.54 C 15.125 64.98 13.995 65.26 12.375 65.76 Z " fill="rgb(29,113,184)"/><mask id="_mask_pUUkCgDN1EmjIV0q8vVUGrMWCMNhdoZ0" x="-200%" y="-200%" width="400%" height="400%"><rect x="-200%" y="-200%" width="400%" height="400%" style="fill:white;"/><line x1="34.615" y1="54.28" x2="34.615" y2="63.86" fill="black" stroke="none"/></mask><line x1="34.615" y1="54.28" x2="34.615" y2="63.86" mask="url(#_mask_pUUkCgDN1EmjIV0q8vVUGrMWCMNhdoZ0)" vector-effect="non-scaling-stroke" stroke-width="0.5" stroke="rgb(255,255,255)" stroke-linejoin="miter" stroke-linecap="butt" stroke-miterlimit="10"/><mask id="_mask_FBgBdgGU7TdNka3nia8CXytrIua9WbZw" x="-200%" y="-200%" width="400%" height="400%"><rect x="-200%" y="-200%" width="400%" height="400%" style="fill:white;"/><line x1="13.605" y1="44.06" x2="23.185" y2="44.06" fill="black" stroke="none"/></mask><line x1="13.605" y1="44.06" x2="23.185" y2="44.06" mask="url(#_mask_FBgBdgGU7TdNka3nia8CXytrIua9WbZw)" vector-effect="non-scaling-stroke" stroke-width="0.5" stroke="rgb(255,255,255)" stroke-linejoin="miter" stroke-linecap="butt" stroke-miterlimit="10"/><mask id="_mask_ejxeIPhEirxsazOFZMzXb6RE0YY2hqe1" x="-200%" y="-200%" width="400%" height="400%"><rect x="-200%" y="-200%" width="400%" height="400%" style="fill:white;"/><line x1="2.385" y1="54.28" x2="2.385" y2="63.86" fill="black" stroke="none"/></mask><line x1="2.385" y1="54.28" x2="2.385" y2="63.86" mask="url(#_mask_ejxeIPhEirxsazOFZMzXb6RE0YY2hqe1)" vector-effect="non-scaling-stroke" stroke-width="0.5" stroke="rgb(255,255,255)" stroke-linejoin="miter" stroke-linecap="butt" stroke-miterlimit="10"/></g></g></g></svg>