<?xml version="1.0" encoding="UTF-8" standalone="no"?><!-- Generator: Gravit.io --><svg xmlns="http://www.w3.org/2000/svg" xmlns:xlink="http://www.w3.org/1999/xlink" style="isolation:isolate" viewBox="0 0 265 40" width="265pt" height="40pt"><defs><clipPath id="_clipPath_3HjR2Y9WBZnAEQx2yfVh7b2lrNihVHmd"><rect width="265" height="40"/></clipPath></defs><g clip-path="url(#_clipPath_3HjR2Y9WBZnAEQx2yfVh7b2lrNihVHmd)"><g><g><g/></g></g><g><g><g/></g></g><g><g/></g><g><mask id="_mask_eIXvT6c2nfT5x2BgY95lKcf9wTBLlKvv" x="-200%" y="-200%" width="400%" height="400%"><rect x="-200%" y="-200%" width="400%" height="400%" style="fill:white;"/><line x1="13.163" y1="43" x2="22.743" y2="43" fill="black" stroke="none"/></mask><line x1="13.163" y1="43" x2="22.743" y2="43" mask="url(#_mask_eIXvT6c2nfT5x2BgY95lKcf9wTBLlKvv)" vector-effect="non-scaling-stroke" stroke-width="0.5" stroke="rgb(255,255,255)" stroke-linejoin="miter" stroke-linecap="butt" stroke-miterlimit="10"/><path d=" M 19.712 28.98 C 20.993 29.42 22.112 29.7 23.712 30.19 C 23.112 38.04 15.693 34.92 19.712 28.98 Z  M 26.343 21.78 C 26.253 19.42 25.843 16.33 22.532 16.78 C 20.983 17.19 19.843 18.89 19.302 21.78 C 19.048 23.522 19.126 25.297 19.532 27.01 C 19.843 28.01 19.743 27.91 20.083 28.09 C 21.403 28.39 22.712 28.72 24.083 29.09 C 25.413 28.18 26.522 23.09 26.343 21.78 Z  M 16.142 21.6 C 16.545 19.883 16.62 18.105 16.363 16.36 C 15.823 13.42 14.682 11.72 13.132 11.36 C 9.833 10.87 9.412 13.96 9.332 16.36 C 9.142 17.68 10.262 22.76 11.613 23.72 C 12.953 23.38 14.262 23.05 15.613 22.72 C 15.932 22.49 15.813 22.55 16.142 21.6 Z  M 11.932 24.7 C 12.563 32.54 19.933 29.43 15.932 23.48 C 14.682 23.92 13.552 24.2 11.932 24.7 Z " fill="rgb(29,113,184)"/><mask id="_mask_55mCnllYWQWHp386GEf6RN1nDj4yq572" x="-200%" y="-200%" width="400%" height="400%"><rect x="-200%" y="-200%" width="400%" height="400%" style="fill:white;"/><line x1="34.173" y1="13.22" x2="34.173" y2="22.8" fill="black" stroke="none"/></mask><line x1="34.173" y1="13.22" x2="34.173" y2="22.8" mask="url(#_mask_55mCnllYWQWHp386GEf6RN1nDj4yq572)" vector-effect="non-scaling-stroke" stroke-width="0.5" stroke="rgb(255,255,255)" stroke-linejoin="miter" stroke-linecap="butt" stroke-miterlimit="10"/><mask id="_mask_wyNTmtvtcO8homqun96lsuyCeyJX0827" x="-200%" y="-200%" width="400%" height="400%"><rect x="-200%" y="-200%" width="400%" height="400%" style="fill:white;"/><line x1="13.163" y1="3" x2="22.743" y2="3" fill="black" stroke="none"/></mask><line x1="13.163" y1="3" x2="22.743" y2="3" mask="url(#_mask_wyNTmtvtcO8homqun96lsuyCeyJX0827)" vector-effect="non-scaling-stroke" stroke-width="0.5" stroke="rgb(255,255,255)" stroke-linejoin="miter" stroke-linecap="butt" stroke-miterlimit="10"/><mask id="_mask_c9kPeNtO1DbwqpQ5vq49J4F2h7I4Zlqs" x="-200%" y="-200%" width="400%" height="400%"><rect x="-200%" y="-200%" width="400%" height="400%" style="fill:white;"/><line x1="1.942" y1="13.22" x2="1.942" y2="22.8" fill="black" stroke="none"/></mask><line x1="1.942" y1="13.22" x2="1.942" y2="22.8" mask="url(#_mask_c9kPeNtO1DbwqpQ5vq49J4F2h7I4Zlqs)" vector-effect="non-scaling-stroke" stroke-width="0.5" stroke="rgb(255,255,255)" stroke-linejoin="miter" stroke-linecap="butt" stroke-miterlimit="10"/><g clip-path="url(#_clipPath_CfsLt3vdJT2SKRso03WwkwVeFfYOEECV)"><text transform="matrix(1,0,0,1,87.187,23.629)" style="font-family:'Open Sans';font-weight:400;font-size:14px;font-style:normal;fill:#000000;stroke:none;">Moderna &#x3E; 2da. dosis</text></g><defs><clipPath id="_clipPath_CfsLt3vdJT2SKRso03WwkwVeFfYOEECV"><rect x="0" y="0" width="175.87" height="20.67" transform="matrix(1,0,0,1,87.187,8.665)"/></clipPath></defs><circle vector-effect="non-scaling-stroke" cx="42.907500002291286" cy="6.999809896682997" r="4" fill="rgb(0,0,0)"/><path d=" M 45.998 13 L 44.908 13 C 44.642 12.998 44.386 13.103 44.197 13.29 L 42.908 14.58 L 41.618 13.29 C 41.426 13.107 41.172 13.003 40.908 13 L 39.808 13 C 38.777 12.995 37.911 13.774 37.807 14.8 L 36.908 23.9 C 36.881 24.182 36.976 24.462 37.167 24.67 C 37.357 24.879 37.625 24.999 37.908 25 L 38.997 25 L 39.818 33.2 C 39.921 34.226 40.787 35.005 41.817 35 L 43.998 35 C 45.028 35.005 45.894 34.226 45.998 33.2 L 46.807 25 L 47.908 25 C 48.19 24.999 48.458 24.879 48.647 24.67 C 48.839 24.462 48.934 24.182 48.908 23.9 L 47.998 14.8 C 47.894 13.774 47.028 12.995 45.998 13 Z " fill="rgb(0,0,0)"/><circle vector-effect="non-scaling-stroke" cx="56.907500002291286" cy="6.999809896682997" r="4" fill="rgb(0,0,0)"/><path d=" M 61.287 23 L 61.908 23 C 62.197 23.002 62.473 22.879 62.665 22.663 C 62.857 22.446 62.945 22.157 62.908 21.87 L 62.008 14.78 C 61.895 13.762 61.032 12.994 60.008 13 L 53.807 13 C 52.787 12.993 51.925 13.756 51.807 14.77 L 50.908 21.87 C 50.87 22.157 50.958 22.446 51.15 22.663 C 51.342 22.879 51.618 23.002 51.908 23 L 52.517 23 L 50.958 27.68 C 50.857 27.985 50.909 28.32 51.097 28.58 C 51.284 28.842 51.586 28.998 51.908 29 L 53.057 29 L 53.778 33.33 C 53.94 34.304 54.79 35.013 55.778 35 L 58.078 35 C 59.065 35.013 59.915 34.304 60.078 33.33 L 60.758 29 L 61.908 29 C 62.229 28.998 62.531 28.842 62.717 28.58 C 62.906 28.32 62.958 27.985 62.858 27.68 L 61.287 23 Z " fill="rgb(0,0,0)"/><path d=" M 46.187 33.49 L 53.578 33.49 C 53.908 33.449 54.156 33.168 54.156 32.835 C 54.156 32.502 53.908 32.221 53.578 32.18 L 51.718 32.18 L 51.718 28.85 L 53.567 28.85 C 53.898 28.809 54.146 28.528 54.146 28.195 C 54.146 27.862 53.898 27.581 53.567 27.54 L 52.637 27.54 L 52.637 14.33 L 51.708 14.33 L 50.777 11.56 L 50.508 11.56 L 50.508 5.09 C 50.467 4.759 50.186 4.511 49.852 4.511 C 49.519 4.511 49.238 4.759 49.197 5.09 L 49.197 11.55 L 48.908 11.55 L 47.998 14.32 L 47.067 14.32 L 47.067 27.52 L 46.168 27.52 C 45.809 27.52 45.517 27.811 45.517 28.17 C 45.517 28.529 45.809 28.82 46.168 28.82 L 48.017 28.82 L 48.017 32.13 L 46.178 32.13 C 46.004 32.13 45.838 32.2 45.718 32.324 C 45.597 32.449 45.532 32.617 45.538 32.79 C 45.524 32.971 45.586 33.149 45.709 33.282 C 45.833 33.415 46.006 33.49 46.187 33.49 Z  M 50.067 17.14 C 50.077 16.967 50.148 16.804 50.267 16.68 C 50.391 16.559 50.555 16.487 50.727 16.48 L 51.968 16.48 L 51.968 17.77 L 50.727 17.77 C 50.367 17.77 50.073 17.48 50.067 17.12 L 50.067 17.14 Z  M 50.067 19.82 C 50.067 19.461 50.359 19.17 50.718 19.17 L 51.958 19.17 L 51.958 20.46 L 50.737 20.46 C 50.564 20.465 50.396 20.4 50.272 20.28 C 50.148 20.159 50.077 19.993 50.078 19.82 L 50.067 19.82 Z  M 50.067 22.5 C 50.067 22.141 50.359 21.85 50.718 21.85 L 51.958 21.85 L 51.958 23.14 L 50.748 23.14 C 50.387 23.14 50.093 22.85 50.088 22.49 L 50.067 22.5 Z  M 50.067 25.18 C 50.062 24.83 50.338 24.541 50.687 24.53 L 51.947 24.53 L 51.947 25.82 L 50.758 25.82 C 50.402 25.82 50.113 25.535 50.107 25.18 L 50.067 25.18 Z " fill="rgb(0,0,0)" vector-effect="non-scaling-stroke" stroke-width="2" stroke="rgb(255,255,255)" stroke-linejoin="miter" stroke-linecap="butt" stroke-miterlimit="10"/><path d=" M 46.187 33.49 L 53.578 33.49 C 53.908 33.449 54.156 33.168 54.156 32.835 C 54.156 32.502 53.908 32.221 53.578 32.18 L 51.718 32.18 L 51.718 28.85 L 53.567 28.85 C 53.898 28.809 54.146 28.528 54.146 28.195 C 54.146 27.862 53.898 27.581 53.567 27.54 L 52.637 27.54 L 52.637 14.33 L 51.708 14.33 L 50.777 11.56 L 50.508 11.56 L 50.508 5.09 C 50.467 4.759 50.186 4.511 49.852 4.511 C 49.519 4.511 49.238 4.759 49.197 5.09 L 49.197 11.55 L 48.908 11.55 L 47.998 14.32 L 47.067 14.32 L 47.067 27.52 L 46.168 27.52 C 45.809 27.52 45.517 27.811 45.517 28.17 C 45.517 28.529 45.809 28.82 46.168 28.82 L 48.017 28.82 L 48.017 32.13 L 46.178 32.13 C 46.004 32.13 45.838 32.2 45.718 32.324 C 45.597 32.449 45.532 32.617 45.538 32.79 C 45.524 32.971 45.586 33.149 45.709 33.282 C 45.833 33.415 46.006 33.49 46.187 33.49 Z  M 50.067 17.14 C 50.077 16.967 50.148 16.804 50.267 16.68 C 50.391 16.559 50.555 16.487 50.727 16.48 L 51.968 16.48 L 51.968 17.77 L 50.727 17.77 C 50.367 17.77 50.073 17.48 50.067 17.12 L 50.067 17.14 Z  M 50.067 19.82 C 50.067 19.461 50.359 19.17 50.718 19.17 L 51.958 19.17 L 51.958 20.46 L 50.737 20.46 C 50.564 20.465 50.396 20.4 50.272 20.28 C 50.148 20.159 50.077 19.993 50.078 19.82 L 50.067 19.82 Z  M 50.067 22.5 C 50.067 22.141 50.359 21.85 50.718 21.85 L 51.958 21.85 L 51.958 23.14 L 50.748 23.14 C 50.387 23.14 50.093 22.85 50.088 22.49 L 50.067 22.5 Z  M 50.067 25.18 C 50.062 24.83 50.338 24.541 50.687 24.53 L 51.947 24.53 L 51.947 25.82 L 50.758 25.82 C 50.402 25.82 50.113 25.535 50.107 25.18 L 50.067 25.18 Z " fill="rgb(0,0,0)"/><g clip-path="url(#_clipPath_9NTOnCFUvgc2REbKqa8CPMDsrSv1oY1d)"><text transform="matrix(1,0,0,1,39.908,21.84)" style="font-family:'Open Sans';font-weight:400;font-size:10px;font-style:normal;font-variant-ligatures:none;fill:[Object GRGBColor];stroke:none;">1</text></g><defs><clipPath id="_clipPath_9NTOnCFUvgc2REbKqa8CPMDsrSv1oY1d"><rect x="0" y="0" width="8" height="13.618" transform="matrix(1,0,0,1,39.908,11.151)"/></clipPath></defs><g clip-path="url(#_clipPath_qJYLbzcDdjsMJ38FsV5kjw9IPopK60Cb)"><text transform="matrix(1,0,0,1,54.618,22.5)" style="font-family:'Open Sans';font-weight:400;font-size:10px;font-style:normal;font-variant-ligatures:none;fill:[Object GRGBColor];stroke:none;">D</text></g><defs><clipPath id="_clipPath_qJYLbzcDdjsMJ38FsV5kjw9IPopK60Cb"><rect x="0" y="0" width="10" height="13.618" transform="matrix(1,0,0,1,54.618,11.811)"/></clipPath></defs><mask id="_mask_jMnVP7oCbtGYYLfMdvk13KiUoSMGAuH6" x="-200%" y="-200%" width="400%" height="400%"><rect x="-200%" y="-200%" width="400%" height="400%" style="fill:white;"/><line x1="76.908" y1="16.48" x2="76.908" y2="26.06" fill="black" stroke="none"/></mask><line x1="76.908" y1="16.48" x2="76.908" y2="26.06" mask="url(#_mask_jMnVP7oCbtGYYLfMdvk13KiUoSMGAuH6)" vector-effect="non-scaling-stroke" stroke-width="0.5" stroke="rgb(255,255,255)" stroke-linejoin="miter" stroke-linecap="butt" stroke-miterlimit="10"/><mask id="_mask_Ctt4HpcfiVjxEO0BvXa2OJ2nZKr8isIC" x="-200%" y="-200%" width="400%" height="400%"><rect x="-200%" y="-200%" width="400%" height="400%" style="fill:white;"/><line x1="13.163" y1="4" x2="22.743" y2="4" fill="black" stroke="none"/></mask><line x1="13.163" y1="4" x2="22.743" y2="4" mask="url(#_mask_Ctt4HpcfiVjxEO0BvXa2OJ2nZKr8isIC)" vector-effect="non-scaling-stroke" stroke-width="0.5" stroke="rgb(255,255,255)" stroke-linejoin="miter" stroke-linecap="butt" stroke-miterlimit="10"/></g></g></svg>