<?xml version="1.0" encoding="UTF-8" standalone="no"?><!-- Generator: Gravit.io --><svg xmlns="http://www.w3.org/2000/svg" xmlns:xlink="http://www.w3.org/1999/xlink" style="isolation:isolate" viewBox="0 0 265 200" width="265pt" height="200pt"><defs><clipPath id="_clipPath_U10e3WwEJ8h47MKwzzJdQ0sWMKdWWhN6"><rect width="265" height="200"/></clipPath></defs><g clip-path="url(#_clipPath_U10e3WwEJ8h47MKwzzJdQ0sWMKdWWhN6)"><g><g><g><g><g><g><g clip-path="url(#_clipPath_mjKx2i6inqy4NzmR3DXQbMbCT82E60fP)"><text transform="matrix(1,0,0,1,58.81,13.81)" style="font-family:'Open Sans';font-weight:400;font-size:10px;font-style:normal;font-variant-ligatures:none;fill:[Object GRGBColor];stroke:none;">12+</text></g><defs><clipPath id="_clipPath_mjKx2i6inqy4NzmR3DXQbMbCT82E60fP"><rect x="0" y="0" width="20" height="13.618" transform="matrix(1,0,0,1,58.81,3.122)"/></clipPath></defs></g></g><path d=" M 43.26 9.64 C 43.703 9.883 44.196 10.02 44.7 10.04 C 45.921 10.014 47.025 9.307 47.56 8.21 C 48.049 7.064 47.831 5.739 47 4.81 C 46.131 3.912 44.82 3.6 43.64 4.01 C 42.472 4.427 41.66 5.493 41.57 6.73 C 41.485 7.954 42.154 9.107 43.26 9.64 Z " fill="rgb(183,66,66)"/><path d=" M 48.56 6.96 C 49.142 7.501 49.916 7.789 50.71 7.76 C 51.916 7.741 53.018 7.072 53.59 6.01 C 54.13 4.897 54.01 3.578 53.28 2.58 C 52.526 1.614 51.294 1.15 50.09 1.38 C 48.891 1.63 47.94 2.542 47.64 3.73 C 47.348 4.894 47.699 6.125 48.56 6.96 Z " fill="rgb(0,91,231)"/><path d=" M 53.86 21.79 C 53.86 21.55 53.94 19.88 53.94 19.64 L 53.94 14.3 C 54.324 14.975 54.617 15.698 54.81 16.45 C 55.042 15.584 55.757 14.932 56.64 14.78 C 56.477 14.053 56.263 13.338 56 12.64 C 55.664 11.853 55.202 11.127 54.63 10.49 C 54.28 10.05 53.88 9.65 53.44 9.3 C 53.2 9.14 53.04 8.98 52.8 8.82 C 52.645 8.67 52.457 8.561 52.25 8.5 C 50.963 7.906 49.444 8.16 48.42 9.14 C 47.95 9.53 47.54 9.93 47.06 10.33 C 48.26 11.192 49.262 12.3 50 13.58 C 50.438 14.401 50.732 15.29 50.87 16.21 C 50.948 16.844 50.992 17.481 51 18.12 C 51 19.009 50.279 19.73 49.39 19.73 L 49.39 19.73 C 49.255 19.738 49.121 19.711 49 19.65 C 49 19.65 50.2 24.03 50.28 24.27 C 50.36 24.67 50.44 25.47 49.56 25.47 L 48.12 25.47 L 48 27.37 L 48.16 32.15 C 48.107 32.761 48.551 33.302 49.16 33.37 C 49.772 33.428 50.317 32.982 50.38 32.37 C 50.39 32.3 50.39 32.23 50.38 32.16 L 50.78 24.16 L 51.09 32.16 C 51.101 32.774 51.596 33.269 52.21 33.28 C 52.507 33.28 52.792 33.162 53.002 32.952 C 53.212 32.742 53.33 32.457 53.33 32.16 L 53.33 32.16 L 53.49 28.66 L 53.86 21.79 Z " fill="rgb(0,91,231)"/><path d=" M 49.31 25.14 C 49.478 25.143 49.634 25.05 49.71 24.9 C 49.824 24.767 49.855 24.582 49.79 24.42 L 47.72 16.73 L 47.72 15.53 C 48.041 16.022 48.281 16.562 48.43 17.13 C 48.51 17.53 48.59 18 48.67 18.4 C 48.716 18.643 48.857 18.857 49.061 18.996 C 49.266 19.135 49.517 19.187 49.76 19.14 C 50.167 19.069 50.475 18.732 50.51 18.32 L 50.51 17.45 C 50.497 17.046 50.444 16.644 50.35 16.25 C 50.168 15.417 49.872 14.612 49.47 13.86 C 49.058 13.107 48.52 12.431 47.88 11.86 C 47.569 11.566 47.235 11.299 46.88 11.06 C 46.634 10.867 46.366 10.706 46.08 10.58 L 46 10.58 C 45.141 10.18 44.149 10.18 43.29 10.58 C 43 10.691 42.732 10.854 42.5 11.06 L 41.5 11.73 C 40.859 12.303 40.319 12.979 39.9 13.73 C 39.649 14.035 39.437 14.371 39.27 14.73 C 39.139 15.133 39.049 15.549 39 15.97 C 38.901 16.363 38.848 16.765 38.84 17.17 L 38.84 18.12 L 38.84 18.12 C 38.835 18.35 38.922 18.572 39.081 18.738 C 39.241 18.903 39.46 18.997 39.69 19 L 39.69 19 C 40.173 19.01 40.594 18.673 40.69 18.2 C 40.742 17.766 40.846 17.339 41 16.93 C 41.153 16.362 41.396 15.821 41.72 15.33 L 41.72 16.47 L 39.49 24.47 C 39.472 24.634 39.499 24.801 39.57 24.95 C 39.643 25.102 39.802 25.193 39.97 25.18 L 41.68 25.18 L 42 32.36 C 42 32.929 42.461 33.39 43.03 33.39 C 43.599 33.39 44.06 32.929 44.06 32.36 L 44.46 25.1 L 44.54 25.1 L 44.86 32.28 C 44.86 32.852 45.323 33.315 45.895 33.315 C 46.467 33.315 46.93 32.852 46.93 32.28 L 46.93 32.28 L 47.33 25.03 L 49.4 25.18 L 49.31 25.14 Z " fill="rgb(183,66,66)"/><path d=" M 54 14.3 C 54.326 14.9 54.565 15.543 54.71 16.21 C 54.79 16.69 54.87 17.21 54.95 17.73 C 54.975 18.296 55.454 18.735 56.02 18.71 C 56.586 18.685 57.025 18.206 57 17.64 L 57 17.64 L 57 16.64 C 56.987 16.156 56.934 15.675 56.84 15.2 C 56.65 14.199 56.313 13.232 55.84 12.33 C 55.389 11.472 54.838 10.67 54.2 9.94 C 53.893 9.581 53.559 9.247 53.2 8.94 L 54 14.3 Z " fill="rgb(0,91,231)"/><mask id="_mask_wQreeOtATteOKjYD0kwRcTR96yUuZbuu" x="-200%" y="-200%" width="400%" height="400%"><rect x="-200%" y="-200%" width="400%" height="400%" style="fill:white;"/><line x1="37.13" y1="16.54" x2="37.13" y2="28.8" fill="black" stroke="none"/></mask><line x1="37.13" y1="16.54" x2="37.13" y2="28.8" mask="url(#_mask_wQreeOtATteOKjYD0kwRcTR96yUuZbuu)" vector-effect="non-scaling-stroke" stroke-width="0.5" stroke="rgb(235,252,252)" stroke-linejoin="miter" stroke-linecap="butt" stroke-miterlimit="10"/><circle vector-effect="non-scaling-stroke" cx="67.23" cy="10.759989311700393" r="9.780000000000001" fill="none" stroke-width="0.5" stroke="rgb(0,0,0)" stroke-linejoin="miter" stroke-linecap="butt" stroke-miterlimit="10"/></g></g></g><g><g><path d=" M 18.655 27.49 C 19.935 27.93 21.055 28.21 22.655 28.7 C 22.055 36.55 14.635 33.43 18.655 27.49 Z  M 25.285 20.29 C 25.195 17.93 24.785 14.84 21.475 15.29 C 19.925 15.7 18.785 17.4 18.245 20.29 C 17.99 22.032 18.068 23.807 18.475 25.52 C 18.785 26.52 18.685 26.42 19.025 26.6 C 20.345 26.9 21.655 27.23 23.025 27.6 C 24.355 26.69 25.465 21.6 25.285 20.29 Z  M 15.085 20.11 C 15.488 18.393 15.562 16.615 15.305 14.87 C 14.765 11.93 13.625 10.23 12.075 9.87 C 8.775 9.38 8.355 12.47 8.275 14.87 C 8.085 16.19 9.205 21.27 10.555 22.23 C 11.895 21.89 13.205 21.56 14.555 21.23 C 14.875 21 14.755 21.06 15.085 20.11 Z  M 10.875 23.21 C 11.505 31.05 18.875 27.94 14.875 21.99 C 13.625 22.43 12.495 22.71 10.875 23.21 Z " fill="rgb(29,113,184)"/><mask id="_mask_QYJAHFSZ4FTta6QqwhOIikPQKShc4kIf" x="-200%" y="-200%" width="400%" height="400%"><rect x="-200%" y="-200%" width="400%" height="400%" style="fill:white;"/><line x1="33.115" y1="11.73" x2="33.115" y2="21.31" fill="black" stroke="none"/></mask><line x1="33.115" y1="11.73" x2="33.115" y2="21.31" mask="url(#_mask_QYJAHFSZ4FTta6QqwhOIikPQKShc4kIf)" vector-effect="non-scaling-stroke" stroke-width="0.5" stroke="rgb(255,255,255)" stroke-linejoin="miter" stroke-linecap="butt" stroke-miterlimit="10"/><mask id="_mask_OzQr2oCrNf2lDzOZlTRiL783h4DWfT1t" x="-200%" y="-200%" width="400%" height="400%"><rect x="-200%" y="-200%" width="400%" height="400%" style="fill:white;"/><line x1="12.105" y1="1.51" x2="21.685" y2="1.51" fill="black" stroke="none"/></mask><line x1="12.105" y1="1.51" x2="21.685" y2="1.51" mask="url(#_mask_OzQr2oCrNf2lDzOZlTRiL783h4DWfT1t)" vector-effect="non-scaling-stroke" stroke-width="0.5" stroke="rgb(255,255,255)" stroke-linejoin="miter" stroke-linecap="butt" stroke-miterlimit="10"/><mask id="_mask_vOu4lG1wb3KdggqaiP79eGdH8CrjLpMg" x="-200%" y="-200%" width="400%" height="400%"><rect x="-200%" y="-200%" width="400%" height="400%" style="fill:white;"/><line x1="0.885" y1="11.73" x2="0.885" y2="21.31" fill="black" stroke="none"/></mask><line x1="0.885" y1="11.73" x2="0.885" y2="21.31" mask="url(#_mask_vOu4lG1wb3KdggqaiP79eGdH8CrjLpMg)" vector-effect="non-scaling-stroke" stroke-width="0.5" stroke="rgb(255,255,255)" stroke-linejoin="miter" stroke-linecap="butt" stroke-miterlimit="10"/></g></g><g clip-path="url(#_clipPath_1bque5mf7utFVBGdY9jGaLYFXMuAtUSk)"><text transform="matrix(1,0,0,1,86.13,20.959)" style="font-family:'Open Sans';font-weight:400;font-size:14px;font-style:normal;fill:#000000;stroke:none;">Pfizer &#x3E; 1ra. dosis</text></g><defs><clipPath id="_clipPath_1bque5mf7utFVBGdY9jGaLYFXMuAtUSk"><rect x="0" y="0" width="175.87" height="20.67" transform="matrix(1,0,0,1,86.13,5.995)"/></clipPath></defs></g><g><g><g><path d=" M 18.655 67.37 C 19.935 67.81 21.055 68.09 22.655 68.58 C 22.055 76.43 14.635 73.31 18.655 67.37 Z  M 25.285 60.17 C 25.195 57.81 24.785 54.72 21.475 55.17 C 19.925 55.58 18.785 57.28 18.245 60.17 C 17.99 61.912 18.068 63.687 18.475 65.4 C 18.785 66.4 18.685 66.3 19.025 66.48 C 20.345 66.78 21.655 67.11 23.025 67.48 C 24.355 66.57 25.465 61.48 25.285 60.17 Z  M 15.085 59.99 C 15.488 58.273 15.562 56.495 15.305 54.75 C 14.765 51.81 13.625 50.11 12.075 49.75 C 8.775 49.26 8.355 52.35 8.275 54.75 C 8.085 56.07 9.205 61.15 10.555 62.11 C 11.895 61.77 13.205 61.44 14.555 61.11 C 14.875 60.88 14.755 60.94 15.085 59.99 Z  M 10.875 63.09 C 11.505 70.93 18.875 67.82 14.875 61.87 C 13.625 62.31 12.495 62.59 10.875 63.09 Z " fill="rgb(29,113,184)"/><mask id="_mask_rNpHAOGWiZYwAsONS1hCEwOB8XDvsGxr" x="-200%" y="-200%" width="400%" height="400%"><rect x="-200%" y="-200%" width="400%" height="400%" style="fill:white;"/><line x1="33.115" y1="51.61" x2="33.115" y2="61.19" fill="black" stroke="none"/></mask><line x1="33.115" y1="51.61" x2="33.115" y2="61.19" mask="url(#_mask_rNpHAOGWiZYwAsONS1hCEwOB8XDvsGxr)" vector-effect="non-scaling-stroke" stroke-width="0.5" stroke="rgb(255,255,255)" stroke-linejoin="miter" stroke-linecap="butt" stroke-miterlimit="10"/><mask id="_mask_aiJVwukuGlxyHoO26CtMmJYA5e5FeciN" x="-200%" y="-200%" width="400%" height="400%"><rect x="-200%" y="-200%" width="400%" height="400%" style="fill:white;"/><line x1="12.105" y1="41.39" x2="21.685" y2="41.39" fill="black" stroke="none"/></mask><line x1="12.105" y1="41.39" x2="21.685" y2="41.39" mask="url(#_mask_aiJVwukuGlxyHoO26CtMmJYA5e5FeciN)" vector-effect="non-scaling-stroke" stroke-width="0.5" stroke="rgb(255,255,255)" stroke-linejoin="miter" stroke-linecap="butt" stroke-miterlimit="10"/><mask id="_mask_cy78eUorwVhCIEvHWg9uYOt8bbBrEjQK" x="-200%" y="-200%" width="400%" height="400%"><rect x="-200%" y="-200%" width="400%" height="400%" style="fill:white;"/><line x1="0.885" y1="51.61" x2="0.885" y2="61.19" fill="black" stroke="none"/></mask><line x1="0.885" y1="51.61" x2="0.885" y2="61.19" mask="url(#_mask_cy78eUorwVhCIEvHWg9uYOt8bbBrEjQK)" vector-effect="non-scaling-stroke" stroke-width="0.5" stroke="rgb(255,255,255)" stroke-linejoin="miter" stroke-linecap="butt" stroke-miterlimit="10"/></g></g><g clip-path="url(#_clipPath_iV3kj9FFpGZGg7GHzhPj4qYWL6kwOjcp)"><text transform="matrix(1,0,0,1,86.13,61.959)" style="font-family:'Open Sans';font-weight:400;font-size:14px;font-style:normal;fill:#000000;stroke:none;">AstraZeneca &#x3E; 1ra. dosis</text></g><defs><clipPath id="_clipPath_iV3kj9FFpGZGg7GHzhPj4qYWL6kwOjcp"><rect x="0" y="0" width="175.87" height="20.67" transform="matrix(1,0,0,1,86.13,46.995)"/></clipPath></defs><g><g><circle vector-effect="non-scaling-stroke" cx="42.13430863706995" cy="45.56414273538534" r="4" fill="rgb(0,0,0)"/><path d=" M 45.224 51.564 L 44.134 51.564 C 43.869 51.563 43.613 51.667 43.424 51.854 L 42.134 53.144 L 40.844 51.854 C 40.653 51.671 40.399 51.568 40.134 51.564 L 39.034 51.564 C 38.003 51.559 37.137 52.338 37.034 53.364 L 36.134 62.464 C 36.108 62.746 36.203 63.026 36.394 63.234 C 36.583 63.444 36.852 63.563 37.134 63.564 L 38.224 63.564 L 39.044 71.764 C 39.147 72.79 40.013 73.569 41.044 73.564 L 43.224 73.564 C 44.255 73.569 45.121 72.79 45.224 71.764 L 46.034 63.564 L 47.134 63.564 C 47.416 63.563 47.685 63.444 47.874 63.234 C 48.066 63.026 48.161 62.746 48.134 62.464 L 47.224 53.364 C 47.121 52.338 46.255 51.559 45.224 51.564 Z " fill="rgb(0,0,0)"/><circle vector-effect="non-scaling-stroke" cx="54.13430863706995" cy="45.56414273538534" r="4" fill="rgb(0,0,0)"/><path d=" M 58.524 61.564 L 59.134 61.564 C 59.424 61.567 59.7 61.444 59.892 61.227 C 60.083 61.01 60.172 60.721 60.134 60.434 L 59.234 53.344 C 59.122 52.326 58.258 51.558 57.234 51.564 L 51.034 51.564 C 50.014 51.557 49.152 52.32 49.034 53.334 L 48.134 60.434 C 48.097 60.721 48.185 61.01 48.377 61.227 C 48.569 61.444 48.845 61.567 49.134 61.564 L 49.744 61.564 L 48.184 66.244 C 48.084 66.549 48.136 66.884 48.324 67.144 C 48.511 67.406 48.812 67.563 49.134 67.564 L 50.284 67.564 L 51.004 71.894 C 51.167 72.868 52.017 73.578 53.004 73.564 L 55.304 73.564 C 56.292 73.578 57.141 72.868 57.304 71.894 L 57.984 67.564 L 59.134 67.564 C 59.456 67.563 59.758 67.406 59.944 67.144 C 60.133 66.884 60.185 66.549 60.084 66.244 L 58.524 61.564 Z " fill="rgb(0,0,0)"/><g clip-path="url(#_clipPath_KDPyYspuaDnXtZhItnZGWqB8r2BQdEUX)"><text transform="matrix(1,0,0,1,59.094,51.784)" style="font-family:'Open Sans';font-weight:400;font-size:10px;font-style:normal;font-variant-ligatures:none;fill:[Object GRGBColor];stroke:none;">18+</text></g><defs><clipPath id="_clipPath_KDPyYspuaDnXtZhItnZGWqB8r2BQdEUX"><rect x="0" y="0" width="20" height="13.618" transform="matrix(1,0,0,1,59.094,41.096)"/></clipPath></defs></g></g></g><g><g><g><path d=" M 18.655 148.37 C 19.935 148.81 21.055 149.09 22.655 149.58 C 22.055 157.43 14.635 154.31 18.655 148.37 Z  M 25.285 141.17 C 25.195 138.81 24.785 135.72 21.475 136.17 C 19.925 136.58 18.785 138.28 18.245 141.17 C 17.99 142.912 18.068 144.687 18.475 146.4 C 18.785 147.4 18.685 147.3 19.025 147.48 C 20.345 147.78 21.655 148.11 23.025 148.48 C 24.355 147.57 25.465 142.48 25.285 141.17 Z  M 15.085 140.99 C 15.488 139.273 15.562 137.495 15.305 135.75 C 14.765 132.81 13.625 131.11 12.075 130.75 C 8.775 130.26 8.355 133.35 8.275 135.75 C 8.085 137.07 9.205 142.15 10.555 143.11 C 11.895 142.77 13.205 142.44 14.555 142.11 C 14.875 141.88 14.755 141.94 15.085 140.99 Z  M 10.875 144.09 C 11.505 151.93 18.875 148.82 14.875 142.87 C 13.625 143.31 12.495 143.59 10.875 144.09 Z " fill="rgb(29,113,184)"/><mask id="_mask_4dx4NJ158fcq7XjxDUa3qMyPDm86NGr3" x="-200%" y="-200%" width="400%" height="400%"><rect x="-200%" y="-200%" width="400%" height="400%" style="fill:white;"/><line x1="33.115" y1="132.61" x2="33.115" y2="142.19" fill="black" stroke="none"/></mask><line x1="33.115" y1="132.61" x2="33.115" y2="142.19" mask="url(#_mask_4dx4NJ158fcq7XjxDUa3qMyPDm86NGr3)" vector-effect="non-scaling-stroke" stroke-width="0.5" stroke="rgb(255,255,255)" stroke-linejoin="miter" stroke-linecap="butt" stroke-miterlimit="10"/><mask id="_mask_w4ruPA1Mi3UkkkiOFiB2cdkeIMaWnY83" x="-200%" y="-200%" width="400%" height="400%"><rect x="-200%" y="-200%" width="400%" height="400%" style="fill:white;"/><line x1="12.105" y1="122.39" x2="21.685" y2="122.39" fill="black" stroke="none"/></mask><line x1="12.105" y1="122.39" x2="21.685" y2="122.39" mask="url(#_mask_w4ruPA1Mi3UkkkiOFiB2cdkeIMaWnY83)" vector-effect="non-scaling-stroke" stroke-width="0.5" stroke="rgb(255,255,255)" stroke-linejoin="miter" stroke-linecap="butt" stroke-miterlimit="10"/><mask id="_mask_rLLfHGXEcg7bjm6NtYIIvpTAZMKLiGGN" x="-200%" y="-200%" width="400%" height="400%"><rect x="-200%" y="-200%" width="400%" height="400%" style="fill:white;"/><line x1="0.885" y1="132.61" x2="0.885" y2="142.19" fill="black" stroke="none"/></mask><line x1="0.885" y1="132.61" x2="0.885" y2="142.19" mask="url(#_mask_rLLfHGXEcg7bjm6NtYIIvpTAZMKLiGGN)" vector-effect="non-scaling-stroke" stroke-width="0.5" stroke="rgb(255,255,255)" stroke-linejoin="miter" stroke-linecap="butt" stroke-miterlimit="10"/></g></g><g clip-path="url(#_clipPath_b086LC3Qe2zrdmPuQFRdeoN26KfcKCvP)"><text transform="matrix(1,0,0,1,86.13,142.959)" style="font-family:'Open Sans';font-weight:400;font-size:14px;font-style:normal;fill:#000000;stroke:none;">Sputnik V &#x3E; 1ra. dosis</text></g><defs><clipPath id="_clipPath_b086LC3Qe2zrdmPuQFRdeoN26KfcKCvP"><rect x="0" y="0" width="175.87" height="20.67" transform="matrix(1,0,0,1,86.13,127.995)"/></clipPath></defs><g><g><circle vector-effect="non-scaling-stroke" cx="40.849999999999994" cy="126.99980989668302" r="4" fill="rgb(0,0,0)"/><path d=" M 43.94 133 L 42.85 133 C 42.584 132.998 42.329 133.103 42.14 133.29 L 40.85 134.58 L 39.56 133.29 C 39.368 133.107 39.115 133.003 38.85 133 L 37.75 133 C 36.719 132.995 35.853 133.774 35.75 134.8 L 34.85 143.9 C 34.824 144.182 34.918 144.462 35.11 144.67 C 35.299 144.879 35.568 144.999 35.85 145 L 36.94 145 L 37.76 153.2 C 37.863 154.226 38.729 155.005 39.76 155 L 41.94 155 C 42.971 155.005 43.837 154.226 43.94 153.2 L 44.75 145 L 45.85 145 C 46.132 144.999 46.401 144.879 46.59 144.67 C 46.782 144.462 46.876 144.182 46.85 143.9 L 45.94 134.8 C 45.837 133.774 44.971 132.995 43.94 133 Z " fill="rgb(0,0,0)"/><circle vector-effect="non-scaling-stroke" cx="52.849999999999994" cy="126.99980989668302" r="4" fill="rgb(0,0,0)"/><path d=" M 57.24 143 L 57.85 143 C 58.139 143.002 58.416 142.879 58.607 142.663 C 58.799 142.446 58.888 142.157 58.85 141.87 L 57.95 134.78 C 57.837 133.762 56.974 132.994 55.95 133 L 49.75 133 C 48.729 132.993 47.867 133.756 47.75 134.77 L 46.85 141.87 C 46.812 142.157 46.901 142.446 47.093 142.663 C 47.284 142.879 47.561 143.002 47.85 143 L 48.46 143 L 46.9 147.68 C 46.799 147.985 46.851 148.32 47.04 148.58 C 47.227 148.842 47.528 148.998 47.85 149 L 49 149 L 49.72 153.33 C 49.883 154.304 50.732 155.013 51.72 155 L 54.02 155 C 55.008 155.013 55.857 154.304 56.02 153.33 L 56.7 149 L 57.85 149 C 58.172 148.998 58.473 148.842 58.66 148.58 C 58.849 148.32 58.901 147.985 58.8 147.68 L 57.24 143 Z " fill="rgb(0,0,0)"/><g clip-path="url(#_clipPath_TeR0KuFy87O9YjB5AfUr7sTVLVNWnIqS)"><text transform="matrix(1,0,0,1,57.81,133.22)" style="font-family:'Open Sans';font-weight:400;font-size:10px;font-style:normal;font-variant-ligatures:none;fill:[Object GRGBColor];stroke:none;">18+</text></g><defs><clipPath id="_clipPath_TeR0KuFy87O9YjB5AfUr7sTVLVNWnIqS"><rect x="0" y="0" width="20" height="13.618" transform="matrix(1,0,0,1,57.81,122.531)"/></clipPath></defs></g></g></g><g><g><g><path d=" M 18.655 108.37 C 19.935 108.81 21.055 109.09 22.655 109.58 C 22.055 117.43 14.635 114.31 18.655 108.37 Z  M 25.285 101.17 C 25.195 98.81 24.785 95.72 21.475 96.17 C 19.925 96.58 18.785 98.28 18.245 101.17 C 17.99 102.912 18.068 104.687 18.475 106.4 C 18.785 107.4 18.685 107.3 19.025 107.48 C 20.345 107.78 21.655 108.11 23.025 108.48 C 24.355 107.57 25.465 102.48 25.285 101.17 Z  M 15.085 100.99 C 15.488 99.273 15.562 97.495 15.305 95.75 C 14.765 92.81 13.625 91.11 12.075 90.75 C 8.775 90.26 8.355 93.35 8.275 95.75 C 8.085 97.07 9.205 102.15 10.555 103.11 C 11.895 102.77 13.205 102.44 14.555 102.11 C 14.875 101.88 14.755 101.94 15.085 100.99 Z  M 10.875 104.09 C 11.505 111.93 18.875 108.82 14.875 102.87 C 13.625 103.31 12.495 103.59 10.875 104.09 Z " fill="rgb(29,113,184)"/><mask id="_mask_xCkNVrdFgpTOhffoVrFfwl8NoCyK2a1F" x="-200%" y="-200%" width="400%" height="400%"><rect x="-200%" y="-200%" width="400%" height="400%" style="fill:white;"/><line x1="33.115" y1="92.61" x2="33.115" y2="102.19" fill="black" stroke="none"/></mask><line x1="33.115" y1="92.61" x2="33.115" y2="102.19" mask="url(#_mask_xCkNVrdFgpTOhffoVrFfwl8NoCyK2a1F)" vector-effect="non-scaling-stroke" stroke-width="0.5" stroke="rgb(255,255,255)" stroke-linejoin="miter" stroke-linecap="butt" stroke-miterlimit="10"/><mask id="_mask_KE7bglFYyP67wSOt70Mwr0KPea3EJ7uy" x="-200%" y="-200%" width="400%" height="400%"><rect x="-200%" y="-200%" width="400%" height="400%" style="fill:white;"/><line x1="12.105" y1="82.39" x2="21.685" y2="82.39" fill="black" stroke="none"/></mask><line x1="12.105" y1="82.39" x2="21.685" y2="82.39" mask="url(#_mask_KE7bglFYyP67wSOt70Mwr0KPea3EJ7uy)" vector-effect="non-scaling-stroke" stroke-width="0.5" stroke="rgb(255,255,255)" stroke-linejoin="miter" stroke-linecap="butt" stroke-miterlimit="10"/><mask id="_mask_UK8KvqF3X7R0TjBenOGbsz72iUHiSm9t" x="-200%" y="-200%" width="400%" height="400%"><rect x="-200%" y="-200%" width="400%" height="400%" style="fill:white;"/><line x1="0.885" y1="92.61" x2="0.885" y2="102.19" fill="black" stroke="none"/></mask><line x1="0.885" y1="92.61" x2="0.885" y2="102.19" mask="url(#_mask_UK8KvqF3X7R0TjBenOGbsz72iUHiSm9t)" vector-effect="non-scaling-stroke" stroke-width="0.5" stroke="rgb(255,255,255)" stroke-linejoin="miter" stroke-linecap="butt" stroke-miterlimit="10"/></g></g><g clip-path="url(#_clipPath_XUWxz9q3uyftpiPGlx5kXhs4hlmo0NtF)"><text transform="matrix(1,0,0,1,86.13,103.019)" style="font-family:'Open Sans';font-weight:400;font-size:14px;font-style:normal;fill:#000000;stroke:none;">AstraZeneca &#x3E; 2da. dosis</text></g><defs><clipPath id="_clipPath_XUWxz9q3uyftpiPGlx5kXhs4hlmo0NtF"><rect x="0" y="0" width="175.87" height="20.67" transform="matrix(1,0,0,1,86.13,88.055)"/></clipPath></defs><g><g><circle vector-effect="non-scaling-stroke" cx="41.8499999999071" cy="86.38979909303251" r="4" fill="rgb(0,0,0)"/><path d=" M 44.94 92.39 L 43.85 92.39 C 43.584 92.388 43.329 92.493 43.14 92.68 L 41.85 93.97 L 40.56 92.68 C 40.368 92.497 40.115 92.393 39.85 92.39 L 38.75 92.39 C 37.719 92.385 36.853 93.164 36.75 94.19 L 35.85 103.29 C 35.824 103.572 35.918 103.852 36.11 104.06 C 36.299 104.269 36.568 104.389 36.85 104.39 L 37.94 104.39 L 38.76 112.59 C 38.863 113.616 39.729 114.395 40.76 114.39 L 42.94 114.39 C 43.971 114.395 44.837 113.616 44.94 112.59 L 45.75 104.39 L 46.85 104.39 C 47.132 104.389 47.401 104.269 47.59 104.06 C 47.782 103.852 47.876 103.572 47.85 103.29 L 46.94 94.19 C 46.837 93.164 45.971 92.385 44.94 92.39 Z " fill="rgb(0,0,0)"/><circle vector-effect="non-scaling-stroke" cx="55.8499999999071" cy="86.38979909303251" r="4" fill="rgb(0,0,0)"/><path d=" M 60.23 102.39 L 60.85 102.39 C 61.139 102.392 61.416 102.269 61.607 102.053 C 61.799 101.836 61.888 101.547 61.85 101.26 L 60.95 94.17 C 60.837 93.152 59.974 92.384 58.95 92.39 L 52.75 92.39 C 51.729 92.383 50.867 93.146 50.75 94.16 L 49.85 101.26 C 49.812 101.547 49.901 101.836 50.093 102.053 C 50.284 102.269 50.561 102.392 50.85 102.39 L 51.46 102.39 L 49.9 107.07 C 49.799 107.375 49.851 107.71 50.04 107.97 C 50.227 108.232 50.528 108.388 50.85 108.39 L 52 108.39 L 52.72 112.72 C 52.883 113.694 53.732 114.403 54.72 114.39 L 57.02 114.39 C 58.008 114.403 58.857 113.694 59.02 112.72 L 59.7 108.39 L 60.85 108.39 C 61.172 108.388 61.473 108.232 61.66 107.97 C 61.849 107.71 61.901 107.375 61.8 107.07 L 60.23 102.39 Z " fill="rgb(0,0,0)"/><path d=" M 45.13 112.88 L 52.52 112.88 C 52.851 112.839 53.099 112.558 53.099 112.225 C 53.099 111.892 52.851 111.611 52.52 111.57 L 50.66 111.57 L 50.66 108.24 L 52.51 108.24 C 52.841 108.199 53.089 107.918 53.089 107.585 C 53.089 107.252 52.841 106.971 52.51 106.93 L 51.58 106.93 L 51.58 93.72 L 50.65 93.72 L 49.72 90.95 L 49.45 90.95 L 49.45 84.48 C 49.409 84.149 49.128 83.901 48.795 83.901 C 48.462 83.901 48.181 84.149 48.14 84.48 L 48.14 90.94 L 47.85 90.94 L 46.94 93.71 L 46.01 93.71 L 46.01 106.91 L 45.11 106.91 C 44.751 106.91 44.46 107.201 44.46 107.56 C 44.46 107.919 44.751 108.21 45.11 108.21 L 46.96 108.21 L 46.96 111.52 L 45.12 111.52 C 44.947 111.52 44.781 111.59 44.66 111.714 C 44.54 111.839 44.475 112.007 44.48 112.18 C 44.466 112.361 44.528 112.539 44.652 112.672 C 44.775 112.805 44.949 112.88 45.13 112.88 Z  M 49.01 96.53 C 49.019 96.357 49.09 96.194 49.21 96.07 C 49.333 95.949 49.497 95.877 49.67 95.87 L 50.91 95.87 L 50.91 97.16 L 49.67 97.16 C 49.309 97.16 49.015 96.87 49.01 96.51 L 49.01 96.53 Z  M 49.01 99.21 C 49.01 98.851 49.301 98.56 49.66 98.56 L 50.9 98.56 L 50.9 99.85 L 49.68 99.85 C 49.507 99.855 49.339 99.79 49.214 99.67 C 49.09 99.549 49.02 99.383 49.02 99.21 L 49.01 99.21 Z  M 49.01 101.89 C 49.01 101.531 49.301 101.24 49.66 101.24 L 50.9 101.24 L 50.9 102.53 L 49.69 102.53 C 49.329 102.53 49.035 102.24 49.03 101.88 L 49.01 101.89 Z  M 49.01 104.57 C 49.004 104.22 49.28 103.931 49.63 103.92 L 50.89 103.92 L 50.89 105.21 L 49.7 105.21 C 49.345 105.21 49.055 104.925 49.05 104.57 L 49.01 104.57 Z " fill="rgb(0,0,0)" vector-effect="non-scaling-stroke" stroke-width="2" stroke="rgb(255,255,255)" stroke-linejoin="miter" stroke-linecap="butt" stroke-miterlimit="10"/><path d=" M 45.13 112.88 L 52.52 112.88 C 52.851 112.839 53.099 112.558 53.099 112.225 C 53.099 111.892 52.851 111.611 52.52 111.57 L 50.66 111.57 L 50.66 108.24 L 52.51 108.24 C 52.841 108.199 53.089 107.918 53.089 107.585 C 53.089 107.252 52.841 106.971 52.51 106.93 L 51.58 106.93 L 51.58 93.72 L 50.65 93.72 L 49.72 90.95 L 49.45 90.95 L 49.45 84.48 C 49.409 84.149 49.128 83.901 48.795 83.901 C 48.462 83.901 48.181 84.149 48.14 84.48 L 48.14 90.94 L 47.85 90.94 L 46.94 93.71 L 46.01 93.71 L 46.01 106.91 L 45.11 106.91 C 44.751 106.91 44.46 107.201 44.46 107.56 C 44.46 107.919 44.751 108.21 45.11 108.21 L 46.96 108.21 L 46.96 111.52 L 45.12 111.52 C 44.947 111.52 44.781 111.59 44.66 111.714 C 44.54 111.839 44.475 112.007 44.48 112.18 C 44.466 112.361 44.528 112.539 44.652 112.672 C 44.775 112.805 44.949 112.88 45.13 112.88 Z  M 49.01 96.53 C 49.019 96.357 49.09 96.194 49.21 96.07 C 49.333 95.949 49.497 95.877 49.67 95.87 L 50.91 95.87 L 50.91 97.16 L 49.67 97.16 C 49.309 97.16 49.015 96.87 49.01 96.51 L 49.01 96.53 Z  M 49.01 99.21 C 49.01 98.851 49.301 98.56 49.66 98.56 L 50.9 98.56 L 50.9 99.85 L 49.68 99.85 C 49.507 99.855 49.339 99.79 49.214 99.67 C 49.09 99.549 49.02 99.383 49.02 99.21 L 49.01 99.21 Z  M 49.01 101.89 C 49.01 101.531 49.301 101.24 49.66 101.24 L 50.9 101.24 L 50.9 102.53 L 49.69 102.53 C 49.329 102.53 49.035 102.24 49.03 101.88 L 49.01 101.89 Z  M 49.01 104.57 C 49.004 104.22 49.28 103.931 49.63 103.92 L 50.89 103.92 L 50.89 105.21 L 49.7 105.21 C 49.345 105.21 49.055 104.925 49.05 104.57 L 49.01 104.57 Z " fill="rgb(0,0,0)"/><g clip-path="url(#_clipPath_a5G3pkt8TPAnf3kdvelDKTgXBVfPeftS)"><text transform="matrix(1,0,0,1,38.85,101.23)" style="font-family:'Open Sans';font-weight:400;font-size:10px;font-style:normal;font-variant-ligatures:none;fill:[Object GRGBColor];stroke:none;">1</text></g><defs><clipPath id="_clipPath_a5G3pkt8TPAnf3kdvelDKTgXBVfPeftS"><rect x="0" y="0" width="8" height="13.618" transform="matrix(1,0,0,1,38.85,90.541)"/></clipPath></defs><g clip-path="url(#_clipPath_jgPxlEuxUC1CTXtcx02QJ3L9TmyWPyRX)"><text transform="matrix(1,0,0,1,53.56,101.89)" style="font-family:'Open Sans';font-weight:400;font-size:10px;font-style:normal;font-variant-ligatures:none;fill:[Object GRGBColor];stroke:none;">D</text></g><defs><clipPath id="_clipPath_jgPxlEuxUC1CTXtcx02QJ3L9TmyWPyRX"><rect x="0" y="0" width="10" height="13.618" transform="matrix(1,0,0,1,53.56,91.201)"/></clipPath></defs><mask id="_mask_trWdkoorJg8vjvPObm2D05cP2qqJCkVg" x="-200%" y="-200%" width="400%" height="400%"><rect x="-200%" y="-200%" width="400%" height="400%" style="fill:white;"/><line x1="75.85" y1="95.87" x2="75.85" y2="105.45" fill="black" stroke="none"/></mask><line x1="75.85" y1="95.87" x2="75.85" y2="105.45" mask="url(#_mask_trWdkoorJg8vjvPObm2D05cP2qqJCkVg)" vector-effect="non-scaling-stroke" stroke-width="0.5" stroke="rgb(255,255,255)" stroke-linejoin="miter" stroke-linecap="butt" stroke-miterlimit="10"/></g></g></g><g><g clip-path="url(#_clipPath_jbbpdWpRhvPkeGcuOZ97VBRxXz5zDPpb)"><text transform="matrix(1,0,0,1,86.13,185.019)" style="font-family:'Open Sans';font-weight:400;font-size:14px;font-style:normal;fill:#000000;stroke:none;">Sputnik V &#x3E; 2da. dosis</text></g><defs><clipPath id="_clipPath_jbbpdWpRhvPkeGcuOZ97VBRxXz5zDPpb"><rect x="0" y="0" width="175.87" height="20.67" transform="matrix(1,0,0,1,86.13,170.055)"/></clipPath></defs><g><g><path d=" M 18.655 190.37 C 19.935 190.81 21.055 191.09 22.655 191.58 C 22.055 199.43 14.635 196.31 18.655 190.37 Z  M 25.285 183.17 C 25.195 180.81 24.785 177.72 21.475 178.17 C 19.925 178.58 18.785 180.28 18.245 183.17 C 17.99 184.912 18.068 186.687 18.475 188.4 C 18.785 189.4 18.685 189.3 19.025 189.48 C 20.345 189.78 21.655 190.11 23.025 190.48 C 24.355 189.57 25.465 184.48 25.285 183.17 Z  M 15.085 182.99 C 15.488 181.273 15.562 179.495 15.305 177.75 C 14.765 174.81 13.625 173.11 12.075 172.75 C 8.775 172.26 8.355 175.35 8.275 177.75 C 8.085 179.07 9.205 184.15 10.555 185.11 C 11.895 184.77 13.205 184.44 14.555 184.11 C 14.875 183.88 14.755 183.94 15.085 182.99 Z  M 10.875 186.09 C 11.505 193.93 18.875 190.82 14.875 184.87 C 13.625 185.31 12.495 185.59 10.875 186.09 Z " fill="rgb(29,113,184)"/><mask id="_mask_YWRvfvLjQbH46jcjRjCoXVSVVM4qslBu" x="-200%" y="-200%" width="400%" height="400%"><rect x="-200%" y="-200%" width="400%" height="400%" style="fill:white;"/><line x1="33.115" y1="174.61" x2="33.115" y2="184.19" fill="black" stroke="none"/></mask><line x1="33.115" y1="174.61" x2="33.115" y2="184.19" mask="url(#_mask_YWRvfvLjQbH46jcjRjCoXVSVVM4qslBu)" vector-effect="non-scaling-stroke" stroke-width="0.5" stroke="rgb(255,255,255)" stroke-linejoin="miter" stroke-linecap="butt" stroke-miterlimit="10"/><mask id="_mask_BBQ5TyKhvtPENWOPF2RjKjSSEHl5DA1w" x="-200%" y="-200%" width="400%" height="400%"><rect x="-200%" y="-200%" width="400%" height="400%" style="fill:white;"/><line x1="12.105" y1="164.39" x2="21.685" y2="164.39" fill="black" stroke="none"/></mask><line x1="12.105" y1="164.39" x2="21.685" y2="164.39" mask="url(#_mask_BBQ5TyKhvtPENWOPF2RjKjSSEHl5DA1w)" vector-effect="non-scaling-stroke" stroke-width="0.5" stroke="rgb(255,255,255)" stroke-linejoin="miter" stroke-linecap="butt" stroke-miterlimit="10"/><mask id="_mask_9tS8ebSaAXGQy0G6ivfIDrxreWfFugdO" x="-200%" y="-200%" width="400%" height="400%"><rect x="-200%" y="-200%" width="400%" height="400%" style="fill:white;"/><line x1="0.885" y1="174.61" x2="0.885" y2="184.19" fill="black" stroke="none"/></mask><line x1="0.885" y1="174.61" x2="0.885" y2="184.19" mask="url(#_mask_9tS8ebSaAXGQy0G6ivfIDrxreWfFugdO)" vector-effect="non-scaling-stroke" stroke-width="0.5" stroke="rgb(255,255,255)" stroke-linejoin="miter" stroke-linecap="butt" stroke-miterlimit="10"/></g></g><g><g><circle vector-effect="non-scaling-stroke" cx="41.8499999999071" cy="168.3897990930325" r="4" fill="rgb(0,0,0)"/><path d=" M 44.94 174.39 L 43.85 174.39 C 43.584 174.388 43.329 174.493 43.14 174.68 L 41.85 175.97 L 40.56 174.68 C 40.368 174.497 40.115 174.393 39.85 174.39 L 38.75 174.39 C 37.719 174.385 36.853 175.164 36.75 176.19 L 35.85 185.29 C 35.824 185.572 35.918 185.852 36.11 186.06 C 36.299 186.269 36.568 186.389 36.85 186.39 L 37.94 186.39 L 38.76 194.59 C 38.863 195.616 39.729 196.395 40.76 196.39 L 42.94 196.39 C 43.971 196.395 44.837 195.616 44.94 194.59 L 45.75 186.39 L 46.85 186.39 C 47.132 186.389 47.401 186.269 47.59 186.06 C 47.782 185.852 47.876 185.572 47.85 185.29 L 46.94 176.19 C 46.837 175.164 45.971 174.385 44.94 174.39 Z " fill="rgb(0,0,0)"/><circle vector-effect="non-scaling-stroke" cx="55.8499999999071" cy="168.3897990930325" r="4" fill="rgb(0,0,0)"/><path d=" M 60.23 184.39 L 60.85 184.39 C 61.139 184.392 61.416 184.269 61.607 184.053 C 61.799 183.836 61.888 183.547 61.85 183.26 L 60.95 176.17 C 60.837 175.152 59.974 174.384 58.95 174.39 L 52.75 174.39 C 51.729 174.383 50.867 175.146 50.75 176.16 L 49.85 183.26 C 49.812 183.547 49.901 183.836 50.093 184.053 C 50.284 184.269 50.561 184.392 50.85 184.39 L 51.46 184.39 L 49.9 189.07 C 49.799 189.375 49.851 189.71 50.04 189.97 C 50.227 190.232 50.528 190.388 50.85 190.39 L 52 190.39 L 52.72 194.72 C 52.883 195.694 53.732 196.403 54.72 196.39 L 57.02 196.39 C 58.008 196.403 58.857 195.694 59.02 194.72 L 59.7 190.39 L 60.85 190.39 C 61.172 190.388 61.473 190.232 61.66 189.97 C 61.849 189.71 61.901 189.375 61.8 189.07 L 60.23 184.39 Z " fill="rgb(0,0,0)"/><path d=" M 45.13 194.88 L 52.52 194.88 C 52.851 194.839 53.099 194.558 53.099 194.225 C 53.099 193.892 52.851 193.611 52.52 193.57 L 50.66 193.57 L 50.66 190.24 L 52.51 190.24 C 52.841 190.199 53.089 189.918 53.089 189.585 C 53.089 189.252 52.841 188.971 52.51 188.93 L 51.58 188.93 L 51.58 175.72 L 50.65 175.72 L 49.72 172.95 L 49.45 172.95 L 49.45 166.48 C 49.409 166.149 49.128 165.901 48.795 165.901 C 48.462 165.901 48.181 166.149 48.14 166.48 L 48.14 172.94 L 47.85 172.94 L 46.94 175.71 L 46.01 175.71 L 46.01 188.91 L 45.11 188.91 C 44.751 188.91 44.46 189.201 44.46 189.56 C 44.46 189.919 44.751 190.21 45.11 190.21 L 46.96 190.21 L 46.96 193.52 L 45.12 193.52 C 44.947 193.52 44.781 193.59 44.66 193.714 C 44.54 193.839 44.475 194.007 44.48 194.18 C 44.466 194.361 44.528 194.539 44.652 194.672 C 44.775 194.805 44.949 194.88 45.13 194.88 Z  M 49.01 178.53 C 49.019 178.357 49.09 178.194 49.21 178.07 C 49.333 177.949 49.497 177.877 49.67 177.87 L 50.91 177.87 L 50.91 179.16 L 49.67 179.16 C 49.309 179.16 49.015 178.87 49.01 178.51 L 49.01 178.53 Z  M 49.01 181.21 C 49.01 180.851 49.301 180.56 49.66 180.56 L 50.9 180.56 L 50.9 181.85 L 49.68 181.85 C 49.507 181.855 49.339 181.79 49.214 181.67 C 49.09 181.549 49.02 181.383 49.02 181.21 L 49.01 181.21 Z  M 49.01 183.89 C 49.01 183.531 49.301 183.24 49.66 183.24 L 50.9 183.24 L 50.9 184.53 L 49.69 184.53 C 49.329 184.53 49.035 184.24 49.03 183.88 L 49.01 183.89 Z  M 49.01 186.57 C 49.004 186.22 49.28 185.931 49.63 185.92 L 50.89 185.92 L 50.89 187.21 L 49.7 187.21 C 49.345 187.21 49.055 186.925 49.05 186.57 L 49.01 186.57 Z " fill="rgb(0,0,0)" vector-effect="non-scaling-stroke" stroke-width="2" stroke="rgb(255,255,255)" stroke-linejoin="miter" stroke-linecap="butt" stroke-miterlimit="10"/><path d=" M 45.13 194.88 L 52.52 194.88 C 52.851 194.839 53.099 194.558 53.099 194.225 C 53.099 193.892 52.851 193.611 52.52 193.57 L 50.66 193.57 L 50.66 190.24 L 52.51 190.24 C 52.841 190.199 53.089 189.918 53.089 189.585 C 53.089 189.252 52.841 188.971 52.51 188.93 L 51.58 188.93 L 51.58 175.72 L 50.65 175.72 L 49.72 172.95 L 49.45 172.95 L 49.45 166.48 C 49.409 166.149 49.128 165.901 48.795 165.901 C 48.462 165.901 48.181 166.149 48.14 166.48 L 48.14 172.94 L 47.85 172.94 L 46.94 175.71 L 46.01 175.71 L 46.01 188.91 L 45.11 188.91 C 44.751 188.91 44.46 189.201 44.46 189.56 C 44.46 189.919 44.751 190.21 45.11 190.21 L 46.96 190.21 L 46.96 193.52 L 45.12 193.52 C 44.947 193.52 44.781 193.59 44.66 193.714 C 44.54 193.839 44.475 194.007 44.48 194.18 C 44.466 194.361 44.528 194.539 44.652 194.672 C 44.775 194.805 44.949 194.88 45.13 194.88 Z  M 49.01 178.53 C 49.019 178.357 49.09 178.194 49.21 178.07 C 49.333 177.949 49.497 177.877 49.67 177.87 L 50.91 177.87 L 50.91 179.16 L 49.67 179.16 C 49.309 179.16 49.015 178.87 49.01 178.51 L 49.01 178.53 Z  M 49.01 181.21 C 49.01 180.851 49.301 180.56 49.66 180.56 L 50.9 180.56 L 50.9 181.85 L 49.68 181.85 C 49.507 181.855 49.339 181.79 49.214 181.67 C 49.09 181.549 49.02 181.383 49.02 181.21 L 49.01 181.21 Z  M 49.01 183.89 C 49.01 183.531 49.301 183.24 49.66 183.24 L 50.9 183.24 L 50.9 184.53 L 49.69 184.53 C 49.329 184.53 49.035 184.24 49.03 183.88 L 49.01 183.89 Z  M 49.01 186.57 C 49.004 186.22 49.28 185.931 49.63 185.92 L 50.89 185.92 L 50.89 187.21 L 49.7 187.21 C 49.345 187.21 49.055 186.925 49.05 186.57 L 49.01 186.57 Z " fill="rgb(0,0,0)"/><g clip-path="url(#_clipPath_cuNBljNQcmdyI6NoGI63NPrfP6i6AfME)"><text transform="matrix(1,0,0,1,38.85,183.23)" style="font-family:'Open Sans';font-weight:400;font-size:10px;font-style:normal;font-variant-ligatures:none;fill:[Object GRGBColor];stroke:none;">1</text></g><defs><clipPath id="_clipPath_cuNBljNQcmdyI6NoGI63NPrfP6i6AfME"><rect x="0" y="0" width="8" height="13.618" transform="matrix(1,0,0,1,38.85,172.541)"/></clipPath></defs><g clip-path="url(#_clipPath_TiXIoQ6v2ylBfKVOZerVRdI77zfo2WGN)"><text transform="matrix(1,0,0,1,53.56,183.89)" style="font-family:'Open Sans';font-weight:400;font-size:10px;font-style:normal;font-variant-ligatures:none;fill:[Object GRGBColor];stroke:none;">D</text></g><defs><clipPath id="_clipPath_TiXIoQ6v2ylBfKVOZerVRdI77zfo2WGN"><rect x="0" y="0" width="10" height="13.618" transform="matrix(1,0,0,1,53.56,173.201)"/></clipPath></defs><mask id="_mask_QL7IDNUCVpZ8S1nUCQLbspqSLSaEw8CM" x="-200%" y="-200%" width="400%" height="400%"><rect x="-200%" y="-200%" width="400%" height="400%" style="fill:white;"/><line x1="75.85" y1="177.87" x2="75.85" y2="187.45" fill="black" stroke="none"/></mask><line x1="75.85" y1="177.87" x2="75.85" y2="187.45" mask="url(#_mask_QL7IDNUCVpZ8S1nUCQLbspqSLSaEw8CM)" vector-effect="non-scaling-stroke" stroke-width="0.5" stroke="rgb(255,255,255)" stroke-linejoin="miter" stroke-linecap="butt" stroke-miterlimit="10"/></g></g></g></g></svg>