<?xml version="1.0" encoding="UTF-8" standalone="no"?><!-- Generator: Gravit.io --><svg xmlns="http://www.w3.org/2000/svg" xmlns:xlink="http://www.w3.org/1999/xlink" style="isolation:isolate" viewBox="0 0 265 152" width="265pt" height="152pt"><defs><clipPath id="_clipPath_pDGIfFrRpzKtWHs3lMiTk4SXwMxXsNYv"><rect width="265" height="152"/></clipPath></defs><g clip-path="url(#_clipPath_pDGIfFrRpzKtWHs3lMiTk4SXwMxXsNYv)"><g><g><g><g><path d=" M 19.712 25.98 C 20.993 26.42 22.112 26.7 23.712 27.19 C 23.112 35.04 15.693 31.92 19.712 25.98 Z  M 26.343 18.78 C 26.253 16.42 25.843 13.33 22.532 13.78 C 20.983 14.19 19.843 15.89 19.302 18.78 C 19.048 20.522 19.126 22.297 19.532 24.01 C 19.843 25.01 19.743 24.91 20.083 25.09 C 21.403 25.39 22.712 25.72 24.083 26.09 C 25.413 25.18 26.522 20.09 26.343 18.78 Z  M 16.142 18.6 C 16.545 16.883 16.62 15.105 16.363 13.36 C 15.823 10.42 14.682 8.72 13.132 8.36 C 9.833 7.87 9.412 10.96 9.332 13.36 C 9.142 14.68 10.262 19.76 11.613 20.72 C 12.953 20.38 14.262 20.05 15.613 19.72 C 15.932 19.49 15.813 19.55 16.142 18.6 Z  M 11.932 21.7 C 12.563 29.54 19.933 26.43 15.932 20.48 C 14.682 20.92 13.552 21.2 11.932 21.7 Z " fill="rgb(29,113,184)"/><mask id="_mask_uDXkpJA4BLgSk00QIf3vPSWWbOGu70ie" x="-200%" y="-200%" width="400%" height="400%"><rect x="-200%" y="-200%" width="400%" height="400%" style="fill:white;"/><line x1="34.173" y1="10.22" x2="34.173" y2="19.8" fill="black" stroke="none"/></mask><line x1="34.173" y1="10.22" x2="34.173" y2="19.8" mask="url(#_mask_uDXkpJA4BLgSk00QIf3vPSWWbOGu70ie)" vector-effect="non-scaling-stroke" stroke-width="0.5" stroke="rgb(255,255,255)" stroke-linejoin="miter" stroke-linecap="butt" stroke-miterlimit="10"/><mask id="_mask_zHVncMbVaGvHM3wEhLCHVlACEwrJFShX" x="-200%" y="-200%" width="400%" height="400%"><rect x="-200%" y="-200%" width="400%" height="400%" style="fill:white;"/><line x1="13.163" y1="0" x2="22.743" y2="0" fill="black" stroke="none"/></mask><line x1="13.163" y1="0" x2="22.743" y2="0" mask="url(#_mask_zHVncMbVaGvHM3wEhLCHVlACEwrJFShX)" vector-effect="non-scaling-stroke" stroke-width="0.5" stroke="rgb(255,255,255)" stroke-linejoin="miter" stroke-linecap="butt" stroke-miterlimit="10"/><mask id="_mask_7vB45GvNg5R3zZafX8BHdwBhrmO5bSKq" x="-200%" y="-200%" width="400%" height="400%"><rect x="-200%" y="-200%" width="400%" height="400%" style="fill:white;"/><line x1="1.942" y1="10.22" x2="1.942" y2="19.8" fill="black" stroke="none"/></mask><line x1="1.942" y1="10.22" x2="1.942" y2="19.8" mask="url(#_mask_7vB45GvNg5R3zZafX8BHdwBhrmO5bSKq)" vector-effect="non-scaling-stroke" stroke-width="0.5" stroke="rgb(255,255,255)" stroke-linejoin="miter" stroke-linecap="butt" stroke-miterlimit="10"/></g></g><g clip-path="url(#_clipPath_YQtFLYI3YTjw29PBvGXhZBFqrjXcHmVS)"><text transform="matrix(1,0,0,1,93.187,20.629)" style="font-family:'Open Sans';font-weight:400;font-size:14px;font-style:normal;fill:#000000;stroke:none;">AstraZeneca &#x3E; 1ra. dosis</text></g><defs><clipPath id="_clipPath_YQtFLYI3YTjw29PBvGXhZBFqrjXcHmVS"><rect x="0" y="0" width="175.87" height="20.67" transform="matrix(1,0,0,1,93.187,5.665)"/></clipPath></defs></g></g><g><g><g><g><path d=" M 19.712 143.98 C 20.993 144.42 22.112 144.7 23.712 145.19 C 23.112 153.04 15.693 149.92 19.712 143.98 Z  M 26.343 136.78 C 26.253 134.42 25.843 131.33 22.532 131.78 C 20.983 132.19 19.843 133.89 19.302 136.78 C 19.048 138.522 19.126 140.297 19.532 142.01 C 19.843 143.01 19.743 142.91 20.083 143.09 C 21.403 143.39 22.712 143.72 24.083 144.09 C 25.413 143.18 26.522 138.09 26.343 136.78 Z  M 16.142 136.6 C 16.545 134.883 16.62 133.105 16.363 131.36 C 15.823 128.42 14.682 126.72 13.132 126.36 C 9.833 125.87 9.412 128.96 9.332 131.36 C 9.142 132.68 10.262 137.76 11.613 138.72 C 12.953 138.38 14.262 138.05 15.613 137.72 C 15.932 137.49 15.813 137.55 16.142 136.6 Z  M 11.932 139.7 C 12.563 147.54 19.933 144.43 15.932 138.48 C 14.682 138.92 13.552 139.2 11.932 139.7 Z " fill="rgb(29,113,184)"/><mask id="_mask_pPV9pdFtzCJ75rPLu2ilMgXAlKrnGFgt" x="-200%" y="-200%" width="400%" height="400%"><rect x="-200%" y="-200%" width="400%" height="400%" style="fill:white;"/><line x1="34.173" y1="128.22" x2="34.173" y2="137.8" fill="black" stroke="none"/></mask><line x1="34.173" y1="128.22" x2="34.173" y2="137.8" mask="url(#_mask_pPV9pdFtzCJ75rPLu2ilMgXAlKrnGFgt)" vector-effect="non-scaling-stroke" stroke-width="0.5" stroke="rgb(255,255,255)" stroke-linejoin="miter" stroke-linecap="butt" stroke-miterlimit="10"/><mask id="_mask_H2k7S1LO8VNpjceI0JGS8O03z5z2RipD" x="-200%" y="-200%" width="400%" height="400%"><rect x="-200%" y="-200%" width="400%" height="400%" style="fill:white;"/><line x1="13.163" y1="118" x2="22.743" y2="118" fill="black" stroke="none"/></mask><line x1="13.163" y1="118" x2="22.743" y2="118" mask="url(#_mask_H2k7S1LO8VNpjceI0JGS8O03z5z2RipD)" vector-effect="non-scaling-stroke" stroke-width="0.5" stroke="rgb(255,255,255)" stroke-linejoin="miter" stroke-linecap="butt" stroke-miterlimit="10"/><mask id="_mask_4DwmtKQkbdnct79F58B3YrzLuSaBMk4u" x="-200%" y="-200%" width="400%" height="400%"><rect x="-200%" y="-200%" width="400%" height="400%" style="fill:white;"/><line x1="1.942" y1="128.22" x2="1.942" y2="137.8" fill="black" stroke="none"/></mask><line x1="1.942" y1="128.22" x2="1.942" y2="137.8" mask="url(#_mask_4DwmtKQkbdnct79F58B3YrzLuSaBMk4u)" vector-effect="non-scaling-stroke" stroke-width="0.5" stroke="rgb(255,255,255)" stroke-linejoin="miter" stroke-linecap="butt" stroke-miterlimit="10"/></g></g><g clip-path="url(#_clipPath_uRdXNMNY2CjljtgrYxS0FdYu80rqE0hL)"><text transform="matrix(1,0,0,1,93.187,138.629)" style="font-family:'Open Sans';font-weight:400;font-size:14px;font-style:normal;fill:#000000;stroke:none;">AstraZeneca &#x3E; 2da. dosis</text></g><defs><clipPath id="_clipPath_uRdXNMNY2CjljtgrYxS0FdYu80rqE0hL"><rect x="0" y="0" width="175.87" height="20.67" transform="matrix(1,0,0,1,93.187,123.665)"/></clipPath></defs><g><g><circle vector-effect="non-scaling-stroke" cx="48.907500002291286" cy="121.99980989668299" r="4" fill="rgb(0,0,0)"/><path d=" M 51.998 128 L 50.908 128 C 50.642 127.998 50.386 128.103 50.197 128.29 L 48.908 129.58 L 47.618 128.29 C 47.426 128.107 47.172 128.003 46.908 128 L 45.808 128 C 44.777 127.995 43.911 128.774 43.807 129.8 L 42.908 138.9 C 42.881 139.182 42.976 139.462 43.167 139.67 C 43.357 139.879 43.625 139.999 43.908 140 L 44.997 140 L 45.818 148.2 C 45.921 149.226 46.787 150.005 47.817 150 L 49.998 150 C 51.028 150.005 51.894 149.226 51.998 148.2 L 52.807 140 L 53.908 140 C 54.19 139.999 54.458 139.879 54.647 139.67 C 54.839 139.462 54.934 139.182 54.908 138.9 L 53.998 129.8 C 53.894 128.774 53.028 127.995 51.998 128 Z " fill="rgb(0,0,0)"/><circle vector-effect="non-scaling-stroke" cx="62.907500002291286" cy="121.99980989668299" r="4" fill="rgb(0,0,0)"/><path d=" M 67.287 138 L 67.908 138 C 68.197 138.002 68.473 137.879 68.665 137.663 C 68.857 137.446 68.945 137.157 68.908 136.87 L 68.008 129.78 C 67.895 128.762 67.032 127.994 66.008 128 L 59.807 128 C 58.787 127.993 57.925 128.756 57.807 129.77 L 56.908 136.87 C 56.87 137.157 56.958 137.446 57.15 137.663 C 57.342 137.879 57.618 138.002 57.908 138 L 58.517 138 L 56.958 142.68 C 56.857 142.985 56.909 143.32 57.097 143.58 C 57.284 143.842 57.586 143.998 57.908 144 L 59.057 144 L 59.778 148.33 C 59.94 149.304 60.79 150.013 61.778 150 L 64.078 150 C 65.065 150.013 65.915 149.304 66.078 148.33 L 66.758 144 L 67.908 144 C 68.229 143.998 68.531 143.842 68.717 143.58 C 68.906 143.32 68.958 142.985 68.858 142.68 L 67.287 138 Z " fill="rgb(0,0,0)"/><path d=" M 52.187 148.49 L 59.578 148.49 C 59.908 148.449 60.156 148.168 60.156 147.835 C 60.156 147.502 59.908 147.221 59.578 147.18 L 57.718 147.18 L 57.718 143.85 L 59.567 143.85 C 59.898 143.809 60.146 143.528 60.146 143.195 C 60.146 142.862 59.898 142.581 59.567 142.54 L 58.637 142.54 L 58.637 129.33 L 57.708 129.33 L 56.777 126.56 L 56.508 126.56 L 56.508 120.09 C 56.467 119.759 56.186 119.511 55.852 119.511 C 55.519 119.511 55.238 119.759 55.197 120.09 L 55.197 126.55 L 54.908 126.55 L 53.998 129.32 L 53.067 129.32 L 53.067 142.52 L 52.168 142.52 C 51.809 142.52 51.517 142.811 51.517 143.17 C 51.517 143.529 51.809 143.82 52.168 143.82 L 54.017 143.82 L 54.017 147.13 L 52.178 147.13 C 52.004 147.13 51.838 147.2 51.718 147.324 C 51.597 147.449 51.532 147.617 51.538 147.79 C 51.524 147.971 51.586 148.149 51.709 148.282 C 51.833 148.415 52.006 148.49 52.187 148.49 Z  M 56.067 132.14 C 56.077 131.967 56.148 131.804 56.267 131.68 C 56.391 131.559 56.555 131.487 56.727 131.48 L 57.968 131.48 L 57.968 132.77 L 56.727 132.77 C 56.367 132.77 56.073 132.48 56.067 132.12 L 56.067 132.14 Z  M 56.067 134.82 C 56.067 134.461 56.359 134.17 56.718 134.17 L 57.958 134.17 L 57.958 135.46 L 56.737 135.46 C 56.564 135.465 56.396 135.4 56.272 135.28 C 56.148 135.159 56.077 134.993 56.078 134.82 L 56.067 134.82 Z  M 56.067 137.5 C 56.067 137.141 56.359 136.85 56.718 136.85 L 57.958 136.85 L 57.958 138.14 L 56.748 138.14 C 56.387 138.14 56.093 137.85 56.088 137.49 L 56.067 137.5 Z  M 56.067 140.18 C 56.062 139.83 56.338 139.541 56.687 139.53 L 57.947 139.53 L 57.947 140.82 L 56.758 140.82 C 56.402 140.82 56.113 140.535 56.107 140.18 L 56.067 140.18 Z " fill="rgb(0,0,0)" vector-effect="non-scaling-stroke" stroke-width="2" stroke="rgb(255,255,255)" stroke-linejoin="miter" stroke-linecap="butt" stroke-miterlimit="10"/><path d=" M 52.187 148.49 L 59.578 148.49 C 59.908 148.449 60.156 148.168 60.156 147.835 C 60.156 147.502 59.908 147.221 59.578 147.18 L 57.718 147.18 L 57.718 143.85 L 59.567 143.85 C 59.898 143.809 60.146 143.528 60.146 143.195 C 60.146 142.862 59.898 142.581 59.567 142.54 L 58.637 142.54 L 58.637 129.33 L 57.708 129.33 L 56.777 126.56 L 56.508 126.56 L 56.508 120.09 C 56.467 119.759 56.186 119.511 55.852 119.511 C 55.519 119.511 55.238 119.759 55.197 120.09 L 55.197 126.55 L 54.908 126.55 L 53.998 129.32 L 53.067 129.32 L 53.067 142.52 L 52.168 142.52 C 51.809 142.52 51.517 142.811 51.517 143.17 C 51.517 143.529 51.809 143.82 52.168 143.82 L 54.017 143.82 L 54.017 147.13 L 52.178 147.13 C 52.004 147.13 51.838 147.2 51.718 147.324 C 51.597 147.449 51.532 147.617 51.538 147.79 C 51.524 147.971 51.586 148.149 51.709 148.282 C 51.833 148.415 52.006 148.49 52.187 148.49 Z  M 56.067 132.14 C 56.077 131.967 56.148 131.804 56.267 131.68 C 56.391 131.559 56.555 131.487 56.727 131.48 L 57.968 131.48 L 57.968 132.77 L 56.727 132.77 C 56.367 132.77 56.073 132.48 56.067 132.12 L 56.067 132.14 Z  M 56.067 134.82 C 56.067 134.461 56.359 134.17 56.718 134.17 L 57.958 134.17 L 57.958 135.46 L 56.737 135.46 C 56.564 135.465 56.396 135.4 56.272 135.28 C 56.148 135.159 56.077 134.993 56.078 134.82 L 56.067 134.82 Z  M 56.067 137.5 C 56.067 137.141 56.359 136.85 56.718 136.85 L 57.958 136.85 L 57.958 138.14 L 56.748 138.14 C 56.387 138.14 56.093 137.85 56.088 137.49 L 56.067 137.5 Z  M 56.067 140.18 C 56.062 139.83 56.338 139.541 56.687 139.53 L 57.947 139.53 L 57.947 140.82 L 56.758 140.82 C 56.402 140.82 56.113 140.535 56.107 140.18 L 56.067 140.18 Z " fill="rgb(0,0,0)"/><g clip-path="url(#_clipPath_OjWXJ4WH0HSOdJVUxSqA57iRBvslM6CB)"><text transform="matrix(1,0,0,1,45.908,136.84)" style="font-family:'Open Sans';font-weight:400;font-size:10px;font-style:normal;font-variant-ligatures:none;fill:[Object GRGBColor];stroke:none;">1</text></g><defs><clipPath id="_clipPath_OjWXJ4WH0HSOdJVUxSqA57iRBvslM6CB"><rect x="0" y="0" width="8" height="13.618" transform="matrix(1,0,0,1,45.908,126.151)"/></clipPath></defs><g clip-path="url(#_clipPath_C5XWRIx6X9RBYHsjuRICKl3NP1u6bA9G)"><text transform="matrix(1,0,0,1,60.618,137.5)" style="font-family:'Open Sans';font-weight:400;font-size:10px;font-style:normal;font-variant-ligatures:none;fill:[Object GRGBColor];stroke:none;">D</text></g><defs><clipPath id="_clipPath_C5XWRIx6X9RBYHsjuRICKl3NP1u6bA9G"><rect x="0" y="0" width="10" height="13.618" transform="matrix(1,0,0,1,60.618,126.811)"/></clipPath></defs><mask id="_mask_fMtpLq9ozlFUhV2Di1MzIPE4i8wZiRLT" x="-200%" y="-200%" width="400%" height="400%"><rect x="-200%" y="-200%" width="400%" height="400%" style="fill:white;"/><line x1="82.908" y1="131.48" x2="82.908" y2="141.06" fill="black" stroke="none"/></mask><line x1="82.908" y1="131.48" x2="82.908" y2="141.06" mask="url(#_mask_fMtpLq9ozlFUhV2Di1MzIPE4i8wZiRLT)" vector-effect="non-scaling-stroke" stroke-width="0.5" stroke="rgb(255,255,255)" stroke-linejoin="miter" stroke-linecap="butt" stroke-miterlimit="10"/></g></g></g></g><g><g><g><circle vector-effect="non-scaling-stroke" cx="49.19180863945414" cy="83.17415353903584" r="4" fill="rgb(0,0,0)"/><path d=" M 52.282 89.174 L 51.192 89.174 C 50.926 89.173 50.671 89.277 50.482 89.464 L 49.192 90.754 L 47.902 89.464 C 47.71 89.281 47.457 89.178 47.192 89.174 L 46.092 89.174 C 45.061 89.169 44.195 89.948 44.092 90.974 L 43.192 100.074 C 43.166 100.356 43.26 100.636 43.452 100.844 C 43.641 101.054 43.91 101.173 44.192 101.174 L 45.282 101.174 L 46.102 109.374 C 46.205 110.4 47.071 111.179 48.102 111.174 L 50.282 111.174 C 51.313 111.179 52.179 110.4 52.282 109.374 L 53.092 101.174 L 54.192 101.174 C 54.474 101.173 54.743 101.054 54.932 100.844 C 55.124 100.636 55.218 100.356 55.192 100.074 L 54.282 90.974 C 54.179 89.948 53.313 89.169 52.282 89.174 Z " fill="rgb(0,0,0)"/><circle vector-effect="non-scaling-stroke" cx="61.19180863945414" cy="83.17415353903584" r="4" fill="rgb(0,0,0)"/><path d=" M 65.582 99.174 L 66.192 99.174 C 66.481 99.177 66.757 99.054 66.949 98.837 C 67.141 98.62 67.229 98.331 67.192 98.044 L 66.292 90.954 C 66.179 89.936 65.316 89.168 64.292 89.174 L 58.092 89.174 C 57.071 89.167 56.209 89.93 56.092 90.944 L 55.192 98.044 C 55.154 98.331 55.243 98.62 55.434 98.837 C 55.626 99.054 55.902 99.177 56.192 99.174 L 56.802 99.174 L 55.242 103.854 C 55.141 104.159 55.193 104.494 55.382 104.754 C 55.568 105.016 55.87 105.173 56.192 105.174 L 57.342 105.174 L 58.062 109.504 C 58.225 110.478 59.074 111.188 60.062 111.174 L 62.362 111.174 C 63.349 111.188 64.199 110.478 64.362 109.504 L 65.042 105.174 L 66.192 105.174 C 66.514 105.173 66.815 105.016 67.002 104.754 C 67.19 104.494 67.242 104.159 67.142 103.854 L 65.582 99.174 Z " fill="rgb(0,0,0)"/><g clip-path="url(#_clipPath_PTyV7cbPbsPZWoLHLU6wwDafWsed5orH)"><text transform="matrix(1,0,0,1,66.152,89.394)" style="font-family:'Open Sans';font-weight:400;font-size:10px;font-style:normal;font-variant-ligatures:none;fill:[Object GRGBColor];stroke:none;">18+</text></g><defs><clipPath id="_clipPath_PTyV7cbPbsPZWoLHLU6wwDafWsed5orH"><rect x="0" y="0" width="20" height="13.618" transform="matrix(1,0,0,1,66.152,78.706)"/></clipPath></defs></g></g><g><g><path d=" M 19.712 102.98 C 20.993 103.42 22.112 103.7 23.712 104.19 C 23.112 112.04 15.693 108.92 19.712 102.98 Z  M 26.343 95.78 C 26.253 93.42 25.843 90.33 22.532 90.78 C 20.983 91.19 19.843 92.89 19.302 95.78 C 19.048 97.522 19.126 99.297 19.532 101.01 C 19.843 102.01 19.743 101.91 20.083 102.09 C 21.403 102.39 22.712 102.72 24.083 103.09 C 25.413 102.18 26.522 97.09 26.343 95.78 Z  M 16.142 95.6 C 16.545 93.883 16.62 92.105 16.363 90.36 C 15.823 87.42 14.682 85.72 13.132 85.36 C 9.833 84.87 9.412 87.96 9.332 90.36 C 9.142 91.68 10.262 96.76 11.613 97.72 C 12.953 97.38 14.262 97.05 15.613 96.72 C 15.932 96.49 15.813 96.55 16.142 95.6 Z  M 11.932 98.7 C 12.563 106.54 19.933 103.43 15.932 97.48 C 14.682 97.92 13.552 98.2 11.932 98.7 Z " fill="rgb(29,113,184)"/><mask id="_mask_aAXvUVUZ38HZIa0GbiwwjMME2G8RNsU4" x="-200%" y="-200%" width="400%" height="400%"><rect x="-200%" y="-200%" width="400%" height="400%" style="fill:white;"/><line x1="34.173" y1="87.22" x2="34.173" y2="96.8" fill="black" stroke="none"/></mask><line x1="34.173" y1="87.22" x2="34.173" y2="96.8" mask="url(#_mask_aAXvUVUZ38HZIa0GbiwwjMME2G8RNsU4)" vector-effect="non-scaling-stroke" stroke-width="0.5" stroke="rgb(255,255,255)" stroke-linejoin="miter" stroke-linecap="butt" stroke-miterlimit="10"/><mask id="_mask_veRCci0t31ZhWEr8qiFQAUYUMZRf7w2v" x="-200%" y="-200%" width="400%" height="400%"><rect x="-200%" y="-200%" width="400%" height="400%" style="fill:white;"/><line x1="13.163" y1="77" x2="22.743" y2="77" fill="black" stroke="none"/></mask><line x1="13.163" y1="77" x2="22.743" y2="77" mask="url(#_mask_veRCci0t31ZhWEr8qiFQAUYUMZRf7w2v)" vector-effect="non-scaling-stroke" stroke-width="0.5" stroke="rgb(255,255,255)" stroke-linejoin="miter" stroke-linecap="butt" stroke-miterlimit="10"/><mask id="_mask_qDKnALtnHy2VUIMabV5CzGvP9Hn5CkXe" x="-200%" y="-200%" width="400%" height="400%"><rect x="-200%" y="-200%" width="400%" height="400%" style="fill:white;"/><line x1="1.942" y1="87.22" x2="1.942" y2="96.8" fill="black" stroke="none"/></mask><line x1="1.942" y1="87.22" x2="1.942" y2="96.8" mask="url(#_mask_qDKnALtnHy2VUIMabV5CzGvP9Hn5CkXe)" vector-effect="non-scaling-stroke" stroke-width="0.5" stroke="rgb(255,255,255)" stroke-linejoin="miter" stroke-linecap="butt" stroke-miterlimit="10"/></g></g><g><g clip-path="url(#_clipPath_JcqkHip6fJPEm2KxF7HAwkM8bfvphUkP)"><text transform="matrix(1,0,0,1,93.187,97.629)" style="font-family:'Open Sans';font-weight:400;font-size:14px;font-style:normal;fill:#000000;stroke:none;">AstraZeneca &#x3E; 1ra. dosis</text></g><defs><clipPath id="_clipPath_JcqkHip6fJPEm2KxF7HAwkM8bfvphUkP"><rect x="0" y="0" width="175.87" height="20.67" transform="matrix(1,0,0,1,93.187,82.665)"/></clipPath></defs></g></g><g><g><path d=" M 61.71 8.897 C 63.411 8.897 64.79 7.518 64.79 5.817 C 64.79 4.116 63.411 2.737 61.71 2.737 C 60.009 2.737 58.63 4.116 58.63 5.817 C 58.63 6.634 58.955 7.417 59.532 7.995 C 60.11 8.573 60.893 8.897 61.71 8.897 Z " fill="rgb(0,0,0)"/><path d=" M 68.91 19.077 C 68.91 17.547 67.32 15.077 65.55 14.697 L 65.45 14.647 L 65.45 14.647 L 65.45 13.787 C 65.44 12.574 64.849 11.44 63.86 10.737 C 63.759 10.667 63.652 10.607 63.54 10.557 L 61.7 9.737 L 61.7 9.737 C 61.176 9.496 60.554 9.669 60.23 10.147 L 56.09 16.237 C 55.713 16.763 55.829 17.494 56.35 17.877 C 56.439 17.941 56.537 17.991 56.64 18.027 L 62.83 20.347 C 62.966 20.403 63.113 20.431 63.26 20.427 C 63.759 20.423 64.202 20.107 64.37 19.637 C 64.585 19.011 64.261 18.327 63.64 18.097 L 58.89 16.327 L 60.56 13.857 L 59.77 15.997 L 63.88 17.537 C 64.682 17.821 65.161 18.644 65.012 19.481 C 64.864 20.319 64.131 20.926 63.28 20.917 C 63.068 20.912 62.859 20.871 62.66 20.797 L 57.66 18.927 L 55.8 24.837 C 55.644 25.285 55.672 25.777 55.878 26.205 C 56.084 26.632 56.452 26.961 56.9 27.117 C 57.096 27.185 57.303 27.219 57.51 27.217 L 60.19 27.217 L 60.19 33.147 C 60.143 33.729 60.427 34.287 60.925 34.593 C 61.422 34.898 62.049 34.898 62.546 34.593 C 63.043 34.287 63.327 33.729 63.28 33.147 L 63.28 27.147 L 65.95 27.147 C 66.942 27.153 67.754 26.359 67.77 25.367 C 67.768 25.163 67.734 24.961 67.67 24.767 L 67 22.737 C 68.24 21.941 68.967 20.549 68.91 19.077 Z " fill="rgb(0,0,0)"/><path d=" M 43.41 19.407 L 43.17 20.097 C 42.931 20.776 43.241 21.526 43.89 21.837 C 44.069 21.919 44.263 21.963 44.46 21.967 C 45.05 21.966 45.575 21.594 45.77 21.037 L 47.36 16.427 L 47.36 17.427 L 45.3 24.427 C 45.255 24.84 45.47 25.238 45.84 25.427 C 45.983 25.509 46.146 25.547 46.31 25.537 L 47.41 25.537 L 47.41 33.017 C 47.398 33.922 48.097 34.679 49 34.737 C 49.441 34.759 49.872 34.604 50.198 34.308 C 50.524 34.012 50.719 33.597 50.74 33.157 L 50.74 26.157 C 50.74 26.006 50.8 25.861 50.907 25.754 C 51.014 25.647 51.159 25.587 51.31 25.587 L 51.31 25.587 C 51.461 25.587 51.606 25.647 51.713 25.754 C 51.82 25.861 51.88 26.006 51.88 26.157 L 51.88 33.067 C 51.894 33.953 52.586 34.68 53.47 34.737 C 53.911 34.759 54.342 34.604 54.668 34.308 C 54.994 34.012 55.19 33.597 55.21 33.157 L 55.21 25.557 L 56.28 25.557 C 56.444 25.565 56.607 25.527 56.75 25.447 C 57.124 25.261 57.344 24.863 57.3 24.447 L 55.24 17.447 L 55.24 16.447 L 56.83 21.057 C 57.027 21.63 57.575 22.007 58.18 21.987 C 58.633 21.98 59.054 21.754 59.308 21.379 C 59.563 21.005 59.62 20.531 59.46 20.107 L 56.16 10.737 C 55.942 10.155 55.371 9.782 54.75 9.817 L 47.86 9.817 C 47.238 9.784 46.664 10.155 46.44 10.737 L 43.81 18.297" fill="rgb(0,0,0)"/><circle vector-effect="non-scaling-stroke" cx="51.330213036346414" cy="5.767039004726902" r="3.009999999999998" fill="rgb(0,0,0)"/><path d=" M 55.32 12.867 C 55.158 11.646 54.277 10.642 53.087 10.322 C 51.897 10.003 50.632 10.431 49.88 11.407 L 47.88 14.067 C 47.074 15.032 46.955 16.398 47.583 17.487 C 48.21 18.577 49.451 19.16 50.69 18.947 C 51.479 18.853 52.198 18.45 52.69 17.827 L 54.74 15.157 C 55.23 14.512 55.445 13.7 55.34 12.897 L 55.32 12.867 Z  M 53.82 11.277 C 54.913 12.121 55.119 13.69 54.28 14.787 L 53.49 15.787 L 52.79 15.737 C 52.884 15.522 52.938 15.292 52.95 15.057 C 53.221 14.968 53.468 14.817 53.67 14.617 L 53.67 14.617 C 53.794 14.711 53.971 14.686 54.065 14.562 C 54.159 14.438 54.134 14.261 54.01 14.167 L 54.01 14.167 C 54.425 13.34 54.199 12.336 53.469 11.767 C 52.74 11.199 51.711 11.224 51.01 11.827 L 51.01 11.827 C 50.88 11.746 50.708 11.781 50.62 11.907 C 50.533 12.011 50.533 12.163 50.62 12.267 L 50.62 12.267 C 50.481 12.509 50.399 12.779 50.38 13.057 C 50.177 13.129 49.985 13.23 49.81 13.357 L 49.62 12.607 L 50.32 11.737 C 51.164 10.649 52.729 10.448 53.82 11.287 L 53.82 11.277 Z  M 50.39 15.517 L 49.98 13.977 C 50.111 13.848 50.263 13.743 50.43 13.667 C 50.529 14.085 50.761 14.461 51.09 14.737 C 51.454 15.006 51.898 15.143 52.35 15.127 C 52.319 15.31 52.254 15.487 52.16 15.647 L 50.39 15.517 Z  M 52.9 12.027 C 52.68 12.413 52.712 12.893 52.98 13.247 L 53.04 13.297 C 53.136 13.376 53.274 13.376 53.37 13.297 C 53.429 13.255 53.468 13.191 53.48 13.12 C 53.491 13.048 53.473 12.975 53.43 12.917 L 53.43 12.917 C 53.3 12.747 53.281 12.517 53.38 12.327 C 53.86 12.877 53.832 13.704 53.317 14.222 C 52.802 14.739 51.975 14.769 51.423 14.292 C 50.871 13.814 50.783 12.991 51.22 12.407 L 51.22 12.407 C 51.625 11.893 52.332 11.731 52.92 12.017 L 52.92 12.017 L 52.9 12.027 Z  M 49.21 13.197 L 49.8 15.437 L 47.86 15.277 C 47.938 14.961 48.081 14.665 48.28 14.407 L 49.21 13.197 Z  M 48.73 17.907 C 48.076 17.419 47.703 16.642 47.73 15.827 L 47.73 15.827 L 53.07 16.327 L 52.19 17.447 C 51.792 17.972 51.201 18.316 50.548 18.404 C 49.895 18.492 49.234 18.317 48.71 17.917 L 48.71 17.917 L 48.73 17.907 Z " fill="rgb(244,244,244)"/><g clip-path="url(#_clipPath_TyXcJkmDF67sxsDHhu52dwG4aXeIFLnN)"><text transform="matrix(1,0,0,1,65.91,11.867)" style="font-family:'Open Sans';font-weight:400;font-size:10px;font-style:normal;font-variant-ligatures:none;fill:[Object GRGBColor];stroke:none;">18+</text></g><defs><clipPath id="_clipPath_TyXcJkmDF67sxsDHhu52dwG4aXeIFLnN"><rect x="0" y="0" width="20" height="13.618" transform="matrix(1,0,0,1,65.91,1.179)"/></clipPath></defs></g></g><g><g><g><g><path d=" M 19.712 63.98 C 20.993 64.42 22.112 64.7 23.712 65.19 C 23.112 73.04 15.693 69.92 19.712 63.98 Z  M 26.343 56.78 C 26.253 54.42 25.843 51.33 22.532 51.78 C 20.983 52.19 19.843 53.89 19.302 56.78 C 19.048 58.522 19.126 60.297 19.532 62.01 C 19.843 63.01 19.743 62.91 20.083 63.09 C 21.403 63.39 22.712 63.72 24.083 64.09 C 25.413 63.18 26.522 58.09 26.343 56.78 Z  M 16.142 56.6 C 16.545 54.883 16.62 53.105 16.363 51.36 C 15.823 48.42 14.682 46.72 13.132 46.36 C 9.833 45.87 9.412 48.96 9.332 51.36 C 9.142 52.68 10.262 57.76 11.613 58.72 C 12.953 58.38 14.262 58.05 15.613 57.72 C 15.932 57.49 15.813 57.55 16.142 56.6 Z  M 11.932 59.7 C 12.563 67.54 19.933 64.43 15.932 58.48 C 14.682 58.92 13.552 59.2 11.932 59.7 Z " fill="rgb(29,113,184)"/><mask id="_mask_KpyHCqWcIb4gqjwy9yw3Du1m2PPCMvpL" x="-200%" y="-200%" width="400%" height="400%"><rect x="-200%" y="-200%" width="400%" height="400%" style="fill:white;"/><line x1="34.173" y1="48.22" x2="34.173" y2="57.8" fill="black" stroke="none"/></mask><line x1="34.173" y1="48.22" x2="34.173" y2="57.8" mask="url(#_mask_KpyHCqWcIb4gqjwy9yw3Du1m2PPCMvpL)" vector-effect="non-scaling-stroke" stroke-width="0.5" stroke="rgb(255,255,255)" stroke-linejoin="miter" stroke-linecap="butt" stroke-miterlimit="10"/><mask id="_mask_Iim1hunmkTI47tl1srSuOuphxTwZ5Vyh" x="-200%" y="-200%" width="400%" height="400%"><rect x="-200%" y="-200%" width="400%" height="400%" style="fill:white;"/><line x1="13.163" y1="38" x2="22.743" y2="38" fill="black" stroke="none"/></mask><line x1="13.163" y1="38" x2="22.743" y2="38" mask="url(#_mask_Iim1hunmkTI47tl1srSuOuphxTwZ5Vyh)" vector-effect="non-scaling-stroke" stroke-width="0.5" stroke="rgb(255,255,255)" stroke-linejoin="miter" stroke-linecap="butt" stroke-miterlimit="10"/><mask id="_mask_R4GeZLQ1ex8i4mXwN8xKOSyzkQ3TY0Rb" x="-200%" y="-200%" width="400%" height="400%"><rect x="-200%" y="-200%" width="400%" height="400%" style="fill:white;"/><line x1="1.942" y1="48.22" x2="1.942" y2="57.8" fill="black" stroke="none"/></mask><line x1="1.942" y1="48.22" x2="1.942" y2="57.8" mask="url(#_mask_R4GeZLQ1ex8i4mXwN8xKOSyzkQ3TY0Rb)" vector-effect="non-scaling-stroke" stroke-width="0.5" stroke="rgb(255,255,255)" stroke-linejoin="miter" stroke-linecap="butt" stroke-miterlimit="10"/></g></g><g clip-path="url(#_clipPath_mjHmAtkM8bRqjbnPPi0CqI3K5jXGjddH)"><text transform="matrix(1,0,0,1,93.187,58.629)" style="font-family:'Open Sans';font-weight:400;font-size:14px;font-style:normal;fill:#000000;stroke:none;">AstraZeneca &#x3E; 2da. dosis</text></g><defs><clipPath id="_clipPath_mjHmAtkM8bRqjbnPPi0CqI3K5jXGjddH"><rect x="0" y="0" width="175.87" height="20.67" transform="matrix(1,0,0,1,93.187,43.665)"/></clipPath></defs></g></g><g><g><path d=" M 61.71 46.897 C 63.411 46.897 64.79 45.518 64.79 43.817 C 64.79 42.116 63.411 40.737 61.71 40.737 C 60.009 40.737 58.63 42.116 58.63 43.817 C 58.63 44.634 58.955 45.417 59.532 45.995 C 60.11 46.573 60.893 46.897 61.71 46.897 Z " fill="rgb(0,0,0)"/><path d=" M 68.91 57.077 C 68.91 55.547 67.32 53.077 65.55 52.697 L 65.45 52.647 L 65.45 52.647 L 65.45 51.787 C 65.44 50.574 64.849 49.44 63.86 48.737 C 63.759 48.667 63.652 48.607 63.54 48.557 L 61.7 47.737 L 61.7 47.737 C 61.176 47.496 60.554 47.669 60.23 48.147 L 56.09 54.237 C 55.713 54.763 55.829 55.494 56.35 55.877 C 56.439 55.941 56.537 55.991 56.64 56.027 L 62.83 58.347 C 62.966 58.403 63.113 58.431 63.26 58.427 C 63.759 58.423 64.202 58.107 64.37 57.637 C 64.585 57.011 64.261 56.327 63.64 56.097 L 58.89 54.327 L 60.56 51.857 L 59.77 53.997 L 63.88 55.537 C 64.682 55.821 65.161 56.644 65.012 57.481 C 64.864 58.319 64.131 58.926 63.28 58.917 C 63.068 58.912 62.859 58.871 62.66 58.797 L 57.66 56.927 L 55.8 62.837 C 55.644 63.285 55.672 63.777 55.878 64.205 C 56.084 64.632 56.452 64.961 56.9 65.117 C 57.096 65.185 57.303 65.219 57.51 65.217 L 60.19 65.217 L 60.19 71.147 C 60.143 71.729 60.427 72.287 60.925 72.593 C 61.422 72.898 62.049 72.898 62.546 72.593 C 63.043 72.287 63.327 71.729 63.28 71.147 L 63.28 65.147 L 65.95 65.147 C 66.942 65.153 67.754 64.359 67.77 63.367 C 67.768 63.163 67.734 62.961 67.67 62.767 L 67 60.737 C 68.24 59.941 68.967 58.549 68.91 57.077 Z " fill="rgb(0,0,0)"/><path d=" M 43.41 57.407 L 43.17 58.097 C 42.931 58.776 43.241 59.526 43.89 59.837 C 44.069 59.919 44.263 59.963 44.46 59.967 C 45.05 59.966 45.575 59.594 45.77 59.037 L 47.36 54.427 L 47.36 55.427 L 45.3 62.427 C 45.255 62.84 45.47 63.238 45.84 63.427 C 45.983 63.509 46.146 63.547 46.31 63.537 L 47.41 63.537 L 47.41 71.017 C 47.398 71.922 48.097 72.679 49 72.737 C 49.441 72.759 49.872 72.604 50.198 72.308 C 50.524 72.012 50.719 71.597 50.74 71.157 L 50.74 64.157 C 50.74 64.006 50.8 63.861 50.907 63.754 C 51.014 63.647 51.159 63.587 51.31 63.587 L 51.31 63.587 C 51.461 63.587 51.606 63.647 51.713 63.754 C 51.82 63.861 51.88 64.006 51.88 64.157 L 51.88 71.067 C 51.894 71.953 52.586 72.68 53.47 72.737 C 53.911 72.759 54.342 72.604 54.668 72.308 C 54.994 72.012 55.19 71.597 55.21 71.157 L 55.21 63.557 L 56.28 63.557 C 56.444 63.565 56.607 63.527 56.75 63.447 C 57.124 63.261 57.344 62.863 57.3 62.447 L 55.24 55.447 L 55.24 54.447 L 56.83 59.057 C 57.027 59.63 57.575 60.007 58.18 59.987 C 58.633 59.98 59.054 59.754 59.308 59.379 C 59.563 59.005 59.62 58.531 59.46 58.107 L 56.16 48.737 C 55.942 48.155 55.371 47.782 54.75 47.817 L 47.86 47.817 C 47.238 47.784 46.664 48.155 46.44 48.737 L 43.81 56.297" fill="rgb(0,0,0)"/><circle vector-effect="non-scaling-stroke" cx="51.330213036346414" cy="43.767039004726904" r="3.009999999999998" fill="rgb(0,0,0)"/><path d=" M 55.32 50.867 C 55.158 49.646 54.277 48.642 53.087 48.322 C 51.897 48.003 50.632 48.431 49.88 49.407 L 47.88 52.067 C 47.074 53.032 46.955 54.398 47.583 55.487 C 48.21 56.577 49.451 57.16 50.69 56.947 C 51.479 56.853 52.198 56.45 52.69 55.827 L 54.74 53.157 C 55.23 52.512 55.445 51.7 55.34 50.897 L 55.32 50.867 Z  M 53.82 49.277 C 54.913 50.121 55.119 51.69 54.28 52.787 L 53.49 53.787 L 52.79 53.737 C 52.884 53.522 52.938 53.292 52.95 53.057 C 53.221 52.968 53.468 52.817 53.67 52.617 L 53.67 52.617 C 53.794 52.711 53.971 52.686 54.065 52.562 C 54.159 52.438 54.134 52.261 54.01 52.167 L 54.01 52.167 C 54.425 51.34 54.199 50.336 53.469 49.767 C 52.74 49.199 51.711 49.224 51.01 49.827 L 51.01 49.827 C 50.88 49.746 50.708 49.781 50.62 49.907 C 50.533 50.011 50.533 50.163 50.62 50.267 L 50.62 50.267 C 50.481 50.509 50.399 50.779 50.38 51.057 C 50.177 51.129 49.985 51.23 49.81 51.357 L 49.62 50.607 L 50.32 49.737 C 51.164 48.649 52.729 48.448 53.82 49.287 L 53.82 49.277 Z  M 50.39 53.517 L 49.98 51.977 C 50.111 51.848 50.263 51.743 50.43 51.667 C 50.529 52.085 50.761 52.461 51.09 52.737 C 51.454 53.006 51.898 53.143 52.35 53.127 C 52.319 53.31 52.254 53.487 52.16 53.647 L 50.39 53.517 Z  M 52.9 50.027 C 52.68 50.413 52.712 50.893 52.98 51.247 L 53.04 51.297 C 53.136 51.376 53.274 51.376 53.37 51.297 C 53.429 51.255 53.468 51.191 53.48 51.12 C 53.491 51.048 53.473 50.975 53.43 50.917 L 53.43 50.917 C 53.3 50.747 53.281 50.517 53.38 50.327 C 53.86 50.877 53.832 51.704 53.317 52.222 C 52.802 52.739 51.975 52.769 51.423 52.292 C 50.871 51.814 50.783 50.991 51.22 50.407 L 51.22 50.407 C 51.625 49.893 52.332 49.731 52.92 50.017 L 52.92 50.017 L 52.9 50.027 Z  M 49.21 51.197 L 49.8 53.437 L 47.86 53.277 C 47.938 52.961 48.081 52.665 48.28 52.407 L 49.21 51.197 Z  M 48.73 55.907 C 48.076 55.419 47.703 54.642 47.73 53.827 L 47.73 53.827 L 53.07 54.327 L 52.19 55.447 C 51.792 55.972 51.201 56.316 50.548 56.404 C 49.895 56.492 49.234 56.317 48.71 55.917 L 48.71 55.917 L 48.73 55.907 Z " fill="rgb(244,244,244)"/><g clip-path="url(#_clipPath_8wKQNTxS8Nkd80SW9sNZwmOp9ftl8e69)"><text transform="matrix(1,0,0,1,65.91,49.867)" style="font-family:'Open Sans';font-weight:400;font-size:10px;font-style:normal;font-variant-ligatures:none;fill:[Object GRGBColor];stroke:none;">18+</text></g><defs><clipPath id="_clipPath_8wKQNTxS8Nkd80SW9sNZwmOp9ftl8e69"><rect x="0" y="0" width="20" height="13.618" transform="matrix(1,0,0,1,65.91,39.179)"/></clipPath></defs></g></g></g></svg>