<?xml version="1.0" encoding="UTF-8" standalone="no"?><!-- Generator: Gravit.io --><svg xmlns="http://www.w3.org/2000/svg" xmlns:xlink="http://www.w3.org/1999/xlink" style="isolation:isolate" viewBox="0 0 265 160" width="265pt" height="160pt"><defs><clipPath id="_clipPath_Cnljui69neIohRiQoO71uX9hiZGa15pu"><rect width="265" height="160"/></clipPath></defs><g clip-path="url(#_clipPath_Cnljui69neIohRiQoO71uX9hiZGa15pu)"><g><g><g><path d=" M 22.712 27.98 C 23.993 28.42 25.112 28.7 26.712 29.19 C 26.112 37.04 18.693 33.92 22.712 27.98 Z  M 29.343 20.78 C 29.253 18.42 28.843 15.33 25.532 15.78 C 23.983 16.19 22.843 17.89 22.302 20.78 C 22.048 22.522 22.126 24.297 22.532 26.01 C 22.843 27.01 22.743 26.91 23.083 27.09 C 24.403 27.39 25.712 27.72 27.083 28.09 C 28.413 27.18 29.522 22.09 29.343 20.78 Z  M 19.142 20.6 C 19.545 18.883 19.62 17.105 19.363 15.36 C 18.823 12.42 17.682 10.72 16.132 10.36 C 12.833 9.87 12.412 12.96 12.332 15.36 C 12.142 16.68 13.262 21.76 14.613 22.72 C 15.953 22.38 17.262 22.05 18.613 21.72 C 18.932 21.49 18.813 21.55 19.142 20.6 Z  M 14.932 23.7 C 15.563 31.54 22.933 28.43 18.932 22.48 C 17.682 22.92 16.552 23.2 14.932 23.7 Z " fill="rgb(29,113,184)"/><mask id="_mask_DAsVyu2DWfisD4c7GPUdMBwDbvu9GbUH" x="-200%" y="-200%" width="400%" height="400%"><rect x="-200%" y="-200%" width="400%" height="400%" style="fill:white;"/><line x1="37.173" y1="12.22" x2="37.173" y2="21.8" fill="black" stroke="none"/></mask><line x1="37.173" y1="12.22" x2="37.173" y2="21.8" mask="url(#_mask_DAsVyu2DWfisD4c7GPUdMBwDbvu9GbUH)" vector-effect="non-scaling-stroke" stroke-width="0.5" stroke="rgb(255,255,255)" stroke-linejoin="miter" stroke-linecap="butt" stroke-miterlimit="10"/><mask id="_mask_ayZYVxZtUAdbWw6PH3eGcGTisTTrqdii" x="-200%" y="-200%" width="400%" height="400%"><rect x="-200%" y="-200%" width="400%" height="400%" style="fill:white;"/><line x1="16.163" y1="2" x2="25.743" y2="2" fill="black" stroke="none"/></mask><line x1="16.163" y1="2" x2="25.743" y2="2" mask="url(#_mask_ayZYVxZtUAdbWw6PH3eGcGTisTTrqdii)" vector-effect="non-scaling-stroke" stroke-width="0.5" stroke="rgb(255,255,255)" stroke-linejoin="miter" stroke-linecap="butt" stroke-miterlimit="10"/><mask id="_mask_EO9P3Yp3kBapnVePWJE7POnFATIkq06B" x="-200%" y="-200%" width="400%" height="400%"><rect x="-200%" y="-200%" width="400%" height="400%" style="fill:white;"/><line x1="4.942" y1="12.22" x2="4.942" y2="21.8" fill="black" stroke="none"/></mask><line x1="4.942" y1="12.22" x2="4.942" y2="21.8" mask="url(#_mask_EO9P3Yp3kBapnVePWJE7POnFATIkq06B)" vector-effect="non-scaling-stroke" stroke-width="0.5" stroke="rgb(255,255,255)" stroke-linejoin="miter" stroke-linecap="butt" stroke-miterlimit="10"/></g></g><g clip-path="url(#_clipPath_CrdSKbgLo6rZyyh6FEL4wUsP4lNwjWbq)"><text transform="matrix(1,0,0,1,96.187,22.569)" style="font-family:'Open Sans';font-weight:400;font-size:14px;font-style:normal;fill:#000000;stroke:none;">AstraZeneca &#x3E; 1ra. dosis</text></g><defs><clipPath id="_clipPath_CrdSKbgLo6rZyyh6FEL4wUsP4lNwjWbq"><rect x="0" y="0" width="175.87" height="20.67" transform="matrix(1,0,0,1,96.187,7.605)"/></clipPath></defs><g><g><circle vector-effect="non-scaling-stroke" cx="52.19180863945414" cy="6.174153539035828" r="4" fill="rgb(0,0,0)"/><path d=" M 55.282 12.174 L 54.192 12.174 C 53.926 12.173 53.671 12.277 53.482 12.464 L 52.192 13.754 L 50.902 12.464 C 50.71 12.281 50.457 12.178 50.192 12.174 L 49.092 12.174 C 48.061 12.169 47.195 12.948 47.092 13.974 L 46.192 23.074 C 46.166 23.356 46.26 23.636 46.452 23.844 C 46.641 24.054 46.91 24.173 47.192 24.174 L 48.282 24.174 L 49.102 32.374 C 49.205 33.4 50.071 34.179 51.102 34.174 L 53.282 34.174 C 54.313 34.179 55.179 33.4 55.282 32.374 L 56.092 24.174 L 57.192 24.174 C 57.474 24.173 57.743 24.054 57.932 23.844 C 58.124 23.636 58.218 23.356 58.192 23.074 L 57.282 13.974 C 57.179 12.948 56.313 12.169 55.282 12.174 Z " fill="rgb(0,0,0)"/><circle vector-effect="non-scaling-stroke" cx="64.19180863945414" cy="6.174153539035828" r="4" fill="rgb(0,0,0)"/><path d=" M 68.582 22.174 L 69.192 22.174 C 69.481 22.177 69.757 22.054 69.949 21.837 C 70.141 21.62 70.229 21.331 70.192 21.044 L 69.292 13.954 C 69.179 12.936 68.316 12.168 67.292 12.174 L 61.092 12.174 C 60.071 12.167 59.209 12.93 59.092 13.944 L 58.192 21.044 C 58.154 21.331 58.243 21.62 58.434 21.837 C 58.626 22.054 58.902 22.177 59.192 22.174 L 59.802 22.174 L 58.242 26.854 C 58.141 27.159 58.193 27.494 58.382 27.754 C 58.568 28.016 58.87 28.173 59.192 28.174 L 60.342 28.174 L 61.062 32.504 C 61.225 33.478 62.074 34.188 63.062 34.174 L 65.362 34.174 C 66.349 34.188 67.199 33.478 67.362 32.504 L 68.042 28.174 L 69.192 28.174 C 69.514 28.173 69.815 28.016 70.002 27.754 C 70.19 27.494 70.242 27.159 70.142 26.854 L 68.582 22.174 Z " fill="rgb(0,0,0)"/><g clip-path="url(#_clipPath_PqSilA9NfNAjcPOryDWks2ovRYcs8oqA)"><text transform="matrix(1,0,0,1,69.152,12.394)" style="font-family:'Open Sans';font-weight:400;font-size:10px;font-style:normal;font-variant-ligatures:none;fill:[Object GRGBColor];stroke:none;">18+</text></g><defs><clipPath id="_clipPath_PqSilA9NfNAjcPOryDWks2ovRYcs8oqA"><rect x="0" y="0" width="20" height="13.618" transform="matrix(1,0,0,1,69.152,1.706)"/></clipPath></defs></g></g></g><g><g><g><path d=" M 22.712 68.98 C 23.993 69.42 25.112 69.7 26.712 70.19 C 26.112 78.04 18.693 74.92 22.712 68.98 Z  M 29.343 61.78 C 29.253 59.42 28.843 56.33 25.532 56.78 C 23.983 57.19 22.843 58.89 22.302 61.78 C 22.048 63.522 22.126 65.297 22.532 67.01 C 22.843 68.01 22.743 67.91 23.083 68.09 C 24.403 68.39 25.712 68.72 27.083 69.09 C 28.413 68.18 29.522 63.09 29.343 61.78 Z  M 19.142 61.6 C 19.545 59.883 19.62 58.105 19.363 56.36 C 18.823 53.42 17.682 51.72 16.132 51.36 C 12.833 50.87 12.412 53.96 12.332 56.36 C 12.142 57.68 13.262 62.76 14.613 63.72 C 15.953 63.38 17.262 63.05 18.613 62.72 C 18.932 62.49 18.813 62.55 19.142 61.6 Z  M 14.932 64.7 C 15.563 72.54 22.933 69.43 18.932 63.48 C 17.682 63.92 16.552 64.2 14.932 64.7 Z " fill="rgb(29,113,184)"/><mask id="_mask_EmjIWdvxHaYBrK8FGwgWPYgdSPIu6nC3" x="-200%" y="-200%" width="400%" height="400%"><rect x="-200%" y="-200%" width="400%" height="400%" style="fill:white;"/><line x1="37.173" y1="53.22" x2="37.173" y2="62.8" fill="black" stroke="none"/></mask><line x1="37.173" y1="53.22" x2="37.173" y2="62.8" mask="url(#_mask_EmjIWdvxHaYBrK8FGwgWPYgdSPIu6nC3)" vector-effect="non-scaling-stroke" stroke-width="0.5" stroke="rgb(255,255,255)" stroke-linejoin="miter" stroke-linecap="butt" stroke-miterlimit="10"/><mask id="_mask_Q0ELsmjQ09VqVFbz2PpMtdHMU3Prlswz" x="-200%" y="-200%" width="400%" height="400%"><rect x="-200%" y="-200%" width="400%" height="400%" style="fill:white;"/><line x1="16.163" y1="43" x2="25.743" y2="43" fill="black" stroke="none"/></mask><line x1="16.163" y1="43" x2="25.743" y2="43" mask="url(#_mask_Q0ELsmjQ09VqVFbz2PpMtdHMU3Prlswz)" vector-effect="non-scaling-stroke" stroke-width="0.5" stroke="rgb(255,255,255)" stroke-linejoin="miter" stroke-linecap="butt" stroke-miterlimit="10"/><mask id="_mask_72aJNQh123fzjye2YUebyIEsuXP0GMen" x="-200%" y="-200%" width="400%" height="400%"><rect x="-200%" y="-200%" width="400%" height="400%" style="fill:white;"/><line x1="4.942" y1="53.22" x2="4.942" y2="62.8" fill="black" stroke="none"/></mask><line x1="4.942" y1="53.22" x2="4.942" y2="62.8" mask="url(#_mask_72aJNQh123fzjye2YUebyIEsuXP0GMen)" vector-effect="non-scaling-stroke" stroke-width="0.5" stroke="rgb(255,255,255)" stroke-linejoin="miter" stroke-linecap="butt" stroke-miterlimit="10"/></g></g><g clip-path="url(#_clipPath_p4ttJwjDYI3pzZQ4ilNeJoEVgwlOYOx5)"><text transform="matrix(1,0,0,1,96.187,63.629)" style="font-family:'Open Sans';font-weight:400;font-size:14px;font-style:normal;fill:#000000;stroke:none;">AstraZeneca &#x3E; 2da. dosis</text></g><defs><clipPath id="_clipPath_p4ttJwjDYI3pzZQ4ilNeJoEVgwlOYOx5"><rect x="0" y="0" width="175.87" height="20.67" transform="matrix(1,0,0,1,96.187,48.665)"/></clipPath></defs><g><g><circle vector-effect="non-scaling-stroke" cx="51.907500002291286" cy="46.999809896683" r="4" fill="rgb(0,0,0)"/><path d=" M 54.998 53 L 53.908 53 C 53.642 52.998 53.386 53.103 53.197 53.29 L 51.908 54.58 L 50.618 53.29 C 50.426 53.107 50.172 53.003 49.908 53 L 48.808 53 C 47.777 52.995 46.911 53.774 46.807 54.8 L 45.908 63.9 C 45.881 64.182 45.976 64.462 46.167 64.67 C 46.357 64.879 46.625 64.999 46.908 65 L 47.997 65 L 48.818 73.2 C 48.921 74.226 49.787 75.005 50.817 75 L 52.998 75 C 54.028 75.005 54.894 74.226 54.998 73.2 L 55.807 65 L 56.908 65 C 57.19 64.999 57.458 64.879 57.647 64.67 C 57.839 64.462 57.934 64.182 57.908 63.9 L 56.998 54.8 C 56.894 53.774 56.028 52.995 54.998 53 Z " fill="rgb(0,0,0)"/><circle vector-effect="non-scaling-stroke" cx="65.90750000229129" cy="46.999809896683" r="4" fill="rgb(0,0,0)"/><path d=" M 70.287 63 L 70.908 63 C 71.197 63.002 71.473 62.879 71.665 62.663 C 71.857 62.446 71.945 62.157 71.908 61.87 L 71.008 54.78 C 70.895 53.762 70.032 52.994 69.008 53 L 62.807 53 C 61.787 52.993 60.925 53.756 60.807 54.77 L 59.908 61.87 C 59.87 62.157 59.958 62.446 60.15 62.663 C 60.342 62.879 60.618 63.002 60.908 63 L 61.517 63 L 59.958 67.68 C 59.857 67.985 59.909 68.32 60.097 68.58 C 60.284 68.842 60.586 68.998 60.908 69 L 62.057 69 L 62.778 73.33 C 62.94 74.304 63.79 75.013 64.778 75 L 67.078 75 C 68.065 75.013 68.915 74.304 69.078 73.33 L 69.758 69 L 70.908 69 C 71.229 68.998 71.531 68.842 71.717 68.58 C 71.906 68.32 71.958 67.985 71.858 67.68 L 70.287 63 Z " fill="rgb(0,0,0)"/><path d=" M 55.187 73.49 L 62.578 73.49 C 62.908 73.449 63.156 73.168 63.156 72.835 C 63.156 72.502 62.908 72.221 62.578 72.18 L 60.718 72.18 L 60.718 68.85 L 62.567 68.85 C 62.898 68.809 63.146 68.528 63.146 68.195 C 63.146 67.862 62.898 67.581 62.567 67.54 L 61.637 67.54 L 61.637 54.33 L 60.708 54.33 L 59.777 51.56 L 59.508 51.56 L 59.508 45.09 C 59.467 44.759 59.186 44.511 58.852 44.511 C 58.519 44.511 58.238 44.759 58.197 45.09 L 58.197 51.55 L 57.908 51.55 L 56.998 54.32 L 56.067 54.32 L 56.067 67.52 L 55.168 67.52 C 54.809 67.52 54.517 67.811 54.517 68.17 C 54.517 68.529 54.809 68.82 55.168 68.82 L 57.017 68.82 L 57.017 72.13 L 55.178 72.13 C 55.004 72.13 54.838 72.2 54.718 72.324 C 54.597 72.449 54.532 72.617 54.538 72.79 C 54.524 72.971 54.586 73.149 54.709 73.282 C 54.833 73.415 55.006 73.49 55.187 73.49 Z  M 59.067 57.14 C 59.077 56.967 59.148 56.804 59.267 56.68 C 59.391 56.559 59.555 56.487 59.727 56.48 L 60.968 56.48 L 60.968 57.77 L 59.727 57.77 C 59.367 57.77 59.073 57.48 59.067 57.12 L 59.067 57.14 Z  M 59.067 59.82 C 59.067 59.461 59.359 59.17 59.718 59.17 L 60.958 59.17 L 60.958 60.46 L 59.737 60.46 C 59.564 60.465 59.396 60.4 59.272 60.28 C 59.148 60.159 59.077 59.993 59.078 59.82 L 59.067 59.82 Z  M 59.067 62.5 C 59.067 62.141 59.359 61.85 59.718 61.85 L 60.958 61.85 L 60.958 63.14 L 59.748 63.14 C 59.387 63.14 59.093 62.85 59.088 62.49 L 59.067 62.5 Z  M 59.067 65.18 C 59.062 64.83 59.338 64.541 59.687 64.53 L 60.947 64.53 L 60.947 65.82 L 59.758 65.82 C 59.402 65.82 59.113 65.535 59.107 65.18 L 59.067 65.18 Z " fill="rgb(0,0,0)" vector-effect="non-scaling-stroke" stroke-width="2" stroke="rgb(255,255,255)" stroke-linejoin="miter" stroke-linecap="butt" stroke-miterlimit="10"/><path d=" M 55.187 73.49 L 62.578 73.49 C 62.908 73.449 63.156 73.168 63.156 72.835 C 63.156 72.502 62.908 72.221 62.578 72.18 L 60.718 72.18 L 60.718 68.85 L 62.567 68.85 C 62.898 68.809 63.146 68.528 63.146 68.195 C 63.146 67.862 62.898 67.581 62.567 67.54 L 61.637 67.54 L 61.637 54.33 L 60.708 54.33 L 59.777 51.56 L 59.508 51.56 L 59.508 45.09 C 59.467 44.759 59.186 44.511 58.852 44.511 C 58.519 44.511 58.238 44.759 58.197 45.09 L 58.197 51.55 L 57.908 51.55 L 56.998 54.32 L 56.067 54.32 L 56.067 67.52 L 55.168 67.52 C 54.809 67.52 54.517 67.811 54.517 68.17 C 54.517 68.529 54.809 68.82 55.168 68.82 L 57.017 68.82 L 57.017 72.13 L 55.178 72.13 C 55.004 72.13 54.838 72.2 54.718 72.324 C 54.597 72.449 54.532 72.617 54.538 72.79 C 54.524 72.971 54.586 73.149 54.709 73.282 C 54.833 73.415 55.006 73.49 55.187 73.49 Z  M 59.067 57.14 C 59.077 56.967 59.148 56.804 59.267 56.68 C 59.391 56.559 59.555 56.487 59.727 56.48 L 60.968 56.48 L 60.968 57.77 L 59.727 57.77 C 59.367 57.77 59.073 57.48 59.067 57.12 L 59.067 57.14 Z  M 59.067 59.82 C 59.067 59.461 59.359 59.17 59.718 59.17 L 60.958 59.17 L 60.958 60.46 L 59.737 60.46 C 59.564 60.465 59.396 60.4 59.272 60.28 C 59.148 60.159 59.077 59.993 59.078 59.82 L 59.067 59.82 Z  M 59.067 62.5 C 59.067 62.141 59.359 61.85 59.718 61.85 L 60.958 61.85 L 60.958 63.14 L 59.748 63.14 C 59.387 63.14 59.093 62.85 59.088 62.49 L 59.067 62.5 Z  M 59.067 65.18 C 59.062 64.83 59.338 64.541 59.687 64.53 L 60.947 64.53 L 60.947 65.82 L 59.758 65.82 C 59.402 65.82 59.113 65.535 59.107 65.18 L 59.067 65.18 Z " fill="rgb(0,0,0)"/><g clip-path="url(#_clipPath_N0w9slChqwDSnuNMywqb4oCmecc6cpBp)"><text transform="matrix(1,0,0,1,48.908,61.84)" style="font-family:'Open Sans';font-weight:400;font-size:10px;font-style:normal;font-variant-ligatures:none;fill:[Object GRGBColor];stroke:none;">1</text></g><defs><clipPath id="_clipPath_N0w9slChqwDSnuNMywqb4oCmecc6cpBp"><rect x="0" y="0" width="8" height="13.618" transform="matrix(1,0,0,1,48.908,51.151)"/></clipPath></defs><g clip-path="url(#_clipPath_qudLCrfB6Ac4ZnK6npBhKOttartne4IU)"><text transform="matrix(1,0,0,1,63.618,62.5)" style="font-family:'Open Sans';font-weight:400;font-size:10px;font-style:normal;font-variant-ligatures:none;fill:[Object GRGBColor];stroke:none;">D</text></g><defs><clipPath id="_clipPath_qudLCrfB6Ac4ZnK6npBhKOttartne4IU"><rect x="0" y="0" width="10" height="13.618" transform="matrix(1,0,0,1,63.618,51.811)"/></clipPath></defs><mask id="_mask_VkfmQOpmE5073lhvaiKOJiEmYBw5jEDm" x="-200%" y="-200%" width="400%" height="400%"><rect x="-200%" y="-200%" width="400%" height="400%" style="fill:white;"/><line x1="85.908" y1="56.48" x2="85.908" y2="66.06" fill="black" stroke="none"/></mask><line x1="85.908" y1="56.48" x2="85.908" y2="66.06" mask="url(#_mask_VkfmQOpmE5073lhvaiKOJiEmYBw5jEDm)" vector-effect="non-scaling-stroke" stroke-width="0.5" stroke="rgb(255,255,255)" stroke-linejoin="miter" stroke-linecap="butt" stroke-miterlimit="10"/></g></g></g><g><g><g><path d=" M 22.712 147.98 C 23.993 148.42 25.112 148.7 26.712 149.19 C 26.112 157.04 18.693 153.92 22.712 147.98 Z  M 29.343 140.78 C 29.253 138.42 28.843 135.33 25.532 135.78 C 23.983 136.19 22.843 137.89 22.302 140.78 C 22.048 142.522 22.126 144.297 22.532 146.01 C 22.843 147.01 22.743 146.91 23.083 147.09 C 24.403 147.39 25.712 147.72 27.083 148.09 C 28.413 147.18 29.522 142.09 29.343 140.78 Z  M 19.142 140.6 C 19.545 138.883 19.62 137.105 19.363 135.36 C 18.823 132.42 17.682 130.72 16.132 130.36 C 12.833 129.87 12.412 132.96 12.332 135.36 C 12.142 136.68 13.262 141.76 14.613 142.72 C 15.953 142.38 17.262 142.05 18.613 141.72 C 18.932 141.49 18.813 141.55 19.142 140.6 Z  M 14.932 143.7 C 15.563 151.54 22.933 148.43 18.932 142.48 C 17.682 142.92 16.552 143.2 14.932 143.7 Z " fill="rgb(29,113,184)"/><mask id="_mask_maxYyyzEN2d4iZvvN5uygVznuW2AScjd" x="-200%" y="-200%" width="400%" height="400%"><rect x="-200%" y="-200%" width="400%" height="400%" style="fill:white;"/><line x1="37.173" y1="132.22" x2="37.173" y2="141.8" fill="black" stroke="none"/></mask><line x1="37.173" y1="132.22" x2="37.173" y2="141.8" mask="url(#_mask_maxYyyzEN2d4iZvvN5uygVznuW2AScjd)" vector-effect="non-scaling-stroke" stroke-width="0.5" stroke="rgb(255,255,255)" stroke-linejoin="miter" stroke-linecap="butt" stroke-miterlimit="10"/><mask id="_mask_bsMpoF9VGgjVXbTlqnkfIoNQSylNiR8n" x="-200%" y="-200%" width="400%" height="400%"><rect x="-200%" y="-200%" width="400%" height="400%" style="fill:white;"/><line x1="16.163" y1="122" x2="25.743" y2="122" fill="black" stroke="none"/></mask><line x1="16.163" y1="122" x2="25.743" y2="122" mask="url(#_mask_bsMpoF9VGgjVXbTlqnkfIoNQSylNiR8n)" vector-effect="non-scaling-stroke" stroke-width="0.5" stroke="rgb(255,255,255)" stroke-linejoin="miter" stroke-linecap="butt" stroke-miterlimit="10"/><mask id="_mask_spSfAm1IumD9cmmxgFqdqxVYBnG1HlSp" x="-200%" y="-200%" width="400%" height="400%"><rect x="-200%" y="-200%" width="400%" height="400%" style="fill:white;"/><line x1="4.942" y1="132.22" x2="4.942" y2="141.8" fill="black" stroke="none"/></mask><line x1="4.942" y1="132.22" x2="4.942" y2="141.8" mask="url(#_mask_spSfAm1IumD9cmmxgFqdqxVYBnG1HlSp)" vector-effect="non-scaling-stroke" stroke-width="0.5" stroke="rgb(255,255,255)" stroke-linejoin="miter" stroke-linecap="butt" stroke-miterlimit="10"/></g></g><g><g><path d=" M 22.712 106.98 C 23.993 107.42 25.112 107.7 26.712 108.19 C 26.112 116.04 18.693 112.92 22.712 106.98 Z  M 29.343 99.78 C 29.253 97.42 28.843 94.33 25.532 94.78 C 23.983 95.19 22.843 96.89 22.302 99.78 C 22.048 101.522 22.126 103.297 22.532 105.01 C 22.843 106.01 22.743 105.91 23.083 106.09 C 24.403 106.39 25.712 106.72 27.083 107.09 C 28.413 106.18 29.522 101.09 29.343 99.78 Z  M 19.142 99.6 C 19.545 97.883 19.62 96.105 19.363 94.36 C 18.823 91.42 17.682 89.72 16.132 89.36 C 12.833 88.87 12.412 91.96 12.332 94.36 C 12.142 95.68 13.262 100.76 14.613 101.72 C 15.953 101.38 17.262 101.05 18.613 100.72 C 18.932 100.49 18.813 100.55 19.142 99.6 Z  M 14.932 102.7 C 15.563 110.54 22.933 107.43 18.932 101.48 C 17.682 101.92 16.552 102.2 14.932 102.7 Z " fill="rgb(29,113,184)"/><mask id="_mask_7NPiUQXmRbrMs6Zux1BsS0HLxkwealWX" x="-200%" y="-200%" width="400%" height="400%"><rect x="-200%" y="-200%" width="400%" height="400%" style="fill:white;"/><line x1="37.173" y1="91.22" x2="37.173" y2="100.8" fill="black" stroke="none"/></mask><line x1="37.173" y1="91.22" x2="37.173" y2="100.8" mask="url(#_mask_7NPiUQXmRbrMs6Zux1BsS0HLxkwealWX)" vector-effect="non-scaling-stroke" stroke-width="0.5" stroke="rgb(255,255,255)" stroke-linejoin="miter" stroke-linecap="butt" stroke-miterlimit="10"/><mask id="_mask_RfgGDaU3ekfhoMyNeqqyqqn0I6eShkhh" x="-200%" y="-200%" width="400%" height="400%"><rect x="-200%" y="-200%" width="400%" height="400%" style="fill:white;"/><line x1="16.163" y1="81" x2="25.743" y2="81" fill="black" stroke="none"/></mask><line x1="16.163" y1="81" x2="25.743" y2="81" mask="url(#_mask_RfgGDaU3ekfhoMyNeqqyqqn0I6eShkhh)" vector-effect="non-scaling-stroke" stroke-width="0.5" stroke="rgb(255,255,255)" stroke-linejoin="miter" stroke-linecap="butt" stroke-miterlimit="10"/><mask id="_mask_i8J8vMDomvY5Xq86Re4YG4qAnsR5ceYx" x="-200%" y="-200%" width="400%" height="400%"><rect x="-200%" y="-200%" width="400%" height="400%" style="fill:white;"/><line x1="4.942" y1="91.22" x2="4.942" y2="100.8" fill="black" stroke="none"/></mask><line x1="4.942" y1="91.22" x2="4.942" y2="100.8" mask="url(#_mask_i8J8vMDomvY5Xq86Re4YG4qAnsR5ceYx)" vector-effect="non-scaling-stroke" stroke-width="0.5" stroke="rgb(255,255,255)" stroke-linejoin="miter" stroke-linecap="butt" stroke-miterlimit="10"/></g></g><g clip-path="url(#_clipPath_HwdhXRvkJ0PdIaCBOzuAR4yzc13GDGps)"><text transform="matrix(1,0,0,1,96.187,142.629)" style="font-family:'Open Sans';font-weight:400;font-size:14px;font-style:normal;fill:#000000;stroke:none;">Moderna &#x3E; 2da. dosis</text></g><defs><clipPath id="_clipPath_HwdhXRvkJ0PdIaCBOzuAR4yzc13GDGps"><rect x="0" y="0" width="175.87" height="20.67" transform="matrix(1,0,0,1,96.187,127.665)"/></clipPath></defs><g><g><circle vector-effect="non-scaling-stroke" cx="51.907500002291286" cy="125.99980989668299" r="4" fill="rgb(0,0,0)"/><path d=" M 54.998 132 L 53.908 132 C 53.642 131.998 53.386 132.103 53.197 132.29 L 51.908 133.58 L 50.618 132.29 C 50.426 132.107 50.172 132.003 49.908 132 L 48.808 132 C 47.777 131.995 46.911 132.774 46.807 133.8 L 45.908 142.9 C 45.881 143.182 45.976 143.462 46.167 143.67 C 46.357 143.879 46.625 143.999 46.908 144 L 47.997 144 L 48.818 152.2 C 48.921 153.226 49.787 154.005 50.817 154 L 52.998 154 C 54.028 154.005 54.894 153.226 54.998 152.2 L 55.807 144 L 56.908 144 C 57.19 143.999 57.458 143.879 57.647 143.67 C 57.839 143.462 57.934 143.182 57.908 142.9 L 56.998 133.8 C 56.894 132.774 56.028 131.995 54.998 132 Z " fill="rgb(0,0,0)"/><circle vector-effect="non-scaling-stroke" cx="65.90750000229129" cy="125.99980989668299" r="4" fill="rgb(0,0,0)"/><path d=" M 70.287 142 L 70.908 142 C 71.197 142.002 71.473 141.879 71.665 141.663 C 71.857 141.446 71.945 141.157 71.908 140.87 L 71.008 133.78 C 70.895 132.762 70.032 131.994 69.008 132 L 62.807 132 C 61.787 131.993 60.925 132.756 60.807 133.77 L 59.908 140.87 C 59.87 141.157 59.958 141.446 60.15 141.663 C 60.342 141.879 60.618 142.002 60.908 142 L 61.517 142 L 59.958 146.68 C 59.857 146.985 59.909 147.32 60.097 147.58 C 60.284 147.842 60.586 147.998 60.908 148 L 62.057 148 L 62.778 152.33 C 62.94 153.304 63.79 154.013 64.778 154 L 67.078 154 C 68.065 154.013 68.915 153.304 69.078 152.33 L 69.758 148 L 70.908 148 C 71.229 147.998 71.531 147.842 71.717 147.58 C 71.906 147.32 71.958 146.985 71.858 146.68 L 70.287 142 Z " fill="rgb(0,0,0)"/><path d=" M 55.187 152.49 L 62.578 152.49 C 62.908 152.449 63.156 152.168 63.156 151.835 C 63.156 151.502 62.908 151.221 62.578 151.18 L 60.718 151.18 L 60.718 147.85 L 62.567 147.85 C 62.898 147.809 63.146 147.528 63.146 147.195 C 63.146 146.862 62.898 146.581 62.567 146.54 L 61.637 146.54 L 61.637 133.33 L 60.708 133.33 L 59.777 130.56 L 59.508 130.56 L 59.508 124.09 C 59.467 123.759 59.186 123.511 58.852 123.511 C 58.519 123.511 58.238 123.759 58.197 124.09 L 58.197 130.55 L 57.908 130.55 L 56.998 133.32 L 56.067 133.32 L 56.067 146.52 L 55.168 146.52 C 54.809 146.52 54.517 146.811 54.517 147.17 C 54.517 147.529 54.809 147.82 55.168 147.82 L 57.017 147.82 L 57.017 151.13 L 55.178 151.13 C 55.004 151.13 54.838 151.2 54.718 151.324 C 54.597 151.449 54.532 151.617 54.538 151.79 C 54.524 151.971 54.586 152.149 54.709 152.282 C 54.833 152.415 55.006 152.49 55.187 152.49 Z  M 59.067 136.14 C 59.077 135.967 59.148 135.804 59.267 135.68 C 59.391 135.559 59.555 135.487 59.727 135.48 L 60.968 135.48 L 60.968 136.77 L 59.727 136.77 C 59.367 136.77 59.073 136.48 59.067 136.12 L 59.067 136.14 Z  M 59.067 138.82 C 59.067 138.461 59.359 138.17 59.718 138.17 L 60.958 138.17 L 60.958 139.46 L 59.737 139.46 C 59.564 139.465 59.396 139.4 59.272 139.28 C 59.148 139.159 59.077 138.993 59.078 138.82 L 59.067 138.82 Z  M 59.067 141.5 C 59.067 141.141 59.359 140.85 59.718 140.85 L 60.958 140.85 L 60.958 142.14 L 59.748 142.14 C 59.387 142.14 59.093 141.85 59.088 141.49 L 59.067 141.5 Z  M 59.067 144.18 C 59.062 143.83 59.338 143.541 59.687 143.53 L 60.947 143.53 L 60.947 144.82 L 59.758 144.82 C 59.402 144.82 59.113 144.535 59.107 144.18 L 59.067 144.18 Z " fill="rgb(0,0,0)" vector-effect="non-scaling-stroke" stroke-width="2" stroke="rgb(255,255,255)" stroke-linejoin="miter" stroke-linecap="butt" stroke-miterlimit="10"/><path d=" M 55.187 152.49 L 62.578 152.49 C 62.908 152.449 63.156 152.168 63.156 151.835 C 63.156 151.502 62.908 151.221 62.578 151.18 L 60.718 151.18 L 60.718 147.85 L 62.567 147.85 C 62.898 147.809 63.146 147.528 63.146 147.195 C 63.146 146.862 62.898 146.581 62.567 146.54 L 61.637 146.54 L 61.637 133.33 L 60.708 133.33 L 59.777 130.56 L 59.508 130.56 L 59.508 124.09 C 59.467 123.759 59.186 123.511 58.852 123.511 C 58.519 123.511 58.238 123.759 58.197 124.09 L 58.197 130.55 L 57.908 130.55 L 56.998 133.32 L 56.067 133.32 L 56.067 146.52 L 55.168 146.52 C 54.809 146.52 54.517 146.811 54.517 147.17 C 54.517 147.529 54.809 147.82 55.168 147.82 L 57.017 147.82 L 57.017 151.13 L 55.178 151.13 C 55.004 151.13 54.838 151.2 54.718 151.324 C 54.597 151.449 54.532 151.617 54.538 151.79 C 54.524 151.971 54.586 152.149 54.709 152.282 C 54.833 152.415 55.006 152.49 55.187 152.49 Z  M 59.067 136.14 C 59.077 135.967 59.148 135.804 59.267 135.68 C 59.391 135.559 59.555 135.487 59.727 135.48 L 60.968 135.48 L 60.968 136.77 L 59.727 136.77 C 59.367 136.77 59.073 136.48 59.067 136.12 L 59.067 136.14 Z  M 59.067 138.82 C 59.067 138.461 59.359 138.17 59.718 138.17 L 60.958 138.17 L 60.958 139.46 L 59.737 139.46 C 59.564 139.465 59.396 139.4 59.272 139.28 C 59.148 139.159 59.077 138.993 59.078 138.82 L 59.067 138.82 Z  M 59.067 141.5 C 59.067 141.141 59.359 140.85 59.718 140.85 L 60.958 140.85 L 60.958 142.14 L 59.748 142.14 C 59.387 142.14 59.093 141.85 59.088 141.49 L 59.067 141.5 Z  M 59.067 144.18 C 59.062 143.83 59.338 143.541 59.687 143.53 L 60.947 143.53 L 60.947 144.82 L 59.758 144.82 C 59.402 144.82 59.113 144.535 59.107 144.18 L 59.067 144.18 Z " fill="rgb(0,0,0)"/><g clip-path="url(#_clipPath_BP3qvsyz4mGc1lmHCTYsKGIcMNt9Pue3)"><text transform="matrix(1,0,0,1,48.908,140.84)" style="font-family:'Open Sans';font-weight:400;font-size:10px;font-style:normal;font-variant-ligatures:none;fill:[Object GRGBColor];stroke:none;">1</text></g><defs><clipPath id="_clipPath_BP3qvsyz4mGc1lmHCTYsKGIcMNt9Pue3"><rect x="0" y="0" width="8" height="13.618" transform="matrix(1,0,0,1,48.908,130.151)"/></clipPath></defs><g clip-path="url(#_clipPath_cWZrrqrSh1nUqh6P8SxaPBLaywbYVh1n)"><text transform="matrix(1,0,0,1,63.618,141.5)" style="font-family:'Open Sans';font-weight:400;font-size:10px;font-style:normal;font-variant-ligatures:none;fill:[Object GRGBColor];stroke:none;">D</text></g><defs><clipPath id="_clipPath_cWZrrqrSh1nUqh6P8SxaPBLaywbYVh1n"><rect x="0" y="0" width="10" height="13.618" transform="matrix(1,0,0,1,63.618,130.811)"/></clipPath></defs><mask id="_mask_Ti2BFhpga6KKaIJWIPdtqdHNCWqndaRn" x="-200%" y="-200%" width="400%" height="400%"><rect x="-200%" y="-200%" width="400%" height="400%" style="fill:white;"/><line x1="85.908" y1="135.48" x2="85.908" y2="145.06" fill="black" stroke="none"/></mask><line x1="85.908" y1="135.48" x2="85.908" y2="145.06" mask="url(#_mask_Ti2BFhpga6KKaIJWIPdtqdHNCWqndaRn)" vector-effect="non-scaling-stroke" stroke-width="0.5" stroke="rgb(255,255,255)" stroke-linejoin="miter" stroke-linecap="butt" stroke-miterlimit="10"/></g></g></g><g><g clip-path="url(#_clipPath_kq6einhEBOiuXb44SsgtpvSBneuW8tQv)"><text transform="matrix(1,0,0,1,96.187,101.629)" style="font-family:'Open Sans';font-weight:400;font-size:14px;font-style:normal;fill:#000000;stroke:none;">Sputnik V &#x3E; 2da. dosis</text></g><defs><clipPath id="_clipPath_kq6einhEBOiuXb44SsgtpvSBneuW8tQv"><rect x="0" y="0" width="175.87" height="20.67" transform="matrix(1,0,0,1,96.187,86.665)"/></clipPath></defs><g><g><circle vector-effect="non-scaling-stroke" cx="51.907500002291286" cy="84.99980989668299" r="4" fill="rgb(0,0,0)"/><path d=" M 54.998 91 L 53.908 91 C 53.642 90.998 53.386 91.103 53.197 91.29 L 51.908 92.58 L 50.618 91.29 C 50.426 91.107 50.172 91.003 49.908 91 L 48.808 91 C 47.777 90.995 46.911 91.774 46.807 92.8 L 45.908 101.9 C 45.881 102.182 45.976 102.462 46.167 102.67 C 46.357 102.879 46.625 102.999 46.908 103 L 47.997 103 L 48.818 111.2 C 48.921 112.226 49.787 113.005 50.817 113 L 52.998 113 C 54.028 113.005 54.894 112.226 54.998 111.2 L 55.807 103 L 56.908 103 C 57.19 102.999 57.458 102.879 57.647 102.67 C 57.839 102.462 57.934 102.182 57.908 101.9 L 56.998 92.8 C 56.894 91.774 56.028 90.995 54.998 91 Z " fill="rgb(0,0,0)"/><circle vector-effect="non-scaling-stroke" cx="65.90750000229129" cy="84.99980989668299" r="4" fill="rgb(0,0,0)"/><path d=" M 70.287 101 L 70.908 101 C 71.197 101.002 71.473 100.879 71.665 100.663 C 71.857 100.446 71.945 100.157 71.908 99.87 L 71.008 92.78 C 70.895 91.762 70.032 90.994 69.008 91 L 62.807 91 C 61.787 90.993 60.925 91.756 60.807 92.77 L 59.908 99.87 C 59.87 100.157 59.958 100.446 60.15 100.663 C 60.342 100.879 60.618 101.002 60.908 101 L 61.517 101 L 59.958 105.68 C 59.857 105.985 59.909 106.32 60.097 106.58 C 60.284 106.842 60.586 106.998 60.908 107 L 62.057 107 L 62.778 111.33 C 62.94 112.304 63.79 113.013 64.778 113 L 67.078 113 C 68.065 113.013 68.915 112.304 69.078 111.33 L 69.758 107 L 70.908 107 C 71.229 106.998 71.531 106.842 71.717 106.58 C 71.906 106.32 71.958 105.985 71.858 105.68 L 70.287 101 Z " fill="rgb(0,0,0)"/><path d=" M 55.187 111.49 L 62.578 111.49 C 62.908 111.449 63.156 111.168 63.156 110.835 C 63.156 110.502 62.908 110.221 62.578 110.18 L 60.718 110.18 L 60.718 106.85 L 62.567 106.85 C 62.898 106.809 63.146 106.528 63.146 106.195 C 63.146 105.862 62.898 105.581 62.567 105.54 L 61.637 105.54 L 61.637 92.33 L 60.708 92.33 L 59.777 89.56 L 59.508 89.56 L 59.508 83.09 C 59.467 82.759 59.186 82.511 58.852 82.511 C 58.519 82.511 58.238 82.759 58.197 83.09 L 58.197 89.55 L 57.908 89.55 L 56.998 92.32 L 56.067 92.32 L 56.067 105.52 L 55.168 105.52 C 54.809 105.52 54.517 105.811 54.517 106.17 C 54.517 106.529 54.809 106.82 55.168 106.82 L 57.017 106.82 L 57.017 110.13 L 55.178 110.13 C 55.004 110.13 54.838 110.2 54.718 110.324 C 54.597 110.449 54.532 110.617 54.538 110.79 C 54.524 110.971 54.586 111.149 54.709 111.282 C 54.833 111.415 55.006 111.49 55.187 111.49 Z  M 59.067 95.14 C 59.077 94.967 59.148 94.804 59.267 94.68 C 59.391 94.559 59.555 94.487 59.727 94.48 L 60.968 94.48 L 60.968 95.77 L 59.727 95.77 C 59.367 95.77 59.073 95.48 59.067 95.12 L 59.067 95.14 Z  M 59.067 97.82 C 59.067 97.461 59.359 97.17 59.718 97.17 L 60.958 97.17 L 60.958 98.46 L 59.737 98.46 C 59.564 98.465 59.396 98.4 59.272 98.28 C 59.148 98.159 59.077 97.993 59.078 97.82 L 59.067 97.82 Z  M 59.067 100.5 C 59.067 100.141 59.359 99.85 59.718 99.85 L 60.958 99.85 L 60.958 101.14 L 59.748 101.14 C 59.387 101.14 59.093 100.85 59.088 100.49 L 59.067 100.5 Z  M 59.067 103.18 C 59.062 102.83 59.338 102.541 59.687 102.53 L 60.947 102.53 L 60.947 103.82 L 59.758 103.82 C 59.402 103.82 59.113 103.535 59.107 103.18 L 59.067 103.18 Z " fill="rgb(0,0,0)" vector-effect="non-scaling-stroke" stroke-width="2" stroke="rgb(255,255,255)" stroke-linejoin="miter" stroke-linecap="butt" stroke-miterlimit="10"/><path d=" M 55.187 111.49 L 62.578 111.49 C 62.908 111.449 63.156 111.168 63.156 110.835 C 63.156 110.502 62.908 110.221 62.578 110.18 L 60.718 110.18 L 60.718 106.85 L 62.567 106.85 C 62.898 106.809 63.146 106.528 63.146 106.195 C 63.146 105.862 62.898 105.581 62.567 105.54 L 61.637 105.54 L 61.637 92.33 L 60.708 92.33 L 59.777 89.56 L 59.508 89.56 L 59.508 83.09 C 59.467 82.759 59.186 82.511 58.852 82.511 C 58.519 82.511 58.238 82.759 58.197 83.09 L 58.197 89.55 L 57.908 89.55 L 56.998 92.32 L 56.067 92.32 L 56.067 105.52 L 55.168 105.52 C 54.809 105.52 54.517 105.811 54.517 106.17 C 54.517 106.529 54.809 106.82 55.168 106.82 L 57.017 106.82 L 57.017 110.13 L 55.178 110.13 C 55.004 110.13 54.838 110.2 54.718 110.324 C 54.597 110.449 54.532 110.617 54.538 110.79 C 54.524 110.971 54.586 111.149 54.709 111.282 C 54.833 111.415 55.006 111.49 55.187 111.49 Z  M 59.067 95.14 C 59.077 94.967 59.148 94.804 59.267 94.68 C 59.391 94.559 59.555 94.487 59.727 94.48 L 60.968 94.48 L 60.968 95.77 L 59.727 95.77 C 59.367 95.77 59.073 95.48 59.067 95.12 L 59.067 95.14 Z  M 59.067 97.82 C 59.067 97.461 59.359 97.17 59.718 97.17 L 60.958 97.17 L 60.958 98.46 L 59.737 98.46 C 59.564 98.465 59.396 98.4 59.272 98.28 C 59.148 98.159 59.077 97.993 59.078 97.82 L 59.067 97.82 Z  M 59.067 100.5 C 59.067 100.141 59.359 99.85 59.718 99.85 L 60.958 99.85 L 60.958 101.14 L 59.748 101.14 C 59.387 101.14 59.093 100.85 59.088 100.49 L 59.067 100.5 Z  M 59.067 103.18 C 59.062 102.83 59.338 102.541 59.687 102.53 L 60.947 102.53 L 60.947 103.82 L 59.758 103.82 C 59.402 103.82 59.113 103.535 59.107 103.18 L 59.067 103.18 Z " fill="rgb(0,0,0)"/><g clip-path="url(#_clipPath_hgFgIU2dOGSWetdoeDIL8M2MCCnU5AeL)"><text transform="matrix(1,0,0,1,48.908,99.84)" style="font-family:'Open Sans';font-weight:400;font-size:10px;font-style:normal;font-variant-ligatures:none;fill:[Object GRGBColor];stroke:none;">1</text></g><defs><clipPath id="_clipPath_hgFgIU2dOGSWetdoeDIL8M2MCCnU5AeL"><rect x="0" y="0" width="8" height="13.618" transform="matrix(1,0,0,1,48.908,89.151)"/></clipPath></defs><g clip-path="url(#_clipPath_siD7Z1rpAznAOpBPY8OzVXyIVGjzLj2o)"><text transform="matrix(1,0,0,1,63.618,100.5)" style="font-family:'Open Sans';font-weight:400;font-size:10px;font-style:normal;font-variant-ligatures:none;fill:[Object GRGBColor];stroke:none;">D</text></g><defs><clipPath id="_clipPath_siD7Z1rpAznAOpBPY8OzVXyIVGjzLj2o"><rect x="0" y="0" width="10" height="13.618" transform="matrix(1,0,0,1,63.618,89.811)"/></clipPath></defs><mask id="_mask_FiCMiFo2f5LS6NgkTaSXD90k0xjUDAN4" x="-200%" y="-200%" width="400%" height="400%"><rect x="-200%" y="-200%" width="400%" height="400%" style="fill:white;"/><line x1="85.908" y1="94.48" x2="85.908" y2="104.06" fill="black" stroke="none"/></mask><line x1="85.908" y1="94.48" x2="85.908" y2="104.06" mask="url(#_mask_FiCMiFo2f5LS6NgkTaSXD90k0xjUDAN4)" vector-effect="non-scaling-stroke" stroke-width="0.5" stroke="rgb(255,255,255)" stroke-linejoin="miter" stroke-linecap="butt" stroke-miterlimit="10"/></g></g></g></g></svg>