<?xml version="1.0" encoding="UTF-8" standalone="no"?><!-- Generator: Gravit.io --><svg xmlns="http://www.w3.org/2000/svg" xmlns:xlink="http://www.w3.org/1999/xlink" style="isolation:isolate" viewBox="0 0 265 160" width="265pt" height="160pt"><defs><clipPath id="_clipPath_dIEgoAtwG0yjHyfqRZwsAYqHN27heIr5"><rect width="265" height="160"/></clipPath></defs><g clip-path="url(#_clipPath_dIEgoAtwG0yjHyfqRZwsAYqHN27heIr5)"><g><g clip-path="url(#_clipPath_Ku2JgsW7hGqhW2hYOOBWTVyDdlSYzIVk)"><text transform="matrix(1,0,0,1,99.187,22.569)" style="font-family:'Open Sans';font-weight:400;font-size:14px;font-style:normal;fill:#000000;stroke:none;">AstraZeneca &#x3E; 1ra. dosis</text></g><defs><clipPath id="_clipPath_Ku2JgsW7hGqhW2hYOOBWTVyDdlSYzIVk"><rect x="0" y="0" width="175.87" height="20.67" transform="matrix(1,0,0,1,99.187,7.605)"/></clipPath></defs><g><g><circle vector-effect="non-scaling-stroke" cx="55.19180863945414" cy="6.174153539035828" r="4" fill="rgb(0,0,0)"/><path d=" M 58.282 12.174 L 57.192 12.174 C 56.926 12.173 56.671 12.277 56.482 12.464 L 55.192 13.754 L 53.902 12.464 C 53.71 12.281 53.457 12.178 53.192 12.174 L 52.092 12.174 C 51.061 12.169 50.195 12.948 50.092 13.974 L 49.192 23.074 C 49.166 23.356 49.26 23.636 49.452 23.844 C 49.641 24.054 49.91 24.173 50.192 24.174 L 51.282 24.174 L 52.102 32.374 C 52.205 33.4 53.071 34.179 54.102 34.174 L 56.282 34.174 C 57.313 34.179 58.179 33.4 58.282 32.374 L 59.092 24.174 L 60.192 24.174 C 60.474 24.173 60.743 24.054 60.932 23.844 C 61.124 23.636 61.218 23.356 61.192 23.074 L 60.282 13.974 C 60.179 12.948 59.313 12.169 58.282 12.174 Z " fill="rgb(0,0,0)"/><circle vector-effect="non-scaling-stroke" cx="67.19180863945414" cy="6.174153539035828" r="4" fill="rgb(0,0,0)"/><path d=" M 71.582 22.174 L 72.192 22.174 C 72.481 22.177 72.757 22.054 72.949 21.837 C 73.141 21.62 73.229 21.331 73.192 21.044 L 72.292 13.954 C 72.179 12.936 71.316 12.168 70.292 12.174 L 64.092 12.174 C 63.071 12.167 62.209 12.93 62.092 13.944 L 61.192 21.044 C 61.154 21.331 61.243 21.62 61.434 21.837 C 61.626 22.054 61.902 22.177 62.192 22.174 L 62.802 22.174 L 61.242 26.854 C 61.141 27.159 61.193 27.494 61.382 27.754 C 61.568 28.016 61.87 28.173 62.192 28.174 L 63.342 28.174 L 64.062 32.504 C 64.225 33.478 65.074 34.188 66.062 34.174 L 68.362 34.174 C 69.349 34.188 70.199 33.478 70.362 32.504 L 71.042 28.174 L 72.192 28.174 C 72.514 28.173 72.815 28.016 73.002 27.754 C 73.19 27.494 73.242 27.159 73.142 26.854 L 71.582 22.174 Z " fill="rgb(0,0,0)"/><g clip-path="url(#_clipPath_K4sS3xJUIFe32pgBucx1TF1zgxTc1qON)"><text transform="matrix(1,0,0,1,72.152,12.394)" style="font-family:'Open Sans';font-weight:400;font-size:10px;font-style:normal;font-variant-ligatures:none;fill:[Object GRGBColor];stroke:none;">18+</text></g><defs><clipPath id="_clipPath_K4sS3xJUIFe32pgBucx1TF1zgxTc1qON"><rect x="0" y="0" width="20" height="13.618" transform="matrix(1,0,0,1,72.152,1.706)"/></clipPath></defs></g></g><g><g><g><path d=" M 38.163 19.765 C 38.063 19.565 37.863 19.365 37.563 19.365 L 34.663 19.365 C 34.463 19.365 34.163 19.565 34.063 19.765 C 33.963 19.965 33.963 20.165 33.863 20.365 L 31.863 14.965 C 31.563 14.065 30.663 13.465 29.763 13.465 L 14.863 13.465 C 13.963 13.465 13.063 14.065 12.763 14.965 L 10.763 20.365 C 10.763 20.165 10.663 19.965 10.563 19.765 C 10.463 19.565 10.263 19.365 9.963 19.365 L 7.163 19.365 C 6.963 19.365 6.663 19.565 6.563 19.765 C 6.263 20.465 6.263 21.265 6.563 21.965 C 6.663 22.165 6.863 22.365 7.163 22.365 L 10.063 22.365 L 10.063 22.465 C 9.463 22.665 9.063 23.265 9.063 23.865 L 9.063 33.765 C 9.063 34.165 9.363 34.465 9.763 34.465 L 13.363 34.465 C 13.763 34.465 14.063 34.165 14.063 33.765 L 14.063 30.265 L 30.663 30.265 L 30.663 33.765 C 30.663 34.165 30.963 34.465 31.363 34.465 L 34.963 34.465 C 35.363 34.465 35.663 34.165 35.663 33.765 L 35.663 23.865 C 35.663 23.265 35.263 22.665 34.663 22.465 L 34.663 22.365 L 37.563 22.365 C 37.763 22.365 38.063 22.165 38.163 21.965 C 38.463 21.165 38.463 20.465 38.163 19.765 Z  M 15.163 16.065 L 29.563 16.065 L 31.863 22.365 L 12.863 22.365 L 15.163 16.065 Z  M 15.563 26.865 L 12.563 26.865 C 11.863 26.865 11.363 26.265 11.363 25.665 C 11.363 24.965 11.863 24.465 12.563 24.465 L 15.563 24.465 C 16.263 24.465 16.763 24.965 16.763 25.665 C 16.763 26.365 16.163 26.865 15.563 26.865 Z  M 32.163 26.865 L 29.163 26.865 C 28.463 26.865 27.963 26.365 27.963 25.665 C 27.963 24.965 28.463 24.465 29.163 24.465 L 32.163 24.465 C 32.863 24.465 33.363 24.965 33.363 25.665 C 33.363 26.365 32.863 26.865 32.163 26.865 Z " fill="rgb(29,113,184)"/></g></g><g><g><path d=" M 21.363 20.165 C 22.663 20.565 23.763 20.865 25.363 21.365 C 24.763 29.265 17.363 26.065 21.363 20.165 Z  M 27.963 12.965 C 27.863 10.565 27.463 7.565 24.163 7.965 C 22.663 8.365 21.463 10.065 20.963 12.965 C 20.663 14.665 20.763 16.465 21.163 18.165 C 21.463 19.165 21.363 19.065 21.663 19.265 C 22.963 19.565 24.263 19.865 25.663 20.265 C 27.063 19.365 28.163 14.265 27.963 12.965 Z  M 17.763 12.765 C 18.163 11.065 18.263 9.265 17.963 7.565 C 17.463 4.665 16.463 9.865 14.863 9.465 C 11.563 8.965 11.063 5.165 10.963 7.565 C 10.763 8.865 11.863 13.965 13.263 14.965 C 14.563 14.665 15.863 14.265 17.263 13.965 C 17.563 13.665 17.463 13.765 17.763 12.765 Z  M 13.563 15.865 C 14.163 23.665 21.563 20.565 17.563 14.665 C 16.263 15.065 15.163 15.365 13.563 15.865 Z " fill="rgb(13,72,112)" vector-effect="non-scaling-stroke" stroke-width="1" stroke="rgb(255,255,255)" stroke-linejoin="miter" stroke-linecap="butt" stroke-miterlimit="10"/></g></g><g><g><path d=" M 21.363 19.965 C 22.663 20.365 23.763 20.665 25.363 21.165 C 24.763 29.065 17.363 25.965 21.363 19.965 Z  M 27.963 12.765 C 27.863 10.365 27.463 7.365 24.163 7.765 C 22.663 8.165 21.463 9.865 20.963 12.765 C 20.663 14.465 20.763 16.265 21.163 17.965 C 21.463 18.965 21.363 18.865 21.663 19.065 C 22.963 19.365 24.263 19.665 25.663 20.065 C 27.063 19.165 28.163 14.065 27.963 12.765 Z  M 17.763 12.565 C 18.163 10.865 18.263 9.065 17.963 7.365 C 17.463 4.465 16.263 2.765 14.763 2.365 C 11.463 1.865 11.063 4.965 10.963 7.365 C 10.763 8.665 11.863 13.765 13.263 14.765 C 14.563 14.465 15.863 14.065 17.263 13.765 C 17.563 13.465 17.463 13.565 17.763 12.565 Z  M 13.563 15.665 C 14.163 23.465 21.563 20.365 17.563 14.465 C 16.263 14.965 15.163 15.165 13.563 15.665 Z " fill="rgb(13,72,112)"/></g></g><g clip-path="url(#_clipPath_mfCUnabj0LlDimkKbTHDQsoqkM0sKsJh)"><text transform="matrix(1,0,0,1,30.662,12.224)" style="font-family:'Open Sans';font-weight:400;font-size:10px;font-style:normal;font-variant-ligatures:none;fill:[Object GRGBColor];stroke:none;">+</text></g><defs><clipPath id="_clipPath_mfCUnabj0LlDimkKbTHDQsoqkM0sKsJh"><rect x="0" y="0" width="8" height="13.618" transform="matrix(1,0,0,1,30.662,1.535)"/></clipPath></defs></g></g><g><g clip-path="url(#_clipPath_Z16Gr4U335vKdb7Yz6NPmUuY5NszbUkv)"><text transform="matrix(1,0,0,1,99.187,63.629)" style="font-family:'Open Sans';font-weight:400;font-size:14px;font-style:normal;fill:#000000;stroke:none;">AstraZeneca &#x3E; 2da. dosis</text></g><defs><clipPath id="_clipPath_Z16Gr4U335vKdb7Yz6NPmUuY5NszbUkv"><rect x="0" y="0" width="175.87" height="20.67" transform="matrix(1,0,0,1,99.187,48.665)"/></clipPath></defs><g><g><circle vector-effect="non-scaling-stroke" cx="54.907500002291286" cy="46.999809896683" r="4" fill="rgb(0,0,0)"/><path d=" M 57.998 53 L 56.908 53 C 56.642 52.998 56.386 53.103 56.197 53.29 L 54.908 54.58 L 53.618 53.29 C 53.426 53.107 53.172 53.003 52.908 53 L 51.808 53 C 50.777 52.995 49.911 53.774 49.807 54.8 L 48.908 63.9 C 48.881 64.182 48.976 64.462 49.167 64.67 C 49.357 64.879 49.625 64.999 49.908 65 L 50.997 65 L 51.818 73.2 C 51.921 74.226 52.787 75.005 53.817 75 L 55.998 75 C 57.028 75.005 57.894 74.226 57.998 73.2 L 58.807 65 L 59.908 65 C 60.19 64.999 60.458 64.879 60.647 64.67 C 60.839 64.462 60.934 64.182 60.908 63.9 L 59.998 54.8 C 59.894 53.774 59.028 52.995 57.998 53 Z " fill="rgb(0,0,0)"/><circle vector-effect="non-scaling-stroke" cx="68.90750000229129" cy="46.999809896683" r="4" fill="rgb(0,0,0)"/><path d=" M 73.287 63 L 73.908 63 C 74.197 63.002 74.473 62.879 74.665 62.663 C 74.857 62.446 74.945 62.157 74.908 61.87 L 74.008 54.78 C 73.895 53.762 73.032 52.994 72.008 53 L 65.807 53 C 64.787 52.993 63.925 53.756 63.807 54.77 L 62.908 61.87 C 62.87 62.157 62.958 62.446 63.15 62.663 C 63.342 62.879 63.618 63.002 63.908 63 L 64.517 63 L 62.958 67.68 C 62.857 67.985 62.909 68.32 63.097 68.58 C 63.284 68.842 63.586 68.998 63.908 69 L 65.057 69 L 65.778 73.33 C 65.94 74.304 66.79 75.013 67.778 75 L 70.078 75 C 71.065 75.013 71.915 74.304 72.078 73.33 L 72.758 69 L 73.908 69 C 74.229 68.998 74.531 68.842 74.717 68.58 C 74.906 68.32 74.958 67.985 74.858 67.68 L 73.287 63 Z " fill="rgb(0,0,0)"/><path d=" M 58.187 73.49 L 65.578 73.49 C 65.908 73.449 66.156 73.168 66.156 72.835 C 66.156 72.502 65.908 72.221 65.578 72.18 L 63.718 72.18 L 63.718 68.85 L 65.567 68.85 C 65.898 68.809 66.146 68.528 66.146 68.195 C 66.146 67.862 65.898 67.581 65.567 67.54 L 64.637 67.54 L 64.637 54.33 L 63.708 54.33 L 62.777 51.56 L 62.508 51.56 L 62.508 45.09 C 62.467 44.759 62.186 44.511 61.852 44.511 C 61.519 44.511 61.238 44.759 61.197 45.09 L 61.197 51.55 L 60.908 51.55 L 59.998 54.32 L 59.067 54.32 L 59.067 67.52 L 58.168 67.52 C 57.809 67.52 57.517 67.811 57.517 68.17 C 57.517 68.529 57.809 68.82 58.168 68.82 L 60.017 68.82 L 60.017 72.13 L 58.178 72.13 C 58.004 72.13 57.838 72.2 57.718 72.324 C 57.597 72.449 57.532 72.617 57.538 72.79 C 57.524 72.971 57.586 73.149 57.709 73.282 C 57.833 73.415 58.006 73.49 58.187 73.49 Z  M 62.067 57.14 C 62.077 56.967 62.148 56.804 62.267 56.68 C 62.391 56.559 62.555 56.487 62.727 56.48 L 63.968 56.48 L 63.968 57.77 L 62.727 57.77 C 62.367 57.77 62.073 57.48 62.067 57.12 L 62.067 57.14 Z  M 62.067 59.82 C 62.067 59.461 62.359 59.17 62.718 59.17 L 63.958 59.17 L 63.958 60.46 L 62.737 60.46 C 62.564 60.465 62.396 60.4 62.272 60.28 C 62.148 60.159 62.077 59.993 62.078 59.82 L 62.067 59.82 Z  M 62.067 62.5 C 62.067 62.141 62.359 61.85 62.718 61.85 L 63.958 61.85 L 63.958 63.14 L 62.748 63.14 C 62.387 63.14 62.093 62.85 62.088 62.49 L 62.067 62.5 Z  M 62.067 65.18 C 62.062 64.83 62.338 64.541 62.687 64.53 L 63.947 64.53 L 63.947 65.82 L 62.758 65.82 C 62.402 65.82 62.113 65.535 62.107 65.18 L 62.067 65.18 Z " fill="rgb(0,0,0)" vector-effect="non-scaling-stroke" stroke-width="2" stroke="rgb(255,255,255)" stroke-linejoin="miter" stroke-linecap="butt" stroke-miterlimit="10"/><path d=" M 58.187 73.49 L 65.578 73.49 C 65.908 73.449 66.156 73.168 66.156 72.835 C 66.156 72.502 65.908 72.221 65.578 72.18 L 63.718 72.18 L 63.718 68.85 L 65.567 68.85 C 65.898 68.809 66.146 68.528 66.146 68.195 C 66.146 67.862 65.898 67.581 65.567 67.54 L 64.637 67.54 L 64.637 54.33 L 63.708 54.33 L 62.777 51.56 L 62.508 51.56 L 62.508 45.09 C 62.467 44.759 62.186 44.511 61.852 44.511 C 61.519 44.511 61.238 44.759 61.197 45.09 L 61.197 51.55 L 60.908 51.55 L 59.998 54.32 L 59.067 54.32 L 59.067 67.52 L 58.168 67.52 C 57.809 67.52 57.517 67.811 57.517 68.17 C 57.517 68.529 57.809 68.82 58.168 68.82 L 60.017 68.82 L 60.017 72.13 L 58.178 72.13 C 58.004 72.13 57.838 72.2 57.718 72.324 C 57.597 72.449 57.532 72.617 57.538 72.79 C 57.524 72.971 57.586 73.149 57.709 73.282 C 57.833 73.415 58.006 73.49 58.187 73.49 Z  M 62.067 57.14 C 62.077 56.967 62.148 56.804 62.267 56.68 C 62.391 56.559 62.555 56.487 62.727 56.48 L 63.968 56.48 L 63.968 57.77 L 62.727 57.77 C 62.367 57.77 62.073 57.48 62.067 57.12 L 62.067 57.14 Z  M 62.067 59.82 C 62.067 59.461 62.359 59.17 62.718 59.17 L 63.958 59.17 L 63.958 60.46 L 62.737 60.46 C 62.564 60.465 62.396 60.4 62.272 60.28 C 62.148 60.159 62.077 59.993 62.078 59.82 L 62.067 59.82 Z  M 62.067 62.5 C 62.067 62.141 62.359 61.85 62.718 61.85 L 63.958 61.85 L 63.958 63.14 L 62.748 63.14 C 62.387 63.14 62.093 62.85 62.088 62.49 L 62.067 62.5 Z  M 62.067 65.18 C 62.062 64.83 62.338 64.541 62.687 64.53 L 63.947 64.53 L 63.947 65.82 L 62.758 65.82 C 62.402 65.82 62.113 65.535 62.107 65.18 L 62.067 65.18 Z " fill="rgb(0,0,0)"/><g clip-path="url(#_clipPath_VM0QvZqmexaBWltzGWVflUTVZNR50Jis)"><text transform="matrix(1,0,0,1,51.908,61.84)" style="font-family:'Open Sans';font-weight:400;font-size:10px;font-style:normal;font-variant-ligatures:none;fill:[Object GRGBColor];stroke:none;">1</text></g><defs><clipPath id="_clipPath_VM0QvZqmexaBWltzGWVflUTVZNR50Jis"><rect x="0" y="0" width="8" height="13.618" transform="matrix(1,0,0,1,51.908,51.151)"/></clipPath></defs><g clip-path="url(#_clipPath_PGDB19ABKr5NJL6J0uuYqEi9hu9vW3fk)"><text transform="matrix(1,0,0,1,66.618,62.5)" style="font-family:'Open Sans';font-weight:400;font-size:10px;font-style:normal;font-variant-ligatures:none;fill:[Object GRGBColor];stroke:none;">D</text></g><defs><clipPath id="_clipPath_PGDB19ABKr5NJL6J0uuYqEi9hu9vW3fk"><rect x="0" y="0" width="10" height="13.618" transform="matrix(1,0,0,1,66.618,51.811)"/></clipPath></defs><mask id="_mask_7PnYvBGZ2cfAThUgIJ4JdXDXOBfOPWzN" x="-200%" y="-200%" width="400%" height="400%"><rect x="-200%" y="-200%" width="400%" height="400%" style="fill:white;"/><line x1="88.908" y1="56.48" x2="88.908" y2="66.06" fill="black" stroke="none"/></mask><line x1="88.908" y1="56.48" x2="88.908" y2="66.06" mask="url(#_mask_7PnYvBGZ2cfAThUgIJ4JdXDXOBfOPWzN)" vector-effect="non-scaling-stroke" stroke-width="0.5" stroke="rgb(255,255,255)" stroke-linejoin="miter" stroke-linecap="butt" stroke-miterlimit="10"/></g></g><g><g><g><path d=" M 38.163 60.765 C 38.063 60.565 37.863 60.365 37.563 60.365 L 34.663 60.365 C 34.463 60.365 34.163 60.565 34.063 60.765 C 33.963 60.965 33.963 61.165 33.863 61.365 L 31.863 55.965 C 31.563 55.065 30.663 54.465 29.763 54.465 L 14.863 54.465 C 13.963 54.465 13.063 55.065 12.763 55.965 L 10.763 61.365 C 10.763 61.165 10.663 60.965 10.563 60.765 C 10.463 60.565 10.263 60.365 9.963 60.365 L 7.163 60.365 C 6.963 60.365 6.663 60.565 6.563 60.765 C 6.263 61.465 6.263 62.265 6.563 62.965 C 6.663 63.165 6.863 63.365 7.163 63.365 L 10.063 63.365 L 10.063 63.465 C 9.463 63.665 9.063 64.265 9.063 64.865 L 9.063 74.765 C 9.063 75.165 9.363 75.465 9.763 75.465 L 13.363 75.465 C 13.763 75.465 14.063 75.165 14.063 74.765 L 14.063 71.265 L 30.663 71.265 L 30.663 74.765 C 30.663 75.165 30.963 75.465 31.363 75.465 L 34.963 75.465 C 35.363 75.465 35.663 75.165 35.663 74.765 L 35.663 64.865 C 35.663 64.265 35.263 63.665 34.663 63.465 L 34.663 63.365 L 37.563 63.365 C 37.763 63.365 38.063 63.165 38.163 62.965 C 38.463 62.165 38.463 61.465 38.163 60.765 Z  M 15.163 57.065 L 29.563 57.065 L 31.863 63.365 L 12.863 63.365 L 15.163 57.065 Z  M 15.563 67.865 L 12.563 67.865 C 11.863 67.865 11.363 67.265 11.363 66.665 C 11.363 65.965 11.863 65.465 12.563 65.465 L 15.563 65.465 C 16.263 65.465 16.763 65.965 16.763 66.665 C 16.763 67.365 16.163 67.865 15.563 67.865 Z  M 32.163 67.865 L 29.163 67.865 C 28.463 67.865 27.963 67.365 27.963 66.665 C 27.963 65.965 28.463 65.465 29.163 65.465 L 32.163 65.465 C 32.863 65.465 33.363 65.965 33.363 66.665 C 33.363 67.365 32.863 67.865 32.163 67.865 Z " fill="rgb(29,113,184)"/></g></g><g><g><path d=" M 21.363 61.165 C 22.663 61.565 23.763 61.865 25.363 62.365 C 24.763 70.265 17.363 67.065 21.363 61.165 Z  M 27.963 53.965 C 27.863 51.565 27.463 48.565 24.163 48.965 C 22.663 49.365 21.463 51.065 20.963 53.965 C 20.663 55.665 20.763 57.465 21.163 59.165 C 21.463 60.165 21.363 60.065 21.663 60.265 C 22.963 60.565 24.263 60.865 25.663 61.265 C 27.063 60.365 28.163 55.265 27.963 53.965 Z  M 17.763 53.765 C 18.163 52.065 18.263 50.265 17.963 48.565 C 17.463 45.665 16.463 50.865 14.863 50.465 C 11.563 49.965 11.063 46.165 10.963 48.565 C 10.763 49.865 11.863 54.965 13.263 55.965 C 14.563 55.665 15.863 55.265 17.263 54.965 C 17.563 54.665 17.463 54.765 17.763 53.765 Z  M 13.563 56.865 C 14.163 64.665 21.563 61.565 17.563 55.665 C 16.263 56.065 15.163 56.365 13.563 56.865 Z " fill="rgb(13,72,112)" vector-effect="non-scaling-stroke" stroke-width="1" stroke="rgb(255,255,255)" stroke-linejoin="miter" stroke-linecap="butt" stroke-miterlimit="10"/></g></g><g><g><path d=" M 21.363 60.965 C 22.663 61.365 23.763 61.665 25.363 62.165 C 24.763 70.065 17.363 66.965 21.363 60.965 Z  M 27.963 53.765 C 27.863 51.365 27.463 48.365 24.163 48.765 C 22.663 49.165 21.463 50.865 20.963 53.765 C 20.663 55.465 20.763 57.265 21.163 58.965 C 21.463 59.965 21.363 59.865 21.663 60.065 C 22.963 60.365 24.263 60.665 25.663 61.065 C 27.063 60.165 28.163 55.065 27.963 53.765 Z  M 17.763 53.565 C 18.163 51.865 18.263 50.065 17.963 48.365 C 17.463 45.465 16.263 43.765 14.763 43.365 C 11.463 42.865 11.063 45.965 10.963 48.365 C 10.763 49.665 11.863 54.765 13.263 55.765 C 14.563 55.465 15.863 55.065 17.263 54.765 C 17.563 54.465 17.463 54.565 17.763 53.565 Z  M 13.563 56.665 C 14.163 64.465 21.563 61.365 17.563 55.465 C 16.263 55.965 15.163 56.165 13.563 56.665 Z " fill="rgb(13,72,112)"/></g></g><g clip-path="url(#_clipPath_WuGNKMwJqi0HfvaQaZ4O0nSlLAkyXo2u)"><text transform="matrix(1,0,0,1,30.662,53.224)" style="font-family:'Open Sans';font-weight:400;font-size:10px;font-style:normal;font-variant-ligatures:none;fill:[Object GRGBColor];stroke:none;">+</text></g><defs><clipPath id="_clipPath_WuGNKMwJqi0HfvaQaZ4O0nSlLAkyXo2u"><rect x="0" y="0" width="8" height="13.618" transform="matrix(1,0,0,1,30.662,42.535)"/></clipPath></defs></g></g><g><g clip-path="url(#_clipPath_biPujQQnx1iAlDmEyzn0CQfROngTYzoB)"><text transform="matrix(1,0,0,1,99.187,103.569)" style="font-family:'Open Sans';font-weight:400;font-size:14px;font-style:normal;fill:#000000;stroke:none;">Sputnik V &#x3E; 2da. dosis</text></g><defs><clipPath id="_clipPath_biPujQQnx1iAlDmEyzn0CQfROngTYzoB"><rect x="0" y="0" width="175.87" height="20.67" transform="matrix(1,0,0,1,99.187,88.605)"/></clipPath></defs><g><g><circle vector-effect="non-scaling-stroke" cx="53.90750000238418" cy="87.6098207003335" r="4" fill="rgb(0,0,0)"/><path d=" M 56.998 93.61 L 55.908 93.61 C 55.642 93.608 55.386 93.713 55.197 93.9 L 53.908 95.19 L 52.618 93.9 C 52.426 93.717 52.172 93.614 51.908 93.61 L 50.808 93.61 C 49.777 93.605 48.911 94.384 48.807 95.41 L 47.908 104.51 C 47.881 104.792 47.976 105.072 48.167 105.28 C 48.357 105.489 48.625 105.609 48.908 105.61 L 49.997 105.61 L 50.818 113.81 C 50.921 114.836 51.787 115.615 52.817 115.61 L 54.998 115.61 C 56.028 115.615 56.894 114.836 56.998 113.81 L 57.807 105.61 L 58.908 105.61 C 59.19 105.609 59.458 105.489 59.647 105.28 C 59.839 105.072 59.934 104.792 59.908 104.51 L 58.998 95.41 C 58.894 94.384 58.028 93.605 56.998 93.61 Z " fill="rgb(0,0,0)"/><circle vector-effect="non-scaling-stroke" cx="65.90750000238418" cy="87.6098207003335" r="4" fill="rgb(0,0,0)"/><path d=" M 70.297 103.61 L 70.908 103.61 C 71.197 103.612 71.473 103.489 71.665 103.273 C 71.857 103.056 71.945 102.767 71.908 102.48 L 71.008 95.39 C 70.895 94.372 70.032 93.604 69.008 93.61 L 62.807 93.61 C 61.787 93.603 60.925 94.366 60.807 95.38 L 59.908 102.48 C 59.87 102.767 59.958 103.056 60.15 103.273 C 60.342 103.489 60.618 103.612 60.908 103.61 L 61.517 103.61 L 59.958 108.29 C 59.857 108.595 59.909 108.93 60.097 109.19 C 60.284 109.452 60.586 109.608 60.908 109.61 L 62.057 109.61 L 62.777 113.94 C 62.94 114.914 63.79 115.623 64.778 115.61 L 67.078 115.61 C 68.065 115.623 68.915 114.914 69.078 113.94 L 69.758 109.61 L 70.908 109.61 C 71.229 109.608 71.531 109.452 71.717 109.19 C 71.906 108.93 71.958 108.595 71.858 108.29 L 70.297 103.61 Z " fill="rgb(0,0,0)"/><g clip-path="url(#_clipPath_j9GDdqkjdSqOcxTy6nMxuDmMdPwGHUHy)"><text transform="matrix(1,0,0,1,70.868,93.83)" style="font-family:'Open Sans';font-weight:400;font-size:10px;font-style:normal;font-variant-ligatures:none;fill:[Object GRGBColor];stroke:none;">18+</text></g><defs><clipPath id="_clipPath_j9GDdqkjdSqOcxTy6nMxuDmMdPwGHUHy"><rect x="0" y="0" width="20" height="13.618" transform="matrix(1,0,0,1,70.868,83.141)"/></clipPath></defs></g></g><g><g><g><path d=" M 38.163 100.765 C 38.063 100.565 37.863 100.365 37.563 100.365 L 34.663 100.365 C 34.463 100.365 34.163 100.565 34.063 100.765 C 33.963 100.965 33.963 101.165 33.863 101.365 L 31.863 95.965 C 31.563 95.065 30.663 94.465 29.763 94.465 L 14.863 94.465 C 13.963 94.465 13.063 95.065 12.763 95.965 L 10.763 101.365 C 10.763 101.165 10.663 100.965 10.563 100.765 C 10.463 100.565 10.263 100.365 9.963 100.365 L 7.163 100.365 C 6.963 100.365 6.663 100.565 6.563 100.765 C 6.263 101.465 6.263 102.265 6.563 102.965 C 6.663 103.165 6.863 103.365 7.163 103.365 L 10.063 103.365 L 10.063 103.465 C 9.463 103.665 9.063 104.265 9.063 104.865 L 9.063 114.765 C 9.063 115.165 9.363 115.465 9.763 115.465 L 13.363 115.465 C 13.763 115.465 14.063 115.165 14.063 114.765 L 14.063 111.265 L 30.663 111.265 L 30.663 114.765 C 30.663 115.165 30.963 115.465 31.363 115.465 L 34.963 115.465 C 35.363 115.465 35.663 115.165 35.663 114.765 L 35.663 104.865 C 35.663 104.265 35.263 103.665 34.663 103.465 L 34.663 103.365 L 37.563 103.365 C 37.763 103.365 38.063 103.165 38.163 102.965 C 38.463 102.165 38.463 101.465 38.163 100.765 Z  M 15.163 97.065 L 29.563 97.065 L 31.863 103.365 L 12.863 103.365 L 15.163 97.065 Z  M 15.563 107.865 L 12.563 107.865 C 11.863 107.865 11.363 107.265 11.363 106.665 C 11.363 105.965 11.863 105.465 12.563 105.465 L 15.563 105.465 C 16.263 105.465 16.763 105.965 16.763 106.665 C 16.763 107.365 16.163 107.865 15.563 107.865 Z  M 32.163 107.865 L 29.163 107.865 C 28.463 107.865 27.963 107.365 27.963 106.665 C 27.963 105.965 28.463 105.465 29.163 105.465 L 32.163 105.465 C 32.863 105.465 33.363 105.965 33.363 106.665 C 33.363 107.365 32.863 107.865 32.163 107.865 Z " fill="rgb(29,113,184)"/></g></g><g><g><path d=" M 21.363 101.165 C 22.663 101.565 23.763 101.865 25.363 102.365 C 24.763 110.265 17.363 107.065 21.363 101.165 Z  M 27.963 93.965 C 27.863 91.565 27.463 88.565 24.163 88.965 C 22.663 89.365 21.463 91.065 20.963 93.965 C 20.663 95.665 20.763 97.465 21.163 99.165 C 21.463 100.165 21.363 100.065 21.663 100.265 C 22.963 100.565 24.263 100.865 25.663 101.265 C 27.063 100.365 28.163 95.265 27.963 93.965 Z  M 17.763 93.765 C 18.163 92.065 18.263 90.265 17.963 88.565 C 17.463 85.665 16.463 90.865 14.863 90.465 C 11.563 89.965 11.063 86.165 10.963 88.565 C 10.763 89.865 11.863 94.965 13.263 95.965 C 14.563 95.665 15.863 95.265 17.263 94.965 C 17.563 94.665 17.463 94.765 17.763 93.765 Z  M 13.563 96.865 C 14.163 104.665 21.563 101.565 17.563 95.665 C 16.263 96.065 15.163 96.365 13.563 96.865 Z " fill="rgb(13,72,112)" vector-effect="non-scaling-stroke" stroke-width="1" stroke="rgb(255,255,255)" stroke-linejoin="miter" stroke-linecap="butt" stroke-miterlimit="10"/></g></g><g><g><path d=" M 21.363 100.965 C 22.663 101.365 23.763 101.665 25.363 102.165 C 24.763 110.065 17.363 106.965 21.363 100.965 Z  M 27.963 93.765 C 27.863 91.365 27.463 88.365 24.163 88.765 C 22.663 89.165 21.463 90.865 20.963 93.765 C 20.663 95.465 20.763 97.265 21.163 98.965 C 21.463 99.965 21.363 99.865 21.663 100.065 C 22.963 100.365 24.263 100.665 25.663 101.065 C 27.063 100.165 28.163 95.065 27.963 93.765 Z  M 17.763 93.565 C 18.163 91.865 18.263 90.065 17.963 88.365 C 17.463 85.465 16.263 83.765 14.763 83.365 C 11.463 82.865 11.063 85.965 10.963 88.365 C 10.763 89.665 11.863 94.765 13.263 95.765 C 14.563 95.465 15.863 95.065 17.263 94.765 C 17.563 94.465 17.463 94.565 17.763 93.565 Z  M 13.563 96.665 C 14.163 104.465 21.563 101.365 17.563 95.465 C 16.263 95.965 15.163 96.165 13.563 96.665 Z " fill="rgb(13,72,112)"/></g></g><g clip-path="url(#_clipPath_8F4bJ8D3YAd3yaU57NtFvFWQCMt85rgd)"><text transform="matrix(1,0,0,1,30.662,93.224)" style="font-family:'Open Sans';font-weight:400;font-size:10px;font-style:normal;font-variant-ligatures:none;fill:[Object GRGBColor];stroke:none;">+</text></g><defs><clipPath id="_clipPath_8F4bJ8D3YAd3yaU57NtFvFWQCMt85rgd"><rect x="0" y="0" width="8" height="13.618" transform="matrix(1,0,0,1,30.662,82.535)"/></clipPath></defs></g></g><g clip-path="url(#_clipPath_ywQACKUY0PlrwbLVdMxKVZCFaiurfdDP)"><text transform="matrix(1,0,0,1,99.187,145.629)" style="font-family:'Open Sans';font-weight:400;font-size:14px;font-style:normal;fill:#000000;stroke:none;">Pfizer &#x3E; 1ra. dosis</text></g><defs><clipPath id="_clipPath_ywQACKUY0PlrwbLVdMxKVZCFaiurfdDP"><rect x="0" y="0" width="175.87" height="20.67" transform="matrix(1,0,0,1,99.187,130.665)"/></clipPath></defs><g><g><path d=" M 24.155 151.04 C 25.435 151.48 26.555 151.76 28.155 152.25 C 27.555 160.1 20.135 156.98 24.155 151.04 Z  M 30.785 143.84 C 30.695 141.48 30.285 138.39 26.975 138.84 C 25.425 139.25 24.285 140.95 23.745 143.84 C 23.49 145.582 23.568 147.357 23.975 149.07 C 24.285 150.07 24.185 149.97 24.525 150.15 C 25.845 150.45 27.155 150.78 28.525 151.15 C 29.855 150.24 30.965 145.15 30.785 143.84 Z  M 20.585 143.66 C 20.988 141.943 21.062 140.165 20.805 138.42 C 20.265 135.48 19.125 133.78 17.575 133.42 C 14.275 132.93 13.855 136.02 13.775 138.42 C 13.585 139.74 14.705 144.82 16.055 145.78 C 17.395 145.44 18.705 145.11 20.055 144.78 C 20.375 144.55 20.255 144.61 20.585 143.66 Z  M 16.375 146.76 C 17.005 154.6 24.375 151.49 20.375 145.54 C 19.125 145.98 17.995 146.26 16.375 146.76 Z " fill="rgb(29,113,184)"/><mask id="_mask_NMQHzfWRPwyOCyeGTPVzDjwkTvEyYbx8" x="-200%" y="-200%" width="400%" height="400%"><rect x="-200%" y="-200%" width="400%" height="400%" style="fill:white;"/><line x1="38.615" y1="135.28" x2="38.615" y2="144.86" fill="black" stroke="none"/></mask><line x1="38.615" y1="135.28" x2="38.615" y2="144.86" mask="url(#_mask_NMQHzfWRPwyOCyeGTPVzDjwkTvEyYbx8)" vector-effect="non-scaling-stroke" stroke-width="0.5" stroke="rgb(255,255,255)" stroke-linejoin="miter" stroke-linecap="butt" stroke-miterlimit="10"/><mask id="_mask_Hqz8LLuJoPlX1H9V2SxeVYb2lvn7miMo" x="-200%" y="-200%" width="400%" height="400%"><rect x="-200%" y="-200%" width="400%" height="400%" style="fill:white;"/><line x1="17.605" y1="125.06" x2="27.185" y2="125.06" fill="black" stroke="none"/></mask><line x1="17.605" y1="125.06" x2="27.185" y2="125.06" mask="url(#_mask_Hqz8LLuJoPlX1H9V2SxeVYb2lvn7miMo)" vector-effect="non-scaling-stroke" stroke-width="0.5" stroke="rgb(255,255,255)" stroke-linejoin="miter" stroke-linecap="butt" stroke-miterlimit="10"/><mask id="_mask_kenPrmvNadlx8P38cLRe2W9HfmZ6w0cH" x="-200%" y="-200%" width="400%" height="400%"><rect x="-200%" y="-200%" width="400%" height="400%" style="fill:white;"/><line x1="6.385" y1="135.28" x2="6.385" y2="144.86" fill="black" stroke="none"/></mask><line x1="6.385" y1="135.28" x2="6.385" y2="144.86" mask="url(#_mask_kenPrmvNadlx8P38cLRe2W9HfmZ6w0cH)" vector-effect="non-scaling-stroke" stroke-width="0.5" stroke="rgb(255,255,255)" stroke-linejoin="miter" stroke-linecap="butt" stroke-miterlimit="10"/></g></g><g><g><g><g><g><g><g clip-path="url(#_clipPath_giR83RdNmPT5Fu88wBH0BOW9JgwzZScT)"><text transform="matrix(1,0,0,1,69.68,137.625)" style="font-family:'Open Sans';font-weight:400;font-size:10px;font-style:normal;font-variant-ligatures:none;fill:#000000;stroke:none;">12+</text></g><defs><clipPath id="_clipPath_giR83RdNmPT5Fu88wBH0BOW9JgwzZScT"><rect x="0" y="0" width="20" height="13.618" transform="matrix(1,0,0,1,69.68,126.936)"/></clipPath></defs></g></g><path d=" M 54.13 133.455 C 54.573 133.698 55.066 133.835 55.57 133.855 C 56.791 133.829 57.895 133.122 58.43 132.025 C 58.919 130.879 58.701 129.554 57.87 128.625 C 57.001 127.727 55.69 127.415 54.51 127.825 C 53.342 128.242 52.53 129.308 52.44 130.545 C 52.355 131.769 53.024 132.922 54.13 133.455 Z " fill="rgb(183,66,66)"/><path d=" M 59.43 130.775 C 60.012 131.316 60.786 131.604 61.58 131.575 C 62.786 131.556 63.888 130.887 64.46 129.825 C 65 128.712 64.88 127.393 64.15 126.395 C 63.396 125.429 62.164 124.965 60.96 125.195 C 59.761 125.445 58.81 126.357 58.51 127.545 C 58.218 128.709 58.569 129.94 59.43 130.775 Z " fill="rgb(0,91,231)"/><path d=" M 64.73 145.605 C 64.73 145.365 64.81 143.695 64.81 143.455 L 64.81 138.115 C 65.194 138.79 65.487 139.513 65.68 140.265 C 65.912 139.399 66.627 138.747 67.51 138.595 C 67.347 137.868 67.133 137.152 66.87 136.455 C 66.534 135.668 66.072 134.941 65.5 134.305 C 65.15 133.865 64.75 133.465 64.31 133.115 C 64.07 132.955 63.91 132.795 63.67 132.635 C 63.515 132.485 63.327 132.375 63.12 132.315 C 61.833 131.721 60.314 131.975 59.29 132.955 C 58.82 133.345 58.41 133.745 57.93 134.145 C 59.13 135.007 60.132 136.115 60.87 137.395 C 61.308 138.216 61.602 139.105 61.74 140.025 C 61.818 140.659 61.862 141.296 61.87 141.935 C 61.87 142.824 61.149 143.545 60.26 143.545 L 60.26 143.545 C 60.125 143.553 59.991 143.526 59.87 143.465 C 59.87 143.465 61.07 147.845 61.15 148.085 C 61.23 148.485 61.31 149.285 60.43 149.285 L 58.99 149.285 L 58.87 151.185 L 59.03 155.965 C 58.977 156.575 59.421 157.117 60.03 157.185 C 60.642 157.243 61.187 156.797 61.25 156.185 C 61.26 156.115 61.26 156.045 61.25 155.975 L 61.65 147.975 L 61.96 155.975 C 61.971 156.589 62.466 157.084 63.08 157.095 C 63.377 157.095 63.662 156.977 63.872 156.767 C 64.082 156.557 64.2 156.272 64.2 155.975 L 64.2 155.975 L 64.36 152.475 L 64.73 145.605 Z " fill="rgb(0,91,231)"/><path d=" M 60.18 148.955 C 60.348 148.958 60.504 148.865 60.58 148.715 C 60.694 148.582 60.725 148.397 60.66 148.235 L 58.59 140.545 L 58.59 139.345 C 58.911 139.837 59.151 140.377 59.3 140.945 C 59.38 141.345 59.46 141.815 59.54 142.215 C 59.586 142.458 59.727 142.672 59.931 142.811 C 60.136 142.95 60.387 143.002 60.63 142.955 C 61.037 142.884 61.345 142.547 61.38 142.135 L 61.38 141.265 C 61.367 140.861 61.314 140.458 61.22 140.065 C 61.038 139.232 60.742 138.427 60.34 137.675 C 59.928 136.922 59.39 136.246 58.75 135.675 C 58.439 135.381 58.105 135.114 57.75 134.875 C 57.504 134.682 57.236 134.521 56.95 134.395 L 56.87 134.395 C 56.011 133.995 55.019 133.995 54.16 134.395 C 53.87 134.506 53.602 134.669 53.37 134.875 L 52.37 135.545 C 51.729 136.118 51.189 136.794 50.77 137.545 C 50.519 137.85 50.307 138.186 50.14 138.545 C 50.009 138.948 49.919 139.364 49.87 139.785 C 49.771 140.178 49.718 140.58 49.71 140.985 L 49.71 141.935 L 49.71 141.935 C 49.705 142.165 49.792 142.387 49.951 142.552 C 50.111 142.718 50.33 142.812 50.56 142.815 L 50.56 142.815 C 51.043 142.825 51.464 142.488 51.56 142.015 C 51.612 141.581 51.716 141.154 51.87 140.745 C 52.023 140.176 52.266 139.636 52.59 139.145 L 52.59 140.285 L 50.36 148.285 C 50.342 148.449 50.369 148.615 50.44 148.765 C 50.513 148.916 50.672 149.008 50.84 148.995 L 52.55 148.995 L 52.87 156.175 C 52.87 156.744 53.331 157.205 53.9 157.205 C 54.469 157.205 54.93 156.744 54.93 156.175 L 55.33 148.915 L 55.41 148.915 L 55.73 156.095 C 55.73 156.667 56.193 157.13 56.765 157.13 C 57.337 157.13 57.8 156.667 57.8 156.095 L 57.8 156.095 L 58.2 148.845 L 60.27 148.995 L 60.18 148.955 Z " fill="rgb(183,66,66)"/><path d=" M 64.87 138.115 C 65.196 138.715 65.435 139.358 65.58 140.025 C 65.66 140.505 65.74 141.025 65.82 141.545 C 65.845 142.111 66.324 142.55 66.89 142.525 C 67.456 142.5 67.895 142.021 67.87 141.455 L 67.87 141.455 L 67.87 140.455 C 67.857 139.971 67.804 139.49 67.71 139.015 C 67.52 138.014 67.183 137.047 66.71 136.145 C 66.259 135.287 65.708 134.485 65.07 133.755 C 64.763 133.396 64.429 133.061 64.07 132.755 L 64.87 138.115 Z " fill="rgb(0,91,231)"/><mask id="_mask_DsL1L4PfgLiLSSD53mTbpGbNKMNWK4EK" x="-200%" y="-200%" width="400%" height="400%"><rect x="-200%" y="-200%" width="400%" height="400%" style="fill:white;"/><line x1="48" y1="140.355" x2="48" y2="152.615" fill="black" stroke="none"/></mask><line x1="48" y1="140.355" x2="48" y2="152.615" mask="url(#_mask_DsL1L4PfgLiLSSD53mTbpGbNKMNWK4EK)" vector-effect="non-scaling-stroke" stroke-width="0.5" stroke="rgb(235,252,252)" stroke-linejoin="miter" stroke-linecap="butt" stroke-miterlimit="10"/><circle vector-effect="non-scaling-stroke" cx="78.1" cy="134.57490494834144" r="9.780000000000001" fill="none" stroke-width="0.5" stroke="rgb(0,0,0)" stroke-linejoin="miter" stroke-linecap="butt" stroke-miterlimit="10"/></g></g></g></g></g></svg>